<svg width="67" height="67" fill="none" xmlns="http://www.w3.org/2000/svg"><path d="M29.47 6.516c1.671-2.896 5.851-2.896 7.523 0L58.248 43.33c1.672 2.896-.418 6.516-3.762 6.516h-42.51c-3.344 0-5.434-3.62-3.762-6.516L29.47 6.516z" fill="url(#paint0_linear_1710_5560)"/><path d="M35.282 19.326l-.43 15.8H30.82l-.44-15.8h4.902zm-2.446 22.852a2.574 2.574 0 01-1.873-.771 2.518 2.518 0 01-.771-1.873 2.47 2.47 0 01.771-1.852 2.574 2.574 0 011.873-.77c.698 0 1.311.256 1.84.77.53.515.797 1.132.805 1.852a2.565 2.565 0 01-.386 1.333 2.85 2.85 0 01-.959.959c-.396.235-.83.352-1.3.352z" fill="#EAEAEB"/><defs><linearGradient id="paint0_linear_1710_5560" x1="0" y1="0" x2="67.791" y2="68.124" gradientUnits="userSpaceOnUse"><stop stop-color="#0ABD92"/><stop offset="1" stop-color="#009DB8"/></linearGradient></defs></svg>