<svg width="235" height="37" fill="none" xmlns="http://www.w3.org/2000/svg"><rect x=".269" y=".268" width="234.463" height="36.463" rx="18.232" fill="url(#paint0_linear_1710_5578)"/><path fill="#D9D9D9" d="M21.222 17.693h20.407v1.611H21.222z"/><path d="M48.053 24.999V12.88h4.853c.891 0 1.635.132 2.23.397.596.264 1.044.63 1.344 1.1.3.466.45 1.002.45 1.61 0 .473-.095.89-.285 1.248a2.47 2.47 0 01-.78.876 3.2 3.2 0 01-1.125.48v.118a2.767 2.767 0 012.284 1.402c.252.43.379.943.379 1.539 0 .643-.16 1.217-.48 1.722-.315.5-.783.897-1.402 1.19-.62.291-1.383.437-2.29.437h-5.178zm2.563-2.095h2.088c.714 0 1.235-.136 1.563-.408.327-.276.49-.643.49-1.1 0-.336-.08-.632-.242-.888a1.647 1.647 0 00-.692-.604c-.296-.146-.65-.219-1.06-.219h-2.148v3.22zm0-4.953h1.899c.351 0 .663-.06.935-.183.276-.126.493-.304.65-.533.163-.228.243-.502.243-.822 0-.438-.155-.791-.467-1.06-.308-.268-.746-.402-1.314-.402h-1.947v3zm9.986.752h2.717c1.203 0 2.142.288 2.816.864.675.572 1.012 1.337 1.012 2.296 0 .623-.152 1.172-.456 1.645-.303.47-.741.836-1.313 1.1-.572.26-1.259.391-2.06.391h-4.295V15.91h2.408v7.107h1.888c.422 0 .769-.107 1.041-.32a1.01 1.01 0 00.414-.816 1.07 1.07 0 00-.414-.858c-.272-.225-.62-.338-1.041-.338h-2.717v-1.982zm7.521 6.296V15.91h2.521v9.089h-2.52zm8.678.178c-.935 0-1.74-.19-2.414-.569a3.89 3.89 0 01-1.55-1.62c-.363-.703-.545-1.534-.545-2.492 0-.935.182-1.756.545-2.462a4.024 4.024 0 011.532-1.65c.663-.395 1.44-.592 2.332-.592.6 0 1.158.096 1.674.29.521.189.975.475 1.361.858.39.382.694.863.911 1.443.218.576.326 1.251.326 2.024v.692h-7.675v-1.562H78.6c0-.363-.079-.684-.237-.964a1.695 1.695 0 00-.656-.657 1.873 1.873 0 00-.965-.243 1.94 1.94 0 00-1.018.267c-.292.173-.52.408-.686.704a1.99 1.99 0 00-.255.976v1.485c0 .45.083.839.249 1.166.17.328.408.58.716.758.308.177.673.266 1.095.266.28 0 .536-.04.769-.119.233-.078.432-.197.598-.355.165-.157.291-.35.378-.58l2.332.154a3.19 3.19 0 01-.728 1.468c-.363.414-.832.738-1.408.97-.573.23-1.233.344-1.983.344zm5.35-2.752h2.443c.012.3.146.537.403.71.256.174.588.26.994.26.41 0 .755-.094 1.035-.284.28-.193.42-.47.42-.828a.993.993 0 00-.165-.574 1.126 1.126 0 00-.462-.39 1.57 1.57 0 00-.686-.143h-1.308v-1.65h1.308c.39 0 .69-.091.9-.273a.857.857 0 00.319-.68.917.917 0 00-.332-.74c-.216-.19-.51-.284-.881-.284-.375 0-.687.085-.935.255-.245.165-.371.382-.379.65h-2.432a2.246 2.246 0 01.491-1.414c.324-.398.758-.706 1.302-.923.548-.217 1.162-.325 1.84-.325.742 0 1.381.104 1.918.313.54.205.954.5 1.242.882.292.383.438.838.438 1.367 0 .481-.158.884-.473 1.207-.316.323-.758.554-1.326.692v.095a2.27 2.27 0 011.018.302c.304.177.546.422.728.734.181.307.272.672.272 1.094 0 .564-.166 1.048-.497 1.45-.327.402-.781.712-1.361.929-.576.213-1.237.32-1.982.32-.726 0-1.377-.105-1.953-.314-.572-.213-1.028-.525-1.367-.935-.335-.41-.513-.911-.533-1.503zm8.528 5.237v-4.663h.698c.201-.126.363-.327.485-.604.127-.276.23-.601.308-.976.083-.375.146-.78.19-1.213.047-.438.088-.88.124-1.325l.236-2.971h6.971v7.089h1.408v4.663h-2.402v-2.663H93.14v2.663h-2.462zm3.207-4.663h3.426v-5.148h-2.45l-.094 1.03a22.2 22.2 0 01-.29 2.473c-.126.675-.324 1.223-.592 1.645zm14.947-1.325l3.273-5.764h2.485v9.089h-2.403v-5.781l-3.26 5.781h-2.503V15.91h2.408v5.764zm7.311.751h2.444a.86.86 0 00.402.71c.257.174.588.26.995.26.41 0 .755-.094 1.035-.284.28-.193.42-.47.42-.828a.996.996 0 00-.165-.574 1.132 1.132 0 00-.462-.39 1.569 1.569 0 00-.686-.143h-1.308v-1.65h1.308c.39 0 .69-.091.899-.273a.858.858 0 00.32-.68.917.917 0 00-.332-.74c-.217-.19-.511-.284-.882-.284-.374 0-.686.085-.934.255-.245.165-.371.382-.379.65h-2.432a2.244 2.244 0 01.491-1.414c.323-.398.757-.706 1.302-.923.548-.217 1.162-.325 1.84-.325.742 0 1.381.104 1.917.313.541.205.955.5 1.243.882.292.383.438.838.438 1.367 0 .481-.158.884-.474 1.207-.315.323-.757.554-1.325.692v.095a2.27 2.27 0 011.018.302c.303.177.546.422.728.734.181.307.272.672.272 1.094 0 .564-.166 1.048-.497 1.45-.328.402-.781.712-1.361.929-.576.213-1.237.32-1.983.32-.725 0-1.376-.105-1.952-.314-.572-.213-1.028-.525-1.367-.935-.336-.41-.513-.911-.533-1.503zm19.32-6.515v1.982h-3.775V25h-2.45v-9.09h6.225zm5.319 9.267c-.92 0-1.715-.196-2.385-.586a4.009 4.009 0 01-1.545-1.645c-.363-.706-.544-1.525-.544-2.456 0-.939.181-1.76.544-2.462a3.96 3.96 0 011.545-1.645c.67-.394 1.465-.591 2.385-.591.919 0 1.712.197 2.378.591a3.95 3.95 0 011.551 1.645c.363.703.544 1.523.544 2.462 0 .931-.181 1.75-.544 2.456a3.997 3.997 0 01-1.551 1.645c-.666.39-1.459.585-2.378.585zm.011-1.953c.419 0 .768-.119 1.048-.355.28-.24.491-.568.633-.982a4.24 4.24 0 00.219-1.415c0-.528-.073-1-.219-1.414-.142-.414-.353-.742-.633-.982s-.629-.361-1.048-.361c-.422 0-.777.12-1.065.36-.284.241-.499.569-.645.983a4.35 4.35 0 00-.213 1.414c0 .529.071 1 .213 1.415.146.414.361.741.645.982.288.236.643.355 1.065.355zm6.101 5.183V15.91h2.485v1.527h.113c.11-.245.27-.494.479-.746.213-.256.489-.47.829-.639.343-.174.769-.26 1.278-.26.663 0 1.274.173 1.834.52.56.344 1.008.862 1.343 1.557.336.69.503 1.556.503 2.597 0 1.014-.163 1.87-.491 2.569-.323.694-.765 1.22-1.325 1.58a3.406 3.406 0 01-1.87.532c-.489 0-.906-.08-1.249-.243a2.584 2.584 0 01-.834-.61 3.085 3.085 0 01-.497-.75h-.077v4.863h-2.521zm2.468-7.953c0 .541.075 1.012.225 1.415.149.402.366.716.65.94.284.221.63.332 1.036.332.41 0 .757-.112 1.041-.337.284-.23.499-.545.645-.947.15-.406.225-.874.225-1.402 0-.525-.073-.987-.219-1.385-.146-.399-.361-.71-.645-.935-.284-.225-.633-.337-1.047-.337-.41 0-.757.108-1.041.325-.281.217-.496.525-.645.923-.15.399-.225.868-.225 1.409zm12.184 4.723c-.92 0-1.715-.196-2.385-.586a4.009 4.009 0 01-1.545-1.645c-.363-.706-.544-1.525-.544-2.456 0-.939.181-1.76.544-2.462a3.96 3.96 0 011.545-1.645c.67-.394 1.465-.591 2.385-.591.919 0 1.712.197 2.378.591a3.95 3.95 0 011.551 1.645c.363.703.544 1.523.544 2.462 0 .931-.181 1.75-.544 2.456a3.997 3.997 0 01-1.551 1.645c-.666.39-1.459.585-2.378.585zm.011-1.953c.419 0 .768-.119 1.048-.355.28-.24.491-.568.633-.982a4.24 4.24 0 00.219-1.415c0-.528-.073-1-.219-1.414-.142-.414-.353-.742-.633-.982s-.629-.361-1.048-.361c-.422 0-.777.12-1.065.36-.284.241-.499.569-.645.983a4.35 4.35 0 00-.213 1.414c0 .529.071 1 .213 1.415.146.414.361.741.645.982.288.236.643.355 1.065.355zm5.391 4.438v-4.663h.698c.201-.126.363-.327.486-.604a4.69 4.69 0 00.307-.976c.083-.375.146-.78.19-1.213.047-.438.088-.88.124-1.325l.237-2.971h6.97v7.089h1.408v4.663h-2.402v-2.663h-5.556v2.663h-2.462zm3.207-4.663h3.426v-5.148h-2.449l-.095 1.03a22.2 22.2 0 01-.29 2.473c-.126.675-.323 1.223-.592 1.645zm11.274 2.172c-.58 0-1.096-.101-1.55-.302a2.492 2.492 0 01-1.077-.905c-.26-.403-.391-.904-.391-1.503 0-.505.093-.93.279-1.273.185-.343.437-.62.757-.828.32-.21.682-.367 1.089-.474a8.29 8.29 0 011.29-.224c.528-.056.954-.107 1.278-.154.323-.052.558-.127.704-.225a.494.494 0 00.219-.438v-.035c0-.375-.118-.665-.355-.87-.233-.206-.564-.308-.994-.308-.454 0-.815.1-1.083.302a1.392 1.392 0 00-.533.745l-2.331-.19a3.166 3.166 0 01.698-1.431 3.352 3.352 0 011.343-.935c.553-.22 1.192-.331 1.918-.331.505 0 .988.059 1.449.177.466.118.878.302 1.237.55.363.249.649.569.858.96.209.386.314.85.314 1.39v6.13h-2.391v-1.26h-.071a2.558 2.558 0 01-.586.751c-.244.213-.538.38-.881.503a3.65 3.65 0 01-1.19.178zm.722-1.74c.371 0 .698-.073.982-.219.285-.15.507-.351.669-.604.162-.252.243-.538.243-.858v-.964a1.358 1.358 0 01-.326.142c-.134.04-.286.077-.455.112-.17.032-.34.062-.509.09l-.462.064a3.116 3.116 0 00-.775.207 1.245 1.245 0 00-.515.385.938.938 0 00-.183.592c0 .343.124.605.373.787.252.177.572.266.958.266z" fill="#fff"/><path fill="#D9D9D9" d="M193.37 17.693h20.407v1.611H193.37z"/><rect x=".269" y=".268" width="234.463" height="36.463" rx="18.232" stroke="url(#paint1_linear_1710_5578)" stroke-width=".537"/><defs><linearGradient id="paint0_linear_1710_5578" x1="0" y1="-.001" x2="11.543" y2="73.671" gradientUnits="userSpaceOnUse"><stop stop-color="#0ABD92"/><stop offset="1" stop-color="#009DB8"/></linearGradient><linearGradient id="paint1_linear_1710_5578" x1="0" y1="-.001" x2="11.543" y2="73.671" gradientUnits="userSpaceOnUse"><stop stop-color="#0ABD92"/><stop offset="1" stop-color="#009DB8"/></linearGradient></defs></svg>