<svg width="40" height="41" fill="none" xmlns="http://www.w3.org/2000/svg"><path opacity=".54" fill-rule="evenodd" clip-rule="evenodd" d="M6.548.733c-.733.485-1.716 1.74-2.293 2.925-.527 1.085-.68 1.755-.682 3.01-.003 1.314.162 2.018.764 3.247.48.98 1.01 1.728 2.109 2.967 1.58 1.782 2.24 3.1 2.234 4.466 0 .295-.037.69-.08.879-.202.87-.853 1.838-1.69 2.51-.666.535-.779.668-.873 1.036-.191.743.336 1.514 1.094 1.6.553.061.996-.2 1.95-1.147 1.143-1.135 1.692-2.036 2.028-3.326.226-.867.23-2.185.009-3.065-.415-1.652-1.148-2.887-2.867-4.83C7.35 9.988 6.954 9.425 6.61 8.67c-.522-1.144-.6-2.19-.245-3.292.276-.855.676-1.499 1.43-2.3.728-.774.886-1.13.726-1.633C8.24.57 7.305.232 6.548.733zM16.52.618c-.347.177-1.4 1.303-1.832 1.958-1.008 1.53-1.38 2.826-1.29 4.506.102 1.922.882 3.559 2.64 5.535.436.49.966 1.118 1.179 1.398.757.995 1.313 2.402 1.317 3.337.005 1.236-.824 2.694-2.037 3.584-.68.498-.86 1.112-.519 1.758.204.385.702.7 1.107.7.463 0 1.06-.384 1.88-1.21 1.55-1.559 2.218-3.151 2.13-5.079-.095-2.069-.965-3.822-3.025-6.1-1.928-2.13-2.495-3.899-1.846-5.764.27-.773.613-1.303 1.389-2.14.723-.78.83-1.01.738-1.575-.052-.32-.232-.596-.54-.826-.284-.211-.954-.254-1.29-.082zm9.763.038c-.335.205-1.037.913-1.475 1.488-1.132 1.49-1.76 3.423-1.621 4.993.104 1.187.44 2.23 1.066 3.323.467.814.833 1.304 1.667 2.226 1.285 1.424 2.054 2.659 2.309 3.713.383 1.582-.266 3.22-1.743 4.397-.668.532-.834.796-.835 1.317 0 .486.217.846.667 1.108.66.383 1.351.097 2.5-1.038.925-.915 1.686-2.218 1.965-3.366.16-.66.18-2.07.038-2.73-.352-1.643-1.231-3.176-2.882-5.025-1.824-2.042-2.386-3.484-2.052-5.263.166-.89.936-2.174 1.79-2.987.588-.56.695-1.14.323-1.75-.32-.525-1.185-.73-1.717-.406zM2.52 24.766C1.045 25.165.006 26.57.003 28.169 0 29.673.915 30.937 2.418 31.504c.336.127 1.314.139 14.697.175l14.336.04.186.215c.267.31.318.69.141 1.05-.08.163-.233.34-.34.394-.154.076-3.188.097-14.16.098-9.667 0-14.106.027-14.427.086a3.525 3.525 0 00-2.694 2.402c-.586 1.894.531 3.952 2.405 4.431.402.103 2.67.115 18.571.098l18.113-.02.216-.161c.417-.311.538-.554.538-1.076 0-.587-.209-.933-.696-1.155-.31-.14-.932-.145-18.173-.147-19.625-.002-18.17.035-18.43-.468-.208-.402-.094-1.015.222-1.196.13-.075 3.356-.105 14.44-.136l14.27-.039.45-.171c.652-.249 1.279-.693 1.626-1.153 1.495-1.979.711-4.647-1.626-5.538l-.45-.171-14.27-.04c-11.084-.03-14.31-.06-14.44-.135-.183-.105-.34-.474-.34-.795 0-.281.272-.7.513-.791.128-.05 6.646-.077 18.044-.078 17.233-.002 17.855-.007 18.164-.148.487-.22.697-.568.697-1.154 0-.522-.122-.765-.539-1.076l-.216-.161-18.156-.015c-15.553-.012-18.215.002-18.571.098z" fill="#D9D9D9"/></svg>