<svg width="67" height="67" fill="none" xmlns="http://www.w3.org/2000/svg"><path fill-rule="evenodd" clip-rule="evenodd" d="M25.821 12.193a.74.74 0 00-.186.451c0 .409.253 1.165.444 1.326.326.276.868.147 1.017-.244.113-.294-.145-1.283-.4-1.536a.598.598 0 00-.875.003zm9.769-.035c-.183.18-.437.964-.437 1.343 0 .512.727.824 1.063.457.15-.165.478-1.117.48-1.392 0-.084-.095-.247-.21-.361-.256-.254-.666-.275-.896-.047zm-11.852 1.367c-.076.044-.185.192-.242.328-.134.321.008.608.544 1.098.462.42.87.48 1.163.17.306-.325.229-.62-.31-1.179-.39-.405-.536-.502-.75-.5a1.015 1.015 0 00-.405.083zm13.68.36c-.555.532-.654.844-.38 1.19.143.18.258.232.509.232.283 0 .384-.063.808-.503.55-.57.61-.824.274-1.156-.35-.346-.67-.284-1.212.237zm-7.122 1.167c-.683.094-1.634.424-2.246.78-.267.154-.815.606-1.218 1.003-1.19 1.174-1.735 2.474-1.742 4.159-.004 1.064.148 1.713.627 2.674.42.842 1.045 1.6 1.718 2.086l.515.371v.921c0 .905.005.925.25 1.17.306.3.522.312.838.043l.241-.205.043-3.176.043-3.176.247-.321c.573-.743 1.65-.852 2.311-.233.565.529.526-.101.553 8.968l.023 8.23.184.194c.245.258.618.252.887-.014l.21-.209v-2.892c0-3.047.024-3.254.411-3.678.655-.717 1.935-.607 2.483.213l.236.353.043 3.048.043 3.049.203.162c.274.22.626.205.854-.035.185-.194.186-.224.187-3.543 0-3.458.03-3.803.36-4.262.362-.506 1.376-.742 1.937-.451.311.16.672.548.784.84.059.155.09 1.442.09 3.633 0 2.87.021 3.433.131 3.643.215.412.865.448 1.09.06.079-.138.12-.894.152-2.75l.043-2.56.263-.326c.606-.75 1.622-.845 2.295-.214.502.47.525.578.557 2.583l.029 1.845.218.17c.295.23.588.215.849-.043l.216-.214-.027-1.972-.027-1.971-.252-.492c-.711-1.391-2.4-2.02-3.757-1.399l-.493.226v-.186c-.002-.305-.392-1.042-.762-1.44a3.478 3.478 0 00-.842-.616c-.428-.211-.598-.246-1.226-.249-.629-.003-.795.029-1.217.234-.535.26-1.196.868-1.354 1.246l-.1.24-.401-.245c-.73-.448-1.752-.51-2.576-.155a4.33 4.33 0 01-.407.162c-.018 0-.032-.873-.032-1.94v-1.94l.536-.328c.682-.417 1.566-1.291 1.967-1.946 1.12-1.83 1.214-3.863.268-5.814-.337-.696-.499-.912-1.174-1.573-.873-.853-1.577-1.275-2.604-1.556-.748-.205-1.765-.28-2.478-.182zm-8.028.616a.67.67 0 00-.19.829c.102.195.245.282.694.42.311.095.654.172.762.172.275 0 .548-.25.608-.559.073-.371-.221-.665-.835-.835-.585-.161-.851-.168-1.039-.027zm16.572.087c-.437.148-.583.241-.675.434-.102.211-.1.283.019.528.18.372.43.425 1.171.245.44-.107.65-.206.779-.369.325-.409.013-1.036-.51-1.029-.125.002-.478.088-.784.191zm-6.612.7c1.512.354 2.836 1.522 3.367 2.972.228.62.307 1.915.16 2.613-.17.812-.647 1.642-1.325 2.307l-.606.594-.044-1.698c-.042-1.67-.047-1.706-.294-2.189-.584-1.143-1.873-1.808-3.073-1.584-1.014.189-1.758.76-2.193 1.683-.208.444-.226.578-.256 1.906l-.031 1.428-.205-.19c-.33-.308-.875-1.19-1.07-1.736-.11-.304-.2-.811-.225-1.27-.082-1.443.349-2.555 1.39-3.586 1.187-1.175 2.783-1.628 4.405-1.25zM28.201 30.24l-.25.248-.004 3.041-.002 3.041-.544-1.104c-.613-1.244-1-1.678-1.837-2.063-.629-.29-1.68-.357-2.316-.147-1.588.522-2.575 2.278-2.149 3.824.182.66 2.748 6.107 2.972 6.31.17.153.281.187.485.148.31-.06.565-.33.565-.6 0-.107-.6-1.485-1.333-3.063-.732-1.578-1.37-3.039-1.417-3.246-.107-.474.073-1.153.41-1.55.283-.333.988-.671 1.403-.672.486-.002 1.054.234 1.387.575.222.227.609.965 1.39 2.65.597 1.283 1.157 2.407 1.246 2.496.22.221.649.21.884-.023l.188-.186.024-4.713.023-4.713-.253-.25c-.319-.317-.555-.317-.872-.003zm17.937 8.91c-.15.148-.165.359-.205 2.822-.037 2.336-.065 2.748-.222 3.361-.318 1.233-.944 2.442-1.693 3.267-.158.174-.309.403-.335.51-.027.106-.038 1.504-.024 3.107l.025 2.915.203.162a.703.703 0 00.88 0l.203-.162.025-2.808.025-2.808.48-.658a9.92 9.92 0 001.462-3.054c.217-.8.227-.93.26-3.618l.035-2.788-.194-.204c-.24-.253-.693-.274-.925-.044zM25.26 45.02c-.154.12-.226.257-.226.43 0 .333.905 2.286 1.405 3.03.527.785 1.397 1.702 2.119 2.233l.591.436v1.93c0 1.822.01 1.94.178 2.152a.604.604 0 00.922.027c.182-.192.187-.252.187-2.49 0-2.597.068-2.342-.772-2.87-.541-.341-1.493-1.265-1.94-1.884-.209-.287-.645-1.077-.972-1.755-.342-.713-.665-1.271-.764-1.324-.257-.136-.477-.11-.728.085z" fill="url(#paint0_linear_3051_3652)"/><circle cx="33.5" cy="33.5" r="33" stroke="#136D63"/><defs><linearGradient id="paint0_linear_3051_3652" x1="21" y1="12" x2="60.33" y2="35.878" gradientUnits="userSpaceOnUse"><stop stop-color="#0ABD92"/><stop offset="1" stop-color="#009DB8"/></linearGradient></defs></svg>