<svg width="67" height="67" fill="none" xmlns="http://www.w3.org/2000/svg"><mask id="a" fill="#fff"><path fill-rule="evenodd" clip-rule="evenodd" d="M34.54 17.16c-.214.144-.276.274-.653 1.365l-.416 1.206-.694.262c-.382.144-.857.346-1.057.448l-.364.186-1.11-.559c-.612-.308-1.199-.558-1.308-.558-.11 0-.319.09-.47.201-.317.237-3.008 2.96-3.174 3.213a.773.773 0 00-.114.358c0 .103.25.693.555 1.312l.555 1.125-.184.364c-.101.2-.301.677-.444 1.06l-.26.697-1.199.419c-.977.34-1.224.454-1.342.615-.14.19-.144.276-.144 2.595v2.399l.208.202c.28.273 2.906 1.161 3.224 1.09.284-.062.557-.404.557-.697 0-.438-.214-.588-1.449-1.01l-1.119-.384.018-1.632.018-1.633.902-.3c1.563-.523 1.46-.434 1.835-1.577.123-.374.377-.983.564-1.353.188-.37.341-.763.341-.872 0-.11-.231-.664-.515-1.232l-.515-1.034 1.164-1.167 1.163-1.168 1.05.529c.579.29 1.116.529 1.195.529.078 0 .461-.158.85-.35.39-.193 1.067-.474 1.506-.624.537-.185.832-.325.902-.427.057-.085.262-.627.456-1.206l.353-1.053h3.306l.37 1.115c.22.663.424 1.16.504 1.227.074.061.44.213.816.337.375.124 1.03.395 1.456.603.425.208.84.378.92.378.08 0 .619-.238 1.197-.529l1.05-.529 1.164 1.168 1.163 1.167-.515 1.034c-.292.586-.515 1.122-.515 1.24 0 .112.173.56.384.993.212.433.479 1.09.593 1.46.114.37.265.723.334.787.07.063.623.28 1.229.484l1.102.37.019 1.647.018 1.646-1.098.35c-.733.235-1.147.404-1.246.51-.082.088-.261.488-.399.89a14.933 14.933 0 01-.593 1.434c-.192.393-.343.8-.343.923 0 .134.197.618.502 1.233l.502 1.012-1.159 1.164-1.159 1.165-1.095-.54c-.602-.296-1.124-.538-1.16-.537-.035 0-.421.177-.857.39a13.9 13.9 0 01-1.483.616c-.38.125-.759.296-.842.38-.09.09-.296.583-.505 1.214l-.353 1.061H35.43l-.358-1.06c-.216-.642-.423-1.132-.523-1.238-.382-.408-1.181-.095-1.181.463 0 .128.205.85.456 1.607.38 1.149.49 1.404.664 1.551l.209.176h4.768l.192-.165c.15-.13.278-.425.582-1.342l.39-1.175.272-.097c.15-.054.644-.255 1.1-.447l.826-.35 1.064.533c1.577.79 1.294.887 3.3-1.122 1.285-1.287 1.67-1.714 1.731-1.918.076-.254.059-.304-.492-1.43l-.57-1.166.248-.538c.136-.296.337-.78.445-1.076l.196-.537 1.168-.396c.89-.303 1.207-.442 1.329-.585l.16-.187v-2.427c0-2.33-.005-2.434-.14-2.606-.108-.138-.413-.27-1.34-.578l-1.2-.4-.158-.459a14.528 14.528 0 00-.442-1.075l-.284-.617.508-1.022c.615-1.238.653-1.353.53-1.64-.053-.12-.841-.963-1.753-1.874-1.475-1.472-1.684-1.655-1.882-1.655-.14 0-.636.207-1.333.558l-1.11.559-.364-.186c-.2-.102-.675-.304-1.057-.45-.382-.144-.72-.305-.753-.356-.032-.052-.235-.61-.45-1.242-.374-1.093-.404-1.155-.635-1.271-.217-.109-.49-.122-2.505-.122-2.243 0-2.264.001-2.498.16zm1.16 5.002c-4.699.738-8.133 4.9-7.933 9.617a9.1 9.1 0 00.443 2.536l.174.553-2.503 2.516-2.504 2.517-.746.01c-2.805.04-5.124 2.06-5.57 4.854-.178 1.11.055 2.69.455 3.092.181.182.554.223.817.088.084-.042.761-.685 1.506-1.429l1.353-1.352 1.005 1.011 1.004 1.011-1.362 1.377c-.75.757-1.396 1.445-1.439 1.529-.232.46.02.866.66 1.065 2.702.839 5.689-.509 6.87-3.1.326-.717.451-1.279.489-2.196l.035-.871 2.467-2.486 2.466-2.485.298.129c.447.192 1.212.41 1.852.526.765.14 2.34.137 3.137-.005 3.84-.688 6.88-3.735 7.577-7.596.158-.875.153-2.451-.011-3.316-.717-3.77-3.508-6.643-7.288-7.5-.575-.13-2.643-.191-3.252-.096zm2.211 1.423c1.193.082 2.826.716 3.853 1.495a8.022 8.022 0 013.19 6.416c0 2.929-1.753 5.73-4.425 7.074-.925.466-2.386.807-3.45.807-.818 0-2.533-.322-2.533-.476 0-.026.388-.437.862-.912l.862-.864.508.014c1.439.039 2.962-.54 4.05-1.541.716-.657 1.37-1.758 1.643-2.764.213-.786.208-2.135-.01-2.92-.192-.694-.405-.923-.854-.923-.275 0-.322.039-1.73 1.444l-1.448 1.444-1.005-1.008-1.005-1.007 1.38-1.396c.76-.767 1.418-1.468 1.464-1.559.11-.219.036-.58-.158-.763-.358-.338-1.37-.536-2.488-.487-2.09.093-3.915 1.309-4.844 3.227-.38.783-.492 1.263-.536 2.276l-.039.881-.821.823c-.452.453-.84.805-.862.782-.023-.023-.105-.35-.183-.728-.199-.97-.154-2.48.103-3.46a7.982 7.982 0 015.755-5.708c.556-.14 1.644-.262 1.993-.224.095.01.423.036.728.057zm-1.919 4.621c-.634.643-1.188 1.237-1.23 1.32a1.022 1.022 0 00-.077.382c0 .207.17.4 1.719 1.957l1.718 1.727h.307c.304 0 .315-.01 1.542-1.235l1.236-1.235v.387c0 .485-.21 1.326-.455 1.815-.511 1.026-1.325 1.725-2.525 2.17-.32.119-.568.145-1.449.155l-1.064.011-4.332 4.351c-2.383 2.393-4.35 4.42-4.372 4.505-.022.085-.046.603-.053 1.15-.012.896-.032 1.044-.197 1.464-.42 1.066-1.154 1.894-2.092 2.359-.588.29-1.316.482-1.844.484l-.31.001 1.155-1.167c.635-.643 1.19-1.26 1.232-1.372.157-.417.06-.556-1.481-2.123-.806-.819-1.588-1.58-1.737-1.69-.285-.211-.57-.254-.826-.123-.084.042-.658.582-1.277 1.199-.619.617-1.141 1.105-1.162 1.085-.02-.02-.005-.286.033-.59.236-1.875 1.436-3.254 3.25-3.734.45-.119.657-.134 1.36-.097l.828.043 4.375-4.394 4.374-4.394.002-.994c.002-.754.033-1.095.128-1.412a4.41 4.41 0 014.102-3.164l.276-.008-1.154 1.167z"/></mask><path fill-rule="evenodd" clip-rule="evenodd" d="M34.54 17.16c-.214.144-.276.274-.653 1.365l-.416 1.206-.694.262c-.382.144-.857.346-1.057.448l-.364.186-1.11-.559c-.612-.308-1.199-.558-1.308-.558-.11 0-.319.09-.47.201-.317.237-3.008 2.96-3.174 3.213a.773.773 0 00-.114.358c0 .103.25.693.555 1.312l.555 1.125-.184.364c-.101.2-.301.677-.444 1.06l-.26.697-1.199.419c-.977.34-1.224.454-1.342.615-.14.19-.144.276-.144 2.595v2.399l.208.202c.28.273 2.906 1.161 3.224 1.09.284-.062.557-.404.557-.697 0-.438-.214-.588-1.449-1.01l-1.119-.384.018-1.632.018-1.633.902-.3c1.563-.523 1.46-.434 1.835-1.577.123-.374.377-.983.564-1.353.188-.37.341-.763.341-.872 0-.11-.231-.664-.515-1.232l-.515-1.034 1.164-1.167 1.163-1.168 1.05.529c.579.29 1.116.529 1.195.529.078 0 .461-.158.85-.35.39-.193 1.067-.474 1.506-.624.537-.185.832-.325.902-.427.057-.085.262-.627.456-1.206l.353-1.053h3.306l.37 1.115c.22.663.424 1.16.504 1.227.074.061.44.213.816.337.375.124 1.03.395 1.456.603.425.208.84.378.92.378.08 0 .619-.238 1.197-.529l1.05-.529 1.164 1.168 1.163 1.167-.515 1.034c-.292.586-.515 1.122-.515 1.24 0 .112.173.56.384.993.212.433.479 1.09.593 1.46.114.37.265.723.334.787.07.063.623.28 1.229.484l1.102.37.019 1.647.018 1.646-1.098.35c-.733.235-1.147.404-1.246.51-.082.088-.261.488-.399.89a14.933 14.933 0 01-.593 1.434c-.192.393-.343.8-.343.923 0 .134.197.618.502 1.233l.502 1.012-1.159 1.164-1.159 1.165-1.095-.54c-.602-.296-1.124-.538-1.16-.537-.035 0-.421.177-.857.39a13.9 13.9 0 01-1.483.616c-.38.125-.759.296-.842.38-.09.09-.296.583-.505 1.214l-.353 1.061H35.43l-.358-1.06c-.216-.642-.423-1.132-.523-1.238-.382-.408-1.181-.095-1.181.463 0 .128.205.85.456 1.607.38 1.149.49 1.404.664 1.551l.209.176h4.768l.192-.165c.15-.13.278-.425.582-1.342l.39-1.175.272-.097c.15-.054.644-.255 1.1-.447l.826-.35 1.064.533c1.577.79 1.294.887 3.3-1.122 1.285-1.287 1.67-1.714 1.731-1.918.076-.254.059-.304-.492-1.43l-.57-1.166.248-.538c.136-.296.337-.78.445-1.076l.196-.537 1.168-.396c.89-.303 1.207-.442 1.329-.585l.16-.187v-2.427c0-2.33-.005-2.434-.14-2.606-.108-.138-.413-.27-1.34-.578l-1.2-.4-.158-.459a14.528 14.528 0 00-.442-1.075l-.284-.617.508-1.022c.615-1.238.653-1.353.53-1.64-.053-.12-.841-.963-1.753-1.874-1.475-1.472-1.684-1.655-1.882-1.655-.14 0-.636.207-1.333.558l-1.11.559-.364-.186c-.2-.102-.675-.304-1.057-.45-.382-.144-.72-.305-.753-.356-.032-.052-.235-.61-.45-1.242-.374-1.093-.404-1.155-.635-1.271-.217-.109-.49-.122-2.505-.122-2.243 0-2.264.001-2.498.16zm1.16 5.002c-4.699.738-8.133 4.9-7.933 9.617a9.1 9.1 0 00.443 2.536l.174.553-2.503 2.516-2.504 2.517-.746.01c-2.805.04-5.124 2.06-5.57 4.854-.178 1.11.055 2.69.455 3.092.181.182.554.223.817.088.084-.042.761-.685 1.506-1.429l1.353-1.352 1.005 1.011 1.004 1.011-1.362 1.377c-.75.757-1.396 1.445-1.439 1.529-.232.46.02.866.66 1.065 2.702.839 5.689-.509 6.87-3.1.326-.717.451-1.279.489-2.196l.035-.871 2.467-2.486 2.466-2.485.298.129c.447.192 1.212.41 1.852.526.765.14 2.34.137 3.137-.005 3.84-.688 6.88-3.735 7.577-7.596.158-.875.153-2.451-.011-3.316-.717-3.77-3.508-6.643-7.288-7.5-.575-.13-2.643-.191-3.252-.096zm2.211 1.423c1.193.082 2.826.716 3.853 1.495a8.022 8.022 0 013.19 6.416c0 2.929-1.753 5.73-4.425 7.074-.925.466-2.386.807-3.45.807-.818 0-2.533-.322-2.533-.476 0-.026.388-.437.862-.912l.862-.864.508.014c1.439.039 2.962-.54 4.05-1.541.716-.657 1.37-1.758 1.643-2.764.213-.786.208-2.135-.01-2.92-.192-.694-.405-.923-.854-.923-.275 0-.322.039-1.73 1.444l-1.448 1.444-1.005-1.008-1.005-1.007 1.38-1.396c.76-.767 1.418-1.468 1.464-1.559.11-.219.036-.58-.158-.763-.358-.338-1.37-.536-2.488-.487-2.09.093-3.915 1.309-4.844 3.227-.38.783-.492 1.263-.536 2.276l-.039.881-.821.823c-.452.453-.84.805-.862.782-.023-.023-.105-.35-.183-.728-.199-.97-.154-2.48.103-3.46a7.982 7.982 0 015.755-5.708c.556-.14 1.644-.262 1.993-.224.095.01.423.036.728.057zm-1.919 4.621c-.634.643-1.188 1.237-1.23 1.32a1.022 1.022 0 00-.077.382c0 .207.17.4 1.719 1.957l1.718 1.727h.307c.304 0 .315-.01 1.542-1.235l1.236-1.235v.387c0 .485-.21 1.326-.455 1.815-.511 1.026-1.325 1.725-2.525 2.17-.32.119-.568.145-1.449.155l-1.064.011-4.332 4.351c-2.383 2.393-4.35 4.42-4.372 4.505-.022.085-.046.603-.053 1.15-.012.896-.032 1.044-.197 1.464-.42 1.066-1.154 1.894-2.092 2.359-.588.29-1.316.482-1.844.484l-.31.001 1.155-1.167c.635-.643 1.19-1.26 1.232-1.372.157-.417.06-.556-1.481-2.123-.806-.819-1.588-1.58-1.737-1.69-.285-.211-.57-.254-.826-.123-.084.042-.658.582-1.277 1.199-.619.617-1.141 1.105-1.162 1.085-.02-.02-.005-.286.033-.59.236-1.875 1.436-3.254 3.25-3.734.45-.119.657-.134 1.36-.097l.828.043 4.375-4.394 4.374-4.394.002-.994c.002-.754.033-1.095.128-1.412a4.41 4.41 0 014.102-3.164l.276-.008-1.154 1.167z" fill="url(#paint0_linear_3051_3655)" stroke="#000" stroke-width=".362" mask="url(#a)"/><circle cx="33.5" cy="33.5" r="33" stroke="#136D63"/><defs><linearGradient id="paint0_linear_3051_3655" x1="17" y1="17" x2="52.093" y2="52.266" gradientUnits="userSpaceOnUse"><stop stop-color="#0ABD92"/><stop offset="1" stop-color="#009DB8"/></linearGradient></defs></svg>