<svg width="67" height="67" fill="none" xmlns="http://www.w3.org/2000/svg"><circle cx="33.5" cy="33.5" r="33" stroke="#136D63"/><path d="M32.747 20.41c-4.492.361-8.27 1.874-11.521 4.612-.712.6-1.46 1.352-2.049 2.028-.293.338-.546.656-.733.927-.19.273-.305.487-.335.62-.096.412.2.835.677.922a.64.64 0 00.51-.118c.188-.126.402-.352.689-.717 2.88-3.665 6.997-5.928 11.93-6.562 1.235-.159 3.581-.16 4.8-.003 4.993.646 9.14 2.941 12.018 6.656.277.358.496.56.702.647.198.084.398.067.655-.052m-17.343-8.96l17.343 8.96m-17.343-8.96c.99-.08 3.086-.028 4.123.102 4.176.524 7.821 2.109 10.695 4.646a21.048 21.048 0 011.921 1.955c.278.321.516.621.692.87.088.126.16.237.212.332a.94.94 0 01.097.22c.075.326-.104.7-.397.835m-17.343-8.96l17.381 9.043-.038-.083M32.502 16.105h0a13.7 13.7 0 01.741-.014c.391-.001.891 0 1.407.006v-.09.09c2.263.026 3.288.148 5.23.62.972.236 2.281.687 3.395 1.136.557.225 1.064.448 1.453.645a5.8 5.8 0 01.486.268c.13.081.21.146.247.191.297.368.204.913-.185 1.145l.046.077-.047-.077a.73.73 0 01-.535.11c-.221-.034-.515-.147-.976-.36-1.713-.793-3.018-1.26-4.503-1.615-4.835-1.153-10.336-.508-14.677 1.723-.293.15-.518.233-.71.26a.826.826 0 01-.506-.086.702.702 0 01-.349-.485.867.867 0 01.102-.643h0a.797.797 0 01.245-.226c.131-.088.318-.19.585-.32l-.038-.078.038.078c2.717-1.332 5.172-2.008 8.55-2.355zM22.27 45.398l.072.04-.072-.04a.816.816 0 01-1.281.18.883.883 0 01-.137-.203 3.9 3.9 0 01-.17-.37c-.12-.296-.25-.678-.378-1.108-.255-.86-.5-1.911-.646-2.85-.09-.58-.146-1.497-.16-2.397-.015-.9.012-1.775.085-2.27.4-2.723 1.501-4.97 3.444-7.029 2.643-2.8 6.271-4.486 10.173-4.726a15.85 15.85 0 017.534 1.364c5 2.253 8.323 7.098 8.33 12.125.002.844-.124 1.555-.397 2.188-.272.633-.692 1.193-1.286 1.73-2.795 2.527-7.451 1.578-8.908-1.805a5.47 5.47 0 01-.28-.964 5.397 5.397 0 01-.126-.992c0-.783-.39-1.65-1.015-2.276-.47-.471-.945-.752-1.618-.96-1.803-.555-3.822.238-4.646 1.837l.08.041-.08-.041c-.165.32-.27.6-.328.906-.058.306-.066.634-.039 1.045.163 2.495.893 4.49 2.322 6.331 1.58 2.036 3.532 3.383 6.09 4.204.612.197.924.3 1.107.389.089.043.143.08.184.122.043.041.076.09.122.162l.072-.046-.072.046a.77.77 0 01.01.778c-.13.24-.367.411-.647.411-.09 0-.274-.036-.526-.103a14.97 14.97 0 01-.874-.267 18.164 18.164 0 01-1.847-.722c-1.388-.661-2.366-1.351-3.622-2.559-2.545-2.449-3.922-5.577-3.96-8.994-.007-.575.013-.956.091-1.311.08-.355.218-.688.458-1.164.138-.274.242-.456.378-.634s.305-.355.577-.619c1.172-1.135 2.338-1.605 3.986-1.605 1.264 0 2.409.367 3.374 1.08 1.27.938 1.94 2.15 2.086 3.775.045.496.087.826.156 1.097.07.273.165.483.314.739l.067-.04-.067.04c.696 1.201 1.942 1.892 3.402 1.892 1.102 0 2.087-.403 2.83-1.162.362-.369.608-.716.762-1.12.153-.404.213-.858.213-1.437 0-3.513-1.922-7.064-5.026-9.302-2.38-1.717-5.096-2.58-8.12-2.58-1.373-.001-2.364.118-3.58.432-3.64.936-6.741 3.335-8.356 6.468-.67 1.299-1.031 2.666-1.136 4.287-.146 2.245.173 4.49.955 6.747l.086-.03-.085.03c.143.415.214.65.23.821.014.16-.02.264-.105.419zm4.797-.98l.079-.038-.08.037c.322.678 1.08 1.93 1.596 2.633.417.57 1.337 1.63 1.72 1.98.467.43.64.726.64 1.004 0 .353-.218.66-.531.76-.202.065-.357.068-.524-.001-.174-.072-.369-.224-.638-.493-3.61-3.612-5.338-7.69-5.18-12.201.052-1.492.253-2.33.863-3.59.391-.81.623-1.172 1.242-1.938 1.503-1.86 3.86-3.163 6.465-3.568.758-.119 2.318-.122 3.086-.006 3.73.559 6.7 2.807 8.04 6.077.258.627.454 1.419.553 2.117.049.349.073.672.07.938-.005.27-.039.467-.096.574h0a.747.747 0 01-.131.162c-.061.06-.131.115-.194.153h0c-.395.238-.9.08-1.14-.38l-.074.038.074-.038a.506.506 0 01-.03-.098 2.598 2.598 0 01-.037-.189 5.631 5.631 0 01-.054-.505c-.169-2.737-2.055-5.34-4.716-6.524-5.745-2.554-12.283 1.217-12.284 7.126 0 2.06.471 4.26 1.28 5.97zm18.57 1.48h0a.88.88 0 01.323.3.732.732 0 01.133.385.782.782 0 01-.123.37.97.97 0 01-.29.316 1.21 1.21 0 01-.36.128c-.168.038-.379.07-.625.095-.493.049-1.124.066-1.834.047-1.718-.047-2.689-.253-3.99-.84-3.171-1.435-5.474-4.82-5.474-8.031 0-.342.02-.545.08-.689.057-.136.153-.228.332-.335a.72.72 0 01.774.006c.177.105.274.197.34.347.068.159.104.387.134.776.086 1.096.307 1.898.79 2.857 1.078 2.144 3.067 3.661 5.45 4.157.338.07.964.113 1.632.125.67.013 1.391-.006 1.923-.06a3.43 3.43 0 01.521-.028c.107.007.175.03.264.075z" fill="url(#paint0_linear_3051_3650)" stroke="#000" stroke-width=".181"/><defs><linearGradient id="paint0_linear_3051_3650" x1="18" y1="16" x2="53.916" y2="49.316" gradientUnits="userSpaceOnUse"><stop stop-color="#0ABD92"/><stop offset="1" stop-color="#009DB8"/></linearGradient></defs></svg>