<svg width="67" height="67" fill="none" xmlns="http://www.w3.org/2000/svg"><path fill-rule="evenodd" clip-rule="evenodd" d="M21.525 15.097c-.605.146-1.068.409-1.538.874a3.115 3.115 0 00-.9 1.62c-.116.546-.116 31.386 0 31.932a3.307 3.307 0 002.536 2.514c.506.106 23.874.116 24.433.01.916-.172 1.905-.923 2.293-1.741.35-.74.358-.894.334-6.852l-.022-5.583-.177-.307c-.219-.378-.46-.544-1.578-1.088l-.878-.426v-3.4l.742-.048c.841-.055 1.184-.188 1.547-.597.124-.141.261-.38.303-.53.044-.156.077-1.025.077-2.018 0-1.736 0-1.746-.19-2.125-.106-.21-.275-.436-.376-.503-.101-.068-.895-.499-1.764-.957-1.125-.594-1.605-.886-1.67-1.015-.065-.126-.093-.595-.094-1.53 0-1.258-.01-1.357-.148-1.48a.573.573 0 00-.753.027c-.154.153-.16.213-.16 1.625 0 1.635.04 1.846.435 2.236.141.14.904.587 1.771 1.037.838.435 1.598.856 1.688.937.162.143.165.176.165 1.793 0 2.07.062 1.954-1.076 2.02-.739.044-.833.066-1.082.254-.506.383-.545.565-.547 2.6-.002 2.392-.038 2.32 1.575 3.118.525.26.995.52 1.044.58.069.082.085 1.376.07 5.716-.02 5.53-.023 5.614-.175 5.94a2.155 2.155 0 01-1.04 1.062l-.415.203H21.748l-.416-.203a2.16 2.16 0 01-1.04-1.063l-.153-.33V17.715l.204-.412a2.157 2.157 0 011.072-1.03c.332-.153.34-.153 10.279-.172 11.153-.022 10.4-.056 11.046.508.18.157.419.438.529.624.19.32.201.396.236 1.508.032 1.018.055 1.19.176 1.323.185.202.578.203.78.002.145-.144.152-.215.129-1.396l-.024-1.245-.264-.544c-.3-.617-.817-1.174-1.367-1.47-.802-.434-.3-.415-11.128-.409-7.554.005-10 .028-10.282.095zm1.464 2.728c-.27.082-.532.314-.624.554-.038.099-.069 1.27-.069 2.607 0 2.633.007 2.679.411 2.994.182.142.285.152 1.618.152h1.423l.242-.24a.92.92 0 00.29-.562c.027-.177.038-1.351.025-2.61-.02-2.039-.037-2.308-.152-2.482-.272-.41-.416-.45-1.732-.465-.666-.008-1.31.015-1.432.052zm5.177-.007c-.29.073-.435.187-.572.45-.085.163-.105.673-.105 2.71 0 2.753.01 2.825.436 3.044.311.16 2.766.16 3.077 0 .426-.219.436-.29.436-3.059 0-3.34.1-3.163-1.828-3.188-.664-.009-1.314.01-1.444.043zm5.146.005a.966.966 0 00-.63.648c-.097.346-.096 4.674.002 5.022.041.147.175.35.298.453.222.185.226.186 1.633.186 1.32 0 1.423-.01 1.605-.152.404-.315.41-.36.41-3.006 0-3.316.084-3.176-1.9-3.201-.665-.008-1.302.014-1.418.05zm5.113.033c-.33.121-.53.342-.59.657-.023.12-.032 1.32-.02 2.67l.022 2.452.273.248.274.249h1.372c1.23 0 1.397-.016 1.605-.142.427-.258.425-.244.425-3.015 0-2.79.005-2.761-.454-3.06-.273-.177-2.463-.221-2.907-.059zm-13.22 3.104l.019 2.084h-1.831V20.99c0-1.13.023-2.077.051-2.105.028-.028.431-.041.896-.03l.845.02.02 2.085zm5.136-.019v2.103h-1.755V18.84h1.755v2.102zm5.175.019l.02 2.084h-1.831V20.99c0-1.13.023-2.077.051-2.105.028-.028.431-.041.896-.03l.845.02.02 2.085zm5.193 0l.02 2.084h-1.831v-4.21l.896.02.896.021.019 2.085zM23.922 37.916c-.372.182-.724.582-.822.934-.04.14-.072.976-.072 1.859 0 1.452.013 1.62.135 1.77.195.24.568.224.79-.032.168-.194.172-.226.172-1.752 0-1.458.009-1.564.146-1.7.145-.143.244-.145 9.58-.145 9.337 0 9.436.002 9.581.145.143.142.146.242.146 4.379 0 4.06-.005 4.24-.14 4.404l-.14.171H24.405l-.14-.17c-.127-.157-.14-.304-.14-1.713 0-1.45-.008-1.553-.15-1.732a.554.554 0 00-.8-.046c-.138.136-.146.242-.146 1.815 0 1.817.033 2.006.424 2.415.108.113.329.276.49.362l.292.157H43.47l.292-.157c.161-.086.381-.249.49-.362.433-.453.424-.35.424-5.071 0-3.032-.025-4.41-.083-4.603-.115-.379-.44-.749-.817-.93-.316-.151-.328-.152-9.928-.151h-9.613l-.312.153z" fill="url(#paint0_linear_3051_3648)"/><circle cx="33.5" cy="33.5" r="33" stroke="#136D63"/><defs><linearGradient id="paint0_linear_3051_3648" x1="19" y1="15" x2="55.98" y2="44.729" gradientUnits="userSpaceOnUse"><stop stop-color="#0ABD92"/><stop offset="1" stop-color="#009DB8"/></linearGradient></defs></svg>