<svg width="43" height="78" fill="none" xmlns="http://www.w3.org/2000/svg"><path d="M13.826 76.175a.5.5 0 00.42.57l4.449.674a.5.5 0 10.15-.988l-3.955-.6.6-3.955a.5.5 0 00-.99-.15l-.674 4.45zM.825 1.47c1.068.4 2.114.802 3.136 1.208l.369-.93A169.52 169.52 0 001.175.533l-.35.937zm9.236 3.784c2.118.954 4.12 1.924 6.008 2.908l.462-.887a117.855 117.855 0 00-6.06-2.933l-.41.912zm11.758 6.163a69.143 69.143 0 015.486 3.742l.604-.797a70.124 70.124 0 00-5.565-3.796l-.525.851zm10.49 8.052c1.66 1.643 3.074 3.31 4.25 4.997l.82-.572c-1.214-1.742-2.668-3.455-4.367-5.136l-.704.71zm7.337 10.77a22.174 22.174 0 011.403 6.344l.998-.07a23.175 23.175 0 00-1.466-6.63l-.935.355zm.922 12.842c-.435 2.046-1.134 4.114-2.087 6.2l.91.415c.98-2.144 1.703-4.282 2.156-6.407l-.979-.208zm-5.323 11.941a57.095 57.095 0 01-4.003 5.269l.762.648a58.122 58.122 0 004.072-5.361l-.831-.556zm-8.52 10.116a98.78 98.78 0 01-4.88 4.494l.654.757a99.784 99.784 0 004.929-4.54l-.703-.711zm-10.036 8.7c-.867.67-1.756 1.34-2.665 2.01l.593.805c.915-.674 1.81-1.349 2.684-2.025l-.612-.79z" fill="url(#paint0_linear_1870_5386)"/><defs><linearGradient id="paint0_linear_1870_5386" x1="82.89" y1="-130.206" x2="-10.867" y2="32.555" gradientUnits="userSpaceOnUse"><stop stop-color="#0ABD92"/><stop offset="1" stop-color="#009DB8"/></linearGradient></defs></svg>