<svg width="591" height="212" fill="none" xmlns="http://www.w3.org/2000/svg"><path d="M513.002 1l3.687 4.442 2.004-5.414-5.691.972zm9.531 4.284c2.159.926 4.259 1.883 6.302 2.867l.434-.901c-2.056-.99-4.17-1.953-6.341-2.885l-.395.919zm12.469 6.013a141.467 141.467 0 016.011 3.435l.517-.856a142.467 142.467 0 00-6.053-3.46l-.475.88zm11.84 7.168a126.016 126.016 0 015.62 4.037l.606-.796a127.223 127.223 0 00-5.665-4.069l-.561.828zm10.999 8.38a112.87 112.87 0 015.103 4.653l.696-.718a113.112 113.112 0 00-5.149-4.693l-.65.759zm9.909 9.625a100.107 100.107 0 014.467 5.289l.786-.618a101.084 101.084 0 00-4.511-5.342l-.742.671zm8.538 10.866a89.108 89.108 0 013.641 5.868l.87-.493a90.317 90.317 0 00-3.682-5.934l-.829.559zm6.804 12.012a78.166 78.166 0 012.622 6.38l.941-.338a78.86 78.86 0 00-2.656-6.462l-.907.42zm4.647 12.974a65.569 65.569 0 011.354 6.765l.99-.144a66.656 66.656 0 00-1.375-6.868l-.969.247zm1.947 13.623a50.992 50.992 0 01-.272 6.869l.994.108c.246-2.253.341-4.593.278-7.003l-1 .026zm-1.542 13.613a35.575 35.575 0 01-2.421 6.401l.895.445a36.53 36.53 0 002.49-6.581l-.964-.265zm-6.128 12.115a25.223 25.223 0 01-2.352 2.456l.673.74a26.29 26.29 0 002.446-2.554l-.767-.642z" fill="url(#paint0_linear_3052_3656)"/><path d="M4.602 64.314a.5.5 0 00-.707 0L.713 67.496a.5.5 0 10.707.707l2.828-2.828 2.829 2.828a.5.5 0 10.707-.707l-3.182-3.182zm-.854.354c0 1.201.04 2.392.116 3.572l.998-.065a53.9 53.9 0 01-.114-3.507h-1zm1.033 10.549a53.986 53.986 0 001.833 6.823l.947-.322a52.988 52.988 0 01-1.8-6.697l-.98.196zm4.51 13.338a63.22 63.22 0 003.417 6.15l.847-.532a62.228 62.228 0 01-3.364-6.053l-.9.435zm7.475 11.929a83.059 83.059 0 004.566 5.381l.735-.679a81.784 81.784 0 01-4.512-5.315l-.79.613zm9.497 10.342a113.076 113.076 0 005.292 4.651l.637-.771a111.67 111.67 0 01-5.245-4.61l-.684.73zm10.854 8.991c1.842 1.362 3.746 2.7 5.71 4.015l.556-.831a149.742 149.742 0 01-5.672-3.988l-.594.804zm11.66 7.823c1.96 1.2 3.97 2.38 6.026 3.541l.492-.871a195.263 195.263 0 01-5.996-3.523l-.522.853zm12.196 6.896a252.758 252.758 0 006.274 3.174l.439-.899a252.99 252.99 0 01-6.249-3.161l-.464.886zm12.595 6.166c2.115.97 4.263 1.924 6.44 2.864l.397-.918a316.888 316.888 0 01-6.42-2.855l-.417.909zm12.875 5.564c2.16.881 4.346 1.748 6.555 2.603l.36-.933a379.034 379.034 0 01-6.537-2.596l-.378.926zm13.08 5.063a462.3 462.3 0 006.632 2.381l.331-.944a459.46 459.46 0 01-6.618-2.375l-.345.938zm13.233 4.642c2.214.742 4.443 1.472 6.687 2.192l.305-.953a543.566 543.566 0 01-6.674-2.187l-.318.948zm13.352 4.285c2.231.686 4.474 1.362 6.726 2.029l.284-.959a660.54 660.54 0 01-6.716-2.026l-.294.956zm13.445 3.978a758.14 758.14 0 006.757 1.889l.264-.965a732.415 732.415 0 01-6.747-1.886l-.274.962zm13.519 3.713c2.256.598 4.517 1.187 6.782 1.768l.248-.968a884.546 884.546 0 01-6.774-1.767l-.256.967zm13.578 3.484c2.267.563 4.535 1.118 6.804 1.664l.234-.972a960.76 960.76 0 01-6.797-1.663l-.241.971zm13.625 3.284c2.277.533 4.552 1.058 6.825 1.576l.222-.975c-2.271-.517-4.544-1.042-6.819-1.574l-.228.973zm13.663 3.112c2.287.508 4.569 1.007 6.845 1.5l.211-.978c-2.274-.492-4.555-.991-6.84-1.498l-.216.976zm13.693 2.965c2.297.485 4.585.964 6.864 1.435l.202-.979c-2.277-.471-4.564-.95-6.859-1.435l-.207.979zm13.719 2.839c2.306.468 4.6.928 6.879 1.382l.195-.98c-2.278-.454-4.57-.915-6.875-1.382l-.199.98zm13.741 2.738c2.314.453 4.61.9 6.887 1.34l.19-.982c-2.276-.44-4.572-.886-6.885-1.34l-.192.982zm13.761 2.66c2.318.443 4.613.879 6.882 1.309l.186-.983a3413.9 3413.9 0 01-6.88-1.308l-.188.982zm13.776 2.61c2.316.437 4.601.866 6.854 1.289l.185-.982-6.854-1.289-.185.982zm13.781 2.592c2.31.436 4.58.864 6.807 1.287l.186-.982c-2.228-.423-4.498-.852-6.808-1.287l-.185.982zm13.755 2.615c2.349.452 4.641.898 6.874 1.338l.193-.981c-2.234-.44-4.528-.886-6.878-1.339l-.189.982zm13.648 2.693c2.398.488 4.713.969 6.937 1.444l.209-.978a719.7 719.7 0 00-6.946-1.446l-.2.98zm13.8 2.958c2.408.551 4.679 1.095 6.802 1.633l.246-.969a304.159 304.159 0 00-6.825-1.639l-.223.975zm13.545 3.475c1.128.335 2.19.669 3.185 1.002l.317-.949c-1.007-.336-2.08-.673-3.216-1.012l-.286.959z" fill="url(#paint1_linear_3052_3656)"/><path d="M251.814 151.11a.5.5 0 00-.703.076l-2.822 3.506a.5.5 0 00.779.627l2.508-3.116 3.117 2.508a.5.5 0 00.627-.779l-3.506-2.822zm-.811.443c.127 1.175.402 2.39.814 3.637l.95-.314a16.587 16.587 0 01-.769-3.43l-.995.107zm4.074 10.228c1.228 1.907 2.715 3.859 4.442 5.834l.753-.658c-1.7-1.945-3.157-3.858-4.355-5.718l-.84.542zm9.524 11.065a96.073 96.073 0 005.52 4.774l.626-.78a94.893 94.893 0 01-5.462-4.724l-.684.73zm11.348 9.152a134.088 134.088 0 006.065 4.029l.531-.848a133.791 133.791 0 01-6.02-3.998l-.576.817zm12.326 7.74a162.977 162.977 0 006.43 3.416l.449-.894a159.657 159.657 0 01-6.39-3.395l-.489.873zm13.007 6.55a178.35 178.35 0 006.686 2.851l.374-.927a177.331 177.331 0 01-6.649-2.836l-.411.912zm13.49 5.435a186.53 186.53 0 006.9 2.313l.299-.954a184.482 184.482 0 01-6.862-2.301l-.337.942zm13.881 4.356c2.319.63 4.673 1.222 7.059 1.772l.224-.975a186.502 186.502 0 01-7.021-1.762l-.262.965zm14.178 3.268c1.188.226 2.384.441 3.586.645l.167-.985a181.445 181.445 0 01-3.567-.642l-.186.982zm3.586.645c1.138.194 2.283.371 3.435.532l.139-.99a120.32 120.32 0 01-3.407-.527l-.167.985zm10.357 1.316c2.297.201 4.613.347 6.941.443l.042-.999a151.756 151.756 0 01-6.896-.44l-.087.996zm13.897.585c2.314.001 4.635-.042 6.955-.125l-.035-.999c-2.31.083-4.618.125-6.919.124l-.001 1zm13.899-.49c2.317-.159 4.628-.353 6.928-.58l-.098-.995c-2.29.225-4.592.419-6.898.578l.068.997zm13.831-1.355c2.317-.291 4.616-.611 6.89-.954l-.15-.989a278.9 278.9 0 01-6.865.951l.125.992zm13.747-2.072a327.34 327.34 0 006.827-1.269l-.194-.981c-2.229.439-4.5.862-6.805 1.265l.172.985zm13.638-2.683a355.093 355.093 0 006.761-1.543l-.231-.973a354.944 354.944 0 01-6.743 1.539l.213.977zm13.514-3.219a373.69 373.69 0 006.716-1.8l-.267-.963a383.02 383.02 0 01-6.699 1.794l.25.969zm13.394-3.72c2.45-.73 4.673-1.419 6.637-2.046l-.304-.952a357.143 357.143 0 01-6.619 2.039l.286.959zm13.218-4.226a191.825 191.825 0 003.049-1.081l.16-.059a.93.93 0 01.041-.015l.01-.004.003-.001h.001l-.175-.468-.176-.469-.003.001-.009.004a1.009 1.009 0 00-.04.015l-.157.057c-.139.052-.347.127-.621.226-.547.197-1.358.485-2.409.848l.326.946z" fill="url(#paint2_linear_3052_3656)"/><defs><linearGradient id="paint0_linear_3052_3656" x1="509.002" y1=".999" x2="602.872" y2="22.721" gradientUnits="userSpaceOnUse"><stop stop-color="#0ABD92"/><stop offset="1" stop-color="#009DB8"/></linearGradient><linearGradient id="paint1_linear_3052_3656" x1="-29.996" y1="64.668" x2="93.613" y2="317.341" gradientUnits="userSpaceOnUse"><stop stop-color="#0ABD92"/><stop offset="1" stop-color="#009DB8"/></linearGradient><linearGradient id="paint2_linear_3052_3656" x1="95.144" y1="70" x2="218.753" y2="322.674" gradientUnits="userSpaceOnUse"><stop stop-color="#0ABD92"/><stop offset="1" stop-color="#009DB8"/></linearGradient></defs></svg>