<svg width="313" height="126" fill="none" xmlns="http://www.w3.org/2000/svg"><path d="M284.082 17l2.945 4.966 2.828-5.034-5.773.068zm-32.923 102.974c1.12-.376 2.221-.763 3.304-1.16l-.345-.939a125.37 125.37 0 01-3.277 1.151l.318.948zm9.738-3.736a108.124 108.124 0 006.261-2.964l-.457-.89a106.132 106.132 0 01-6.203 2.937l.399.917zm12.304-6.339a90.057 90.057 0 005.808-3.828l-.582-.813a89.612 89.612 0 01-5.744 3.786l.518.855zm11.287-8.106a76.815 76.815 0 005.071-4.724l-.715-.7a75.456 75.456 0 01-5.005 4.663l.649.761zm9.697-9.93a66.204 66.204 0 004.061-5.632l-.841-.541a65.095 65.095 0 01-4 5.546l.78.626zm7.499-11.693a58.373 58.373 0 002.709-6.405l-.943-.334a57.37 57.37 0 01-2.663 6.296l.897.443zm4.618-13.1a52.871 52.871 0 001.035-6.894l-.997-.082a51.756 51.756 0 01-1.015 6.763l.977.213zm1.13-13.863a48.2 48.2 0 00-.892-6.914l-.98.2c.451 2.206.744 4.468.873 6.77l.999-.056zm-2.799-13.622a43.783 43.783 0 00-2.926-6.334l-.871.49a42.848 42.848 0 012.859 6.19l.938-.346zm-6.84-12.113a41.29 41.29 0 00-4.826-5.046l-.662.75a40.157 40.157 0 014.709 4.923l.779-.627z" fill="url(#paint0_linear_3153_3980)"/><path d="M14.618.697a.5.5 0 00-.7-.095l-3.58 2.729a.5.5 0 00.607.795l3.18-2.425 2.426 3.18a.5.5 0 00.795-.605L14.618.696zm-.893.236a31.185 31.185 0 00-.276 3.51l1 .022c.024-1.111.111-2.244.267-3.398l-.991-.134zm.409 10.456a31.127 31.127 0 002.285 6.595l.904-.429a30.133 30.133 0 01-2.213-6.383l-.976.217zm5.836 12.576a53.921 53.921 0 004.415 5.365l.732-.681a52.917 52.917 0 01-4.333-5.266l-.814.582zm9.37 10.204a112.168 112.168 0 005.306 4.453l.62-.785a111.107 111.107 0 01-5.258-4.413l-.668.745zm10.809 8.613a282.81 282.81 0 005.638 3.983l.568-.823a282.1 282.1 0 01-5.618-3.969l-.588.81zm11.338 7.863c1.904 1.284 3.812 2.565 5.71 3.85l.562-.828c-1.9-1.286-3.811-2.569-5.712-3.85l-.56.828zm11.385 7.744a239.692 239.692 0 015.575 4.004l.596-.803a240.81 240.81 0 00-5.599-4.021l-.572.82zm11.008 8.22a100.863 100.863 0 015.165 4.495l.684-.73a101.88 101.88 0 00-5.216-4.54l-.633.774zM83.816 76a49.432 49.432 0 014.148 5.399l.836-.55a50.431 50.431 0 00-4.233-5.509l-.751.66zm7.362 11.37a29.934 29.934 0 011.907 6.48l.986-.17a30.923 30.923 0 00-1.971-6.696l-.922.386zm2.273 13.206a33.636 33.636 0 01-1.11 6.695l.966.258a34.664 34.664 0 001.142-6.893l-.998-.06zm-3.381 13.059a54.135 54.135 0 01-1.513 3.133l.886.462a55.155 55.155 0 001.54-3.19l-.913-.405z" fill="url(#paint1_linear_3153_3980)"/><path d="M126.903 58.18a.5.5 0 00-.707-.02l-3.263 3.099a.5.5 0 10.688.725l2.901-2.754 2.754 2.901a.5.5 0 10.725-.688l-3.098-3.264zm-.862.33c-.028 1.085.188 2.263.618 3.502l.945-.328c-.401-1.156-.588-2.212-.564-3.148l-.999-.026zm3.998 9.548c1.251 1.68 2.777 3.412 4.549 5.152l.701-.713c-1.742-1.71-3.232-3.404-4.448-5.037l-.802.598zm9.702 9.666a76.19 76.19 0 005.565 3.984l.546-.838a75.119 75.119 0 01-5.493-3.931l-.618.785zm11.444 7.476a87.545 87.545 0 006.137 3.014l.406-.913a86.758 86.758 0 01-6.068-2.98l-.475.879zm12.488 5.545a88.5 88.5 0 003.248 1.08l.297-.954a87.057 87.057 0 01-3.211-1.068l-.334.942zm3.248 1.08a51.34 51.34 0 013.989 1.419l.375-.927a52.25 52.25 0 00-4.067-1.446l-.297.955zm11.404 5.392c2.669 1.898 4.547 3.92 5.864 5.889l.831-.556c-1.387-2.074-3.351-4.182-6.115-6.147l-.58.814zm8.758 13.593c.147 1.239.127 2.268.072 2.983a11.095 11.095 0 01-.13 1.035l-.01.05a.053.053 0 01-.003.011v.001l.488.11.488.11v-.003l.002-.006.004-.018.013-.067a11.813 11.813 0 00.145-1.145c.06-.771.08-1.866-.076-3.179l-.993.118z" fill="url(#paint2_linear_3153_3980)"/><defs><linearGradient id="paint0_linear_3153_3980" x1="282.182" y1="16.744" x2="325.222" y2="33.299" gradientUnits="userSpaceOnUse"><stop stop-color="#0ABD92"/><stop offset="1" stop-color="#009DB8"/></linearGradient><linearGradient id="paint1_linear_3153_3980" x1="-1.913" y1="-1.175" x2="42.245" y2="127.694" gradientUnits="userSpaceOnUse"><stop stop-color="#0ABD92"/><stop offset="1" stop-color="#009DB8"/></linearGradient><linearGradient id="paint2_linear_3153_3980" x1="58.964" y1="10.966" x2="100.318" y2="135.879" gradientUnits="userSpaceOnUse"><stop stop-color="#0ABD92"/><stop offset="1" stop-color="#009DB8"/></linearGradient></defs></svg>