<svg width="39" height="40" fill="none" xmlns="http://www.w3.org/2000/svg"><g opacity=".6" fill-rule="evenodd" clip-rule="evenodd"><path d="M18.471.583c-2.275.526-3.858 2.38-3.982 4.666-.09 1.644.688 3.305 1.999 4.268l.497.366v1.952l-1.81.002c-2.079.002-2.205.031-2.733.631-.361.411-.486.775-.486 1.414v.465l-4.822.021-4.822.022-.497.245c-.55.27-1.12.788-1.405 1.273-.435.743-.424.465-.401 9.965l.02 8.722.243.513C.7 36.01 1.445 36.64 2.38 36.89c.312.083 1.338.104 4.984.105h4.592l.001.515c.003.821.354 1.436 1.027 1.8.304.163.322.164 6.349.185 4.048.014 6.142-.006 6.34-.06.46-.123.925-.519 1.162-.986.168-.33.21-.517.21-.933v-.52l4.59-.001c3.646 0 4.673-.023 4.985-.105.935-.25 1.68-.88 2.108-1.783l.243-.513.02-8.722c.023-9.505.034-9.221-.403-9.969-.292-.497-.832-.988-1.39-1.263l-.51-.251-4.822-.022-4.822-.02v-.466c0-.639-.125-1.003-.486-1.414-.528-.6-.654-.629-2.733-.63l-1.81-.002V9.89l.501-.371c1.305-.967 2.09-2.65 1.993-4.277-.157-2.627-2.205-4.64-4.819-4.738-.479-.018-.931.011-1.219.078zm2.194 1.346c1.165.39 2.125 1.38 2.455 2.534.354 1.233-.022 2.779-.873 3.595l-.232.222V5.507h-5.03V8.28l-.232-.222c-1.074-1.03-1.326-3.038-.548-4.38.252-.435.799-1.021 1.23-1.317.849-.586 2.22-.769 3.23-.432zm.113 7.371l-.02 2.497h-2.516l-.02-2.497-.02-2.497h2.594l-.02 2.497zm4.785 3.931c.176.151.206.238.214.63l.01.453H13.213l.01-.454c.008-.39.038-.478.214-.629l.204-.175H25.36l.203.175zm11.132 2.548c.392.21.844.727.947 1.085.052.18.07 3.174.056 8.93l-.023 8.66-.23.374a1.971 1.971 0 01-.604.604l-.373.23-16.81.023c-11.425.015-16.897-.003-17.083-.057a1.918 1.918 0 01-1.096-.915l-.192-.38v-8.659c0-7.174.018-8.702.104-8.91.22-.527.755-.986 1.305-1.122.126-.03 7.756-.05 16.956-.044l16.728.012.315.169zM8.26 16.974c-.287.127-.457.317-.607.676-.103.246-.117 1.23-.117 8.048v7.767l.175.332c.12.227.28.388.507.508l.332.176h24.414l.332-.176c.227-.12.388-.28.508-.508l.175-.331V17.89l-.171-.335c-.095-.185-.269-.407-.387-.493-.215-.157-.231-.157-12.574-.173-10.14-.014-12.4.001-12.587.084zm27.169.083c-.365.388-.094 1.03.434 1.03.335 0 .631-.285.631-.61 0-.539-.696-.814-1.065-.42zm-2.745 8.14v7.11l-2.499-2.5-2.498-2.498-.138-.534a3.32 3.32 0 00-.973-1.606l-.312-.277-.182-1.935c-.1-1.063-.222-2.088-.272-2.277-.117-.444-.746-1.094-1.173-1.213-.443-.123-7.343-.113-7.757.01-.414.125-.982.686-1.139 1.127-.07.2-.198 1.166-.306 2.315l-.183 1.972-.313.277a3.32 3.32 0 00-.973 1.607l-.138.534-2.498 2.499-2.499 2.499v-14.22h23.853v7.11zm-8.43-4.52a.63.63 0 01.285.247c.052.097.167.922.255 1.834l.161 1.658h-8.351l.003-.286c.006-.644.283-3.043.37-3.206a.611.611 0 01.26-.243c.23-.093 6.775-.096 7.016-.005zM3.648 22.055a1.953 1.953 0 00-.94.874c-.157.29-.166.418-.188 2.58-.027 2.632.004 2.819.56 3.376.747.746 1.932.72 2.679-.059.481-.503.513-.664.543-2.77.033-2.38 0-2.725-.316-3.25-.342-.57-.822-.856-1.49-.887-.388-.018-.584.013-.848.136zm31.568 3.6l.02 3.755.628.022.629.023V21.9h-1.296l.02 3.755zM4.798 23.343l.223.223v4.212l-.187.187a.611.611 0 01-.856.021c-.176-.165-.177-.167-.177-2.31 0-2.245.006-2.283.343-2.468.25-.136.418-.101.654.135zm20.532 2.496c.646.35 1.053.969 1.061 1.615.005.339-.024.43-.174.552-.174.14-.373.146-5.435.146-3.218 0-5.308-.028-5.392-.073-.208-.112-.335-.492-.274-.819.139-.74.73-1.374 1.45-1.554.126-.032 2.08-.052 4.344-.045 4.061.013 4.119.015 4.42.178zm-8.789.66a.612.612 0 00.022.856c.55.551 1.358-.216.874-.832-.211-.268-.655-.28-.896-.024zm7.537.024c-.214.272-.202.6.029.832.387.387 1.032.11 1.032-.444 0-.548-.726-.814-1.061-.388zm-9.166 2.727c.116.06.334.132.485.16l.273.052.035.775c.037.814.129 1.096.454 1.398.288.27.557.33 1.467.33.748 0 .903-.023 1.195-.175.515-.268.679-.654.679-1.595v-.747h2.515v.75c0 .934.164 1.317.683 1.591.29.153.44.176 1.198.176.979 0 1.257-.08 1.568-.45.27-.32.36-.68.36-1.43l.001-.62.283-.053c.357-.067.637-.21.96-.494l.253-.223 2.243 2.245 2.242 2.244H9.708l2.243-2.244 2.243-2.245.253.223c.14.122.35.272.465.332zm3.292.808v.61h-1.219v-1.22h1.22v.61zm6.326 0v.61h-1.22v-1.22h1.22v.61zm1.295 7.232c0 .387-.134.76-.308.852-.19.102-11.845.102-12.034 0-.174-.093-.308-.465-.308-.852v-.293h12.65v.293z" fill="url(#paint0_linear_1710_5994)"/><path d="M18.471.583c-2.275.526-3.858 2.38-3.982 4.666-.09 1.644.688 3.305 1.999 4.268l.497.366v1.952l-1.81.002c-2.079.002-2.205.031-2.733.631-.361.411-.486.775-.486 1.414v.465l-4.822.021-4.822.022-.497.245c-.55.27-1.12.788-1.405 1.273-.435.743-.424.465-.401 9.965l.02 8.722.243.513C.7 36.01 1.445 36.64 2.38 36.89c.312.083 1.338.104 4.984.105h4.592l.001.515c.003.821.354 1.436 1.027 1.8.304.163.322.164 6.349.185 4.048.014 6.142-.006 6.34-.06.46-.123.925-.519 1.162-.986.168-.33.21-.517.21-.933v-.52l4.59-.001c3.646 0 4.673-.023 4.985-.105.935-.25 1.68-.88 2.108-1.783l.243-.513.02-8.722c.023-9.505.034-9.221-.403-9.969-.292-.497-.832-.988-1.39-1.263l-.51-.251-4.822-.022-4.822-.02v-.466c0-.639-.125-1.003-.486-1.414-.528-.6-.654-.629-2.733-.63l-1.81-.002V9.89l.501-.371c1.305-.967 2.09-2.65 1.993-4.277-.157-2.627-2.205-4.64-4.819-4.738-.479-.018-.931.011-1.219.078zm2.194 1.346c1.165.39 2.125 1.38 2.455 2.534.354 1.233-.022 2.779-.873 3.595l-.232.222V5.507h-5.03V8.28l-.232-.222c-1.074-1.03-1.326-3.038-.548-4.38.252-.435.799-1.021 1.23-1.317.849-.586 2.22-.769 3.23-.432zm.113 7.371l-.02 2.497h-2.516l-.02-2.497-.02-2.497h2.594l-.02 2.497zm4.785 3.931c.176.151.206.238.214.63l.01.453H13.213l.01-.454c.008-.39.038-.478.214-.629l.204-.175H25.36l.203.175zm11.132 2.548c.392.21.844.727.947 1.085.052.18.07 3.174.056 8.93l-.023 8.66-.23.374a1.971 1.971 0 01-.604.604l-.373.23-16.81.023c-11.425.015-16.897-.003-17.083-.057a1.918 1.918 0 01-1.096-.915l-.192-.38v-8.659c0-7.174.018-8.702.104-8.91.22-.527.755-.986 1.305-1.122.126-.03 7.756-.05 16.956-.044l16.728.012.315.169zM8.26 16.974c-.287.127-.457.317-.607.676-.103.246-.117 1.23-.117 8.048v7.767l.175.332c.12.227.28.388.507.508l.332.176h24.414l.332-.176c.227-.12.388-.28.508-.508l.175-.331V17.89l-.171-.335c-.095-.185-.269-.407-.387-.493-.215-.157-.231-.157-12.574-.173-10.14-.014-12.4.001-12.587.084zm27.169.083c-.365.388-.094 1.03.434 1.03.335 0 .631-.285.631-.61 0-.539-.696-.814-1.065-.42zm-2.745 8.14v7.11l-2.499-2.5-2.498-2.498-.138-.534a3.32 3.32 0 00-.973-1.606l-.312-.277-.182-1.935c-.1-1.063-.222-2.088-.272-2.277-.117-.444-.746-1.094-1.173-1.213-.443-.123-7.343-.113-7.757.01-.414.125-.982.686-1.139 1.127-.07.2-.198 1.166-.306 2.315l-.183 1.972-.313.277a3.32 3.32 0 00-.973 1.607l-.138.534-2.498 2.499-2.499 2.499v-14.22h23.853v7.11zm-8.43-4.52a.63.63 0 01.285.247c.052.097.167.922.255 1.834l.161 1.658h-8.351l.003-.286c.006-.644.283-3.043.37-3.206a.611.611 0 01.26-.243c.23-.093 6.775-.096 7.016-.005zM3.648 22.055a1.953 1.953 0 00-.94.874c-.157.29-.166.418-.188 2.58-.027 2.632.004 2.819.56 3.376.747.746 1.932.72 2.679-.059.481-.503.513-.664.543-2.77.033-2.38 0-2.725-.316-3.25-.342-.57-.822-.856-1.49-.887-.388-.018-.584.013-.848.136zm31.568 3.6l.02 3.755.628.022.629.023V21.9h-1.296l.02 3.755zM4.798 23.343l.223.223v4.212l-.187.187a.611.611 0 01-.856.021c-.176-.165-.177-.167-.177-2.31 0-2.245.006-2.283.343-2.468.25-.136.418-.101.654.135zm20.532 2.496c.646.35 1.053.969 1.061 1.615.005.339-.024.43-.174.552-.174.14-.373.146-5.435.146-3.218 0-5.308-.028-5.392-.073-.208-.112-.335-.492-.274-.819.139-.74.73-1.374 1.45-1.554.126-.032 2.08-.052 4.344-.045 4.061.013 4.119.015 4.42.178zm-8.789.66a.612.612 0 00.022.856c.55.551 1.358-.216.874-.832-.211-.268-.655-.28-.896-.024zm7.537.024c-.214.272-.202.6.029.832.387.387 1.032.11 1.032-.444 0-.548-.726-.814-1.061-.388zm-9.166 2.727c.116.06.334.132.485.16l.273.052.035.775c.037.814.129 1.096.454 1.398.288.27.557.33 1.467.33.748 0 .903-.023 1.195-.175.515-.268.679-.654.679-1.595v-.747h2.515v.75c0 .934.164 1.317.683 1.591.29.153.44.176 1.198.176.979 0 1.257-.08 1.568-.45.27-.32.36-.68.36-1.43l.001-.62.283-.053c.357-.067.637-.21.96-.494l.253-.223 2.243 2.245 2.242 2.244H9.708l2.243-2.244 2.243-2.245.253.223c.14.122.35.272.465.332zm3.292.808v.61h-1.219v-1.22h1.22v.61zm6.326 0v.61h-1.22v-1.22h1.22v.61zm1.295 7.232c0 .387-.134.76-.308.852-.19.102-11.845.102-12.034 0-.174-.093-.308-.465-.308-.852v-.293h12.65v.293z" fill="#fff"/></g><defs><linearGradient id="paint0_linear_1710_5994" x1="0" y1=".5" x2="39.78" y2="40.475" gradientUnits="userSpaceOnUse"><stop stop-color="#0ABD92"/><stop offset="1" stop-color="#009DB8"/></linearGradient></defs></svg>