<svg width="182" height="46" fill="none" xmlns="http://www.w3.org/2000/svg"><path d="M.784 15.051a.5.5 0 00-.235.667l1.944 4.058a.5.5 0 10.902-.431l-1.728-3.608 3.607-1.728a.5.5 0 00-.431-.902L.784 15.051zm.05.922c1.155.408 2.305.812 3.448 1.214l.331-.944-3.447-1.213-.332.944zm10.271 3.604c2.305.805 4.583 1.596 6.835 2.374l.326-.945a2148.5 2148.5 0 01-6.831-2.373l-.33.944zM24.81 24.31c2.32.79 4.61 1.565 6.873 2.322l.318-.949c-2.261-.756-4.55-1.53-6.868-2.32l-.323.947zm13.755 4.598c2.329.761 4.627 1.502 6.895 2.221l.302-.953a826.216 826.216 0 01-6.887-2.218l-.31.95zm13.811 4.375c2.348.716 4.662 1.407 6.943 2.07l.28-.96a545.586 545.586 0 01-6.931-2.067l-.292.957zm13.92 4.04c2.375.648 4.713 1.264 7.015 1.844l.244-.97a367.188 367.188 0 01-6.996-1.84l-.264.965zM80.37 40.86c2.41.547 4.78 1.05 7.106 1.506l.193-.98a247.817 247.817 0 01-7.078-1.5l-.221.974zm14.26 2.782c2.446.39 4.844.722 7.195.993l.115-.993c-2.336-.27-4.72-.6-7.153-.987l-.158.987zm14.424 1.638a111.8 111.8 0 007.268.22l-.003-1c-2.345.008-4.746-.066-7.204-.218l-.061.998zm14.553-.08a77.94 77.94 0 007.215-.92l-.174-.985a76.97 76.97 0 01-7.122.91l.081.996zm14.327-2.57a60.673 60.673 0 006.87-2.451l-.393-.92a59.622 59.622 0 01-6.757 2.41l.28.96zm13.387-5.733a58.677 58.677 0 006.063-4.078l-.609-.794a57.712 57.712 0 01-5.959 4.01l.505.862zm11.575-8.836a71.732 71.732 0 004.972-5.336l-.764-.645a70.845 70.845 0 01-4.904 5.262l.696.719zm9.422-11.12a99.118 99.118 0 003.949-6.088l-.858-.514a98.126 98.126 0 01-3.909 6.026l.818.575zm7.484-12.434a136.42 136.42 0 001.648-3.289l-.9-.436c-.539 1.112-1.084 2.2-1.636 3.265l.888.46z" fill="url(#paint0_linear_1710_5990)"/><defs><linearGradient id="paint0_linear_1710_5990" x1="27" y1="-6.144" x2="102.274" y2="140.987" gradientUnits="userSpaceOnUse"><stop stop-color="#0ABD92"/><stop offset="1" stop-color="#009DB8"/></linearGradient></defs></svg>