<svg width="208" height="59" fill="none" xmlns="http://www.w3.org/2000/svg"><path d="M.27 18.942a.5.5 0 01-.214-.674l2.072-3.995a.5.5 0 11.888.46l-1.842 3.551 3.55 1.842a.5.5 0 01-.46.888L.27 18.942zm.079-.92c1.149-.365 2.29-.723 3.423-1.075l.297.954c-1.131.352-2.27.71-3.418 1.074L.35 18.02zm10.133-3.12a547.32 547.32 0 016.832-1.989l.273.962c-2.24.636-4.514 1.299-6.82 1.986l-.285-.958zm13.644-3.873c2.303-.619 4.571-1.21 6.807-1.773l.244.97c-2.23.562-4.493 1.151-6.791 1.769l-.26-.966zM37.81 7.587c2.343-.547 4.65-1.062 6.92-1.545l.208.978a360.73 360.73 0 00-6.901 1.54l-.227-.973zm13.85-2.943a290.57 290.57 0 016.953-1.235l.162.986c-2.27.375-4.579.785-6.928 1.232l-.187-.983zm13.932-2.292c2.38-.326 4.715-.611 7.01-.855l.107.994c-2.285.243-4.611.527-6.98.852l-.137-.99zM79.645.867C82.045.694 84.4.569 86.712.49l.034 1c-2.3.078-4.641.202-7.03.374l-.071-.997zm14.15-.47c2.407.02 4.767.094 7.085.222l-.055.998c-2.302-.126-4.647-.2-7.039-.22l.009-1zm14.152.789c2.386.253 4.727.566 7.026.938l-.16.988c-2.281-.37-4.604-.68-6.972-.932l.106-.994zm13.985 2.271a118.15 118.15 0 016.867 1.74l-.275.961a117.28 117.28 0 00-6.808-1.725l.216-.976zm13.616 3.89a119.05 119.05 0 016.612 2.552l-.387.922a118.334 118.334 0 00-6.557-2.531l.332-.943zm13.062 5.483a133.357 133.357 0 016.277 3.281l-.486.874a133.03 133.03 0 00-6.23-3.256l.439-.899zm12.382 6.876a165.407 165.407 0 015.936 3.871l-.564.826a163.751 163.751 0 00-5.9-3.847l.528-.85zm11.698 7.967a220.053 220.053 0 015.617 4.294l-.62.785a218.424 218.424 0 00-5.591-4.274l.594-.805zm11.103 8.751c1.785 1.49 3.575 3.02 5.375 4.591l-.658.754a314.374 314.374 0 00-5.357-4.577l.64-.768zm10.653 9.29a484.617 484.617 0 015.2 4.786l-.683.73a476.437 476.437 0 00-5.188-4.774l.671-.741zm10.334 9.637c.852.814 1.707 1.636 2.567 2.465l-.694.72a718.7 718.7 0 00-2.564-2.462l.691-.723z" fill="url(#paint0_linear_1710_5989)"/><defs><linearGradient id="paint0_linear_1710_5989" x1="-35.5" y1="66.319" x2="39.774" y2="-80.811" gradientUnits="userSpaceOnUse"><stop stop-color="#0ABD92"/><stop offset="1" stop-color="#009DB8"/></linearGradient></defs></svg>