<svg width="213" height="74" fill="none" xmlns="http://www.w3.org/2000/svg"><path d="M212.544 34.498a.5.5 0 00.454-.542l-.394-4.483a.5.5 0 10-.996.088l.35 3.985-3.984.35a.5.5 0 10.087.996l4.483-.394zm.277-.881c-.939-.787-1.879-1.56-2.821-2.316l-.626.78c.936.752 1.871 1.52 2.805 2.302l.642-.766zm-8.523-6.696a156.587 156.587 0 00-5.911-4.135l-.554.833a156.002 156.002 0 015.874 4.108l.591-.806zm-12.027-7.997a142.534 142.534 0 00-6.287-3.547l-.469.883a141.624 141.624 0 016.243 3.523l.513-.859zm-12.744-6.762a132.285 132.285 0 00-6.616-2.863l-.372.928a131.09 131.09 0 016.567 2.841l.421-.906zm-13.382-5.356a125.383 125.383 0 00-6.906-2.106l-.264.964c2.282.625 4.566 1.32 6.851 2.09l.319-.948zm-13.93-3.809a121.93 121.93 0 00-7.108-1.285l-.149.989c2.345.352 4.696.776 7.05 1.274l.207-.978zM137.936.85c-2.41-.218-4.813-.362-7.207-.436l-.031 1c2.374.073 4.758.216 7.148.432l.09-.996zM123.508.4a125.85 125.85 0 00-7.208.406l.085.996c2.372-.201 4.756-.336 7.151-.402l-.028-1zm-14.381 1.22c-2.388.338-4.761.743-7.117 1.21l.194.98c2.339-.463 4.694-.864 7.063-1.2l-.14-.99zM94.969 4.423c-2.334.593-4.65 1.247-6.947 1.958l.296.956c2.28-.707 4.58-1.356 6.898-1.945l-.247-.97zM81.184 8.69c-2.261.826-4.5 1.708-6.716 2.641l.389.922a148.14 148.14 0 016.67-2.624l-.343-.94zm-13.298 5.6a158.327 158.327 0 00-6.437 3.258l.471.882a157.232 157.232 0 016.397-3.238l-.43-.903zm-12.722 6.803a166.482 166.482 0 00-6.122 3.817l.547.837a165.48 165.48 0 016.086-3.794l-.51-.86zM43.09 28.986a172.283 172.283 0 00-5.776 4.323l.616.788a171.1 171.1 0 015.742-4.298l-.582-.813zm-11.366 8.882a174.482 174.482 0 00-5.397 4.788l.679.734a173.573 173.573 0 015.366-4.76l-.648-.762zM21.13 47.662a172.308 172.308 0 00-4.981 5.219l.737.675a171.279 171.279 0 014.953-5.188l-.709-.706zm-9.739 10.643a165.015 165.015 0 00-4.52 5.626l.794.609a164.166 164.166 0 014.492-5.592l-.766-.643zM2.607 69.752c-.689.987-1.363 1.977-2.024 2.971l.834.554a152.39 152.39 0 012.01-2.953l-.82-.572z" fill="url(#paint0_linear_1710_5988)"/><defs><linearGradient id="paint0_linear_1710_5988" x1="178" y1="73" x2="102.726" y2="-74.131" gradientUnits="userSpaceOnUse"><stop stop-color="#0ABD92"/><stop offset="1" stop-color="#009DB8"/></linearGradient></defs></svg>