<svg width="54" height="54" fill="none" xmlns="http://www.w3.org/2000/svg"><path fill-rule="evenodd" clip-rule="evenodd" d="M24.434.065C16.194.91 8.904 5.335 4.36 12.252c-5.804 8.834-5.813 20.504-.022 29.425l.53.815 1.07-1.119c.59-.615 1.087-1.16 1.106-1.21.02-.05-.058-.222-.171-.382-.404-.572-1.273-2.221-1.743-3.307-.948-2.195-1.674-4.967-1.83-6.988l-.07-.923h6.444l.07.601c.112.954.374 2.115.72 3.2.325 1.016 1.221 3.06 1.342 3.06.036 0 .574-.51 1.195-1.134l1.13-1.135-.375-.995c-.417-1.106-.716-2.204-.83-3.043l-.075-.554h6.304v-3.167H12.85l.075-.555c.68-5.023 4.5-9.61 9.42-11.31.945-.326 2.515-.698 2.946-.698.122 0 .146.53.146 3.14v3.141h3.169v-3.14c0-2.635.024-3.141.149-3.141.082 0 .521.071.977.158.455.087.88.159.943.159.063 0 .17-.182.236-.404.135-.45.846-1.607 1.256-2.043l.265-.283-.556-.165a19.074 19.074 0 00-2.669-.547l-.601-.071V3.226h.423c.233 0 .91.073 1.505.162a23.954 23.954 0 0116.363 10.395c1.444 2.17 2.755 5.184 3.352 7.71.255 1.079.535 2.898.535 3.48v.423H44.37l-.071-.602a19.039 19.039 0 00-.546-2.661l-.163-.55-.348.305c-.449.394-1.485 1.015-1.99 1.193-.218.077-.397.19-.397.25 0 .062.072.484.159.939.087.455.158.895.158.977 0 .125-.506.149-3.142.149h-3.14v3.167h6.303l-.075.554c-.29 2.136-1.328 4.58-2.75 6.47-1.33 1.768-3.668 3.605-5.656 4.447l-.938.397v3.313l.458-.138c2.89-.87 6.032-2.946 8.005-5.29 2.212-2.63 3.726-6.02 4.06-9.094l.072-.66h6.415v.424c0 .584-.28 2.394-.546 3.536-.29 1.24-.948 3.15-1.475 4.275-.376.801-.402.909-.247 1.003.785.478 1.389.92 1.834 1.34.394.373.55.463.631.366.224-.27 1.196-2.554 1.645-3.865.99-2.89 1.37-5.27 1.374-8.61.004-3.322-.343-5.573-1.304-8.48C49.442 8.716 41.099 1.736 30.77.207c-1.292-.191-5.04-.275-6.337-.142zm1.003 6.369V9.64l-.712.076c-1.03.109-2.865.593-4.147 1.095-4.051 1.584-7.486 4.828-9.349 8.83-.725 1.558-1.32 3.605-1.483 5.094l-.072.66H3.26v-.423c0-.582.28-2.401.535-3.48.598-2.526 1.908-5.54 3.353-7.71a23.982 23.982 0 0114.199-9.967c1.325-.326 2.767-.561 3.537-.578l.555-.012v3.208zm11.691 4.72c-1.792.422-3.257 2.01-3.578 3.88-.534 3.115 2.302 5.954 5.415 5.42 1.034-.177 1.83-.59 2.584-1.338 2.242-2.224 1.751-5.855-1.01-7.473-.91-.532-2.35-.739-3.41-.489zM25.913 22.379c-.89.222-1.555.602-2.226 1.27-1.874 1.866-1.872 4.785.003 6.66 2.73 2.728 7.343 1.242 7.998-2.576.256-1.496-.226-2.973-1.335-4.087-1.19-1.196-2.842-1.667-4.44-1.267zM14.072 37.668c-3.434 3.44-6.32 6.372-6.416 6.516-.187.283-.228 1.004-.079 1.395.122.32 1.404 1.567 2.6 2.527 4.075 3.272 9.113 5.294 14.416 5.785 2.645.245 3.375.106 3.8-.728.208-.408.213-.605.213-9.373v-8.956l-1.4.005c-.867.003-1.616-.05-1.972-.142-1.59-.408-2.864-1.175-4.057-2.442-.436-.463-.808-.842-.827-.842-.02 0-2.845 2.815-6.278 6.255zm29.583 2.655c-1.358.431-2.395 1.326-2.991 2.58-.888 1.87-.403 4.205 1.152 5.546 1.907 1.644 4.76 1.547 6.49-.22a4.734 4.734 0 00.165-6.487c-.911-1.033-2.152-1.572-3.586-1.56-.444.004-.997.068-1.23.141zm-6.927 8.447c-1.122.511-3.278 1.239-4.285 1.445l-.65.133-.04 1.59c-.02.876-.028 1.609-.015 1.63.053.083 2.244-.447 3.5-.848 1.337-.427 3.714-1.401 4.21-1.725l.26-.171-.508-.524c-.434-.447-.713-.824-1.353-1.828-.093-.144-.234-.107-1.12.298z" fill="url(#paint0_linear_1710_5997)"/><defs><linearGradient id="paint0_linear_1710_5997" x1="0" y1="0" x2="55.08" y2="55.35" gradientUnits="userSpaceOnUse"><stop stop-color="#0ABD92"/><stop offset="1" stop-color="#009DB8"/></linearGradient></defs></svg>