<svg width="42" height="42" fill="none" xmlns="http://www.w3.org/2000/svg"><path fill-rule="evenodd" clip-rule="evenodd" d="M10.24 11.067c-.512.16-.886.475-1.106.937l-.134.28v9.552l.14.277c.17.338.459.629.798.804l.255.13 2.335.014 2.335.013-1.51 1.479c-1.762 1.726-1.775 1.744-1.775 2.456 0 .76-.207.517 3.64 4.273 3.846 3.756 3.596 3.553 4.377 3.554.764.002.659.083 3.566-2.759 2.3-2.248 2.517-2.474 2.517-2.614 0-.329-.268-.569-.56-.5-.089.021-.929.808-2.59 2.427-1.69 1.647-2.512 2.417-2.634 2.466-.237.096-.398.091-.631-.02-.276-.13-6.581-6.297-6.682-6.535a.651.651 0 010-.585c.052-.123 1.867-1.926 6.263-6.22l6.19-6.046h3.194c2.933 0 3.2.007 3.282.08.086.075.068.099-.466.622l-.556.544-.222-.067c-.433-.131-.99-.005-1.355.309-.442.379-.578 1.105-.308 1.643.252.5.686.758 1.275.758.406 0 .678-.096.966-.344.367-.314.55-.95.403-1.408l-.069-.216.558-.543c.536-.522.56-.54.638-.456.074.08.08.341.08 3.205v3.118l-2.338 2.285c-2.266 2.214-2.338 2.29-2.338 2.462 0 .259.206.45.484.45h.206l2.42-2.362c1.332-1.3 2.445-2.416 2.472-2.482.035-.081.047-1.215.038-3.553l-.013-3.435-.21-.21-.211-.21.197-.208c.286-.303.321-.563.105-.774-.216-.211-.482-.177-.792.103l-.214.192-.214-.205c-.21-.201-.22-.205-.583-.221l-.369-.016-1.24-1.203c-.683-.662-1.288-1.226-1.345-1.255-.162-.08-18.01-.066-18.268.014zm18.706 1.658l.809.79-2.563.014-2.563.013-2.828 2.76-2.827 2.761-.009-.21a1.401 1.401 0 00-1.395-1.341 1.392 1.392 0 00-1.28.753c-.134.253-.156.341-.156.632 0 .284.024.384.146.623.238.465.693.754 1.19.755h.262l-.954.933-.954.933-2.729-.013-2.729-.012-.152-.14c-.298-.274-.283-.019-.283-4.935 0-3.07.016-4.537.05-4.626a.79.79 0 01.403-.415c.117-.051 1.717-.063 8.948-.064l8.805-.002.809.79zm-15.89 1.154c-.678.237-1.075.908-.937 1.58.27 1.316 2.036 1.532 2.69.33.154-.283.154-.903 0-1.186-.357-.655-1.087-.957-1.753-.724zm3.627.146c-.199.12-3.317 5.512-3.317 5.736 0 .221.222.42.469.42.11 0 .232-.034.291-.08.056-.046.81-1.308 1.676-2.806 1.62-2.805 1.657-2.883 1.521-3.131-.05-.091-.31-.226-.436-.226a.608.608 0 00-.204.087zm-2.967.757c.458.229.287.88-.232.88-.064 0-.186-.06-.27-.135-.129-.112-.156-.169-.156-.331a.46.46 0 01.658-.414zm16.477 1.877c.178.174.205.325.094.534a.502.502 0 01-.41.24c-.473 0-.646-.643-.233-.867.2-.109.372-.08.549.093zm-5.48 1.882c-.874.855-.959.62.87 2.408l1.478 1.446h.217c.214 0 .224-.007.812-.586.548-.54.595-.6.595-.76 0-.225-.064-.336-.246-.428-.248-.125-.408-.06-.804.33l-.356.35-.323-.314c-.178-.172-.323-.331-.323-.352 0-.022.16-.205.358-.407.259-.265.358-.4.358-.489a.485.485 0 00-.49-.488c-.16-.001-.223.04-.563.357l-.384.357-.33-.32-.331-.32.35-.352c.393-.395.442-.493.363-.726-.07-.207-.21-.302-.45-.302-.18 0-.222.032-.8.596zm-6.832.014c.084.068.15.311.124.45-.065.33-.543.457-.788.207s-.111-.713.221-.765a.715.715 0 01.443.108zm4.094 2.696c-.144.059-.305.275-.305.407a.6.6 0 00.068.239c.118.218 2.853 2.842 2.999 2.877.22.053.378-.053 1.03-.696.543-.536.627-.639.627-.769 0-.326-.264-.56-.56-.497-.085.018-.29.18-.54.424-.22.217-.423.394-.45.394-.026 0-.596-.534-1.265-1.187-1.258-1.227-1.351-1.296-1.604-1.192zm-2.368 2.281c-.268.235-.25.285.811 2.311 1.05 2.006 1.076 2.041 1.431 1.953a.491.491 0 00.279-.74.443.443 0 01-.076-.175c0-.033.211-.267.47-.518l.47-.458.196.097c.277.139.463.127.633-.038.194-.19.197-.477.008-.642-.208-.182-3.762-1.925-3.925-1.925a.49.49 0 00-.297.136zm2.24 2.183a2 2 0 01-.272.245c-.025 0-.526-.954-.526-1.002 0-.013.235.098.523.245l.522.268-.246.244zm-4.881.396c-.424.42-.546.57-.61.754a1.39 1.39 0 001.33 1.866c.391.002.575-.062.924-.32.34-.25.57-.261.774-.038.146.16.174.322.085.49-.03.057-.245.294-.478.527-.378.38-.423.444-.423.598 0 .252.208.445.48.445.19 0 .227-.024.674-.453.597-.573.731-.815.73-1.317-.001-.42-.112-.693-.392-.966-.296-.29-.59-.407-1.015-.405-.405.003-.582.064-.921.317-.28.21-.448.249-.646.15-.182-.093-.246-.204-.246-.428 0-.154.045-.217.426-.597.479-.477.557-.616.48-.847-.066-.192-.231-.3-.462-.3-.166 0-.221.04-.71.524zm9.59 1.384a.675.675 0 00-.208.174c-.226.28-.006.714.362.714.217 0 .334-.064.423-.232.106-.2.089-.355-.059-.513-.14-.15-.355-.21-.518-.143z" fill="url(#paint0_linear_3085_3667)"/><circle cx="21" cy="21" r="20.5" stroke="#06B29F"/><defs><linearGradient id="paint0_linear_3085_3667" x1="9" y1="11" x2="33.305" y2="36.006" gradientUnits="userSpaceOnUse"><stop stop-color="#0ABD92"/><stop offset="1" stop-color="#009DB8"/></linearGradient></defs></svg>