<svg width="42" height="42" fill="none" xmlns="http://www.w3.org/2000/svg"><circle cx="21" cy="21" r="20.5" stroke="#06B1A0"/><path fill-rule="evenodd" clip-rule="evenodd" d="M13.608 10.097c-.317.108-.666.347-.85.582-.187.238-.313.511-.63 1.366-.401 1.08-.43 1.539-.135 2.129l.109.216h-.904c-.913 0-1.027.017-1.143.169-.038.05-.053.424-.054 1.416L10 17.322l.105.106c.13.13.316.137.469.017l.112-.089.012-1.128.011-1.127 1.131-.012 1.132-.011 1.487.41c.818.227 1.493.418 1.5.425.008.008-.17.322-.397.699a27.8 27.8 0 00-.827 1.513l-.417.829h-3.631v-.272c0-.23-.015-.287-.099-.366-.145-.137-.384-.127-.499.02-.078.1-.089.173-.089.605 0 .464.006.497.105.597.103.103.122.105.774.105h.668v6.084c0 6.064 0 6.085.087 6.179l.088.094H30.32l.067-.096c.057-.08.067-.272.067-1.22 0-1.118 0-1.123-.1-1.217a.344.344 0 00-.482.012c-.105.106-.105.109-.105.99v.885h-6.704v-5.692c0-3.888.014-5.678.044-5.647.025.024.18.34.345.703a18.263 18.263 0 011.395 4.454c.058.33.136.644.172.699.083.128.246.169.406.102.138-.057.688-.814 1.155-1.592.15-.25.292-.477.316-.506.05-.06.744.438 1.55 1.113.278.233.55.434.603.448.142.036.324-.048.382-.175.062-.135.004-.605-.184-1.506a21.938 21.938 0 00-.99-3.392 20.966 20.966 0 01-.252-.7c0-.01.396-.02.88-.02h.882v8.83l.105.106c.14.14.36.143.489.006l.093-.1v-8.842h.68c.655 0 .684-.003.774-.1l.093-.1V14.57l-.113-.09c-.107-.083-.168-.088-1.036-.088-.722 0-.918-.012-.9-.054.27-.611.335-.985.244-1.373-.08-.335-.587-1.695-.742-1.99a1.845 1.845 0 00-2.096-.914c-.13.034-1.22.53-2.424 1.101l-2.189 1.04-.213-.1c-.209-.098-.242-.1-1.528-.1-1.295 0-1.317.001-1.52.102l-.207.102-2.178-1.036c-1.198-.57-2.283-1.066-2.411-1.103a1.882 1.882 0 00-1.079.03zm.877.638c.092.025 1.098.49 2.235 1.03 2.029.967 2.067.987 2.058 1.105a9.032 9.032 0 01-.043.383l-.034.262-.387-.212c-.994-.546-2.241-1.034-3.007-1.176-.508-.094-1.15-.067-1.486.062-.401.154-.727.49-.727.75 0 .141.184.303.345.303.091 0 .179-.046.29-.153.24-.23.413-.3.802-.323.687-.041 1.777.305 3.139.999.378.192.77.402.87.467l.183.117v.8c0 .669-.01.797-.06.778-.034-.013-1.266-.356-2.74-.762-1.645-.453-2.748-.778-2.858-.842a1.163 1.163 0 01-.56-1.113c.03-.26.59-1.785.741-2.016.253-.384.792-.584 1.24-.46zm13.744.038c.426.16.555.345.922 1.32.35.932.411 1.239.314 1.588-.065.232-.359.58-.576.683-.082.039-1.344.4-2.805.804l-2.732.755c-.07.022-.075-.035-.075-.787v-.81l.355-.202c1.354-.77 2.722-1.294 3.538-1.355.491-.037.736.03 1.011.278.173.156.252.198.37.198.176 0 .355-.171.355-.339 0-.189-.258-.462-.604-.639-.287-.147-.365-.167-.737-.189-.473-.028-.895.026-1.473.19-.575.164-1.468.535-2.16.897-.336.177-.619.321-.628.321-.01 0-.027-.12-.039-.269a2.39 2.39 0 00-.05-.358c-.033-.099-.285.03 2.705-1.388.85-.403 1.595-.742 1.654-.753a1.17 1.17 0 01.655.055zm-5.982 1.976a.715.715 0 01.235.226c.082.138.086.223.086 1.717 0 2.154.12 2.002-1.57 2.002-1.265 0-1.284-.004-1.462-.293-.08-.131-.084-.21-.073-1.76l.012-1.621.107-.117c.201-.218.281-.231 1.44-.233.969-.002 1.09.006 1.225.079zm9.066 4.268v1.937l-1.816-.003-1.815-.002-.395-.805a24.542 24.542 0 00-.822-1.515c-.25-.414-.407-.718-.379-.728.027-.01.687-.197 1.467-.415l1.418-.397 1.17-.005 1.172-.005v1.938zm-13.532-.61l1.057.292.254.26c.141.145.325.286.415.318.088.032.161.076.161.098 0 .022-.11.197-.245.39-1.135 1.62-2.19 3.989-2.677 6.011-.077.32-.163.669-.19.776l-.051.193-.24-.371c-.133-.205-.35-.563-.483-.797-.265-.465-.405-.619-.56-.619-.112 0-.707.39-1.357.89a5.668 5.668 0 01-.433.316c-.013 0 .03-.237.093-.527a22.294 22.294 0 013.192-7.524c.004 0 .483.132 1.064.293zm7.887.277c1.168 1.903 1.99 3.786 2.554 5.853.155.567.387 1.595.364 1.617-.008.009-.176-.109-.374-.261-.561-.434-1.221-.885-1.334-.914-.193-.048-.32.045-.509.375-.32.562-.833 1.37-.867 1.37-.018 0-.033-.035-.033-.079 0-.138-.372-1.561-.559-2.139-.516-1.594-1.387-3.386-2.288-4.704-.124-.181-.24-.355-.26-.384-.023-.038.028-.084.166-.148.202-.096.421-.281.543-.46.055-.082.257-.153 1.114-.394a45.635 45.635 0 011.09-.298c.024-.003.2.252.393.566zm-3.916 1.097c.142.205.37.548.506.763l.248.389-.753.012c-.414.006-1.089.006-1.499 0l-.746-.012.263-.412c.144-.226.375-.57.512-.764l.25-.353.48.002.481.002.258.373zm-7.971 2.524a22.074 22.074 0 00-1.162 4.26c-.076.448-.083.573-.042.674.059.14.254.239.398.2.053-.014.32-.213.591-.442a22.42 22.42 0 011.402-1.081l.135-.095.302.505c.372.622 1.012 1.535 1.138 1.624.131.092.266.081.395-.031.097-.085.127-.183.238-.792a18.397 18.397 0 011.544-4.73l.21-.43.004 5.693.003 5.695-3.34-.011-3.341-.011-.011-5.845-.01-5.845h1.795l-.25.662zm8.551 5.194v5.855h-2.664V19.643h2.664V25.5z" fill="url(#paint0_linear_3086_3672)"/><defs><linearGradient id="paint0_linear_3086_3672" x1="10" y1="10" x2="32.44" y2="32.55" gradientUnits="userSpaceOnUse"><stop stop-color="#0ABD92"/><stop offset="1" stop-color="#009DB8"/></linearGradient></defs></svg>