<svg width="42" height="42" fill="none" xmlns="http://www.w3.org/2000/svg"><circle cx="21" cy="21" r="20.5" stroke="#06B1A0"/><mask id="a" fill="#fff"><path fill-rule="evenodd" clip-rule="evenodd" d="M20.152 10.013c-1.306.134-2.58.443-3.363.816-.265.126-.321.173-.399.332-.105.218-.111.325-.03.517a.65.65 0 00.844.356 14.014 14.014 0 011.85-.557 9.719 9.719 0 0110.673 5.282c.162.332.354.778.429.991a9.745 9.745 0 01-.476 7.6c-.289.575-.697 1.227-.72 1.15-.103-.338-.32-.52-.629-.524a.633.633 0 00-.562.313c-.081.139-.087.22-.087 1.181 0 .993.004 1.038.096 1.187.182.293.242.305 1.463.29l1.086-.014.157-.158c.13-.13.16-.195.179-.383.04-.408-.199-.668-.653-.715l-.234-.024.271-.393a11.016 11.016 0 001.764-8.312 10.908 10.908 0 00-3.038-5.73c-1.71-1.71-3.786-2.75-6.233-3.123-.433-.067-2.014-.12-2.388-.082zm-8.477 3.069c-.19.079-.334.29-.357.522-.039.405.2.667.65.714l.23.023-.355.532c-.966 1.446-1.546 2.986-1.787 4.748-.074.54-.075 2.223-.001 2.753.456 3.278 2.203 6.059 4.933 7.853 2.44 1.602 5.467 2.148 8.407 1.516.546-.117 1.422-.398 1.798-.577.264-.126.32-.173.398-.333.105-.217.112-.324.031-.517a.651.651 0 00-.844-.356c-.61.231-1.4.47-1.861.56a9.944 9.944 0 01-4.379-.12c-1.9-.495-3.712-1.637-4.958-3.123-2.4-2.862-2.977-6.752-1.508-10.15.22-.512.353-.76.694-1.31.214-.344.241-.372.267-.277.147.551.891.656 1.179.166.082-.14.088-.22.088-1.182 0-.956-.007-1.042-.087-1.175-.179-.297-.232-.309-1.403-.306-.577.002-1.088.02-1.135.039zm7.714.477c-.246.13-.31.289-.335.83l-.021.467-.323.118a5.71 5.71 0 00-.511.214l-.189.097-.306-.3c-.169-.165-.349-.322-.4-.348-.121-.062-.423-.062-.544 0-.134.067-2.045 1.971-2.119 2.11-.073.14-.08.434-.014.565.026.052.183.232.348.4l.3.306-.105.21a6.92 6.92 0 00-.222.522l-.118.312h-.428c-.522 0-.72.08-.855.343-.082.16-.087.251-.087 1.592 0 1.34.006 1.433.087 1.593.13.253.285.317.832.343l.468.021.117.323c.065.177.162.407.215.511l.096.189-.3.306c-.165.168-.322.348-.348.4-.061.12-.062.422 0 .543.068.134 1.973 2.044 2.112 2.118.139.073.433.08.565.014.051-.026.232-.183.4-.348l.306-.3.189.096c.103.053.334.15.511.215l.323.117.021.467c.026.547.09.703.344.833.16.081.252.086 1.593.086s1.433-.005 1.593-.087c.263-.134.343-.332.343-.85v-.426l.312-.12c.172-.067.407-.168.522-.226l.21-.105.307.3c.168.165.348.322.4.348.131.067.426.06.564-.014.14-.074 2.045-1.984 2.113-2.118.06-.121.06-.423 0-.543a3.18 3.18 0 00-.349-.4l-.3-.306.097-.189c.053-.104.15-.334.214-.511l.118-.323.467-.021c.547-.026.703-.09.832-.343.082-.16.087-.253.087-1.593 0-1.34-.005-1.432-.087-1.592-.13-.254-.285-.318-.832-.343l-.467-.022-.118-.322a5.733 5.733 0 00-.214-.511l-.097-.19.3-.305c.165-.168.322-.348.348-.4.062-.12.062-.422 0-.543-.067-.134-1.972-2.044-2.112-2.118-.138-.074-.433-.081-.564-.014-.052.026-.232.182-.4.348l-.306.3-.21-.105a7.599 7.599 0 00-.523-.226l-.312-.12v-.426c0-.518-.08-.717-.343-.85-.16-.083-.25-.087-1.602-.085-1.34.001-1.443.007-1.593.086zm2.247 1.557c0 .591.127.745.757.918.215.06.653.24.994.41.775.385.833.383 1.273-.041l.293-.283.46.46.46.46-.266.269c-.267.27-.356.424-.356.613 0 .056.113.32.251.588.252.487.373.791.498 1.244.128.463.327.598.884.598h.346v1.29h-.346c-.557 0-.756.135-.884.599a5.712 5.712 0 01-.498 1.243c-.138.268-.251.533-.251.589 0 .188.09.342.356.613l.266.27-.461.46-.462.461-.269-.265c-.27-.267-.425-.357-.613-.357-.056 0-.321.113-.59.252a5.717 5.717 0 01-1.243.498c-.464.127-.599.326-.599.883v.346h-1.291v-.346c0-.557-.135-.756-.598-.883a5.72 5.72 0 01-1.244-.498c-.268-.139-.533-.252-.59-.252-.188 0-.342.09-.613.357l-.269.265-.46-.46-.46-.46.283-.292c.425-.44.427-.498.041-1.272-.17-.342-.35-.78-.41-.994-.173-.63-.327-.756-.919-.757h-.355v-1.29h.355c.597 0 .76-.14.933-.794.06-.225.218-.61.396-.96.163-.323.296-.63.296-.682 0-.183-.092-.34-.357-.607l-.266-.27.46-.46.46-.46.294.284c.44.424.498.426 1.272.04.342-.17.78-.35.994-.409.63-.173.757-.327.757-.918v-.355h1.291v.355zm-1.355 1.856a4.164 4.164 0 00-3.258 3.024c-.132.482-.132 1.52 0 2.003a4.171 4.171 0 002.978 2.961c.513.138 1.491.139 2 0a4.174 4.174 0 002.955-2.974c.143-.525.143-1.452 0-1.978-.397-1.468-1.519-2.596-2.954-2.97-.443-.116-1.297-.149-1.721-.066zm1.29 1.294c1.035.217 1.936 1.116 2.152 2.15a2.737 2.737 0 01-.242 1.829 2.85 2.85 0 01-1.242 1.241c-.829.406-1.668.406-2.496 0a2.85 2.85 0 01-1.242-1.241c-.407-.829-.407-1.667 0-2.495.351-.716 1.115-1.316 1.887-1.482.37-.079.812-.08 1.184-.002z"/></mask><path fill-rule="evenodd" clip-rule="evenodd" d="M20.152 10.013c-1.306.134-2.58.443-3.363.816-.265.126-.321.173-.399.332-.105.218-.111.325-.03.517a.65.65 0 00.844.356 14.014 14.014 0 011.85-.557 9.719 9.719 0 0110.673 5.282c.162.332.354.778.429.991a9.745 9.745 0 01-.476 7.6c-.289.575-.697 1.227-.72 1.15-.103-.338-.32-.52-.629-.524a.633.633 0 00-.562.313c-.081.139-.087.22-.087 1.181 0 .993.004 1.038.096 1.187.182.293.242.305 1.463.29l1.086-.014.157-.158c.13-.13.16-.195.179-.383.04-.408-.199-.668-.653-.715l-.234-.024.271-.393a11.016 11.016 0 001.764-8.312 10.908 10.908 0 00-3.038-5.73c-1.71-1.71-3.786-2.75-6.233-3.123-.433-.067-2.014-.12-2.388-.082zm-8.477 3.069c-.19.079-.334.29-.357.522-.039.405.2.667.65.714l.23.023-.355.532c-.966 1.446-1.546 2.986-1.787 4.748-.074.54-.075 2.223-.001 2.753.456 3.278 2.203 6.059 4.933 7.853 2.44 1.602 5.467 2.148 8.407 1.516.546-.117 1.422-.398 1.798-.577.264-.126.32-.173.398-.333.105-.217.112-.324.031-.517a.651.651 0 00-.844-.356c-.61.231-1.4.47-1.861.56a9.944 9.944 0 01-4.379-.12c-1.9-.495-3.712-1.637-4.958-3.123-2.4-2.862-2.977-6.752-1.508-10.15.22-.512.353-.76.694-1.31.214-.344.241-.372.267-.277.147.551.891.656 1.179.166.082-.14.088-.22.088-1.182 0-.956-.007-1.042-.087-1.175-.179-.297-.232-.309-1.403-.306-.577.002-1.088.02-1.135.039zm7.714.477c-.246.13-.31.289-.335.83l-.021.467-.323.118a5.71 5.71 0 00-.511.214l-.189.097-.306-.3c-.169-.165-.349-.322-.4-.348-.121-.062-.423-.062-.544 0-.134.067-2.045 1.971-2.119 2.11-.073.14-.08.434-.014.565.026.052.183.232.348.4l.3.306-.105.21a6.92 6.92 0 00-.222.522l-.118.312h-.428c-.522 0-.72.08-.855.343-.082.16-.087.251-.087 1.592 0 1.34.006 1.433.087 1.593.13.253.285.317.832.343l.468.021.117.323c.065.177.162.407.215.511l.096.189-.3.306c-.165.168-.322.348-.348.4-.061.12-.062.422 0 .543.068.134 1.973 2.044 2.112 2.118.139.073.433.08.565.014.051-.026.232-.183.4-.348l.306-.3.189.096c.103.053.334.15.511.215l.323.117.021.467c.026.547.09.703.344.833.16.081.252.086 1.593.086s1.433-.005 1.593-.087c.263-.134.343-.332.343-.85v-.426l.312-.12c.172-.067.407-.168.522-.226l.21-.105.307.3c.168.165.348.322.4.348.131.067.426.06.564-.014.14-.074 2.045-1.984 2.113-2.118.06-.121.06-.423 0-.543a3.18 3.18 0 00-.349-.4l-.3-.306.097-.189c.053-.104.15-.334.214-.511l.118-.323.467-.021c.547-.026.703-.09.832-.343.082-.16.087-.253.087-1.593 0-1.34-.005-1.432-.087-1.592-.13-.254-.285-.318-.832-.343l-.467-.022-.118-.322a5.733 5.733 0 00-.214-.511l-.097-.19.3-.305c.165-.168.322-.348.348-.4.062-.12.062-.422 0-.543-.067-.134-1.972-2.044-2.112-2.118-.138-.074-.433-.081-.564-.014-.052.026-.232.182-.4.348l-.306.3-.21-.105a7.599 7.599 0 00-.523-.226l-.312-.12v-.426c0-.518-.08-.717-.343-.85-.16-.083-.25-.087-1.602-.085-1.34.001-1.443.007-1.593.086zm2.247 1.557c0 .591.127.745.757.918.215.06.653.24.994.41.775.385.833.383 1.273-.041l.293-.283.46.46.46.46-.266.269c-.267.27-.356.424-.356.613 0 .056.113.32.251.588.252.487.373.791.498 1.244.128.463.327.598.884.598h.346v1.29h-.346c-.557 0-.756.135-.884.599a5.712 5.712 0 01-.498 1.243c-.138.268-.251.533-.251.589 0 .188.09.342.356.613l.266.27-.461.46-.462.461-.269-.265c-.27-.267-.425-.357-.613-.357-.056 0-.321.113-.59.252a5.717 5.717 0 01-1.243.498c-.464.127-.599.326-.599.883v.346h-1.291v-.346c0-.557-.135-.756-.598-.883a5.72 5.72 0 01-1.244-.498c-.268-.139-.533-.252-.59-.252-.188 0-.342.09-.613.357l-.269.265-.46-.46-.46-.46.283-.292c.425-.44.427-.498.041-1.272-.17-.342-.35-.78-.41-.994-.173-.63-.327-.756-.919-.757h-.355v-1.29h.355c.597 0 .76-.14.933-.794.06-.225.218-.61.396-.96.163-.323.296-.63.296-.682 0-.183-.092-.34-.357-.607l-.266-.27.46-.46.46-.46.294.284c.44.424.498.426 1.272.04.342-.17.78-.35.994-.409.63-.173.757-.327.757-.918v-.355h1.291v.355zm-1.355 1.856a4.164 4.164 0 00-3.258 3.024c-.132.482-.132 1.52 0 2.003a4.171 4.171 0 002.978 2.961c.513.138 1.491.139 2 0a4.174 4.174 0 002.955-2.974c.143-.525.143-1.452 0-1.978-.397-1.468-1.519-2.596-2.954-2.97-.443-.116-1.297-.149-1.721-.066zm1.29 1.294c1.035.217 1.936 1.116 2.152 2.15a2.737 2.737 0 01-.242 1.829 2.85 2.85 0 01-1.242 1.241c-.829.406-1.668.406-2.496 0a2.85 2.85 0 01-1.242-1.241c-.407-.829-.407-1.667 0-2.495.351-.716 1.115-1.316 1.887-1.482.37-.079.812-.08 1.184-.002z" fill="url(#paint0_linear_3086_3672)" stroke="#000" stroke-width=".5" mask="url(#a)"/><defs><linearGradient id="paint0_linear_3086_3672" x1="10" y1="10" x2="32.44" y2="32.55" gradientUnits="userSpaceOnUse"><stop stop-color="#0ABD92"/><stop offset="1" stop-color="#009DB8"/></linearGradient></defs></svg>