<svg width="158" height="149" fill="none" xmlns="http://www.w3.org/2000/svg"><g opacity=".6"><mask id="a" fill="#fff"><path fill-rule="evenodd" clip-rule="evenodd" d="M76.061 1.497c-15.214 10.571-35.328 18.055-54.89 20.422-4.473.542-4.551.63-4.907 5.572-.303 4.214-.055 18.474.362 20.842.415 2.35 2.34 3.26 3.858 1.824l.717-.68-.158-11.429-.159-11.43.74-.152c.406-.085 1.85-.301 3.208-.482 16.924-2.252 36.119-9.3 50.579-18.573C77.256 6.227 78.87 5.259 79 5.259s1.744.968 3.59 2.152c14.42 9.25 33.687 16.326 50.578 18.573 1.358.181 2.799.397 3.202.48l.732.151-.165 10.723c-.2 13.008-.789 18.736-3.041 29.566-4.334 20.843-13.097 38.346-25.458 50.851-5.208 5.268-9.22 8.481-15.394 12.326-3.4 2.118-13.122 6.941-13.99 6.941-.721 0-8.09-3.476-11.533-5.439-1.92-1.094-5.157-3.173-7.194-4.619-4.17-2.96-11.918-10.097-15.09-13.899C34.166 99.796 26.57 82.262 23.15 62.083l-.804-4.735c-.186-1.083-1.42-2.13-2.508-2.13-.948 0-2.26 1.227-2.26 2.115 0 1.042 1.45 9.176 2.294 12.862a127.219 127.219 0 007.039 21.63c1.018 2.378 1.8 4.361 1.738 4.408-.063.045-.947.522-1.966 1.057-3.355 1.765-8.1 4.962-10.318 6.952-2.679 2.403-2.762 2.935-.947 6.047.679 1.164 1.234 2.198 1.234 2.297 0 .099-3.368 2.302-7.485 4.894-4.116 2.593-7.866 5.051-8.333 5.463-.95.839-1.099 1.925-.392 2.88.251.339 3.446 2.173 7.099 4.075l6.642 3.457v7.187c0 7.135.005 7.192.714 7.823.393.349 1.062.635 1.486.635.726 0 26.179-13.974 27.474-15.083.915-.784.678-2.077-.974-5.329-.846-1.666-1.539-3.128-1.539-3.248 0-.239 3.479-1.757 5.33-2.326l1.162-.357 3.005 2.692c6.878 6.162 16.242 11.862 25.603 15.584 2.38.946 2.728.946 5.112.006 9.123-3.601 18.793-9.489 25.604-15.59l3.004-2.692 1.162.357c1.851.569 5.33 2.087 5.33 2.326 0 .12-.693 1.582-1.539 3.248-1.652 3.252-1.889 4.545-.974 5.329 1.363 1.167 26.751 15.083 27.518 15.083.452 0 1.112-.301 1.485-.676.651-.657.671-.888.671-7.823v-7.146l6.642-3.457c3.653-1.902 6.848-3.736 7.099-4.075.707-.955.559-2.041-.392-2.88-.467-.412-4.217-2.87-8.333-5.463-4.117-2.592-7.485-4.799-7.485-4.905 0-.105.555-1.149 1.234-2.32 1.736-2.994 1.674-3.623-.56-5.68-2.28-2.098-5.58-4.405-9.312-6.51-1.61-.907-3.053-1.69-3.207-1.738-.153-.049.63-2.252 1.741-4.895 5.293-12.597 8.35-25.024 9.948-40.45.612-5.904.914-19.363.538-23.934-.366-4.444-.515-4.6-4.901-5.125-19.439-2.333-39.703-9.873-54.89-20.426C80.68.623 79.459 0 79 0c-.458 0-1.681.623-2.939 1.497zm-.193 16.442c-3.578 2.474-7.109 4.427-12.455 6.891-9.432 4.347-18.255 6.899-28.325 8.19-3.287.422-3.921.838-4.26 2.788-.36 2.076-.341 13.12.03 17.541.96 11.463 3.274 21.853 6.981 31.364 2.343 6.008 8.455 16.752 10.615 18.657 1.464 1.291 4.002.343 4.002-1.495 0-.327-.95-1.985-2.11-3.686-6.673-9.778-10.796-20.327-13.312-34.06-1.262-6.893-2.177-20.606-1.646-24.676l.246-1.887 3.396-.526c13.035-2.018 27.5-7.439 37.747-14.148 1.07-.7 2.07-1.272 2.223-1.272.153 0 1.154.572 2.223 1.272 10.248 6.71 24.716 12.132 37.747 14.148l3.396.525.24 2.18c.132 1.199.159 4.366.06 7.038-.178 4.802-.172 4.868.549 5.66 1.282 1.411 3.657.8 4.046-1.04.273-1.291.206-13.505-.085-15.442-.316-2.11-.893-2.508-4.264-2.94-10.07-1.293-18.893-3.844-28.325-8.19-5.294-2.441-8.79-4.37-12.482-6.89-1.414-.966-2.633-1.58-3.134-1.58-.504 0-1.698.607-3.103 1.578zm19.8 33.065c-1.402.616-3.558 2.502-12.354 10.804L72.658 71.865l-4.16-3.948c-4.73-4.492-5.873-5.168-8.77-5.194-5.956-.053-9.966 5.722-7.467 10.755.963 1.938 14.8 15.27 16.84 16.224 2.015.943 4.426 1.06 6.505.317 1.553-.555 2.947-1.792 16.245-14.418 15.839-15.038 15.38-14.502 15.352-17.9-.046-5.547-6.127-9.077-11.536-6.697zm4.753 4.037c2.196.868 2.692 3.052 1.142 5.027-1.063 1.352-25.77 24.657-26.876 25.348-.42.264-1.383.478-2.147.478h-1.384l-7.306-6.939c-7.705-7.318-7.917-7.596-7.327-9.62.53-1.817 3.198-2.723 4.892-1.66.42.263 2.941 2.52 5.602 5.015 4.187 3.925 4.971 4.537 5.812 4.537.867 0 2.214-1.174 12.445-10.846 6.31-5.964 11.89-11.047 12.4-11.294 1.14-.555 1.448-.56 2.747-.046zm21.984 3.349c-.369.386-.781 1.925-1.275 4.761-3.085 17.731-9.019 30.896-18.745 41.587-5.437 5.977-11.384 10.329-19.286 14.113l-4.08 1.954-3.945-1.857c-6.06-2.853-10.747-5.938-15.739-10.357-2.392-2.118-2.861-2.344-4.002-1.934-1.076.388-1.62 1.099-1.633 2.136-.007.66.442 1.261 2.075 2.776 4.907 4.552 10.667 8.374 17.36 11.518 5.825 2.736 5.875 2.736 11.471.123 14.131-6.597 24.551-16.613 31.997-30.757 4.401-8.36 7.214-16.982 9.177-28.128l.84-4.767-.615-.782c-.808-1.029-2.783-1.24-3.6-.386zm-90.479 43.646c2.567 4.548 7.67 11.743 10.889 15.352.76.851 1.33 1.593 1.267 1.647-.063.055-1.156.515-2.429 1.023-2.736 1.092-7.46 3.618-9.957 5.324-.977.668-1.827 1.16-1.887 1.095-.198-.213-10.379-18.654-10.379-18.798 0-.646 10.243-7.177 11.257-7.177.206 0 .763.69 1.24 1.534zm96.551-1.055c2.743 1.331 10.093 6.208 10.093 6.698 0 .144-10.181 18.585-10.379 18.798-.06.065-.91-.427-1.887-1.095-2.497-1.706-7.221-4.232-9.957-5.324-1.273-.508-2.361-.963-2.417-1.011-.055-.049.721-1.053 1.725-2.232 4.012-4.709 7.68-9.893 10.251-14.487.561-1.004 1.147-1.826 1.302-1.826.155 0 .725.216 1.269.479zM23.133 124.24c2.239 4.057 4.255 7.559 4.481 7.782.226.223 1.9.646 3.719.939 1.819.293 3.438.575 3.599.625.16.051-3.366 2.132-7.837 4.625l-8.128 4.532-.154-5.955c-.148-5.711-.183-5.976-.84-6.479-.377-.289-2.911-1.67-5.633-3.07s-5.014-2.646-5.094-2.768c-.128-.197 11.11-7.54 11.614-7.589.111-.01 2.034 3.301 4.273 7.358zm121.911-3.684c3.22 2.031 5.789 3.793 5.71 3.915-.08.122-2.372 1.368-5.094 2.768-2.722 1.4-5.256 2.781-5.633 3.07-.657.503-.692.768-.84 6.479l-.154 5.955-8.128-4.532c-4.471-2.493-7.997-4.574-7.837-4.625.161-.05 1.78-.332 3.599-.625 1.819-.293 3.493-.716 3.719-.939.226-.223 2.242-3.725 4.481-7.782s4.128-7.377 4.197-7.377c.069 0 2.76 1.662 5.98 3.693zm-107.462 8.079l.367.817-1.157-.182c-2.043-.322-2.11-.4-.98-1.143 1.139-.747 1.215-.725 1.77.508zm85.308.242c-.355.299-2.899.585-2.717.305.092-.141.309-.607.481-1.035l.312-.779 1.07.664c.588.365.973.745.854.845z"/></mask><path fill-rule="evenodd" clip-rule="evenodd" d="M76.061 1.497c-15.214 10.571-35.328 18.055-54.89 20.422-4.473.542-4.551.63-4.907 5.572-.303 4.214-.055 18.474.362 20.842.415 2.35 2.34 3.26 3.858 1.824l.717-.68-.158-11.429-.159-11.43.74-.152c.406-.085 1.85-.301 3.208-.482 16.924-2.252 36.119-9.3 50.579-18.573C77.256 6.227 78.87 5.259 79 5.259s1.744.968 3.59 2.152c14.42 9.25 33.687 16.326 50.578 18.573 1.358.181 2.799.397 3.202.48l.732.151-.165 10.723c-.2 13.008-.789 18.736-3.041 29.566-4.334 20.843-13.097 38.346-25.458 50.851-5.208 5.268-9.22 8.481-15.394 12.326-3.4 2.118-13.122 6.941-13.99 6.941-.721 0-8.09-3.476-11.533-5.439-1.92-1.094-5.157-3.173-7.194-4.619-4.17-2.96-11.918-10.097-15.09-13.899C34.166 99.796 26.57 82.262 23.15 62.083l-.804-4.735c-.186-1.083-1.42-2.13-2.508-2.13-.948 0-2.26 1.227-2.26 2.115 0 1.042 1.45 9.176 2.294 12.862a127.219 127.219 0 007.039 21.63c1.018 2.378 1.8 4.361 1.738 4.408-.063.045-.947.522-1.966 1.057-3.355 1.765-8.1 4.962-10.318 6.952-2.679 2.403-2.762 2.935-.947 6.047.679 1.164 1.234 2.198 1.234 2.297 0 .099-3.368 2.302-7.485 4.894-4.116 2.593-7.866 5.051-8.333 5.463-.95.839-1.099 1.925-.392 2.88.251.339 3.446 2.173 7.099 4.075l6.642 3.457v7.187c0 7.135.005 7.192.714 7.823.393.349 1.062.635 1.486.635.726 0 26.179-13.974 27.474-15.083.915-.784.678-2.077-.974-5.329-.846-1.666-1.539-3.128-1.539-3.248 0-.239 3.479-1.757 5.33-2.326l1.162-.357 3.005 2.692c6.878 6.162 16.242 11.862 25.603 15.584 2.38.946 2.728.946 5.112.006 9.123-3.601 18.793-9.489 25.604-15.59l3.004-2.692 1.162.357c1.851.569 5.33 2.087 5.33 2.326 0 .12-.693 1.582-1.539 3.248-1.652 3.252-1.889 4.545-.974 5.329 1.363 1.167 26.751 15.083 27.518 15.083.452 0 1.112-.301 1.485-.676.651-.657.671-.888.671-7.823v-7.146l6.642-3.457c3.653-1.902 6.848-3.736 7.099-4.075.707-.955.559-2.041-.392-2.88-.467-.412-4.217-2.87-8.333-5.463-4.117-2.592-7.485-4.799-7.485-4.905 0-.105.555-1.149 1.234-2.32 1.736-2.994 1.674-3.623-.56-5.68-2.28-2.098-5.58-4.405-9.312-6.51-1.61-.907-3.053-1.69-3.207-1.738-.153-.049.63-2.252 1.741-4.895 5.293-12.597 8.35-25.024 9.948-40.45.612-5.904.914-19.363.538-23.934-.366-4.444-.515-4.6-4.901-5.125-19.439-2.333-39.703-9.873-54.89-20.426C80.68.623 79.459 0 79 0c-.458 0-1.681.623-2.939 1.497zm-.193 16.442c-3.578 2.474-7.109 4.427-12.455 6.891-9.432 4.347-18.255 6.899-28.325 8.19-3.287.422-3.921.838-4.26 2.788-.36 2.076-.341 13.12.03 17.541.96 11.463 3.274 21.853 6.981 31.364 2.343 6.008 8.455 16.752 10.615 18.657 1.464 1.291 4.002.343 4.002-1.495 0-.327-.95-1.985-2.11-3.686-6.673-9.778-10.796-20.327-13.312-34.06-1.262-6.893-2.177-20.606-1.646-24.676l.246-1.887 3.396-.526c13.035-2.018 27.5-7.439 37.747-14.148 1.07-.7 2.07-1.272 2.223-1.272.153 0 1.154.572 2.223 1.272 10.248 6.71 24.716 12.132 37.747 14.148l3.396.525.24 2.18c.132 1.199.159 4.366.06 7.038-.178 4.802-.172 4.868.549 5.66 1.282 1.411 3.657.8 4.046-1.04.273-1.291.206-13.505-.085-15.442-.316-2.11-.893-2.508-4.264-2.94-10.07-1.293-18.893-3.844-28.325-8.19-5.294-2.441-8.79-4.37-12.482-6.89-1.414-.966-2.633-1.58-3.134-1.58-.504 0-1.698.607-3.103 1.578zm19.8 33.065c-1.402.616-3.558 2.502-12.354 10.804L72.658 71.865l-4.16-3.948c-4.73-4.492-5.873-5.168-8.77-5.194-5.956-.053-9.966 5.722-7.467 10.755.963 1.938 14.8 15.27 16.84 16.224 2.015.943 4.426 1.06 6.505.317 1.553-.555 2.947-1.792 16.245-14.418 15.839-15.038 15.38-14.502 15.352-17.9-.046-5.547-6.127-9.077-11.536-6.697zm4.753 4.037c2.196.868 2.692 3.052 1.142 5.027-1.063 1.352-25.77 24.657-26.876 25.348-.42.264-1.383.478-2.147.478h-1.384l-7.306-6.939c-7.705-7.318-7.917-7.596-7.327-9.62.53-1.817 3.198-2.723 4.892-1.66.42.263 2.941 2.52 5.602 5.015 4.187 3.925 4.971 4.537 5.812 4.537.867 0 2.214-1.174 12.445-10.846 6.31-5.964 11.89-11.047 12.4-11.294 1.14-.555 1.448-.56 2.747-.046zm21.984 3.349c-.369.386-.781 1.925-1.275 4.761-3.085 17.731-9.019 30.896-18.745 41.587-5.437 5.977-11.384 10.329-19.286 14.113l-4.08 1.954-3.945-1.857c-6.06-2.853-10.747-5.938-15.739-10.357-2.392-2.118-2.861-2.344-4.002-1.934-1.076.388-1.62 1.099-1.633 2.136-.007.66.442 1.261 2.075 2.776 4.907 4.552 10.667 8.374 17.36 11.518 5.825 2.736 5.875 2.736 11.471.123 14.131-6.597 24.551-16.613 31.997-30.757 4.401-8.36 7.214-16.982 9.177-28.128l.84-4.767-.615-.782c-.808-1.029-2.783-1.24-3.6-.386zm-90.479 43.646c2.567 4.548 7.67 11.743 10.889 15.352.76.851 1.33 1.593 1.267 1.647-.063.055-1.156.515-2.429 1.023-2.736 1.092-7.46 3.618-9.957 5.324-.977.668-1.827 1.16-1.887 1.095-.198-.213-10.379-18.654-10.379-18.798 0-.646 10.243-7.177 11.257-7.177.206 0 .763.69 1.24 1.534zm96.551-1.055c2.743 1.331 10.093 6.208 10.093 6.698 0 .144-10.181 18.585-10.379 18.798-.06.065-.91-.427-1.887-1.095-2.497-1.706-7.221-4.232-9.957-5.324-1.273-.508-2.361-.963-2.417-1.011-.055-.049.721-1.053 1.725-2.232 4.012-4.709 7.68-9.893 10.251-14.487.561-1.004 1.147-1.826 1.302-1.826.155 0 .725.216 1.269.479zM23.133 124.24c2.239 4.057 4.255 7.559 4.481 7.782.226.223 1.9.646 3.719.939 1.819.293 3.438.575 3.599.625.16.051-3.366 2.132-7.837 4.625l-8.128 4.532-.154-5.955c-.148-5.711-.183-5.976-.84-6.479-.377-.289-2.911-1.67-5.633-3.07s-5.014-2.646-5.094-2.768c-.128-.197 11.11-7.54 11.614-7.589.111-.01 2.034 3.301 4.273 7.358zm121.911-3.684c3.22 2.031 5.789 3.793 5.71 3.915-.08.122-2.372 1.368-5.094 2.768-2.722 1.4-5.256 2.781-5.633 3.07-.657.503-.692.768-.84 6.479l-.154 5.955-8.128-4.532c-4.471-2.493-7.997-4.574-7.837-4.625.161-.05 1.78-.332 3.599-.625 1.819-.293 3.493-.716 3.719-.939.226-.223 2.242-3.725 4.481-7.782s4.128-7.377 4.197-7.377c.069 0 2.76 1.662 5.98 3.693zm-107.462 8.079l.367.817-1.157-.182c-2.043-.322-2.11-.4-.98-1.143 1.139-.747 1.215-.725 1.77.508zm85.308.242c-.355.299-2.899.585-2.717.305.092-.141.309-.607.481-1.035l.312-.779 1.07.664c.588.365.973.745.854.845z" fill="url(#paint0_linear_1710_4427)" stroke="#0D0F0F" stroke-width="2" mask="url(#a)"/></g><defs><linearGradient id="paint0_linear_1710_4427" x1="0" y1="0" x2="151.676" y2="161.626" gradientUnits="userSpaceOnUse"><stop stop-color="#0ABD92"/><stop offset="1" stop-color="#009DB8"/></linearGradient></defs></svg>