<svg width="29" height="30" fill="none" xmlns="http://www.w3.org/2000/svg"><path fill-rule="evenodd" clip-rule="evenodd" d="M13.027.519c-1.675.176-3.31.584-4.315 1.075-.34.166-.412.228-.511.439-.135.286-.144.427-.04.681a.829.829 0 001.083.469c.768-.298 1.77-.608 2.375-.735C17.192 1.286 22.827 4.15 25.316 9.41c.207.438.454 1.026.55 1.306 1.126 3.316.906 6.92-.61 10.017-.371.757-.896 1.617-.925 1.516-.132-.446-.41-.685-.806-.691a.808.808 0 00-.722.413c-.104.182-.112.29-.112 1.556 0 1.308.005 1.369.123 1.564.234.386.31.402 1.878.382l1.393-.018.202-.207c.168-.173.206-.258.23-.505.05-.538-.255-.882-.838-.944l-.3-.031.347-.517c2.153-3.206 2.957-7.099 2.264-10.956a14.505 14.505 0 00-3.898-7.552c-2.195-2.253-4.86-3.624-8-4.116-.555-.088-2.583-.159-3.064-.108zM2.15 4.564c-.244.104-.429.382-.457.688-.05.534.256.88.834.94l.295.032-.456.7C1.125 8.832.381 10.86.072 13.183c-.095.712-.096 2.93-.001 3.628.584 4.32 2.826 7.986 6.33 10.35 3.132 2.112 7.016 2.832 10.79 2 .7-.156 1.824-.526 2.306-.762.339-.166.412-.228.51-.438.136-.287.144-.428.04-.682a.829.829 0 00-1.083-.469c-.782.304-1.796.618-2.388.739-1.846.377-3.822.32-5.62-.16-2.438-.652-4.763-2.156-6.362-4.116A13.088 13.088 0 012.659 9.894c.283-.673.453-1 .89-1.724.276-.455.31-.492.343-.367.189.727 1.144.865 1.513.219.105-.183.113-.29.113-1.557 0-1.26-.009-1.374-.11-1.549-.231-.392-.299-.407-1.802-.403-.74.002-1.396.025-1.457.05zm9.9.629c-.316.17-.398.38-.43 1.094l-.027.615-.414.155a7.264 7.264 0 00-.657.283l-.242.127-.393-.395c-.216-.218-.447-.424-.513-.459-.155-.081-.542-.081-.698 0-.172.089-2.624 2.599-2.72 2.783-.094.182-.103.57-.017.743.034.068.235.305.447.527l.385.403-.135.277a9.23 9.23 0 00-.286.688l-.15.411h-.55c-.67 0-.924.105-1.097.452-.105.211-.111.332-.111 2.1 0 1.765.006 1.887.11 2.098.167.334.367.419 1.07.452l.599.028.15.425c.084.234.208.538.276.674l.124.249-.385.403c-.212.222-.413.46-.447.527-.079.16-.08.557 0 .716.087.177 2.531 2.694 2.71 2.792.178.097.556.106.725.018.066-.034.297-.24.513-.458l.393-.396.242.127c.133.07.429.197.657.283l.414.155.027.616c.033.72.115.925.441 1.096.205.108.324.114 2.044.114 1.722 0 1.84-.006 2.045-.114.337-.177.44-.439.44-1.122v-.56l.4-.16c.22-.087.522-.22.67-.296l.27-.139.394.396c.215.217.446.424.513.458.168.088.546.079.724-.018.18-.098 2.624-2.615 2.71-2.792.08-.16.08-.557 0-.716-.033-.068-.234-.305-.446-.527l-.385-.403.124-.249c.068-.136.192-.44.275-.674l.15-.425.6-.028c.703-.033.902-.118 1.069-.452.104-.21.11-.332.11-2.099 0-1.766-.006-1.888-.11-2.098-.166-.335-.366-.42-1.069-.453l-.6-.028-.15-.425a7.7 7.7 0 00-.275-.674l-.124-.249.385-.403c.212-.222.413-.459.447-.527.078-.159.079-.556 0-.716-.087-.177-2.532-2.694-2.711-2.792-.178-.097-.556-.106-.724-.018-.067.035-.298.24-.513.458l-.393.396-.27-.138a9.62 9.62 0 00-.67-.298l-.4-.159v-.56c0-.683-.104-.945-.441-1.122-.206-.108-.32-.114-2.056-.111-1.72.002-1.852.01-2.045.114zm2.884 2.051c0 .78.163.983.971 1.211.275.078.837.316 1.276.54.994.507 1.068.505 1.633-.055l.376-.372.59.606.59.606-.34.355c-.343.356-.458.56-.458.808 0 .073.145.422.323.775.322.642.479 1.043.64 1.64.163.61.419.788 1.134.788h.443v1.7h-.443c-.715 0-.97.178-1.135.789-.16.597-.317.997-.64 1.639-.177.353-.322.702-.322.776 0 .248.115.451.458.808l.34.354-.591.608-.592.608-.346-.35c-.347-.352-.545-.47-.787-.47-.072 0-.412.15-.756.331-.625.332-1.015.492-1.596.657-.595.168-.768.43-.768 1.164v.456h-1.657v-.456c0-.734-.173-.996-.768-1.164-.581-.165-.972-.325-1.597-.657-.344-.182-.684-.331-.755-.331-.242 0-.44.118-.787.47l-.346.35-.59-.606-.591-.606.363-.386c.545-.58.548-.656.053-1.677-.218-.45-.45-1.027-.525-1.31-.223-.83-.42-.996-1.18-.996h-.456v-1.701h.456c.765 0 .975-.184 1.197-1.047.077-.296.28-.804.508-1.266.209-.425.38-.83.38-.898 0-.24-.119-.447-.458-.8L7.84 9.78l.59-.606.59-.606.377.372c.564.56.639.562 1.633.055.438-.224 1-.462 1.276-.54.808-.228.97-.431.97-1.21l.001-.468h1.657v.467zm-1.74 2.447c-2.043.407-3.628 1.918-4.18 3.985-.17.636-.17 2.004 0 2.64.516 1.932 1.934 3.38 3.821 3.903.659.182 1.914.182 2.568 0 1.862-.517 3.282-1.985 3.791-3.92.183-.692.183-1.914 0-2.607-.51-1.935-1.95-3.422-3.791-3.915-.569-.152-1.664-.195-2.209-.086zm1.657 1.705c1.328.286 2.483 1.472 2.76 2.835.17.829.068 1.618-.31 2.409a3.71 3.71 0 01-1.594 1.636c-1.064.536-2.14.536-3.203 0a3.71 3.71 0 01-1.594-1.636c-.522-1.091-.522-2.196 0-3.288.451-.944 1.431-1.734 2.422-1.952a3.756 3.756 0 011.519-.004z" fill="#fff"/></svg>