<svg width="50" height="50" fill="none" xmlns="http://www.w3.org/2000/svg"><path fill-rule="evenodd" clip-rule="evenodd" d="M2.382.15C1.522.417.662 1.188.267 2.041c-.206.445-.212.575-.24 5.17L0 11.927l.289.288c.42.42 1.04.34 1.27-.165.074-.163.108-1.617.108-4.62 0-2.859.036-4.478.104-4.657.14-.374.562-.808.942-.97.251-.108 1.194-.135 4.706-.135 3.01 0 4.466-.034 4.63-.108.503-.23.586-.849.169-1.266L11.932.01 7.361.015C3.888.02 2.69.053 2.38.15zm35.403.14c-.421.421-.341 1.04.165 1.27.163.074 1.616.108 4.62.108 2.859 0 4.478.036 4.657.104.374.141.808.563.97.943.108.25.135 1.193.135 4.705 0 3.01.034 4.467.108 4.63.23.505.849.586 1.27.165l.29-.29-.029-4.713-.029-4.714-.264-.537a3.673 3.673 0 00-1.63-1.635l-.546-.268-4.714-.03L38.075 0l-.29.29zM22.754 3.43c-5.505.529-8.676 2.815-9.511 6.855-.305 1.48-.165 3.897.33 5.659l.183.658-.407.12c-.578.172-1.26.88-1.488 1.548-.22.644-.226 1.653-.01 2.164l.152.364-5.762.026-5.763.027-.235.274c-.308.358-.307.787.004 1.097l.24.24h12.216l.088.232c.049.127.116.555.15.951.035.396.129.906.21 1.133.183.513.941 1.215 1.49 1.379.22.066.4.156.4.2 0 .304.335 1.927.505 2.45.301.93.533 1.34 1.082 1.92l.49.52-.178 1.52c-.135 1.146-.216 1.54-.331 1.6-.084.045-1.821.592-3.862 1.217-2.04.624-3.907 1.207-4.149 1.294-1.18.426-2.172 1.457-2.537 2.639-.167.54-.196.908-.196 2.442 0 1.683.014 1.833.216 2.19.118.212.37.482.56.6l.346.215h36.038l.354-.243c.686-.47.755-.721.755-2.762 0-1.534-.03-1.903-.197-2.443-.383-1.24-1.37-2.23-2.683-2.688-.322-.112-2.19-.694-4.15-1.293-1.96-.599-3.631-1.125-3.715-1.168-.114-.06-.196-.453-.33-1.6l-.179-1.52.49-.52c.27-.285.58-.691.686-.902.302-.594.677-1.87.803-2.733l.114-.783.461-.164c.547-.194 1.14-.748 1.384-1.291.097-.215.206-.742.242-1.17.037-.43.105-.88.151-1.001l.084-.221h12.217l.24-.24c.31-.31.311-.74.004-1.097l-.236-.274-5.762-.027-5.763-.026.154-.364c.21-.499.203-1.515-.015-2.164-.236-.7-.906-1.383-1.53-1.558l-.45-.126.13-.438c.46-1.526.668-3.475.523-4.902-.433-4.277-3.37-6.932-8.49-7.674-1.267-.184-4.32-.262-5.563-.143zm5.125 1.755c4.863.675 7.284 3.034 7.314 7.124.004.618-.029 1.255-.074 1.416-.08.282-.092.266-.351-.44-.877-2.388-2.36-4.1-3.554-4.1-.552 0-.849.166-1.594.888-1.163 1.128-2.427 1.553-4.62 1.553-2.195 0-3.458-.425-4.622-1.553-.745-.722-1.042-.888-1.594-.888-1.224 0-2.729 1.77-3.604 4.24-.262.74-.278.762-.362.489-.047-.158-.088-.836-.089-1.507-.002-1.417.193-2.31.761-3.492.412-.856 1.33-1.83 2.223-2.357 1.227-.725 3.16-1.278 5.14-1.469 1.118-.108 3.948-.054 5.026.096zm-7.828 6.819c1.072.737 2.41 1.163 3.996 1.27 2.998.201 5.308-.489 6.781-2.027l.424-.442.524.555c.337.356.684.879.969 1.46.656 1.34 1.333 3.707 1.333 4.664a.94.94 0 00.22.634c.239.277.54.32 1.36.193.408-.063.481-.045.707.18.321.322.34.994.05 1.77l-.203.541H13.786l-.202-.54c-.29-.777-.272-1.45.05-1.77.225-.226.298-.244.707-.182 1.236.19 1.373.063 1.669-1.553.433-2.36 1.29-4.452 2.214-5.407l.517-.534.42.432c.231.238.631.578.89.756zm15.408 10.504c.066.066-.154 1.64-.25 1.797-.115.185-.679.402-1.054.405-.57.006-.857.386-.858 1.138-.001.677-.164 1.58-.45 2.5-.232.745-.298.848-.953 1.484-.476.462-1.064.89-1.812 1.318-.77.442-1.367.88-1.965 1.44-.922.867-1.682 1.302-2.61 1.495-.435.09-.643.081-1.164-.05-.963-.241-1.561-.592-2.419-1.418a8.645 8.645 0 00-1.61-1.22c-1.878-1.06-2.784-1.906-3.12-2.916-.26-.784-.485-1.989-.49-2.632-.003-.512-.2-.986-.447-1.081a1.573 1.573 0 00-.446-.06c-.429 0-.953-.253-1.053-.508-.105-.27-.28-1.63-.217-1.694.06-.06 20.859-.057 20.918.002zM19.466 32.825c.386.223 1.056.744 1.491 1.16.964.918 2.03 1.486 3.237 1.723.743.147.868.147 1.61 0 1.204-.236 2.273-.805 3.237-1.721.66-.627 2.158-1.649 2.263-1.543.017.016.102.585.19 1.265.156 1.212.155 1.244-.041 1.688-.527 1.19-2.197 2.307-4.021 2.69-1.27.268-3.583.27-4.838.006-1.813-.381-3.42-1.428-3.995-2.6l-.256-.525.155-1.206c.086-.662.155-1.236.155-1.274 0-.118.093-.08.813.337zm-2.22 3.67c.653 1.117 2.105 2.292 3.448 2.79 1.306.484 2.527.675 4.305.675 2.424 0 4.111-.402 5.615-1.34.78-.486 1.738-1.438 2.14-2.128.228-.39.307-.456.481-.4.115.037 1.892.584 3.948 1.217 2.057.633 3.924 1.259 4.15 1.391.92.54 1.141 1.153 1.141 3.152v1.5H7.524v-1.5c0-2 .222-2.611 1.145-3.153.3-.177 7.76-2.581 8.242-2.658.036-.005.186.199.335.454zM.29 37.785l-.29.288.028 4.715.028 4.714.27.549c.318.648 1.064 1.38 1.71 1.679.45.208.568.213 5.174.241l4.714.029.29-.29c.42-.421.34-1.04-.165-1.27-.164-.074-1.62-.108-4.63-.108-3.512 0-4.455-.027-4.706-.135-.38-.162-.801-.596-.942-.97-.068-.18-.104-1.798-.104-4.657 0-3.003-.034-4.457-.109-4.62-.23-.505-.849-.586-1.269-.165zm48.469-.175c-.41.198-.426.383-.426 4.96 0 2.859-.037 4.478-.104 4.657-.142.374-.563.808-.943.97-.251.108-1.194.135-4.706.135-3.01 0-4.466.034-4.63.108-.505.23-.585.849-.164 1.27l.29.29 4.713-.029c4.606-.028 4.724-.033 5.174-.241.646-.299 1.393-1.031 1.71-1.679l.27-.55.03-4.712.028-4.714-.29-.29c-.3-.3-.587-.352-.952-.175z" fill="url(#paint0_linear_1710_5365)"/><defs><linearGradient id="paint0_linear_1710_5365" x1="0" y1="0" x2="51" y2="51.25" gradientUnits="userSpaceOnUse"><stop stop-color="#0ABD92"/><stop offset="1" stop-color="#009DB8"/></linearGradient></defs></svg>