<svg width="59" height="47" fill="none" xmlns="http://www.w3.org/2000/svg"><path fill-rule="evenodd" clip-rule="evenodd" d="M8.381.172C8.213.262 8.019.5 7.949.7 7.86.951 7.82 3.301 7.82 8.271v7.208l-.432-.22c-.8-.409-1.372-1.303-1.496-2.339-.087-.729-.428-1.116-.978-1.11-.624.005-1.014.451-1.016 1.163-.001.515-.462 1.446-.936 1.893-.468.441-1.019.684-1.785.785-.628.082-.862.213-1.064.59-.316.59.054 1.245.764 1.353.995.152 1.621.412 2.098.872.548.53.782 1.01.93 1.913.056.346.188.722.291.836.389.427 1.15.372 1.506-.109.073-.097.164-.454.204-.793.086-.728.307-1.2.803-1.725.319-.337.867-.707 1.048-.707.035 0 .063 6.312.063 14.026 0 9.97.037 14.132.128 14.39.264.753-1.304.702 21.551.702 22.855 0 21.287.051 21.551-.701.088-.25.128-2.454.128-7.054 0-3.679.028-6.689.063-6.689.181 0 .73.37 1.048.707.496.524.717.997.803 1.724.04.34.131.697.204.794.356.48 1.117.536 1.506.109.104-.114.235-.49.291-.836.277-1.69 1.158-2.5 3.028-2.785.71-.109 1.08-.764.764-1.354-.202-.377-.436-.507-1.064-.59-.766-.1-1.317-.343-1.785-.784-.474-.447-.935-1.378-.936-1.893-.002-.712-.392-1.158-1.016-1.164-.55-.005-.891.382-.978 1.11-.123 1.037-.696 1.93-1.496 2.339l-.432.22V15.608C51.179 5.26 51.142.958 51.05.7c-.264-.752 1.308-.702-21.574-.697C11.63.006 8.643.03 8.38.172zm30.46 1.858c0 .046-1.661 1.738-3.69 3.759-3.809 3.792-3.868 3.866-3.557 4.448.203.377.458.53.898.533.37.004.698-.294 4.846-4.41l4.45-4.413h1.467c.806 0 1.466.038 1.466.084 0 .047-2.983 3.053-6.63 6.68-5.896 5.865-6.63 6.635-6.63 6.95 0 .524.454.96 1 .96.424 0 .658-.22 7.826-7.344l7.39-7.342.742.034.742.035.03 18.435.028 18.435-.268-.31c-.207-.24-.419-.33-.937-.4-1.62-.219-2.498-1.135-2.777-2.9-.205-1.3-1.748-1.3-1.954 0-.278 1.76-1.157 2.681-2.763 2.898-.818.11-1.126.383-1.126.995 0 .52.424.964.923.965.933.002 2.034.629 2.504 1.425.162.276.346.829.409 1.229.13.83.472 1.243 1.03 1.243s.9-.413 1.03-1.243c.063-.4.247-.953.41-1.229.472-.802 1.57-1.423 2.518-1.425.207 0 .45-.125.666-.338l.339-.337-.031 2.773-.031 2.773-10.061.03c-5.534.015-10.061-.01-10.061-.057s1.637-1.715 3.64-3.706c3.173-3.157 3.64-3.665 3.649-3.978.021-.746-.615-1.223-1.27-.953-.176.072-2.264 2.064-4.64 4.426L26.1 45.05h-3.112l6.659-6.622c4.028-4.007 6.663-6.712 6.67-6.85.043-.728-.339-1.201-.968-1.201-.33 0-1.083.712-7.751 7.338l-7.385 7.338-5.186-.03-5.187-.03-.025-17.998c-.02-13.599.006-17.942.106-17.769.218.377.456.495 1.27.633.523.09.926.24 1.24.466.728.525 1.118 1.149 1.27 2.029.072.423.197.858.278.966.229.306.712.447 1.07.312.444-.168.584-.412.732-1.278.234-1.364 1.138-2.262 2.51-2.495.425-.072.863-.196.971-.277.308-.227.45-.708.315-1.063-.17-.441-.415-.58-1.286-.729-1.372-.232-2.276-1.13-2.51-2.494-.072-.423-.198-.858-.278-.966-.229-.306-.713-.447-1.07-.312-.444.168-.584.412-.733 1.278-.234 1.364-1.137 2.262-2.509 2.494-.814.139-1.052.257-1.27.634-.101.176-.132-.525-.135-3.048-.002-1.802.031-3.31.073-3.353.106-.104 28.982-.097 28.982.007zM15.26 8.368l.452.46-.487.484-.486.484-.487-.484-.486-.483.452-.46c.249-.254.483-.461.52-.461.039 0 .273.207.522.46zm-9.867 8.744l-.457.454-.503-.461-.503-.461.472-.47.472-.468.487.476.488.476-.456.454zm49.174 14.664l-.503.461-.455-.443-.455-.443.478-.487.477-.488.481.47.48.469-.503.461zm-9.812 6.946l.427.435-.461.448-.462.448-.461-.448-.462-.448.427-.435c.235-.24.458-.435.496-.435.038 0 .261.196.496.435z" fill="url(#paint0_linear_1710_5371)"/><defs><linearGradient id="paint0_linear_1710_5371" x1="0" y1="0" x2="46.676" y2="58.88" gradientUnits="userSpaceOnUse"><stop stop-color="#0ABD92"/><stop offset="1" stop-color="#009DB8"/></linearGradient></defs></svg>