<svg width="50" height="56" fill="none" xmlns="http://www.w3.org/2000/svg"><path fill-rule="evenodd" clip-rule="evenodd" d="M24.555.195C24.3.401 24.3.404 24.3 2.897c0 2.492 0 2.495.255 2.7.34.276.681.26.966-.042.226-.241.235-.333.235-2.673 0-2.395-.003-2.427-.25-2.658-.308-.289-.618-.298-.951-.029zM7.39 7.258c-.26.26-.307.559-.138.882.086.166.884 1.016 1.772 1.89 1.25 1.23 1.678 1.588 1.896 1.588.388 0 .713-.355.713-.777 0-.303-.21-.556-1.701-2.046-1.476-1.473-1.747-1.7-2.04-1.7-.187 0-.413.074-.502.163zm32.734 1.591c-1.877 1.874-2.006 2.088-1.54 2.554.47.469.688.338 2.562-1.536 1.883-1.883 1.995-2.073 1.5-2.537-.482-.453-.647-.354-2.522 1.52zm-16.678.414c-2.68.257-5.435 1.313-7.725 2.96-1.027.739-2.598 2.307-3.437 3.432-1.22 1.635-2.278 4.016-2.753 6.191-.243 1.117-.33 3.817-.165 5.135.287 2.283 1.213 4.727 2.56 6.755.874 1.317 2.726 3.215 3.992 4.093l.89.616v1.87c0 1.029.053 2.117.118 2.419.136.636.632 1.34 1.207 1.714l.4.26v2.109c.001 1.16.052 2.422.115 2.805.608 3.746 4.282 6.207 7.887 5.286 1.93-.492 3.44-1.695 4.273-3.401.578-1.184.68-1.87.667-4.432l-.012-2.282.383-.182c.553-.262 1.213-1.06 1.402-1.697.118-.397.162-1.082.162-2.559V38.34l.701-.5c2.863-2.04 4.9-4.825 5.97-8.162.545-1.701.706-2.812.7-4.816-.008-1.959-.208-3.209-.798-4.974-1.315-3.934-4.391-7.378-8.195-9.174-1.777-.839-3.274-1.245-5.37-1.458-1.243-.126-1.582-.125-2.972.008zm3.694 1.555c6.321.938 11.189 5.89 12.1 12.312.171 1.203.064 3.655-.212 4.854a15.404 15.404 0 01-2.2 5.06c-.722 1.079-2.71 3.04-3.867 3.815-.538.36-.96.723-.996.855-.034.126-.063 1.247-.064 2.49-.001 2.077-.02 2.29-.219 2.617-.409.67-.378.667-6.573.667-6.196 0-6.165.003-6.573-.666-.2-.328-.218-.54-.218-2.636 0-1.254-.03-2.354-.065-2.445-.035-.091-.556-.491-1.158-.89-3.152-2.083-5.439-5.555-6.175-9.377-.248-1.29-.248-3.749.002-5.032.555-2.85 1.78-5.258 3.708-7.285 3.288-3.456 7.832-5.032 12.51-4.339zm-2.61 2.075c-.25.278-.261.713-.025.974.136.15.462.225 1.388.319 2.747.278 4.921 1.283 6.77 3.13 1.926 1.923 2.97 4.241 3.188 7.072.063.809.102.939.346 1.13.312.245.73.203.97-.097.209-.264.095-2.32-.189-3.396-.592-2.244-1.572-3.971-3.191-5.624-2.204-2.25-4.924-3.51-7.924-3.672-1.054-.057-1.145-.046-1.334.164zM.21 24.45c-.279.299-.28.672-.004.949.203.203.36.215 2.743.215 2.49 0 2.53-.004 2.695-.24.23-.326.21-.686-.048-.945-.203-.202-.359-.215-2.69-.215-2.408 0-2.482.007-2.696.236zm44.271-.018c-.367.288-.385.733-.042 1.055.241.226.334.235 2.647.235h2.396l.265-.265c.318-.317.335-.593.059-.935-.204-.251-.232-.254-2.62-.287-2.323-.03-2.425-.023-2.705.197zM30.068 46.449v1.454H20.042v-2.908h10.026v1.454zm-.162 3.31c-.126.618-.657 1.627-1.143 2.173-1.905 2.14-5.228 2.254-7.237.247-.632-.631-1.228-1.685-1.34-2.368l-.064-.401h9.855l-.071.35z" fill="url(#paint0_linear_1710_5374)"/><defs><linearGradient id="paint0_linear_1710_5374" x1="0" y1="0" x2="55.966" y2="51.033" gradientUnits="userSpaceOnUse"><stop stop-color="#0ABD92"/><stop offset="1" stop-color="#009DB8"/></linearGradient></defs></svg>