<svg width="50" height="50" fill="none" xmlns="http://www.w3.org/2000/svg"><path fill-rule="evenodd" clip-rule="evenodd" d="M1.47.171C1 .376.365 1.021.166 1.496c-.125.3-.159 1.427-.159 5.322v4.941l.343.343c.507.507 1.181.485 1.722-.056l.4-.399V2.471h9.175l.399-.399c.541-.54.563-1.215.056-1.722l-.343-.343-4.967.005c-3.85.003-5.046.04-5.322.16zm36.432.175c-.511.511-.49 1.183.052 1.726l.399.4h9.176v9.175l.399.399c.543.543 1.215.563 1.726.052l.346-.346-.033-5.09-.033-5.091-.32-.46a3.515 3.515 0 00-.755-.752l-.433-.293-5.089-.033L38.248 0l-.346.346zM4.105 4.105c-.272.272-.343.447-.343.844 0 .495.032.534 2.227 2.738l2.227 2.235h.54c.462 0 .59-.055.882-.383.383-.428.443-.905.177-1.412-.091-.174-1.087-1.228-2.214-2.341L5.553 3.762h-.552c-.455 0-.614.061-.896.343zm38.209 1.884c-2.233 2.224-2.236 2.228-2.236 2.748 0 .389.071.597.283.822.31.331.894.49 1.32.36.327-.1 4.15-3.848 4.39-4.303.468-.89-.063-1.854-1.02-1.854-.495 0-.534.032-2.738 2.227zM10.73 10.096c-.384.155-.75.699-.75 1.115 0 .616 1.294 2.118 2.083 2.418.922.35 1.865-.519 1.62-1.494-.09-.359-1.38-1.747-1.848-1.99a1.282 1.282 0 00-1.105-.05zm27.588-.006c-.13.057-.63.507-1.115.998-.826.839-.88.925-.88 1.41 0 .893.865 1.467 1.694 1.123.419-.173 1.818-1.602 1.938-1.978.13-.411-.022-1.005-.331-1.296-.309-.29-.951-.416-1.306-.257zm-15.489 2.194c-4.936.742-10.197 3.066-14.765 6.523-1.273.963-3.556 3.254-4.157 4.17-.972 1.485-1.168 2.518-.694 3.668.451 1.098 1.123 1.993 2.596 3.46 3.324 3.308 8.58 6.348 13.385 7.74 2.415.7 3.233.815 5.806.815 2.04 0 2.585-.039 3.59-.257 2.72-.592 4.731-1.304 7.381-2.611 3.342-1.65 5.967-3.46 8.161-5.63 1.936-1.913 2.918-3.478 2.925-4.659.02-3.607-8.622-10.244-16.16-12.41-2.235-.643-3.132-.777-5.486-.82-1.227-.024-2.388-.018-2.582.01zm4.169 2.51c3.796.458 8.297 2.33 12.24 5.09 3.22 2.253 5.546 4.794 5.304 5.794-.485 2.003-5.897 6.29-10.616 8.412-6.712 3.016-12.195 2.85-19.017-.576-3.869-1.943-7.659-4.889-9.067-7.047-.459-.704-.5-1.027-.21-1.627 1.07-2.21 5.962-5.971 10.325-7.94 4.09-1.843 7.624-2.518 11.04-2.106zm-3.551 1.87c-4.428.81-7.597 4.822-7.325 9.275.084 1.371.31 2.243.9 3.461 1.095 2.26 3.257 4.033 5.749 4.712 1.054.287 3.407.287 4.458-.001 2.512-.688 4.619-2.415 5.745-4.71.592-1.209.82-2.08.904-3.462.25-4.102-2.332-7.772-6.355-9.03-.92-.289-3.115-.42-4.076-.244zm2.609 2.476c.437.07 1.18.324 1.741.594 3.943 1.901 4.823 7.15 1.72 10.253-1.221 1.222-2.764 1.855-4.517 1.855-2.896 0-5.335-1.845-6.172-4.671-.279-.942-.276-2.596.006-3.462.6-1.842 1.742-3.19 3.371-3.978 1.363-.66 2.417-.821 3.851-.591zm-1.719.923a1.264 1.264 0 00-.509.649c-.121.368-.108.488.102.912.133.269.23.495.216.502-.014.007-.25.098-.525.202-.481.183-.498.181-.498-.042 0-.642-.584-1.158-1.308-1.158-.537 0-1.157.66-1.157 1.232 0 .538.622 1.232 1.104 1.232.3 0 .408.157.196.288-.06.037-.143.225-.185.417-.09.407-.136.423-.44.148-.131-.118-.412-.202-.679-.202-1.15 0-1.69 1.303-.876 2.117.34.34 1.146.389 1.566.095.148-.104.28-.17.294-.147.071.117.429.937.429.984 0 .03-.146.056-.323.057-.955.008-1.418 1.265-.743 2.02.294.329.42.383.89.383.47 0 .595-.054.89-.383.188-.21.342-.514.342-.675 0-.16.024-.291.054-.291.052 0 .89.368.991.436.027.017-.032.124-.13.238-.643.739-.032 2.024.962 2.024s1.605-1.285.963-2.024c-.099-.114-.158-.22-.131-.238.101-.068.939-.436.99-.436.03 0 .055.131.055.291 0 .16.155.464.343.675.294.329.42.383.89.383.47 0 .595-.054.89-.383.702-.787.191-2.022-.837-2.022-.126 0-.23-.025-.23-.055 0-.047.358-.867.43-.984.013-.023.145.043.293.147.354.248 1.146.237 1.464-.02.587-.476.676-1.222.212-1.774-.412-.489-.973-.585-1.523-.26-.23.136-.439.247-.462.247-.024 0-.078-.158-.12-.35-.042-.193-.126-.381-.185-.418-.212-.13-.104-.288.196-.288.482 0 1.104-.694 1.104-1.232 0-.581-.62-1.232-1.173-1.232-.689 0-1.292.546-1.292 1.17 0 .21-.022.21-.498.03-.274-.104-.51-.195-.525-.202-.014-.008.083-.233.216-.502.21-.424.223-.544.102-.912-.155-.469-.698-.874-1.172-.874-.161 0-.46.101-.663.225zm1.314 4.756c.468.467.373 1.126-.204 1.425-.67.346-1.386-.07-1.386-.806 0-.45.473-.907.939-.907.229 0 .47.106.65.288zm-13.98 11.78c-.662.482-1.55 1.473-1.64 1.826-.243.969.704 1.837 1.622 1.488.397-.15 1.303-.972 1.75-1.583.469-.645.449-1.151-.066-1.667-.516-.515-1.022-.535-1.666-.064zm25.415-.252c-.563.206-.946.984-.765 1.553.107.339 1.277 1.584 1.778 1.895.753.465 1.714.054 1.874-.8.095-.503-.05-.826-.685-1.517-.943-1.03-1.582-1.357-2.202-1.13zM.346 37.902L0 38.248l.033 5.09.033 5.091.32.46c.177.252.516.59.755.752l.433.293 5.089.033 5.089.033.346-.346c.511-.511.49-1.184-.052-1.726l-.399-.4H2.471v-9.175l-.399-.399c-.543-.543-1.215-.563-1.726-.052zm47.819-.213c-.134.066-.332.268-.44.45-.174.295-.196.841-.196 4.861v4.529H43c-4.015 0-4.566.022-4.86.195-.68.403-.8 1.368-.238 1.93l.346.346 5.09-.033 5.088-.033.433-.293c.239-.161.578-.5.754-.753l.321-.459.033-5.09.033-5.09-.346-.347c-.269-.268-.449-.345-.796-.339-.247.004-.559.061-.693.126zM8.279 40.128c-.129.057-1.198 1.076-2.376 2.264-2.104 2.122-2.141 2.168-2.141 2.66 0 .956.965 1.487 1.854 1.02.456-.24 4.204-4.064 4.303-4.391.127-.414-.026-1.006-.334-1.296-.308-.289-.95-.416-1.306-.257zm32.49.006c-.385.155-.75.699-.75 1.115 0 .233.13.553.34.835.395.532 3.57 3.678 3.998 3.962.528.35 1.477.14 1.76-.388.172-.32.15-.903-.047-1.274-.201-.38-3.887-4.05-4.254-4.235-.298-.151-.696-.157-1.047-.015z" fill="url(#paint0_linear_1710_5368)"/><defs><linearGradient id="paint0_linear_1710_5368" x1="0" y1="0" x2="51" y2="51.25" gradientUnits="userSpaceOnUse"><stop stop-color="#0ABD92"/><stop offset="1" stop-color="#009DB8"/></linearGradient></defs></svg>