<svg width="29" height="34" fill="none" xmlns="http://www.w3.org/2000/svg"><path opacity=".6" fill-rule="evenodd" clip-rule="evenodd" d="M4.312.077c-.818.208-1.6.874-1.958 1.668l-.194.432H.265l-.133.175L0 2.527v31.147l.157.163.157.163h16.963l3.083-3.206 3.083-3.207V2.503l-.157-.163-.157-.163H7.865l-.212-.448c-.247-.524-.77-1.097-1.24-1.36C5.79.02 4.977-.091 4.311.077zm1.47 1.18c.337.162.673.456.817.714l.115.206H5.018c-.933 0-1.696-.024-1.696-.054 0-.118.472-.62.733-.779a1.871 1.871 0 011.728-.087zm18.886 1.074c-.203.224-.189.593.029.772a.621.621 0 00.32.137h.15v29.697h-5.754l-.157.163c-.255.265-.19.638.142.823.101.055 1.02.077 3.302.077h3.163l.18-.16.178-.16.019-15.403c.01-8.471.001-15.5-.02-15.618-.066-.387-.235-.482-.862-.482-.494 0-.566.016-.69.154zm2.82-.055c-.397.289-.142.964.365.964.124 0 .125.164.125 14.849v14.848h-.177c-.374 0-.606.368-.461.732.1.25.31.331.867.331.424 0 .498-.019.636-.163l.157-.163V2.527l-.132-.175c-.125-.165-.164-.175-.689-.175-.387 0-.597.03-.69.099zM6.898 5.272c0 2.283 0 2.282-.463 2.553-.407.238-.874.093-1.136-.354-.112-.19-.125-.34-.125-1.476 0-1.052-.017-1.29-.102-1.416-.141-.21-.363-.286-.59-.204-.318.115-.34.235-.318 1.79.019 1.353.028 1.442.173 1.738.59 1.199 2.091 1.486 3.004.574.152-.152.352-.443.444-.648l.168-.371.021-2.11.021-2.109h14.426v23.58l-2.777.02-2.777.018-.146.151-.145.152-.018 2.888-.018 2.888H1.022V3.24h5.877v2.033zm-2.47 5.686c-.213.107-.31.407-.211.655.044.11.132.23.195.265.072.04 2.826.064 7.321.062 5.811-.001 7.228-.019 7.316-.088a.548.548 0 00-.024-.866c-.132-.096-.84-.106-7.302-.102-4.873.003-7.2.027-7.295.074zm0 3.256c-.213.107-.31.407-.211.654.044.111.132.23.195.266.072.04 2.826.063 7.321.062 5.811-.002 7.228-.02 7.316-.089a.548.548 0 00-.024-.866c-.132-.096-.84-.106-7.302-.102-4.873.003-7.2.027-7.295.075zm0 3.255c-.213.107-.31.407-.211.654.044.111.132.231.195.266.158.088 14.463.087 14.62-.001.162-.09.268-.432.196-.628-.143-.393.317-.37-7.505-.365-4.873.003-7.2.026-7.295.074zm0 3.255c-.213.107-.31.407-.211.655.044.11.132.23.195.265.158.088 14.463.087 14.62 0 .162-.09.268-.433.196-.629-.143-.392.317-.37-7.505-.365-4.873.003-7.2.027-7.295.074zm-.09 3.371c-.102.107-.186.243-.186.302 0 .164.174.479.29.526.179.07 14.462.047 14.59-.024.162-.09.268-.432.196-.629-.143-.392.317-.37-7.526-.37H4.525l-.186.195zM21.59 27.97c0 .01-.89.944-1.98 2.076l-1.98 2.059v-4.152h1.98c1.09 0 1.98.008 1.98.017z" fill="#fff"/></svg>