<svg width="17" height="14" fill="none" xmlns="http://www.w3.org/2000/svg"><path d="M6.67 8.963l-.28 3.797c.402 0 .576-.165.785-.365l1.886-1.73 3.909 2.748c.717.383 1.222.181 1.415-.633l2.566-11.541v-.001C17.18.22 16.569-.177 15.87.072L.79 5.615c-1.03.384-1.014.934-.176 1.184L4.47 7.95l8.956-5.38c.421-.267.804-.119.489.149L6.671 8.963z" fill="url(#paint0_linear_1924_8245)"/><path d="M6.67 8.963l-.28 3.797c.402 0 .576-.165.785-.365l1.886-1.73 3.909 2.748c.717.383 1.222.181 1.415-.633l2.566-11.541v-.001C17.18.22 16.569-.177 15.87.072L.79 5.615c-1.03.384-1.014.934-.176 1.184L4.47 7.95l8.956-5.38c.421-.267.804-.119.489.149L6.671 8.963z" fill="#fff"/><defs><linearGradient id="paint0_linear_1924_8245" x1="0" y1="0" x2="13.519" y2="16.982" gradientUnits="userSpaceOnUse"><stop stop-color="#0ABD92"/><stop offset="1" stop-color="#009DB8"/></linearGradient></defs></svg>