<svg width="17" height="19" fill="none" xmlns="http://www.w3.org/2000/svg"><path fill-rule="evenodd" clip-rule="evenodd" d="M7.135.022c-2.022.176-3.62.65-4.769 1.414C1.151 2.244.398 3.741.12 5.898-.032 7.076-.04 9.328.101 10.4c.368 2.774 1.575 4.465 3.708 5.195l.299.103v1.05c0 .837.011 1.09.055 1.238.098.329.323.515.623.514.318 0 .646-.3 1.69-1.535l.578-.686 1.4-.003c1.49-.003 1.866-.03 2.958-.218.584-.1 1.678-.39 2.103-.558 1.585-.626 2.66-1.908 3.111-3.708.326-1.301.465-3.681.31-5.316-.2-2.13-.789-3.65-1.787-4.619C14.216.95 12.585.355 10.252.071 9.735.008 7.671-.024 7.135.022zm3.027 1.354c2.05.255 3.532.806 4.203 1.562.662.747 1.066 1.854 1.258 3.448.078.645.088 2.464.019 3.255-.118 1.343-.284 2.022-.676 2.776a3.87 3.87 0 01-1.929 1.78c-.341.142-1.341.407-1.97.521-.902.165-1.47.213-2.627.224l-1.088.01-.378.463c-.58.712-1.753 2.107-1.933 2.299-.11.117-.19.172-.252.172-.193 0-.192.011-.192-1.762v-1.642l-.217-.073a4.274 4.274 0 01-1.634-.989c-.753-.745-1.167-1.677-1.382-3.11-.095-.63-.094-3.192 0-3.957.128-1.032.307-1.691.643-2.372.44-.893.963-1.409 1.865-1.844.845-.407 2.009-.692 3.317-.813.52-.048 2.438-.015 2.973.052zm-1.934 1.99c-.043.043-.06.106-.053.194.014.166.116.22.412.222.121 0 .374.026.561.059 1.295.221 2.32.961 2.909 2.1.316.61.476 1.229.532 2.053.035.508.06.562.256.562.147 0 .217-.103.217-.321 0-.288-.07-.853-.151-1.232-.46-2.131-2.095-3.563-4.2-3.678-.371-.02-.426-.016-.483.04zm-3.082.507c-.396.1-1.06.693-1.27 1.135a.924.924 0 00-.113.492c0 .238.02.296.32.994.579 1.34 1.16 2.355 1.823 3.183.494.616 1.29 1.35 2.008 1.852.698.489 1.872 1.138 2.574 1.424.525.213.769.23 1.1.071.47-.225 1.082-.963 1.162-1.403.042-.232-.029-.394-.278-.635a8.458 8.458 0 00-1.525-1.128c-.162-.091-.255-.12-.399-.12-.298-.002-.421.074-.709.438-.262.332-.291.355-.51.407-.222.053-.831-.19-1.358-.54-.676-.45-1.329-1.32-1.672-2.23-.16-.426-.104-.592.328-.955.356-.299.435-.45.41-.787-.012-.176-.049-.268-.226-.571a8.477 8.477 0 00-.827-1.184c-.368-.456-.503-.528-.838-.443zm3.502.688c-.095.066-.112.27-.03.352.028.028.191.07.363.094 1.468.205 2.318 1.124 2.432 2.627.026.351.076.452.222.452a.263.263 0 00.158-.073c.09-.09.098-.423.018-.878-.222-1.273-1.069-2.19-2.307-2.5-.49-.122-.754-.145-.856-.074zm.317 1.282A.26.26 0 008.893 6c0 .153.079.21.366.259.604.105.895.414.973 1.033.035.281.106.397.243.397.119 0 .23-.123.23-.255 0-.198-.112-.66-.205-.842-.122-.24-.39-.518-.6-.625a2.202 2.202 0 00-.744-.194.285.285 0 00-.19.071z" fill="url(#paint0_linear_1924_8248)"/><path fill-rule="evenodd" clip-rule="evenodd" d="M7.135.022c-2.022.176-3.62.65-4.769 1.414C1.151 2.244.398 3.741.12 5.898-.032 7.076-.04 9.328.101 10.4c.368 2.774 1.575 4.465 3.708 5.195l.299.103v1.05c0 .837.011 1.09.055 1.238.098.329.323.515.623.514.318 0 .646-.3 1.69-1.535l.578-.686 1.4-.003c1.49-.003 1.866-.03 2.958-.218.584-.1 1.678-.39 2.103-.558 1.585-.626 2.66-1.908 3.111-3.708.326-1.301.465-3.681.31-5.316-.2-2.13-.789-3.65-1.787-4.619C14.216.95 12.585.355 10.252.071 9.735.008 7.671-.024 7.135.022zm3.027 1.354c2.05.255 3.532.806 4.203 1.562.662.747 1.066 1.854 1.258 3.448.078.645.088 2.464.019 3.255-.118 1.343-.284 2.022-.676 2.776a3.87 3.87 0 01-1.929 1.78c-.341.142-1.341.407-1.97.521-.902.165-1.47.213-2.627.224l-1.088.01-.378.463c-.58.712-1.753 2.107-1.933 2.299-.11.117-.19.172-.252.172-.193 0-.192.011-.192-1.762v-1.642l-.217-.073a4.274 4.274 0 01-1.634-.989c-.753-.745-1.167-1.677-1.382-3.11-.095-.63-.094-3.192 0-3.957.128-1.032.307-1.691.643-2.372.44-.893.963-1.409 1.865-1.844.845-.407 2.009-.692 3.317-.813.52-.048 2.438-.015 2.973.052zm-1.934 1.99c-.043.043-.06.106-.053.194.014.166.116.22.412.222.121 0 .374.026.561.059 1.295.221 2.32.961 2.909 2.1.316.61.476 1.229.532 2.053.035.508.06.562.256.562.147 0 .217-.103.217-.321 0-.288-.07-.853-.151-1.232-.46-2.131-2.095-3.563-4.2-3.678-.371-.02-.426-.016-.483.04zm-3.082.507c-.396.1-1.06.693-1.27 1.135a.924.924 0 00-.113.492c0 .238.02.296.32.994.579 1.34 1.16 2.355 1.823 3.183.494.616 1.29 1.35 2.008 1.852.698.489 1.872 1.138 2.574 1.424.525.213.769.23 1.1.071.47-.225 1.082-.963 1.162-1.403.042-.232-.029-.394-.278-.635a8.458 8.458 0 00-1.525-1.128c-.162-.091-.255-.12-.399-.12-.298-.002-.421.074-.709.438-.262.332-.291.355-.51.407-.222.053-.831-.19-1.358-.54-.676-.45-1.329-1.32-1.672-2.23-.16-.426-.104-.592.328-.955.356-.299.435-.45.41-.787-.012-.176-.049-.268-.226-.571a8.477 8.477 0 00-.827-1.184c-.368-.456-.503-.528-.838-.443zm3.502.688c-.095.066-.112.27-.03.352.028.028.191.07.363.094 1.468.205 2.318 1.124 2.432 2.627.026.351.076.452.222.452a.263.263 0 00.158-.073c.09-.09.098-.423.018-.878-.222-1.273-1.069-2.19-2.307-2.5-.49-.122-.754-.145-.856-.074zm.317 1.282A.26.26 0 008.893 6c0 .153.079.21.366.259.604.105.895.414.973 1.033.035.281.106.397.243.397.119 0 .23-.123.23-.255 0-.198-.112-.66-.205-.842-.122-.24-.39-.518-.6-.625a2.202 2.202 0 00-.744-.194.285.285 0 00-.19.071z" fill="#fff"/><defs><linearGradient id="paint0_linear_1924_8248" x1="0" y1="0" x2="18.811" y2="17.37" gradientUnits="userSpaceOnUse"><stop stop-color="#0ABD92"/><stop offset="1" stop-color="#009DB8"/></linearGradient></defs></svg>