<svg width="17" height="17" fill="none" xmlns="http://www.w3.org/2000/svg"><path d="M12.4 10.134l-.006.053c-1.557-.776-1.72-.88-1.921-.578-.14.21-.546.683-.669.823-.124.139-.247.15-.458.054-.212-.107-.894-.33-1.702-1.052-.629-.563-1.05-1.254-1.176-1.466-.207-.359.227-.41.622-1.158.071-.149.035-.266-.017-.371-.053-.106-.476-1.148-.653-1.563-.17-.413-.345-.36-.476-.36-.408-.036-.707-.03-.97.243-1.143 1.256-.854 2.553.124 3.931 1.922 2.516 2.947 2.98 4.82 3.622.505.161.966.139 1.331.086.407-.064 1.252-.51 1.428-1.01.18-.5.18-.914.128-1.01-.053-.095-.192-.148-.404-.244z" fill="url(#paint0_linear_1924_8242)"/><path d="M12.4 10.134l-.006.053c-1.557-.776-1.72-.88-1.921-.578-.14.21-.546.683-.669.823-.124.139-.247.15-.458.054-.212-.107-.894-.33-1.702-1.052-.629-.563-1.05-1.254-1.176-1.466-.207-.359.227-.41.622-1.158.071-.149.035-.266-.017-.371-.053-.106-.476-1.148-.653-1.563-.17-.413-.345-.36-.476-.36-.408-.036-.707-.03-.97.243-1.143 1.256-.854 2.553.124 3.931 1.922 2.516 2.947 2.98 4.82 3.622.505.161.966.139 1.331.086.407-.064 1.252-.51 1.428-1.01.18-.5.18-.914.128-1.01-.053-.095-.192-.148-.404-.244z" fill="#fff"/><path d="M14.535 2.443C9.089-2.822.075.997.072 8.424a8.37 8.37 0 001.13 4.211L0 17l4.487-1.17c5.6 3.024 12.51-.992 12.513-7.401 0-2.25-.878-4.367-2.476-5.958l.011-.028zm1.05 5.962c-.005 5.407-5.94 8.783-10.634 6.024l-.255-.152-2.656.69.712-2.581-.17-.266c-2.92-4.65.436-10.727 5.969-10.727 1.88 0 3.644.733 4.973 2.061a6.933 6.933 0 012.06 4.951z" fill="url(#paint1_linear_1924_8242)"/><path d="M14.535 2.443C9.089-2.822.075.997.072 8.424a8.37 8.37 0 001.13 4.211L0 17l4.487-1.17c5.6 3.024 12.51-.992 12.513-7.401 0-2.25-.878-4.367-2.476-5.958l.011-.028zm1.05 5.962c-.005 5.407-5.94 8.783-10.634 6.024l-.255-.152-2.656.69.712-2.581-.17-.266c-2.92-4.65.436-10.727 5.969-10.727 1.88 0 3.644.733 4.973 2.061a6.933 6.933 0 012.06 4.951z" fill="#fff"/><defs><linearGradient id="paint0_linear_1924_8242" x1="0" y1="0" x2="17.34" y2="17.425" gradientUnits="userSpaceOnUse"><stop stop-color="#0ABD92"/><stop offset="1" stop-color="#009DB8"/></linearGradient><linearGradient id="paint1_linear_1924_8242" x1="0" y1="0" x2="17.34" y2="17.425" gradientUnits="userSpaceOnUse"><stop stop-color="#0ABD92"/><stop offset="1" stop-color="#009DB8"/></linearGradient></defs></svg>