<svg width="46" height="57" fill="none" xmlns="http://www.w3.org/2000/svg"><path fill-rule="evenodd" clip-rule="evenodd" d="M24.693 56.063v-10.02h1.073v10.02h-1.073zm-3.579 0v-10.02H20.04v10.02h1.074z" fill="url(#paint0_linear_1849_3660)"/><path fill-rule="evenodd" clip-rule="evenodd" d="M22.904 45.682c12.054 0 21.826-9.772 21.826-21.827 0-12.054-9.772-21.826-21.826-21.826-12.055 0-21.827 9.772-21.827 21.826 0 12.055 9.772 21.827 21.827 21.827zm0 1.077c12.649 0 22.903-10.255 22.903-22.904 0-12.65-10.254-22.903-22.904-22.903C10.255.952 0 11.206 0 23.855 0 36.505 10.254 46.76 22.904 46.76z" fill="url(#paint1_linear_1849_3660)"/><path d="M16.964 33c-1.08 0-2.034-.192-2.862-.575-.823-.387-1.465-.92-1.926-1.595-.461-.682-.689-1.457-.684-2.327a4.28 4.28 0 01.401-1.887 4.11 4.11 0 011.116-1.455 3.42 3.42 0 011.596-.747v-.094a3.108 3.108 0 01-1.84-1.297c-.455-.67-.68-1.433-.675-2.288-.005-.817.201-1.549.62-2.193.42-.645.997-1.153 1.73-1.525.74-.372 1.58-.558 2.524-.558.933 0 1.766.186 2.5.558.734.372 1.31.88 1.73 1.525.424.644.639 1.376.644 2.193-.005.855-.238 1.617-.7 2.288-.456.666-1.06 1.098-1.816 1.297v.095a3.317 3.317 0 011.573.746c.466.388.838.873 1.116 1.455a4.37 4.37 0 01.425 1.887c-.006.87-.241 1.645-.708 2.327-.461.676-1.103 1.208-1.926 1.596-.818.382-1.764.573-2.838.573zm0-1.73c.728 0 1.357-.118 1.887-.354.529-.236.938-.569 1.226-.998.288-.43.435-.933.44-1.51-.005-.608-.162-1.145-.471-1.611a3.201 3.201 0 00-1.266-1.101c-.53-.267-1.135-.401-1.816-.401-.687 0-1.3.134-1.84.4a3.2 3.2 0 00-1.265 1.102c-.304.466-.454 1.003-.448 1.611-.006.577.133 1.08.416 1.51.288.43.7.762 1.234.998.535.236 1.17.354 1.903.354zm0-7.642c.576 0 1.087-.115 1.533-.346a2.63 2.63 0 001.061-.967c.257-.414.388-.898.393-1.454-.005-.545-.133-1.02-.385-1.423a2.498 2.498 0 00-1.046-.943c-.445-.226-.964-.338-1.556-.338-.603 0-1.13.112-1.58.338-.451.22-.8.534-1.046.943-.246.404-.367.878-.361 1.423-.006.556.117 1.04.369 1.454.257.415.61.737 1.061.967.451.231.97.346 1.557.346zM30.7 33c-1.184 0-2.193-.323-3.027-.968-.833-.65-1.47-1.59-1.91-2.822-.44-1.237-.66-2.73-.66-4.481 0-1.74.22-3.226.66-4.458.445-1.236 1.085-2.18 1.918-2.83.839-.655 1.845-.982 3.02-.982 1.173 0 2.177.327 3.01.982.839.65 1.478 1.594 1.918 2.83.446 1.232.669 2.718.669 4.458 0 1.75-.22 3.244-.66 4.481-.441 1.232-1.078 2.172-1.911 2.822-.833.645-1.842.967-3.027.967zm0-1.73c1.174 0 2.086-.566 2.736-1.698.65-1.132.975-2.747.975-4.843 0-1.394-.15-2.581-.448-3.561-.294-.98-.718-1.727-1.274-2.241-.55-.514-1.213-.77-1.989-.77-1.163 0-2.073.573-2.728 1.721-.655 1.143-.983 2.76-.983 4.85 0 1.395.147 2.58.44 3.554.294.975.716 1.717 1.266 2.225.556.509 1.224.763 2.005.763z" fill="#06B0A1"/><defs><linearGradient id="paint0_linear_1849_3660" x1="20.04" y1="46.043" x2="28.868" y2="51.112" gradientUnits="userSpaceOnUse"><stop stop-color="#0ABD92"/><stop offset="1" stop-color="#009DB8"/></linearGradient><linearGradient id="paint1_linear_1849_3660" x1="0" y1=".952" x2="46.723" y2="47.904" gradientUnits="userSpaceOnUse"><stop stop-color="#0ABD92"/><stop offset="1" stop-color="#009DB8"/></linearGradient></defs></svg>