<svg width="49" height="49" fill="none" xmlns="http://www.w3.org/2000/svg"><mask id="a" fill="#fff"><path fill-rule="evenodd" clip-rule="evenodd" d="M8.974.372c-.755.47-.902.839-.902 2.268 0 .924.032 1.17.198 1.512.296.613.653.821 1.507.882l.716.051.048 14.482.047 14.482.222.311c.122.17.387.395.59.499.354.18.576.187 5.832.187h5.464v1.814c0 1.485.028 1.873.155 2.142.198.417.679.786 1.118.857l.34.055v1.59H12.803c-11.49 0-11.508 0-11.919.199-.274.133-.49.333-.647.602-.231.394-.236.443-.236 2.406 0 1.189.041 2.112.101 2.27.144.381.457.693.896.896.365.168 1.04.175 16.815.177l16.436.002.23.25c.39.424.736.51 2.036.51.857 0 1.27-.039 1.46-.138.445-.23.846-.763.912-1.211.032-.224.046-1.586.03-3.026l-.03-2.62-.252-.38c-.359-.542-.802-.725-1.875-.775-1.184-.054-1.82.091-2.242.513-.322.322-.333.325-1.183.325h-.858v-.807c0-.75.014-.808.195-.808.5 0 1.15-.596 1.32-1.213.055-.195.099-1.09.1-1.992v-1.638h6.223c5.04 0 6.282-.024 6.533-.13.395-.164.788-.63.914-1.083.06-.218.098-1.912.098-4.407.001-3.952.006-4.055.189-4.113.28-.089.572-.511.572-.828 0-.182-.097-.376-.278-.557-.268-.268-.308-.277-1.187-.277h-.91V5.038h.623c.732 0 1.068-.148 1.438-.633.259-.34.267-.386.292-1.686.025-1.247.011-1.363-.192-1.715a1.884 1.884 0 00-.595-.592l-.378-.214L28.346.196C9.89.196 9.249.201 8.974.372zm38.031 2.244v.807H9.782V1.81h37.224v.807zM16.161 7.293c.033 2.52.058 2.631.71 3.129l.35.266 4.54.026c4.385.026 4.553.02 4.913-.164.206-.104.474-.33.595-.5.215-.301.224-.39.27-2.638l.047-2.327 8.475-.024 8.475-.024V23.65h-4.088c-4.489 0-4.508.002-4.74.565-.166.399.017.826.44 1.028l.317.151v8.038h-24.31v-1.615h22.111l.292-.245c.313-.263.384-.64.19-1.003-.252-.472.028-.46-11.67-.46H12.155V5.037h3.976l.03 2.255zm3.322-1.6c-.046.816.079 1.204.56 1.75.51.581 1.086.847 1.829.847.7 0 1.145-.17 1.656-.632.561-.507.816-1.171.758-1.976l-.046-.644h1.684V9.12h-8.071V5.038h1.668l-.038.656zm3.097-.155c.067.138.094.36.06.494-.07.28-.46.62-.713.62a.866.866 0 01-.846-.846c0-.249.348-.655.596-.696.33-.056.769.152.903.428zm-5.466 8.584a1.744 1.744 0 00-.879 1.088c-.066.244-.092 1.328-.073 3.01.025 2.294.05 2.668.196 2.935.265.486.642.773 1.159.884.332.072 3.749.094 11.168.074l10.69-.03.404-.267c.731-.483.765-.65.767-3.795.002-2.972-.02-3.12-.532-3.6-.15-.14-.393-.3-.54-.356-.184-.069-3.69-.1-11.158-.098-9.832.001-10.921.017-11.202.155zM38.84 18v2.422H17.853v-4.843h20.986V18zm7.312 11.396v4.036H38.08V25.36h8.072v4.036zm-4.68-2.385c-1.31.363-2.112 1.91-1.635 3.159.771 2.018 3.426 2.207 4.455.317 1-1.838-.786-4.04-2.82-3.476zm1.218 1.81a.746.746 0 01-.533 1.287c-.75 0-1.061-.805-.505-1.306.316-.284.742-.276 1.038.02zm-10.307 7.84v1.614H24.31v-3.229h8.072v1.615zm-1.615 4.036v.807h-4.843v-1.615h4.843v.808zm6.457 4.083v2.422h-1.519v-4.844h1.52v2.422zm-3.228 0v1.567H1.614v-3.134h32.381v1.567z"/></mask><path fill-rule="evenodd" clip-rule="evenodd" d="M8.974.372c-.755.47-.902.839-.902 2.268 0 .924.032 1.17.198 1.512.296.613.653.821 1.507.882l.716.051.048 14.482.047 14.482.222.311c.122.17.387.395.59.499.354.18.576.187 5.832.187h5.464v1.814c0 1.485.028 1.873.155 2.142.198.417.679.786 1.118.857l.34.055v1.59H12.803c-11.49 0-11.508 0-11.919.199-.274.133-.49.333-.647.602-.231.394-.236.443-.236 2.406 0 1.189.041 2.112.101 2.27.144.381.457.693.896.896.365.168 1.04.175 16.815.177l16.436.002.23.25c.39.424.736.51 2.036.51.857 0 1.27-.039 1.46-.138.445-.23.846-.763.912-1.211.032-.224.046-1.586.03-3.026l-.03-2.62-.252-.38c-.359-.542-.802-.725-1.875-.775-1.184-.054-1.82.091-2.242.513-.322.322-.333.325-1.183.325h-.858v-.807c0-.75.014-.808.195-.808.5 0 1.15-.596 1.32-1.213.055-.195.099-1.09.1-1.992v-1.638h6.223c5.04 0 6.282-.024 6.533-.13.395-.164.788-.63.914-1.083.06-.218.098-1.912.098-4.407.001-3.952.006-4.055.189-4.113.28-.089.572-.511.572-.828 0-.182-.097-.376-.278-.557-.268-.268-.308-.277-1.187-.277h-.91V5.038h.623c.732 0 1.068-.148 1.438-.633.259-.34.267-.386.292-1.686.025-1.247.011-1.363-.192-1.715a1.884 1.884 0 00-.595-.592l-.378-.214L28.346.196C9.89.196 9.249.201 8.974.372zm38.031 2.244v.807H9.782V1.81h37.224v.807zM16.161 7.293c.033 2.52.058 2.631.71 3.129l.35.266 4.54.026c4.385.026 4.553.02 4.913-.164.206-.104.474-.33.595-.5.215-.301.224-.39.27-2.638l.047-2.327 8.475-.024 8.475-.024V23.65h-4.088c-4.489 0-4.508.002-4.74.565-.166.399.017.826.44 1.028l.317.151v8.038h-24.31v-1.615h22.111l.292-.245c.313-.263.384-.64.19-1.003-.252-.472.028-.46-11.67-.46H12.155V5.037h3.976l.03 2.255zm3.322-1.6c-.046.816.079 1.204.56 1.75.51.581 1.086.847 1.829.847.7 0 1.145-.17 1.656-.632.561-.507.816-1.171.758-1.976l-.046-.644h1.684V9.12h-8.071V5.038h1.668l-.038.656zm3.097-.155c.067.138.094.36.06.494-.07.28-.46.62-.713.62a.866.866 0 01-.846-.846c0-.249.348-.655.596-.696.33-.056.769.152.903.428zm-5.466 8.584a1.744 1.744 0 00-.879 1.088c-.066.244-.092 1.328-.073 3.01.025 2.294.05 2.668.196 2.935.265.486.642.773 1.159.884.332.072 3.749.094 11.168.074l10.69-.03.404-.267c.731-.483.765-.65.767-3.795.002-2.972-.02-3.12-.532-3.6-.15-.14-.393-.3-.54-.356-.184-.069-3.69-.1-11.158-.098-9.832.001-10.921.017-11.202.155zM38.84 18v2.422H17.853v-4.843h20.986V18zm7.312 11.396v4.036H38.08V25.36h8.072v4.036zm-4.68-2.385c-1.31.363-2.112 1.91-1.635 3.159.771 2.018 3.426 2.207 4.455.317 1-1.838-.786-4.04-2.82-3.476zm1.218 1.81a.746.746 0 01-.533 1.287c-.75 0-1.061-.805-.505-1.306.316-.284.742-.276 1.038.02zm-10.307 7.84v1.614H24.31v-3.229h8.072v1.615zm-1.615 4.036v.807h-4.843v-1.615h4.843v.808zm6.457 4.083v2.422h-1.519v-4.844h1.52v2.422zm-3.228 0v1.567H1.614v-3.134h32.381v1.567z" fill="url(#paint0_linear_1710_5654)" stroke="#000" stroke-width=".354" mask="url(#a)"/><defs><linearGradient id="paint0_linear_1710_5654" x1="0" y1=".196" x2="49.592" y2="50.032" gradientUnits="userSpaceOnUse"><stop stop-color="#0ABD92"/><stop offset="1" stop-color="#009DB8"/></linearGradient></defs></svg>