<svg width="46" height="46" fill="none" xmlns="http://www.w3.org/2000/svg"><path fill-rule="evenodd" clip-rule="evenodd" d="M40.125 1.428H4.959a3.607 3.607 0 00-3.606 3.606V40.2a3.607 3.607 0 003.606 3.606h35.166A3.607 3.607 0 0043.73 40.2V5.034a3.607 3.607 0 00-3.606-3.606zM4.959.075A4.96 4.96 0 000 5.035V40.2a4.96 4.96 0 004.96 4.959h35.165a4.96 4.96 0 004.959-4.96V5.035a4.96 4.96 0 00-4.96-4.959H4.96z" fill="#06B0A1"/><path fill-rule="evenodd" clip-rule="evenodd" d="M3.156 41.59V2.318 41.59z" fill="url(#paint0_linear_1849_3655)"/><path fill-rule="evenodd" clip-rule="evenodd" d="M18.676 18.095H14.69v26.162h-3.987V18.095H6.737l5.97-8.93 5.969 8.93z" fill="url(#paint1_linear_1849_3655)"/><path fill-rule="evenodd" clip-rule="evenodd" d="M40.125 18.095h-3.987v26.162h-3.966V18.095h-3.986l5.97-8.93 5.969 8.93z" fill="url(#paint2_linear_1849_3655)"/><path fill-rule="evenodd" clip-rule="evenodd" d="M25.212 31.772h-2.995V24.62h2.995v7.152zm0 2.384h-2.995v7.132h2.995v-7.132zm0-32.728h-2.995v20.829h2.995V1.427z" fill="url(#paint3_linear_1849_3655)"/><defs><linearGradient id="paint0_linear_1849_3655" x1="0" y1=".075" x2="45.986" y2="46.286" gradientUnits="userSpaceOnUse"><stop stop-color="#0ABD92"/><stop offset="1" stop-color="#009DB8"/></linearGradient><linearGradient id="paint1_linear_1849_3655" x1="0" y1=".075" x2="45.986" y2="46.286" gradientUnits="userSpaceOnUse"><stop stop-color="#0ABD92"/><stop offset="1" stop-color="#009DB8"/></linearGradient><linearGradient id="paint2_linear_1849_3655" x1="0" y1=".075" x2="45.986" y2="46.286" gradientUnits="userSpaceOnUse"><stop stop-color="#0ABD92"/><stop offset="1" stop-color="#009DB8"/></linearGradient><linearGradient id="paint3_linear_1849_3655" x1="0" y1=".075" x2="45.986" y2="46.286" gradientUnits="userSpaceOnUse"><stop stop-color="#0ABD92"/><stop offset="1" stop-color="#009DB8"/></linearGradient></defs></svg>