<svg width="46" height="56" fill="none" xmlns="http://www.w3.org/2000/svg"><path fill-rule="evenodd" clip-rule="evenodd" d="M24.693 55.94V45.918h1.073v10.02h-1.073zm-3.579 0V45.918H20.04v10.02h1.074z" fill="url(#paint0_linear_1710_5658)"/><path fill-rule="evenodd" clip-rule="evenodd" d="M22.904 45.558c12.054 0 21.826-9.772 21.826-21.827 0-12.054-9.772-21.826-21.826-21.826-12.055 0-21.827 9.772-21.827 21.826 0 12.055 9.772 21.827 21.827 21.827zm0 1.077c12.649 0 22.903-10.255 22.903-22.904 0-12.65-10.254-22.903-22.904-22.903C10.255.828 0 11.082 0 23.73c0 12.65 10.254 22.904 22.904 22.904z" fill="url(#paint1_linear_1710_5658)"/><path d="M15.978 33.127a5.48 5.48 0 01-2.067-.425c-.672-.284-1.277-.736-1.816-1.358-.54-.628-.967-1.456-1.284-2.484-.316-1.027-.475-2.291-.475-3.791 0-1.389.123-2.66.367-3.816.245-1.156.611-2.156 1.1-3 .489-.845 1.1-1.497 1.833-1.958.733-.467 1.592-.7 2.575-.7.922 0 1.736.191 2.441.575a4.605 4.605 0 011.717 1.583c.439.678.714 1.458.825 2.341H19.66c-.156-.9-.525-1.641-1.109-2.225-.583-.583-1.363-.874-2.341-.874-1.4 0-2.483.65-3.25 1.95-.766 1.294-1.152 3.133-1.158 5.516h.108a4.543 4.543 0 011.05-1.308 4.847 4.847 0 011.475-.867 4.795 4.795 0 011.733-.317c.95 0 1.82.242 2.608.725a5.297 5.297 0 011.892 1.975c.472.833.708 1.786.708 2.858a5.94 5.94 0 01-.675 2.808 5.169 5.169 0 01-1.883 2.042c-.805.505-1.752.755-2.841.75zm0-1.4c.744 0 1.408-.19 1.991-.567a4.023 4.023 0 001.392-1.516 4.445 4.445 0 00.508-2.117 4.36 4.36 0 00-.508-2.1 3.975 3.975 0 00-1.392-1.5c-.583-.372-1.247-.558-1.991-.558-.567 0-1.095.117-1.584.35a3.945 3.945 0 00-1.274.942 4.164 4.164 0 00-.817 1.358 3.818 3.818 0 00-.208 1.608c.06.783.263 1.486.608 2.108a4.06 4.06 0 001.367 1.459 3.516 3.516 0 001.908.533z" fill="url(#paint2_linear_1710_5658)"/><path d="M30.201 33.127c-1.2 0-2.224-.345-3.074-1.034-.845-.694-1.495-1.697-1.95-3.008-.45-1.31-.675-2.886-.675-4.724 0-1.834.225-3.403.675-4.708.455-1.311 1.108-2.314 1.958-3.008.856-.7 1.878-1.05 3.066-1.05 1.19 0 2.209.35 3.059 1.05.855.694 1.508 1.697 1.958 3.008.455 1.305.683 2.875.683 4.708 0 1.838-.228 3.413-.683 4.724-.45 1.311-1.1 2.314-1.95 3.008-.844.69-1.867 1.034-3.067 1.034zm0-1.4c1.317 0 2.345-.642 3.084-1.925.738-1.289 1.108-3.103 1.108-5.441 0-1.556-.17-2.883-.508-3.983-.334-1.106-.814-1.95-1.442-2.534-.622-.583-1.37-.874-2.241-.874-1.306 0-2.33.65-3.075 1.95-.745 1.294-1.117 3.108-1.117 5.44 0 1.556.167 2.884.5 3.984.339 1.1.82 1.938 1.442 2.516.627.578 1.377.867 2.25.867z" fill="url(#paint3_linear_1710_5658)"/><path d="M38.284 8.274l.648.648L8.114 39.739l-.648-.648L38.284 8.274z" fill="url(#paint4_linear_1710_5658)"/><path fill-rule="evenodd" clip-rule="evenodd" d="M9.087 40.71l-.972-.971L38.932 8.922l.971.971L9.087 40.71zM38.284 8.274l-.972-.972L6.495 38.12l.972.972L38.284 8.274z" fill="#0E0E0E"/><defs><linearGradient id="paint0_linear_1710_5658" x1="20.04" y1="45.919" x2="28.868" y2="50.988" gradientUnits="userSpaceOnUse"><stop stop-color="#0ABD92"/><stop offset="1" stop-color="#009DB8"/></linearGradient><linearGradient id="paint1_linear_1710_5658" x1="0" y1=".828" x2="46.723" y2="47.78" gradientUnits="userSpaceOnUse"><stop stop-color="#0ABD92"/><stop offset="1" stop-color="#009DB8"/></linearGradient><linearGradient id="paint2_linear_1710_5658" x1="10.336" y1="15.595" x2="26.989" y2="39.996" gradientUnits="userSpaceOnUse"><stop stop-color="#0ABD92"/><stop offset="1" stop-color="#009DB8"/></linearGradient><linearGradient id="paint3_linear_1710_5658" x1="10.336" y1="15.595" x2="26.989" y2="39.996" gradientUnits="userSpaceOnUse"><stop stop-color="#0ABD92"/><stop offset="1" stop-color="#009DB8"/></linearGradient><linearGradient id="paint4_linear_1710_5658" x1="38.284" y1="8.274" x2="39.583" y2="9.629" gradientUnits="userSpaceOnUse"><stop stop-color="#0ABD92"/><stop offset="1" stop-color="#009DB8"/></linearGradient></defs></svg>