<svg width="30" height="39" fill="none" xmlns="http://www.w3.org/2000/svg"><path fill-rule="evenodd" clip-rule="evenodd" d="M17.413.4c-1.741.476-3.123 1.863-3.652 3.663-.124.422-.134 1.101-.154 10.006l-.022 9.554-.486.434c-1.33 1.187-2.274 2.854-2.653 4.683-.177.858-.19 2.337-.025 3.21.611 3.26 2.977 5.809 6.216 6.697.656.18.846.198 2.066.196 1.213-.001 1.416-.021 2.074-.2 1.958-.531 3.793-1.842 4.857-3.469.508-.778.72-1.205 1.002-2.02.348-1.002.43-1.569.422-2.867-.008-.994-.037-1.278-.198-1.892-.467-1.782-1.438-3.39-2.662-4.41l-.454-.377-.001-9.47c-.002-10.584.03-9.92-.541-11.094-.245-.502-.443-.772-.912-1.245C21.229.731 20.32.33 18.853.281c-.726-.025-1-.002-1.44.119zm2.466 1.204c.69.24 1.049.466 1.558.98.569.575.924 1.22 1.079 1.96.087.414.105 2.143.106 10.043l.001 9.543.392.343c1.436 1.259 2.2 2.391 2.635 3.906.328 1.145.36 2.743.074 3.824-1.291 4.89-6.836 7.076-10.994 4.333-3.141-2.073-4.197-6.194-2.446-9.55.513-.983 1.196-1.79 2.165-2.556l.297-.234.037-9.878c.04-10.687.013-9.955.414-10.756.519-1.037 1.666-1.893 2.81-2.098.53-.095 1.38-.031 1.872.14zm-2.082 1.442c-.558.223-1.024.672-1.312 1.265-.242.496-.246.52-.272 1.73l-.026 1.225.226.229c.283.286.488.288.765.008l.219-.221V6.179c0-1.23.06-1.472.44-1.797.667-.566 1.618-.378 2.005.396l.168.336v17.023h-2.613V9.241l-.175-.206c-.24-.281-.605-.281-.845 0l-.175.206v7.75l-.002 7.75-.428.24c-2.37 1.326-3.579 4.239-2.854 6.878.613 2.231 2.49 3.953 4.74 4.35.776.137 1.206.144 1.915.033 2.373-.372 4.292-2.123 4.916-4.487.217-.82.22-2.096.007-2.94-.4-1.582-1.476-3.016-2.863-3.814l-.466-.268L21.13 14.7l-.037-10.033-.183-.376a2.76 2.76 0 00-1.177-1.174c-.513-.247-1.413-.28-1.936-.071zm-12.558.4c-.14.15-.162.261-.162.792 0 .34-.017.617-.037.617-.02 0-.19-.118-.379-.264-.402-.31-.684-.338-.915-.09-.198.214-.213.605-.031.788.072.073.408.349.746.614l.616.48v1.165c0 .641-.025 1.151-.056 1.135-.923-.502-1.9-1.072-1.935-1.132-.027-.043-.108-.45-.18-.905-.102-.631-.173-.87-.301-1.007-.222-.24-.542-.235-.785.011-.177.18-.186.222-.136.688l.052.498-.483-.273c-.27-.153-.587-.274-.72-.274-.492 0-.712.58-.356.94.097.1.35.268.56.376.349.179.497.344.307.344-.041 0-.221.07-.4.155-.489.232-.604.632-.288.996.177.204.523.16 1.324-.17.403-.165.764-.301.802-.301.075 0 1.578.836 1.804 1.004.131.097.066.148-.83.647l-.972.54-.873-.357c-.824-.339-.884-.353-1.072-.246a.975.975 0 00-.313.32c-.167.3.002.57.502.804.215.101.392.203.392.227 0 .023-.159.127-.352.23-.57.305-.768.508-.768.786a.56.56 0 00.184.419c.233.222.53.183 1.073-.14.216-.13.411-.235.435-.235.023 0 .02.187-.009.415-.064.52-.011.69.26.831.29.153.404.142.63-.057.165-.146.212-.295.335-1.064.079-.492.154-.904.167-.915.07-.06 1.92-1.096 1.957-1.096.025 0 .044.518.042 1.15l-.003 1.151-.53.416c-.86.672-.957.781-.957 1.08 0 .198.05.307.196.423.286.227.49.195.917-.147l.38-.304v.647c0 .586.017.664.183.832.224.226.48.236.74.029.187-.148.197-.192.197-.837v-.68l.383.308c.43.347.628.38.914.152.152-.12.196-.222.196-.45 0-.284-.028-.318-.743-.882l-.744-.587-.003-1.15c-.002-.633.018-1.151.044-1.151.04 0 1.888 1.034 1.953 1.093.012.01.088.422.17.915.128.773.176.922.346 1.074.237.213.582.178.795-.08.115-.142.13-.245.087-.642-.027-.26-.032-.474-.01-.474.023 0 .255.12.517.264.261.146.56.265.661.265.405 0 .678-.651.394-.938-.065-.066-.316-.23-.56-.364-.242-.135-.441-.262-.442-.283 0-.02.176-.123.392-.227.5-.24.667-.51.501-.809a.973.973 0 00-.312-.319c-.188-.106-.248-.092-1.067.246l-.868.359-.97-.541c-.535-.298-.944-.568-.91-.6.1-.1 1.794-1.052 1.87-1.052.038 0 .4.136.803.302.878.36 1.159.382 1.376.103.184-.236.191-.342.045-.627-.076-.149-.224-.256-.485-.35-.207-.076-.376-.158-.376-.184 0-.026.143-.126.318-.222.637-.353.802-.518.802-.8 0-.33-.22-.562-.534-.562-.132 0-.447.12-.716.272l-.48.272.052-.494c.049-.463.04-.505-.14-.686-.244-.247-.564-.254-.784-.017-.124.133-.193.363-.278.925-.062.41-.142.819-.178.907-.054.132-.85.628-1.851 1.153l-.168.088V6.401l.561-.445c.866-.685.932-.76.932-1.046 0-.307-.255-.583-.54-.583-.108 0-.348.118-.537.264-.189.146-.36.264-.38.264-.02 0-.036-.282-.036-.627 0-.527-.024-.653-.152-.792-.207-.225-.592-.22-.806.01zm20.526.476c-.206.264-.196.522.028.748.18.181.21.185 1.372.185 1.088 0 1.204-.013 1.384-.156a.532.532 0 00.024-.811c-.163-.155-.242-.165-1.413-.165h-1.24l-.155.2zm.225 4.412c-.407.164-.504.629-.197.94.175.177.225.185 1.124.185.898 0 .948-.008 1.123-.185.294-.298.238-.725-.12-.912-.245-.128-1.634-.148-1.93-.028zm-.058 4.597c-.44.179-.424.8.028 1.043.222.12 3.452.122 3.71.003.225-.104.379-.447.315-.704-.093-.374-.329-.419-2.187-.413-.937.002-1.776.034-1.866.07zm-.139 4.712c-.224.227-.234.485-.028.748.153.197.163.2 1.157.2.903 0 1.017-.016 1.152-.152.207-.21.192-.567-.034-.796-.175-.177-.225-.185-1.123-.185-.899 0-.949.008-1.124.185zm-.028 4.617c-.085.11-.155.275-.155.367 0 .093.07.258.155.368l.154.198h1.251c1.211 0 1.256-.005 1.413-.174a.562.562 0 00-.01-.793c-.163-.155-.242-.165-1.413-.165h-1.24l-.155.2zm-5.755 2.052c0 1.199-.001 1.197.747 1.54 1.565.716 2.638 2.35 2.74 4.167a4.876 4.876 0 01-3.67 4.984c-.57.146-1.659.144-2.28-.004-.866-.205-1.534-.596-2.244-1.313-.985-.996-1.416-2.026-1.416-3.387 0-.916.1-1.35.5-2.194a4.674 4.674 0 012.151-2.205c.42-.214.707-.41.764-.524.06-.116.093-.532.094-1.145v-.962h2.614v1.043z" fill="url(#paint0_linear_1710_5212)"/><defs><linearGradient id="paint0_linear_1710_5212" x1="0" y1=".272" x2="38.178" y2="30.112" gradientUnits="userSpaceOnUse"><stop stop-color="#0ABD92"/><stop offset="1" stop-color="#009DB8"/></linearGradient></defs></svg>