<svg width="32" height="33" fill="none" xmlns="http://www.w3.org/2000/svg"><path fill-rule="evenodd" clip-rule="evenodd" d="M2.263.16C1.172.455.283 1.38.06 2.455c-.048.23-.063 2.484-.051 7.484l.017 7.154.148.281c.081.155.216.373.3.484l.153.204-.153.203c-.084.111-.219.33-.3.484l-.148.281-.019 2.897c-.02 3.183-.01 3.31.338 4.004.355.707 1.24 1.408 1.944 1.54l.199.038.02.708c.018.598.042.735.15.88.246.329.44.425.906.452l.436.024v1.09c0 1.073.003 1.091.154 1.242a.472.472 0 00.694 0c.152-.15.154-.17.154-1.242v-1.09l.436-.024c.466-.027.66-.123.906-.451.108-.144.132-.284.15-.856l.021-.683h3.984l.021.683c.018.572.043.712.15.856.246.328.44.424.906.45l.437.025v1.09c0 1.073.002 1.091.153 1.242a.472.472 0 00.694 0c.152-.15.154-.17.154-1.242v-1.09l.436-.024c.466-.027.66-.123.906-.451.109-.146.132-.283.15-.88l.02-.709.2-.037c.712-.134 1.586-.828 1.946-1.547.345-.688.356-.818.335-3.998l-.018-2.897-.148-.281a4.377 4.377 0 00-.3-.484l-.153-.203.152-.204c.084-.111.22-.33.301-.484l.148-.281.017-4.86.018-4.859-.156-.155a.49.49 0 00-.67-.036l-.148.12-.031 4.812c-.031 4.739-.034 4.815-.16 4.985-.208.277-.415.398-.777.456-.383.06-.566.224-.566.506 0 .282.183.445.566.505.362.058.57.179.776.456.126.169.13.24.13 3.12v2.948l-.17.32c-.25.472-.438.667-.876.904l-.394.213H2.466l-.395-.213c-.438-.237-.626-.432-.876-.905l-.169-.319v-2.948c0-2.88.003-2.951.13-3.12.206-.277.413-.398.776-.456.382-.06.565-.223.565-.505 0-.282-.183-.446-.565-.506-.363-.058-.57-.179-.777-.456-.128-.172-.129-.198-.129-7.37V2.533l.155-.312c.085-.172.268-.426.407-.564.138-.138.393-.32.565-.406l.313-.155h12.08l.32.169c.475.25.67.438.905.875l.212.393.033 1.147c.032 1.11.038 1.15.18 1.265a.49.49 0 00.67-.034c.15-.15.153-.174.153-1.174 0-.715-.028-1.131-.096-1.388a3.053 3.053 0 00-2.2-2.19C14.202.021 2.766.024 2.262.16zm.388 3.557l-.154.153v8.385l.154.153c.203.203.49.203.694 0l.154-.153V3.87l-.154-.153a.505.505 0 00-.347-.153.505.505 0 00-.347.153zm13.52 2c-.31.31-.09.846.348.846.257 0 .5-.243.5-.5s-.243-.5-.5-.5a.505.505 0 00-.348.154zm8.146 1.41a7.521 7.521 0 00-2.85 1.12 7.76 7.76 0 00-1.574 1.497c-.437.574-.963 1.666-1.162 2.412-.149.556-.167.736-.167 1.655 0 .914.018 1.1.163 1.642.277 1.034.84 2.095 1.505 2.832l.287.318.018 1.662c.018 1.564.026 1.67.148 1.833.245.328.44.425.906.451l.436.025v7.678l.153.152a.472.472 0 00.695 0l.153-.153v-7.677l.437-.025c.465-.026.66-.123.905-.45.109-.146.133-.284.15-.872l.02-.698h1.483l.02.698c.018.588.042.726.15.871.246.328.44.425.906.451l.436.025v9.177l.154.153a.505.505 0 00.347.154c.122 0 .25-.057.347-.154l.154-.153v-9.177l.436-.025c.466-.026.66-.123.906-.45.121-.163.13-.27.147-1.834l.019-1.662.287-.318c.664-.737 1.228-1.799 1.504-2.832.145-.541.164-.728.164-1.642 0-.918-.018-1.099-.167-1.655-.2-.746-.725-1.838-1.162-2.412a6.968 6.968 0 00-3.73-2.467c-.704-.18-1.973-.252-2.624-.15zm1.97 1.034c.284.054.735.177 1 .274 2.315.843 3.866 3.181 3.733 5.626-.077 1.425-.559 2.562-1.583 3.734l-.4.457v3.308h-2.003v-.91c0-.891-.002-.911-.16-1.068-.153-.153-.179-.158-.579-.107a9.958 9.958 0 01-2.026 0c-.4-.051-.426-.046-.58.107-.157.157-.16.177-.16 1.069v.909h-2.003v-1.642c0-1.794.022-1.68-.406-2.139-2.474-2.654-1.989-6.797 1.027-8.769 1.227-.802 2.745-1.114 4.14-.85zm-1.662.946a4.8 4.8 0 00-3.288 2.069c-.19.288-.312.543-.312.651 0 .334.386.573.72.445.056-.022.215-.216.351-.433.315-.497.917-1.061 1.415-1.325.454-.241 1.227-.452 1.659-.452.374 0 .613-.195.613-.5a.503.503 0 00-.154-.346c-.128-.128-.21-.152-.485-.144a6.141 6.141 0 00-.52.035zm-3.947 4.108c-.31.31-.09.846.347.846a.527.527 0 00.501-.5c0-.256-.243-.5-.5-.5a.505.505 0 00-.348.154zm-18.027.5a.503.503 0 00-.154.346c0 .122.057.25.154.347.31.31.848.09.848-.347 0-.256-.244-.5-.501-.5a.505.505 0 00-.347.154zM5.5 28.058v.5h-2v-1h2.003v.5zm8.013 0v.5H11.51v-1h2.003v.5zm8.666 3.153a.503.503 0 00-.153.347c0 .121.057.25.153.346a.505.505 0 00.348.154c.122 0 .25-.057.347-.154a.503.503 0 00.153-.346.503.503 0 00-.153-.347.505.505 0 00-.347-.153.505.505 0 00-.348.153z" fill="url(#paint0_linear_1710_5215)"/><defs><linearGradient id="paint0_linear_1710_5215" x1="0" y1=".058" x2="32.64" y2="32.858" gradientUnits="userSpaceOnUse"><stop stop-color="#0ABD92"/><stop offset="1" stop-color="#009DB8"/></linearGradient></defs></svg>