<svg width="30" height="40" fill="none" xmlns="http://www.w3.org/2000/svg"><path fill-rule="evenodd" clip-rule="evenodd" d="M2.55 1.087c-.611.152-1.078.425-1.553.908a3.263 3.263 0 00-.91 1.684c-.116.567-.116 32.611 0 33.178.267 1.294 1.294 2.341 2.563 2.613.511.11 24.117.12 24.681.01.926-.178 1.925-.959 2.317-1.81.354-.768.361-.928.337-7.118l-.022-5.801-.179-.32c-.22-.392-.464-.565-1.594-1.13l-.886-.443v-3.531l.749-.051c.85-.058 1.196-.195 1.562-.621.126-.146.264-.394.307-.55.044-.163.078-1.065.078-2.097 0-1.804 0-1.814-.193-2.208-.106-.217-.277-.453-.38-.523-.101-.07-.903-.518-1.78-.994-1.138-.617-1.623-.92-1.69-1.055-.064-.13-.092-.618-.093-1.59-.001-1.307-.011-1.41-.15-1.537a.566.566 0 00-.76.028c-.156.16-.162.22-.162 1.689 0 1.698.041 1.917.44 2.323.142.145.913.61 1.789 1.077.846.452 1.613.89 1.705.973.163.15.166.184.166 1.863 0 2.152.063 2.031-1.087 2.1-.746.045-.841.068-1.092.263-.512.399-.551.588-.553 2.702-.002 2.486-.039 2.412 1.59 3.24.53.27 1.005.54 1.055.602.07.086.086 1.43.07 5.94-.02 5.745-.022 5.833-.176 6.171a2.21 2.21 0 01-1.05 1.104l-.42.21H2.777l-.42-.21a2.21 2.21 0 01-1.05-1.104l-.156-.343V3.807l.206-.428A2.207 2.207 0 012.44 2.31c.336-.159.344-.159 10.384-.179 11.267-.022 10.506-.058 11.159.528.182.164.423.456.534.648.191.333.203.412.239 1.567.032 1.058.055 1.237.177 1.375.187.21.584.21.79.002.145-.15.152-.223.128-1.45l-.024-1.294-.266-.565c-.303-.642-.825-1.22-1.38-1.528-.811-.45-.305-.431-11.243-.424-7.63.005-10.102.028-10.386.098zm1.48 2.835c-.274.085-.538.326-.631.576-.038.102-.07 1.319-.07 2.708 0 2.736.007 2.784.415 3.111.184.148.288.158 1.635.158h1.438l.244-.25a.966.966 0 00.293-.584c.027-.184.038-1.404.025-2.71-.02-2.12-.037-2.4-.153-2.58-.275-.427-.42-.467-1.75-.483-.673-.009-1.324.016-1.447.054zm5.229-.007c-.293.075-.44.194-.578.467-.086.17-.106.7-.106 2.815 0 2.862.01 2.936.441 3.163.314.166 2.793.166 3.108 0 .43-.227.44-.3.44-3.178 0-3.47.102-3.286-1.846-3.312-.67-.01-1.327.01-1.46.045zm5.198.005a.99.99 0 00-.636.673c-.098.36-.096 4.856.002 5.218.042.152.177.364.3.47.226.193.23.194 1.651.194 1.333 0 1.438-.01 1.621-.158.409-.327.415-.374.415-3.123 0-3.446.084-3.3-1.92-3.326-.671-.01-1.316.014-1.433.052zm5.166.034c-.334.126-.535.355-.596.682-.023.124-.032 1.373-.02 2.775l.022 2.548.276.258.276.258h1.386c1.243 0 1.411-.016 1.622-.147.431-.269.43-.255.43-3.134 0-2.898.004-2.868-.46-3.178-.275-.184-2.488-.23-2.936-.062zM6.267 7.18l.02 2.166H4.438V7.21c0-1.174.023-2.158.051-2.187.029-.029.436-.043.905-.031l.854.02.02 2.167zm5.19-.02v2.186H9.682v-4.37h1.774V7.16zm5.227.02l.02 2.166h-1.849V7.21c0-1.174.023-2.158.051-2.187.029-.029.436-.043.905-.031l.854.02.02 2.167zm5.246 0l.02 2.166H20.1V4.97l.905.022.905.02.02 2.167zM4.972 24.797c-.375.19-.731.605-.83.97-.04.146-.073 1.015-.073 1.932 0 1.51.012 1.685.136 1.84.197.248.574.232.799-.034.17-.201.173-.235.173-1.82 0-1.515.009-1.625.147-1.766.147-.15.247-.151 9.679-.151s9.532.001 9.678.15c.144.148.148.252.148 4.55 0 4.219-.006 4.406-.142 4.577l-.14.177H5.458l-.141-.177c-.13-.163-.141-.315-.141-1.78 0-1.505-.01-1.613-.153-1.8a.549.549 0 00-.808-.047c-.139.142-.148.251-.148 1.886 0 1.888.034 2.085.43 2.51.109.117.331.286.494.376l.295.163h19.432l.295-.163c.163-.09.385-.26.495-.377.438-.47.429-.362.429-5.269 0-3.15-.026-4.58-.085-4.782a1.669 1.669 0 00-.825-.967c-.319-.157-.33-.157-10.03-.157h-9.71l-.315.16z" fill="url(#paint0_linear_1710_5209)"/><defs><linearGradient id="paint0_linear_1710_5209" x1="0" y1=".986" x2="38.178" y2="30.826" gradientUnits="userSpaceOnUse"><stop stop-color="#0ABD92"/><stop offset="1" stop-color="#009DB8"/></linearGradient></defs></svg>