<svg width="151" height="141" fill="none" xmlns="http://www.w3.org/2000/svg"><path d="M134 .965l-.048.498.048-.498zm-24.182 17.502l-.476-.151.476.15zM.904 41.436c1.21.237 2.41.467 3.603.691l.184-.983c-1.19-.223-2.388-.453-3.595-.689l-.192.982zM11.56 43.4c2.399.415 4.761.804 7.088 1.169l.155-.988a459.05 459.05 0 01-7.073-1.166l-.17.985zm14.153 2.217c2.426.34 4.81.65 7.156.936l.12-.992a402.29 402.29 0 01-7.137-.934l-.139.99zm14.193 1.726c2.458.252 4.869.473 7.233.666l.082-.996a347.704 347.704 0 01-7.213-.665l-.102.995zm14.37 1.17c2.43.143 4.807.254 7.132.336l.035-1c-2.317-.08-4.686-.192-7.107-.335l-.06.998zm14.363.492c2.453.02 4.844.004 7.173-.046l-.021-1c-2.32.05-4.7.066-7.144.046l-.008 1zm14.307-.311c2.459-.132 4.843-.304 7.152-.513l-.09-.995a198.33 198.33 0 01-7.116.51l.054.998zm14.322-1.307a151.84 151.84 0 007.111-1.11l-.178-.983c-2.26.409-4.614.777-7.064 1.101l.131.992zm14.149-2.578c2.433-.58 4.741-1.21 6.928-1.883l-.295-.956a109.426 109.426 0 01-6.865 1.867l.232.972zm13.709-4.26a73.107 73.107 0 006.607-2.994l-.46-.888a71.989 71.989 0 01-6.516 2.953l.369.93zm12.775-6.677c2.159-1.494 4.025-3.044 5.611-4.623l-.705-.709c-1.54 1.534-3.36 3.046-5.475 4.51l.569.822zm10.098-10.333c1.359-2.338 2.157-4.672 2.424-6.916l-.993-.118c-.249 2.092-.997 4.296-2.295 6.531l.864.503zm1.279-14.164c-1.031-2.146-2.678-4.016-4.866-5.49l-.559.83c2.054 1.383 3.576 3.121 4.523 5.093l.902-.433zM137.66 1.049a27.614 27.614 0 00-3.612-.581l-.096.995a26.5 26.5 0 013.482.56l.226-.974zm-3.612-.581a34.884 34.884 0 00-4.195-.162l.025 1a33.874 33.874 0 014.074.157l.096-.995zM121.613 1.98c-2.683 1.165-4.872 2.904-6.689 5.126l.775.633c1.725-2.11 3.788-3.746 6.312-4.841l-.398-.918zm-10.857 12.404a50.543 50.543 0 00-1.414 3.931l.953.302a49.48 49.48 0 011.386-3.854l-.925-.379zm-1.414 3.931l-1.09 3.448.953.301 1.09-3.447-.953-.302zM106.06 28.69c-.722 2.273-1.459 4.577-2.212 6.905l.952.308c.753-2.33 1.491-4.637 2.213-6.91l-.953-.303zm-4.473 13.805a650.466 650.466 0 01-2.325 6.871l.945.326c.795-2.303 1.57-4.6 2.329-6.881l-.949-.316zm-4.737 13.71c-.819 2.27-1.658 4.54-2.517 6.8l.934.356a424.606 424.606 0 002.524-6.817l-.94-.34zm-5.162 13.55c-.909 2.248-1.84 4.48-2.796 6.689l.917.397c.96-2.216 1.895-4.456 2.806-6.711l-.927-.375zM85.92 83.049a210.532 210.532 0 01-3.176 6.505l.89.455a211.696 211.696 0 003.192-6.536l-.906-.424zm-6.597 12.892c-1.198 2.127-2.43 4.2-3.696 6.211l.846.533a148.465 148.465 0 003.721-6.253l-.871-.491zm-7.726 12.219a99.359 99.359 0 01-4.406 5.716l.768.64a100.703 100.703 0 004.451-5.774l-.813-.582zm-9.257 11.058a66.148 66.148 0 01-5.335 4.822l.627.778a67.136 67.136 0 005.417-4.894l-.709-.706zm-11.212 8.97a46.685 46.685 0 01-6.387 3.26l.384.924a47.955 47.955 0 006.523-3.329l-.52-.855zm-13.212 5.451a42.342 42.342 0 01-7.083 1.005l.057.999a43.381 43.381 0 007.25-1.03l-.224-.974zm-14.25.843a50.841 50.841 0 01-3.582-.488l-.17.985c1.233.213 2.45.378 3.652.498l.1-.995z" fill="url(#paint0_linear_1_1844)"/><path d="M12 134.986l9-5.196v10.392l-9-5.196z" fill="url(#paint1_linear_1_1844)"/><defs><linearGradient id="paint0_linear_1_1844" x1="65.396" y1="-30.636" x2="204.028" y2="5.57" gradientUnits="userSpaceOnUse"><stop stop-color="#0ABD92"/><stop offset="1" stop-color="#009DB8"/></linearGradient><linearGradient id="paint1_linear_1_1844" x1="12" y1="140.986" x2="24.3" y2="128.746" gradientUnits="userSpaceOnUse"><stop stop-color="#0ABD92"/><stop offset="1" stop-color="#009DB8"/></linearGradient></defs></svg>