<svg width="30" height="30" fill="none" xmlns="http://www.w3.org/2000/svg"><path opacity=".6" d="M20.425 17.97a6.334 6.334 0 00-.716-1.705l-.426.262.426-.262c-.194-.315-.496-.667-.81-.978a5.914 5.914 0 00-.995-.81c-1.137-.697-2.575-.973-3.872-.738h0c-1.165.212-2.124.725-2.975 1.586m9.368 2.645l-.485.121.485-.12s0 0 0 0zm0 0c.078.314.109.803.109 1.248 0 .446-.03.935-.109 1.248l-.002.008h0c-.377 1.418-2.036 4.23-5.685 4.285m0 0l.05-.991a5.073 5.073 0 01-.112-.007l-.018-.001m.08 1h-.097v-.5l-.002-.5h.019m.08 1v.007a7.17 7.17 0 01-.133-.008c-1.389-.1-2.557-.644-3.548-1.646m3.6.647c3.084-.015 4.485-2.366 4.799-3.54m-4.798 3.54c-1.134-.085-2.07-.521-2.89-1.35h0a4.572 4.572 0 01-1.223-2.185c-.047-.189-.079-.576-.079-1.006 0-.431.032-.818.08-1.007a4.572 4.572 0 011.223-2.184h0c.71-.72 1.485-1.131 2.442-1.305m5.245 5.498l-.001.003.485.121-.483-.128-.001.004zm0 0c.046-.19.078-.574.078-1.003 0-.43-.032-.817-.08-1.006h0a5.339 5.339 0 00-.596-1.422 4.725 4.725 0 00-.663-.792 4.945 4.945 0 00-.814-.668l.261-.426-.261.426c-.932-.572-2.12-.798-3.17-.607m0 0l-.089-.49.09.49s0 0 0 0zm-3.154 8.39l.356-.352-.356.352s0 0 0 0zm0 0a5.57 5.57 0 01-1.482-2.646c-.078-.313-.109-.803-.109-1.248 0-.446.031-.935.11-1.249a5.57 5.57 0 011.481-2.645m0 0s0 0 0 0l.356.351-.356-.351zM8.19 2.985h0a9.532 9.532 0 01-.011-.517c0-.137.005-.299.025-.403l-.014.92zm0 0c.073 1.502.71 2.775 1.87 3.75l.302-.36M8.19 2.985l2.172 3.39m0 0l-.303.36c.616.517 1.4.869 2.333 1.076m-2.03-1.436l2.03 1.436m0 0v1.507a4.137 4.137 0 00-2.367 2.646H7.092c-1.107 0-1.962.005-2.566.015-.301.005-.542.01-.722.018-.16.007-.315.016-.41.036-1.136.236-2.087 1.188-2.323 2.324l11.32-6.546zM1.071 24.08c.236 1.136 1.187 2.087 2.323 2.323L1.07 24.08zm0 0c-.014-.07-.02-.17-.024-.244m.024.243l-.024-.242m27.882.242c-.236 1.137-1.187 2.088-2.323 2.325a2.79 2.79 0 01-.377.035c-.16.007-.371.013-.63.018-.52.01-1.242.015-2.154.015h-2.418l-.221.672h0c-.096.29-.197.573-.286.798a6.443 6.443 0 01-.123.296c-.03.067-.077.167-.133.242l8.665-4.4zm0 0s0 0 0 0l-.49-.101.49.101zm0 0c.014-.07.02-.169.024-.242.005-.092.009-.21.013-.35.007-.282.014-.66.019-1.1.01-.884.015-2.027.015-3.17 0-1.142-.005-2.285-.015-3.168a73.93 73.93 0 00-.02-1.1 15.11 15.11 0 00-.012-.35 1.802 1.802 0 00-.024-.243s0 0 0 0l-.49.102c-.195-.942-.994-1.74-1.935-1.937M28.93 24.08l-2.323-12.047-.102.49m0 0l.102-.49m-.102.49c-.186-.04-1.385-.059-3.596-.059l3.698-.431m0 0a2.992 2.992 0 00-.41-.036c-.18-.007-.42-.013-.722-.018-.604-.01-1.46-.015-2.566-.015h-2.932A4.137 4.137 0 0017.61 9.32m8.997 2.714L17.61 9.319m0 0v-.791l-.002-.382a14.465 14.465 0 010-.33v-.01a5.66 5.66 0 00.149-.025c.5-.095 1.131-.35 1.625-.643.27-.16.588-.427.868-.698.28-.271.558-.583.734-.853a5.282 5.282 0 00.834-3.015c-.008-.291-.023-.561-.113-.79-.106-.27-.29-.427-.467-.56L17.609 9.32zm5.577 7.17h0a.3.3 0 00.064.06.231.231 0 00.077.025c.131.027.36.035.846.025a7.64 7.64 0 00.692-.034c.102-.077.124-.114.13-.127.007-.012.023-.049.023-.174 0-.126-.016-.163-.022-.175a.458.458 0 00-.13-.127 8.691 8.691 0 00-.743-.03c-.508-.007-.717 0-.83.026a.227.227 0 00-.043.013l-.002.001-.062.516zm0 0a.333.333 0 01-.014-.437l.014.436zM8.476 1.495c.123-.153.292-.303.495-.392l-.494.392zm0 0a1.326 1.326 0 00-.273.57l.274-.57zM1.048 14.6c.004-.074.01-.173.024-.243l-.024.243zm0 0c-.005.091-.009.21-.013.35m.013-.35l-.013.35m0 0c-.007.281-.014.66-.019 1.1m.02-1.1l-.02 1.1m0 0A270.92 270.92 0 001 19.22m.015-3.169L1 19.22m0 0c0 1.142.005 2.285.015 3.168M1 19.22l.015 3.168m0 0c.005.441.012.82.02 1.1m-.02-1.1l.02 1.1m0 0c.003.14.007.259.012.35m-.013-.35l.013.35m13.593.423c-1.265-.09-2.32-.58-3.227-1.499a5.071 5.071 0 01-1.353-2.415c-.125-.502-.125-1.753 0-2.255a5.071 5.071 0 011.353-2.415c.78-.79 1.647-1.252 2.709-1.445 1.172-.213 2.486.038 3.52.673.555.34 1.31 1.087 1.641 1.623.28.453.525 1.038.657 1.564.125.502.125 1.753 0 2.254-.342 1.287-1.854 3.846-5.177 3.914m-11.37 2.145c.093.02.235.029.378.036.16.007.371.013.63.018.52.01 1.242.015 2.153.015h2.42l.254.752.465-.158-.465.158c.168.499.273.804.363 1a1.163 1.163 0 00.37.483h0l.202.162.137.11h.174l4.45.014.594.002c2.04.006 3.09.01 3.65-.025.292-.019.537-.05.73-.148a.963.963 0 00.355-.326l-16.86-2.093zM21.238 1.223h-.001a.737.737 0 00-.173-.1.988.988 0 00-.236-.058c-.145-.02-.37-.03-.735-.038-.745-.015-2.184-.018-5.029-.024-2.34-.005-3.784-.004-4.658.004a31.77 31.77 0 00-.94.02c-.1.005-.184.011-.251.019a.851.851 0 00-.243.058l12.266.119zm-8.64 8.551l-.001-.005.002.005zm3.431 3.267h0c1.276.215 2.388.797 3.37 1.777 1.281 1.278 1.92 2.922 1.832 4.692-.081 1.615-.678 2.957-1.832 4.111a6.156 6.156 0 01-3.185 1.737c-.261.056-.721.09-1.213.09-.492 0-.952-.034-1.213-.09a6.157 6.157 0 01-3.185-1.737c-1.139-1.14-1.743-2.482-1.832-4.061-.18-3.216 2.05-5.974 5.312-6.525.504-.085 1.416-.083 1.946.006zM5.44 21.863a.333.333 0 01.091.544c-.125.126-.27.13-.39.064-.122-.066-.207-.2-.172-.388.03-.16.258-.31.47-.22zm8.803-5.577c-1.591.429-2.59 2.078-2.177 3.663l5.43-.392.494.071s0 0 0 0c.302-2.098-1.7-3.893-3.747-3.342zM5.44 18.908a.333.333 0 01.091.544c-.125.126-.27.13-.39.064-.122-.066-.207-.2-.172-.388.03-.16.258-.31.47-.22z" stroke="#fff"/></svg>