<svg width="18" height="19" fill="none" xmlns="http://www.w3.org/2000/svg"><path fill-rule="evenodd" clip-rule="evenodd" d="M.46 1.03c-.163.047-.382.279-.43.454-.025.095-.035.447-.028 1l.011.853.095.142a.703.703 0 00.457.31l.13.025.01.43c.012.408.018.44.118.603a.683.683 0 00.295.27c.174.09.218.098.589.098h.4v1.493c0 .82.017 1.656.038 1.857a6.993 6.993 0 001.512 3.674c.233.285.774.822 1.056 1.049.787.633 1.909 1.157 2.91 1.36 4.007.81 7.834-2.013 8.246-6.083.02-.2.037-1.036.037-1.857V5.215h.4c.37 0 .415-.007.59-.098a.683.683 0 00.294-.27c.1-.163.107-.195.118-.603l.011-.43.13-.024a.705.705 0 00.457-.31L18 3.336V1.46l-.094-.142a.903.903 0 00-.23-.227l-.134-.083-3.59-.01c-2.661-.007-3.616.001-3.689.032-.17.07-.243.286-.158.472.091.2-.065.192 3.722.192h3.487v1.409H.7V1.694h3.486c3.787 0 3.631.008 3.723-.192a.339.339 0 000-.32C7.817.983 7.98.99 4.125.994 2.003.995.53 1.01.46 1.03zm8.375.01c-.306.168-.178.654.172.654.178 0 .352-.172.352-.348a.355.355 0 00-.524-.307zm7.767 3.11l-.01.343H1.421l-.01-.343-.01-.343h15.211l-.01.343zm-1.4 2.553c-.001.818-.017 1.635-.036 1.816a5.926 5.926 0 01-.633 2.14 5.89 5.89 0 01-.993 1.437l-.292.315-.02-1.248c-.021-1.33-.035-1.457-.227-2.027-.468-1.394-1.68-2.465-3.15-2.78-.373-.08-1.238-.09-1.601-.018a4.25 4.25 0 00-2.22 1.18A4.22 4.22 0 004.88 9.58c-.062.26-.074.46-.093 1.563l-.022 1.264-.281-.298A6.318 6.318 0 012.95 9.176c-.118-.566-.139-.927-.14-2.456V5.215h12.391v1.488zm-5.368.373c1.277.318 2.254 1.293 2.596 2.593.068.26.075.394.088 1.8l.013 1.518-.224.141a6.552 6.552 0 01-2.2.86c-.333.063-.545.078-1.083.08-.702 0-.97-.03-1.537-.175a6.382 6.382 0 01-1.78-.765l-.225-.142.014-1.518c.012-1.408.019-1.538.088-1.8.32-1.208 1.167-2.121 2.332-2.514a3.706 3.706 0 011.918-.078zM8.496 8.122c-.14.027-.39.12-.58.213-.278.136-.387.216-.638.467-.251.252-.33.36-.467.638-.356.725-.356 1.457 0 2.183.137.277.216.386.467.637.253.253.358.33.637.466 1.013.492 2.106.295 2.88-.52a2.53 2.53 0 00.676-1.675 2.53 2.53 0 00-.676-1.674 2.43 2.43 0 00-2.299-.735zm.87.688c.793.165 1.4.911 1.4 1.721 0 .95-.81 1.76-1.76 1.76-.948 0-1.76-.81-1.76-1.76a1.8 1.8 0 011.35-1.71 1.9 1.9 0 01.77-.011zm-.7.728c-.883.316-.96 1.523-.123 1.934.285.14.643.14.928 0 .377-.186.573-.506.573-.94 0-.3-.074-.501-.26-.714-.253-.288-.749-.412-1.118-.28zm.512.691c.237.123.23.502-.012.612-.18.083-.377.023-.461-.139a.346.346 0 01.473-.473zm-.343 5.316c-.306.169-.178.655.172.655a.373.373 0 00.352-.35.355.355 0 00-.524-.305zm-.969.99c-.145.076-.195.155-.196.314 0 .12.022.16.171.304.283.273.75.455 1.166.455.416 0 .882-.182 1.165-.455.146-.14.172-.186.172-.297 0-.176-.085-.296-.245-.343-.15-.045-.194-.029-.447.165a1.2 1.2 0 01-.645.226 1.2 1.2 0 01-.646-.226c-.28-.215-.33-.229-.495-.143zM6.78 17.591c-.105.105-.13.204-.089.36.069.265.92.804 1.524.966.226.06.382.075.792.075.41 0 .565-.015.792-.075.602-.161 1.455-.703 1.524-.968.064-.248-.08-.447-.324-.447-.122 0-.175.026-.321.154-.38.332-.752.519-1.208.606-.773.149-1.51-.06-2.135-.606-.146-.128-.2-.154-.32-.154-.109 0-.168.023-.235.09z" fill="#fff"/></svg>