<svg width="25" height="21" fill="none" xmlns="http://www.w3.org/2000/svg"><path fill-rule="evenodd" clip-rule="evenodd" d="M.098 1.087a.336.336 0 000 .474c.1.094.168.095 7.466.095h7.366l.124-.117c.152-.142.157-.258.02-.422l-.105-.125H7.584C.266.992.198.993.098 1.087zm17.746 0a2.118 2.118 0 00-.884.527c-.457.435-.641.908-.608 1.561.019.361.046.461.209.77.434.824 1.374 1.283 2.314 1.132 1.47-.236 2.284-1.698 1.637-2.94-.195-.375-.643-.78-1.067-.967-.298-.13-.409-.153-.825-.166-.385-.011-.54.006-.776.084zm1.26.686c.316.123.565.346.728.65.376.706.075 1.532-.68 1.868-.584.259-1.386.08-1.774-.397-.774-.949-.002-2.313 1.254-2.215.16.012.373.055.473.094zM11.29 3.508a1.616 1.616 0 00-.415.148c-.303.17-3.583 3.47-3.707 3.731-.213.447-.098 1.021.272 1.37.28.263.531.36.933.361.593.002.648-.038 2.201-1.588.756-.755 1.386-1.372 1.4-1.372.075 0 1.415.35 1.45.378.022.019-.29.566-.69 1.217-.762 1.233-.957 1.57-1.02 1.77-.022.065-.445.749-.942 1.52l-.904 1.4-2.795.7c-1.538.386-2.879.74-2.98.789-.65.31-.959 1.013-.728 1.662.183.517.806.943 1.38.943.265 0 6.337-1.511 6.705-1.669.351-.15.547-.378 1.2-1.4.32-.5.593-.91.607-.909.014.001.35.374.749.828l.723.827-.205 2.595a116.073 116.073 0 00-.205 2.86c0 .319.22.774.471.972.564.446 1.304.469 1.918.06.183-.123.43-.472.495-.704.048-.166.507-5.836.507-6.255 0-.392-.123-.612-.728-1.306l-.573-.655.732-1.189c.403-.653.8-1.3.883-1.437.083-.136.181-.248.218-.248.038 0 .512.096 1.054.213.542.117 1.108.213 1.256.213.54-.001.61-.057 2.472-1.912 1.069-1.066 1.747-1.78 1.834-1.932.334-.581.06-1.349-.594-1.665a1.653 1.653 0 00-.532-.119c-.3-.02-.357-.007-.643.138-.263.133-.523.369-1.613 1.462l-1.338 1.343c-.021.022-.283-.009-.581-.068-.536-.107-.546-.112-.828-.372-.225-.207-.625-.444-1.879-1.111l-1.592-.848-1.697-.367c-1.97-.426-1.98-.428-2.271-.374zm1.997 1.018c.912.197 1.705.381 1.763.41.306.149 2.96 1.58 3.083 1.661.22.146.302.368.22.59-.037.099-.676 1.168-1.422 2.376-1.058 1.715-1.348 2.22-1.325 2.308.016.061.305.423.641.804.336.382.643.764.68.85.062.136.043.514-.155 3.064a212.06 212.06 0 01-.254 3.113c-.078.542-.751.796-1.192.448-.322-.253-.32-.136-.072-3.261.171-2.16.211-2.855.168-2.93-.031-.055-.705-.834-1.497-1.73-.793-.897-1.472-1.686-1.51-1.754-.096-.172-.086-.531.023-.798.05-.124.48-.855.954-1.623.474-.77.902-1.47.95-1.558.104-.19.071-.357-.087-.452-.152-.09-2.207-.597-2.424-.597-.16 0-.268.096-1.583 1.41-.776.775-1.47 1.447-1.542 1.492a.761.761 0 01-.35.083.548.548 0 01-.545-.676c.024-.121.407-.53 1.725-1.845.931-.929 1.734-1.699 1.784-1.71.197-.049.37-.02 1.967.325zM.098 4.31a.336.336 0 000 .474c.099.092.168.094 3.685.094h3.584l.11-.11c.139-.137.141-.315.007-.45l-.103-.103H3.79c-3.524 0-3.593.002-3.692.095zm23.99.214c.132.112.215.373.174.548-.025.104-.49.602-1.63 1.741a86.643 86.643 0 01-1.727 1.701c-.223.178-.356.174-1.335-.037a20.73 20.73 0 01-.945-.215c-.01-.01.086-.21.215-.447.13-.237.236-.46.236-.496 0-.119.084-.119.66 0 .313.065.576.118.584.118.009 0 .69-.671 1.516-1.492 1.127-1.121 1.54-1.503 1.66-1.532.195-.048.463.002.591.111zM.097 7.532a.336.336 0 000 .474c.098.092.168.095 2.622.095h2.522l.11-.11c.138-.137.14-.315.007-.45l-.103-.104H2.727c-2.46 0-2.53.003-2.63.095zm.155 3.253c-.058.069-.105.162-.105.207 0 .045.047.138.105.207l.105.124H4.29c4.41 0 4.158.02 4.158-.331 0-.352.252-.332-4.158-.332H.358l-.105.125zm11.967.586c.216.247.425.486.465.529.064.07-.006.198-.623 1.153-.383.591-.75 1.108-.818 1.15-.172.106-6.217 1.625-6.479 1.628-.725.009-1.008-.84-.413-1.244.068-.047 1.33-.386 2.805-.754 1.476-.368 2.796-.7 2.936-.737l.253-.067.703-1.092c.387-.6.72-1.075.74-1.054.02.02.215.24.43.488zM.098 13.977a.336.336 0 000 .474c.091.086.168.095.804.095.607 0 .718-.012.818-.087.142-.108.154-.346.023-.481-.084-.087-.155-.095-.818-.095-.659 0-.736.009-.827.094zm0 3.223a.337.337 0 000 .474c.095.09.168.095 1.261.095h1.16l.105-.125c.133-.158.133-.256 0-.414l-.105-.125H1.36c-1.093 0-1.166.006-1.261.095zm0 3.223a.336.336 0 000 .474c.1.093.168.094 6.349.094h6.248l.103-.103a.3.3 0 00-.014-.457l-.117-.103H6.433c-6.167 0-6.235 0-6.335.095z" fill="#fff"/></svg>