<svg width="21" height="21" fill="none" xmlns="http://www.w3.org/2000/svg"><path fill-rule="evenodd" clip-rule="evenodd" d="M14.102 1.05c-.583.09-.931.197-1.477.452-.799.375-1.393.915-1.703 1.547l-.143.291-.015 1.424-.014 1.424h-.507c-.673 0-.828.075-.825.397.004.284.189.366.827.366h.51v5.126c0 5.598-.008 5.4.266 5.856.32.531 1.127 1.184 1.813 1.466 1.376.565 3.274.572 4.62.017.893-.369 1.696-1.085 2.007-1.79.085-.194.089-.384.101-5.438l.012-5.237h.58c.58 0 .58 0 .715-.131.175-.17.175-.33 0-.5-.135-.131-.136-.132-.716-.132h-.58l-.001-1.312c0-1.631-.031-1.77-.527-2.376-.605-.738-1.66-1.277-2.842-1.45-.529-.077-1.593-.077-2.1 0zm2.177.765c.94.173 1.732.595 2.183 1.163.34.428.343.444.363 1.809.01.672.009 1.222-.002 1.222-.012 0-.143-.041-.293-.092-.412-.14-1.315-.347-1.887-.434-.703-.107-2.205-.105-2.924.004-.582.089-1.46.29-1.874.43-.15.05-.29.092-.312.092-.053 0-.048-2.069.006-2.391.084-.497.658-1.105 1.362-1.442a5.453 5.453 0 011.525-.425 8.02 8.02 0 011.853.064zm.21 4.4c.782.105 2.119.454 2.112.55-.006.09-1.154 1.732-1.205 1.726a2.741 2.741 0 01-.34-.12c-.504-.205-.98-.274-1.892-.274-.912 0-1.388.069-1.893.273a2.698 2.698 0 01-.34.12c-.053.007-1.202-1.638-1.205-1.726-.001-.038.597-.23 1.084-.347a15.43 15.43 0 011.385-.243c.408-.05 1.82-.024 2.294.04zm-4.516 2.3l.444.666v4.185l-.253 1.149c-.282 1.276-.282 1.299.014 1.466.24.136 1.098.416 1.627.531.643.14 2.012.151 2.629.022a9.375 9.375 0 001.545-.477c.489-.213.486-.187.185-1.532l-.253-1.133V9.179l.45-.676.45-.676.013.56c.007.308.007 2.427 0 4.71l-.013 4.148-.105.206c-.151.3-.564.722-.945.968-1.387.896-3.811.9-5.182.009-.4-.26-.8-.666-.952-.966l-.11-.217-.013-4.698c-.007-2.585-.004-4.699.006-4.699s.219.3.463.667zm-8.912-.236c-.12.116-.12.12-.093.639.084 1.576.906 3.148 2.185 4.176a8.1 8.1 0 00.797.558c.859.503 2.047.835 2.988.835.255 0 .315-.016.412-.11.147-.144.15-.352.005-.493-.089-.086-.175-.11-.496-.135-1.184-.092-2.117-.415-2.962-1.023A5.117 5.117 0 014.27 10.83c-.308-.603-.468-1.167-.541-1.906-.047-.48-.07-.576-.159-.662-.143-.14-.357-.133-.51.016zm2.54-.016c-.145.156-.159.24-.106.656.124.978.71 1.946 1.5 2.473.572.383 1.289.62 1.904.632.328.007.358-.001.458-.113.242-.274.055-.608-.342-.61-1.23-.004-2.42-.949-2.711-2.152a2.638 2.638 0 01-.071-.485c-.001-.215-.097-.432-.211-.474-.152-.057-.33-.026-.422.073zm2.155-.012c-.13.126-.156.275-.096.547.137.62.705 1.106 1.316 1.127.207.007.269-.01.368-.1a.337.337 0 00.028-.485c-.095-.1-.151-.121-.423-.166-.296-.048-.548-.318-.548-.587a.49.49 0 00-.18-.367c-.115-.086-.362-.07-.465.03zm8.729.705c.168.048.375.128.462.176l.156.09.012 2 .012 2.002-.243.11c-.438.2-.907.275-1.72.275s-1.282-.075-1.72-.274l-.242-.11v-4.02l.266-.113c.146-.063.38-.136.519-.163a20.9 20.9 0 00.346-.069c.051-.01.487-.013.97-.005.701.011.938.032 1.182.101zm-2.357 5.332c.881.149 2.446.027 2.958-.23.078-.04.152-.061.165-.048.013.013.093.332.177.709.114.51.14.695.099.72-.114.072-.906.3-1.303.376-.557.106-1.563.106-2.12 0-.397-.076-1.189-.304-1.303-.376-.04-.026-.02-.192.082-.662.076-.345.148-.66.16-.7.021-.066.055-.063.336.032.172.058.51.139.749.179zm-10.804.4c-1.326.216-2.385.814-2.976 1.68-.343.504-.348.54-.348 2.592v1.81l.113.11c.15.146.362.146.512 0l.114-.11v-1.682c0-1.052.019-1.768.05-1.911.1-.453.688-1.045 1.352-1.362 1.242-.594 3.175-.616 4.402-.052.609.28 1.08.667 1.344 1.1l.122.203.023 1.846.023 1.847.112.116c.15.155.381.157.539.003l.116-.112-.014-1.873c-.017-2.147-.006-2.088-.46-2.673-.56-.724-1.46-1.238-2.6-1.488-.463-.102-1.91-.128-2.424-.044z" fill="#fff"/></svg>