<svg width="18" height="19" fill="none" xmlns="http://www.w3.org/2000/svg"><path fill-rule="evenodd" clip-rule="evenodd" d="M7.921 1.035C4.546 1.42 1.537 3.863.461 7.09.104 8.17-.03 9.098.007 10.276c.051 1.71.523 3.203 1.47 4.656l.294.45-.093.207c-.267.595.041 1.356.658 1.628.295.13.738.131.981.005l.174-.09.537.354a8.991 8.991 0 007.846 1.037c2.311-.772 4.267-2.528 5.303-4.76.794-1.71 1.024-3.698.647-5.594-.315-1.587-1.18-3.24-2.292-4.384-.23-.237-.274-.264-.426-.264-.167 0-.2.03-2.748 2.572l-2.58 2.573-.19-.09c-.152-.072-.27-.09-.591-.09-.347 0-.434.015-.643.113a1.648 1.648 0 00-.745.745c-.097.208-.113.295-.113.642 0 .346.016.434.113.642.144.307.438.601.745.745.208.097.296.113.643.113.346 0 .434-.016.642-.113.307-.144.601-.438.745-.745.098-.208.113-.295.113-.642 0-.321-.018-.44-.09-.597l-.09-.195.63-.629.633-.629.103.127c.15.184.427.762.506 1.057.095.353.128 1.087.064 1.426l-.052.274-.263.021c-.842.068-1.392.849-1.134 1.61l.084.247-.188.12c-.451.286-1.116.464-1.733.463C7.166 13.28 5.7 11.801 5.7 9.986A3.3 3.3 0 018.43 6.73c.36-.063 1.084-.034 1.39.055.644.187.601.182.728.088.29-.217.2-.515-.204-.677-.626-.252-1.71-.297-2.405-.1-1.377.39-2.436 1.457-2.84 2.858-.082.287-.096.432-.096 1.03 0 .6.014.746.097 1.036.4 1.403 1.494 2.492 2.873 2.859.494.131 1.311.152 1.826.045a4.009 4.009 0 001.331-.533l.28-.18.24.081c.424.144.893.024 1.23-.314.253-.252.36-.506.361-.86.002-.33-.054-.502-.255-.782l-.137-.19.067-.232c.05-.17.067-.417.067-.93 0-.589-.014-.749-.093-1.034-.113-.41-.407-1.021-.633-1.316l-.167-.216.63-.629.63-.628.105.126c.229.274.658.949.794 1.248.395.866.513 1.431.514 2.45.002 1.064-.13 1.658-.567 2.556-.769 1.582-2.251 2.733-4.028 3.128-.474.106-1.528.13-2.05.047a6.156 6.156 0 01-2.376-.935c-.499-.331-1.248-1.1-1.598-1.64a5.788 5.788 0 01-.205-5.977c.148-.265.183-.302.258-.275.048.018.239.032.425.032.294-.001.367-.017.563-.125.268-.148.407-.302.548-.608.114-.25.14-.648.054-.867-.06-.155-.054-.16.652-.511.926-.462 1.725-.637 2.747-.602a5.613 5.613 0 012.492.643c.249.128.506.232.572.232.173 0 .354-.224.32-.396-.039-.193-.123-.26-.676-.533-.913-.45-1.63-.629-2.666-.664-1.31-.044-2.407.23-3.512.873l-.433.253-.203-.09c-.59-.26-1.363.041-1.635.638-.13.284-.125.761.01 1.049l.1.215-.087.122c-.157.22-.514.975-.64 1.353-.253.755-.316 1.176-.315 2.082 0 .692.016.895.096 1.267.284 1.326.85 2.368 1.8 3.319.948.948 1.978 1.51 3.304 1.802.35.077.554.092 1.283.093.742.002.928-.011 1.297-.092 2.003-.437 3.64-1.698 4.534-3.495.474-.953.632-1.598.664-2.704.025-.851-.049-1.447-.263-2.134-.218-.7-.733-1.646-1.185-2.18l-.182-.214.63-.63c.384-.382.645-.612.667-.587 2.529 2.836 2.83 6.998.734 10.14a8.296 8.296 0 01-6.007 3.657c-.872.1-2.042.014-2.939-.216a9.012 9.012 0 01-2.53-1.125c-.411-.275-.415-.279-.38-.41a2.39 2.39 0 00.034-.449c-.001-.243-.023-.358-.095-.495a1.341 1.341 0 00-.565-.585c-.202-.111-.26-.123-.563-.117a6.36 6.36 0 00-.444.021c-.09.012-.14-.036-.348-.345a9.39 9.39 0 01-.877-1.753 8.301 8.301 0 01.923-7.357C3.667 3.065 6.21 1.704 8.996 1.704c1.612 0 3.082.427 4.475 1.3.497.312.64.34.797.158.131-.153.123-.338-.022-.481-.172-.171-.854-.581-1.395-.839a9.305 9.305 0 00-2.84-.813c-.425-.052-1.617-.048-2.09.006zM4.879 5.238c.144.095.229.272.229.479 0 .363-.428.617-.756.447-.372-.192-.395-.74-.04-.938.139-.077.441-.07.567.012zM9.452 9.32c.498.33.443 1.123-.097 1.384a.842.842 0 01-.817-.053c-.49-.325-.442-1.113.084-1.38a.866.866 0 01.83.049zm2.796 2.307c.305.163.372.538.145.807-.43.51-1.202-.095-.835-.655.143-.219.442-.285.69-.152zm-9.19 3.955c.08.034.184.124.231.2a.531.531 0 11-.835-.08c.172-.186.358-.223.604-.12z" fill="#fff"/></svg>