<svg width="52" height="40" fill="none" xmlns="http://www.w3.org/2000/svg"><g opacity=".3" fill-rule="evenodd" clip-rule="evenodd"><path d="M6.998.214a2.802 2.802 0 00-1.383 1.384c-.22.473-.24.647-.241 2.13l-.001 1.615-1.702.036c-1.52.031-1.747.06-2.122.262-.534.289-.999.76-1.285 1.304l-.225.426-.027 11.1c-.027 11.012-.025 11.104.184 11.67.15.41.356.705.722 1.04.664.605 1.24.778 2.59.778h1.045l.029 3.772.029 3.772.285.248a.974.974 0 00.688.249c.412 0 1.477-.782 9.55-7.01l1.337-1.031H42.56l1.597 1.22c.878.67 1.697 1.274 1.819 1.34.283.153.562.152.898-.003.539-.25.556-.382.556-4.346v-3.655l1.354-.036c1.3-.034 1.374-.048 1.854-.348.543-.34 1.092-1.072 1.258-1.68.068-.247.104-4.156.105-11.21 0-11.993.028-11.469-.658-12.283a3.371 3.371 0 00-.886-.691L49.93 0 28.692.002C7.554.005 7.452.005 6.998.214zm42.767 2.054c.201.204.204.341.2 10.954-.003 9.416-.022 10.773-.156 10.953-.14.19-.305.21-1.986.258l-1.833.052-.297.336-.296.337v6.395l-1.854-1.427c-6.187-4.766-7.286-5.58-7.61-5.64-.186-.034-2.983-.049-6.214-.032l-5.875.03-.296.337c-.405.46-.405.961 0 1.372l.297.302H35.45l2.176 1.675 2.177 1.675-12.06.053c-6.632.029-12.064.064-12.07.077-.006.014-2.04 1.581-4.52 3.483l-4.51 3.458-.05-3.175c-.053-3.298-.082-3.51-.504-3.739-.11-.06-.926-.105-1.882-.105-1.656 0-1.692-.005-1.936-.253l-.25-.253V7.929l.25-.253c.24-.245.296-.253 1.673-.253h1.425l.028 8.582c.025 7.983.04 8.606.207 8.916.314.583.819 1.084 1.343 1.332.506.238.532.24 4.541.24l4.033.002.266-.232c.177-.155.284-.374.322-.656.048-.367.015-.47-.252-.773l-.308-.35-3.928-.051c-3.74-.05-3.935-.061-4.072-.252-.122-.17-.144-1.83-.144-10.93 0-9.545.018-10.756.158-10.96l.158-.23h20.921c20.786 0 20.923.002 21.124.207zM38.047 5.524c-2.935.721-5.027 3.904-4.807 7.312.236 3.649 2.904 6.476 6.113 6.476.987 0 1.687-.187 2.683-.718l.855-.456 1.086 1.086c.97.97 1.124 1.085 1.448 1.085.695 0 1.269-.792.984-1.36-.066-.13-.58-.71-1.14-1.287l-1.022-1.05.362-.703c1.302-2.53 1.137-5.582-.423-7.836-1.47-2.125-3.848-3.112-6.139-2.549zm-26.486.963l-.296.301v12.919l.296.3c.406.412.9.412 1.353.002l.331-.301.03-3.05.03-3.05h2.835c1.822 0 2.922-.04 3.077-.112.614-.283.728-1.16.216-1.65l-.26-.248-2.939-.03-2.938-.03V8.256l2.938-.03 2.938-.031.26-.249c.478-.455.443-1.15-.078-1.579-.196-.161-.561-.178-3.856-.18l-3.64-.002-.297.3zm13.952-.119c-.242.19-5.309 12.213-5.309 12.597 0 .343.23.735.523.888.61.32 1.16.083 1.488-.643.123-.274.493-1.148.82-1.942l.596-1.443 2.477-.027 2.477-.027.796 1.908C30.237 19.73 30.43 20 31.044 20c.491 0 .944-.467.944-.973 0-.531-4.887-12.292-5.24-12.61-.313-.282-.907-.306-1.235-.049zM40.89 7.794c2.097 1.006 3.129 3.984 2.24 6.465-.139.387-.281.732-.316.768-.035.036-.487-.361-1.003-.883-1.181-1.194-1.668-1.361-2.247-.773-.196.199-.262.371-.262.688 0 .397.06.483 1.029 1.47.565.576.999 1.095.963 1.154-.151.248-1.235.559-1.941.556-1.312-.004-2.5-.713-3.291-1.965-1.437-2.272-.867-5.716 1.182-7.146 1.094-.765 2.483-.892 3.646-.334zm-13.888 4.165l.704 1.7-1.53.03c-.842.015-1.552.006-1.579-.021-.04-.04.326-.963 1.375-3.462.137-.327.16-.341.239-.154.048.113.404.971.791 1.907zM19.33 24.532c-.662.278-.849 1.157-.352 1.662.745.755 1.993.003 1.662-1.003-.165-.501-.857-.85-1.31-.66z" fill="url(#paint0_linear_1710_4848)"/><path d="M6.998.214a2.802 2.802 0 00-1.383 1.384c-.22.473-.24.647-.241 2.13l-.001 1.615-1.702.036c-1.52.031-1.747.06-2.122.262-.534.289-.999.76-1.285 1.304l-.225.426-.027 11.1c-.027 11.012-.025 11.104.184 11.67.15.41.356.705.722 1.04.664.605 1.24.778 2.59.778h1.045l.029 3.772.029 3.772.285.248a.974.974 0 00.688.249c.412 0 1.477-.782 9.55-7.01l1.337-1.031H42.56l1.597 1.22c.878.67 1.697 1.274 1.819 1.34.283.153.562.152.898-.003.539-.25.556-.382.556-4.346v-3.655l1.354-.036c1.3-.034 1.374-.048 1.854-.348.543-.34 1.092-1.072 1.258-1.68.068-.247.104-4.156.105-11.21 0-11.993.028-11.469-.658-12.283a3.371 3.371 0 00-.886-.691L49.93 0 28.692.002C7.554.005 7.452.005 6.998.214zm42.767 2.054c.201.204.204.341.2 10.954-.003 9.416-.022 10.773-.156 10.953-.14.19-.305.21-1.986.258l-1.833.052-.297.336-.296.337v6.395l-1.854-1.427c-6.187-4.766-7.286-5.58-7.61-5.64-.186-.034-2.983-.049-6.214-.032l-5.875.03-.296.337c-.405.46-.405.961 0 1.372l.297.302H35.45l2.176 1.675 2.177 1.675-12.06.053c-6.632.029-12.064.064-12.07.077-.006.014-2.04 1.581-4.52 3.483l-4.51 3.458-.05-3.175c-.053-3.298-.082-3.51-.504-3.739-.11-.06-.926-.105-1.882-.105-1.656 0-1.692-.005-1.936-.253l-.25-.253V7.929l.25-.253c.24-.245.296-.253 1.673-.253h1.425l.028 8.582c.025 7.983.04 8.606.207 8.916.314.583.819 1.084 1.343 1.332.506.238.532.24 4.541.24l4.033.002.266-.232c.177-.155.284-.374.322-.656.048-.367.015-.47-.252-.773l-.308-.35-3.928-.051c-3.74-.05-3.935-.061-4.072-.252-.122-.17-.144-1.83-.144-10.93 0-9.545.018-10.756.158-10.96l.158-.23h20.921c20.786 0 20.923.002 21.124.207zM38.047 5.524c-2.935.721-5.027 3.904-4.807 7.312.236 3.649 2.904 6.476 6.113 6.476.987 0 1.687-.187 2.683-.718l.855-.456 1.086 1.086c.97.97 1.124 1.085 1.448 1.085.695 0 1.269-.792.984-1.36-.066-.13-.58-.71-1.14-1.287l-1.022-1.05.362-.703c1.302-2.53 1.137-5.582-.423-7.836-1.47-2.125-3.848-3.112-6.139-2.549zm-26.486.963l-.296.301v12.919l.296.3c.406.412.9.412 1.353.002l.331-.301.03-3.05.03-3.05h2.835c1.822 0 2.922-.04 3.077-.112.614-.283.728-1.16.216-1.65l-.26-.248-2.939-.03-2.938-.03V8.256l2.938-.03 2.938-.031.26-.249c.478-.455.443-1.15-.078-1.579-.196-.161-.561-.178-3.856-.18l-3.64-.002-.297.3zm13.952-.119c-.242.19-5.309 12.213-5.309 12.597 0 .343.23.735.523.888.61.32 1.16.083 1.488-.643.123-.274.493-1.148.82-1.942l.596-1.443 2.477-.027 2.477-.027.796 1.908C30.237 19.73 30.43 20 31.044 20c.491 0 .944-.467.944-.973 0-.531-4.887-12.292-5.24-12.61-.313-.282-.907-.306-1.235-.049zM40.89 7.794c2.097 1.006 3.129 3.984 2.24 6.465-.139.387-.281.732-.316.768-.035.036-.487-.361-1.003-.883-1.181-1.194-1.668-1.361-2.247-.773-.196.199-.262.371-.262.688 0 .397.06.483 1.029 1.47.565.576.999 1.095.963 1.154-.151.248-1.235.559-1.941.556-1.312-.004-2.5-.713-3.291-1.965-1.437-2.272-.867-5.716 1.182-7.146 1.094-.765 2.483-.892 3.646-.334zm-13.888 4.165l.704 1.7-1.53.03c-.842.015-1.552.006-1.579-.021-.04-.04.326-.963 1.375-3.462.137-.327.16-.341.239-.154.048.113.404.971.791 1.907zM19.33 24.532c-.662.278-.849 1.157-.352 1.662.745.755 1.993.003 1.662-1.003-.165-.501-.857-.85-1.31-.66z" fill="#fff"/></g><defs><linearGradient id="paint0_linear_1710_4848" x1="0" y1="0" x2="39.386" y2="51.452" gradientUnits="userSpaceOnUse"><stop stop-color="#0ABD92"/><stop offset="1" stop-color="#009DB8"/></linearGradient></defs></svg>