<svg width="41" height="36" fill="none" xmlns="http://www.w3.org/2000/svg"><g opacity=".3" fill-rule="evenodd" clip-rule="evenodd"><path d="M7.136.076c-.52.12-.673.374-1.569 2.6l-.842 2.095v4.403c0 4.168.007 4.41.146 4.533.202.177.619.163.815-.027.156-.152.16-.26.16-4.16V5.518h12.412v4.396c0 4.737-.005 4.68.418 4.967.185.126.587.16.831.069.078-.03.828-.646 1.668-1.37.84-.724 1.571-1.334 1.625-1.354.054-.02.702.482 1.441 1.117 2.037 1.748 1.917 1.66 2.232 1.66.369 0 .699-.173.818-.426.07-.15.096-1.364.096-4.631V5.517h12.412v12.868c0 14.33.048 13.167-.549 13.328-.364.098-10.902.11-10.902.012 0-.037.266-.084.592-.105.905-.056 1.469-.424 1.82-1.189a1.97 1.97 0 00-.503-2.333l-.323-.283.163-.169c.429-.443.633-1.467.408-2.048-.141-.366-.473-.78-.782-.977-.162-.103-2.358-1.003-4.88-2-2.523-.997-4.575-1.823-4.56-1.837.013-.014 1.008-.32 2.21-.683 1.254-.377 2.317-.742 2.494-.856.608-.39.933-1.298.728-2.032-.1-.361-.56-.918-.895-1.087-.558-.28-.927-.286-2.158-.034-6.373 1.3-9.669 1.895-11.828 2.136-1.385.154-1.677.14-1.637-.078.153-.833.06-1.209-.367-1.498-.282-.19-3.616-1.495-3.821-1.495-.326 0-.848.322-1.004.62C3.639 16.474 0 25.262 0 25.45c0 .274.18.673.38.847.232.2 3.44 1.464 3.83 1.51.394.046.755-.114 1.009-.447.097-.127.227-.232.29-.232.209 0 1.468.615 1.968.962.272.188.848.713 1.28 1.166.432.453 1.026 1 1.32 1.216.49.36 1.492.9 2.175 1.17.252.1-.022.114-2.674.132-3.85.027-3.729.075-3.731-1.508-.001-.725-.025-.895-.149-1.043-.182-.219-.584-.236-.812-.036-.147.13-.161.238-.16 1.199 0 .95.02 1.097.191 1.454.105.22.314.49.464.6.61.453.46.44 5.454.44h4.595l3.943 1.56c3.69 1.46 3.976 1.56 4.45 1.56 1.118 0 2.042-.857 2.042-1.893v-.272l.46-.051c.568-.064 1.25-.376 1.48-.677l.172-.226h5.69c3.86 0 5.794-.028 6.012-.086.421-.111 1.088-.77 1.223-1.206.076-.247.098-3.307.098-13.53V4.852l-.872-2.16c-.48-1.188-.951-2.241-1.048-2.34-.096-.1-.332-.22-.524-.268-.45-.11-3.06-.111-3.382-.002-.45.152-.52.787-.109 1 .096.05.76.083 1.676.083h1.518l.38.952c.21.524.498 1.239.642 1.589.144.35.24.656.216.68-.025.024-2.777.044-6.116.044H27.31l-.043-.175-.386-1.613-.345-1.438 2.363-.02c2.297-.02 2.369-.026 2.548-.19.326-.296.21-.761-.227-.91-.3-.1-23.641-.108-24.084-.007zM19.14 1.21c0 .103-.726 3.086-.766 3.15-.052.081-12.207.096-12.207.014 0-.05.906-2.349 1.165-2.957l.108-.253h5.85c3.217 0 5.85.02 5.85.046zm6.572 1.548c.206.855.359 1.58.34 1.613-.052.086-6.432.072-6.432-.014 0-.04.162-.753.36-1.587.199-.833.36-1.536.36-1.561 0-.026 1.125-.038 2.5-.027l2.498.02.374 1.556zm.555 6.772c0 3.757-.009 4.007-.136 3.907-.074-.059-.66-.557-1.3-1.108a53.424 53.424 0 00-1.425-1.193c-.306-.228-.731-.253-1.034-.06-.188.119-2.007 1.658-2.652 2.243l-.26.236V5.517h6.807V9.53zM6.67 16.968c1.241.487 1.421.58 1.395.715-.04.2-3.664 8.84-3.746 8.93-.085.093-3.131-1.117-3.101-1.232.013-.05.87-2.11 1.905-4.576 1.475-3.513 1.908-4.474 2.002-4.44.066.024.761.295 1.545.603zm17.589.169c.45.226.459.97.013 1.203-.091.047-1.446.47-3.011.941-1.566.47-2.934.895-3.042.942-.243.108-.362.422-.264.697.09.254-.222.12 5.948 2.558 2.731 1.079 5.062 2.027 5.18 2.108.456.31.462 1.04.012 1.384-.453.345-.456.344-4.349-1.198-2.002-.793-3.72-1.442-3.815-1.442-.465 0-.72.616-.384.93.084.079 2.081.904 4.437 1.832 2.993 1.18 4.354 1.754 4.513 1.903.166.154.241.312.27.57.04.33.02.379-.24.632-.265.257-.428.312-.819.278-.088-.008-2.117-.788-4.51-1.733-4.704-1.858-4.622-1.835-4.889-1.374-.173.299-.063.586.291.76.165.081 1.65.68 3.302 1.332 3.919 1.545 3.964 1.565 4.118 1.855.333.625-.114 1.333-.842 1.333-.095 0-1.808-.648-3.808-1.439-2-.79-3.684-1.438-3.743-1.438-.059 0-.202.073-.318.162-.258.196-.289.601-.062.8.082.073 1.443.643 3.023 1.268s2.97 1.201 3.088 1.281c.255.173.419.6.348.91-.027.122-.155.32-.283.439-.45.417-.388.436-6.566-2.012-3.105-1.23-5.861-2.343-6.126-2.473-.665-.326-1.114-.66-1.721-1.281-1.523-1.555-2.263-2.1-3.539-2.607l-.616-.245.12-.278c.066-.153.626-1.485 1.245-2.96A517 517 0 018.5 19.74l.154-.353.751.031c.945.04 1.853-.06 4.569-.501 1.934-.315 7.142-1.322 8.928-1.726.841-.19 1.067-.2 1.357-.054z" fill="url(#paint0_linear_1710_4875)"/><path d="M7.136.076c-.52.12-.673.374-1.569 2.6l-.842 2.095v4.403c0 4.168.007 4.41.146 4.533.202.177.619.163.815-.027.156-.152.16-.26.16-4.16V5.518h12.412v4.396c0 4.737-.005 4.68.418 4.967.185.126.587.16.831.069.078-.03.828-.646 1.668-1.37.84-.724 1.571-1.334 1.625-1.354.054-.02.702.482 1.441 1.117 2.037 1.748 1.917 1.66 2.232 1.66.369 0 .699-.173.818-.426.07-.15.096-1.364.096-4.631V5.517h12.412v12.868c0 14.33.048 13.167-.549 13.328-.364.098-10.902.11-10.902.012 0-.037.266-.084.592-.105.905-.056 1.469-.424 1.82-1.189a1.97 1.97 0 00-.503-2.333l-.323-.283.163-.169c.429-.443.633-1.467.408-2.048-.141-.366-.473-.78-.782-.977-.162-.103-2.358-1.003-4.88-2-2.523-.997-4.575-1.823-4.56-1.837.013-.014 1.008-.32 2.21-.683 1.254-.377 2.317-.742 2.494-.856.608-.39.933-1.298.728-2.032-.1-.361-.56-.918-.895-1.087-.558-.28-.927-.286-2.158-.034-6.373 1.3-9.669 1.895-11.828 2.136-1.385.154-1.677.14-1.637-.078.153-.833.06-1.209-.367-1.498-.282-.19-3.616-1.495-3.821-1.495-.326 0-.848.322-1.004.62C3.639 16.474 0 25.262 0 25.45c0 .274.18.673.38.847.232.2 3.44 1.464 3.83 1.51.394.046.755-.114 1.009-.447.097-.127.227-.232.29-.232.209 0 1.468.615 1.968.962.272.188.848.713 1.28 1.166.432.453 1.026 1 1.32 1.216.49.36 1.492.9 2.175 1.17.252.1-.022.114-2.674.132-3.85.027-3.729.075-3.731-1.508-.001-.725-.025-.895-.149-1.043-.182-.219-.584-.236-.812-.036-.147.13-.161.238-.16 1.199 0 .95.02 1.097.191 1.454.105.22.314.49.464.6.61.453.46.44 5.454.44h4.595l3.943 1.56c3.69 1.46 3.976 1.56 4.45 1.56 1.118 0 2.042-.857 2.042-1.893v-.272l.46-.051c.568-.064 1.25-.376 1.48-.677l.172-.226h5.69c3.86 0 5.794-.028 6.012-.086.421-.111 1.088-.77 1.223-1.206.076-.247.098-3.307.098-13.53V4.852l-.872-2.16c-.48-1.188-.951-2.241-1.048-2.34-.096-.1-.332-.22-.524-.268-.45-.11-3.06-.111-3.382-.002-.45.152-.52.787-.109 1 .096.05.76.083 1.676.083h1.518l.38.952c.21.524.498 1.239.642 1.589.144.35.24.656.216.68-.025.024-2.777.044-6.116.044H27.31l-.043-.175-.386-1.613-.345-1.438 2.363-.02c2.297-.02 2.369-.026 2.548-.19.326-.296.21-.761-.227-.91-.3-.1-23.641-.108-24.084-.007zM19.14 1.21c0 .103-.726 3.086-.766 3.15-.052.081-12.207.096-12.207.014 0-.05.906-2.349 1.165-2.957l.108-.253h5.85c3.217 0 5.85.02 5.85.046zm6.572 1.548c.206.855.359 1.58.34 1.613-.052.086-6.432.072-6.432-.014 0-.04.162-.753.36-1.587.199-.833.36-1.536.36-1.561 0-.026 1.125-.038 2.5-.027l2.498.02.374 1.556zm.555 6.772c0 3.757-.009 4.007-.136 3.907-.074-.059-.66-.557-1.3-1.108a53.424 53.424 0 00-1.425-1.193c-.306-.228-.731-.253-1.034-.06-.188.119-2.007 1.658-2.652 2.243l-.26.236V5.517h6.807V9.53zM6.67 16.968c1.241.487 1.421.58 1.395.715-.04.2-3.664 8.84-3.746 8.93-.085.093-3.131-1.117-3.101-1.232.013-.05.87-2.11 1.905-4.576 1.475-3.513 1.908-4.474 2.002-4.44.066.024.761.295 1.545.603zm17.589.169c.45.226.459.97.013 1.203-.091.047-1.446.47-3.011.941-1.566.47-2.934.895-3.042.942-.243.108-.362.422-.264.697.09.254-.222.12 5.948 2.558 2.731 1.079 5.062 2.027 5.18 2.108.456.31.462 1.04.012 1.384-.453.345-.456.344-4.349-1.198-2.002-.793-3.72-1.442-3.815-1.442-.465 0-.72.616-.384.93.084.079 2.081.904 4.437 1.832 2.993 1.18 4.354 1.754 4.513 1.903.166.154.241.312.27.57.04.33.02.379-.24.632-.265.257-.428.312-.819.278-.088-.008-2.117-.788-4.51-1.733-4.704-1.858-4.622-1.835-4.889-1.374-.173.299-.063.586.291.76.165.081 1.65.68 3.302 1.332 3.919 1.545 3.964 1.565 4.118 1.855.333.625-.114 1.333-.842 1.333-.095 0-1.808-.648-3.808-1.439-2-.79-3.684-1.438-3.743-1.438-.059 0-.202.073-.318.162-.258.196-.289.601-.062.8.082.073 1.443.643 3.023 1.268s2.97 1.201 3.088 1.281c.255.173.419.6.348.91-.027.122-.155.32-.283.439-.45.417-.388.436-6.566-2.012-3.105-1.23-5.861-2.343-6.126-2.473-.665-.326-1.114-.66-1.721-1.281-1.523-1.555-2.263-2.1-3.539-2.607l-.616-.245.12-.278c.066-.153.626-1.485 1.245-2.96A517 517 0 018.5 19.74l.154-.353.751.031c.945.04 1.853-.06 4.569-.501 1.934-.315 7.142-1.322 8.928-1.726.841-.19 1.067-.2 1.357-.054z" fill="#fff"/></g><defs><linearGradient id="paint0_linear_1710_4875" x1="0" y1="0" x2="36.389" y2="41.646" gradientUnits="userSpaceOnUse"><stop stop-color="#0ABD92"/><stop offset="1" stop-color="#009DB8"/></linearGradient></defs></svg>