<svg width="46" height="41" fill="none" xmlns="http://www.w3.org/2000/svg"><path fill-rule="evenodd" clip-rule="evenodd" d="M8.007.087c-.583.135-.756.425-1.76 2.96L5.3 5.435v5.015c0 4.746.009 5.023.164 5.161.226.202.694.186.914-.03.175-.173.18-.295.18-4.737v-4.56h13.925v5.007c0 5.395-.005 5.33.47 5.657.207.143.659.181.932.078.087-.033.93-.735 1.872-1.56.942-.825 1.762-1.519 1.822-1.542.06-.023.789.549 1.618 1.272 2.284 1.991 2.15 1.89 2.503 1.89.414 0 .785-.196.918-.485.08-.171.108-1.553.108-5.274V6.284h13.925v14.655c0 16.32.054 14.995-.615 15.178-.408.112-12.232.126-12.232.014 0-.042.299-.096.664-.119 1.016-.064 1.648-.484 2.042-1.354A2.268 2.268 0 0033.947 32l-.363-.323.183-.192c.481-.505.71-1.67.458-2.333-.158-.416-.53-.887-.878-1.112-.181-.117-2.645-1.142-5.475-2.278-2.83-1.135-5.132-2.077-5.116-2.093.015-.015 1.132-.365 2.48-.777 1.407-.43 2.6-.845 2.798-.975.682-.444 1.047-1.478.817-2.315-.113-.41-.627-1.045-1.004-1.237-.626-.319-1.04-.325-2.421-.04-7.15 1.482-10.848 2.16-13.27 2.433-1.555.176-1.882.16-1.837-.089.171-.948.068-1.376-.412-1.706-.316-.217-4.057-1.702-4.287-1.702-.366 0-.951.367-1.127.707C4.083 18.76 0 28.77 0 28.984c0 .313.201.767.427.965.26.228 3.858 1.668 4.297 1.72.442.052.847-.13 1.131-.509.11-.145.256-.264.325-.264.235 0 1.648.7 2.209 1.095.305.215.952.813 1.436 1.329.485.516 1.151 1.139 1.48 1.384.551.41 1.675 1.025 2.441 1.333.282.114-.024.13-3 .15-4.319.03-4.184.086-4.186-1.718-.001-.825-.028-1.019-.167-1.188-.205-.248-.655-.268-.911-.04-.165.147-.181.27-.18 1.365 0 1.081.022 1.25.215 1.657.117.249.352.556.52.683.686.515.517.502 6.12.502h5.154l4.425 1.776c4.14 1.662 4.46 1.776 4.992 1.776 1.254 0 2.291-.976 2.291-2.156v-.31l.517-.058c.637-.072 1.403-.428 1.66-.771l.193-.257 6.385-.001c4.329 0 6.5-.032 6.744-.097.472-.127 1.221-.877 1.372-1.373.085-.282.11-3.767.11-15.409V5.524l-.978-2.46C44.483 1.713 43.955.513 43.846.4c-.108-.114-.373-.25-.588-.304-.504-.125-3.433-.127-3.795-.003-.505.173-.582.897-.122 1.14.108.057.853.094 1.88.094h1.703l.427 1.084c.235.597.559 1.411.72 1.81.161.398.27.747.243.774-.028.028-3.116.05-6.862.05H30.64l-.047-.199-.434-1.837-.387-1.638 2.651-.023c2.577-.023 2.658-.03 2.859-.215.365-.339.236-.868-.254-1.036C34.69-.02 8.503-.03 8.007.086zm13.466 1.29c0 .119-.814 3.515-.86 3.588-.058.093-13.695.11-13.695.017 0-.056 1.017-2.675 1.308-3.369l.12-.287h6.563c3.61 0 6.564.023 6.564.052zm7.373 1.764c.231.974.403 1.8.381 1.837-.057.098-7.215.083-7.215-.016 0-.045.182-.858.404-1.807.222-.949.404-1.75.404-1.779 0-.029 1.262-.042 2.804-.03l2.803.024.42 1.77zm.623 7.713c0 4.279-.01 4.563-.152 4.449-.084-.067-.74-.635-1.46-1.261a59.866 59.866 0 00-1.598-1.36c-.343-.26-.82-.288-1.16-.068-.21.136-2.252 1.889-2.975 2.554l-.292.27V6.283h7.637v4.57zm-21.985 8.47c1.392.556 1.594.661 1.564.815-.044.228-4.11 10.068-4.202 10.17-.096.106-3.513-1.272-3.48-1.403.015-.058.977-2.402 2.138-5.21 1.654-4.002 2.14-5.097 2.246-5.058.074.027.854.336 1.734.687zm19.733.193c.506.258.515 1.106.015 1.37-.102.054-1.623.536-3.379 1.072s-3.291 1.019-3.412 1.073c-.273.122-.406.48-.297.794.1.29-.249.136 6.674 2.913 3.064 1.229 5.679 2.309 5.811 2.4.512.354.519 1.185.014 1.576-.508.394-.511.393-4.879-1.363-2.247-.904-4.173-1.643-4.28-1.643-.522 0-.807.701-.432 1.059.095.09 2.336 1.03 4.98 2.087 3.357 1.344 4.883 1.997 5.063 2.167.186.176.27.355.303.65.043.375.022.43-.27.719-.297.292-.48.355-.919.316-.099-.008-2.376-.896-5.06-1.973-5.278-2.116-5.186-2.09-5.485-1.565-.194.34-.07.668.327.866.184.092 1.851.775 3.704 1.516 4.396 1.76 4.448 1.783 4.62 2.113.374.712-.127 1.518-.944 1.518-.107 0-2.03-.737-4.273-1.638-2.243-.9-4.133-1.638-4.2-1.638-.066 0-.226.083-.357.184-.288.224-.323.685-.069.912.093.082 1.619.732 3.392 1.443 1.773.712 3.332 1.369 3.464 1.46.286.197.47.683.392 1.035-.031.14-.175.365-.319.5-.503.476-.435.497-7.366-2.29-3.483-1.402-6.576-2.67-6.873-2.817-.747-.372-1.25-.752-1.932-1.459-1.707-1.771-2.538-2.392-3.97-2.97l-.69-.278.134-.317c.074-.174.702-1.69 1.396-3.37.694-1.68 1.34-3.236 1.436-3.458l.173-.402.843.036c1.06.046 2.079-.067 5.126-.57 2.17-.36 8.013-1.506 10.017-1.967.944-.217 1.197-.227 1.522-.061z" fill="url(#paint0_linear_1710_4969)"/><path fill-rule="evenodd" clip-rule="evenodd" d="M8.007.087c-.583.135-.756.425-1.76 2.96L5.3 5.435v5.015c0 4.746.009 5.023.164 5.161.226.202.694.186.914-.03.175-.173.18-.295.18-4.737v-4.56h13.925v5.007c0 5.395-.005 5.33.47 5.657.207.143.659.181.932.078.087-.033.93-.735 1.872-1.56.942-.825 1.762-1.519 1.822-1.542.06-.023.789.549 1.618 1.272 2.284 1.991 2.15 1.89 2.503 1.89.414 0 .785-.196.918-.485.08-.171.108-1.553.108-5.274V6.284h13.925v14.655c0 16.32.054 14.995-.615 15.178-.408.112-12.232.126-12.232.014 0-.042.299-.096.664-.119 1.016-.064 1.648-.484 2.042-1.354A2.268 2.268 0 0033.947 32l-.363-.323.183-.192c.481-.505.71-1.67.458-2.333-.158-.416-.53-.887-.878-1.112-.181-.117-2.645-1.142-5.475-2.278-2.83-1.135-5.132-2.077-5.116-2.093.015-.015 1.132-.365 2.48-.777 1.407-.43 2.6-.845 2.798-.975.682-.444 1.047-1.478.817-2.315-.113-.41-.627-1.045-1.004-1.237-.626-.319-1.04-.325-2.421-.04-7.15 1.482-10.848 2.16-13.27 2.433-1.555.176-1.882.16-1.837-.089.171-.948.068-1.376-.412-1.706-.316-.217-4.057-1.702-4.287-1.702-.366 0-.951.367-1.127.707C4.083 18.76 0 28.77 0 28.984c0 .313.201.767.427.965.26.228 3.858 1.668 4.297 1.72.442.052.847-.13 1.131-.509.11-.145.256-.264.325-.264.235 0 1.648.7 2.209 1.095.305.215.952.813 1.436 1.329.485.516 1.151 1.139 1.48 1.384.551.41 1.675 1.025 2.441 1.333.282.114-.024.13-3 .15-4.319.03-4.184.086-4.186-1.718-.001-.825-.028-1.019-.167-1.188-.205-.248-.655-.268-.911-.04-.165.147-.181.27-.18 1.365 0 1.081.022 1.25.215 1.657.117.249.352.556.52.683.686.515.517.502 6.12.502h5.154l4.425 1.776c4.14 1.662 4.46 1.776 4.992 1.776 1.254 0 2.291-.976 2.291-2.156v-.31l.517-.058c.637-.072 1.403-.428 1.66-.771l.193-.257 6.385-.001c4.329 0 6.5-.032 6.744-.097.472-.127 1.221-.877 1.372-1.373.085-.282.11-3.767.11-15.409V5.524l-.978-2.46C44.483 1.713 43.955.513 43.846.4c-.108-.114-.373-.25-.588-.304-.504-.125-3.433-.127-3.795-.003-.505.173-.582.897-.122 1.14.108.057.853.094 1.88.094h1.703l.427 1.084c.235.597.559 1.411.72 1.81.161.398.27.747.243.774-.028.028-3.116.05-6.862.05H30.64l-.047-.199-.434-1.837-.387-1.638 2.651-.023c2.577-.023 2.658-.03 2.859-.215.365-.339.236-.868-.254-1.036C34.69-.02 8.503-.03 8.007.086zm13.466 1.29c0 .119-.814 3.515-.86 3.588-.058.093-13.695.11-13.695.017 0-.056 1.017-2.675 1.308-3.369l.12-.287h6.563c3.61 0 6.564.023 6.564.052zm7.373 1.764c.231.974.403 1.8.381 1.837-.057.098-7.215.083-7.215-.016 0-.045.182-.858.404-1.807.222-.949.404-1.75.404-1.779 0-.029 1.262-.042 2.804-.03l2.803.024.42 1.77zm.623 7.713c0 4.279-.01 4.563-.152 4.449-.084-.067-.74-.635-1.46-1.261a59.866 59.866 0 00-1.598-1.36c-.343-.26-.82-.288-1.16-.068-.21.136-2.252 1.889-2.975 2.554l-.292.27V6.283h7.637v4.57zm-21.985 8.47c1.392.556 1.594.661 1.564.815-.044.228-4.11 10.068-4.202 10.17-.096.106-3.513-1.272-3.48-1.403.015-.058.977-2.402 2.138-5.21 1.654-4.002 2.14-5.097 2.246-5.058.074.027.854.336 1.734.687zm19.733.193c.506.258.515 1.106.015 1.37-.102.054-1.623.536-3.379 1.072s-3.291 1.019-3.412 1.073c-.273.122-.406.48-.297.794.1.29-.249.136 6.674 2.913 3.064 1.229 5.679 2.309 5.811 2.4.512.354.519 1.185.014 1.576-.508.394-.511.393-4.879-1.363-2.247-.904-4.173-1.643-4.28-1.643-.522 0-.807.701-.432 1.059.095.09 2.336 1.03 4.98 2.087 3.357 1.344 4.883 1.997 5.063 2.167.186.176.27.355.303.65.043.375.022.43-.27.719-.297.292-.48.355-.919.316-.099-.008-2.376-.896-5.06-1.973-5.278-2.116-5.186-2.09-5.485-1.565-.194.34-.07.668.327.866.184.092 1.851.775 3.704 1.516 4.396 1.76 4.448 1.783 4.62 2.113.374.712-.127 1.518-.944 1.518-.107 0-2.03-.737-4.273-1.638-2.243-.9-4.133-1.638-4.2-1.638-.066 0-.226.083-.357.184-.288.224-.323.685-.069.912.093.082 1.619.732 3.392 1.443 1.773.712 3.332 1.369 3.464 1.46.286.197.47.683.392 1.035-.031.14-.175.365-.319.5-.503.476-.435.497-7.366-2.29-3.483-1.402-6.576-2.67-6.873-2.817-.747-.372-1.25-.752-1.932-1.459-1.707-1.771-2.538-2.392-3.97-2.97l-.69-.278.134-.317c.074-.174.702-1.69 1.396-3.37.694-1.68 1.34-3.236 1.436-3.458l.173-.402.843.036c1.06.046 2.079-.067 5.126-.57 2.17-.36 8.013-1.506 10.017-1.967.944-.217 1.197-.227 1.522-.061z" fill="#FEFEFE"/><defs><linearGradient id="paint0_linear_1710_4969" x1="0" y1="0" x2="41.521" y2="46.813" gradientUnits="userSpaceOnUse"><stop stop-color="#0ABD92"/><stop offset="1" stop-color="#009DB8"/></linearGradient></defs></svg>