<svg width="181" height="30" fill="none" xmlns="http://www.w3.org/2000/svg"><path opacity=".6" fill-rule="evenodd" clip-rule="evenodd" d="M6.007.592c-3.283 1.132-5 4.193-4.745 8.456.152 2.547.798 3.976 2.484 5.499l1.174 1.06-2.383 5.272L.154 26.15l1.264.087c.696.048 1.42.028 1.61-.045.19-.073 1.335-2.367 2.543-5.098l2.196-4.965h2.47v10.163h2.541V.039l-2.611.01c-1.809.006-3.089.173-4.16.543zm4.166 7.563l.076 5.716H8.902c-1.548 0-3.053-.672-3.803-1.696-.834-1.14-1.206-3.797-.804-5.73.569-2.73 2.3-4.19 4.813-4.058l.988.052.077 5.716z" fill="#FEFEFE"/><path opacity=".6" fill-rule="evenodd" clip-rule="evenodd" d="M87.068 2.65c-.087 1.436-.233 4.97-.323 7.854-.261 8.402-1.102 12.687-2.65 13.516-.54.288-.591.563-.591 3.129 0 2.771.01 2.813.67 2.813.631 0 .68-.126.866-2.259l.197-2.258h5.188c2.853 0 5.256.111 5.34.247.084.136.238 1.158.341 2.272.172 1.849.24 2.019.782 1.941.558-.08.593-.254.593-2.907v-2.823l-.776-.09-.777-.089V.04h-8.7l-.16 2.611zm6.884 10.092v11.292h-7.639l.438-.846c.912-1.764 1.747-10.866 1.82-19.832l.016-1.905h5.365v11.291zm-47.11-5.354c-2.752.618-4.37 4.214-4.379 9.73-.006 3.768.59 5.79 2.174 7.374 1.906 1.905 4.24 2.212 7.17.941 1.315-.57 1.341-.628.89-1.922-.348-.997-.456-1.04-1.21-.468-.805.609-2.865.832-3.864.418-1.14-.471-1.938-2.097-2.151-4.38l-.17-1.822h7.705l-.005-1.906c-.005-2.252-.538-4.72-1.302-6.027-.92-1.575-2.921-2.373-4.858-1.938zm25.592-.026c-3.605.71-5.57 4.698-5.224 10.602.236 4.033 1.483 6.54 3.87 7.78 1.186.617 3.975.472 5.175-.269.57-.352 1.036-.675 1.036-.716 0-.34-.66-1.852-.804-1.845-.101.006-.502.192-.89.414-.832.476-2.633.545-3.406.132-.3-.16-.827-.828-1.171-1.482-.864-1.644-1.088-7.34-.373-9.492.862-2.596 2.86-3.518 4.911-2.268.523.318.987.54 1.033.493.046-.047.17-.675.278-1.396.193-1.299.187-1.313-.75-1.603-1.518-.47-2.567-.57-3.685-.35zm30.617.203c-1.261.621-2.157 1.754-2.919 3.69-.545 1.385-.643 2.176-.657 5.298-.015 3.203.068 3.894.653 5.435.764 2.01 1.981 3.256 3.683 3.766 2.451.734 5.159-1.816 5.913-5.568 1.104-5.497-.315-11.126-3.151-12.498-1.458-.706-2.281-.735-3.522-.123zm12.974.137c-2.536 1.255-3.563 4.151-3.379 9.528.139 4.041.683 5.76 2.327 7.353 1.833 1.776 5.036 1.674 6.745-.214.425-.47.458-.68.186-1.187l-.33-.617-.809.774c-1.034.991-3.276 1.292-4.356.585-1.703-1.116-2.558-5.067-2.091-9.669.289-2.848.881-4.202 2.248-5.135 1.192-.814 2.42-.686 3.845.4.801.611 1.04.682 1.24.366.389-.614.305-.952-.405-1.618-1.335-1.254-3.383-1.476-5.221-.566zm21.836-.26c-1.571.556-2.44 1.339-2.234 2.01.267.87.291.876 1.127.218.947-.744 2.703-1.233 3.611-1.005.38.095.988.49 1.351.876.552.587.678 1.067.761 2.897l.099 2.194-2.055.19c-3.922.365-5.625 2.12-5.625 5.795 0 2.558.795 4.147 2.439 4.874 1.014.448 1.415.491 2.321.247 1.033-.278 2.582-1.493 2.582-2.025 0-.134.127-.244.283-.244.155 0 .282.244.282.541 0 .945.324 1.435.948 1.435h.605l-.087-7.41c-.078-6.726-.138-7.519-.652-8.593-.928-1.94-3.452-2.817-5.756-2zm36.197.063c-1.386.494-2.17 1.212-2.17 1.987 0 .961.294 1.032 1.181.285.452-.38 1.331-.827 1.954-.995.944-.254 1.308-.22 2.176.205 1.241.606 1.709 1.715 1.732 4.108l.016 1.623h-1.115c-2.124 0-3.981.578-5.097 1.587-2.801 2.529-1.962 8.494 1.322 9.4 1.466.405 2.582.072 3.783-1.13 1.091-1.09 1.39-1.02 1.39.329 0 .417.2.541.877.541.727 0 .841-.085.669-.494-.114-.272-.287-3.803-.383-7.847-.198-8.31-.243-8.488-2.385-9.46-1.386-.63-2.468-.667-3.95-.139zM16.15 7.718c-.078.205-.109 4.372-.068 9.261l.075 8.89h2.824l.048-4.094.048-4.093h4.14l.048 4.093.048 4.094h2.602V7.52h-2.599l.006 3.881.006 3.882h-4.191L19.06 11.4l-.08-3.88-1.344-.086c-.915-.06-1.39.032-1.486.284zm14.549 2.413c0 3.94-.49 8.617-1.165 11.134-.479 1.787-.69 2.187-1.191 2.259-.58.082-.609.23-.609 3.05v2.964l1.2.087 1.2.087V26.01h7.88l.084 1.764.084 1.764 1.2.087 1.2.087V23.47H39.17V7.378H30.7v2.752zm25.266-2.413c-.078.205-.109 4.372-.068 9.261l.075 8.89h2.72l-.006-4.481c-.004-2.465.08-4.394.188-4.286.107.107 1.22 2.124 2.473 4.48l2.278 4.287 1.468.085c.808.047 1.468-.024 1.468-.157s-1.134-2.356-2.52-4.94L61.52 16.16l2.102-3.957c2.796-5.264 2.703-4.824 1.024-4.824h-1.41l-2.079 4.09c-1.143 2.25-2.162 4.091-2.264 4.093-.102.002-.19-1.807-.194-4.02l-.01-4.022-1.29-.086c-.872-.059-1.338.034-1.434.284zm67.745.068c-.347.904.051 1.145 1.893 1.145h1.81l.075 8.257.075 8.257h1.677l.075-8.257.075-8.257 1.694-.024c2.421-.035 2.45-.044 2.35-.752-.09-.626-.157-.636-4.827-.713-3.986-.065-4.761-.01-4.897.344zm24.458 8.616v9.105l3.036-.108c4.674-.167 6-1.263 6-4.96 0-2.197-.471-3.108-2.019-3.908l-.84-.434.975-1.08c2.085-2.307 1.524-5.668-1.178-7.063-.364-.188-1.857-.413-3.318-.5l-2.656-.158v9.106zm12.343-8.847c-.111.11-.201 4.18-.201 9.045v8.845h1.695V21.07c0-4.17.164-5.031.733-3.844.14.292 1.399 2.261 2.796 4.375 2.402 3.633 2.592 3.844 3.464 3.844h.921l-.639-.99a2032.4 2032.4 0 00-3.114-4.784l-2.474-3.792 2.721-3.894c3.098-4.434 3.191-4.608 2.469-4.602-.898.007-.774-.136-4.647 5.36l-2.089 2.963-.141-4.093c-.133-3.852-.176-4.098-.718-4.176-.317-.045-.666.008-.776.118zM106.567 9.4c1.274 1.197 1.645 2.846 1.641 7.293-.003 3.815-.052 4.19-.718 5.505-.504.997-1.021 1.563-1.761 1.928-1.015.502-1.079.502-2.088 0-.614-.304-1.249-.926-1.549-1.514-1.422-2.792-1.447-9.095-.048-12.042.947-1.996 3.062-2.542 4.523-1.17zm46.812-.212c1.211.507 1.566 1.178 1.566 2.965 0 1.171-.145 1.588-.81 2.332-.727.813-1.002.919-2.682 1.026l-1.873.119v-3.232c0-1.778.085-3.317.188-3.42.334-.335 2.626-.2 3.611.21zm-104 1.577c.257.543.552 1.719.656 2.611L50.224 15H45.33l.203-1.482c.386-2.82 1.136-3.96 2.518-3.824.67.065.966.305 1.328 1.072zm-13.032 5.928v6.775h-4.7l.482-1.905c.575-2.27 1.112-6.945 1.112-9.68V9.92h3.106v6.775zm142.555 2.3c-.09 2.344-.192 2.773-.905 3.828-2.073 3.066-5.258 1.698-5.261-2.26-.002-2.95 1.063-4.162 3.887-4.423 1.045-.096 2.009-.087 2.141.02.132.108.194 1.384.138 2.836zm-36.426.08c-.108 3.31-.457 4.09-2.267 5.081-.878.481-1.102.501-1.897.172-1.26-.521-1.845-1.761-1.814-3.842.047-3.146 1.246-4.323 4.425-4.344l1.649-.011-.096 2.944zm11.047-2.011c1.916.66 2.763 2.984 1.869 5.123-.597 1.43-1.586 1.943-3.791 1.968l-1.88.02-.079-3.74-.078-3.74 1.49.016c.82.009 1.931.168 2.469.353z" fill="#fff"/></svg>