<svg width="56" height="56" fill="none" xmlns="http://www.w3.org/2000/svg"><circle cx="28" cy="28" r="27.5" stroke="#0AEED3"/><g clip-path="url(#clip0_2937_3653)"><path fill-rule="evenodd" clip-rule="evenodd" d="M25.021 15.034c-3.456.42-6.438 2.343-8.226 5.304-.956 1.584-1.475 3.49-1.475 5.418 0 3.844 2.027 7.32 5.434 9.314 1.253.734 2.819 1.242 4.343 1.41 1.043.114 2.48.03 3.551-.208 1.5-.333 2.974-.999 4.132-1.866l.369-.276 3.01 2.972c3.75 3.705 3.888 3.835 4.125 3.88.538.1.98-.212 1.03-.729a.71.71 0 00-.07-.432c-.054-.103-1.574-1.64-3.46-3.495-1.851-1.822-3.366-3.332-3.366-3.357 0-.024.134-.2.297-.389.71-.826 1.514-2.228 1.884-3.284.615-1.761.769-3.735.43-5.522-.842-4.434-4.433-7.888-9.011-8.669-.568-.097-2.423-.14-2.997-.07zm2.743 1.746c2.98.505 5.453 2.315 6.784 4.967.636 1.267.937 2.556.937 4.015a8.693 8.693 0 01-.943 4.015c-1.346 2.683-3.879 4.503-6.93 4.981-.567.089-2.138.09-2.693.001-2.785-.444-5.116-1.968-6.558-4.29-1.425-2.294-1.724-5.23-.793-7.788a9.18 9.18 0 013.732-4.595c1.29-.8 2.472-1.196 4.178-1.398.348-.04 1.861.02 2.286.092z" fill="url(#paint0_linear_2937_3653)"/></g><defs><linearGradient id="paint0_linear_2937_3653" x1="15.32" y1="15" x2="41.84" y2="41.65" gradientUnits="userSpaceOnUse"><stop stop-color="#0ABD92"/><stop offset="1" stop-color="#009DB8"/></linearGradient><clipPath id="clip0_2937_3653"><path fill="#fff" transform="translate(15 15)" d="M0 0h27v26H0z"/></clipPath></defs></svg>