<svg width="56" height="56" fill="none" xmlns="http://www.w3.org/2000/svg"><circle cx="28" cy="28" r="27.5" stroke="#0AEED3"/><g clip-path="url(#clip0_2937_3653)"><path fill-rule="evenodd" clip-rule="evenodd" d="M16.404 16.091a.583.583 0 00-.228.281c-.046.134-.067 1.384-.067 4.028v3.833l-.227-.117c-.42-.217-.72-.693-.786-1.244-.045-.387-.224-.593-.514-.59-.328.003-.532.24-.533.619-.001.273-.243.769-.492 1.007-.246.234-.536.363-.938.417-.33.044-.453.113-.56.313-.165.314.03.663.402.72.523.081.852.22 1.103.464.288.282.41.537.488 1.018.03.184.099.384.153.445.205.227.604.198.792-.058.038-.052.086-.242.107-.422.045-.387.16-.639.421-.918.168-.179.456-.376.551-.376.018 0 .033 3.358.033 7.461 0 5.303.02 7.517.067 7.654.14.4-.685.374 11.324.374s11.185.027 11.324-.373c.046-.134.067-1.306.067-3.752 0-1.957.015-3.559.033-3.559.095 0 .383.197.55.376.261.28.377.53.422.918.021.18.07.37.107.422.188.256.587.285.792.058.054-.06.123-.26.153-.445.145-.899.608-1.33 1.59-1.481.374-.058.568-.407.402-.72-.106-.2-.23-.27-.559-.314-.403-.054-.692-.183-.938-.417-.25-.238-.491-.733-.492-1.007 0-.379-.205-.616-.533-.62-.29-.002-.469.204-.514.591-.065.552-.366 1.027-.786 1.244l-.227.117v-7.736c0-5.505-.02-7.792-.067-7.93-.14-.4.687-.373-11.336-.37-9.377.001-10.947.014-11.084.09zm16.004.989c0 .025-.873.924-1.94 2-2 2.017-2.031 2.056-1.867 2.365.106.2.24.282.471.284.195.002.367-.157 2.546-2.346l2.338-2.348h.77c.425 0 .772.02.772.046 0 .024-1.568 1.623-3.484 3.553-3.098 3.12-3.484 3.529-3.484 3.696 0 .279.239.51.526.51.222 0 .345-.116 4.112-3.905l3.882-3.906.39.018.39.019.016 9.806.015 9.806-.14-.165c-.11-.128-.221-.176-.493-.213-.852-.116-1.313-.604-1.46-1.542-.107-.692-.918-.692-1.026 0-.146.935-.608 1.426-1.452 1.54-.43.06-.591.205-.591.53 0 .277.223.513.485.513.49.001 1.068.335 1.315.758.085.147.182.441.215.654.068.441.248.661.541.661.294 0 .474-.22.542-.661.033-.213.13-.507.215-.654.248-.426.825-.757 1.323-.758.109 0 .237-.066.35-.18l.178-.179-.016 1.475-.017 1.475-5.286.016c-2.907.009-5.286-.005-5.286-.03 0-.025.86-.912 1.912-1.971 1.668-1.68 1.913-1.95 1.918-2.116.01-.397-.323-.65-.668-.507-.092.038-1.19 1.098-2.437 2.354l-2.27 2.285h-1.635l3.498-3.523c2.117-2.131 3.501-3.57 3.506-3.643.022-.387-.179-.64-.51-.64-.173 0-.568.38-4.072 3.904l-3.88 3.903-2.725-.016-2.725-.016-.014-9.573c-.01-7.233.004-9.544.056-9.451.115.2.24.263.668.336.274.047.486.128.65.248.383.28.588.611.668 1.08.038.225.104.456.146.513.12.163.375.238.562.166.234-.089.307-.219.385-.68.123-.725.598-1.203 1.319-1.327.224-.038.453-.104.51-.147a.522.522 0 00.165-.566c-.088-.234-.217-.308-.675-.387-.72-.124-1.196-.602-1.319-1.327-.038-.225-.104-.457-.146-.514a.515.515 0 00-.562-.166c-.233.09-.307.22-.385.68-.123.725-.598 1.203-1.318 1.327-.428.073-.553.137-.667.337-.054.094-.07-.28-.072-1.621 0-.959.017-1.761.039-1.784.055-.056 15.228-.052 15.228.004zm-12.39 3.371l.238.245-.256.257-.255.258-.256-.258-.256-.257.238-.245c.13-.134.254-.245.274-.245.02 0 .143.11.273.245zm-5.184 4.651l-.24.241-.264-.245-.264-.245.247-.25.248-.249.257.253.256.253-.24.242zm25.838 7.8l-.265.246-.239-.236-.239-.236.25-.26.252-.258.252.25.253.249-.264.245zm-5.156 3.695l.224.231-.242.238-.243.239-.242-.239-.243-.238.225-.231c.123-.128.24-.232.26-.232.02 0 .137.104.26.232z" fill="url(#paint0_linear_2937_3653)"/></g><defs><linearGradient id="paint0_linear_2937_3653" x1="12" y1="16" x2="36.895" y2="47.022" gradientUnits="userSpaceOnUse"><stop stop-color="#0ABD92"/><stop offset="1" stop-color="#009DB8"/></linearGradient><clipPath id="clip0_2937_3653"><path fill="#fff" transform="translate(12 16)" d="M0 0h31v25H0z"/></clipPath></defs></svg>