<svg width="56" height="56" fill="none" xmlns="http://www.w3.org/2000/svg"><circle cx="28" cy="28" r="27.5" stroke="#0AEED3"/><path fill-rule="evenodd" clip-rule="evenodd" d="M24.355 16.084c-.757.207-1.488.79-1.824 1.45-.345.681-.339.59-.34 4.63v3.678h-3.022c-2.476 0-3.076.015-3.322.08a2.986 2.986 0 00-2.107 2.107c-.067.253-.08 1.068-.08 5.14 0 5.317-.013 5.099.34 5.791.336.663 1.154 1.31 1.833 1.452l.178.037v3.225l.16.16c.217.218.523.221.779.01.1-.083 1.024-.87 2.054-1.75l1.873-1.6h4.882c5.365 0 5.142.012 5.835-.34.7-.355 1.315-1.165 1.476-1.945.04-.192.06-1.512.06-3.923v-3.633h1.314l1.837 1.572c2.408 2.06 2.236 1.927 2.494 1.927.165 0 .252-.037.375-.16l.16-.16v-3.225l.177-.037c.68-.14 1.498-.789 1.834-1.451.352-.693.34-.475.34-5.793 0-4.07-.014-4.886-.08-5.139-.202-.756-.737-1.45-1.403-1.821-.641-.356-.734-.366-3.52-.366H34.16l-.16.16a.545.545 0 00-.028.753l.132.153 2.535.027 2.534.028.303.142c.433.203.68.443.885.86l.18.362v9.683l-.18.363c-.292.593-.802.938-1.493 1.01-.282.03-.38.067-.502.188l-.15.15v2.527l-.807-.69-1.652-1.41-.845-.72-5.118-.026-5.117-.028-.363-.179c-.416-.204-.657-.452-.86-.884l-.142-.304v-9.678l.142-.302c.203-.433.444-.68.86-.885l.363-.18 2.535-.027 2.536-.027.132-.153a.545.545 0 00-.028-.753l-.16-.16-2.534.005c-1.948.004-2.596.022-2.803.079zm7.184.076a.455.455 0 00-.16.387c0 .498.582.739.934.387a.543.543 0 00-.387-.934.455.455 0 00-.387.16zm.19 2.68a.752.752 0 00-.233.197c-.107.136-.117.215-.117.932v.783l-1.673.016-1.672.016-.16.179c-.215.24-.215.495 0 .736l.16.179 1.016.017 1.017.017v.302c0 .76.379 1.987.85 2.753.134.216.243.409.242.429 0 .046-.338.322-.669.547-.553.377-1.216.625-2.165.808-.167.032-.377.246-.424.431-.05.203.098.493.31.602.148.077.222.08.562.023a7.008 7.008 0 001.685-.548c.408-.205 1.068-.65 1.25-.844.162-.172.275-.172.436 0 .182.193.842.64 1.25.844a7.008 7.008 0 001.686.548c.339.057.413.054.562-.023.211-.11.36-.399.31-.602-.047-.185-.258-.399-.425-.431-.952-.184-1.597-.425-2.164-.808-.276-.186-.671-.516-.671-.56 0-.012.108-.2.241-.414a6.016 6.016 0 00.836-2.582l.032-.475 1.009-.017 1.008-.017.16-.179c.215-.241.215-.495 0-.736l-.16-.179-1.672-.016-1.673-.016v-.79c0-.784 0-.79-.15-.954-.162-.177-.408-.247-.594-.168zm.963 3.188c0 .256-.157 1.066-.271 1.402-.148.436-.424.99-.494.99-.09 0-.482-.88-.597-1.34a6.848 6.848 0 01-.146-.806l-.036-.369h.772c.764 0 .772.001.772.123zm-10.5 5.522c0 .362.033.738.08.914.098.37.372.934.518 1.066.1.09.103.11.028.242-.185.324-2.432 6.332-2.432 6.503 0 .27.25.502.54.502.335 0 .462-.152.733-.875l.236-.629h2.998l.236.629c.271.723.398.875.733.875.29 0 .54-.233.54-.502 0-.102-.453-1.381-1.04-2.935a363.605 363.605 0 01-1.038-2.771c0-.01.08.005.177.033.102.03 1.752.051 3.858.051h3.68l-.015 3.678-.016 3.678-.179.364c-.205.416-.452.656-.885.859l-.303.142-5.116.027-5.115.027-1.23 1.048-1.652 1.412-.423.364v-2.531l-.151-.15c-.122-.122-.22-.158-.506-.188-.44-.045-.963-.291-1.207-.568a2.582 2.582 0 01-.319-.505l-.142-.303v-9.678l.142-.3c.184-.391.385-.624.694-.805.47-.275.544-.281 3.663-.285l2.912-.004v.615zm1.77 5.251l.512 1.351h-1.06c-.582 0-1.059-.018-1.059-.04 0-.036.835-2.247.996-2.639.03-.075.066-.11.078-.08l.534 1.408z" fill="url(#paint0_linear_2937_3653)"/><defs><linearGradient id="paint0_linear_2937_3653" x1="13.66" y1="16" x2="42.22" y2="44.7" gradientUnits="userSpaceOnUse"><stop stop-color="#0ABD92"/><stop offset="1" stop-color="#009DB8"/></linearGradient></defs></svg>