<svg width="35" height="28" fill="none" xmlns="http://www.w3.org/2000/svg"><path opacity=".3" fill-rule="evenodd" clip-rule="evenodd" d="M1.38.081C.712.283.198.826.06 1.475.007 1.713-.01 5.62.003 14.208l.018 12.39.147.306c.187.391.581.773.986.954L1.47 28h32.08l.317-.142c.404-.18.799-.563.985-.954l.147-.307V1.418l-.147-.306a2.133 2.133 0 00-.985-.955L33.55.016 17.615.003C4.375-.007 1.628.006 1.38.081zm32.116 1.1c.422.25.439.343.419 2.29l-.019 1.754H1.126l-.018-1.754c-.02-1.947-.004-2.04.418-2.29.218-.128.472-.13 15.985-.13 15.514 0 15.768.002 15.985.13zM4.334 2.572c-.265.231-.351.516-.25.818.09.265.458.534.733.534.275 0 .643-.269.733-.534.162-.483-.217-1.002-.733-1.002a.647.647 0 00-.483.183zm3.203-.058a.735.735 0 00-.123 1.167c.537.52 1.415.084 1.313-.653-.076-.55-.685-.813-1.19-.514zm3.034.1c-.197.191-.235.276-.235.526 0 .5.422.847.92.757.316-.057.667-.449.667-.744 0-.21-.226-.571-.42-.668-.342-.172-.668-.126-.932.13zm23.343 13.685c.019 11.057.05 10.26-.418 10.536-.217.128-.471.13-15.971.13-17.404 0-16.01.037-16.298-.42-.132-.21-.135-.413-.135-10.204 0-5.495.02-10.01.046-10.035.025-.025 7.406-.037 16.402-.028l16.356.017.018 10.004zM5.162 13.874a.52.52 0 00-.138.35c0 .12.235.94.52 1.82l.798 2.46c.265.815.29.862.512.952.246.1.487.056.633-.115.043-.05.302-.782.575-1.626.274-.845.514-1.563.533-1.595.02-.032.259.629.532 1.47.273.84.534 1.596.58 1.68.127.228.381.3.662.186.226-.091.246-.131.58-1.152 1.298-3.96 1.325-4.054 1.242-4.249-.147-.342-.617-.431-.868-.164-.082.088-.344.782-.634 1.682-.272.843-.507 1.545-.522 1.56-.016.015-.203-.51-.417-1.165-.61-1.871-.647-1.974-.769-2.104-.146-.157-.515-.16-.709-.007-.106.084-.286.552-.638 1.654-.27.844-.512 1.559-.538 1.587-.026.029-.273-.647-.549-1.502-.304-.943-.558-1.614-.645-1.705-.184-.193-.55-.201-.74-.017zm8.95-.05c-.294.217-.276.365.232 1.933 1.219 3.759 1.154 3.584 1.376 3.695.228.115.486.078.64-.09.057-.061.329-.81.605-1.664.277-.854.523-1.553.546-1.553.024 0 .27.699.546 1.553.277.854.538 1.593.58 1.643.143.17.385.215.632.115.225-.091.245-.131.58-1.152 1.278-3.901 1.314-4.023 1.238-4.232a.525.525 0 00-.864-.181c-.084.089-.345.78-.636 1.684-.273.843-.509 1.546-.525 1.562-.037.036-.001.138-.581-1.66-.511-1.585-.596-1.736-.97-1.736-.373 0-.458.151-.97 1.736-.58 1.798-.544 1.696-.58 1.66-.017-.016-.253-.719-.525-1.562-.292-.905-.553-1.595-.636-1.684-.158-.168-.504-.202-.688-.067zm8.91-.016a.602.602 0 00-.191.25c-.084.196-.066.262 1.208 4.146.369 1.124.386 1.16.613 1.252.248.1.49.056.632-.115.042-.05.308-.808.592-1.685s.532-1.569.552-1.536c.02.032.26.75.534 1.595.273.844.531 1.576.574 1.626.145.171.386.215.633.115.222-.09.246-.136.521-.985l.793-2.439c.615-1.887.621-1.921.377-2.158-.19-.184-.556-.176-.739.017-.084.09-.345.777-.645 1.704-.277.855-.524 1.531-.55 1.503-.025-.028-.267-.743-.538-1.587-.518-1.614-.604-1.77-.97-1.77-.298 0-.469.17-.618.617-.076.23-.314.954-.528 1.61-.213.656-.401 1.18-.416 1.165-.016-.015-.25-.717-.522-1.56-.29-.9-.552-1.594-.635-1.682-.149-.159-.473-.198-.677-.083z" fill="#fff"/></svg>