<svg width="33" height="33" fill="none" xmlns="http://www.w3.org/2000/svg"><path fill-rule="evenodd" clip-rule="evenodd" d="M16.5.5C7.663.5.5 7.663.5 16.5c0 .926.079 1.834.23 2.717.554-.633 4.954-5.752 6.84-7.956 1.556-1.82 1.594-1.855 1.814-1.649.044.042.215.15.38.24.799.435 3.815 2.155 3.906 2.226.057.045.087.182.067.305-.02.123-.115.726-.21 1.339-.362 2.327-.53 3.35-.574 3.502-.025.087-.006.143.041.126.09-.032.67-.827 3.95-5.405 1.057-1.475 2.294-3.198 2.75-3.829.456-.63 1.048-1.46 1.317-1.845.36-.514.523-.684.624-.646.659.25 4.693 1.687 5.093 1.813.282.09.563.194.623.233.09.057.049.421-.203 1.83l-.425 2.39c-.061.348-.23 1.284-.373 2.082a37.01 37.01 0 00-.263 1.556c0 .058 1.163-1.039 2.586-2.439 1.422-1.4 2.612-2.544 2.645-2.544.09 0 .627 1.703.823 2.608a18.5 18.5 0 01.333 2.426C31.997 7.172 25.028.5 16.5.5zm16 15.834c-.006.265-.033.434-.085.452-.045.015-1.575 1.486-3.398 3.267a1409.859 1409.859 0 01-4.477 4.358l-1.16 1.119-.805-.453-2.342-1.318a99.536 99.536 0 01-1.569-.891c-.016-.015.03-.21.104-.432.073-.223.247-.84.386-1.373.14-.532.377-1.403.527-1.935.151-.532.323-1.157.382-1.388.06-.232.187-.696.283-1.031.096-.336.162-.61.146-.61-.016 0-.235.285-.486.634-.251.348-.67.926-.932 1.283-.262.357-.65.895-.864 1.196-.845 1.188-3.66 5.108-4.964 6.907l-1.375 1.901-.477-.151c-.262-.084-1.496-.517-2.741-.963-1.246-.447-2.355-.832-2.464-.857-.155-.034-.188-.083-.148-.222.172-.594.716-2.617 1.453-5.395l.38-1.43-.23.26a763.242 763.242 0 00-4.791 5.594C5.666 29.442 10.726 32.5 16.5 32.5c8.837 0 16-7.163 16-16v-.166z" fill="#fff" opacity=".3"/></svg>