<svg width="42" height="46" fill="none" xmlns="http://www.w3.org/2000/svg"><path fill-rule="evenodd" clip-rule="evenodd" d="M5.57.572C2.556 3.968.723 8.005.138 12.539c-.184 1.42-.184 4.143 0 5.565.481 3.742 1.83 7.203 3.952 10.139.77 1.066 1.902 2.394 2.04 2.394.06 0 .32-.22.578-.49l.47-.49-.408-.476c-2.549-2.975-4.007-5.773-4.789-9.19-.646-2.828-.663-6.153-.045-9.116.682-3.272 2.502-6.832 4.723-9.238l.521-.564-.514-.537c-.283-.295-.535-.531-.56-.525-.026.005-.267.258-.536.561zM35.32.533l-.512.533.593.658c2.11 2.338 3.729 5.447 4.527 8.695.439 1.787.515 2.509.518 4.9.003 1.961-.022 2.391-.198 3.396-.698 4.005-2.214 7.186-4.927 10.343l-.515.6.469.49c.258.268.516.489.573.489.149 0 1.049-1.042 1.902-2.201 3.875-5.265 5.19-12.105 3.575-18.585-.695-2.787-1.977-5.5-3.654-7.728C37.097 1.36 35.928 0 35.847 0c-.01 0-.247.24-.528.533zM9.716 4.778c-4.68 5.216-5.254 13.338-1.362 19.307.583.895 1.667 2.247 1.856 2.317.105.039 1.03-.88 1.03-1.024 0-.054-.123-.217-.272-.362-.85-.826-2.15-2.896-2.678-4.262-1.962-5.084-1.077-10.641 2.345-14.727l.626-.748-.518-.534-.518-.535-.51.568zm21.508-.023l-.519.545.351.382c2.88 3.136 4.196 7.716 3.47 12.08-.452 2.715-1.466 4.836-3.472 7.261l-.34.412.468.49c.258.269.514.49.57.49.203 0 1.566-1.743 2.214-2.831 3.208-5.389 2.964-12.3-.618-17.436a16.223 16.223 0 00-1.055-1.331l-.55-.607-.519.545zm-17.32 4.154c-.934 1.092-1.674 2.523-2.06 3.984-.267 1.01-.332 3.102-.131 4.205.321 1.766 1.262 3.72 2.29 4.756l.334.336.512-.533.511-.534-.325-.372c-1.347-1.538-2.035-3.592-1.941-5.792.082-1.932.648-3.457 1.827-4.918l.433-.538-.52-.536-.52-.537-.41.48zm13.238.06l-.51.534.537.696a8.838 8.838 0 011.454 2.893c.206.701.233.943.24 2.181.008 1.519-.085 2.049-.57 3.262-.271.68-1.055 1.953-1.417 2.302-.124.12-.226.263-.226.317 0 .055.215.32.478.588l.479.487.353-.356c1.107-1.115 2.093-3.24 2.352-5.072.158-1.115.061-2.997-.203-3.953-.421-1.526-1.172-2.968-2.073-3.982l-.385-.432-.51.534zm-7.296 2.823c-.994.36-1.683.98-2.125 1.912-.989 2.086.075 4.494 2.334 5.284.144.05.152.775.152 13.533V46h1.48l.022-13.483.022-13.484.45-.164c.248-.09.622-.285.832-.434 2.373-1.685 2.052-5.296-.581-6.54-.738-.349-1.79-.39-2.585-.103zm2.257 1.654a2.212 2.212 0 01.385 3.434c-.845.868-2.129.873-2.99.012a2.223 2.223 0 01.774-3.652c.518-.2 1.34-.107 1.831.206z" fill="url(#paint0_linear_1710_5892)"/><defs><linearGradient id="paint0_linear_1710_5892" x1="0" y1="0" x2="46.747" y2="42.892" gradientUnits="userSpaceOnUse"><stop stop-color="#0ABD92"/><stop offset="1" stop-color="#009DB8"/></linearGradient></defs></svg>