<svg width="139" height="146" fill="none" xmlns="http://www.w3.org/2000/svg"><g filter="url(#filter0_dd_1710_5970)"><path d="M86.738 64.879a1.584 1.584 0 010 2.743l-19.6 11.317a1.584 1.584 0 01-2.377-1.372V54.934c0-1.22 1.32-1.981 2.376-1.372l19.6 11.317z" fill="#609C97"/><path d="M86.738 64.879a1.584 1.584 0 010 2.743l-19.6 11.317a1.584 1.584 0 01-2.377-1.372V54.934c0-1.22 1.32-1.981 2.376-1.372l19.6 11.317z" fill="#fff"/><path d="M86.738 64.879a1.584 1.584 0 010 2.743l-19.6 11.317a1.584 1.584 0 01-2.377-1.372V54.934c0-1.22 1.32-1.981 2.376-1.372l19.6 11.317z" fill="#fff"/><path d="M35.353 66.129c0-20.725 16.8-37.526 37.526-37.526h.003c20.725 0 37.526 16.8 37.526 37.526h-3.3c0-18.906-15.325-34.232-34.23-34.232-18.905 0-34.23 15.326-34.23 34.232h-3.295zm75.055.242c0 20.725-16.801 37.526-37.526 37.526h-.003c-20.725 0-37.526-16.8-37.526-37.526h3.294c0 18.906 15.326 34.232 34.232 34.232 18.904 0 34.229-15.326 34.229-34.232h3.3zm-37.53 37.526c-20.724 0-37.525-16.8-37.525-37.526v-.242c0-20.725 16.8-37.526 37.526-37.526v3.294c-18.906 0-34.232 15.326-34.232 34.232v.242c0 18.906 15.326 34.232 34.232 34.232v3.294zm.004-75.294c20.725 0 37.526 16.8 37.526 37.526v.242c0 20.725-16.801 37.526-37.526 37.526l-.003-3.294c18.904 0 34.229-15.326 34.229-34.232v-.242c0-18.906-15.325-34.232-34.23-34.232l.004-3.294z" fill="#fff" mask="url(#path-1-inside-1_1710_5970)"/></g><defs><filter id="filter0_dd_1710_5970" x=".764" y=".602" width="137.642" height="144.929" filterUnits="userSpaceOnUse" color-interpolation-filters="sRGB"><feFlood flood-opacity="0" result="BackgroundImageFix"/><feColorMatrix in="SourceAlpha" values="0 0 0 0 0 0 0 0 0 0 0 0 0 0 0 0 0 0 127 0" result="hardAlpha"/><feOffset dy="16.471"/><feGaussianBlur stdDeviation="13.405"/><feColorMatrix values="0 0 0 0 0 0 0 0 0 0 0 0 0 0 0 0 0 0 0.21 0"/><feBlend in2="BackgroundImageFix" result="effect1_dropShadow_1710_5970"/><feColorMatrix in="SourceAlpha" values="0 0 0 0 0 0 0 0 0 0 0 0 0 0 0 0 0 0 127 0" result="hardAlpha"/><feOffset dx="-3.294" dy="3.294"/><feGaussianBlur stdDeviation="16.471"/><feComposite in2="hardAlpha" operator="out"/><feColorMatrix values="0 0 0 0 0.443137 0 0 0 0 0.686275 0 0 0 0 0.666667 0 0 0 0.16 0"/><feBlend in2="effect1_dropShadow_1710_5970" result="effect2_dropShadow_1710_5970"/><feBlend in="SourceGraphic" in2="effect2_dropShadow_1710_5970" result="shape"/></filter></defs></svg>