<svg width="56" height="45" fill="none" xmlns="http://www.w3.org/2000/svg"><path fill-rule="evenodd" clip-rule="evenodd" d="M.897.73c-.316.156-.54.369-.684.65C.011 1.774 0 2.047 0 6.541v4.744h56V6.542c0-4.503-.011-4.766-.216-5.165-.147-.288-.364-.492-.69-.65l-.476-.229H1.367L.897.73zm40.847 5.39c1.05.782 1.04 2.102-.02 2.721-.418.244-.568.266-1.867.265-1.606 0-2-.122-2.422-.751-.44-.656-.249-1.733.38-2.144.49-.319.812-.368 2.24-.339 1.2.024 1.433.058 1.689.249zm6.453 0c1.055.786 1.04 2.129-.03 2.74-.38.217-.578.243-1.847.245-1.617.002-2.008-.12-2.432-.75-.44-.656-.248-1.733.381-2.144.489-.319.811-.368 2.24-.339 1.2.024 1.432.058 1.688.249zM4.812 18.076c0 5.618.25 7.74 1.27 10.748 4.86 14.335 22.066 20.192 34.72 11.82 5.952-3.94 9.709-10.331 10.27-17.474.063-.806.115-3.099.115-5.094v-3.629H4.812v3.629zm25.954.01c1.838.547 3.288 1.42 4.58 2.758 1.85 1.915 2.826 4.293 2.835 6.906.005 1.35-.066 1.875-.412 3.042-.805 2.715-2.634 4.868-5.23 6.156-1.617.802-2.745 1.067-4.54 1.067-1.794 0-2.922-.265-4.539-1.067-2.596-1.288-4.425-3.441-5.23-6.156-.346-1.167-.417-1.692-.412-3.042.01-2.613.986-4.991 2.835-6.906 1.486-1.538 3.171-2.466 5.39-2.966 1.138-.257 3.516-.152 4.723.207zm-3.816 2.892c-1.99.314-3.931 1.626-4.942 3.34-2.316 3.928-.428 8.737 4.023 10.247.461.157.92.204 1.969.204 1.522 0 1.997-.114 3.335-.8.505-.26 1.049-.674 1.597-1.217 2.27-2.25 2.698-5.654 1.059-8.434-.849-1.44-2.448-2.668-4.106-3.153-.713-.21-2.194-.303-2.935-.187zm2.512 3.93c.678.343 1.42 1.163 1.645 1.818.558 1.631-.128 3.337-1.64 4.078-2.204 1.081-4.738-.442-4.746-2.853-.006-1.527.758-2.627 2.24-3.23.55-.225 1.882-.124 2.501.188z" fill="url(#paint0_linear_1710_4357)"/><defs><linearGradient id="paint0_linear_1710_4357" x1="0" y1=".498" x2="43.555" y2="56.204" gradientUnits="userSpaceOnUse"><stop stop-color="#0ABD92"/><stop offset="1" stop-color="#009DB8"/></linearGradient></defs></svg>