<svg width="55" height="73" fill="none" xmlns="http://www.w3.org/2000/svg"><path fill-rule="evenodd" clip-rule="evenodd" d="M13.827 16.151c-.918.22-1.619.617-2.33 1.318-.725.714-1.164 1.5-1.365 2.445-.176.823-.176 47.347 0 48.17.4 1.878 1.94 3.399 3.843 3.794.767.159 36.176.173 37.022.015 1.39-.26 2.887-1.393 3.475-2.628.531-1.116.542-1.348.507-10.336l-.034-8.422-.269-.463c-.33-.57-.696-.82-2.39-1.641l-1.33-.644v-5.127l1.123-.074c1.275-.083 1.794-.283 2.344-.901.19-.212.396-.572.46-.8.066-.235.117-1.545.117-3.044 0-2.618 0-2.633-.29-3.205-.159-.315-.415-.657-.568-.76-.153-.101-1.356-.75-2.672-1.443-1.706-.896-2.434-1.336-2.533-1.531-.096-.19-.14-.897-.14-2.307-.002-1.899-.017-2.047-.225-2.233-.306-.274-.842-.254-1.141.04-.234.232-.243.321-.243 2.452 0 2.466.062 2.784.66 3.374.213.21 1.37.884 2.683 1.563 1.27.656 2.42 1.292 2.558 1.413.245.216.25.267.25 2.705 0 3.124.093 2.949-1.631 3.05-1.12.064-1.262.098-1.639.38-.768.58-.826.854-.829 3.923-.003 3.61-.058 3.501 2.386 4.705.796.391 1.508.784 1.582.873.105.125.129 2.076.105 8.624-.03 8.341-.033 8.47-.264 8.96a3.257 3.257 0 01-1.574 1.603l-.63.305H14.164l-.63-.305a3.257 3.257 0 01-1.575-1.603l-.233-.498V20.1l.309-.621c.35-.704.887-1.218 1.624-1.555.504-.23.517-.23 15.576-.259 16.9-.032 15.758-.085 16.738.767.274.238.634.661.8.94.288.484.306.598.36 2.276.048 1.536.082 1.796.266 1.996.28.305.876.306 1.183.002.22-.216.229-.323.194-2.105l-.037-1.878-.4-.82c-.453-.932-1.237-1.772-2.07-2.22-1.216-.653-.455-.625-16.863-.615-11.446.007-15.154.041-15.58.143zm2.217 4.116c-.41.123-.805.473-.945.835-.057.15-.104 1.915-.104 3.933 0 3.972.01 4.041.622 4.517.276.214.432.228 2.451.228h2.157l.367-.362c.26-.257.388-.503.44-.848.04-.267.057-2.038.037-3.936-.03-3.076-.056-3.482-.23-3.744-.412-.62-.63-.678-2.625-.702-1.009-.012-1.985.023-2.17.079zm7.845-.01c-.44.109-.659.28-.867.678-.129.246-.159 1.015-.159 4.087 0 4.154.016 4.263.661 4.592.472.24 4.19.24 4.662 0 .646-.33.661-.436.66-4.614 0-5.037.154-4.77-2.77-4.81-1.005-.012-1.99.017-2.187.066zm7.797.007a1.46 1.46 0 00-.954.977c-.147.522-.145 7.05.003 7.575.063.222.265.53.451.684.337.28.343.28 2.475.28 2 0 2.157-.015 2.432-.228.613-.476.622-.543.622-4.535 0-5.002.126-4.791-2.88-4.83-1.007-.012-1.973.022-2.149.077zm7.749.05c-.502.182-.803.515-.894.99-.035.18-.049 1.993-.03 4.028l.033 3.7.414.374.414.374h2.08c1.863 0 2.116-.023 2.432-.213.647-.39.644-.37.644-4.55 0-4.207.007-4.164-.689-4.614-.413-.267-3.731-.335-4.404-.09zm-20.033 4.681l.03 3.145h-2.775v-3.1c0-1.704.035-3.133.077-3.175.043-.042.654-.062 1.358-.045l1.28.03.03 3.145zm7.783-.027v3.172h-2.66v-6.344h2.66v3.172zm7.842.027l.03 3.145h-2.774v-3.1c0-1.704.035-3.133.077-3.175.042-.042.653-.062 1.357-.045l1.28.03.03 3.145zm7.868 0l.03 3.145H40.15v-6.351l1.357.03 1.358.031.03 3.145zm-25.437 25.58c-.563.274-1.096.878-1.246 1.409-.06.21-.108 1.472-.108 2.804 0 2.19.019 2.445.203 2.67.296.361.862.338 1.199-.048.255-.292.26-.341.26-2.643 0-2.2.013-2.36.221-2.565.22-.216.37-.218 14.517-.218 14.148 0 14.298.002 14.518.218.216.214.221.365.221 6.606 0 6.125-.008 6.397-.212 6.644l-.211.258H18.189l-.212-.258c-.194-.236-.212-.457-.212-2.583 0-2.186-.013-2.342-.23-2.613-.287-.36-.88-.395-1.21-.07-.21.207-.222.365-.222 2.739 0 2.741.05 3.027.643 3.643.165.171.498.417.742.547l.444.236h29.145l.443-.236c.244-.13.578-.376.742-.547.657-.682.644-.526.644-7.65 0-4.574-.038-6.65-.127-6.943-.173-.572-.666-1.13-1.238-1.403-.478-.229-.496-.229-15.044-.229H17.932l-.474.231z" fill="url(#paint0_linear_3009_3638)"/><rect y=".002" width="23" height="23" rx="11.5" fill="#fff"/><path d="M11.094 17.14c-.77 0-1.454-.131-2.05-.394-.593-.267-1.06-.634-1.403-1.102a2.714 2.714 0 01-.524-1.615h2.46c.01.22.081.416.213.588.132.167.311.3.538.395a2 2 0 00.776.143c.29 0 .545-.051.766-.153.224-.106.398-.249.523-.43.125-.184.186-.395.183-.632a1.001 1.001 0 00-.203-.633 1.337 1.337 0 00-.587-.43 2.347 2.347 0 00-.89-.152h-.983v-1.74h.983c.3 0 .564-.049.79-.147.231-.1.41-.238.54-.415.128-.182.19-.39.187-.623a1.08 1.08 0 00-.623-1.003 1.516 1.516 0 00-.676-.143c-.27 0-.516.048-.736.143-.217.096-.39.23-.519.405a1.05 1.05 0 00-.202.608H7.32a2.706 2.706 0 01.504-1.59c.33-.462.777-.822 1.344-1.083.57-.26 1.218-.39 1.946-.39.724 0 1.362.127 1.912.38.55.254.978.6 1.284 1.038.306.435.46.927.46 1.477.003.57-.183 1.039-.559 1.408-.372.369-.851.596-1.437.682v.079c.784.092 1.375.345 1.773.76.402.415.601.934.598 1.556 0 .587-.173 1.107-.519 1.561-.342.452-.82.807-1.432 1.067-.61.257-1.31.386-2.1.386z" fill="url(#paint1_linear_3009_3638)"/><defs><linearGradient id="paint0_linear_3009_3638" x1="10" y1="16.005" x2="65.84" y2="61.096" gradientUnits="userSpaceOnUse"><stop stop-color="#0ABD92"/><stop offset="1" stop-color="#009DB8"/></linearGradient><linearGradient id="paint1_linear_3009_3638" x1="6.5" y1="2.002" x2="22.519" y2="10.475" gradientUnits="userSpaceOnUse"><stop stop-color="#0ABD92"/><stop offset="1" stop-color="#009DB8"/></linearGradient></defs></svg>