<svg width="60" height="65" fill="none" xmlns="http://www.w3.org/2000/svg"><path fill-rule="evenodd" clip-rule="evenodd" d="M29.65 14.086c-1.897 1.752-3.318 2.582-5.406 3.157-.896.247-1.466.305-2.96.302-2.729-.005-4.772-.579-7.028-1.974-1.233-.763-1.824-.87-2.296-.415-.385.371-.36.709.153 2.064.906 2.392 1.047 3.23 1.052 6.238.005 2.565-.02 2.839-.39 4.204-.656 2.424-1.447 4.096-2.896 6.121-1.106 1.545-1.15 2.015-.235 2.485.527.27 1 .041 1.682-.813 1.877-2.35 3.214-5.325 3.852-8.567.44-2.233.29-6.166-.317-8.272l-.09-.314.765.3c2 .78 3.19.989 5.676.991 1.979.002 2.528-.045 3.488-.298 1.99-.524 4.088-1.61 5.46-2.827l.62-.55.233.29c.13.159.49.609.804 1 1.169 1.458 3.095 2.69 5.195 3.32.879.265 1.383.322 2.847.322 2.62 0 4.359-.548 6.357-2.005.515-.376.948-.665.963-.642.014.022.21.492.436 1.044.498 1.22 1.749 3.109 2.763 4.173 1.606 1.686 3.773 3.04 6.173 3.856.223.076.197.158-.234.74-.797 1.076-1.312 1.992-1.843 3.28-.766 1.856-.997 3.106-.988 5.334.008 2.137.317 3.615 1.161 5.568.62 1.433 1.768 3.116 2.245 3.291.707.26 1.471-.305 1.471-1.086 0-.133-.165-.454-.367-.714-.526-.676-1.393-2.382-1.74-3.422-1.384-4.15-.328-8.858 2.689-11.993.516-.536.977-1.123 1.024-1.304.147-.556-.245-1.082-.93-1.246-2.894-.696-4.81-1.675-6.583-3.364-1.77-1.686-2.838-3.535-3.475-6.016-.337-1.31-.595-1.628-1.279-1.572-.426.035-.618.184-1.32 1.019a8.429 8.429 0 01-11.71 1.207c-.863-.678-1.91-2.003-2.331-2.95-.31-.697-.509-.89-1.055-1.022-.345-.083-.526.034-1.637 1.06zm-3.21 8.904c-1.35.307-2.598 1.295-3.178 2.516-.218.459-.402 1.228-.513 2.147-.163 1.345-.203 1.46-.66 1.912-.94.926-5.944 7.486-6.267 8.214-.772 1.742-.914 4.041-.368 5.988.127.452 1.144 2.706 2.26 5.008 1.118 2.302 2.114 4.427 2.214 4.724.377 1.108-.085 4.322-1.134 7.89-.236.805-.43 1.57-.43 1.703 0 .354.646.914 1.054.914.67 0 1.032-.51 1.505-2.127.57-1.947 1.261-5.237 1.37-6.533.135-1.588-.146-2.413-2.426-7.112-1.133-2.336-2.168-4.605-2.301-5.043-.34-1.119-.31-2.884.069-4.03.25-.758.727-1.45 3.04-4.415 1.508-1.933 2.89-3.582 3.07-3.662.502-.226.756-.189 2.75.402 1.128.334 2.143.55 2.591.551 1.036.004 2.457.315 2.798.612.455.397.372 1.024-.223 1.695-1.112 1.252-2.677 1.944-4.395 1.944-.96 0-1.041-.024-1.463-.446-.245-.245-.581-.754-.746-1.132-.346-.79-.613-1.029-1.153-1.029-.627 0-1.054.434-1.037 1.052.029 1.069 1.258 2.812 2.366 3.357.449.22.523.31.388.465-.335.39-1.723 1.182-2.662 1.52-1.15.414-1.51.72-1.51 1.28 0 1.058 1.017 1.248 2.755.516 1.24-.522 2.097-1.063 2.958-1.868l.61-.571.55.42c.873.665 1.524.876 2.732.885l1.088.007.083.584c.104.732.648 1.775 1.179 2.26.63.575 1.714.984 2.635.994l.807.008.302.703c.346.803 1.076 1.568 1.835 1.922.285.134.952.269 1.481.3.82.048 1.074.003 1.716-.3 1.65-.778 3.33-2.69 4.02-4.571.469-1.282.46-1.997-.027-2.367-.443-.336-.644-.35-1.172-.088-.31.155-.447.382-.644 1.063-.381 1.323-1.028 2.365-2.028 3.267-1.047.944-1.64 1.134-2.423.774-.573-.264-.974-1.026-.83-1.58.15-.584 2.8-6.5 3.095-6.912.358-.5.96-.787 1.65-.787 1.137 0 2.884 1.646 3.594 3.386.263.642.327 1.068.329 2.171.002 1.26-.042 1.484-.54 2.744-1.744 4.415-3.732 7.334-7.075 10.39-1.096 1.003-2.183 2.108-2.416 2.457-.492.737-1.149 2.407-1.639 4.168-.413 1.487-.426 1.861-.078 2.276.316.375 1.18.437 1.52.11.118-.115.403-.898.632-1.74.729-2.676 1.56-4.297 2.509-4.897.716-.452 2.663-2.347 3.75-3.648 1.834-2.197 3.27-4.614 4.519-7.606.793-1.9 1.034-2.878 1.036-4.213.003-1.463-.206-2.31-.924-3.746a8.089 8.089 0 00-2.962-3.294c-.554-.355-.838-.636-.888-.878-.649-3.143-2.803-5.597-5.148-5.866-.664-.076-.688-.095-1.022-.826-1.129-2.47-4.303-3.55-6.865-2.336l-.658.312-.459-.526c-1.095-1.258-2.928-1.84-4.596-1.462zm2.145 2.24c.44.22.91.69 1.162 1.159.147.274.118.44-.187 1.097-.198.427-.474 1.13-.612 1.564-.138.434-.329.79-.424.79-.095 0-.887-.217-1.761-.481-.874-.264-1.685-.48-1.8-.48-.134 0-.187-.09-.143-.24.038-.133.113-.61.166-1.063.15-1.261.716-2.108 1.634-2.44.419-.152 1.587-.096 1.965.093zm6.972 1.255c.657.264 1.236.788 1.468 1.328.157.365.146.427-.097.552-.617.319-1.584 1.465-2.088 2.476-.293.59-.533 1.134-.533 1.212 0 .077-.211-.126-.469-.452-.614-.776-1.225-1.16-2.173-1.364-.426-.092-.774-.19-.774-.218 0-.33.99-2.379 1.33-2.752.837-.918 2.202-1.239 3.336-.782zm4.498 3.504c1.103.295 2.597 2.108 2.873 3.486.078.394.049.423-.66.665-.474.161-.979.482-1.402.891-.576.558-.833 1.028-1.991 3.658-1.518 3.446-1.762 3.774-2.805 3.774-.558 0-.727-.07-1.157-.486l-.505-.486.08-1.332c.145-2.469 1.02-5.68 2.224-8.17.601-1.24 1-1.67 1.816-1.95.674-.231.831-.237 1.527-.05zm-7.313 6.921c-.07.3-.164.713-.209.92-.156.721-1.58 1.042-2.528.57l-.445-.222.986-.446c.542-.245 1.271-.667 1.621-.937.35-.271.65-.478.669-.461.018.017-.025.277-.094.576z" fill="url(#paint0_linear_3009_3637)"/><rect y=".002" width="23" height="23" rx="11.5" fill="#fff"/><path d="M7.746 17.002v-1.758l3.69-3.23c.277-.251.512-.48.706-.688.195-.21.343-.421.445-.632.102-.214.153-.446.153-.696 0-.28-.06-.519-.183-.717-.122-.2-.29-.355-.504-.464a1.604 1.604 0 00-.736-.163c-.28 0-.525.058-.736.173-.21.112-.375.275-.494.489a1.627 1.627 0 00-.172.78H7.598c0-.688.155-1.282.464-1.783.31-.5.744-.886 1.304-1.156.563-.273 1.217-.41 1.961-.41.768 0 1.435.129 2.001.386.566.256 1.004.615 1.314 1.076.313.458.47.99.47 1.596 0 .385-.078.767-.233 1.146-.155.379-.433.797-.835 1.255-.398.458-.965 1.006-1.699 1.645l-1.21 1.116v.064h4.1v1.971h-7.49z" fill="url(#paint1_linear_3009_3637)"/><defs><linearGradient id="paint0_linear_3009_3637" x1="9" y1="13.005" x2="61.02" y2="65.28" gradientUnits="userSpaceOnUse"><stop stop-color="#0ABD92"/><stop offset="1" stop-color="#009DB8"/></linearGradient><linearGradient id="paint1_linear_3009_3637" x1="7" y1="2.002" x2="22.042" y2="9.163" gradientUnits="userSpaceOnUse"><stop stop-color="#0ABD92"/><stop offset="1" stop-color="#009DB8"/></linearGradient></defs></svg>