<svg width="59" height="65" fill="none" xmlns="http://www.w3.org/2000/svg"><path fill-rule="evenodd" clip-rule="evenodd" d="M12.13 14.103c-.644.152-1.588.706-2.048 1.204-.233.253-.572.772-.753 1.153L9 17.154v5.709c0 5.654.002 5.712.225 6.124.682 1.26 1.982 1.726 3.218 1.152a2.407 2.407 0 001.242-1.386c.109-.303.14-1.442.144-5.134l.005-4.745 4.86-.03c4.528-.027 4.886-.043 5.256-.226 1.976-.98 1.843-3.748-.215-4.482-.308-.11-1.531-.138-5.795-.133-2.973.003-5.587.048-5.81.1zm32.135.03a2.42 2.42 0 00-1.388 1.244c-.65 1.394.08 2.96 1.572 3.374.274.075 1.99.114 5.066.115h4.651l.005 4.75c.003 3.694.035 4.834.144 5.137a2.407 2.407 0 001.242 1.386c1.236.574 2.535.108 3.218-1.152.223-.412.225-.47.225-6.13v-5.714l-.388-.784c-.468-.945-1.07-1.534-2.036-1.99l-.694-.33-5.614-.023c-4.518-.019-5.69.004-6.003.118zm-20.657 1.674c.354.377.337.933-.04 1.257l-.287.245h-5.134c-3.542 0-5.214.036-5.388.116a.865.865 0 00-.37.368c-.079.174-.115 1.841-.115 5.372 0 4.948-.006 5.128-.206 5.38-.113.145-.324.292-.468.328-.31.078-.83-.16-.986-.452-.15-.279-.144-10.609.006-11.148.14-.505.85-1.286 1.395-1.534.385-.176.812-.19 5.88-.192l5.466-.002.247.262zm32.377-.068c.545.248 1.255 1.03 1.395 1.534.073.26.112 2.261.112 5.724v5.324l-.255.255c-.386.386-.922.379-1.278-.016l-.233-.26v-5.127c0-3.536-.036-5.206-.116-5.38a.865.865 0 00-.368-.368c-.175-.08-1.847-.116-5.389-.116h-5.135l-.286-.245a.823.823 0 010-1.273l.286-.246 5.426.002c5.03.002 5.456.016 5.841.192zm-25 10.554c-5.386.745-11.437 3.673-16.736 8.097-3.097 2.587-3.638 3.272-3.638 4.613 0 1.119.343 1.678 1.898 3.091 3.315 3.013 7.062 5.572 10.524 7.189 5.765 2.692 11.346 3.288 16.96 1.814 5.083-1.336 10.418-4.419 15.37-8.883 1.687-1.52 2.012-2.047 2.021-3.272.008-1.06-.364-1.65-1.945-3.081-2.384-2.16-4.653-3.869-7.012-5.283-1.429-.856-1.876-.986-2.18-.631-.517.6-.332.889 1.127 1.762 2.323 1.391 4.54 3.03 6.693 4.95 1.588 1.415 1.803 1.695 1.803 2.352 0 .656-.214.921-2.025 2.518-2.85 2.512-5.676 4.446-8.722 5.97-7.827 3.915-14.751 3.86-22.61-.179-2.793-1.436-5.456-3.269-8.164-5.618-2.145-1.862-2.413-2.245-2.176-3.123.082-.304.34-.61 1.117-1.327 5.164-4.76 10.724-7.925 15.969-9.089 1.828-.405 2.898-.521 4.793-.518 2.69.005 5.327.496 7.993 1.49 1.25.467 1.468.498 1.807.26.25-.174.31-.638.128-.978-.226-.421-3.712-1.552-6.134-1.99-1.58-.287-5.245-.358-6.86-.134zm1.82 4.098c-2.774.426-5.248 2.156-6.469 4.525-.327.635-.37.793-.284 1.04a.95.95 0 00.373.441c.462.26.795.023 1.381-.981.887-1.519 2.263-2.634 4.001-3.24.703-.245.944-.276 2.193-.277 1.303 0 1.468.022 2.3.317 2.825 1.002 4.7 3.49 4.843 6.424.065 1.35-.137 2.31-.744 3.538-.846 1.712-2.314 2.995-4.164 3.64-.752.263-.966.29-2.235.29-1.255 0-1.487-.029-2.193-.276-2.795-.982-4.73-3.41-4.946-6.206-.079-1.017-.279-1.35-.813-1.35-.257 0-.408.076-.574.286-.203.258-.218.36-.152 1.064.293 3.135 2.07 5.781 4.78 7.118 1.325.653 2.331.894 3.794.909 1.462.014 2.502-.201 3.737-.775a8.64 8.64 0 004.115-3.983c.687-1.376.906-2.32.906-3.892 0-1.575-.22-2.52-.908-3.892-.89-1.778-2.156-3.025-3.952-3.893-.572-.276-1.378-.577-1.792-.667-.961-.21-2.397-.282-3.197-.16zm-.226 4.557c-1.082.39-1.971 1.2-2.506 2.287-.258.524-.283.678-.283 1.77 0 1.138.016 1.229.336 1.878.41.832 1.247 1.654 2.08 2.044.541.253.713.28 1.794.28 1.111 0 1.24-.022 1.82-.305.342-.167.883-.564 1.202-.882.318-.318.715-.858.883-1.2.283-.58.305-.708.305-1.817 0-1.094-.024-1.243-.287-1.778-.793-1.61-2.19-2.482-3.965-2.474-.55.003-1.027.07-1.38.197zm2.244 1.415c.635.188 1.374.812 1.686 1.423.663 1.297.061 3.016-1.309 3.74-.597.316-1.807.314-2.41-.004-1.023-.541-1.543-1.411-1.536-2.571.005-.828.172-1.236.756-1.85.786-.827 1.703-1.067 2.813-.738zm-24.316 11.42c-.47.203-.999.713-1.282 1.236-.223.412-.225.47-.225 6.124v5.71l.329.692c.458.965 1.047 1.566 1.993 2.033l.785.388 5.54.03c3.599.02 5.68-.007 5.94-.077a2.46 2.46 0 001.532-1.283c.578-1.24.126-2.543-1.111-3.202l-.455-.243-4.86-.03-4.86-.03-.004-4.744c-.005-5.12-.01-5.166-.569-5.898-.57-.746-1.881-1.082-2.753-.706zm45.05.084a2.407 2.407 0 00-1.242 1.386c-.109.303-.14 1.442-.144 5.134l-.005 4.745-4.86.03-4.859.03-.455.242c-1.237.659-1.69 1.962-1.11 3.202a2.46 2.46 0 001.53 1.283c.26.07 2.342.097 5.94.077l5.54-.03.786-.388c.946-.467 1.535-1.068 1.993-2.033l.329-.693v-5.709c0-5.654-.002-5.712-.225-6.124-.682-1.26-1.982-1.726-3.218-1.152zM12.07 49.461c.198.252.205.438.205 5.38 0 3.53.036 5.198.116 5.372a.86.86 0 00.368.368c.175.08 1.847.115 5.389.115h5.135l.286.246c.377.324.394.88.04 1.257l-.247.262-5.465-.002c-5.07-.002-5.496-.016-5.881-.192-.545-.248-1.255-1.03-1.395-1.534-.155-.555-.155-10.87 0-11.158.141-.265.66-.486.99-.423.14.026.346.166.459.31zm45.168-.031l.256.255v5.324c-.001 3.462-.04 5.464-.113 5.724-.14.504-.85 1.286-1.395 1.534-.385.176-.812.19-5.88.192l-5.466.002-.247-.262c-.354-.377-.337-.933.04-1.257l.286-.246h5.135c3.542 0 5.214-.035 5.389-.115a.865.865 0 00.368-.368c.08-.174.116-1.841.116-5.372 0-5.022.004-5.124.215-5.392.295-.375.93-.384 1.296-.02z" fill="url(#paint0_linear_3009_3636)"/><rect width="23" height="23" rx="11.5" fill="#fff"/><path d="M13.424 6.883V17h-2.44V9.166h-.06l-2.262 1.383V8.434l2.495-1.55h2.267z" fill="url(#paint1_linear_3009_3636)"/><defs><linearGradient id="paint0_linear_3009_3636" x1="9" y1="14.002" x2="60" y2="65.252" gradientUnits="userSpaceOnUse"><stop stop-color="#0ABD92"/><stop offset="1" stop-color="#009DB8"/></linearGradient><linearGradient id="paint1_linear_3009_3636" x1="8" y1="2" x2="20.62" y2="6.673" gradientUnits="userSpaceOnUse"><stop stop-color="#0ABD92"/><stop offset="1" stop-color="#009DB8"/></linearGradient></defs></svg>