<svg width="60" height="56" fill="none" xmlns="http://www.w3.org/2000/svg"><path fill-rule="evenodd" clip-rule="evenodd" d="M23.188 9.058c-.719.15-1.585.62-2.112 1.148-.348.348-1.46 2.14-3.842 6.193-1.845 3.137-3.44 5.923-3.545 6.192a4.031 4.031 0 00.964 4.351c.352.339 2.199 1.443 6.3 3.767 3.19 1.808 5.843 3.33 5.895 3.38.117.113-1.54 2.969-2.015 3.472-.185.196-.578.468-.873.606-.532.248-.573.25-4.163.251l-3.625.001v-2.616c0-2.198-.027-2.655-.167-2.852-.164-.23-.214-.235-2.417-.235h-2.25v-.72c0-1.521-.633-2.592-1.893-3.201-.718-.348-.722-.349-2.376-.353-1.614-.003-1.663.003-1.863.246-.2.243-.206.594-.206 13.022v12.772l.275.27c.275.27.276.27 1.907.233 1.526-.035 1.67-.057 2.24-.331a3.54 3.54 0 001.63-1.647c.192-.41.235-.736.267-2.038l.038-1.55 2.202-.035c2.834-.044 2.613.165 2.613-2.467v-1.934l4.162-.04 4.163-.04.967-.29c1.72-.519 3.246-1.468 4.394-2.734.33-.363 1.113-1.508 1.74-2.542.794-1.31 1.186-1.865 1.29-1.825.084.031 1.565.86 3.294 1.842 1.728.982 3.373 1.863 3.655 1.957 1.154.385 2.756.144 3.761-.565l.471-.333.688.23c2.15.72 4.687.118 6.376-1.512l.65-.627.429.23c1.433.771 1.42.767 1.731.618.223-.108.972-1.298 3.174-5.05 1.586-2.7 2.883-5.008 2.883-5.128a.75.75 0 00-.134-.393c-.074-.095-2.914-1.75-6.311-3.678l-16.966-9.627c-5.933-3.368-10.976-6.188-11.205-6.268-.554-.192-1.637-.266-2.196-.15zm2.036 1.705c.644.323 32.775 18.57 32.877 18.671.05.049-.988 1.922-2.306 4.163L53.4 37.673l-.433-.245a35928.429 35928.429 0 01-33.653-19.1c-.606-.345-1.083-.66-1.06-.698l1.462-2.498c2.184-3.732 2.312-3.922 2.864-4.24.266-.153.638-.317.825-.364.488-.121 1.323-.014 1.819.235zm-1.962 11.522c2.806 1.593 8.945 5.075 13.642 7.737 4.697 2.662 8.584 4.878 8.638 4.924.096.083-1.697 3.271-2.299 4.089-.64.868-2.141 1.233-3.17.77-.236-.106-3.692-2.046-7.68-4.311-3.989-2.265-9.282-5.27-11.763-6.677-2.482-1.408-4.673-2.71-4.87-2.894-.714-.667-1.009-1.627-.77-2.502.114-.413.841-1.729 2.119-3.83l.371-.61.34.204c.186.112 2.635 1.508 5.442 3.1zm-5.752.552c-.311.305-.335.583-.076.892.266.317 6.466 3.812 6.764 3.812.531 0 .879-.761.54-1.183-.207-.26-6.484-3.78-6.739-3.78-.124 0-.344.116-.49.259zm33.087 5.71c-.618.225-1.139.683-1.482 1.303-1.06 1.916.325 4.169 2.554 4.152.8-.006 1.329-.215 1.943-.772 1.398-1.267 1.116-3.525-.56-4.491-.604-.348-1.774-.439-2.455-.191zM8.315 29.964c.585.111.967.385 1.276.915l.24.412.001 10.37c.001 7.093-.034 10.463-.113 10.667-.31.803-1.063 1.19-2.329 1.193l-.886.002V29.865l.671.004c.37.003.882.045 1.14.094zm44.291.31c.357.392.46.733.367 1.217-.144.755-1.1 1.27-1.813.978-1.052-.432-1.209-1.817-.27-2.396.536-.33 1.316-.24 1.716.2zM14.668 41.06v6.864h-3.33V34.195h3.33v6.865zm15.248-5.27c.836.471 1.506.89 1.488.932-.017.041-.491.856-1.052 1.81-.867 1.474-1.159 1.871-1.935 2.633-1.046 1.027-1.752 1.47-3.086 1.94l-.941.33-4.11.034-4.108.033v-3.594l3.84-.032c3.73-.03 3.858-.038 4.458-.276 1.018-.404 1.616-1.046 2.765-2.964.56-.936 1.05-1.702 1.09-1.702.038 0 .755.385 1.59.856zm18.837.96l1.718.973-.55.498a4.74 4.74 0 01-3.241 1.242c-.71-.01-1.624-.21-1.625-.357 0-.12 1.863-3.327 1.934-3.327.025 0 .818.437 1.764.972z" fill="url(#paint0_linear_3009_3639)"/><rect y=".002" width="23" height="23" rx="11.5" fill="#fff"/><path d="M7.122 15.323v-1.907l4.145-6.53h1.694v2.588h-.983l-2.425 3.843v.08h6.002v1.926H7.122zm4.886 1.68V14.74l.05-.835v-7.02h2.287v10.117h-2.337z" fill="url(#paint1_linear_3009_3639)"/><defs><linearGradient id="paint0_linear_3009_3639" x1="5" y1="9.003" x2="51.141" y2="64.442" gradientUnits="userSpaceOnUse"><stop stop-color="#0ABD92"/><stop offset="1" stop-color="#009DB8"/></linearGradient><linearGradient id="paint1_linear_3009_3639" x1="6.5" y1="2.002" x2="22.519" y2="10.475" gradientUnits="userSpaceOnUse"><stop stop-color="#0ABD92"/><stop offset="1" stop-color="#009DB8"/></linearGradient></defs></svg>