<svg width="36" height="12" fill="none" xmlns="http://www.w3.org/2000/svg"><path fill-rule="evenodd" clip-rule="evenodd" d="M5.252 0c-.028 2.357-.178 3.681-1 4.565C3.427 5.449 2.194 5.61 0 5.639v.348c2.195.03 3.428.19 4.251 1.074.823.884.973 2.209 1 4.565h.325c.027-2.356.177-3.68 1-4.565.823-.884 2.057-1.044 4.252-1.074V5.64c-2.195-.03-3.429-.19-4.252-1.074-.823-.884-.973-2.208-1-4.565h-.324z" fill="#000"/><path d="M14.557 12v-1.826h4.364V12h1.325V8.99h-.762V1.42h-4.985l-.141 4.345c-.047 1.411-.188 2.557-.563 3.225h-.563V12h1.325zm1.044-6.033l.106-3.363h2.358V8.99h-2.933c.247-.592.422-1.612.47-3.023zm7.027 3.148c-.715 0-1.42-.277-1.795-.579v1.222c.27.24.95.541 1.96.541 1.489 0 2.275-.718 2.275-1.99 0-.743-.434-1.247-1.208-1.423.727-.252 1.032-.806 1.032-1.511 0-1.07-.786-1.663-2.053-1.663-.915 0-1.513.302-1.853.53v1.22c.375-.264.891-.566 1.654-.566.516 0 .844.265.844.73 0 .492-.281.756-.856.756h-.88v1.134h.88c.715 0 .997.227.997.78 0 .505-.34.82-.997.82zm7.722.63V8.524a3.387 3.387 0 01-1.842.591c-1.02 0-1.408-.516-1.467-1.574h3.367v-.793c0-2.205-.903-3.036-2.3-3.036-1.7 0-2.51 1.398-2.51 3.313 0 2.204 1.01 3.274 2.792 3.274.892 0 1.549-.252 1.96-.554zm-2.265-4.849c.692 0 .903.617.903 1.41v.127h-1.947c.036-1.008.376-1.537 1.044-1.537zm6.519-1.06v2.507h-1.865V3.836h-1.396v6.336h1.396V7.527h1.865v2.645H36V3.836h-1.396z" fill="#000"/></svg>