<svg width="29" height="10" fill="none" xmlns="http://www.w3.org/2000/svg"><path fill-rule="evenodd" clip-rule="evenodd" d="M4.13 0c-.02 1.854-.138 2.896-.786 3.59-.647.696-1.618.823-3.344.846v.274c1.726.023 2.697.15 3.344.844.648.696.765 1.738.787 3.591h.255c.022-1.853.14-2.895.787-3.59.647-.696 1.618-.822 3.344-.845v-.274c-1.726-.023-2.697-.15-3.344-.845-.648-.695-.765-1.737-.787-3.591h-.255z" fill="#fff"/><path d="M11.451 9.44V8.002h3.432v1.436h1.043V7.071h-.6V1.117h-3.921l-.11 3.418c-.038 1.11-.149 2.011-.444 2.536h-.443V9.44h1.043zm.821-4.746l.083-2.646h1.855v5.023h-2.307c.194-.465.332-1.268.37-2.377zM17.8 7.17c-.563 0-1.117-.218-1.412-.455v.96c.212.189.747.427 1.54.427 1.172 0 1.79-.565 1.79-1.566 0-.584-.34-.98-.95-1.12.572-.197.812-.633.812-1.188 0-.842-.618-1.308-1.614-1.308-.72 0-1.19.238-1.458.416v.961c.295-.208.7-.446 1.3-.446.407 0 .665.208.665.575 0 .386-.221.594-.674.594h-.692v.892h.692c.563 0 .785.178.785.614 0 .397-.268.644-.785.644zm6.073.496v-.961a2.664 2.664 0 01-1.449.465c-.802 0-1.107-.406-1.153-1.238h2.648v-.624c0-1.734-.71-2.388-1.808-2.388-1.338 0-1.975 1.1-1.975 2.606 0 1.733.794 2.576 2.196 2.576.701 0 1.218-.199 1.541-.436zm-1.78-3.815c.544 0 .71.486.71 1.11v.1H21.27c.028-.794.295-1.21.821-1.21zm5.127-.833v1.971h-1.467V3.018h-1.098V8h1.098V5.92h1.467V8h1.098V3.018H27.22z" fill="#fff"/></svg>