<svg width="20" height="20" fill="none" xmlns="http://www.w3.org/2000/svg"><path fill-rule="evenodd" clip-rule="evenodd" d="M10 19a9 9 0 100-18 9 9 0 000 18zm0 1c5.523 0 10-4.477 10-10S15.523 0 10 0 0 4.477 0 10s4.477 10 10 10z" fill="url(#paint0_linear_1870_5259)"/><path d="M9.068 14.5V7.955h1.816V14.5H9.067zm.912-7.39a.986.986 0 01-.694-.268A.87.87 0 019 6.19a.85.85 0 01.286-.643.978.978 0 01.694-.273c.27 0 .5.091.69.273.194.179.29.393.29.643 0 .253-.096.47-.29.652a.972.972 0 01-.69.269z" fill="url(#paint1_linear_1870_5259)"/><defs><linearGradient id="paint0_linear_1870_5259" x1="0" y1="0" x2="20.4" y2="20.5" gradientUnits="userSpaceOnUse"><stop stop-color="#0ABD92"/><stop offset="1" stop-color="#009DB8"/></linearGradient><linearGradient id="paint1_linear_1870_5259" x1="0" y1="0" x2="20.4" y2="20.5" gradientUnits="userSpaceOnUse"><stop stop-color="#0ABD92"/><stop offset="1" stop-color="#009DB8"/></linearGradient></defs></svg>