<svg width="54" height="67" fill="none" xmlns="http://www.w3.org/2000/svg"><path fill-rule="evenodd" clip-rule="evenodd" d="M25.685.082c-.672.167-1.588.637-2.941 1.507-2.135 1.374-2.169 1.383-5.273 1.353-2.545-.024-2.745-.008-3.495.28-1.232.472-2.068 1.395-3.185 3.518-1.268 2.408-1.52 2.662-3.808 3.832-1.468.75-2.075 1.143-2.705 1.753-1.215 1.177-1.316 1.554-1.32 4.977-.005 3.172.051 2.962-1.384 5.165C.157 24.64.052 24.919.052 26.47c0 1.554.122 1.876 1.512 3.98 1.431 2.166 1.386 1.998 1.392 5.254l.005 2.816.388.828c.541 1.158 1.415 1.88 3.673 3.038 1.986 1.018 2.521 1.472 3.208 2.719l.36.652-3.715 6.744c-4.01 7.28-4.01 7.281-3.454 8.18.5.812.81.884 4.086.957l2.954.065 1.638 2.358c.942 1.355 1.824 2.482 2.075 2.652.848.571 1.94.266 2.56-.716.171-.272 1.914-3.413 3.872-6.979 1.958-3.566 3.601-6.53 3.651-6.586.05-.057.385.027.743.187.933.413 2.646.417 3.562.006.36-.16.694-.247.744-.191.049.055 1.688 3.018 3.642 6.584s3.697 6.707 3.873 6.98c.635.984 1.719 1.286 2.566.715.251-.17 1.133-1.296 2.075-2.652l1.638-2.358 2.954-.065c3.276-.073 3.585-.145 4.087-.956.5-.812.384-1.219-1.152-4.01-.777-1.411-1.502-2.669-1.613-2.795-.273-.31-1.112-.304-1.4.01-.412.45-.26.951.973 3.193.656 1.194 1.23 2.266 1.275 2.382.073.19-.17.212-2.354.219-2.852.009-3.582.102-4.026.513-.178.166-.989 1.265-1.802 2.444-.814 1.179-1.519 2.143-1.568 2.143-.16 0-7.465-13.388-7.398-13.56.036-.092.56-.411 1.163-.71l1.097-.541 2.594.025c3.415.034 4.24-.198 5.425-1.526l.534-.6.834 1.547c.956 1.774 1.265 2.136 1.823 2.136.44 0 .945-.508.945-.951 0-.144-.567-1.293-1.26-2.554l-1.259-2.293.36-.65c.685-1.245 1.222-1.7 3.197-2.713 2.254-1.156 3.043-1.804 3.634-2.99l.437-.877.002-2.818c.003-3.257-.044-3.077 1.395-5.256 1.39-2.104 1.512-2.426 1.512-3.98 0-1.553-.122-1.875-1.512-3.979-1.431-2.167-1.389-2.007-1.393-5.189-.005-3.385-.11-3.774-1.33-4.977-.627-.618-1.206-.996-2.706-1.768-2.3-1.182-2.535-1.42-3.798-3.817-1.117-2.123-1.953-3.046-3.185-3.519-.75-.287-.95-.303-3.495-.28-3.119.03-3.11.033-5.359-1.405C28.985.42 28.161.075 27.084.01c-.495-.03-1.125.002-1.399.07zm2.123 2.07c.347.13 1.346.692 2.218 1.247 2.273 1.444 2.68 1.547 5.91 1.502 3.587-.05 3.651-.012 5.272 3.102 1.23 2.364 1.949 3.06 4.518 4.374 2.89 1.477 3.035 1.728 2.895 4.99-.054 1.255-.034 2.306.053 2.75.18.926.726 2.072 1.59 3.337 1.759 2.571 1.764 3.454.033 5.987-1.574 2.303-1.803 3.14-1.675 6.132.138 3.256-.033 3.543-3.022 5.062-2.4 1.218-3.194 1.986-4.32 4.172-1.668 3.236-1.67 3.238-5.671 3.26-3.4.019-3.286-.013-5.9 1.646-2.728 1.731-3.178 1.73-5.904-.025-.803-.516-1.82-1.09-2.26-1.273-.772-.32-.911-.334-3.656-.347-2.652-.013-2.893-.034-3.418-.298-.708-.357-1.166-.976-2.19-2.963-1.132-2.198-1.929-2.968-4.316-4.173-.97-.49-1.993-1.106-2.275-1.37-.744-.7-.854-1.245-.75-3.69.127-2.993-.102-3.83-1.676-6.133-1.73-2.533-1.726-3.416.032-5.987.865-1.265 1.411-2.411 1.591-3.337.087-.444.107-1.495.053-2.75-.14-3.262.006-3.513 2.895-4.99 2.54-1.3 3.306-2.03 4.446-4.243 1.02-1.98 1.479-2.603 2.19-2.972.538-.28.691-.293 3.153-.26 3.234.044 3.655-.063 5.921-1.503 2.395-1.522 3.04-1.71 4.262-1.248zm-3.084 4.096c-4.463.46-8.702 2.344-11.818 5.255-1.048.979-1.13 1.094-1.094 1.517.051.582.583 1.017 1.09.891.19-.047.807-.502 1.372-1.012 2.527-2.277 5.43-3.724 8.924-4.447 1.802-.373 4.907-.411 6.73-.082 2.594.468 5.307 1.562 7.445 3.002 2.213 1.49 4.798 4.437 6.057 6.904 2.034 3.99 2.478 8.927 1.196 13.302-1.424 4.86-4.97 9.042-9.598 11.324-1.44.71-3.482 1.379-5.063 1.659-1.68.298-4.683.296-6.37-.004-6.58-1.17-12.119-5.783-14.325-11.93-.99-2.76-1.317-6.081-.875-8.907.273-1.752 1.056-4.139 1.863-5.681.644-1.23.74-1.814.356-2.157-.322-.288-1.118-.28-1.385.012-.366.4-1.53 2.82-1.94 4.035-.803 2.372-.999 3.655-.999 6.541 0 2.234.044 2.823.302 3.995.843 3.847 2.65 7.251 5.293 9.969 3.262 3.354 7.17 5.373 11.91 6.152 1.193.196 4.769.197 5.971.002 4.744-.771 8.688-2.817 11.94-6.193 2.664-2.765 4.413-6.077 5.274-9.987.245-1.11.291-1.731.291-3.938 0-2.229-.045-2.824-.3-3.994-1.094-5.007-3.845-9.265-7.954-12.31-4.069-3.016-9.254-4.437-14.293-3.918zm.796 6.977c-.486.283-.683.603-2.322 3.765l-1.792 3.456-3.649.528c-2.27.33-3.81.614-4.073.753-1.06.56-1.566 2.094-1.03 3.118.13.246 1.427 1.596 2.883 3l2.65 2.555-.645 3.75-.644 3.749.264.624c.387.918 1.065 1.407 2.044 1.477.868.062.966.02 5.452-2.332 1.1-.576 2.051-1.047 2.116-1.047.066 0 1.601.77 3.413 1.71l3.295 1.71.824-.046c.683-.038.91-.115 1.327-.447.29-.23.614-.665.766-1.025l.264-.624-.644-3.75-.645-3.75 2.651-2.553c1.458-1.405 2.755-2.755 2.883-3.001.534-1.026.027-2.56-1.03-3.117-.262-.137-1.823-.426-4.074-.753l-3.65-.53-1.79-3.456c-1.64-3.16-1.837-3.481-2.323-3.764-.384-.224-.732-.31-1.26-.31-.53 0-.877.086-1.261.31zm3.185 4.892c1.586 3.16 1.93 3.692 2.617 4.045.2.103 1.983.422 3.965.711 1.982.289 3.655.556 3.719.595.338.207-.108.76-2.537 3.139-2.082 2.039-2.702 2.725-2.881 3.189-.227.587-.225.614.408 4.29.35 2.036.599 3.763.551 3.839-.183.292-.707.082-3.819-1.533-2.99-1.552-3.27-1.67-3.948-1.67-.678 0-.954.117-3.939 1.67-3.095 1.61-3.642 1.829-3.827 1.532-.048-.075.2-1.802.55-3.837.634-3.677.637-3.704.41-4.291-.18-.464-.8-1.15-2.882-3.19-2.434-2.384-2.875-2.93-2.534-3.14.065-.039 1.731-.303 3.702-.586 1.972-.284 3.755-.603 3.963-.71.723-.373 1.104-.958 2.573-3.952.813-1.656 1.542-3.088 1.62-3.182.078-.093.267-.152.42-.13.217.03.618.719 1.869 3.211zM13.292 49.383c.973.556 1.567.64 4.34.612l2.593-.025 1.098.542c.603.298 1.126.617 1.162.71.067.171-7.238 13.56-7.398 13.56-.05 0-.755-.965-1.568-2.144-.813-1.179-1.626-2.28-1.806-2.447-.434-.403-1.188-.497-4.088-.508-2.146-.01-2.362-.03-2.286-.226.06-.155 5.69-10.45 6.278-11.48.032-.056.298.166.591.494.293.328.78.739 1.084.912z" fill="url(#paint0_linear_1924_5703)"/><defs><linearGradient id="paint0_linear_1924_5703" x1=".052" y1="0" x2="66.758" y2="53.484" gradientUnits="userSpaceOnUse"><stop stop-color="#0ABD92"/><stop offset="1" stop-color="#009DB8"/></linearGradient></defs></svg>