<svg width="51" height="48" fill="none" xmlns="http://www.w3.org/2000/svg"><path fill-rule="evenodd" clip-rule="evenodd" d="M9.341.187c-.46.307-.604.824-.604 2.165v1.23l-1.15.048c-1.302.054-1.886.268-2.667.976-.777.705-1.059 1.37-1.117 2.635l-.05 1.099h-1.29c-1.837 0-2.46.313-2.46 1.24s.622 1.239 2.475 1.239H3.78v2.365H.806l-.402.383c-.446.427-.52.872-.234 1.401.261.483.598.579 2.135.61l1.416.029v2.366L2.364 18c-1.71.035-1.845.067-2.128.51-.36.564-.305 1.05.168 1.502l.402.383H3.78v2.366H2.478C.625 22.76.003 23.072.003 24c0 .928.622 1.24 2.475 1.24H3.78v2.365H.806l-.402.383c-.446.427-.52.872-.234 1.401.261.483.598.579 2.135.61l1.416.028v2.366l-1.357.028c-1.71.035-1.845.067-2.128.51-.36.564-.305 1.05.168 1.502l.402.383H3.78v2.365H2.478c-1.853 0-2.475.312-2.475 1.24 0 .926.623 1.24 2.461 1.24h1.288l.05 1.098c.057 1.241.281 1.799 1.023 2.544.738.742 1.436 1.011 2.761 1.067l1.151.048v1.23c0 1.755.329 2.35 1.298 2.35.973 0 1.299-.594 1.299-2.363v-1.243h2.478v2.839l.402.383c.446.426.913.497 1.467.224.506-.25.606-.571.639-2.038l.03-1.352h2.478l.03 1.352c.033 1.467.134 1.788.639 2.038.554.273 1.021.202 1.468-.224l.401-.383v-2.84h2.479v1.244c0 1.769.326 2.362 1.298 2.362s1.298-.593 1.298-2.362v-1.243h2.479v2.839l.401.383c.446.426.913.497 1.468.224.505-.25.606-.571.638-2.038l.03-1.352h2.479l.03 1.352c.032 1.467.133 1.788.639 2.038.554.273 1.02.202 1.467-.224l.401-.383v-2.84h2.48v1.244c0 1.769.325 2.362 1.297 2.362.97 0 1.299-.594 1.299-2.35v-1.229l1.15-.048c1.326-.056 2.023-.325 2.762-1.067.741-.745.965-1.303 1.022-2.544l.05-1.099h1.289c1.838 0 2.46-.313 2.46-1.24s-.62-1.239-2.474-1.239h-1.302v-2.365h2.974l.401-.383c.447-.427.521-.872.235-1.401-.262-.483-.599-.579-2.135-.61l-1.416-.029v-2.366L47.98 30c1.536-.031 1.873-.127 2.135-.61.286-.529.212-.974-.235-1.4l-.4-.384h-2.975V25.24h1.302c1.853 0 2.475-.311 2.475-1.239 0-.928-.622-1.24-2.475-1.24h-1.302v-2.365h2.974l.401-.383c.447-.427.521-.872.235-1.401-.262-.483-.599-.579-2.135-.61l-1.416-.029v-2.365l1.416-.029c1.536-.031 1.873-.127 2.135-.61.286-.529.212-.974-.235-1.4l-.4-.384h-2.975V10.82h1.302c1.853 0 2.475-.312 2.475-1.24 0-.926-.623-1.24-2.461-1.24h-1.289l-.05-1.098c-.058-1.265-.34-1.93-1.118-2.635-.78-.708-1.364-.922-2.666-.976l-1.15-.048v-1.23c0-1.755-.329-2.35-1.299-2.35-.972 0-1.298.594-1.298 2.363v1.243h-2.478V.77l-.402-.383c-.474-.452-.982-.504-1.572-.16-.465.27-.498.398-.535 2.03l-.03 1.296h-2.478l-.03-1.352C31.395.733 31.294.412 30.79.162c-.555-.273-1.022-.202-1.468.224l-.401.383v2.84H26.44V2.364c0-1.769-.326-2.362-1.298-2.362s-1.298.593-1.298 2.362v1.243h-2.479V.77l-.401-.383c-.474-.452-.983-.504-1.573-.16-.464.27-.498.398-.535 2.03l-.029 1.296H16.35L16.32 2.2C16.287.733 16.187.412 15.68.162c-.554-.273-1.021-.202-1.467.224l-.402.383v2.84h-2.478V2.364c0-1.769-.326-2.362-1.299-2.362-.23 0-.543.083-.694.184zm34.627 6.468v34.69l-.654.625H6.972l-.655-.625V24.009c0-17.177.003-17.338.237-17.586.13-.138.342-.292.472-.343.13-.051 8.347-.083 18.262-.071l18.026.021.654.625zM9.483 8.522c-.794.373-.746-.614-.746 15.478 0 16.134-.05 15.113.765 15.482.35.16 1.999.178 15.64.178 13.643 0 15.291-.019 15.642-.178.815-.369.765.652.765-15.482s.05-15.113-.765-15.482c-.351-.16-1.997-.178-15.659-.176-13.622.003-15.307.022-15.642.18zm29.47 28.66h-27.62V10.817h27.62v26.364z" fill="url(#paint0_linear_1924_5738)"/><path d="M20.204 29.693c-.808 0-1.527-.139-2.159-.416-.627-.282-1.123-.668-1.488-1.158a2.91 2.91 0 01-.557-1.71h2.36c.014.27.102.508.265.714.165.202.386.359.66.47.274.113.582.169.925.169.357 0 .673-.064.947-.19a1.55 1.55 0 00.644-.525c.155-.224.233-.481.233-.774a1.29 1.29 0 00-.25-.784 1.591 1.591 0 00-.703-.541c-.303-.13-.664-.195-1.082-.195h-1.034v-1.72H20c.354 0 .666-.062.936-.185a1.51 1.51 0 00.639-.509c.151-.22.227-.476.227-.768a1.328 1.328 0 00-.752-1.228 1.794 1.794 0 00-.823-.179c-.317 0-.608.058-.871.173a1.522 1.522 0 00-.633.482c-.159.21-.244.454-.255.736h-2.245c.01-.639.193-1.201.546-1.689.354-.486.83-.867 1.429-1.141.602-.278 1.282-.417 2.04-.417.765 0 1.434.139 2.008.417.573.277 1.019.653 1.336 1.125.321.47.48.996.476 1.58.004.62-.189 1.139-.579 1.553-.386.415-.889.679-1.51.79v.087c.816.105 1.436.388 1.862.85.43.458.642 1.031.639 1.72a2.704 2.704 0 01-.547 1.683c-.364.49-.867.877-1.51 1.158-.642.282-1.378.422-2.207.422z" fill="url(#paint1_linear_1924_5738)"/><path d="M26.153 29.542v-1.689l3.945-3.652c.335-.325.617-.617.844-.877.23-.26.406-.514.525-.763a1.89 1.89 0 00.178-.817 1.54 1.54 0 00-.222-.839 1.457 1.457 0 00-.606-.546 1.9 1.9 0 00-.87-.195c-.34 0-.636.069-.888.206a1.417 1.417 0 00-.585.59 1.91 1.91 0 00-.205.914h-2.224c0-.725.164-1.355.492-1.889a3.29 3.29 0 011.38-1.239c.592-.292 1.273-.438 2.045-.438.794 0 1.485.14 2.073.422.592.278 1.052.664 1.38 1.158.328.494.492 1.06.492 1.7 0 .418-.083.83-.249 1.238-.162.408-.453.86-.87 1.359-.42.494-1.01 1.087-1.77 1.78L29.4 27.55v.076h4.653v1.916h-7.9z" fill="url(#paint2_linear_1924_5738)"/><defs><linearGradient id="paint0_linear_1924_5738" x1="0" y1="0" x2="48.896" y2="51.475" gradientUnits="userSpaceOnUse"><stop stop-color="#0ABD92"/><stop offset="1" stop-color="#009DB8"/></linearGradient><linearGradient id="paint1_linear_1924_5738" x1="0" y1="0" x2="48.896" y2="51.475" gradientUnits="userSpaceOnUse"><stop stop-color="#0ABD92"/><stop offset="1" stop-color="#009DB8"/></linearGradient><linearGradient id="paint2_linear_1924_5738" x1="0" y1="0" x2="48.896" y2="51.475" gradientUnits="userSpaceOnUse"><stop stop-color="#0ABD92"/><stop offset="1" stop-color="#009DB8"/></linearGradient></defs></svg>