<svg width="50" height="46" fill="none" xmlns="http://www.w3.org/2000/svg"><path fill-rule="evenodd" clip-rule="evenodd" d="M3.063.147C1.548.557.376 1.807.088 3.322c-.08.42-.101 4.94-.08 16.764l.028 16.19.226.562c.429 1.07 1.372 1.987 2.475 2.405.534.203.712.212 4.64.241l4.085.03.625.752c2.008 2.413 4.91 4.285 8 5.159 1.59.45 2.53.573 4.376.575 1.799.002 2.473-.078 4.119-.49 3.114-.778 6.142-2.667 8.252-5.15l.719-.845 4.087-.03c3.932-.03 4.11-.039 4.644-.242 1.103-.418 2.046-1.334 2.475-2.405l.226-.563.026-16.237c.017-11.358-.006-16.389-.078-16.74-.32-1.556-1.61-2.87-3.138-3.196C45.428.024 39.531-.004 24.434 0 6.526.006 3.507.027 3.064.147zm42.953 1.742c.452.246.914.719 1.162 1.189.147.279.183.607.21 1.903l.033 1.566H1.6l.033-1.566c.027-1.296.063-1.624.21-1.903.343-.65.933-1.153 1.593-1.356.132-.04 9.68-.067 21.218-.058l20.978.017.384.208zM3.726 3.394c-.76.387-.496 1.515.356 1.515a.78.78 0 00.497-1.389c-.328-.278-.504-.304-.852-.126zm3.3-.032c-.268.11-.417.308-.484.647-.084.421.334.9.787.9.85 0 1.11-1.12.353-1.526-.24-.129-.381-.133-.657-.02zm3.231.01c-.255.103-.524.676-.435.929.033.096.148.272.255.39.42.47 1.31.127 1.31-.504 0-.455-.08-.614-.39-.776-.307-.16-.427-.166-.74-.04zm11.277.18c-.358.36-.375.789-.045 1.12l.235.237h5.573l.235-.237c.33-.331.313-.76-.045-1.12l-.28-.281h-5.393l-.28.281zm13.89 0c-.358.36-.375.789-.045 1.12l.235.237h4.823c4.714 0 4.829-.005 5.032-.196.437-.409.352-1.051-.175-1.32-.18-.09-1.365-.12-4.913-.121l-4.678-.001-.28.281zm11.98 18.396c0 15.245.042 14.243-.625 15.027a2.95 2.95 0 01-.785.613c-.452.226-.5.23-3.882.26-1.883.017-3.424.014-3.424-.007 0-.02.21-.458.466-.973a19.33 19.33 0 00.838-2.041l.371-1.105h.785c.886 0 1.203-.093 1.598-.464.472-.444.657-1.158.476-1.838-.08-.3-3.61-4.634-3.953-4.853-.145-.093-.453-.193-.686-.223-.782-.101-1.083.147-2.991 2.463-.94 1.14-1.79 2.245-1.89 2.457-.458.967.037 2.065 1.071 2.377.204.06.37.151.37.2 0 .05-.215.509-.478 1.021-.515 1.003-1.036 1.749-1.76 2.518l-.457.485H16.573l-.653-.74c-1.018-1.154-1.357-1.453-1.83-1.615-.88-.301-1.699-.144-2.377.457-.488.431-.77.926-.863 1.51l-.064.4-3.65-.03c-3.621-.03-3.655-.032-4.11-.259a2.981 2.981 0 01-.784-.613c-.667-.784-.626.218-.626-15.027V8.185h45.789v13.763zM3.525 10.972c-.362.366-.362.71 0 1.075.278.279.291.282 1.394.282 1.055 0 1.126-.013 1.349-.237a.827.827 0 000-1.165c-.223-.224-.294-.236-1.349-.236-1.103 0-1.116.002-1.393.281zm4.928-.053c-.201.174-.264.315-.264.59 0 .277.063.417.264.591l.264.229h7.948l.235-.237c.232-.233.304-.628.176-.963-.158-.415-.403-.438-4.48-.438h-3.88l-.263.228zm23.866-.117c-.496.272-.59.894-.196 1.29l.235.237h7.948l.264-.229a.768.768 0 000-1.181l-.264-.229-3.898.003c-2.636.002-3.96.037-4.09.109zm10.436.125a.769.769 0 00-.235.583c0 .239.073.419.235.582.223.224.294.237 1.349.237 1.103 0 1.116-.003 1.393-.282.169-.17.28-.383.28-.537 0-.155-.111-.368-.28-.538-.277-.279-.29-.281-1.393-.281-1.055 0-1.126.012-1.349.236zm-20.767 2.415c-6.511 1.06-11.701 5.796-13.297 12.135l-.208.825h-.63c-.348 0-.785.043-.971.096-.385.107-.893.59-1.044.994-.145.388-.125.999.044 1.352.08.167.923 1.258 1.873 2.424 2.071 2.542 2.347 2.745 3.338 2.46.18-.052.432-.193.562-.314.392-.362 3.525-4.243 3.694-4.575.302-.59.12-1.515-.386-1.976-.247-.225-.832-.462-1.14-.462-.227 0-.246-.026-.188-.264.127-.527.716-1.785 1.217-2.601.619-1.01 2.219-2.671 3.194-3.318 3.605-2.391 7.851-2.666 11.638-.754 1.612.814 2.86 1.877 4.052 3.452.849 1.12 1.246 1.38 2.209 1.436.608.037.743.01 1.21-.232 1.165-.603 1.671-2.054 1.12-3.211-.279-.585-1.273-1.846-2.195-2.782-2.293-2.331-5.07-3.844-8.36-4.554-1.249-.27-4.433-.343-5.732-.131zm-18.459.903c-.302.304-.352.569-.172.909.236.446.23.445 3.971.448 3.454.003 3.563-.003 3.808-.197.314-.248.348-.816.069-1.162l-.183-.228-3.605-.027-3.604-.028-.284.285zm34.52-.181c-.478.194-.577 1.013-.162 1.341.245.194.354.2 3.808.197 3.742-.003 3.735-.002 3.97-.448.18-.34.131-.605-.168-.905l-.28-.282-3.48.006c-1.914.003-3.574.044-3.689.091zm-10.52 1.053c3.117.725 5.502 2.081 7.669 4.362 1.03 1.085 1.67 2.006 1.67 2.405 0 .392-.38.756-.785.753-.403-.004-.494-.082-1.159-.975-1.122-1.508-3.189-3.203-4.815-3.948-1.969-.902-3.306-1.189-5.55-1.191-1.912-.003-2.511.084-4.07.585-1.908.613-3.49 1.56-4.961 2.973-1.095 1.05-1.95 2.178-2.588 3.412-.756 1.463-1.364 3.4-1.216 3.871.145.458.413.576 1.31.576.465 0 .844.032.843.072-.002.091-3.148 3.917-3.253 3.956-.06.022-2.499-2.885-3.129-3.73-.096-.128-.132-.13-.287-.007-.167.13-.167.125.004-.076.168-.198.265-.215 1.216-.215 1.367 0 1.428-.052 1.715-1.446.575-2.793 1.887-5.187 4.017-7.33 2.155-2.168 4.45-3.427 7.349-4.032 1.368-.285 1.352-.284 3.338-.248 1.415.025 2.012.077 2.682.233zm12.5 14.822c.858 1.047 1.619 1.897 1.693 1.89.104-.011.11.016.024.12-.084.101-.391.134-1.238.134-1.417 0-1.453.025-1.765 1.205-1.485 5.613-5.856 9.716-11.566 10.856-1.526.305-3.798.306-5.314.004-3.424-.685-6.49-2.47-8.573-4.992-.967-1.172-1.038-1.404-.568-1.876.48-.484.89-.355 1.55.489 1.024 1.309 2.537 2.585 4.029 3.398 6.414 3.496 14.475.986 17.81-5.545.487-.953 1.045-2.445 1.045-2.793 0-.1-.126-.309-.28-.464-.26-.262-.331-.282-1.006-.282-.399 0-.726-.027-.726-.06 0-.11 3.18-3.986 3.269-3.987.032 0 .76.856 1.617 1.903zm-10.68 10.05c-2.626 1.286-5.61 1.466-8.455.51-.722-.243-2.034-.855-2.034-.949 0-.025 2.575-.043 5.723-.038l5.724.008-.958.469z" fill="url(#paint0_linear_1924_5741)"/><defs><linearGradient id="paint0_linear_1924_5741" x1="0" y1="0" x2="46.811" y2="50.125" gradientUnits="userSpaceOnUse"><stop stop-color="#0ABD92"/><stop offset="1" stop-color="#009DB8"/></linearGradient></defs></svg>