<svg width="57" height="74" fill="none" xmlns="http://www.w3.org/2000/svg"><path fill-rule="evenodd" clip-rule="evenodd" d="M37.87.16l-.5.136-2.85 4.936-2.849 4.935-.698-.403c-.385-.222-.814-.422-.955-.444-.532-.083-1.024.421-1.913 1.96l-.857 1.485-.995-.509c-.814-.417-1.077-.486-1.455-.384l-.46.125L13.274 31.16C4.196 46.883 2.14 50.516 1.826 51.4 1.062 53.538.715 55.932.83 58.26c.085 1.724 1.069 5.222 1.904 6.771 3.67 6.809 11.205 10.198 18.621 8.376 3.383-.83 6.166-2.486 8.641-5.14.93-.997 1.097-1.275 11.974-20.015 12.056-20.77 11.51-19.746 10.918-20.475-.145-.178-.607-.523-1.028-.766l-.766-.442.767-1.33c.867-1.503 1.137-2.33.891-2.727-.092-.15-.491-.458-.886-.686l-.718-.415 2.768-4.793c1.869-3.237 2.78-4.924 2.807-5.193a1.245 1.245 0 00-.192-.724c-.162-.229-2.9-1.867-9.196-5.501L38.371.025l-.5.136zm13.65 15.846l-2.435 4.216-7.674-4.431-7.675-4.431 2.434-4.216 2.434-4.216 7.675 4.43 7.675 4.432-2.434 4.216zm-9.93-7.99c-.465.126-.555.229-1.247 1.428-.873 1.511-.914 1.672-.57 2.212.326.51.866.674 1.45.438.368-.148.56-.379 1.106-1.323.735-1.273.85-1.786.508-2.267-.356-.501-.7-.636-1.248-.488zm5.03 2.905c-.465.126-.554.228-1.249 1.431-.676 1.172-.739 1.346-.65 1.824.135.723.766 1.088 1.46.842.457-.161.577-.302 1.254-1.474.695-1.203.739-1.332.615-1.797a1.197 1.197 0 00-.531-.732 1.197 1.197 0 00-.9-.094zm2.934 13.55l-.525.907-9.867-5.696-9.868-5.697.525-.909.524-.908 9.867 5.697 9.868 5.697-.524.909zM40.31 46.376C30.027 64.273 29.012 65.945 27.595 67.315c-4.939 4.776-12.413 5.552-17.942 1.863-5.874-3.92-8.02-11.175-5.246-17.742.53-1.254 20.92-36.667 21.147-36.73.076-.02 5.677 3.181 12.447 7.114l12.309 7.151-10 17.405zM28.514 21.737c-.668.18-1.012.775-.836 1.44l.133.501 6.783 3.917 6.784 3.916.5-.136c.608-.164.968-.72.87-1.345l-.07-.449-6.829-3.99-6.83-3.991-.505.137zm-3.272 6.238a1.123 1.123 0 00-1.198 1.455l.136.454 6.85 3.956 6.851 3.955.465-.188c.634-.255.9-.774.716-1.392l-.15-.506-6.584-3.84c-5.327-3.107-6.68-3.85-7.086-3.894zm-6.46 24.065c-.957-.287-2.522-.25-3.546.083-4.293 1.399-5.685 6.55-2.693 9.967 1.492 1.704 4.125 2.42 6.287 1.708 4.44-1.46 5.78-6.959 2.497-10.245-.613-.614-1.696-1.258-2.546-1.513zm1.27 3.722c.89 1.294.96 2.68.203 4.007-.575 1.006-1.308 1.545-2.432 1.786-1.03.221-1.84.098-2.703-.413-2.655-1.568-2.255-5.61.664-6.708.457-.171 1.535-.26 2.034-.166.823.155 1.729.76 2.234 1.494z" fill="url(#paint0_linear_1924_5710)"/><defs><linearGradient id="paint0_linear_1924_5710" x1="33.03" y1="-3.059" x2="70.225" y2="47.493" gradientUnits="userSpaceOnUse"><stop stop-color="#0ABD92"/><stop offset="1" stop-color="#009DB8"/></linearGradient></defs></svg>