<svg width="70" height="69" fill="none" xmlns="http://www.w3.org/2000/svg"><path fill-rule="evenodd" clip-rule="evenodd" d="M37.922 2.423c-6.181.885-9.983 1.485-10.232 1.614-.218.114-6.111 5.856-13.096 12.76C2.889 28.366 1.86 29.418 1.476 30.21c-1.092 2.25-1.073 4.547.056 6.709.46.879 1.288 1.732 11.202 11.535 5.889 5.823 11.012 10.82 11.385 11.105l.678.518.078 1.145c.208 3.044 2.091 5.49 4.985 6.476l.89.303h32.024l.89-.303c2.173-.74 3.798-2.329 4.658-4.555l.3-.776.035-18.114c.033-16.522.017-18.15-.18-18.526-.12-.227-1.723-2.393-3.565-4.813-1.841-2.421-3.395-4.479-3.453-4.573-.058-.094-.033-.673.055-1.285.24-1.66.169-1.785-2.457-4.37l-2.193-2.16 2.186-2.167c2.667-2.647 2.906-3.083 2.33-4.258a1.96 1.96 0 00-2.574-.917c-.231.108-1.405 1.169-2.608 2.357L54.01 5.7l-2.262-2.217c-1.244-1.22-2.43-2.28-2.636-2.357a2.738 2.738 0 00-.864-.125c-.27.008-4.916.648-10.326 1.422zm11.466 4.363l1.76 1.738-1.395 1.37-1.395 1.37-.831-.8c-.997-.96-1.238-1.093-1.986-1.092-1.463 0-2.41 1.508-1.754 2.79.284.553 5.531 5.78 6.29 6.265 1.58 1.01 3.354-.214 3.001-2.07-.067-.35-.332-.727-.972-1.381l-.88-.899 1.39-1.37 1.39-1.372 1.753 1.737 1.753 1.736-1.289 8.876-1.289 8.876-12.159 11.997c-7.147 7.052-12.378 12.113-12.69 12.279-.7.371-2.175.394-2.857.045-.648-.332-21.87-21.238-22.229-21.897-.382-.703-.403-2.134-.042-2.882.171-.353 4.209-4.43 12.388-12.51L29.48 7.606l8.873-1.265c4.88-.696 8.964-1.272 9.075-1.28.11-.007.993.769 1.96 1.725zm-14.925 9.19c-.222.095-.561.356-.752.58-.26.304-1.56 3.994-5.153 14.627-5.15 15.239-4.952 14.536-4.37 15.48.67 1.09 2.515 1.09 3.238.002.308-.463 9.768-28.507 9.768-28.956 0-.608-.515-1.363-1.13-1.656-.633-.303-1.032-.322-1.6-.078zM64.701 44.26c0 19.189.07 17.846-.993 18.895-1.057 1.042.033.98-16.946.98-16.979 0-15.89.062-16.946-.98-.461-.454-.993-1.479-.993-1.912 0-.05.284-.133.63-.182a8.346 8.346 0 002.728-.875c.716-.366 2.542-2.11 13.552-12.942C55.948 37.195 58.495 34.623 58.648 34.2c.105-.289.558-3.12 1.005-6.29.448-3.17.842-5.846.874-5.946.034-.103.946.982 2.117 2.52l2.057 2.701v17.076zM18.073 25.89c-2.133.413-4.054 2.187-4.593 4.242-.563 2.146.054 4.268 1.686 5.79 1.541 1.437 3.558 1.944 5.622 1.414 2.898-.744 4.845-3.727 4.321-6.619a5.993 5.993 0 00-7.036-4.827zm22.371.04a6.094 6.094 0 00-4.008 3.188c-.44.876-.5 1.117-.547 2.205-.044.978.001 1.402.226 2.13 1.282 4.163 6.712 5.463 9.867 2.363 2.308-2.267 2.329-5.866.048-8.223-1.454-1.503-3.593-2.14-5.586-1.662zm-20.146 4.107c.918.675 1.157 1.59.658 2.51-.697 1.284-2.472 1.418-3.338.253-.378-.509-.435-1.504-.118-2.07.534-.955 1.962-1.308 2.798-.693zm22.631.05c.519.363.799.944.799 1.656 0 1.41-1.69 2.34-2.914 1.604-1.195-.718-1.303-2.478-.2-3.25.202-.141.487-.289.633-.328.45-.12 1.282.036 1.682.317z" fill="url(#paint0_linear_3002_1135)" stroke="#151515"/><defs><linearGradient id="paint0_linear_3002_1135" x1=".671" y1="1" x2="68.998" y2="70.687" gradientUnits="userSpaceOnUse"><stop stop-color="#0ABD92"/><stop offset="1" stop-color="#009DB8"/></linearGradient></defs></svg>