<svg width="68" height="67" fill="none" xmlns="http://www.w3.org/2000/svg"><path fill-rule="evenodd" clip-rule="evenodd" d="M43.82.204c-.474.123-1.159.392-1.523.6-.806.458-23.519 22.84-23.824 23.477-.146.303-.2.864-.2 2.055v1.638l-1.82.045c-1.615.04-1.865.077-2.218.33-.218.156-3.262 3.133-6.764 6.615-5.713 5.68-6.411 6.42-6.792 7.195-.863 1.755-.865 3.726-.007 5.45.352.709.882 1.32 2.933 3.387 1.377 1.388 2.714 2.622 2.971 2.742.596.28.934.193 1.803-.463 2.1-1.586 4.834-.979 6.086 1.352.24.448.297.763.296 1.666 0 .951-.051 1.21-.352 1.777-.193.364-.455.747-.58.851-.34.279-.572.92-.494 1.367.052.296.73 1.044 2.735 3.015 2.193 2.157 2.818 2.696 3.526 3.044 1.766.867 3.756.87 5.56.011.77-.367 1.531-1.071 7.257-6.711 3.519-3.466 6.527-6.478 6.685-6.694.255-.349.292-.597.333-2.194l.046-1.802h1.646c1.111 0 1.784-.059 2.072-.181.237-.102 2.249-2 4.547-4.29 3.152-3.142 4.143-4.206 4.211-4.525.186-.865-.683-1.726-1.558-1.542-.322.068-1.36 1.013-4.397 4.004l-3.975 3.915h-4.445l-.387.383-.387.382v4.41l-6.255 6.176c-3.44 3.397-6.462 6.284-6.717 6.416-.641.33-2.271.33-2.912 0-.255-.133-1.368-1.129-2.473-2.215l-2.01-1.974.323-.63c1.805-3.525.064-7.808-3.727-9.168-1.566-.562-3.979-.36-5.33.446l-.442.264-1.982-1.95c-1.09-1.073-2.111-2.187-2.268-2.475-.379-.695-.403-2.268-.045-2.947.134-.252 3.05-3.244 6.483-6.648l6.241-6.19h4.456l.387-.382.387-.383v-4.409L32.204 14.29C38.41 8.155 43.697 3.028 43.952 2.896c.686-.354 2.275-.33 2.978.045.291.155 1.41 1.159 2.487 2.23l1.958 1.948-.402.85c-.746 1.578-.84 3.264-.271 4.898 1.29 3.713 5.689 5.464 9.246 3.68l.637-.32 1.995 1.99c1.097 1.093 2.103 2.194 2.237 2.446.336.637.335 2.249-.002 2.882-.134.252-1.748 1.962-3.586 3.799-2.157 2.156-3.373 3.467-3.429 3.7-.228.944.764 1.847 1.696 1.542.294-.096 1.517-1.224 3.805-3.51 2.876-2.873 3.434-3.495 3.79-4.22.869-1.771.869-3.73 0-5.503-.349-.713-.847-1.279-3.075-3.489-1.99-1.975-2.758-2.655-3.055-2.706-.451-.078-1.1.151-1.382.487-.105.125-.492.384-.86.575-.573.298-.834.349-1.796.349-.912 0-1.23-.056-1.684-.294-.861-.453-1.449-1.03-1.826-1.792-.704-1.425-.533-2.997.461-4.242.657-.822.752-1.18.47-1.768-.32-.666-5.142-5.311-5.97-5.75A6.37 6.37 0 0043.82.204zm-4.266 17.127c-.442.237-.632.568-.632 1.1 0 .223.981 3.894 2.181 8.158 2.417 8.587 2.346 8.412 3.392 8.412.445 0 .612-.076.926-.425.211-.233.384-.565.384-.737 0-.474-4.34-15.799-4.575-16.153-.36-.543-1.052-.69-1.676-.355zm9.228 3.822c-1.368.484-2.341 1.607-2.603 3.002-.56 2.989 2.38 5.42 5.264 4.352.926-.343 1.605-.935 2.113-1.844.346-.617.39-.82.388-1.808-.002-1.223-.214-1.789-1.001-2.676-.923-1.04-2.809-1.505-4.161-1.026zm-15.501.508c-.3.105-.791.4-1.093.656-1.972 1.67-1.867 4.598.22 6.165 1.398 1.05 3.572.938 4.998-.255.221-.186.579-.652.794-1.036.352-.629.39-.816.39-1.877 0-.905-.058-1.286-.25-1.638-.485-.892-1.02-1.427-1.827-1.826-.686-.34-.954-.4-1.749-.39-.516.005-1.184.096-1.483.201zm17.402 2.07c.653.335.89 1.32.447 1.862-.548.669-1.289.743-1.912.192-.355-.314-.43-.474-.43-.93 0-.456.075-.616.43-.93.474-.419.911-.477 1.465-.193zm-15.016.741c.467.549.457 1.169-.026 1.704-.636.704-1.727.517-2.098-.36-.153-.364-.163-.552-.045-.906.194-.582.586-.84 1.272-.84.456 0 .615.07.897.402zm-12.752 7.742c-.814.547-.857 1.312-.12 2.142.814.918 1.57 1.075 2.256.468.353-.312.43-.476.43-.918 0-.472-.083-.62-.66-1.19-.813-.804-1.275-.926-1.905-.502zm31.048 2.418c-.267.264-.349.475-.349.899 0 .424.082.635.35.899.266.264.48.345.908.345.428 0 .641-.08.908-.345.267-.264.35-.475.35-.9 0-.423-.083-.634-.35-.898-.267-.264-.48-.346-.908-.346-.428 0-.642.081-.909.346zm-25.895 2.23c-.4.155-.792.62-.87 1.032-.104.547.157 1.038.923 1.737.474.433.704.55 1.077.55.614 0 .937-.178 1.185-.652.36-.69.262-1.014-.561-1.85-.748-.758-1.272-1.002-1.754-.816zm-8.803 1.243c-.145.078-1.351 1.21-2.68 2.516-2.564 2.52-2.757 2.806-2.425 3.598.084.201.333.471.554.6.778.455 1.023.297 3.795-2.449 2.176-2.155 2.562-2.597 2.63-3.01.07-.427.026-.535-.388-.944-.49-.486-.974-.587-1.486-.311zm13.343 3.845c-.407.282-.614.978-.433 1.454.172.453.98 1.31 1.479 1.569.931.484 1.958-.149 1.958-1.207 0-.23-.253-.594-.815-1.173-.743-.766-.863-.84-1.36-.84-.3 0-.673.089-.83.197zm-9.372.312c-.707.44-4.937 4.772-5.034 5.156-.252 1.004.611 1.859 1.626 1.61.403-.1 4.956-4.482 5.272-5.074.247-.465.237-.833-.032-1.285-.397-.665-1.148-.831-1.832-.407zm4.434 3.904c-.109.038-1.345 1.197-2.746 2.575-2.77 2.725-2.93 2.967-2.47 3.738.13.219.403.465.607.549.8.328 1.09.137 3.637-2.4 1.32-1.315 2.466-2.52 2.547-2.677.265-.518.171-.96-.304-1.43-.43-.425-.786-.525-1.27-.355z" fill="url(#paint0_linear_1924_5717)"/><defs><linearGradient id="paint0_linear_1924_5717" x1=".03" y1="0" x2="68.362" y2="69.398" gradientUnits="userSpaceOnUse"><stop stop-color="#0ABD92"/><stop offset="1" stop-color="#009DB8"/></linearGradient></defs></svg>