<svg width="41" height="42" fill="none" xmlns="http://www.w3.org/2000/svg"><g opacity=".6" fill-rule="evenodd" clip-rule="evenodd"><path d="M22.46 1.37c-3.727.542-6.019.91-6.169.989-.131.069-3.684 3.583-7.896 7.808-7.057 7.08-7.678 7.723-7.91 8.207-.658 1.377-.646 2.783.034 4.106.277.537.777 1.06 6.755 7.058 3.55 3.564 6.639 6.622 6.864 6.796l.409.317.047.7c.125 1.863 1.26 3.36 3.006 3.964l.536.185h19.309l.536-.185c1.31-.453 2.29-1.426 2.809-2.788l.18-.474.022-11.085c.02-10.11.01-11.107-.109-11.337-.072-.139-1.039-1.465-2.15-2.946a269.082 269.082 0 01-2.081-2.798c-.035-.057-.02-.411.033-.786.144-1.016.102-1.093-1.482-2.675l-1.321-1.32 1.317-1.327c1.608-1.62 1.753-1.887 1.405-2.606a1.174 1.174 0 00-1.552-.561c-.14.066-.847.715-1.572 1.442l-1.32 1.322-1.363-1.357c-.75-.746-1.466-1.395-1.59-1.442a1.628 1.628 0 00-.52-.077c-.163.005-2.965.397-6.227.87zm6.914 2.67l1.06 1.064-.84.839-.841.838-.502-.49c-.6-.587-.746-.668-1.197-.668-.882 0-1.453.923-1.057 1.707.17.339 3.335 3.538 3.792 3.834.953.618 2.023-.13 1.81-1.266-.04-.215-.2-.445-.586-.846l-.531-.55.838-.839.838-.838 1.057 1.062 1.057 1.063-.777 5.432-.777 5.431-7.331 7.341c-4.31 4.316-7.463 7.413-7.652 7.514-.422.227-1.311.242-1.723.028-.39-.203-13.186-12.996-13.402-13.4-.23-.43-.243-1.306-.025-1.763.103-.216 2.537-2.712 7.469-7.656l7.316-7.335 5.35-.774c2.943-.426 5.405-.778 5.472-.783.067-.004.599.47 1.182 1.056zm-8.999 5.624a1.515 1.515 0 00-.453.355c-.157.187-.94 2.444-3.107 8.95-3.106 9.326-2.986 8.896-2.635 9.474.404.667 1.516.667 1.952.001.185-.283 5.89-17.444 5.89-17.719 0-.372-.31-.834-.681-1.013-.383-.186-.623-.198-.966-.048zm18.232 17.31c0 11.742.042 10.92-.6 11.562-.636.637.02.599-10.217.599s-9.58.038-10.217-.6c-.278-.277-.6-.904-.6-1.17 0-.03.172-.08.382-.11a4.982 4.982 0 001.644-.536c.431-.224 1.533-1.291 8.17-7.92 6.16-6.15 7.696-7.724 7.788-7.982.063-.177.336-1.91.606-3.85.27-1.94.507-3.577.527-3.638.02-.064.57.6 1.276 1.542l1.24 1.653v10.45zM10.493 15.73c-1.286.253-2.444 1.338-2.77 2.596-.34 1.314.033 2.612 1.017 3.543.929.88 2.145 1.19 3.39.865 1.747-.455 2.921-2.28 2.605-4.05-.36-2.015-2.265-3.342-4.242-2.954zm13.488.025a3.685 3.685 0 00-2.417 1.95c-.264.536-.3.684-.33 1.35-.026.598.001.858.137 1.304.773 2.547 4.047 3.343 5.95 1.445 1.39-1.387 1.403-3.59.028-5.032-.876-.92-2.166-1.309-3.368-1.017zM11.834 18.27c.553.413.698.973.397 1.536-.42.785-1.49.868-2.013.154-.228-.31-.262-.92-.07-1.266.321-.584 1.182-.8 1.686-.424zm13.646.03c.312.223.48.578.48 1.014 0 .863-1.018 1.432-1.756.982-.72-.44-.786-1.517-.12-1.99.121-.086.293-.176.381-.2.272-.074.773.022 1.015.194z" fill="url(#paint0_linear_1924_5727)"/><path d="M22.46 1.37c-3.727.542-6.019.91-6.169.989-.131.069-3.684 3.583-7.896 7.808-7.057 7.08-7.678 7.723-7.91 8.207-.658 1.377-.646 2.783.034 4.106.277.537.777 1.06 6.755 7.058 3.55 3.564 6.639 6.622 6.864 6.796l.409.317.047.7c.125 1.863 1.26 3.36 3.006 3.964l.536.185h19.309l.536-.185c1.31-.453 2.29-1.426 2.809-2.788l.18-.474.022-11.085c.02-10.11.01-11.107-.109-11.337-.072-.139-1.039-1.465-2.15-2.946a269.082 269.082 0 01-2.081-2.798c-.035-.057-.02-.411.033-.786.144-1.016.102-1.093-1.482-2.675l-1.321-1.32 1.317-1.327c1.608-1.62 1.753-1.887 1.405-2.606a1.174 1.174 0 00-1.552-.561c-.14.066-.847.715-1.572 1.442l-1.32 1.322-1.363-1.357c-.75-.746-1.466-1.395-1.59-1.442a1.628 1.628 0 00-.52-.077c-.163.005-2.965.397-6.227.87zm6.914 2.67l1.06 1.064-.84.839-.841.838-.502-.49c-.6-.587-.746-.668-1.197-.668-.882 0-1.453.923-1.057 1.707.17.339 3.335 3.538 3.792 3.834.953.618 2.023-.13 1.81-1.266-.04-.215-.2-.445-.586-.846l-.531-.55.838-.839.838-.838 1.057 1.062 1.057 1.063-.777 5.432-.777 5.431-7.331 7.341c-4.31 4.316-7.463 7.413-7.652 7.514-.422.227-1.311.242-1.723.028-.39-.203-13.186-12.996-13.402-13.4-.23-.43-.243-1.306-.025-1.763.103-.216 2.537-2.712 7.469-7.656l7.316-7.335 5.35-.774c2.943-.426 5.405-.778 5.472-.783.067-.004.599.47 1.182 1.056zm-8.999 5.624a1.515 1.515 0 00-.453.355c-.157.187-.94 2.444-3.107 8.95-3.106 9.326-2.986 8.896-2.635 9.474.404.667 1.516.667 1.952.001.185-.283 5.89-17.444 5.89-17.719 0-.372-.31-.834-.681-1.013-.383-.186-.623-.198-.966-.048zm18.232 17.31c0 11.742.042 10.92-.6 11.562-.636.637.02.599-10.217.599s-9.58.038-10.217-.6c-.278-.277-.6-.904-.6-1.17 0-.03.172-.08.382-.11a4.982 4.982 0 001.644-.536c.431-.224 1.533-1.291 8.17-7.92 6.16-6.15 7.696-7.724 7.788-7.982.063-.177.336-1.91.606-3.85.27-1.94.507-3.577.527-3.638.02-.064.57.6 1.276 1.542l1.24 1.653v10.45zM10.493 15.73c-1.286.253-2.444 1.338-2.77 2.596-.34 1.314.033 2.612 1.017 3.543.929.88 2.145 1.19 3.39.865 1.747-.455 2.921-2.28 2.605-4.05-.36-2.015-2.265-3.342-4.242-2.954zm13.488.025a3.685 3.685 0 00-2.417 1.95c-.264.536-.3.684-.33 1.35-.026.598.001.858.137 1.304.773 2.547 4.047 3.343 5.95 1.445 1.39-1.387 1.403-3.59.028-5.032-.876-.92-2.166-1.309-3.368-1.017zM11.834 18.27c.553.413.698.973.397 1.536-.42.785-1.49.868-2.013.154-.228-.31-.262-.92-.07-1.266.321-.584 1.182-.8 1.686-.424zm13.646.03c.312.223.48.578.48 1.014 0 .863-1.018 1.432-1.756.982-.72-.44-.786-1.517-.12-1.99.121-.086.293-.176.381-.2.272-.074.773.022 1.015.194z" fill="#FDFEFE"/></g><defs><linearGradient id="paint0_linear_1924_5727" x1="0" y1=".5" x2="41.82" y2="42.525" gradientUnits="userSpaceOnUse"><stop stop-color="#0ABD92"/><stop offset="1" stop-color="#009DB8"/></linearGradient></defs></svg>