<svg width="40" height="40" fill="none" xmlns="http://www.w3.org/2000/svg"><path fill-rule="evenodd" clip-rule="evenodd" d="M20.391.185c-.248.168-.32.32-.758 1.588l-.484 1.402-.806.305a15.59 15.59 0 00-1.23.52l-.422.216-1.29-.65c-.713-.358-1.395-.649-1.522-.649-.129 0-.37.104-.545.235-.37.275-3.499 3.44-3.692 3.734a.899.899 0 00-.132.417c0 .12.29.806.645 1.525l.645 1.309-.213.422c-.118.232-.35.787-.517 1.233l-.302.81-1.393.487c-1.136.397-1.424.528-1.56.715-.163.221-.168.321-.168 3.018v2.788l.242.236c.325.316 3.378 1.349 3.748 1.267.33-.072.648-.47.648-.81 0-.51-.25-.684-1.685-1.176l-1.301-.446.02-1.897.022-1.898 1.048-.35c1.817-.607 1.697-.504 2.133-1.832.143-.435.439-1.143.657-1.574.218-.43.396-.886.396-1.014 0-.127-.27-.771-.598-1.432l-.6-1.202 1.353-1.357 1.353-1.357 1.221.614c.672.338 1.297.615 1.388.615.092 0 .537-.183.99-.407a17.92 17.92 0 011.75-.725c.623-.215.967-.378 1.048-.497.067-.098.306-.729.531-1.402l.41-1.224h3.844l.43 1.297c.255.77.493 1.35.586 1.426.085.071.512.248.948.392.436.144 1.198.46 1.693.7.495.242.976.44 1.07.44.093 0 .719-.277 1.39-.615l1.222-.614 1.353 1.357 1.352 1.357-.598 1.202c-.34.681-.6 1.305-.6 1.44 0 .133.202.652.448 1.156.246.504.556 1.268.689 1.697.133.43.308.842.388.915.081.074.724.327 1.429.564l1.282.43.021 1.914.022 1.914-1.277.408c-.852.272-1.334.469-1.45.592-.094.102-.303.568-.462 1.035-.16.468-.47 1.218-.69 1.667-.223.456-.4.93-.4 1.073 0 .156.23.718.585 1.433l.583 1.177-1.347 1.354-1.348 1.354-1.273-.627c-.7-.345-1.306-.626-1.348-.625-.041 0-.49.205-.997.454a16.48 16.48 0 01-1.724.715c-.441.145-.882.344-.979.442-.105.105-.343.677-.587 1.411l-.41 1.234h-3.84l-.417-1.233c-.251-.745-.492-1.315-.607-1.439-.444-.475-1.374-.11-1.374.538 0 .149.239.99.53 1.869.443 1.335.57 1.632.773 1.803l.242.205h5.544l.223-.193c.174-.15.323-.494.677-1.56l.453-1.366.316-.113c.174-.062.75-.296 1.278-.52l.962-.406 1.237.62c1.832.919 1.504 1.03 3.836-1.305 1.494-1.496 1.942-1.993 2.013-2.23.088-.295.068-.353-.572-1.662l-.664-1.356.289-.626c.159-.344.391-.906.517-1.25l.229-.624 1.358-.462c1.034-.35 1.402-.513 1.544-.679l.187-.218v-2.821c0-2.708-.007-2.83-.163-3.03-.126-.16-.48-.313-1.558-.672l-1.394-.465-.184-.533a16.86 16.86 0 00-.515-1.25l-.33-.717.59-1.188c.716-1.44.76-1.574.616-1.907-.06-.14-.977-1.12-2.038-2.179-1.714-1.711-1.957-1.925-2.188-1.925-.162 0-.738.241-1.55.65l-1.29.649L29.574 4a15.91 15.91 0 00-1.23-.522c-.443-.169-.837-.355-.875-.415-.038-.06-.273-.71-.524-1.444-.434-1.271-.47-1.343-.738-1.478C25.956.015 25.637 0 23.295 0c-2.607 0-2.632.001-2.904.185zM21.741 6c-5.463.858-9.455 5.698-9.224 11.182.046 1.083.192 1.916.516 2.948l.202.643-2.91 2.925-2.911 2.926-.868.012C3.286 26.683.59 29.032.07 32.28c-.206 1.29.064 3.126.53 3.594.21.212.644.259.95.103.097-.05.885-.797 1.75-1.662l1.574-1.572 1.168 1.176 1.168 1.175-1.584 1.6c-.871.881-1.624 1.681-1.673 1.778-.27.536.023 1.008.767 1.239 3.142.975 6.614-.592 7.987-3.603.38-.835.525-1.488.569-2.554l.041-1.013 2.867-2.89 2.868-2.89.347.15c.519.224 1.408.477 2.153.613.888.162 2.72.159 3.647-.007 4.464-.8 7.997-4.342 8.809-8.831.183-1.017.177-2.85-.014-3.855-.833-4.384-4.078-7.723-8.473-8.72-.668-.151-3.073-.222-3.78-.11zm2.57 1.655c1.387.096 3.286.833 4.48 1.738a9.326 9.326 0 013.707 7.46c0 3.405-2.036 6.662-5.143 8.224-1.076.541-2.774.938-4.012.938-.95 0-2.944-.375-2.944-.553 0-.03.451-.508 1.002-1.06l1.002-1.005.591.016c1.673.045 3.443-.628 4.71-1.791.831-.764 1.591-2.044 1.908-3.213.248-.915.243-2.483-.01-3.395-.225-.807-.472-1.074-.994-1.074-.32 0-.374.046-2.012 1.679l-1.683 1.68-1.168-1.173-1.168-1.171 1.605-1.622c.882-.892 1.648-1.708 1.701-1.813.129-.255.042-.674-.184-.887-.416-.394-1.593-.624-2.893-.566-2.43.108-4.551 1.52-5.63 3.751-.441.91-.573 1.469-.624 2.646l-.045 1.025-.955.957c-.525.526-.976.935-1.002.909-.027-.027-.122-.408-.212-.847-.232-1.127-.18-2.883.119-4.023a9.28 9.28 0 016.691-6.635c.646-.163 1.911-.306 2.317-.262.11.013.491.042.846.067zm-2.23 5.373c-.738.747-1.382 1.437-1.431 1.535-.05.097-.09.297-.09.444 0 .24.197.464 1.999 2.274l1.998 2.008h.356c.354 0 .366-.01 1.793-1.436l1.437-1.435v.45c0 .563-.245 1.541-.528 2.11-.595 1.193-1.541 2.006-2.937 2.523-.37.138-.66.168-1.684.18l-1.237.013-5.037 5.059c-2.77 2.782-5.057 5.139-5.082 5.237-.026.099-.053.7-.062 1.338-.014 1.04-.037 1.213-.229 1.7-.487 1.24-1.341 2.203-2.432 2.743-.683.339-1.53.561-2.144.563l-.36.002 1.342-1.358c.739-.747 1.383-1.464 1.432-1.594.184-.485.071-.646-1.721-2.468-.938-.953-1.846-1.837-2.02-1.966-.33-.245-.663-.295-.96-.143-.097.05-.765.677-1.484 1.394-.72.718-1.327 1.285-1.351 1.261-.024-.023-.007-.332.038-.684.274-2.181 1.67-3.784 3.779-4.342.522-.139.763-.156 1.58-.113l.963.05 5.086-5.109 5.086-5.109.003-1.155c.001-.877.037-1.273.148-1.642a5.128 5.128 0 014.769-3.678l.321-.01-1.341 1.358z" fill="url(#paint0_linear_1710_4339)"/><defs><linearGradient id="paint0_linear_1710_4339" x1="0" y1="0" x2="40.8" y2="40.999" gradientUnits="userSpaceOnUse"><stop stop-color="#0ABD92"/><stop offset="1" stop-color="#009DB8"/></linearGradient></defs></svg>