<svg width="42" height="42" fill="none" xmlns="http://www.w3.org/2000/svg"><path fill-rule="evenodd" clip-rule="evenodd" d="M28.205.205c-.431.425-.355.94.272 1.832.214.304.562.812.775 1.128 1.359 2.024 2.285 4.555 2.623 7.177.16 1.24.135 3.37-.054 4.566-.082.519-.084.719-.008.883.196.425.803.482 1.058.1.342-.515.523-3.91.302-5.673-.338-2.686-1.404-5.596-2.832-7.73-.279-.417-.48-.758-.447-.758.114 0 1.86 1.11 2.566 1.63.386.284 1.08.87 1.543 1.304 5.417 5.07 7.337 12.652 4.98 19.661-.63 1.867-1.891 4.155-3.15 5.71-.436.537-.444.542-.743.474a4.715 4.715 0 00-.802-.074c-.494-.004-.502-.008-.708-.338-.482-.774-1.712-1.631-2.666-1.858-1.665-.396-3.181.01-4.397 1.174-.552.529-.652.59-1.12.685-1.691.344-2.898 1.777-2.908 3.452-.003.612-.004.615-.377 1.007-.45.473-.923 1.42-1.057 2.115l-.098.508-.916-.056c-4.432-.267-8.41-1.827-11.676-4.58-1.644-1.387-3.36-3.464-4.227-5.122l-.14-.266.702.446c4.537 2.88 9.985 3.694 15.153 2.262 4.933-1.367 9.159-4.804 11.463-9.324.548-1.075.847-1.81.847-2.079 0-.496-.717-.761-1.054-.39-.093.102-.327.554-.52 1.005-1.03 2.393-2.948 4.883-4.975 6.459a17.612 17.612 0 01-13.572 3.504c-2.571-.408-4.808-1.287-7.019-2.76-1.571-1.046-1.841-1.148-2.346-.891-.304.155-.459.529-.399.967.102.747 1.45 3.025 2.689 4.546 2.923 3.586 7.152 6.142 11.713 7.079 1.073.22 2.775.411 3.663.411h.72l.054.282c.03.154.19.55.357.878.586 1.153 1.83 2.102 3.09 2.359.244.05 1.13.09 1.97.09 1.37 0 1.549-.016 1.72-.154.268-.213.268-.71 0-.923-.17-.136-.347-.153-1.553-.153-.749 0-1.56-.042-1.803-.092-2.024-.423-3.137-2.45-2.399-4.367.135-.35.345-.647.764-1.081l.578-.6-.054-.682c-.047-.584-.03-.75.123-1.148.204-.531.654-1.03 1.13-1.252.18-.084.607-.192.949-.24l.621-.089.366-.464a3.89 3.89 0 011.499-1.162c.581-.26 1.867-.255 2.546.011.63.247 1.369.923 1.72 1.572.333.615.489.696 1.118.581.97-.176 1.99.221 2.561.999.134.181.32.58.412.888.093.307.212.584.264.616.053.032.393.105.757.162 1.212.191 2.065.797 2.584 1.834.243.486.266.6.266 1.313 0 .703-.025.835-.257 1.314a3.296 3.296 0 01-2.358 1.804c-.26.048-1.968.083-4.055.083h-3.607l-.173.216c-.219.274-.219.524 0 .798l.173.216h3.85c3.186 0 3.936-.022 4.34-.125 1.59-.408 2.91-1.721 3.29-3.273.124-.505.126-1.528.004-2.062-.165-.727-.578-1.432-1.203-2.054-.646-.642-1.287-1.009-2.14-1.227l-.53-.135-.279-.571a3.81 3.81 0 00-.721-1l-.443-.429.422-.528c1.99-2.5 3.387-5.637 3.982-8.947.256-1.426.32-4.286.128-5.73-.312-2.34-.938-4.398-1.959-6.439-1.88-3.758-4.737-6.713-8.462-8.753-1.382-.757-2.107-.908-2.5-.522zM22.36.942c-.137.115-.492.706-.852 1.423l-.616 1.227-1.242.606c-1.577.77-1.787.985-1.538 1.572.104.245.279.36 1.44.951l1.323.672.691 1.31c.38.72.767 1.349.86 1.397a.915.915 0 00.863-.036c.14-.09.436-.577.849-1.391l.634-1.253 1.286-.638c.996-.494 1.322-.696 1.446-.897.376-.607.128-.893-1.505-1.729l-1.208-.618-.65-1.23c-.358-.676-.748-1.305-.866-1.396-.286-.222-.627-.21-.915.03zm2.448 4.057l.975.48-.954.484-.955.483-.488.922c-.268.508-.514.923-.545.923-.031 0-.224-.338-.428-.75-.204-.413-.441-.84-.526-.948-.086-.108-.572-.401-1.08-.652l-.925-.457.99-.503.991-.504.499-.935.499-.934.486.954.487.955.975.482zm-20.572.893c-.119.124-.482.751-.808 1.394l-.592 1.168-1.187.583c-.653.32-1.29.678-1.416.795a.756.756 0 00-.071 1.011c.087.108.718.469 1.404.803l1.246.606.575 1.149c.653 1.306.965 1.697 1.349 1.697.432 0 .717-.334 1.383-1.624l.622-1.205 1.208-.597c1.296-.64 1.637-.92 1.637-1.348 0-.378-.399-.684-1.725-1.327L6.694 8.43l-.617-1.227c-.34-.675-.706-1.297-.815-1.382a.786.786 0 00-1.027.07zm2.51 3.988l.952.482-.968.486-.968.486-.494.954-.494.953-.49-.937-.489-.937-.998-.504-.997-.504.985-.48.985-.48.501-.982.501-.98.511.98.512.981.952.482zm8.13 1.976c-2.201.472-3.948 2.56-3.956 4.73-.001.347-.024.388-.262.485-.143.058-.44.283-.658.498-1.568 1.544-1.114 4.08.9 5.019l.56.261 4.54.025c3.066.016 4.718-.005 5.083-.067 1.812-.305 3.31-1.82 3.597-3.634.367-2.325-1.337-4.566-3.734-4.91-.653-.095-.655-.096-.946-.498-1.089-1.507-3.247-2.311-5.125-1.909zm2.13 1.322c.915.263 1.618.796 2.157 1.637.184.287.402.557.482.598.08.042.466.094.855.115.466.027.845.1 1.107.214.548.238 1.26.924 1.538 1.48.206.413.23.547.23 1.321 0 .783-.022.902-.235 1.312a3.53 3.53 0 01-1.461 1.447l-.47.235h-9.695l-.361-.247c-.46-.313-.82-.978-.819-1.51.002-.794.542-1.504 1.35-1.775.217-.072.413-.202.466-.306.05-.1.103-.587.118-1.083.024-.814.053-.957.293-1.46.44-.92 1.328-1.685 2.313-1.993.473-.148 1.592-.14 2.13.015z" fill="url(#paint0_linear_1710_4343)"/><defs><linearGradient id="paint0_linear_1710_4343" x1="0" y1="0" x2="42.84" y2="43.05" gradientUnits="userSpaceOnUse"><stop stop-color="#0ABD92"/><stop offset="1" stop-color="#009DB8"/></linearGradient></defs></svg>