<svg width="100" height="49" fill="none" xmlns="http://www.w3.org/2000/svg"><path d="M99.28 45.414a.5.5 0 00.134-.694l-2.52-3.728a.5.5 0 00-.83.56l2.242 3.314-3.314 2.24a.5.5 0 00.56.83l3.728-2.522zM0 .5c0 1.216.014 2.394.043 3.534l1-.025A137.07 137.07 0 011 .5H0zm.446 10.507c.24 2.522.579 4.819 1.02 6.912l.978-.206c-.432-2.05-.765-4.31-1.003-6.801l-.995.095zm3.076 13.656c1.003 2.36 2.23 4.347 3.692 6.021l.753-.658c-1.384-1.585-2.558-3.48-3.525-5.754l-.92.391zm9.259 10.422c1.967 1.06 4.163 1.866 6.59 2.49l.249-.968c-2.367-.61-4.485-1.39-6.365-2.402l-.474.88zm13.5 3.761c2.176.277 4.495.483 6.958.65l.067-.998c-2.45-.166-4.748-.37-6.899-.644l-.126.992zm13.9 1.02c2.214.097 4.528.184 6.941.28l.04-1c-2.416-.095-4.726-.183-6.937-.279l-.044 1zm13.913.575c2.227.104 4.53.225 6.91.372l.061-.998a469.089 469.089 0 00-6.924-.373l-.047.999zm13.845.865c2.248.183 4.558.394 6.93.64l.103-.995a310.88 310.88 0 00-6.952-.641l-.081.996zm13.809 1.436c2.237.287 4.526.607 6.866.966l.152-.988c-2.349-.36-4.646-.682-6.892-.97l-.126.992zm13.711 2.107c1.138.204 2.286.418 3.446.642l.19-.982a273.41 273.41 0 00-3.459-.645l-.177.985z" fill="url(#paint0_linear_1870_6394)"/><defs><linearGradient id="paint0_linear_1870_6394" x1="38.818" y1="-112.974" x2="16.245" y2="73.499" gradientUnits="userSpaceOnUse"><stop stop-color="#0ABD92"/><stop offset="1" stop-color="#009DB8"/></linearGradient></defs></svg>