<svg width="189" height="120" fill="none" xmlns="http://www.w3.org/2000/svg"><path d="M184.061 119.74a.5.5 0 00.679.198l3.948-2.16a.5.5 0 00-.48-.877l-3.509 1.92-1.92-3.509a.501.501 0 00-.878.48l2.16 3.948zM1.258 11.928a45.76 45.76 0 013.078-1.692l-.448-.894a46.978 46.978 0 00-3.146 1.73l.516.856zm9.664-4.483a77.183 77.183 0 016.857-2.076l-.247-.97a78.184 78.184 0 00-6.946 2.104l.336.942zM24.765 3.87c2.29-.407 4.655-.75 7.087-1.03l-.115-.994a118.2 118.2 0 00-7.147 1.04l.175.984zm14.231-1.66a154.14 154.14 0 017.162-.274l-.015-1a154.7 154.7 0 00-7.21.277l.063.998zm14.323-.232c2.359.063 4.747.174 7.159.333l.066-.998c-2.425-.16-4.826-.271-7.199-.335l-.026 1zm14.306.94c2.362.245 4.739.534 7.126.868l.139-.99a201.33 201.33 0 00-7.162-.873l-.103.995zm14.22 1.989c2.347.413 4.7.869 7.05 1.368l.208-.978a206.71 206.71 0 00-7.085-1.375l-.173.985zm14.04 2.98c2.317.577 4.629 1.197 6.93 1.859l.276-.961a201.354 201.354 0 00-6.965-1.869l-.241.97zm13.79 3.968c2.276.747 4.536 1.535 6.774 2.366l.348-.937a188.303 188.303 0 00-6.81-2.379l-.312.95zm13.446 4.995c2.213.924 4.4 1.892 6.554 2.903l.425-.905a168.133 168.133 0 00-6.594-2.921l-.385.923zm12.98 6.098a144.301 144.301 0 016.263 3.496l.509-.86a145.608 145.608 0 00-6.306-3.521l-.466.885zm12.331 7.31c2 1.335 3.948 2.717 5.837 4.146l.604-.797a122.137 122.137 0 00-5.886-4.181l-.555.832zm11.401 8.644a99.847 99.847 0 015.241 4.863l.706-.708a100.766 100.766 0 00-5.293-4.912l-.654.757zm10.102 10.109a82.699 82.699 0 014.41 5.63l.814-.582a83.894 83.894 0 00-4.464-5.698l-.76.65zm8.291 11.627a71.3 71.3 0 013.279 6.338l.91-.414c-1-2.198-2.111-4.34-3.325-6.427l-.864.503zm5.892 12.973a67.544 67.544 0 011.9 6.87l.976-.216a68.39 68.39 0 00-1.928-6.971l-.948.317zm3.066 13.902c.262 2.327.41 4.702.439 7.126l1-.011a72.09 72.09 0 00-.445-7.227l-.994.112zm.179 14.285a82.584 82.584 0 01-.904 7.083l.986.169c.416-2.43.719-4.82.915-7.169l-.997-.083zm-2.381 14.036a97.973 97.973 0 01-.962 3.525l.96.281a99.99 99.99 0 00.972-3.561l-.97-.245z" fill="url(#paint0_linear_1710_4318)"/><defs><linearGradient id="paint0_linear_1710_4318" x1="6.657" y1="-3.475" x2="122.551" y2="144.343" gradientUnits="userSpaceOnUse"><stop stop-color="#0ABD92"/><stop offset="1" stop-color="#009DB8"/></linearGradient></defs></svg>