<svg width="104" height="212" fill="none" xmlns="http://www.w3.org/2000/svg"><path d="M49.53 3.172a.5.5 0 01.298-.641L54.052.98a.5.5 0 01.345.938l-3.755 1.378 1.378 3.755a.5.5 0 01-.94.345l-1.55-4.225zM.359 210.521a48.561 48.561 0 003.307-1.119l.353.936c-1.154.435-2.28.816-3.376 1.141l-.284-.958zm9.873-4.022a97.862 97.862 0 006.254-3.444l.513.859a99.493 99.493 0 01-6.319 3.479l-.448-.894zm12.283-7.285a153.492 153.492 0 005.837-4.155l.598.802a153.938 153.938 0 01-5.875 4.181l-.56-.828zm11.496-8.565a196.653 196.653 0 005.465-4.608l.659.753a195.888 195.888 0 01-5.494 4.631l-.63-.776zm10.77-9.408a221.638 221.638 0 005.15-4.98l.707.708a223.211 223.211 0 01-5.174 5.002l-.683-.73zm10.145-10.127a231.24 231.24 0 004.834-5.304l.75.662a230.699 230.699 0 01-4.856 5.327l-.728-.685zm9.5-10.756a224.396 224.396 0 004.482-5.584l.79.614a226.176 226.176 0 01-4.502 5.609l-.77-.639zm8.785-11.316a208.718 208.718 0 004.109-5.875l.829.559a209.048 209.048 0 01-4.128 5.903l-.81-.587zm8.004-11.888a184.523 184.523 0 003.665-6.152l.87.495a186.34 186.34 0 01-3.686 6.185l-.85-.528zm7.084-12.453a157.37 157.37 0 003.138-6.441l.91.418a159.208 159.208 0 01-3.16 6.481l-.888-.458zm5.965-13.016a130.185 130.185 0 002.476-6.704l.948.32a131.868 131.868 0 01-2.496 6.756l-.928-.372zm4.562-13.538a106.037 106.037 0 001.646-6.966l.981.196a107.574 107.574 0 01-1.662 7.032l-.965-.262zm2.789-14.022a85.02 85.02 0 00.579-7.115l1 .04a86.496 86.496 0 01-.586 7.197l-.993-.122zm.533-14.244a71.3 71.3 0 00-.728-7.086l.988-.153a72.46 72.46 0 01.739 7.186l-.999.053zm-2.18-14.059a65.036 65.036 0 00-2.198-6.78l.933-.36a65.999 65.999 0 012.231 6.884l-.967.256zM94.84 42.543a66.852 66.852 0 00-3.603-6.124l.834-.552a67.88 67.88 0 013.656 6.216l-.888.46zM87.022 30.7a77.195 77.195 0 00-4.758-5.301l.713-.701a78.2 78.2 0 014.82 5.37l-.775.632zM77.018 20.5a95.603 95.603 0 00-5.573-4.433l.593-.804a96.619 96.619 0 015.632 4.48l-.652.758zm-11.424-8.45A121.494 121.494 0 0059.4 8.344l.489-.872a122.598 122.598 0 016.244 3.735l-.54.842zM53.118 5.043a150.278 150.278 0 00-3.328-1.59l.42-.908c1.138.527 2.254 1.06 3.35 1.601l-.443.897z" fill="url(#paint0_linear_1870_6395)"/><defs><linearGradient id="paint0_linear_1870_6395" x1="13.657" y1="207.975" x2="129.551" y2="60.157" gradientUnits="userSpaceOnUse"><stop stop-color="#0ABD92"/><stop offset="1" stop-color="#009DB8"/></linearGradient></defs></svg>