<svg width="104" height="23" fill="none" xmlns="http://www.w3.org/2000/svg"><path d="M.392 21.987a.5.5 0 01-.38-.596l.976-4.393a.5.5 0 11.976.217l-.867 3.904L5 21.987a.5.5 0 11-.217.976l-4.392-.976zm102.41-6.529c-1.068-.46-2.121-.91-3.158-1.348l.389-.921c1.04.438 2.095.889 3.165 1.351l-.396.918zm-9.465-3.938a252.02 252.02 0 00-6.361-2.44l.344-.938c2.065.758 4.192 1.574 6.388 2.45l-.37.928zM80.534 6.84a139.989 139.989 0 00-6.516-1.962l.264-.965c2.12.58 4.304 1.239 6.562 1.976l-.31.95zM67.41 3.287a81.61 81.61 0 00-6.694-1.098l.119-.993c2.2.264 4.453.635 6.776 1.112l-.201.98zM53.962 1.715a59.116 59.116 0 00-6.767.263l-.097-.996A60.116 60.116 0 0153.98.715l-.018 1zM40.506 3.02a66.144 66.144 0 00-6.54 1.766l-.308-.95a67.14 67.14 0 016.638-1.794l.21.978zM27.61 7.154c-2.02.845-4.075 1.788-6.182 2.829l-.443-.897a109.597 109.597 0 016.239-2.855l.386.923zm-12.21 5.99a212.873 212.873 0 00-5.908 3.392l-.51-.86a213.975 213.975 0 015.935-3.408l.483.875zm-11.735 6.95c-.952.594-1.917 1.203-2.897 1.827l-.536-.844c.981-.625 1.949-1.235 2.903-1.831l.53.848z" fill="url(#paint0_linear_1710_4334)"/><defs><linearGradient id="paint0_linear_1710_4334" x1="217.789" y1="32.042" x2="32.163" y2="60.756" gradientUnits="userSpaceOnUse"><stop stop-color="#0ABD92"/><stop offset="1" stop-color="#009DB8"/></linearGradient></defs></svg>