<svg width="102" height="53" fill="none" xmlns="http://www.w3.org/2000/svg"><path d="M.274 4.692a.5.5 0 00.08.703l3.519 2.804a.5.5 0 00.623-.782L1.368 4.924 3.86 1.796a.5.5 0 00-.782-.623L.274 4.692zm101.171 47.08c-.537-1.053-1.065-2.086-1.585-3.1l-.89.457c.52 1.013 1.047 2.045 1.585 3.097l.89-.454zm-4.76-9.236a380.222 380.222 0 00-3.258-6.098l-.877.48A378.985 378.985 0 0195.798 43l.886-.464zm-6.68-12.132a123.66 123.66 0 00-3.682-5.877l-.83.557a122.624 122.624 0 013.652 5.83l.86-.51zM82.22 18.923c-1.519-1.878-3.078-3.584-4.713-5.128l-.687.727c1.598 1.509 3.128 3.182 4.623 5.03l.777-.63zM72.042 9.442A38.364 38.364 0 0065.88 6.14l-.392.92a37.367 37.367 0 016.003 3.216l.551-.834zm-12.77-5.508a61.452 61.452 0 00-6.834-1.305l-.135.991c2.396.326 4.629.752 6.722 1.284l.246-.97zm-13.75-1.953a127.254 127.254 0 00-6.96-.19l-.002 1c2.43.004 4.727.065 6.905.188l.056-.998zm-13.853-.063c-2.216.081-4.528.2-6.941.354l.063.998c2.406-.154 4.708-.272 6.914-.352l-.036-1zm-13.828.865c-2.212.184-4.502.393-6.874.626l.098.995c2.368-.232 4.653-.44 6.859-.625l-.083-.996zM4.093 4.12c-1.143.124-2.305.253-3.484.386l.112.993c1.178-.133 2.338-.261 3.48-.385l-.108-.994z" fill="url(#paint0_linear_1710_4319)"/><defs><linearGradient id="paint0_linear_1710_4319" x1="98.066" y1="156.054" x2="63.934" y2="-28.653" gradientUnits="userSpaceOnUse"><stop stop-color="#0ABD92"/><stop offset="1" stop-color="#009DB8"/></linearGradient></defs></svg>