<svg width="31" height="30" fill="none" xmlns="http://www.w3.org/2000/svg"><path opacity=".56" fill-rule="evenodd" clip-rule="evenodd" d="M14.887.559c-.348.124-.421.182-1.478 1.184-.638.604-.832.756-1.005.789-.137.026-.617-.017-1.322-.117-1.198-.17-1.49-.165-1.927.028-.352.155-.773.573-.919.911-.063.148-.204.77-.313 1.382-.109.613-.224 1.163-.255 1.222-.108.2-.392.39-1.336.888-.596.315-1.028.583-1.176.73-.463.461-.652 1.16-.478 1.76.052.179.31.76.575 1.294.349.703.48 1.028.48 1.185 0 .157-.131.482-.48 1.185-.264.533-.523 1.115-.575 1.293-.174.601.022 1.323.48 1.769.137.132.618.428 1.17.72.515.272.954.521.974.553.02.033-1.398 1.495-3.151 3.25C.717 24.02.812 23.907 1.09 24.22c.113.125.37.198 2.11.599 1.09.25 1.991.465 2.003.476.01.011.225.912.476 2.003.4 1.74.473 1.998.598 2.11.315.281.17.406 4.037-3.461l3.59-3.59.288.271c.428.4.722.517 1.307.517s.88-.117 1.307-.517l.289-.27 3.59 3.589c3.868 3.868 3.72 3.742 4.038 3.461.127-.113.197-.358.6-2.112.251-1.092.464-1.992.473-2.001a90.55 90.55 0 012-.472c1.754-.404 1.999-.474 2.112-.602.278-.315.375-.2-3.06-3.638-1.753-1.754-3.17-3.216-3.15-3.249.02-.032.458-.281.973-.553.593-.314 1.024-.581 1.172-.729.463-.46.652-1.159.478-1.76-.052-.178-.31-.76-.575-1.293-.349-.703-.48-1.028-.48-1.185 0-.157.131-.482.48-1.185.264-.533.523-1.115.575-1.293.174-.602-.015-1.3-.477-1.76-.15-.148-.581-.416-1.182-.733-.52-.275-1.032-.575-1.136-.667-.227-.2-.257-.299-.477-1.569-.094-.543-.223-1.107-.286-1.255-.145-.335-.567-.755-.913-.908-.447-.197-.705-.2-1.954-.027-1.064.148-1.182.155-1.386.08-.147-.055-.525-.371-1.11-.926-.588-.56-.975-.883-1.152-.961-.377-.167-.976-.19-1.362-.052zm.98.885c.107.045.56.438 1.008.873 1.24 1.207 1.392 1.257 3.075 1.012 1.229-.18 1.31-.18 1.597-.017.348.197.444.44.651 1.658.205 1.202.354 1.587.744 1.922.116.099.642.407 1.168.684.527.277 1.006.546 1.065.596.146.126.316.51.318.718 0 .101-.205.595-.51 1.223-.282.579-.543 1.199-.58 1.377-.101.482-.007.816.55 1.96.267.547.5 1.09.52 1.206.042.27-.13.677-.355.833-.09.062-.572.329-1.072.591-1.014.533-1.412.862-1.576 1.302-.052.14-.183.748-.291 1.35-.117.651-.24 1.169-.304 1.278-.13.221-.49.437-.733.438-.098 0-.634-.066-1.192-.147-1.688-.246-1.814-.205-3.055.992-.85.82-1.07.974-1.395.974-.321 0-.535-.15-1.393-.974-1.247-1.198-1.37-1.238-3.056-.992-1.228.179-1.311.18-1.595.019-.35-.198-.43-.397-.64-1.598-.213-1.224-.378-1.658-.75-1.977-.12-.103-.625-.402-1.12-.664a20.105 20.105 0 01-1.063-.59c-.188-.132-.373-.503-.376-.75 0-.102.205-.597.51-1.224.583-1.197.682-1.542.582-2.018-.036-.175-.297-.794-.58-1.378-.303-.627-.512-1.13-.511-1.231.002-.248.187-.619.375-.75.09-.063.567-.327 1.06-.587 1.482-.78 1.564-.895 1.873-2.626.121-.676.244-1.196.309-1.306.13-.223.49-.438.733-.439.098 0 .635.066 1.192.147 1.681.245 1.83.196 3.078-1.013.452-.437.9-.83.997-.871.23-.1.503-.101.743 0zM14.41 5.087c-.638.1-1.406.358-2.05.691-1.807.933-3.097 2.638-3.537 4.674-.145.67-.145 2.055 0 2.726.585 2.712 2.626 4.734 5.372 5.321.635.136 2.053.135 2.66-.002 2.107-.474 3.797-1.779 4.746-3.663.478-.95.686-1.864.686-3.02 0-.894-.067-1.337-.317-2.11-.263-.81-.79-1.758-1.267-2.28-.154-.168-.233-.21-.397-.21-.262 0-.433.163-.433.412 0 .136.087.3.333.628a5.877 5.877 0 01-.672 7.836c-1.946 1.843-4.847 2.135-7.149.718-.848-.523-1.713-1.479-2.178-2.409-.416-.83-.644-1.965-.587-2.91.13-2.117 1.38-4.023 3.247-4.95a5.902 5.902 0 015.649.196c.485.283.597.302.81.134.115-.09.15-.168.15-.336 0-.277-.137-.397-.89-.782a6.813 6.813 0 00-4.176-.664zm3.651 4.669c-.12.117-.952.987-1.849 1.933l-1.63 1.72-.236-.27c-1.185-1.355-1.59-1.781-1.725-1.815-.302-.076-.59.236-.509.554.05.198 2.179 2.6 2.34 2.64a.543.543 0 00.25-.003c.064-.02.837-.796 1.718-1.724.88-.927 1.8-1.894 2.045-2.148.502-.522.56-.705.304-.96-.21-.21-.443-.186-.708.073zM7.965 19.115c.083.484.204 1.004.269 1.155.147.342.567.761.915.915.447.197.705.2 1.946.028 1.37-.19 1.446-.18 1.877.257l.283.287-3.205 3.206c-1.762 1.764-3.214 3.197-3.225 3.185a49.87 49.87 0 01-.406-1.69c-.212-.919-.414-1.723-.448-1.787-.089-.166-.2-.2-1.913-.588a132.04 132.04 0 01-1.64-.378c-.085-.025.46-.6 2.612-2.751 1.495-1.496 2.733-2.72 2.751-2.72.018 0 .1.396.184.88zm18.005 1.839c2.15 2.151 2.697 2.726 2.612 2.75-.059.017-.797.188-1.64.38-1.719.39-1.825.422-1.913.587-.034.064-.236.868-.448 1.787a49.98 49.98 0 01-.406 1.69c-.011.012-1.463-1.421-3.225-3.185l-3.205-3.206.283-.287c.43-.437.508-.448 1.877-.257 1.24.172 1.5.169 1.946-.028.349-.154.768-.573.915-.915.065-.15.186-.67.27-1.155.082-.485.165-.881.183-.881.018 0 1.256 1.224 2.751 2.72z" fill="#fff" stroke="#FFF6F6" stroke-width=".484"/></svg>