<svg width="36" height="34" fill="none" xmlns="http://www.w3.org/2000/svg"><g opacity=".6" fill-rule="evenodd" clip-rule="evenodd"><path d="M18.342.158c-.217.142-.28.271-.663 1.35l-.423 1.191-.706.259a13.89 13.89 0 00-1.076.442l-.37.184-1.129-.552c-.623-.305-1.22-.552-1.33-.552-.113 0-.325.088-.478.2-.323.234-3.061 2.924-3.23 3.174a.749.749 0 00-.116.354c0 .102.254.685.565 1.296l.564 1.113-.187.359c-.103.197-.306.669-.451 1.048l-.265.689-1.219.413c-.994.337-1.246.45-1.365.608-.142.188-.147.273-.147 2.565v2.37l.212.2c.284.27 2.956 1.147 3.28 1.078.288-.062.566-.4.566-.69 0-.433-.218-.58-1.474-.999l-1.14-.378.019-1.613.018-1.613.918-.298c1.59-.516 1.484-.429 1.866-1.558.125-.37.384-.971.574-1.337.191-.366.347-.753.347-.862 0-.108-.235-.656-.524-1.217l-.524-1.022 1.184-1.153 1.184-1.154 1.068.522c.588.288 1.135.523 1.215.523.08 0 .47-.156.865-.346.396-.19 1.085-.468 1.532-.617.546-.182.846-.32.917-.422.058-.083.267-.62.465-1.191l.358-1.04h3.364l.376 1.101c.223.655.431 1.147.513 1.213.075.06.448.21.83.333.381.122 1.047.39 1.48.596.434.205.855.373.936.373.082 0 .63-.235 1.218-.523l1.069-.522 1.183 1.154 1.184 1.153-.524 1.022c-.297.579-.524 1.109-.524 1.225 0 .111.176.553.391.981.215.429.487 1.078.603 1.443.116.365.27.715.34.778.07.062.633.278 1.25.479l1.121.365.02 1.627.018 1.627-1.117.347c-.746.231-1.167.399-1.268.503-.083.087-.266.483-.405.88-.14.398-.412 1.035-.604 1.417-.195.388-.35.79-.35.912 0 .133.201.61.512 1.218l.51 1-1.179 1.151-1.179 1.151-1.113-.533c-.613-.293-1.144-.532-1.18-.531-.036 0-.429.174-.873.386-.444.211-1.122.485-1.508.608-.386.123-.772.292-.857.375-.092.09-.3.576-.514 1.2l-.358 1.05h-3.36l-.365-1.05c-.22-.633-.43-1.117-.532-1.222-.388-.404-1.201-.094-1.201.457 0 .126.208.84.464 1.588.387 1.135.498 1.388.676 1.533l.211.174h4.852l.195-.164c.152-.127.282-.42.592-1.325l.396-1.162.277-.096c.152-.053.655-.251 1.118-.441l.842-.346 1.082.527c1.604.78 1.316.876 3.356-1.11 1.308-1.27 1.7-1.693 1.762-1.895.077-.25.06-.3-.5-1.412l-.581-1.153.252-.532c.14-.292.343-.77.453-1.062l.2-.531 1.188-.392c.905-.299 1.227-.437 1.352-.578l.163-.185v-2.398c0-2.302-.006-2.405-.143-2.575-.11-.137-.42-.267-1.363-.572l-1.22-.395-.161-.453c-.089-.25-.291-.728-.45-1.063l-.289-.61.517-1.01c.626-1.223.663-1.337.538-1.62-.053-.119-.855-.952-1.783-1.852-1.5-1.454-1.712-1.636-1.914-1.636-.143 0-.646.205-1.356.552l-1.13.552-.369-.184c-.203-.1-.687-.3-1.076-.443-.388-.144-.732-.302-.765-.353-.033-.051-.24-.603-.46-1.228-.378-1.08-.41-1.14-.645-1.255-.22-.108-.499-.12-2.548-.121-2.281 0-2.303.001-2.54.158zM19.523 5.1c-4.78.729-8.273 4.843-8.07 9.504.04.92.167 1.629.451 2.506l.177.546-2.547 2.487-2.547 2.487-.759.01c-2.854.04-5.212 2.036-5.667 4.797-.18 1.097.057 2.658.464 3.055.184.18.563.22.831.088.085-.042.774-.678 1.532-1.413l1.377-1.336 1.022 1 1.021.998-1.385 1.36c-.762.75-1.421 1.43-1.464 1.512-.236.455.02.856.671 1.053 2.75.828 5.788-.503 6.988-3.063.333-.71.46-1.265.498-2.17l.036-.862 2.51-2.456 2.508-2.456.304.127c.454.19 1.232.405 1.884.52.777.139 2.38.136 3.19-.005 3.907-.68 6.999-3.69 7.709-7.507.16-.864.155-2.422-.012-3.276-.73-3.726-3.568-6.565-7.414-7.412-.584-.129-2.689-.189-3.308-.094zm2.25 1.406c1.213.082 2.874.708 3.919 1.478 2.053 1.513 3.244 3.84 3.244 6.34 0 2.894-1.782 5.663-4.5 6.99-.942.461-2.427.799-3.51.798-.832 0-2.576-.318-2.576-.47 0-.026.394-.432.876-.901l.877-.854.517.014c1.463.038 3.012-.535 4.12-1.523.729-.65 1.394-1.737 1.67-2.731.218-.778.213-2.11-.009-2.886-.196-.686-.412-.913-.869-.913-.28 0-.327.04-1.76 1.428l-1.473 1.427-1.022-.996-1.022-.996 1.404-1.379c.772-.758 1.442-1.451 1.489-1.54.113-.217.036-.574-.161-.755-.365-.334-1.394-.53-2.531-.48a5.728 5.728 0 00-4.928 3.188c-.385.774-.5 1.248-.545 2.249l-.04.871-.835.813c-.46.448-.854.795-.877.773-.023-.022-.107-.346-.186-.72-.202-.958-.157-2.45.105-3.42.747-2.77 3-4.941 5.854-5.64.566-.138 1.673-.259 2.027-.221.098.01.431.035.742.056zm-1.952 4.567c-.646.635-1.21 1.222-1.252 1.305a.984.984 0 00-.078.377c0 .205.172.395 1.748 1.934l1.748 1.706h.312c.31 0 .32-.009 1.569-1.22l1.257-1.22v.382c0 .479-.214 1.31-.462 1.793-.52 1.015-1.348 1.706-2.57 2.145-.324.117-.577.143-1.473.153l-1.082.011-4.408 4.3c-2.424 2.365-4.425 4.369-4.447 4.452-.022.084-.046.595-.054 1.137-.012.885-.032 1.031-.2 1.446-.427 1.053-1.174 1.872-2.129 2.331-.597.288-1.338.477-1.876.479H6.11l1.174-1.153c.646-.635 1.21-1.245 1.253-1.355.16-.413.062-.55-1.506-2.098-.82-.81-1.615-1.562-1.767-1.67-.29-.21-.58-.252-.84-.123-.086.042-.67.576-1.3 1.185-.629.61-1.16 1.093-1.181 1.073-.02-.02-.006-.283.033-.583.24-1.853 1.46-3.216 3.306-3.69.458-.118.668-.132 1.383-.096l.843.043 4.45-4.343 4.45-4.342.003-.983c.001-.745.032-1.081.13-1.395.562-1.82 2.23-3.07 4.172-3.127l.282-.008-1.174 1.154z" fill="url(#paint0_linear_1710_4150)"/><path d="M18.342.158c-.217.142-.28.271-.663 1.35l-.423 1.191-.706.259a13.89 13.89 0 00-1.076.442l-.37.184-1.129-.552c-.623-.305-1.22-.552-1.33-.552-.113 0-.325.088-.478.2-.323.234-3.061 2.924-3.23 3.174a.749.749 0 00-.116.354c0 .102.254.685.565 1.296l.564 1.113-.187.359c-.103.197-.306.669-.451 1.048l-.265.689-1.219.413c-.994.337-1.246.45-1.365.608-.142.188-.147.273-.147 2.565v2.37l.212.2c.284.27 2.956 1.147 3.28 1.078.288-.062.566-.4.566-.69 0-.433-.218-.58-1.474-.999l-1.14-.378.019-1.613.018-1.613.918-.298c1.59-.516 1.484-.429 1.866-1.558.125-.37.384-.971.574-1.337.191-.366.347-.753.347-.862 0-.108-.235-.656-.524-1.217l-.524-1.022 1.184-1.153 1.184-1.154 1.068.522c.588.288 1.135.523 1.215.523.08 0 .47-.156.865-.346.396-.19 1.085-.468 1.532-.617.546-.182.846-.32.917-.422.058-.083.267-.62.465-1.191l.358-1.04h3.364l.376 1.101c.223.655.431 1.147.513 1.213.075.06.448.21.83.333.381.122 1.047.39 1.48.596.434.205.855.373.936.373.082 0 .63-.235 1.218-.523l1.069-.522 1.183 1.154 1.184 1.153-.524 1.022c-.297.579-.524 1.109-.524 1.225 0 .111.176.553.391.981.215.429.487 1.078.603 1.443.116.365.27.715.34.778.07.062.633.278 1.25.479l1.121.365.02 1.627.018 1.627-1.117.347c-.746.231-1.167.399-1.268.503-.083.087-.266.483-.405.88-.14.398-.412 1.035-.604 1.417-.195.388-.35.79-.35.912 0 .133.201.61.512 1.218l.51 1-1.179 1.151-1.179 1.151-1.113-.533c-.613-.293-1.144-.532-1.18-.531-.036 0-.429.174-.873.386-.444.211-1.122.485-1.508.608-.386.123-.772.292-.857.375-.092.09-.3.576-.514 1.2l-.358 1.05h-3.36l-.365-1.05c-.22-.633-.43-1.117-.532-1.222-.388-.404-1.201-.094-1.201.457 0 .126.208.84.464 1.588.387 1.135.498 1.388.676 1.533l.211.174h4.852l.195-.164c.152-.127.282-.42.592-1.325l.396-1.162.277-.096c.152-.053.655-.251 1.118-.441l.842-.346 1.082.527c1.604.78 1.316.876 3.356-1.11 1.308-1.27 1.7-1.693 1.762-1.895.077-.25.06-.3-.5-1.412l-.581-1.153.252-.532c.14-.292.343-.77.453-1.062l.2-.531 1.188-.392c.905-.299 1.227-.437 1.352-.578l.163-.185v-2.398c0-2.302-.006-2.405-.143-2.575-.11-.137-.42-.267-1.363-.572l-1.22-.395-.161-.453c-.089-.25-.291-.728-.45-1.063l-.289-.61.517-1.01c.626-1.223.663-1.337.538-1.62-.053-.119-.855-.952-1.783-1.852-1.5-1.454-1.712-1.636-1.914-1.636-.143 0-.646.205-1.356.552l-1.13.552-.369-.184c-.203-.1-.687-.3-1.076-.443-.388-.144-.732-.302-.765-.353-.033-.051-.24-.603-.46-1.228-.378-1.08-.41-1.14-.645-1.255-.22-.108-.499-.12-2.548-.121-2.281 0-2.303.001-2.54.158zM19.523 5.1c-4.78.729-8.273 4.843-8.07 9.504.04.92.167 1.629.451 2.506l.177.546-2.547 2.487-2.547 2.487-.759.01c-2.854.04-5.212 2.036-5.667 4.797-.18 1.097.057 2.658.464 3.055.184.18.563.22.831.088.085-.042.774-.678 1.532-1.413l1.377-1.336 1.022 1 1.021.998-1.385 1.36c-.762.75-1.421 1.43-1.464 1.512-.236.455.02.856.671 1.053 2.75.828 5.788-.503 6.988-3.063.333-.71.46-1.265.498-2.17l.036-.862 2.51-2.456 2.508-2.456.304.127c.454.19 1.232.405 1.884.52.777.139 2.38.136 3.19-.005 3.907-.68 6.999-3.69 7.709-7.507.16-.864.155-2.422-.012-3.276-.73-3.726-3.568-6.565-7.414-7.412-.584-.129-2.689-.189-3.308-.094zm2.25 1.406c1.213.082 2.874.708 3.919 1.478 2.053 1.513 3.244 3.84 3.244 6.34 0 2.894-1.782 5.663-4.5 6.99-.942.461-2.427.799-3.51.798-.832 0-2.576-.318-2.576-.47 0-.026.394-.432.876-.901l.877-.854.517.014c1.463.038 3.012-.535 4.12-1.523.729-.65 1.394-1.737 1.67-2.731.218-.778.213-2.11-.009-2.886-.196-.686-.412-.913-.869-.913-.28 0-.327.04-1.76 1.428l-1.473 1.427-1.022-.996-1.022-.996 1.404-1.379c.772-.758 1.442-1.451 1.489-1.54.113-.217.036-.574-.161-.755-.365-.334-1.394-.53-2.531-.48a5.728 5.728 0 00-4.928 3.188c-.385.774-.5 1.248-.545 2.249l-.04.871-.835.813c-.46.448-.854.795-.877.773-.023-.022-.107-.346-.186-.72-.202-.958-.157-2.45.105-3.42.747-2.77 3-4.941 5.854-5.64.566-.138 1.673-.259 2.027-.221.098.01.431.035.742.056zm-1.952 4.567c-.646.635-1.21 1.222-1.252 1.305a.984.984 0 00-.078.377c0 .205.172.395 1.748 1.934l1.748 1.706h.312c.31 0 .32-.009 1.569-1.22l1.257-1.22v.382c0 .479-.214 1.31-.462 1.793-.52 1.015-1.348 1.706-2.57 2.145-.324.117-.577.143-1.473.153l-1.082.011-4.408 4.3c-2.424 2.365-4.425 4.369-4.447 4.452-.022.084-.046.595-.054 1.137-.012.885-.032 1.031-.2 1.446-.427 1.053-1.174 1.872-2.129 2.331-.597.288-1.338.477-1.876.479H6.11l1.174-1.153c.646-.635 1.21-1.245 1.253-1.355.16-.413.062-.55-1.506-2.098-.82-.81-1.615-1.562-1.767-1.67-.29-.21-.58-.252-.84-.123-.086.042-.67.576-1.3 1.185-.629.61-1.16 1.093-1.181 1.073-.02-.02-.006-.283.033-.583.24-1.853 1.46-3.216 3.306-3.69.458-.118.668-.132 1.383-.096l.843.043 4.45-4.343 4.45-4.342.003-.983c.001-.745.032-1.081.13-1.395.562-1.82 2.23-3.07 4.172-3.127l.282-.008-1.174 1.154z" fill="#fff"/></g><defs><linearGradient id="paint0_linear_1710_4150" x1=".5" y1="0" x2="35.16" y2="35.855" gradientUnits="userSpaceOnUse"><stop stop-color="#0ABD92"/><stop offset="1" stop-color="#009DB8"/></linearGradient></defs></svg>