<svg width="57" height="57" fill="none" xmlns="http://www.w3.org/2000/svg"><circle cx="28.5" cy="28.5" r="28" stroke="#009CA1"/><path d="M43.822 37.613l-.694-.306a4.664 4.664 0 00-.088-.281l.387-.667a.504.504 0 00.004-.498 5.673 5.673 0 00-.724-1.01.499.499 0 00-.486-.155l-.73.167a5.055 5.055 0 00-.221-.163l-.07-.774a.502.502 0 00-.29-.41 5.45 5.45 0 00-1.166-.392.5.5 0 00-.484.164l-.511.594h-.246l-.511-.594a.497.497 0 00-.484-.164 5.448 5.448 0 00-1.166.391.502.502 0 00-.29.41l-.07.775c-.076.053-.15.107-.22.163l-.731-.167a.5.5 0 00-.486.155c-.278.31-.52.648-.724 1.01a.503.503 0 00.004.498l.387.666a4.8 4.8 0 00-.088.282l-.694.306c-.182.08-.3.26-.3.46v1.138c0 .199.117.38.3.46l.694.306c.027.097.056.19.088.28l-.387.668a.504.504 0 00-.004.497c.203.363.446.701.723 1.01a.5.5 0 00.487.155l.73-.167c.071.056.145.11.22.163l.072.775a.502.502 0 00.29.41c.372.174.763.305 1.165.391a.5.5 0 00.484-.163l.511-.594h.245l.512.593a.502.502 0 00.484.164 5.44 5.44 0 001.166-.39.502.502 0 00.29-.411l.07-.775c.075-.052.149-.106.22-.163l.731.167a.499.499 0 00.486-.154c.278-.31.52-.648.724-1.01a.504.504 0 00-.004-.498l-.387-.667c.032-.09.061-.184.088-.281l.694-.306c.182-.08.3-.261.3-.46v-1.138c0-.2-.118-.38-.3-.46zm-1.324 1.543a.501.501 0 00-.287.349 3.77 3.77 0 01-.19.606.502.502 0 00.03.445l.357.616a4.78 4.78 0 01-.261.367l-.674-.154a.498.498 0 00-.444.113 3.706 3.706 0 01-.502.37.503.503 0 00-.236.383l-.066.717a4.3 4.3 0 01-.405.138l-.46-.535a.503.503 0 00-.381-.175h-.706a.503.503 0 00-.38.175l-.461.535a4.38 4.38 0 01-.405-.138l-.066-.717a.503.503 0 00-.236-.382 3.686 3.686 0 01-.501-.37.503.503 0 00-.446-.114l-.672.154a4.596 4.596 0 01-.263-.367l.358-.616c.079-.136.09-.3.03-.445a3.745 3.745 0 01-.19-.606.501.501 0 00-.287-.349l-.619-.273V38.4l.62-.273a.5.5 0 00.286-.348c.046-.207.11-.41.19-.607a.503.503 0 00-.03-.445l-.357-.616c.08-.125.168-.248.261-.367l.674.154a.5.5 0 00.444-.113 3.73 3.73 0 01.502-.37.503.503 0 00.236-.382l.066-.718c.134-.053.27-.099.405-.137l.46.534a.503.503 0 00.381.175h.706a.503.503 0 00.38-.175l.461-.534c.135.038.27.084.405.137l.066.718a.503.503 0 00.236.382c.178.109.345.233.502.37a.5.5 0 00.444.113l.674-.154c.093.119.18.241.261.367l-.357.617a.504.504 0 00-.03.445c.08.196.144.399.19.606a.501.501 0 00.287.348l.619.273v.483l-.62.273z" fill="url(#paint0_linear_3132_3810)"/><path d="M38.627 36.13a2.513 2.513 0 100 5.025 2.513 2.513 0 000-5.025zm0 4.02a1.508 1.508 0 110-3.015 1.508 1.508 0 010 3.015z" fill="url(#paint1_linear_3132_3810)"/><path d="M28.073 16.023a7.539 7.539 0 00-7.54 7.54 7.547 7.547 0 007.54 7.538 7.539 7.539 0 000-15.078zm-6.262 9.402a6.532 6.532 0 018.124-8.122c-.123.08-.25.159-.364.244a.503.503 0 00-.175.559l.23.702a7.21 7.21 0 00-.276.277l-.702-.23a.506.506 0 00-.558.174 7.522 7.522 0 00-.924 1.582.502.502 0 00.127.571l.559.5a6.183 6.183 0 00-.102.378l-.729.154a.503.503 0 00-.399.491v1.714c0 .238.167.443.4.492l.728.153c.03.126.063.252.101.378l-.558.5a.502.502 0 00-.127.571c.242.563.552 1.094.923 1.582.13.172.354.242.558.175l.703-.23c.089.094.182.187.276.276l-.23.702a.503.503 0 00.174.558c.114.086.242.165.365.246a6.532 6.532 0 01-8.124-4.397zm9.29 3.921a6.913 6.913 0 01-.634-.367l.217-.662a.504.504 0 00-.152-.54 5.472 5.472 0 01-.644-.643.504.504 0 00-.54-.152l-.664.218a6.546 6.546 0 01-.444-.757l.527-.473a.503.503 0 00.138-.544 5.413 5.413 0 01-.236-.875.502.502 0 00-.391-.403l-.65-.137v-.898l.65-.137a.502.502 0 00.39-.402 5.53 5.53 0 01.237-.876.502.502 0 00-.138-.545l-.527-.472c.131-.262.28-.515.444-.757l.664.219a.505.505 0 00.54-.153 5.48 5.48 0 01.644-.643.504.504 0 00.152-.54l-.218-.662c.205-.133.417-.256.634-.367a6.565 6.565 0 011.824 1.423 4.516 4.516 0 000 8.722 6.566 6.566 0 01-1.823 1.423zm-.48-6.284a3.51 3.51 0 012.975-2.974 6.479 6.479 0 010 6.948 3.51 3.51 0 01-2.975-3.974z" fill="url(#paint2_linear_3132_3810)"/><path d="M41.312 22.59l-.602-.266a4.41 4.41 0 00-.066-.212l.336-.58a.503.503 0 00.004-.497 5.151 5.151 0 00-.657-.918.5.5 0 00-.487-.155l-.633.144a4.373 4.373 0 00-.164-.12l-.061-.674a.504.504 0 00-.29-.41 4.914 4.914 0 00-1.06-.355.501.501 0 00-.472.151l-.554.603a9.538 9.538 0 10-16.629 9.302l-1.344 1.68a.505.505 0 00.097.721l1.092.794-5.71 7.026a.504.504 0 00.075.709l.001.001 2.513 2.01c.216.173.53.139.704-.075l5.837-7.184 1.017.74c.217.158.52.117.688-.093l1.568-1.96a9.44 9.44 0 0010.093-5.154l.55.605a.502.502 0 00.474.154 4.917 4.917 0 001.06-.356.504.504 0 00.29-.41l.061-.674a5.4 5.4 0 00.163-.12l.634.145a.5.5 0 00.487-.155c.252-.282.472-.59.657-.918a.503.503 0 00-.004-.498l-.336-.58c.023-.069.045-.14.066-.212l.602-.266a.5.5 0 00.3-.46V23.05a.5.5 0 00-.3-.46zM16.94 40.448l-1.728-1.383 5.424-6.675 1.792 1.304-5.488 6.754zm7.521-6.518l-4.714-3.43.832-1.039a9.565 9.565 0 004.843 3.268l-.96 1.2zm3.611-1.825a8.544 8.544 0 01-8.544-8.543 8.553 8.553 0 018.544-8.544 8.544 8.544 0 110 17.087zm12.535-8.359l-.526.232a.5.5 0 00-.288.349 3.403 3.403 0 01-.167.539.502.502 0 00.029.444l.306.528a4.159 4.159 0 01-.197.275l-.574-.131a.498.498 0 00-.444.112c-.14.122-.289.233-.446.33a.503.503 0 00-.236.38l-.056.616a3.74 3.74 0 01-.309.104l-.656-.722a9.37 9.37 0 00-.003-6.49l.658-.714c.103.03.207.066.31.105l.056.615a.504.504 0 00.236.382c.158.097.307.207.446.329a.5.5 0 00.444.112l.574-.131c.07.09.136.181.197.275l-.306.528a.502.502 0 00-.03.445c.071.174.127.354.168.538a.501.501 0 00.288.349l.526.232v.37z" fill="url(#paint3_linear_3132_3810)"/><defs><linearGradient id="paint0_linear_3132_3810" x1="14" y1="14" x2="44.774" y2="44.875" gradientUnits="userSpaceOnUse"><stop stop-color="#0ABD92"/><stop offset="1" stop-color="#009DB8"/></linearGradient><linearGradient id="paint1_linear_3132_3810" x1="14" y1="14" x2="44.774" y2="44.875" gradientUnits="userSpaceOnUse"><stop stop-color="#0ABD92"/><stop offset="1" stop-color="#009DB8"/></linearGradient><linearGradient id="paint2_linear_3132_3810" x1="14" y1="14" x2="44.774" y2="44.875" gradientUnits="userSpaceOnUse"><stop stop-color="#0ABD92"/><stop offset="1" stop-color="#009DB8"/></linearGradient><linearGradient id="paint3_linear_3132_3810" x1="14" y1="14" x2="44.774" y2="44.875" gradientUnits="userSpaceOnUse"><stop stop-color="#0ABD92"/><stop offset="1" stop-color="#009DB8"/></linearGradient></defs></svg>