<svg width="57" height="57" fill="none" xmlns="http://www.w3.org/2000/svg"><circle cx="28.5" cy="28.5" r="28" stroke="#009CA1"/><path fill-rule="evenodd" clip-rule="evenodd" d="M20.535 14.133c-.827.437-.901 1.582-.135 2.065l.201.127.004.889c.002.489.02.955.042 1.035.079.294.283.33 1.862.33h1.464v2.732h-1.207c-1.586 0-1.461-.125-1.461 1.46v1.208h-2.731v-1.464c0-1.58-.037-1.783-.331-1.862-.08-.022-.546-.04-1.035-.042l-.89-.004-.127-.201c-.486-.773-1.639-.69-2.067.148-.207.407-.127 1.009.18 1.349.474.524 1.499.46 1.872-.116l.143-.22 1.302-.002v1.458c0 1.548.027 1.716.296 1.838.1.046.721.07 1.771.07h1.617v2.16h-4.938l-.163-.246c-.207-.314-.614-.516-1.036-.516-1.003 0-1.548 1.26-.862 1.993.37.396.911.514 1.38.301.244-.11.6-.458.6-.584 0-.035 1.019-.059 2.51-.059h2.509v2.16h-2.51c-1.49 0-2.508-.024-2.508-.058 0-.127-.357-.474-.601-.585-.469-.213-1.01-.095-1.38.302-.686.733-.141 1.993.862 1.993.422 0 .829-.203 1.036-.516l.163-.247h4.938v2.16h-1.617c-1.05 0-1.67.025-1.771.07-.27.123-.296.291-.296 1.839v1.458l-1.302-.002-.143-.22c-.378-.583-1.392-.646-1.872-.116-.307.34-.387.941-.18 1.349.428.838 1.58.92 2.068.148l.127-.202.889-.003c.489-.002.955-.02 1.035-.042.294-.08.33-.283.33-1.862v-1.464h2.732v1.196c0 1.584-.113 1.472 1.48 1.472h1.188v2.731h-1.464c-1.58 0-1.783.036-1.862.331-.021.08-.04.546-.042 1.035l-.004.89-.201.126c-.773.487-.69 1.64.148 2.067.408.208 1.009.128 1.349-.18.524-.473.46-1.498-.116-1.871l-.22-.143-.002-1.302h1.458c1.548 0 1.716-.027 1.838-.296.046-.1.07-.722.07-1.771V36.81h2.16v4.938l-.246.163c-.314.207-.516.614-.516 1.036 0 .798.873 1.387 1.632 1.1.408-.154.78-.697.78-1.14 0-.328-.204-.717-.5-.954l-.26-.21V36.81h2.16v4.933l-.262.21c-.295.237-.498.626-.498.955 0 .442.371.985.78 1.14.758.286 1.63-.303 1.63-1.1 0-.423-.201-.83-.515-1.037l-.246-.163V36.81h2.16v1.617c0 1.05.024 1.67.07 1.771.122.269.29.296 1.838.296h1.458l-.002 1.302-.22.143c-.583.377-.646 1.392-.116 1.871.34.308.941.388 1.349.18.838-.427.92-1.58.148-2.067l-.202-.127-.003-.89c-.002-.488-.02-.954-.042-1.034-.079-.295-.283-.33-1.862-.33h-1.464V36.81h1.196c1.584 0 1.472.112 1.472-1.481v-1.187h2.731v1.464c0 1.58.037 1.783.331 1.862.08.021.546.04 1.035.042l.89.004.126.201c.487.772 1.64.69 2.067-.148.318-.622-.038-1.478-.696-1.679-.478-.145-1.106.061-1.355.446l-.143.22-1.302.002v-1.458c0-1.548-.027-1.716-.296-1.838-.1-.046-.722-.07-1.771-.07h-1.617v-2.16h4.938l.163.246c.207.313.614.516 1.036.516.798 0 1.387-.873 1.1-1.632-.154-.408-.697-.78-1.14-.78-.328 0-.717.204-.954.5l-.21.26h-4.933v-2.16h4.933l.21.261c.237.296.626.499.955.499.442 0 .985-.371 1.14-.78.286-.758-.303-1.631-1.1-1.631-.423 0-.83.202-1.037.516l-.163.246h-4.938v-2.16h1.617c1.05 0 1.67-.024 1.771-.07.27-.122.296-.29.296-1.838v-1.458l1.302.002.143.22c.217.334.586.496 1.067.465.312-.02.444-.063.632-.206.445-.34.602-1.003.352-1.492-.427-.838-1.58-.92-2.067-.148l-.127.201-.889.004c-.49.001-.955.02-1.035.042-.294.079-.33.282-.33 1.862v1.464h-2.732v-1.196c0-1.584.112-1.472-1.481-1.472h-1.187v-2.732H35.6c1.58 0 1.783-.036 1.862-.33.021-.08.04-.546.042-1.035l.004-.89.201-.127c.773-.486.69-1.64-.148-2.067-.408-.208-1.01-.127-1.35.18-.529.48-.466 1.494.117 1.872l.22.143.002 1.302h-1.458c-1.548 0-1.716.027-1.838.296-.046.1-.07.722-.07 1.771v1.617h-2.16v-4.938l.246-.163c.314-.207.516-.614.516-1.036 0-.798-.873-1.387-1.632-1.1-.408.154-.78.697-.78 1.139 0 .329.204.717.5.955l.26.21v4.933h-2.16V18.8c0-1.49.024-2.508.06-2.508.125 0 .473-.357.583-.601.213-.47.095-1.01-.3-1.38-.735-.686-1.994-.141-1.994.862 0 .422.202.829.516 1.036l.246.163v4.938h-2.16v-1.617c0-1.05-.024-1.671-.07-1.771-.122-.27-.29-.296-1.838-.296h-1.458l.002-1.302.22-.143c.583-.378.646-1.393.116-1.872-.339-.306-.963-.387-1.362-.177zm.373.83c-.154.09-.146.417.012.502a.55.55 0 00.186.066c.104 0 .262-.192.262-.318 0-.133-.16-.319-.274-.316a.504.504 0 00-.186.067zm6.404.032c-.134.135-.126.302.023.436.257.233.612-.09.42-.381-.116-.177-.298-.2-.443-.055zm3.042.055c-.192.292.163.614.42.381.154-.14.156-.295.006-.43-.163-.148-.308-.131-.426.049zm6.486-.055a.364.364 0 00-.1.218c0 .126.159.318.263.318.17 0 .31-.143.31-.318 0-.28-.282-.409-.473-.218zm-21.888 5.937c-.09.167-.027.362.131.412.294.093.519-.151.38-.412-.095-.176-.417-.176-.511 0zm27.695 0c-.09.167-.027.362.131.412.294.093.519-.151.38-.412-.095-.176-.417-.176-.511 0zM22.194 35.921h13.72V22.2h-13.72v13.72zm1.525-12.196c-.125.125-.127.211-.127 5.324v5.198l.294.276H34.24l.276-.294V23.874l-.294-.276h-5.188c-5.105 0-5.191.002-5.316.127zm.762 9.909h9.147v-9.147H24.48v9.147zm-9.492-6.293c-.233.257.09.611.381.42.184-.12.199-.293.038-.438-.152-.138-.283-.132-.42.018zm27.695-.023c-.145.145-.122.327.055.443.292.192.614-.163.381-.42-.134-.149-.301-.157-.436-.023zm-27.653 3.048c-.078.055-.142.15-.142.213 0 .134.193.323.329.323.123 0 .307-.2.307-.334 0-.09-.223-.3-.318-.3a.666.666 0 00-.176.098zm27.694 0c-.171.12-.18.29-.025.431.151.137.284.133.414-.01.138-.152.133-.238-.022-.393-.152-.153-.185-.155-.367-.028zm-27.736 6.48c-.117.117-.123.182-.034.35.133.247.57.104.57-.187 0-.104-.192-.263-.318-.263a.363.363 0 00-.218.1zm27.695 0c-.117.117-.123.182-.034.35.133.247.57.104.57-.187 0-.104-.192-.263-.318-.263a.363.363 0 00-.218.1zM20.908 42.66c-.154.09-.146.416.012.5a.55.55 0 00.186.066c.104 0 .262-.191.262-.317 0-.133-.16-.319-.274-.316a.504.504 0 00-.186.067zm6.41.047c-.137.151-.134.284.01.414.16.144.303.132.42-.036.128-.181.125-.214-.027-.367-.158-.157-.268-.16-.404-.01zm3.033.043c-.097.147-.097.17 0 .318.123.187.294.204.44.042.137-.15.133-.283-.01-.414-.165-.148-.31-.13-.43.054zm6.49-.059a.363.363 0 00-.1.218c0 .126.158.317.262.317.17 0 .31-.142.31-.317 0-.28-.282-.409-.473-.218z" fill="url(#paint0_linear_3132_3813)"/><defs><linearGradient id="paint0_linear_3132_3813" x1="14" y1="14" x2="44.723" y2="44.868" gradientUnits="userSpaceOnUse"><stop stop-color="#0ABD92"/><stop offset="1" stop-color="#009DB8"/></linearGradient></defs></svg>