<svg width="57" height="57" fill="none" xmlns="http://www.w3.org/2000/svg"><circle cx="28.5" cy="28.5" r="28" stroke="#009CA1"/><path fill-rule="evenodd" clip-rule="evenodd" d="M23.453 11.17c-.609.235-1.12.81-1.833 2.066-.993 1.748-1.13 1.856-2.797 2.18-1.665.325-2.412.655-2.88 1.271-.498.656-.57 1.302-.355 3.23.186 1.66.12 1.853-1.084 3.161-1.216 1.321-1.502 1.834-1.504 2.693-.002.857.265 1.338 1.511 2.728 1.227 1.367 1.263 1.479 1.066 3.234-.158 1.401-.127 2.159.11 2.705.159.363.596.847.95 1.048.125.072-.018.35-1.541 2.994-1.114 1.931-1.68 2.987-1.68 3.13 0 .267.304.588.557.588.102 0 1.27-.292 2.594-.648 1.324-.357 2.433-.622 2.464-.589.031.034.349 1.154.705 2.49.56 2.095.676 2.45.847 2.598.109.094.28.17.38.17.099 0 .264-.076.365-.17.102-.094.872-1.368 1.711-2.832l1.526-2.662.398-.092c.219-.05.824-.282 1.346-.515 1.236-.551 1.7-.71 2.078-.707.357.002.931.2 2.169.747.48.213 1.043.425 1.252.472l.38.085 1.55 2.692c.853 1.481 1.634 2.758 1.735 2.838.333.262.745.131.908-.288.045-.117.36-1.254.7-2.526.339-1.273.63-2.328.645-2.344.016-.015 1.119.266 2.451.627 2.417.653 2.62.696 2.851.607.175-.067.365-.47.315-.669-.024-.092-.795-1.459-1.716-3.036-.92-1.578-1.663-2.874-1.651-2.88.57-.314.956-.756 1.156-1.326.137-.387.155-1.586.037-2.4-.042-.291-.08-.81-.083-1.153-.007-.829.11-1.053 1.137-2.173 1.18-1.289 1.52-1.894 1.526-2.724.006-.819-.377-1.486-1.662-2.899-.88-.967-.99-1.19-.988-2.02 0-.352.037-.879.081-1.17.044-.293.084-.856.088-1.253.011-.994-.14-1.422-.695-1.978-.521-.522-.9-.675-2.51-1.02-.646-.138-1.301-.305-1.456-.372-.45-.191-.76-.568-1.383-1.672-.756-1.34-1.183-1.852-1.795-2.158-.821-.411-1.467-.33-3.043.384-1.948.881-2.119.881-4.023-.003-1.351-.627-2.147-.752-2.91-.458zm.463 1.163c-.352.153-.778.692-1.341 1.697-1.077 1.921-1.418 2.168-3.653 2.64-1.293.274-1.805.477-2.049.813-.214.295-.24.997-.084 2.359.222 1.96.057 2.44-1.405 4.07-.948 1.059-1.21 1.47-1.209 1.902.001.372.362.954 1.044 1.682 1.608 1.716 1.792 2.2 1.577 4.155-.147 1.338-.15 1.978-.012 2.31.157.376.64.622 1.648.842 1.557.339 1.817.41 2.276.615.619.278 1.187.916 1.822 2.047.625 1.113.907 1.507 1.221 1.705.378.239.912.161 1.875-.271 1.486-.668 1.905-.81 2.503-.852.752-.054 1.226.074 2.61.703 2.037.925 2.252.844 3.444-1.29.628-1.125 1.196-1.76 1.825-2.043.456-.205.718-.275 2.27-.614 1.79-.39 1.926-.647 1.639-3.088-.23-1.952-.039-2.476 1.516-4.154.754-.814 1.104-1.368 1.105-1.747 0-.434-.27-.86-1.216-1.916-1.458-1.625-1.62-2.096-1.398-4.056.155-1.362.13-2.064-.084-2.359-.246-.338-.759-.54-2.087-.819-2.127-.447-2.55-.75-3.571-2.562-.624-1.107-1.084-1.674-1.457-1.797-.359-.119-.775-.008-1.964.52-1.404.625-1.74.726-2.404.726-.662 0-1.195-.162-2.41-.731-.706-.33-1.49-.6-1.72-.59a1.402 1.402 0 00-.31.103zm2.886 4.108c-1.24.209-2.64.775-3.782 1.53-.709.468-1.975 1.733-2.453 2.45-2.45 3.67-2.177 8.333.678 11.592 2.487 2.838 6.384 3.917 10.026 2.774 1.31-.411 2.766-1.312 3.782-2.337 3.23-3.264 3.674-8.161 1.093-12.029-.481-.722-1.742-1.974-2.48-2.465-2.045-1.36-4.53-1.907-6.864-1.515zm.253 1.214c-2.16.337-4.275 1.684-5.52 3.519a8.459 8.459 0 00-1.361 3.83c-.418 4.866 3.34 9 8.183 9 4.829 0 8.624-4.156 8.182-8.96-.175-1.896-.92-3.537-2.232-4.917-1.892-1.988-4.547-2.894-7.252-2.472zm3.192 7.363l-3.178 3.176-1.846-1.838c-1.597-1.589-1.878-1.837-2.077-1.837-.357 0-.63.258-.63.595 0 .267.108.388 2.146 2.422 1.98 1.976 2.166 2.142 2.407 2.142.244 0 .496-.234 3.695-3.434 3.264-3.266 3.432-3.448 3.432-3.71 0-.344-.19-.58-.518-.644-.25-.048-.294-.007-3.43 3.128zm-13.63 13.245c-.722 1.256-1.302 2.295-1.288 2.308.013.013.91-.213 1.994-.502 1.084-.29 2.065-.526 2.18-.527a.58.58 0 01.355.148c.168.168.193.249.805 2.565.245.929.464 1.687.486 1.686.023-.002.506-.818 1.075-1.813l1.033-1.81-.33-.233c-.4-.282-.882-.923-1.364-1.813-.567-1.05-.906-1.493-1.306-1.71-.28-.152-1.994-.592-2.273-.584-.03 0-.646 1.03-1.367 2.285zm21.204-2.1c-1.544.322-1.752.483-2.608 2.004-.599 1.064-1.046 1.665-1.463 1.968l-.292.21 1.033 1.797c.568.988 1.05 1.798 1.072 1.8.023 0 .241-.758.487-1.687.612-2.316.637-2.398.805-2.565a.574.574 0 01.351-.148c.112 0 1.09.24 2.172.534 1.082.294 1.98.522 1.993.508.044-.044-2.583-4.556-2.663-4.575-.041-.009-.44.06-.887.153z" fill="url(#paint0_linear_3132_3811)"/><defs><linearGradient id="paint0_linear_3132_3811" x1="13" y1="11" x2="48.619" y2="42.25" gradientUnits="userSpaceOnUse"><stop stop-color="#0ABD92"/><stop offset="1" stop-color="#009DB8"/></linearGradient></defs></svg>