<svg width="57" height="57" fill="none" xmlns="http://www.w3.org/2000/svg"><circle cx="28.5" cy="28.5" r="28" stroke="#009CA1"/><path fill-rule="evenodd" clip-rule="evenodd" d="M19.422 14.067c-.364.12-.794.431-1.024.744-.281.383-.38.781-.38 1.534v.647h-1.436c-1.256 0-1.486.016-1.835.124a2.57 2.57 0 00-1.623 1.623c-.122.391-.124.604-.124 10.798s.002 10.406.124 10.797a2.57 2.57 0 001.623 1.623c.388.12.595.124 7.702.124h7.304l.154-.154a.49.49 0 00.034-.67l-.12-.148-7.36-.031c-7.027-.03-7.37-.037-7.58-.149a1.718 1.718 0 01-.71-.698l-.136-.251-.033-15.963h28.101v8.724l.154.154a.472.472 0 00.696 0l.154-.154V25.94c0-6.608-.004-6.814-.124-7.2a2.57 2.57 0 00-1.623-1.623c-.349-.11-.579-.125-1.828-.125h-1.43l-.023-.768c-.026-.893-.138-1.202-.602-1.666-.41-.41-.753-.544-1.395-.545-.635 0-.996.146-1.43.58-.435.434-.538.73-.566 1.63l-.024.77h-3.988l-.023-.77c-.027-.892-.138-1.2-.602-1.665-.41-.41-.753-.544-1.396-.545-.635 0-.996.146-1.43.58-.434.434-.537.73-.565 1.63l-.025.77h-3.988l-.023-.77c-.02-.658-.044-.812-.175-1.08-.198-.402-.621-.823-.994-.989-.366-.162-1.072-.205-1.43-.087zm.162 1.06a.852.852 0 00-.421.42c-.136.27-.142.343-.142 1.947s.006 1.677.142 1.947c.151.3.552.562.862.562.31 0 .71-.261.862-.562.136-.27.142-.343.142-1.947s-.006-1.678-.142-1.947c-.152-.301-.552-.562-.862-.562-.089 0-.288.064-.441.141zm8.028 0a.852.852 0 00-.421.42c-.136.27-.141.343-.141 1.947s.005 1.677.141 1.947c.152.3.552.562.862.562.31 0 .71-.261.863-.562.136-.27.141-.343.141-1.947s-.005-1.678-.141-1.947c-.152-.301-.552-.562-.863-.562-.088 0-.287.064-.441.141zm8.029 0a.852.852 0 00-.422.42c-.135.27-.14.343-.14 1.947s.005 1.677.14 1.947c.152.3.553.562.863.562.31 0 .71-.261.862-.562.136-.27.142-.343.142-1.947s-.006-1.678-.142-1.947c-.152-.301-.552-.562-.862-.562-.089 0-.288.064-.441.141zm-20.509 2.927a1.62 1.62 0 00-.98.82c-.106.198-.119.41-.136 2.18l-.019 1.96H42.11l-.02-1.96c-.016-1.77-.03-1.982-.135-2.18a1.719 1.719 0 00-.698-.712c-.233-.125-.356-.136-1.703-.155l-1.452-.02-.023.773c-.026.898-.137 1.205-.602 1.67-.41.41-.753.544-1.395.544-.635.001-.996-.145-1.43-.58-.435-.433-.538-.73-.566-1.63l-.024-.768h-3.988l-.023.768c-.027.893-.138 1.201-.602 1.666-.41.41-.753.544-1.396.544-.635.001-.996-.145-1.43-.58-.434-.433-.537-.73-.565-1.63l-.025-.768h-3.988l-.023.768c-.026.893-.137 1.201-.602 1.666-.41.41-.753.544-1.395.544-.635.001-.996-.145-1.43-.58-.435-.433-.537-.73-.566-1.63l-.024-.768-1.358.005c-.747.003-1.428.027-1.515.053zm2.475 8.558c-.254.113-.516.433-.564.688-.02.113-.029.632-.018 1.154.022 1.032.052 1.124.453 1.424.162.121.257.129 1.543.129 1.287 0 1.382-.008 1.544-.13.417-.31.432-.367.432-1.595 0-1.033-.01-1.133-.13-1.293-.314-.421-.349-.43-1.772-.447-.983-.011-1.343.006-1.488.07zm6.021 0c-.253.113-.515.433-.563.688-.021.113-.03.632-.018 1.154.022 1.032.051 1.124.452 1.424.162.121.257.129 1.544.129 1.286 0 1.381-.008 1.544-.13.416-.31.431-.367.431-1.595 0-1.033-.01-1.133-.129-1.293-.315-.421-.35-.43-1.772-.447-.984-.011-1.344.006-1.489.07zm6.022 0c-.254.113-.516.433-.564.688-.021.113-.03.632-.018 1.154.022 1.032.051 1.124.452 1.424.163.121.258.129 1.544.129 1.287 0 1.381-.008 1.544-.13.417-.31.432-.367.432-1.595 0-1.033-.01-1.133-.13-1.293-.314-.421-.35-.43-1.772-.447-.983-.011-1.343.006-1.488.07zm6.021 0c-.254.113-.516.433-.563.688-.022.113-.03.632-.019 1.154.023 1.032.052 1.124.453 1.424.162.121.257.129 1.544.129 1.286 0 1.38-.008 1.543-.13.417-.31.432-.367.432-1.595 0-1.033-.01-1.133-.13-1.293-.314-.421-.349-.43-1.771-.447-.984-.011-1.344.006-1.489.07zm-17.653 2.423h2.007v-1.506h-2.007v1.506zm6.021 0h2.007v-1.506H24.04v1.506zm6.021 0h2.008v-1.506H30.06v1.506zm6.022 0h2.007v-1.506h-2.007v1.506zm-18.475 2.093c-.254.113-.516.433-.564.688-.02.113-.029.632-.018 1.154.022 1.032.052 1.124.453 1.424.162.121.257.13 1.543.13 1.287 0 1.382-.009 1.544-.13.417-.311.432-.368.432-1.596 0-1.033-.01-1.133-.13-1.293-.314-.421-.349-.43-1.772-.447-.983-.011-1.343.006-1.488.07zm6.021 0c-.253.113-.515.433-.563.688-.021.113-.03.632-.018 1.154.022 1.032.051 1.124.452 1.424.162.121.257.13 1.544.13 1.286 0 1.381-.009 1.544-.13.416-.311.431-.368.431-1.596 0-1.033-.01-1.133-.129-1.293-.315-.421-.35-.43-1.772-.447-.984-.011-1.344.006-1.489.07zm6.022.002c-.253.11-.516.43-.564.686-.021.113-.03.632-.018 1.154.018.842.035.968.15 1.122.206.275.43.411.736.446.246.027.307.01.447-.13.211-.211.214-.496.007-.703-.084-.085-.197-.154-.25-.154-.083 0-.098-.116-.098-.753v-.753h1.101c1.085 0 1.103-.002 1.255-.154a.505.505 0 00.153-.347.505.505 0 00-.154-.348c-.152-.153-.16-.154-1.364-.152-.863.002-1.265.027-1.401.086zm6.118-.05c-1.171.215-1.991.526-2.789 1.056a6.648 6.648 0 00-2.748 3.924c-.2.792-.195 2.255.01 3.038.635 2.42 2.39 4.175 4.812 4.81.78.205 2.245.21 3.036.01a6.62 6.62 0 004.848-4.847c.192-.764.192-2.248 0-3.011-.603-2.393-2.45-4.249-4.817-4.839-.486-.121-1.975-.21-2.352-.141zm-17.75 2.47h2.007v-1.505h-2.007v1.506zm6.021 0h2.007v-1.505H24.04v1.506zm11.625-1.412c-1.792.326-3.264 1.437-4.03 3.044-.926 1.94-.677 4.136.659 5.826.69.872 1.81 1.596 2.942 1.899.714.19 1.987.19 2.697-.001 1.588-.429 2.895-1.495 3.585-2.926.423-.878.543-1.41.543-2.415 0-1.005-.12-1.539-.544-2.415-1.057-2.187-3.492-3.44-5.852-3.012zm1.942 5.19l-2.025 2.02-.961-.954c-.636-.631-1.007-.954-1.096-.954-.352 0-.636.327-.556.641.02.079.567.672 1.218 1.319 1.073 1.067 1.202 1.176 1.397 1.176.199 0 .384-.17 2.49-2.275 2.5-2.5 2.458-2.444 2.09-2.81-.362-.363-.332-.385-2.557 1.837zm-19.999-1.684c-.254.113-.516.433-.564.688-.02.113-.029.632-.018 1.154.022 1.033.052 1.125.453 1.424.162.121.257.13 1.543.13 1.287 0 1.382-.009 1.544-.13.417-.311.432-.368.432-1.596 0-1.033-.01-1.133-.13-1.293-.314-.421-.349-.43-1.772-.447-.983-.011-1.343.006-1.488.07zm6.021 0c-.253.113-.515.433-.563.688-.021.113-.03.632-.018 1.154.022 1.033.051 1.125.452 1.424.162.121.257.13 1.544.13 1.286 0 1.381-.009 1.544-.13.416-.311.431-.368.431-1.596 0-1.033-.01-1.133-.129-1.293-.315-.421-.35-.43-1.772-.447-.984-.011-1.344.006-1.489.07zm-5.61 2.423h2.007v-1.505h-2.007v1.505zm6.021 0h2.007v-1.505H24.04v1.505z" fill="url(#paint0_linear_3132_3809)"/><path d="M43.107 32.127h-1.004v4.641h1.004v-4.641z" fill="url(#paint1_linear_3132_3809)"/><path d="M27.552 41.096V42.1h4.641v-1.004h-4.641z" fill="url(#paint2_linear_3132_3809)"/><path d="M29.998 34.542v-.973h1.944v1.004l-1.944-.031z" fill="url(#paint3_linear_3132_3809)"/><defs><linearGradient id="paint0_linear_3132_3809" x1="13" y1="14" x2="43.666" y2="44.859" gradientUnits="userSpaceOnUse"><stop stop-color="#0ABD92"/><stop offset="1" stop-color="#009DB8"/></linearGradient><linearGradient id="paint1_linear_3132_3809" x1="13" y1="14" x2="43.666" y2="44.859" gradientUnits="userSpaceOnUse"><stop stop-color="#0ABD92"/><stop offset="1" stop-color="#009DB8"/></linearGradient><linearGradient id="paint2_linear_3132_3809" x1="13" y1="14" x2="43.666" y2="44.859" gradientUnits="userSpaceOnUse"><stop stop-color="#0ABD92"/><stop offset="1" stop-color="#009DB8"/></linearGradient><linearGradient id="paint3_linear_3132_3809" x1="13" y1="14" x2="43.666" y2="44.859" gradientUnits="userSpaceOnUse"><stop stop-color="#0ABD92"/><stop offset="1" stop-color="#009DB8"/></linearGradient></defs></svg>