<svg width="57" height="57" fill="none" xmlns="http://www.w3.org/2000/svg"><circle cx="28.5" cy="28.5" r="28" stroke="#009CA1"/><path fill-rule="evenodd" clip-rule="evenodd" d="M24.13 13.827l-.651.227c-1.54.537-3.328 1.574-4.532 2.627-.318.279-.597.506-.62.506-.023 0-.565-.307-1.205-.682-.962-.565-1.178-.666-1.251-.587-.062.067-3.52 6.098-3.87 6.748-.012.021.502.341 1.141.712.64.37 1.177.71 1.195.755.018.046-.035.478-.117.96a14.805 14.805 0 00.045 5.088c.062.32.096.625.076.676-.02.05-.56.396-1.198.767-.639.371-1.152.691-1.142.711.35.652 3.808 6.68 3.87 6.747.074.08.285-.018 1.254-.586.64-.376 1.181-.684 1.203-.684.022 0 .3.228.619.507 1.204 1.053 2.992 2.09 4.532 2.627l.65.227V44h7.872v-2.827l.65-.226c1.473-.51 3.288-1.558 4.473-2.58.285-.246.558-.477.606-.513.059-.044.464.157 1.264.628.798.47 1.2.67 1.249.621.04-.04.935-1.587 1.991-3.437 1.884-3.302 1.917-3.367 1.765-3.458a465.16 465.16 0 00-1.209-.717c-.6-.355-1.045-.663-1.034-.715.242-1.092.319-1.855.325-3.205.006-1.235-.02-1.61-.162-2.447-.148-.872-.155-.999-.062-1.067.057-.043.598-.363 1.2-.713.603-.35 1.086-.654 1.074-.676-.38-.703-3.81-6.683-3.87-6.748-.071-.078-.297.029-1.252.586-.64.375-1.183.681-1.206.681-.022 0-.301-.227-.62-.506-1.204-1.053-2.991-2.09-4.532-2.627l-.65-.227V11H24.13v2.827zm1.124-.407c0 .964-.022 1.29-.088 1.31-2.75.844-4.157 1.604-5.873 3.168l-.795.725-1.047-.611c-.576-.336-1.072-.61-1.103-.61-.045 0-2.267 3.826-2.705 4.657l-.118.225 1.067.626a60.87 60.87 0 011.093.648c.014.012-.056.352-.155.756a13.4 13.4 0 00.025 6.48c.086.343.145.634.13.647a60.68 60.68 0 01-1.093.65l-1.067.625.118.226c.424.807 2.66 4.656 2.705 4.656.03 0 .527-.274 1.103-.61l1.047-.61.795.724c1.451 1.324 3.188 2.336 4.942 2.879l.93.289c.067.02.089.346.089 1.31v1.282h5.623V41.58c0-.965.021-1.289.088-1.308 2.47-.706 4.186-1.632 5.874-3.171l.796-.726 1.051.612c.578.337 1.074.612 1.102.611.04 0 1.462-2.452 2.597-4.481l.227-.406-1.07-.623a60.052 60.052 0 01-1.098-.648c-.015-.013.054-.353.153-.755.294-1.202.362-1.795.362-3.185 0-1.39-.068-1.988-.36-3.186-.099-.404-.168-.743-.154-.756a64.99 64.99 0 011.095-.645l1.07-.622-.121-.23c-.395-.752-2.66-4.659-2.701-4.66-.028 0-.525.276-1.106.614l-1.055.614-.457-.432c-1.854-1.756-3.574-2.717-6.205-3.47-.067-.018-.088-.341-.088-1.307v-1.282h-5.623v1.282zm1.581 4.483c-4.095.566-7.354 3.681-8.166 7.806-.086.435-.122.964-.122 1.791s.036 1.356.122 1.791c.772 3.923 3.749 6.935 7.626 7.717.84.17 2.7.17 3.54 0 3.88-.782 6.854-3.792 7.627-7.717.173-.879.17-2.74-.008-3.605-.155-.76-.53-1.883-.828-2.484a9.718 9.718 0 00-6.738-5.198c-.654-.133-2.4-.19-3.053-.1zm-.145 1.173c-3.428.584-6.15 3.236-6.89 6.717-.161.755-.18 2.5-.037 3.236.45 2.294 1.793 4.34 3.663 5.58l.668.443.038-3.155-.53-.57a6.285 6.285 0 011.043-9.51c.292-.203 1.591-.86 1.697-.86.02 0 .036 1.392.036 3.093v3.093l1.687.856 1.687-.856V24.05c0-1.701.017-3.093.036-3.093.106 0 1.405.657 1.697.859 1.236.852 2.081 2.028 2.527 3.515.171.571.192.75.191 1.671 0 .822-.03 1.14-.146 1.571-.297 1.096-.782 1.958-1.583 2.813l-.475.507.037 3.159.668-.443c1.87-1.24 3.214-3.286 3.663-5.58.144-.735.125-2.481-.036-3.236-.856-4.023-4.32-6.858-8.336-6.82-.406.004-.993.05-1.305.103zM24.832 23.1c-.769.634-1.388 1.61-1.662 2.622-.193.71-.175 2.01.036 2.703.287.939.605 1.46 1.36 2.23l.688.7v4.164l.193.08c.106.043.478.15.826.236.534.134.818.158 1.827.154 1.087-.004 1.266-.023 1.968-.21l.774-.207.037-4.22.687-.699c.754-.768 1.072-1.29 1.359-2.228.21-.692.228-1.993.036-2.703-.274-1.012-.894-1.988-1.662-2.622l-.387-.319-.037 5.075-2.81 1.423-2.81-1.423-.036-5.075-.387.319z" fill="url(#paint0_linear_3132_3814)"/><defs><linearGradient id="paint0_linear_3132_3814" x1="12" y1="11" x2="45.652" y2="43.928" gradientUnits="userSpaceOnUse"><stop stop-color="#0ABD92"/><stop offset="1" stop-color="#009DB8"/></linearGradient></defs></svg>