<svg width="57" height="57" fill="none" xmlns="http://www.w3.org/2000/svg"><circle cx="28.5" cy="28.5" r="28" stroke="#009CA1"/><path fill-rule="evenodd" clip-rule="evenodd" d="M43.114 14.298v8.929h-.971V14.97h-8.256V14h8.929l.298.298zm-16.025.673h-8.255v8.256h-.971v-8.929L18.16 14h8.929v.971zm4.128 2.004c3.734.513 6.83 3.059 8.005 6.585.369 1.107.456 1.694.456 3.066 0 1.063-.02 1.337-.137 1.881a9.753 9.753 0 01-.86 2.459 9.261 9.261 0 01-1.82 2.519c-1.364 1.364-3.03 2.261-4.977 2.68-.544.116-.82.136-1.881.136-1.12 0-1.322-.016-2.01-.162-1.15-.244-2.353-.701-3.168-1.203l-.305-.187-2.069 2.069.377.392c.623.649.827.347-2.431 3.598-2.381 2.376-2.863 2.83-3.173 2.984-.503.25-.81.323-1.355.322-1.617-.004-2.865-1.252-2.869-2.87-.001-.544.072-.852.322-1.354.154-.31.608-.792 2.984-3.173 3.25-3.258 2.949-3.054 3.598-2.43l.392.376 2.008-2.008-.403-.615a10.006 10.006 0 01-1.443-3.56c-.196-.968-.192-2.808.007-3.736a9.727 9.727 0 01.859-2.458 9.263 9.263 0 011.82-2.52 9.745 9.745 0 014.947-2.67c.689-.146 2.45-.214 3.126-.121zm-.395.948c3.535.384 6.42 2.712 7.486 6.04.312.973.399 1.552.399 2.663 0 1.11-.087 1.69-.399 2.663a8.707 8.707 0 01-6.707 5.918c-2.116.401-4.526-.05-6.377-1.192-.895-.552-.762-.603-2.235.868l-1.242 1.241-.756-.756 1.228-1.233c1.459-1.466 1.422-1.376.874-2.103-3.11-4.127-2.115-9.96 2.175-12.748.861-.56 2.072-1.037 3.156-1.245.512-.098 1.93-.167 2.398-.116zm.06.97c1.04.152 1.817.394 2.664.828a7.585 7.585 0 013.442 3.536c.852 1.771 1.011 3.616.48 5.554-.175.636-.768 1.823-1.21 2.419-1.155 1.557-2.81 2.61-4.757 3.027-.695.149-2.31.15-2.997 0-3.137-.677-5.466-3-6.13-6.114-.151-.712-.153-2.317-.003-3.016.67-3.116 2.97-5.431 6.084-6.124.411-.092 2.047-.166 2.428-.11zm.165 1.028a6.81 6.81 0 015.476 4.842c.917 3.165-.638 6.595-3.624 7.994a6.787 6.787 0 01-9.42-4.277c-.67-2.317-.012-4.886 1.698-6.62a6.814 6.814 0 015.87-1.939zm-.225 3.854c.998.156 1.576.426 3.52 1.646 1.992 1.25 1.993 1.162-.03 2.436-2.352 1.48-2.774 1.642-4.31 1.642-1.535 0-1.957-.161-4.308-1.642-2.045-1.287-2.051-1.17.149-2.546 2.06-1.288 2.628-1.514 3.947-1.566a6.92 6.92 0 011.032.03zm.577 1.144c.183.06.456.17.607.246.35.177 2.365 1.42 2.366 1.46.001.048-1.928 1.24-2.336 1.444-.388.194-.945.378-1.144.378-.085 0-.035-.057.17-.193a1.954 1.954 0 000-3.257c-.245-.162-.268-.192-.144-.19.08.003.297.053.48.112zm-2.455.078a1.954 1.954 0 000 3.257c.204.136.254.193.17.193-.198 0-.755-.182-1.14-.373-.397-.196-2.343-1.4-2.34-1.448.002-.048 1.93-1.24 2.335-1.443.387-.194.944-.378 1.144-.378.085 0 .035.057-.17.192zm1.486.794c.291.147.544.534.544.835 0 .3-.253.687-.544.834-.15.075-.341.137-.427.137-.087 0-.279-.062-.428-.137-.291-.147-.544-.534-.544-.834 0-.3.253-.688.544-.835.15-.075.341-.137.428-.137.086 0 .278.062.427.137zm12.684 13.162l-.298.298h-8.929v-.97h8.256v-8.256h.97v8.928zM20.685 36.46l1.335 1.336-2.489 2.49c-2.838 2.842-2.814 2.823-3.641 2.817-.577-.004-.952-.156-1.337-.541-.375-.375-.536-.762-.54-1.306-.009-.853-.085-.753 2.748-3.597 1.389-1.394 2.54-2.534 2.557-2.534.018 0 .633.6 1.367 1.335z" fill="url(#paint0_linear_3132_3812)"/><defs><linearGradient id="paint0_linear_3132_3812" x1="13" y1="14" x2="43.716" y2="44.867" gradientUnits="userSpaceOnUse"><stop stop-color="#0ABD92"/><stop offset="1" stop-color="#009DB8"/></linearGradient></defs></svg>