<svg width="57" height="57" fill="none" xmlns="http://www.w3.org/2000/svg"><circle cx="28.5" cy="28.5" r="28" stroke="#009CA1"/><g clip-path="url(#clip0_3132_3808)"><path fill-rule="evenodd" clip-rule="evenodd" d="M14.938 26.656v11.719H27.6l.061.177c.1.285.512 1.117.71 1.434a9.229 9.229 0 002.714 2.736c.735.471 1.778.887 2.785 1.112.862.192 2.491.193 3.373.002 1.689-.366 3.056-1.11 4.27-2.324 1.212-1.213 1.957-2.58 2.323-4.269.19-.882.19-2.511-.002-3.373-.592-2.655-2.243-4.767-4.623-5.914a9.643 9.643 0 00-.66-.294l-.176-.062V14.938H14.938v11.718zm.937 0v10.782h5.713c3.142 0 5.713-.022 5.713-.049 0-.026-.042-.323-.094-.659-.19-1.235-.027-2.81.418-4.039a8.54 8.54 0 015.066-5.066c1.228-.445 2.804-.608 4.039-.418.336.052.633.094.66.094.026 0 .047-2.571.047-5.713v-5.713h-7.03v3.64c0 2.887-.015 3.632-.073 3.608-.04-.016-.885-.378-1.876-.804l-1.803-.775-1.771.766c-.975.42-1.818.783-1.874.804-.097.037-.103-.158-.103-3.6v-3.639h-7.032v10.781zm7.969-7.857v2.925l1.406-.605 1.406-.605 1.407.605 1.406.605v-5.849h-5.625v2.924zm10.76 9.326c-1.731.24-3.224 1.005-4.453 2.28-2.78 2.883-2.765 7.455.036 10.352 2.87 2.97 7.577 3.067 10.533.217 1.125-1.083 1.825-2.328 2.172-3.859.189-.833.188-2.26-.001-3.105-.651-2.9-2.82-5.091-5.688-5.749-.706-.161-1.949-.227-2.6-.136z" fill="#02C0D0"/><path d="M17.281 32.75a.469.469 0 100-.938.469.469 0 000 .938zm1.875 0a.469.469 0 100-.938.469.469 0 000 .938zm1.875.938h-3.75a.469.469 0 000 .937h3.75a.469.469 0 000-.938zm0 1.875h-3.75a.469.469 0 000 .937h3.75a.469.469 0 000-.938z" fill="#02C0D0"/><path d="M31.959 31.93l7.266 7.265m-.03-7.265l-7.265 7.265" stroke="#02C0D0" stroke-width=".938" stroke-linecap="round"/></g><defs><clipPath id="clip0_3132_3808"><path fill="#fff" transform="translate(14 14)" d="M0 0h30v30H0z"/></clipPath></defs></svg>