<svg width="35" height="31" fill="none" xmlns="http://www.w3.org/2000/svg"><path fill-rule="evenodd" clip-rule="evenodd" d="M3.107.179L2.94.357v5.174h1.162V1.237h4.034V0h-4.86l-.168.179zm13.778 2.295c0 1.361-.027 2.474-.059 2.474s-.455.034-.94.075c-3.544.3-6.86 1.518-9.796 3.597-1.16.821-1.85 1.42-2.936 2.548C1.677 12.7 0 15.008 0 15.508c0 .17.44.93 1.03 1.78.85 1.226 2.474 3.015 3.618 3.986 1.457 1.236 3.595 2.546 5.356 3.282 1.901.795 3.9 1.255 6.351 1.463l.53.045V31h1.23v-2.474c0-1.361.027-2.474.059-2.474.361 0 2.002-.18 2.65-.292a22.454 22.454 0 003.82-1.06c1.851-.726 4.148-2.102 5.708-3.42.985-.833 2.766-2.796 3.528-3.888.86-1.234 1.12-1.676 1.12-1.9 0-.17-.44-.93-1.03-1.78-.85-1.226-2.476-3.017-3.618-3.985-2.785-2.36-6.17-3.94-9.673-4.516-.54-.089-2.2-.263-2.505-.263-.032 0-.059-1.113-.059-2.474V0h-1.23v2.474zM26.865.62v.618h4.033v4.294h1.162V.357L31.893.18 31.725 0h-4.86v.619zm-9.98 7.458v1.82h1.23v-3.64h.246c.45 0 1.626.298 2.328.59 2.782 1.158 4.827 3.787 5.39 6.93.057.314.103.682.103.819v.248h-3.418v1.31H26.2l-.043.5c-.058.662-.324 1.73-.608 2.449-1.137 2.866-3.556 4.945-6.433 5.529-.294.06-.64.109-.768.109h-.234v-3.639h-1.23v3.639h-.234c-.128 0-.474-.05-.768-.109-2.985-.606-5.445-2.798-6.546-5.831-.247-.68-.519-1.931-.519-2.386v-.261h3.418v-1.31H8.818v-.261c0-.144.064-.592.14-.996.587-3.062 2.649-5.63 5.442-6.778.667-.274 1.727-.538 2.194-.547l.29-.005v1.82zm-6.234-.163c-1.35 1.379-2.261 3.03-2.724 4.94a12.22 12.22 0 00-.252 1.39l-.053.565-2.341.019-2.342.019v1.306l2.342.02 2.341.018.053.564c.028.31.142.936.252 1.391a10.454 10.454 0 002.735 4.952c.35.356.577.623.506.593a18.4 18.4 0 00-.47-.187c-1.675-.643-3.494-1.724-5.127-3.048-1.264-1.024-3.065-3.044-3.98-4.465l-.316-.491.316-.491c.915-1.42 2.716-3.44 3.98-4.466 1.465-1.186 3.13-2.207 4.614-2.828.395-.165.78-.329.855-.364.268-.126.227-.066-.389.563zm13.944-.302c1.652.691 3.434 1.78 4.936 3.013 1.22 1.002 2.985 2.997 3.877 4.383l.316.49-.327.506c-.916 1.414-2.629 3.35-3.866 4.37-1.478 1.218-3.551 2.48-4.99 3.038-.32.124-.633.248-.697.275-.064.027.187-.268.558-.656 1.372-1.436 2.24-3.046 2.702-5.014.095-.404.195-.98.223-1.28l.05-.546 2.342-.019 2.341-.019v-1.306l-2.34-.02-2.342-.018-.05-.546c-.029-.3-.13-.877-.224-1.28-.46-1.964-1.33-3.579-2.696-5.007-.368-.385-.656-.699-.641-.699.015 0 .387.15.828.335zm-7.761 3.598c-.99.188-1.984.837-2.581 1.683-1.73 2.454-.619 5.907 2.187 6.8.65.206 1.637.174 2.322-.075 1.707-.621 2.798-2.226 2.798-4.118 0-2.31-1.661-4.184-3.835-4.324a4.409 4.409 0 00-.891.034zm1.664 1.39c.758.3 1.302.835 1.635 1.61.807 1.874-.285 4.02-2.214 4.35-1.54.265-3.038-.924-3.294-2.614-.194-1.286.495-2.666 1.609-3.221.755-.376 1.524-.419 2.264-.126zM2.94 28.055v2.587l.168.178.168.179h4.86v-1.237H4.102V25.47H2.939v2.586zm27.96-.44v2.147h-4.034V31h4.86l.168-.179.167-.178v-5.174h-1.162v2.147z" fill="url(#paint0_linear_1710_4055)"/><defs><linearGradient id="paint0_linear_1710_4055" x1="0" y1="0" x2="31.37" y2="35.591" gradientUnits="userSpaceOnUse"><stop stop-color="#0ABD92"/><stop offset="1" stop-color="#009DB8"/></linearGradient></defs></svg>