<svg width="37" height="35" fill="none" xmlns="http://www.w3.org/2000/svg"><path fill-rule="evenodd" clip-rule="evenodd" d="M17.812.352c-3.563 2.483-8.273 4.24-12.854 4.797-1.048.127-1.066.148-1.15 1.309-.07.99-.012 4.34.085 4.895.098.552.549.766.904.429l.168-.16-.037-2.685-.037-2.684.173-.036c.095-.02.433-.07.751-.113 3.963-.53 8.458-2.185 11.845-4.363.432-.278.81-.506.84-.506.03 0 .408.228.84.506 3.377 2.173 7.89 3.835 11.845 4.363.318.042.655.093.75.112l.171.036-.038 2.519c-.047 3.055-.185 4.4-.713 6.945-1.015 4.896-3.067 9.007-5.961 11.945-1.22 1.237-2.16 1.992-3.605 2.895-.796.497-3.073 1.63-3.277 1.63-.168 0-1.894-.816-2.7-1.277a24.547 24.547 0 01-1.685-1.085c-.976-.696-2.79-2.372-3.534-3.265-2.592-3.117-4.37-7.236-5.172-11.976l-.188-1.112c-.044-.254-.332-.5-.587-.5-.222 0-.53.288-.53.496 0 .245.34 2.156.538 3.022a29.946 29.946 0 001.648 5.08c.238.56.421 1.025.407 1.036-.015.01-.222.123-.46.248-.786.415-1.897 1.166-2.417 1.633-.627.565-.647.69-.222 1.42.16.274.29.517.29.54 0 .024-.79.541-1.753 1.15-.964.609-1.842 1.186-1.952 1.283-.222.197-.257.452-.092.677.06.08.807.51 1.663.957l1.555.812v1.688c0 1.676.002 1.69.168 1.838a.622.622 0 00.347.149c.17 0 6.13-3.282 6.434-3.543.215-.184.16-.488-.228-1.252-.198-.391-.36-.734-.36-.763 0-.056.814-.413 1.248-.546l.272-.084.704.632c1.61 1.448 3.803 2.787 5.995 3.661.558.222.64.222 1.198.001 2.136-.845 4.4-2.228 5.995-3.662l.704-.632.272.084c.434.133 1.248.49 1.248.546 0 .029-.162.372-.36.763-.387.764-.442 1.068-.228 1.252.319.274 6.264 3.543 6.444 3.543a.57.57 0 00.348-.159c.152-.154.157-.208.157-1.837v-1.679l1.555-.812c.856-.447 1.604-.878 1.663-.957.165-.225.13-.48-.092-.677-.11-.097-.988-.674-1.952-1.283-.964-.609-1.753-1.127-1.753-1.152 0-.025.13-.27.29-.545.406-.704.392-.851-.132-1.334-.534-.493-1.306-1.035-2.18-1.53a14.93 14.93 0 00-.751-.408c-.036-.011.147-.529.407-1.15 1.24-2.959 1.956-5.878 2.33-9.502.143-1.386.214-4.548.126-5.621-.086-1.044-.12-1.08-1.148-1.204-4.552-.548-9.297-2.32-12.854-4.798C18.894.146 18.608 0 18.5 0c-.107 0-.394.146-.688.352zm-.045 3.862c-.838.58-1.665 1.04-2.917 1.619-2.209 1.02-4.275 1.62-6.633 1.923-.77.1-.918.197-.998.655-.084.488-.08 3.082.007 4.12.225 2.693.767 5.134 1.635 7.368.549 1.411 1.98 3.935 2.486 4.383.343.303.937.08.937-.352 0-.076-.222-.466-.494-.866-1.563-2.296-2.528-4.774-3.117-8-.296-1.62-.51-4.84-.386-5.797l.058-.443.795-.123c3.053-.474 6.44-1.748 8.84-3.324.25-.164.484-.299.52-.299.036 0 .27.135.52.3 2.4 1.575 5.788 2.85 8.84 3.323l.795.123.056.512c.031.282.038 1.026.015 1.653-.042 1.128-.04 1.144.128 1.33.3.331.857.188.948-.245.064-.303.048-3.172-.02-3.627-.074-.496-.21-.589-.999-.69-2.358-.304-4.424-.903-6.633-1.924-1.24-.574-2.058-1.027-2.923-1.619-.331-.227-.616-.37-.734-.37s-.397.142-.726.37zm4.636 7.767c-.328.145-.833.588-2.893 2.538l-2.495 2.362-.974-.927c-1.108-1.056-1.376-1.214-2.054-1.22-1.395-.013-2.334 1.344-1.749 2.526.226.455 3.466 3.587 3.944 3.81a2.03 2.03 0 001.523.075c.364-.13.69-.42 3.804-3.386 3.71-3.533 3.602-3.407 3.596-4.205-.011-1.303-1.435-2.132-2.702-1.573zm1.113.948c.515.204.63.717.268 1.18-.25.319-6.035 5.793-6.294 5.955-.098.062-.324.113-.503.113h-.324l-1.71-1.63c-1.805-1.72-1.855-1.785-1.717-2.26.124-.427.75-.64 1.146-.39.098.062.689.592 1.312 1.178.98.922 1.164 1.066 1.36 1.066.204 0 .52-.276 2.915-2.548 1.478-1.401 2.785-2.595 2.904-2.653.267-.13.34-.132.643-.011zm5.149.787c-.087.09-.183.452-.3 1.118-.722 4.165-2.111 7.258-4.389 9.769-1.273 1.404-2.666 2.426-4.516 3.315l-.956.459-.923-.436a14.7 14.7 0 01-3.686-2.433c-.56-.497-.67-.55-.937-.454-.252.09-.38.258-.383.502-.001.154.104.296.486.651 1.15 1.07 2.498 1.967 4.066 2.706 1.364.643 1.375.643 2.686.029 3.309-1.55 5.75-3.902 7.493-7.225 1.03-1.964 1.689-3.989 2.149-6.607l.197-1.12-.144-.184c-.19-.241-.652-.291-.843-.09zM7.476 23.968c.601 1.069 1.796 2.759 2.55 3.606.178.2.312.374.297.387-.015.013-.27.121-.569.24-.64.257-1.747.85-2.331 1.251-.23.157-.428.273-.443.257-.046-.05-2.43-4.381-2.43-4.415 0-.152 2.399-1.686 2.636-1.686.048 0 .179.162.29.36zm22.61-.247c.643.312 2.364 1.458 2.364 1.573 0 .034-2.384 4.365-2.43 4.415-.015.016-.214-.1-.443-.257-.584-.4-1.69-.994-2.331-1.25-.298-.12-.553-.227-.566-.238-.013-.011.169-.247.404-.524.94-1.106 1.798-2.324 2.4-3.403.132-.236.269-.43.305-.43.036 0 .17.052.297.114zM5.417 29.184c.524.953.997 1.775 1.05 1.828.053.052.444.151.87.22.426.07.806.135.843.147.038.012-.788.501-1.835 1.087L4.442 33.53l-.036-1.398c-.035-1.342-.043-1.404-.197-1.522-.088-.068-.682-.393-1.32-.722-.637-.329-1.173-.621-1.192-.65-.03-.046 2.601-1.771 2.72-1.782.026-.003.476.775 1 1.728zm28.549-.866c.754.478 1.356.891 1.337.92-.019.029-.555.321-1.193.65-.637.33-1.23.654-1.319.721-.154.119-.162.18-.197 1.523l-.036 1.398-1.903-1.064c-1.047-.586-1.873-1.075-1.835-1.087.037-.012.417-.078.843-.147.426-.069.817-.168.87-.22.053-.053.525-.875 1.05-1.828.524-.953.966-1.733.983-1.733.016 0 .646.39 1.4.867zM8.801 30.216l.086.192-.271-.043c-.479-.075-.494-.093-.23-.268.267-.176.285-.17.415.12zm19.977.057c-.083.07-.679.137-.636.072.021-.033.072-.143.112-.243l.073-.183.251.156c.138.085.228.175.2.198z" fill="url(#paint0_linear_1710_4074)"/><defs><linearGradient id="paint0_linear_1710_4074" x1="0" y1="0" x2="35.635" y2="37.856" gradientUnits="userSpaceOnUse"><stop stop-color="#0ABD92"/><stop offset="1" stop-color="#009DB8"/></linearGradient></defs></svg>