<svg width="32" height="33" fill="none" xmlns="http://www.w3.org/2000/svg"><path fill-rule="evenodd" clip-rule="evenodd" d="M0 1.016v.516h1.032V.5H0v.516zm2.065 0v.516H5.16V.5H2.065v.516zm4.129 0v.516h1.032V.5H6.194v.516zm2.064 0v.516H9.29V.5H8.258v.516zm14.452 0v.516h1.032V.5H22.71v.516zm2.064 0v.516h1.032V.5h-1.032v.516zm2.065 0v.516h3.097V.5h-3.097v.516zm4.129 0v.516H32V.5h-1.032v.516zM0 4.113V5.66h1.032V2.565H0v1.548zm30.968 0V5.66H32V2.565h-1.032v1.548zM3.255 3.755l-.158.158V9.79h1.032V4.63H9.29V3.597H3.413l-.158.158zm19.455.358v.516h5.161V9.79h1.032V3.913l-.158-.158-.159-.158H22.71v.516zM0 7.21v.516h1.032V6.694H0v.516zm30.968 0v.516H32V6.694h-1.032v.516zM0 9.274v.516h1.032V8.758H0v.516zm30.968 0v.516H32V8.758h-1.032v.516zm-20 .645l-.453.904H9.384c-.78 0-1.285.031-1.625.101a5.224 5.224 0 00-4.044 4.045c-.139.67-.139 2.391 0 3.062a5.224 5.224 0 004.044 4.045c.34.07.845.101 1.625.101h1.131l.453.904.453.904.45-.227c.249-.125.452-.242.452-.26 0-.018-.146-.322-.324-.677l-.323-.644h7.02c6.108 0 7.068-.012 7.4-.099 1.037-.27 1.922-1.155 2.192-2.192.147-.563.147-6.209 0-6.772-.27-1.037-1.155-1.922-2.192-2.192-.332-.087-1.292-.1-7.4-.1h-7.02L12 10.18c.178-.355.324-.66.324-.677 0-.018-.203-.135-.451-.26l-.451-.227-.453.904zm11.613 1.995c0 .154-.453.628-.741.776l-.32.165-5.421.032-5.422.032-.37.174a2.948 2.948 0 00-1.292 1.27l-.209.425v3.422l.174.37a2.949 2.949 0 001.27 1.292l.425.209 5.42.032 5.421.032.322.162c.292.145.743.619.743.779 0 .09-13.74.078-14.347-.012l-.481-.072-.022-.692c-.02-.638-.036-.716-.217-1.007a1.675 1.675 0 00-.51-.511c-.301-.186-.356-.197-1.19-.228l-.874-.032-.107-.355a5.228 5.228 0 01-.154-.758l-.046-.403h1.56v-1.032h-1.56l.046-.403a5.23 5.23 0 01.154-.758l.107-.355.874-.033c.834-.03.889-.04 1.19-.227.195-.12.39-.316.51-.51.18-.292.197-.37.217-1.01l.022-.694.398-.062c.526-.08 14.43-.098 14.43-.018zm2.698.385c-.006.598.147 1.026.509 1.428.344.384.802.636 1.25.689l.317.037v4.112h-.191c-.373 0-.919.263-1.265.61-.438.437-.626.922-.597 1.537l.02.438-.796-.018-.797-.018-.097-.285a3.001 3.001 0 00-.252-.533c-.1-.16-.127-.247-.074-.247.17 0 .885-.384 1.134-.61.143-.13.347-.371.453-.538.347-.546.397-.854.397-2.414 0-1.254-.014-1.453-.133-1.805a2.538 2.538 0 00-1.547-1.606c-.211-.078-.384-.152-.384-.166 0-.014.07-.133.156-.265a2.35 2.35 0 00.236-.515l.08-.274h1.585l-.004.444zm1.517.268c.26.288.489.734.416.807-.015.015-.156-.038-.313-.117-.301-.152-.576-.566-.576-.867 0-.234.157-.175.473.177zm-20.086.196a.536.536 0 01-.189.452c-.165.165-.235.188-.56.188h-.372l.19-.202c.239-.254.794-.701.872-.701.032 0 .059.118.059.263zm7.225 3.742v2.586l-1.5-.021c-1.39-.02-1.518-.032-1.758-.161a1.765 1.765 0 01-.718-.732c-.107-.2-.12-.384-.12-1.677 0-1.583.015-1.66.41-2.086.4-.432.629-.48 2.316-.488l1.37-.007v2.586zm9.22-2.485c.235.07.427.188.62.382.414.413.483.712.483 2.098 0 1.4-.068 1.69-.493 2.102-.5.487-.415.479-4.873.479h-3.924V13.92h3.924c3.373 0 3.971.014 4.264.1zm-6.639 2.48v2.064h1.032v-4.129h-1.032V16.5zm-9.995 3.285a.536.536 0 01.189.452c0 .145-.027.263-.059.263-.078 0-.633-.447-.873-.701l-.19-.202h.373c.325 0 .395.023.56.188zm20.642.096c-.085.26-.613.877-.75.877-.134 0-.11-.255.055-.583a.875.875 0 01.43-.432c.158-.08.299-.132.314-.117.015.014-.007.13-.049.255zM0 23.726v.516h1.032V23.21H0v.516zm3.097 2.422v2.939l.158.158.158.158H9.29v-1.032H4.13V23.21H3.097v2.938zm24.774-.358v2.581H22.71v1.032h5.877l.158-.158.158-.159V23.21h-1.032v2.58zm3.097-2.064v.516H32V23.21h-1.032v.516zM0 25.79v.516h1.032v-1.032H0v.516zm30.968 0v.516H32v-1.032h-1.032v.516zM0 28.887v1.549h1.032v-3.097H0v1.548zm30.968 0v1.549H32v-3.097h-1.032v1.548zM0 31.984v.516h1.032v-1.032H0v.516zm2.065 0v.516H5.16v-1.032H2.065v.516zm4.129 0v.516h1.032v-1.032H6.194v.516zm2.064 0v.516H9.29v-1.032H8.258v.516zm14.452 0v.516h1.032v-1.032H22.71v.516zm2.064 0v.516h1.032v-1.032h-1.032v.516zm2.065 0v.516h3.097v-1.032h-3.097v.516zm4.129 0v.516H32v-1.032h-1.032v.516z" fill="url(#paint0_linear_1710_4070)"/><defs><linearGradient id="paint0_linear_1710_4070" x1="0" y1=".5" x2="32.64" y2="33.3" gradientUnits="userSpaceOnUse"><stop stop-color="#0ABD92"/><stop offset="1" stop-color="#009DB8"/></linearGradient></defs></svg>