<svg width="37" height="37" fill="none" xmlns="http://www.w3.org/2000/svg"><g clip-path="url(#clip0_1710_4060)"><path d="M36.974 6.628a.735.735 0 00-.57-.533L5.676.012a.754.754 0 00-.562.11.74.74 0 00-.31.482L4.58 1.803a.395.395 0 00-.207.007C4.248 1.862 1.377 3.04.57 6.488a.363.363 0 00.17.4l3.545 2.086c.007.008.015 0 .03.008.03.014.059.03.088.037l3.22.636a.45.45 0 00.022.14l.918 2.332a.44.44 0 00.096.133l-.23 1.162-8.059.015a.367.367 0 00-.37.37v4.53c0 .118.06.229.155.295a.393.393 0 00.215.074c.037 0 .074-.007.118-.014l9.288-3.035c.074.008.141.022.215.022.318 0 .63-.096.903-.274a1.59 1.59 0 00.688-1.036l.304-1.517c.022-.007.052-.007.074-.022l2.442-1.835.274.052c0 .007 0 .014.007.022.015.014 1.132 1.865.518 3.47-.37.955-1.288 1.666-2.745 2.095-2.746.814-3.264 2.716-2.872 4.107.474 1.673 2.257 3.05 4.692 3.05.415 0 .859-.06 1.31-.141l-.207 1.243c-.03.2.103.392.303.422l1.94.318-.297 1.814-.422-.067a.365.365 0 00-.273.067.355.355 0 00-.148.244l-.496 3.012a.365.365 0 00.162.363H3.634a.366.366 0 00-.37.37v3.878c0 .11.044.214.133.28a.36.36 0 00.237.09c.022 0 .044 0 .059-.008l12.64-2.146 3.56.585c.023 0 .037.007.06.007a.368.368 0 00.214-.067.355.355 0 00.148-.244l.348-2.102a3.455 3.455 0 001.62-.614 3.414 3.414 0 001.385-2.227.369.369 0 00-.304-.422l-.251-.045c.821-.821 1.443-2.442 1.71-4.055.266-1.614.192-3.353-.326-4.39l.125.023c.2.03.407.052.607.052a3.713 3.713 0 003.656-3.108.365.365 0 00-.066-.274.355.355 0 00-.245-.148l-9.643-1.584a.365.365 0 00-.274.067.355.355 0 00-.148.244l-.54 3.293c-.03.2.104.392.303.422l.422.067-.333 2.02-1.939-.318a.363.363 0 00-.422.303l-.303 1.858c-2.797.651-4.936-.644-5.417-2.331-.311-1.11.148-2.539 2.368-3.198 1.687-.503 2.775-1.354 3.227-2.545.518-1.37.051-2.805-.296-3.567l12.085 2.39a.398.398 0 00.281-.052.35.35 0 00.156-.237l.37-1.857 2.553.503a.907.907 0 00.14.015.757.757 0 00.49-.185l5.098-4.44a.726.726 0 00.222-.74zM18.384 25.39l.177-1.058.859-5.203 3.463.57-1.391 8.444-2.117-.348-1.347-.222.356-2.183zm-14.38 6.417h12.174l-.17 1.028-12.004 2.043v-3.071zm15.638 1.524l-2.894-.474.266-1.598 1.71.281 1.184.193-.266 1.598zm2.205-2.827a2.673 2.673 0 01-1.998.466l-.903-.148-2.176-.355h-.022l.377-2.287.422.067.503.081 4.804.792a2.726 2.726 0 01-1.007 1.384zm2.235-6.268c-.363 2.19-1.214 3.56-1.835 3.892l1.34-8.17c.495.51.858 2.08.495 4.278zm-4.914-8.533l8.888 1.458a2.973 2.973 0 01-3.33 2.087l-1.317-.215-4.67-.77.429-2.56zm-2.509 5.802l1.57.259-.364 2.19-.155.963-1.569-.26.23-1.413v-.008l.288-1.731zM6.38 8.664l.296-1.496 19.035 3.767-.296 1.495L6.38 8.663zm-.954-3.25l.2-1.08c2.42.481 9.813 1.946 9.813 1.946a.355.355 0 00.348-.118L17.79 3.92l13.026 2.575-3.086 3.33-22.306-4.41zM16.948 3.75L15.37 5.511c-1.213-.245-7.437-1.473-9.62-1.902l.362-1.999 10.835 2.14zM4.433 2.602l-.6 3.257c-.073.4.186.777.585.858l.06.015-.267 1.347-2.857-1.68c.659-2.376 2.465-3.479 3.08-3.797zm.77 4.278l.74.148-.296 1.495-.74-.148.296-1.495zm-4.47 7.312l7.608-.008a1.604 1.604 0 00.458 1.022L.733 17.84v-3.648zm10.11.044a.871.871 0 01-.378.563.885.885 0 01-.666.133h-.015a.888.888 0 01-.696-1.036l.267-1.347 1.746.348-.259 1.34zm.776-2.087l-2.45-.466-.725-1.85 4.959.984-1.784 1.332zm15.816.681l-1.295-.259.296-1.495 1.295.26-.296 1.494zm3.508-2.368l-2.361-.466 3.086-3.33 2.968.584-3.693 3.212z" fill="url(#paint0_linear_1710_4060)"/><path d="M27.257 26.876a.375.375 0 00-.43.296.37.37 0 00.297.43 1.765 1.765 0 002.05-1.414 1.757 1.757 0 00-1.414-2.043.375.375 0 00-.429.296.37.37 0 00.296.43c.555.103.918.628.822 1.183a1.037 1.037 0 01-1.192.822z" fill="url(#paint1_linear_1710_4060)"/><path d="M26.428 29.357a.37.37 0 00.296.429c.244.044.481.066.718.066 1.88 0 3.56-1.346 3.915-3.263a3.933 3.933 0 00-.644-2.975 3.958 3.958 0 00-2.56-1.65.37.37 0 00-.134.725 3.186 3.186 0 012.08 1.346c.488.71.68 1.577.518 2.42a3.233 3.233 0 01-3.767 2.606.37.37 0 00-.422.296z" fill="url(#paint2_linear_1710_4060)"/><path d="M28.508 20.038a.375.375 0 00-.43.296.37.37 0 00.297.429 5.19 5.19 0 01-1.865 10.213.37.37 0 00-.134.725 5.918 5.918 0 004.44-.955 5.924 5.924 0 002.465-3.811 5.875 5.875 0 00-.954-4.44 5.93 5.93 0 00-3.82-2.457z" fill="url(#paint3_linear_1710_4060)"/></g><defs><linearGradient id="paint0_linear_1710_4060" x1="0" y1="-.002" x2="36.369" y2="37.892" gradientUnits="userSpaceOnUse"><stop stop-color="#0ABD92"/><stop offset="1" stop-color="#009DB8"/></linearGradient><linearGradient id="paint1_linear_1710_4060" x1="26.822" y1="24.141" x2="30.142" y2="26.416" gradientUnits="userSpaceOnUse"><stop stop-color="#0ABD92"/><stop offset="1" stop-color="#009DB8"/></linearGradient><linearGradient id="paint2_linear_1710_4060" x1="26.422" y1="21.957" x2="33.718" y2="26.602" gradientUnits="userSpaceOnUse"><stop stop-color="#0ABD92"/><stop offset="1" stop-color="#009DB8"/></linearGradient><linearGradient id="paint3_linear_1710_4060" x1="26.074" y1="20.033" x2="36.854" y2="26.762" gradientUnits="userSpaceOnUse"><stop stop-color="#0ABD92"/><stop offset="1" stop-color="#009DB8"/></linearGradient><clipPath id="clip0_1710_4060"><path fill="#fff" d="M0 0h37v37H0z"/></clipPath></defs></svg>