<svg width="24" height="26" fill="none" xmlns="http://www.w3.org/2000/svg"><path d="M22.738 11.693a1.584 1.584 0 010 2.744l-19.6 11.316A1.584 1.584 0 01.76 24.381V1.748A1.585 1.585 0 013.137.377l19.6 11.316z" fill="#609C97"/><path d="M22.738 11.693a1.584 1.584 0 010 2.744l-19.6 11.316A1.584 1.584 0 01.76 24.381V1.748A1.585 1.585 0 013.137.377l19.6 11.316z" fill="#fff"/><path d="M22.738 11.693a1.584 1.584 0 010 2.744l-19.6 11.316A1.584 1.584 0 01.76 24.381V1.748A1.585 1.585 0 013.137.377l19.6 11.316z" fill="url(#paint0_linear_1710_3979)"/><defs><linearGradient id="paint0_linear_1710_3979" x1="25.113" y1="-3.17" x2="-8.168" y2="29.949" gradientUnits="userSpaceOnUse"><stop stop-color="#0ABD92"/><stop offset="1" stop-color="#009DB8"/></linearGradient></defs></svg>