<svg width="36" height="34" fill="none" xmlns="http://www.w3.org/2000/svg"><path fill-rule="evenodd" clip-rule="evenodd" d="M6.644.131c-.327.217-.43.58-.43 1.524v.866l-.818.033c-.926.038-1.341.189-1.896.687-.553.496-.754.964-.795 1.855l-.036.773h-.916c-1.308 0-1.75.22-1.75.872 0 .653.441.872 1.76.872h.925v1.665H.573l-.285.27c-.318.3-.371.613-.167.985.186.34.425.408 1.518.43l1.007.02v1.664l-.965.02c-1.216.024-1.312.047-1.513.36-.256.396-.217.737.12 1.055l.285.27h2.115v1.665h-.926c-1.318 0-1.76.219-1.76.872s.442.872 1.76.872h.926v1.665H.573l-.285.27c-.318.3-.371.613-.167.985.186.34.425.407 1.518.43l1.007.02v1.664l-.965.02c-1.216.024-1.312.047-1.513.36-.256.395-.217.737.12 1.055l.285.27h2.115v1.665h-.926c-1.318 0-1.76.219-1.76.872 0 .651.443.872 1.75.872h.917l.036.773c.04.874.2 1.266.727 1.79.525.523 1.02.712 1.964.751l.818.034v.866c0 1.235.234 1.653.923 1.653.692 0 .924-.418.924-1.663v-.874h1.763v1.998l.285.27c.318.3.65.35 1.044.157.36-.176.431-.402.454-1.434l.022-.952h1.762l.022.952c.023 1.032.094 1.258.454 1.434.394.192.726.142 1.044-.158l.285-.27v-1.998h1.763v.875c0 1.245.232 1.663.923 1.663.692 0 .924-.418.924-1.663v-.874h1.763v1.998l.285.27c.318.3.65.35 1.044.157.36-.176.431-.402.454-1.434l.021-.952h1.763l.022.952c.023 1.032.094 1.258.454 1.434.394.192.726.142 1.044-.158l.285-.27v-1.998h1.762v.875c0 1.245.233 1.663.924 1.663.69 0 .924-.418.924-1.653v-.866l.818-.034c.943-.039 1.439-.228 1.964-.75.527-.525.687-.917.727-1.791l.036-.773h.916c1.308 0 1.75-.22 1.75-.872 0-.653-.441-.872-1.76-.872h-.926V24.5h2.116l.285-.27c.318-.3.37-.613.167-.986-.186-.339-.426-.407-1.518-.428l-1.008-.02V21.13l1.008-.02c1.092-.021 1.332-.09 1.518-.429.204-.372.15-.686-.167-.986l-.285-.27h-2.116v-1.664h.926c1.319 0 1.76-.22 1.76-.872 0-.653-.441-.872-1.76-.872h-.926v-1.665h2.116l.285-.27c.318-.3.37-.613.167-.986-.186-.339-.426-.407-1.518-.428l-1.008-.02v-1.666l1.008-.02c1.092-.021 1.332-.09 1.518-.429.204-.372.15-.686-.167-.986l-.285-.27h-2.116V7.614h.926c1.319 0 1.76-.22 1.76-.872s-.442-.872-1.75-.872h-.916l-.036-.773c-.041-.89-.242-1.359-.795-1.855-.555-.498-.97-.649-1.896-.687l-.818-.033v-.866c0-1.235-.234-1.653-.924-1.653-.691 0-.923.418-.923 1.662v.875H25.94V.541l-.285-.27c-.337-.318-.699-.354-1.119-.113-.33.19-.354.281-.38 1.43l-.02.911h-1.764l-.02-.951C22.328.516 22.256.29 21.897.114c-.394-.192-.726-.142-1.044.158l-.285.27v1.996h-1.763v-.875c0-1.244-.232-1.662-.924-1.662-.691 0-.923.418-.923 1.662v.875h-1.763V.541l-.285-.27c-.337-.318-.699-.354-1.119-.113-.33.19-.354.281-.38 1.43l-.02.911h-1.763l-.022-.951C11.584.516 11.512.29 11.153.114c-.394-.192-.726-.142-1.044.158l-.285.27v1.996H8.06v-.875C8.06.42 7.829.002 7.137.002c-.164 0-.386.058-.493.13zm24.395 4.332l.232.22v24.412l-.232.22-.233.22H4.96l-.233-.22-.233-.22v-12.2c0-12.087.002-12.2.168-12.375a1.16 1.16 0 01.336-.242c.092-.035 5.937-.058 12.988-.05l12.821.016.233.22zM6.745 5.997c-.565.263-.531-.432-.531 10.892 0 11.354-.036 10.635.544 10.895.25.112 1.422.125 11.124.125 9.703 0 10.875-.013 11.125-.125.58-.26.544.459.544-10.895s.036-10.635-.544-10.895c-.25-.112-1.42-.125-11.137-.123-9.689.001-10.887.015-11.125.126zm20.959 10.892v9.276H8.06V7.613h19.643v9.276zm-16.517-3.332a1.744 1.744 0 00-1.143.884l-.22.418v4.073l.234.424c.17.308.346.49.64.661.388.227.458.239 1.52.268 1.239.034 1.617-.038 1.886-.36.206-.248.221-.71.032-.966-.23-.31-.614-.405-1.623-.405h-.927v-3.33h.927c1.318 0 1.76-.22 1.76-.872 0-.354-.193-.62-.554-.762-.306-.12-2.04-.143-2.532-.033zm4.54.039c-.517.212-.53.298-.53 3.293 0 3.02.01 3.084.558 3.3a.91.91 0 001.035-.264c.149-.18.169-.32.169-1.184v-.98h.926c1.01 0 1.394-.096 1.623-.406.116-.155.137-.43.137-1.735 0-1.723-.027-1.822-.554-2.03-.392-.154-2.985-.15-3.365.006zm5.325.004c-.463.245-.483.368-.483 2.959v2.373l.234.424c.171.309.346.49.644.663l.41.24h2.796l.41-.24c.298-.174.473-.354.643-.663l.235-.424V16.56c0-2.619-.018-2.723-.515-2.966a.854.854 0 00-1.033.213l-.215.24v4.508h-1.847v-4.518l-.23-.242c-.28-.292-.713-.373-1.049-.195zm-3.17 2.02v.397h-.923v-.793h.923v.396z" fill="url(#paint0_linear_1710_4665)"/><defs><linearGradient id="paint0_linear_1710_4665" x1="0" y1="0" x2="34.388" y2="36.589" gradientUnits="userSpaceOnUse"><stop stop-color="#0ABD92"/><stop offset="1" stop-color="#009DB8"/></linearGradient></defs></svg>