<svg width="41" height="33" fill="none" xmlns="http://www.w3.org/2000/svg"><path fill-rule="evenodd" clip-rule="evenodd" d="M18.212.421c-2.698.471-5.077 1.753-7.009 3.778-.872.914-1.384 1.634-1.384 1.947 0 .479 1.321 2.061 2.545 3.049 2.417 1.951 4.976 2.84 8.17 2.84 2.804 0 5.12-.685 7.232-2.136 1.327-.912 2.996-2.594 3.371-3.397.192-.411.11-.627-.583-1.511-1.845-2.359-4.738-4.066-7.74-4.57-.99-.166-3.65-.166-4.602 0zm3.51 1.711a4.205 4.205 0 012.558 2.344c.868 2.093-.01 4.49-2.002 5.468a3.975 3.975 0 01-4.64-.854 4.293 4.293 0 01-.718-4.84c.29-.593 1.018-1.407 1.541-1.723a4.052 4.052 0 013.26-.395zm-6.266 1.36a5.97 5.97 0 00-.065 5.158l.305.664-.327-.14c-.456-.194-1.307-.729-1.89-1.187-.564-.444-1.785-1.7-1.785-1.837 0-.161 1.631-1.756 2.207-2.157.448-.313 1.692-1.029 1.79-1.03.013 0-.093.238-.235.53zm11.596.437c.772.532 2.322 2.023 2.322 2.234 0 .157-1.289 1.443-1.965 1.962-.566.434-1.84 1.206-1.99 1.206-.026 0 .07-.224.214-.497.794-1.515.813-3.668.045-5.245l-.296-.609.41.182c.227.1.794.445 1.26.767zM19.77 3.77c-1.047.387-1.654 1.281-1.639 2.413.012.946.462 1.73 1.249 2.179.42.239.576.276 1.155.274.716-.002 1.121-.157 1.68-.643.734-.638.966-1.993.509-2.96-.532-1.123-1.83-1.678-2.954-1.263zm1.073 1.63c.511.22.66.828.316 1.28-.443.582-1.428.253-1.428-.477 0-.33.212-.68.49-.804.335-.152.268-.152.622.001zM6.783 8.838c-4.089 1.412-6.32 3.16-6.688 5.24-.118.663-.13 6.859-.015 7.678.114.816.495 1.552 1.168 2.256.74.776 1.442 1.263 2.799 1.939 3.12 1.555 7.015 2.407 13.295 2.908l.692.055.003 1.446c.003 1.509.031 1.634.415 1.846.46.253.53.205 4.736-3.269 2.248-1.857 4.198-3.498 4.333-3.647.312-.345.33-.81.044-1.128-.144-.161-7.142-5.961-8.346-6.918-.06-.047-.26-.086-.443-.086-.25 0-.385.06-.538.245-.193.232-.204.32-.204 1.624v1.38l-.692-.002c-1.856-.005-5.123-.47-7.9-1.125l-1.225-.288-.025-4.931-.025-4.93-.25-.224c-.285-.252-.554-.269-1.134-.069zm26.35-.024c-.452.259-.45.223-.453 5.378l-.003 4.815-1.138.275a53.41 53.41 0 01-2.228.481c-.88.167-1.127.248-1.29.427-.384.423-.196 1.117.363 1.338.424.168 4.365-.706 6.474-1.436 1.137-.393 2.512-1.098 3.552-1.82l.786-.547v1.99c0 1.831-.015 2.021-.185 2.366-.864 1.75-4.647 3.495-9.471 4.37-1.315.239-1.537.318-1.682.597a.874.874 0 00.183 1.057c.338.295.402.295 1.93.006 4.64-.878 7.9-2.248 9.633-4.048.712-.74 1.069-1.402 1.2-2.23.11-.696.114-7.022.005-7.711-.164-1.035-.837-2.055-1.926-2.922-.807-.642-2.827-1.668-4.217-2.143-1.213-.413-1.23-.416-1.532-.243zM6.606 14.546c0 3.313-.018 3.83-.132 3.83-.215 0-1.464-.537-2.279-.98-1.544-.84-2.5-1.904-2.5-2.78 0-1.212 1.413-2.46 4.063-3.588.393-.168.744-.306.78-.309.038-.002.068 1.72.068 3.827zm28.458-3.547c2.555 1.046 4.133 2.417 4.133 3.593 0 .922-.944 1.961-2.59 2.85-.716.387-2.136 1.026-2.28 1.026-.022 0-.041-1.744-.041-3.876 0-2.132.019-3.877.042-3.877.023 0 .355.128.736.284zM4.15 19.257c2.88 1.464 8.56 2.682 13.396 2.871l1.52.06.265-.236c.259-.23.268-.265.311-1.244l.045-1.008 2.944 2.47c1.62 1.357 2.953 2.503 2.963 2.545.01.042-1.315 1.188-2.944 2.548l-2.963 2.471-.048-.948c-.027-.522-.082-1.024-.123-1.114-.14-.313-.516-.41-1.838-.475-6.818-.336-12.79-1.992-15.1-4.187-.849-.807-.883-.934-.883-3.276v-1.999l.737.511a17.76 17.76 0 001.718 1.011z" fill="url(#paint0_linear_1710_4714)"/><defs><linearGradient id="paint0_linear_1710_4714" x1="0" y1=".297" x2="31.646" y2="40.932" gradientUnits="userSpaceOnUse"><stop stop-color="#0ABD92"/><stop offset="1" stop-color="#009DB8"/></linearGradient></defs></svg>