<svg width="36" height="36" fill="none" xmlns="http://www.w3.org/2000/svg"><path fill-rule="evenodd" clip-rule="evenodd" d="M4.31.048C2.374.378.779 1.813.166 3.778L0 4.308v27.397l.165.528c.556 1.784 1.817 3.046 3.6 3.603l.527.165h27.372l.525-.165c1.79-.562 3.046-1.82 3.602-3.603l.165-.528v-15.19l-.197-.17a.728.728 0 00-.942 0l-.198.17-.02 2.4-.02 2.402H1.372l.001-8.258c.001-9.16-.02-8.714.47-9.646.483-.922 1.463-1.677 2.492-1.92.392-.092 2.131-.106 13.643-.106s13.25.014 13.643.106c1.036.245 2.005.991 2.492 1.918.45.858.469 1.03.47 4.435l.001 3.045.204.228c.169.19.255.229.5.229.246 0 .33-.04.504-.234L36 10.88l-.024-3.322c-.024-3.249-.029-3.332-.188-3.814-.582-1.765-1.787-2.972-3.561-3.568l-.493-.165L18.19 0C10.74-.005 4.494.017 4.311.048zm2.675 4.781l-.23.206-.019 6.38c-.02 7.092-.045 6.708.446 6.914.309.129.547.068.77-.196l.175-.209V12.02h7.177v5.914l.196.219c.146.163.26.22.448.226.302.008.603-.172.696-.416.041-.108.068-2.646.068-6.483 0-5.756-.01-6.322-.118-6.504a.681.681 0 00-1.084-.145l-.206.206v5.574H8.127V5.036l-.206-.206c-.28-.281-.622-.281-.936 0zm13.907.007a.933.933 0 00-.351.217c-.131.144-.136.349-.154 6.304-.02 6.684-.03 6.498.363 6.756.163.107.404.115 2.381.086 2.448-.037 2.61-.06 3.607-.536 2.025-.965 3.272-3.318 3.272-6.172 0-3.367-1.573-5.844-4.142-6.527-.468-.124-.807-.146-2.648-.17-1.24-.015-2.2.002-2.328.042zm4.65 1.498c1.434.407 2.415 1.55 2.866 3.34.132.52.157.811.156 1.817 0 1.02-.024 1.285-.16 1.796-.467 1.752-1.448 2.914-2.827 3.35-.307.097-.736.128-2.093.154l-1.706.032V6.154l1.706.04c1.149.027 1.821.073 2.058.14zm9.402 6.84a.743.743 0 00-.358.63c-.003.288.402.68.702.68.285 0 .703-.392.703-.659 0-.566-.566-.918-1.047-.651zm-.361 13.794c0 3.532-.019 4.318-.107 4.693-.243 1.03-.996 2.01-1.918 2.495-.951.5.047.468-14.58.468-11.512 0-13.25-.013-13.643-.106-1.029-.242-2.009-.997-2.493-1.919-.466-.888-.468-.909-.469-5.631v-4.244h33.211l-.001 4.244zm-19.666-2.562a2.56 2.56 0 00-1.023.585c-.438.439-.675 1.189-.488 1.54.091.17.428.348.658.348.232 0 .586-.307.64-.556.115-.522.801-.725 1.135-.336.403.469.24.8-1.666 3.366-.335.45-.629.902-.654 1.003-.066.263.116.649.369.78.174.09.494.11 1.764.11h1.55l.228-.204c.308-.275.323-.687.035-.976-.184-.184-.233-.195-1.028-.229l-.834-.035.633-.88c.349-.484.76-1.141.914-1.46.24-.495.28-.645.278-1.03a2.05 2.05 0 00-1.232-1.879c-.376-.166-.955-.233-1.279-.147zm5.268.085c-.471.18-.928.589-1.189 1.06l-.209.378v3.803l.19.36c.104.197.35.504.547.681.476.428.91.57 1.614.53.873-.051 1.517-.493 1.924-1.32.152-.309.158-.395.158-2.153V26l-.244-.452c-.551-1.017-1.733-1.465-2.791-1.057zm-11.993.13c-.28.28-.28.623 0 .937l.205.23 1.066.024c.908.02 1.06.04 1.026.129-.022.057-.47 1.085-.995 2.283-1.048 2.39-1.058 2.433-.653 2.774.27.227.621.235.862.02.116-.104.596-1.116 1.381-2.906.662-1.51 1.22-2.83 1.241-2.93.044-.217-.13-.591-.324-.695-.082-.044-.815-.073-1.87-.073H8.399l-.206.206zm13.358 1.373l.263.24.023 1.432c.014.922-.006 1.527-.057 1.7-.1.337-.414.541-.835.542-.255 0-.346-.04-.545-.24l-.24-.239v-1.525c0-1.667.035-1.84.406-2.041.343-.186.69-.14.985.13zm3.318 1.02l-.205.207v5.637l.158.184a.685.685 0 00.447.224c.251.033.32.01.528-.175l.239-.213.023-.854c.024-.842.026-.853.176-.799.084.031.406.056.715.056.475 0 .627-.03.966-.198.442-.217.812-.602 1.057-1.1.223-.452.225-1.372.004-1.852-.473-1.03-1.723-1.573-2.785-1.21-.298.101-.341.101-.486 0-.257-.181-.6-.142-.837.094zm2.466 1.319c.731.432.43 1.575-.416 1.575-.653 0-1.048-.677-.742-1.27.202-.39.763-.538 1.158-.305z" fill="url(#paint0_linear_1710_4671)"/><defs><linearGradient id="paint0_linear_1710_4671" x1="0" y1="0" x2="36.72" y2="36.9" gradientUnits="userSpaceOnUse"><stop stop-color="#0ABD92"/><stop offset="1" stop-color="#009DB8"/></linearGradient></defs></svg>