<svg width="33" height="42" fill="none" xmlns="http://www.w3.org/2000/svg"><path fill-rule="evenodd" clip-rule="evenodd" d="M2.79.404c-.67.161-1.18.451-1.7.965-.528.522-.847 1.098-.994 1.79-.128.603-.128 34.665 0 35.267.292 1.376 1.414 2.489 2.801 2.778.56.116 26.368.127 26.985.011 1.013-.19 2.105-1.02 2.533-1.924.387-.817.395-.987.37-7.567l-.025-6.166-.196-.34c-.241-.417-.507-.6-1.742-1.201l-.97-.471v-3.754l.82-.054c.928-.061 1.307-.207 1.708-.66.137-.155.288-.419.335-.585.048-.172.085-1.132.085-2.229 0-1.917 0-1.928-.21-2.346-.117-.232-.304-.482-.415-.557-.112-.074-.989-.55-1.948-1.056-1.243-.656-1.774-.979-1.846-1.122-.07-.138-.102-.656-.103-1.689 0-1.39-.012-1.499-.163-1.635-.223-.2-.614-.186-.832.03-.17.17-.177.235-.177 1.795 0 1.805.045 2.038.48 2.47.156.154.999.647 1.957 1.145.925.48 1.764.946 1.864 1.034.178.159.182.195.182 1.98 0 2.288.068 2.16-1.189 2.233-.815.048-.92.072-1.194.28-.56.423-.602.624-.604 2.871-.002 2.643-.042 2.564 1.739 3.444.58.287 1.099.575 1.153.64.076.091.094 1.52.077 6.314-.022 6.107-.025 6.2-.193 6.56a2.38 2.38 0 01-1.148 1.173l-.459.224H3.035l-.46-.224a2.38 2.38 0 01-1.147-1.173l-.17-.365V3.296l.225-.455a2.382 2.382 0 011.184-1.139c.368-.168.377-.168 11.353-.19 12.319-.023 11.486-.061 12.2.562.2.174.463.484.584.689.21.354.223.437.261 1.665.036 1.125.06 1.315.195 1.462.203.223.638.224.862.002.16-.159.167-.237.141-1.542l-.026-1.375-.291-.6c-.331-.682-.902-1.297-1.51-1.625C25.55.272 26.104.292 14.145.3 5.802.304 3.1.33 2.789.403zm1.616 3.013c-.3.09-.588.347-.69.612-.041.11-.075 1.402-.075 2.88 0 2.907.007 2.958.453 3.306.201.157.315.168 1.787.168h1.572l.268-.265c.19-.189.282-.369.32-.621.029-.196.041-1.492.027-2.882-.022-2.252-.04-2.55-.168-2.741-.3-.454-.459-.497-1.913-.514-.735-.01-1.447.017-1.581.057zm5.717-.007c-.32.08-.48.206-.631.496-.094.18-.116.744-.116 2.993 0 3.041.011 3.12.482 3.362.343.176 3.054.176 3.398 0 .47-.241.482-.32.481-3.378 0-3.688.112-3.493-2.019-3.521-.733-.01-1.45.012-1.595.048zm5.684.005c-.33.103-.603.383-.696.715-.107.383-.105 5.163.003 5.547.045.162.193.387.328.5.246.205.25.206 1.805.206 1.457 0 1.571-.011 1.772-.168.447-.348.454-.397.454-3.32 0-3.662.091-3.508-2.1-3.535-.734-.01-1.438.015-1.566.055zm5.648.037c-.366.133-.585.377-.652.724-.026.133-.035 1.46-.022 2.95l.024 2.708.302.274.302.275h1.515c1.359-.001 1.543-.017 1.774-.157.471-.285.47-.27.47-3.33 0-3.08.004-3.05-.503-3.38-.3-.195-2.72-.244-3.21-.064zM6.853 6.879l.021 2.302H4.852V6.912c0-1.247.026-2.294.057-2.324.03-.031.476-.046.99-.034l.932.023.022 2.302zm5.673-.02v2.322h-1.939V4.537h1.939v2.322zm5.716.02l.021 2.302h-2.021V6.912c0-1.247.025-2.294.056-2.324.03-.031.476-.046.99-.034l.933.023.021 2.302zm5.735 0l.021 2.302h-2.021V4.532l.99.022.989.023.021 2.302zM5.437 25.607c-.411.201-.8.643-.909 1.032-.043.154-.079 1.078-.08 2.053 0 1.604.015 1.79.15 1.955.215.264.628.247.873-.035.186-.214.19-.25.19-1.936 0-1.61.01-1.727.16-1.877.16-.159.27-.16 10.582-.16 10.312 0 10.422.001 10.582.16.157.156.161.267.161 4.836 0 4.484-.006 4.683-.154 4.865l-.155.189H5.97l-.154-.19c-.142-.172-.155-.334-.155-1.89 0-1.601-.01-1.715-.167-1.913a.612.612 0 00-.883-.051c-.152.15-.162.266-.162 2.004 0 2.007.037 2.216.47 2.668.119.125.362.305.54.4l.323.173h21.244l.323-.173c.178-.095.421-.275.541-.4.478-.5.469-.386.469-5.602 0-3.348-.028-4.869-.092-5.083-.127-.418-.486-.827-.903-1.027-.348-.167-.361-.168-10.965-.167H5.78l-.345.169z" fill="url(#paint0_linear_1710_4703)"/><defs><linearGradient id="paint0_linear_1710_4703" x1="0" y1=".297" x2="40.844" y2="33.132" gradientUnits="userSpaceOnUse"><stop stop-color="#0ABD92"/><stop offset="1" stop-color="#009DB8"/></linearGradient></defs></svg>