<svg width="41" height="35" fill="none" xmlns="http://www.w3.org/2000/svg"><path fill-rule="evenodd" clip-rule="evenodd" d="M3.64.201l-.197.197v5.709h1.361V1.369H9.53V.004H3.836L3.64.2zm16.14 2.533c0 1.502-.032 2.73-.07 2.73-.037 0-.532.038-1.1.083a23.933 23.933 0 00-11.476 3.97c-1.359.905-2.168 1.567-3.44 2.81C1.964 14.02 0 16.567 0 17.117c0 .188.515 1.027 1.206 1.965.996 1.352 2.9 3.326 4.24 4.398 1.706 1.364 4.21 2.81 6.272 3.622 2.228.877 4.57 1.384 7.44 1.614l.621.05v5.446h1.441v-2.73c0-1.501.032-2.73.07-2.73.422 0 2.345-.2 3.105-.322 1.332-.214 3.225-.71 4.473-1.17 2.169-.801 4.86-2.32 6.687-3.774 1.155-.919 3.24-3.085 4.133-4.29C40.694 17.834 41 17.346 41 17.099c0-.188-.515-1.026-1.206-1.964-.996-1.353-2.902-3.33-4.24-4.398a24.238 24.238 0 00-11.33-4.983c-.632-.097-2.577-.29-2.935-.29-.038 0-.068-1.228-.068-2.73V.004H19.78v2.73zM31.47.686v.683h4.725v4.738h1.361V.398L37.36.201l-.197-.197h-5.692v.682zM19.78 8.917v2.008h1.44V6.91h.288c.529 0 1.906.329 2.728.65 3.259 1.278 5.654 4.18 6.314 7.648.066.346.12.753.12.903v.274h-4.004v1.446h4.027l-.051.552c-.068.73-.379 1.91-.712 2.702a10.28 10.28 0 01-7.535 6.101c-.345.067-.75.12-.901.12h-.273v-4.015H19.78v4.016h-.274c-.15 0-.556-.054-.9-.12-3.498-.67-6.379-3.088-7.668-6.435-.29-.751-.608-2.131-.608-2.633v-.288h4.004v-1.446H10.33v-.288c0-.159.074-.653.165-1.099.686-3.378 3.101-6.212 6.374-7.48.781-.302 2.022-.593 2.57-.602l.34-.006v2.007zm-7.303-.18a11.37 11.37 0 00-3.19 5.451 12.778 12.778 0 00-.297 1.535l-.061.622-2.743.021-2.743.022v1.44l2.743.022 2.743.021.061.623c.034.342.167 1.032.296 1.534.544 2.113 1.608 3.93 3.204 5.464.409.393.676.688.593.654a22.42 22.42 0 00-.55-.205c-1.963-.71-4.094-1.903-6.007-3.363-1.481-1.131-3.59-3.36-4.662-4.928l-.37-.542.37-.542C2.935 15 5.044 12.77 6.526 11.64c1.716-1.31 3.667-2.436 5.406-3.121a53.81 53.81 0 001-.402c.315-.139.266-.073-.455.62zm16.334-.333c1.935.763 4.023 1.963 5.783 3.325 1.429 1.106 3.496 3.307 4.542 4.836l.37.542-.384.558c-1.072 1.56-3.08 3.696-4.528 4.82-1.732 1.345-4.16 2.738-5.846 3.354-.374.137-.742.273-.817.303-.075.03.22-.296.654-.724 1.608-1.584 2.625-3.361 3.165-5.532.112-.446.23-1.081.262-1.413l.06-.602 2.742-.021 2.743-.021v-1.441l-2.743-.022-2.743-.02-.06-.603c-.032-.331-.15-.967-.26-1.413-.54-2.167-1.559-3.948-3.159-5.525-.43-.424-.768-.77-.75-.77.017 0 .453.165.969.369zm-9.091 3.97c-1.16.207-2.325.923-3.024 1.857-2.026 2.708-.724 6.52 2.563 7.504.76.227 1.917.193 2.72-.082 2-.686 3.277-2.457 3.277-4.545a4.75 4.75 0 00-4.492-4.771 5.474 5.474 0 00-1.044.037zm1.95 1.533c.887.331 1.524.922 1.914 1.777.945 2.069-.334 4.437-2.593 4.801-1.805.292-3.56-1.02-3.859-2.885-.228-1.419.58-2.942 1.884-3.554.885-.415 1.787-.462 2.654-.139zM3.442 30.964v2.854l.197.197.196.197H9.53v-1.365H4.805V28.11H3.444v2.854zm32.752-.485v2.368H31.47v1.365h5.692l.197-.197.197-.197V28.11h-1.36v2.369z" fill="url(#paint0_linear_1710_4684)"/><defs><linearGradient id="paint0_linear_1710_4684" x1="0" y1=".004" x2="34.298" y2="41.313" gradientUnits="userSpaceOnUse"><stop stop-color="#0ABD92"/><stop offset="1" stop-color="#009DB8"/></linearGradient></defs></svg>