<svg width="41" height="42" fill="none" xmlns="http://www.w3.org/2000/svg"><path fill-rule="evenodd" clip-rule="evenodd" d="M5.266.454c-.243.21-1.594 2.913-1.728 3.454-.248 1.003.089 2.188.854 3.006l.41.44-1.166 2.021C2.994 10.487 2.47 11.48 2.47 11.58c0 .35.508.71 3.181 2.248 1.479.851 2.702 1.56 2.72 1.573.03.026-1.672 6.414-1.724 6.466-.016.016-1.396.394-3.066.84-1.67.447-3.126.87-3.236.94-.604.386-.365 1.292.342 1.292.152 0 1.323-.283 2.603-.628 1.279-.345 2.334-.627 2.343-.627.01 0 .024.264.03.588.014.613.205 1.25.504 1.68.097.138.16.268.14.288-.02.02-1.325.384-2.9.81-1.575.424-2.952.829-3.062.898-.601.383-.365 1.292.336 1.292.15 0 1.855-.423 3.789-.94 3.234-.863 3.545-.93 3.872-.84.89.246 2.235-.168 2.99-.92.752-.749 1.152-2.049.918-2.98-.096-.378-.062-.554.53-2.761l.649-2.42c.01-.036 1.691.902 3.736 2.084 2.045 1.18 3.791 2.17 3.882 2.2.386.122.673-.14 1.248-1.139.309-.535.581-.97.606-.966.024.004.37.376.768.827.757.859 1.037 1.008 1.46.782.097-.052.622-.868 1.166-1.813l.99-1.718.651-.165c1.334-.34 2.518-1.086 3.236-2.041.463-.616.54-1.008.264-1.333-.27-.318-25.456-14.8-25.738-14.8a.763.763 0 00-.431.157zm25.918.78c-.286.285-.29.703-.012.982.173.172.343.219 1.008.274 1.116.093 2.006.335 2.972.811 2.542 1.251 4.13 3.625 4.372 6.533.055.665.101.835.274 1.008.28.278.696.273.982-.012.188-.188.22-.304.22-.795 0-1.345-.485-3.052-1.246-4.381-1.566-2.738-4.754-4.64-7.775-4.64-.491 0-.607.032-.795.22zM18.032 8.972l11.755 6.782-.285.297c-.387.402-1.396.885-2.212 1.057a5.174 5.174 0 01-2.667-.171C24.064 16.741 6.333 6.59 5.627 6.061c-.417-.313-.674-.866-.674-1.453 0-.414.076-.634.521-1.506.4-.783.554-1.008.663-.966.077.03 5.43 3.105 11.895 6.836zm13.152-4.87c-.285.284-.29.702-.013.98.162.161.351.22.873.271 2.518.247 4.37 2.1 4.616 4.616.076.775.29 1.08.756 1.08.452 0 .717-.34.717-.92 0-1.985-1.176-4.076-2.924-5.2-1.06-.68-2.226-1.048-3.325-1.048-.39 0-.521.041-.7.22zm.012 2.855c-.514.513-.181 1.15.66 1.26 1.101.147 1.794.84 1.94 1.94.111.842.747 1.175 1.26.661.215-.214.229-.276.189-.837-.118-1.647-1.558-3.094-3.197-3.211-.578-.041-.637-.028-.852.187zM14.31 12.825c4.503 2.603 8.255 4.77 8.338 4.817.133.074.042.272-.727 1.59-.484.83-.918 1.545-.964 1.592-.053.053-3.147-1.685-8.323-4.676-4.53-2.618-8.273-4.793-8.316-4.833-.063-.058 1.686-3.222 1.78-3.222.015 0 3.71 2.13 8.212 4.732zm-3.274 4.122l1.085.636-.52 1.94c-.285 1.067-.532 1.954-.549 1.97-.016.017-.29-.099-.606-.256-.467-.231-.71-.292-1.278-.318-.6-.027-.695-.053-.657-.18.024-.08.289-1.074.588-2.207.684-2.59.623-2.4.748-2.303.058.045.593.368 1.19.718zm13.884 1.61l.632.154-.46.786-.46.785-.48-.55-.478-.551.208-.392c.114-.216.252-.39.307-.388.055.002.384.073.731.157zM9.557 22.443a1.91 1.91 0 011.077.903c.274.539.215 1.444-.125 1.888-.416.546-.752.729-1.407.764-.483.025-.654-.007-.987-.185-.468-.25-.887-.854-.958-1.381-.176-1.315 1.145-2.41 2.4-1.99zm18.809 2.639c-.173.02-.751.078-1.286.13-1.167.112-2.193.316-2.708.537-.337.144-.487.327-1.383 1.692l-1.005 1.53h-.87c-.795 0-.888.019-1.066.208-.267.284-.261.775.012 1.032.114.107.259.194.32.194.063 0-.008.103-.157.229-.15.125-.377.443-.506.707l-.234.479.028 2.232.028 2.233.336.68c.33.667.336.697.336 1.722 0 1.428.225 1.93 1.03 2.302.49.225 3.09.247 3.61.03.777-.324 1.09-.895 1.093-1.989l.002-.74h8.602v.81c0 1.097.222 1.54.96 1.913.232.118.59.145 1.907.145 1.414 0 1.663-.021 1.953-.17.75-.383.915-.78.915-2.21 0-1.13.001-1.137.336-1.814l.336-.68.029-2.194c.032-2.528-.005-2.717-.659-3.319-.231-.214-.34-.366-.26-.366.24 0 .577-.418.577-.716a.722.722 0 00-.22-.497c-.204-.204-.285-.22-1.108-.22h-.888l-.939-1.501c-.835-1.337-.98-1.523-1.333-1.698-.435-.216-1.39-.423-2.636-.57-.827-.098-4.59-.186-5.152-.122zm5.016 1.609c.617.076 1.341.187 1.61.247l.488.11.649 1.028c.472.75.617 1.047.533 1.094-.249.14-2.263.342-4.384.44a40.827 40.827 0 01-4.39 0c-1.895-.09-3.81-.28-4.162-.413-.077-.028.122-.397.6-1.11l.714-1.066.79-.144c.721-.131 1.887-.27 3.028-.36.821-.064 3.388.034 4.524.174zm-9.497 4.026c1.383.247 2.434.325 5.108.377 3.427.068 6.866-.149 8.28-.521.322-.085.363-.074.537.141.103.129.51.444.905.702.753.492.983.817.795 1.122-.144.234-.894.617-1.736.886-.927.296-1.165.483-1.165.912 0 .414.292.729.677.729.303 0 1.494-.361 1.925-.584a1.58 1.58 0 01.306-.133c.027 0 .05.276.05.613 0 .726-.18 1.387-.459 1.683l-.2.213H21.587l-.2-.213c-.28-.297-.459-.958-.459-1.693 0-.56.016-.615.157-.552.525.234 1.903.663 2.135.664.358.002.695-.346.695-.72 0-.397-.324-.658-1.103-.889-.704-.209-1.462-.555-1.727-.788-.267-.235-.192-.548.23-.95 1.005-.959 1.357-1.22 1.585-1.177l.985.178zm2.281 3.493a.722.722 0 00-.22.496.72.72 0 00.22.497l.22.22h7.722l.22-.22a.722.722 0 00.22-.496.722.722 0 00-.22-.497l-.22-.22h-7.722l-.22.22zm-1.654 4.657c0 .837-.034.858-1.433.858s-1.434-.021-1.434-.858v-.576h2.867v.576zm14.319.118l-.026.695h-2.778L36 38.984l-.026-.694h2.882l-.026.694z" fill="url(#paint0_linear_1710_4708)"/><defs><linearGradient id="paint0_linear_1710_4708" x1="0" y1=".297" x2="41.689" y2="42.321" gradientUnits="userSpaceOnUse"><stop stop-color="#0ABD92"/><stop offset="1" stop-color="#009DB8"/></linearGradient></defs></svg>