<svg width="46" height="46" fill="none" xmlns="http://www.w3.org/2000/svg"><path fill-rule="evenodd" clip-rule="evenodd" d="M3.254.148C1.684.57.407 1.899.085 3.445c-.068.33-.09 3.57-.074 10.758l.025 10.284.212.404c.117.222.312.536.432.696l.22.292-.22.292a6.34 6.34 0 00-.432.696l-.212.404-.027 4.165c-.03 4.576-.014 4.758.486 5.755.51 1.017 1.781 2.025 2.795 2.215l.285.054.03 1.018c.025.86.059 1.057.215 1.266.353.471.633.61 1.302.648l.627.035v1.566c0 1.543.004 1.57.221 1.786a.678.678 0 00.998 0c.218-.217.221-.243.221-1.786v-1.566l.627-.035c.67-.038.95-.177 1.302-.648.155-.207.19-.408.216-1.23l.03-.981h5.728l.03.981c.026.822.06 1.023.216 1.23.353.471.632.61 1.302.648l.627.035v1.566c0 1.543.003 1.57.22 1.786a.678.678 0 00.999 0c.217-.217.22-.243.22-1.786v-1.566l.628-.035c.67-.038.949-.177 1.302-.648.156-.209.19-.407.215-1.266l.03-1.018.285-.053c1.025-.193 2.282-1.19 2.8-2.223.495-.99.51-1.177.481-5.748l-.026-4.165-.213-.404a6.284 6.284 0 00-.432-.696l-.22-.292.22-.292c.12-.16.315-.474.432-.696l.213-.404.025-6.985.025-6.986-.224-.223a.704.704 0 00-.964-.051l-.212.171-.045 6.918c-.044 6.812-.048 6.922-.23 7.166-.299.399-.596.573-1.117.655-.55.087-.813.322-.813.727 0 .405.263.64.813.727.521.082.818.257 1.116.655.181.243.186.346.186 4.486v4.237l-.243.46c-.359.679-.63.959-1.26 1.3l-.567.306H3.545l-.567-.306c-.63-.341-.901-.621-1.26-1.3l-.243-.46v-4.237c0-4.14.005-4.243.186-4.486.298-.398.595-.572 1.116-.655.55-.087.813-.322.813-.727 0-.405-.263-.64-.813-.727-.521-.082-.818-.257-1.116-.655-.185-.247-.186-.285-.186-10.594V3.558l.223-.45c.123-.247.386-.611.585-.81.2-.199.565-.462.812-.584l.45-.222H20.91l.46.242c.682.359.961.63 1.3 1.258l.305.566.047 1.647c.046 1.596.054 1.653.26 1.819a.704.704 0 00.962-.049c.216-.216.22-.25.22-1.688 0-1.028-.04-1.625-.137-1.995A4.389 4.389 0 0021.164.144c-.747-.195-17.187-.19-17.91.004zM3.81 5.26l-.221.22v12.054l.22.22a.678.678 0 00.999 0l.22-.22V5.48l-.22-.22a.726.726 0 00-.5-.221.726.726 0 00-.498.22zm19.436 2.875c-.447.445-.13 1.216.499 1.216.37 0 .72-.349.72-.718 0-.37-.35-.719-.72-.719a.726.726 0 00-.5.22zm11.709 2.028c-1.377.217-2.959.838-4.097 1.61-.74.502-1.706 1.42-2.262 2.151-.629.825-1.385 2.395-1.671 3.467-.214.8-.24 1.06-.24 2.38 0 1.314.027 1.582.235 2.36.397 1.486 1.208 3.012 2.163 4.071l.412.458.027 2.388c.025 2.249.037 2.402.212 2.635.353.472.632.61 1.302.648l.627.036v11.036l.22.22a.678.678 0 00.999 0l.22-.22V32.367l.628-.035c.67-.038.949-.177 1.302-.648.156-.209.19-.407.215-1.253l.03-1.004h2.13l.03 1.005c.025.845.06 1.043.215 1.252.353.47.633.61 1.302.647l.627.036v13.192l.221.22c.14.14.324.221.5.221a.725.725 0 00.498-.22l.221-.221V32.367l.627-.035c.67-.038.95-.177 1.302-.649.175-.233.187-.386.212-2.635l.027-2.388.413-.458c.954-1.06 1.765-2.585 2.162-4.07.208-.779.235-1.047.235-2.361 0-1.32-.026-1.58-.24-2.38-.286-1.072-1.043-2.642-1.67-3.467-1.3-1.705-3.276-3.013-5.363-3.546-1.011-.258-2.835-.362-3.771-.215zm2.831 1.485c.41.078 1.057.255 1.44.394 3.326 1.212 5.556 4.573 5.365 8.088-.111 2.048-.804 3.682-2.276 5.367l-.574.657v4.755h-2.88v-1.306c0-1.283-.004-1.311-.23-1.537-.22-.22-.258-.227-.833-.153-.77.099-2.142.099-2.913 0-.575-.074-.611-.067-.832.153-.226.226-.23.254-.23 1.537v1.306h-2.88v-2.36c0-2.578.031-2.414-.584-3.074-3.556-3.815-2.859-9.771 1.477-12.605 1.764-1.154 3.945-1.602 5.95-1.222zm-2.389 1.36c-1.892.262-3.683 1.389-4.726 2.975-.272.413-.448.781-.448.936 0 .48.555.823 1.034.64.082-.032.31-.312.506-.623.452-.714 1.318-1.525 2.034-1.905.652-.347 1.764-.65 2.383-.65.538 0 .882-.28.882-.718a.723.723 0 00-.221-.498c-.184-.184-.301-.218-.697-.207-.263.007-.598.03-.747.05zm-5.673 5.906c-.446.445-.13 1.216.5 1.216.37 0 .72-.349.72-.718 0-.37-.35-.719-.72-.719a.726.726 0 00-.5.22zm-25.914.718a.723.723 0 00-.221.498c0 .175.082.36.22.498.447.446 1.22.13 1.22-.498 0-.369-.35-.718-.72-.718a.725.725 0 00-.5.22zm4.098 20.62v.718h-2.88v-1.437h2.88v.718zm11.518 0v.718h-2.88v-1.437h2.88v.718zm12.458 4.531a.723.723 0 00-.221.498c0 .175.082.36.22.498.14.14.325.221.5.221s.36-.081.499-.22a.724.724 0 00.22-.499.724.724 0 00-.22-.498.726.726 0 00-.5-.22.726.726 0 00-.498.22z" fill="url(#paint0_linear_1734_3878)"/><defs><linearGradient id="paint0_linear_1734_3878" x1="0" y1="0" x2="46.92" y2="47.15" gradientUnits="userSpaceOnUse"><stop stop-color="#0ABD92"/><stop offset="1" stop-color="#009DB8"/></linearGradient></defs></svg>