<svg width="31" height="41" fill="none" xmlns="http://www.w3.org/2000/svg"><path fill-rule="evenodd" clip-rule="evenodd" d="M3.57.186c-.116.106-.599.954-1.072 1.884-.968 1.9-1.02 2.109-.622 2.5l.238.234h1.107c.61 0 1.108.016 1.108.036 0 .02-.239.511-.53 1.092-.316.63-.53 1.158-.529 1.307.005.64.854 1.01 1.328.579.116-.106.598-.954 1.072-1.883.968-1.902 1.02-2.11.622-2.5L6.053 3.2H4.946c-.609 0-1.107-.016-1.107-.036 0-.02.239-.511.53-1.092.316-.63.53-1.158.529-1.307-.005-.64-.854-1.01-1.328-.579zm22.832 0c-.116.106-.598.954-1.072 1.884-.967 1.9-1.02 2.109-.622 2.5l.239.234h1.107c.609 0 1.107.016 1.107.036 0 .02-.239.511-.53 1.092-.316.63-.53 1.158-.529 1.307.005.64.854 1.01 1.328.579.116-.106.599-.954 1.072-1.883.968-1.902 1.02-2.11.622-2.5l-.238-.235h-1.107c-.61 0-1.107-.016-1.107-.036 0-.02.238-.511.53-1.092.315-.63.529-1.158.528-1.307-.005-.64-.854-1.01-1.328-.579zM.254 9.864l-.254.25.03 8.789c.03 8.518.036 8.813.2 9.59.705 3.346 2.012 5.775 4.338 8.062 2.365 2.325 5.023 3.684 8.404 4.297 1.092.198 3.964.198 5.056 0 3.38-.613 6.039-1.972 8.404-4.297 2.326-2.287 3.633-4.716 4.339-8.062.163-.777.17-1.072.199-9.59l.03-8.79-.254-.25-.255-.25H21.71l-.248.245-.248.243-.026 8.315-.025 8.314-.187.6a5.725 5.725 0 01-3.97 3.86c-.503.138-.853.177-1.547.173-1.593-.01-2.843-.52-3.962-1.62a5.502 5.502 0 01-1.457-2.371l-.206-.642-.024-8.314-.024-8.315-.248-.243-.248-.244H.51l-.255.25zm7.907 4.24v2.885H1.638v-5.772H8.16v2.886zm21.201 0v2.885H22.84v-5.772h6.523v2.886zm-21.18 8.758c.034 4.66.016 4.48.543 5.735.863 2.059 2.698 3.61 5.017 4.243.637.174 2.73.194 3.389.033 2.284-.56 4.237-2.178 5.127-4.246.544-1.262.526-1.085.56-5.765l.03-4.27h6.532l-.04 4.31c-.04 4.534-.058 4.786-.46 6.33-.854 3.288-3.149 6.358-6.06 8.108-2.331 1.401-4.602 2.032-7.319 2.032-2.717 0-4.988-.63-7.319-2.032-1.65-.993-3.41-2.721-4.412-4.337-.761-1.227-1.318-2.502-1.648-3.77-.401-1.545-.42-1.797-.46-6.331l-.04-4.31h6.53l.03 4.27zm-4.663 2.39c-.35.345-.35.767 0 1.11.194.19.323.247.565.247a.82.82 0 00.815-.801.82.82 0 00-.815-.802c-.242 0-.371.057-.565.247zm.891 2.944c-.337.05-.652.405-.652.733 0 .67.814 2.483 1.644 3.665.879 1.249 2.497 2.826 3.037 2.96.32.078.773-.165.911-.491.194-.456.054-.734-.666-1.32-.701-.57-1.396-1.337-1.974-2.18-.493-.718-.799-1.313-1.194-2.324-.167-.427-.348-.813-.402-.857a1.051 1.051 0 00-.704-.186z" fill="url(#paint0_linear_1713_6953)"/><defs><linearGradient id="paint0_linear_1713_6953" x1="0" y1="0" x2="40.291" y2="30.613" gradientUnits="userSpaceOnUse"><stop stop-color="#0ABD92"/><stop offset="1" stop-color="#009DB8"/></linearGradient></defs></svg>