<svg width="38" height="39" fill="none" xmlns="http://www.w3.org/2000/svg"><path d="M4.947 7.74h0C1.198 12.112-.316 18.142.925 23.752l-.488.108.488-.108c.165.743.384 1.49.653 2.23l-.254-.98-.08-.31h0l-.167-.641h0c-.41-1.57-.59-4.347-.405-6.131h0c.361-3.495 1.794-6.991 3.975-9.698h0c.17-.212.318-.385.47-.505a1.04 1.04 0 01.554-.23h0c.62-.072 2.134-.058 3.163.022m-3.887.231l20.922 5.763M4.947 7.74c.145-.169.293-.335.443-.498l1.224.044.51.019h0c5.002.18 9.273 1.267 13.597 3.46a33.869 33.869 0 014.284 2.55l.288-.408M4.947 7.74l16 2.579M8.834 7.509l-.039.498m.039-.498l-.039.498m.039-.498c1.525.118 3.452.429 4.963.8l-.12.486.12-.486c.744.183 1.742.48 2.541.74.4.13.757.254 1.012.353.124.048.238.095.323.138a.871.871 0 01.155.097h0a.51.51 0 01.043.777h0a.595.595 0 01-.077.061h-.001l-.041.027a19.162 19.162 0 01-.38.215 54.05 54.05 0 01-.873.47h0c-6.344 3.36-11.125 7.885-13.752 12.96h0l-.495.959-.582 1.123c.76 2.005 1.876 3.938 3.21 5.52 3.462 4.108 8.704 6.536 14.116 6.536 4.175 0 8.337-1.469 11.62-4.103 3.7-2.969 6.203-7.519 6.762-12.303.706-6.038-1.695-12.156-6.344-16.15-2.222-1.91-5.178-3.383-8.069-4.023l.108-.488-.108.488c-1.877-.416-4.282-.535-6.165-.307-4.222.512-8.226 2.524-11.167 5.586l.674-.578.667-.572h0c2.931-2.514 6.222-3.92 10.275-4.401h0c.353-.042 1.14-.05 1.912-.036.778.013 1.605.048 2.05.1h0c.068.009.134.016.198.023.165.019.315.036.435.057.185.033.37.086.55.21.168.117.296.273.416.438.085.117.184.265.302.441l.153.227-.414.28.414-.28c.939 1.388 1.921 3.598 2.57 5.75l-.478.145.478-.145c.225.745.5 1.9.71 2.893.103.498.192.961.25 1.318.029.177.051.335.063.46.006.062.01.124.01.181v.002c0 .036.002.145-.04.252M8.796 8.007c-1.017-.079-2.494-.09-3.066-.023l3.066.023zM26.83 13.75l-.468-.176.468.176s0 0 0 0zm0 0a.504.504 0 01-.51.326.57.57 0 01-.151-.033 1.014 1.014 0 01-.131-.058 4.301 4.301 0 01-.265-.156 17.933 17.933 0 01-.767-.513l.288-.41m0 0c.202.143.392.272.555.378a3.704 3.704 0 01.02.217v.002m-.575-.596a34.385 34.385 0 00-4.346-2.588m4.922 3.184a.083.083 0 000 0zm-4.922-3.184C16.621 8.126 12.343 7.02 7.37 6.814l-.234.2h0l-.177.152-.326-.38.018-.5.51.02s0 0 0 0h.032l.108-.092 13.647 4.105zm-3.934.025c-.212.115-.472.255-.748.402l.748-.402zm0 0a2.742 2.742 0 01.222.096s-.013-.008-.033-.024h0c-.01-.008-.06-.047-.103-.12m-.086.048l.086-.047m0 0c.247-.136.41-.23.428-.246.009-.008-.006-.024-.042-.044l-.302-.319a.444.444 0 01.042-.035h0a.244.244 0 01.012-.008l-.008.005a14.573 14.573 0 01-.255.145l.125.502zm7.84-7.945h0c4.516 1.544 8.33 4.862 10.466 9.107h0c.275.547.59 1.219.7 1.495h0l.183.463.084.214-.107.203-.19.361s0 0 0 0c-.299.567-1.665 2.604-2.236 3.341l-.396-.306.396.306a36.725 36.725 0 01-3.279 3.668c-.517.508-1.15 1.1-1.658 1.557-.254.228-.48.427-.647.566a4.477 4.477 0 01-.216.172.887.887 0 01-.108.07.511.511 0 01-.34.062.503.503 0 01-.36-.253M24.939 2.352l2.73 20.784m-2.73-20.784a78.169 78.169 0 00-.957-.318 1.036 1.036 0 00-.091-.022.531.531 0 00-.384.092.52.52 0 00-.217.384.6.6 0 00.026.216c.013.043.03.082.044.111.05.106.143.257.265.449 1.888 2.98 3.156 7.347 3.59 12.516h0c.094 1.117.099 5.336.007 6.515M24.94 2.352l2.782 19.982m-.49 1.044l.438-.242m-.438.242s0 0 0 0l.438-.242m-.438.242a.5.5 0 01-.052-.139h0a.471.471 0 01-.005-.028l-.003-.023a.544.544 0 01-.003-.08l.002-.064.011-.183c.01-.148.024-.348.041-.566m.447.841a8.209 8.209 0 01.029-.497.487.487 0 00-.247.053h0l-.014.008.013-.009a9.991 9.991 0 00.26-.212l.01-.145m-.498-.039s0 0 0 0l.499.04m-.499-.04l.499.04m9.18-6.888h0c.386 1.594.527 3.105.47 4.975-.084 2.761-.633 4.957-1.868 7.472-.626 1.275-.975 1.854-1.764 2.923l-.478.648-.15.203h-.655c-.629 0-2.81-.22-4.03-.4a44.067 44.067 0 01-4.016-.8h0a54.427 54.427 0 01-2.36-.67 42.719 42.719 0 01-1.053-.335 8.639 8.639 0 01-.337-.12 1.723 1.723 0 01-.125-.052.539.539 0 01-.178-.129h0a.505.505 0 01-.132-.354s0 0 0 0l.5.012L36.9 15.447zm0 0a4.485 4.485 0 00-.09-.318 1.925 1.925 0 00-.08-.204h0a.512.512 0 00-.648-.259.588.588 0 00-.169.102 1.088 1.088 0 00-.14.147c-.077.095-.162.22-.244.355-.419.694-1.285 1.905-2.053 2.865l.39.312 3.034-3zM12.666 25.559c1.215.819 3.49 2.046 5.179 2.788l-.201.458m-4.978-3.246l4.978 3.246m-4.978-3.246a12.532 12.532 0 00-.464-.298 1.138 1.138 0 00-.11-.054.51.51 0 00-.585.16.518.518 0 00-.11.334 1.23 1.23 0 00.01.165c.012.104.035.243.065.403.059.323.152.766.26 1.256.219.98.508 2.167.742 2.994l.481-.136-.48.136c.615 2.175 1.6 4.808 2.402 6.406l.447-.225-2.658-11.141zm4.978 3.246l.201-.458c3.805 1.674 8.689 2.919 12.863 3.28 0 0 0 0 0 0l-.043.498-13.021-3.32zm8.25-15.408a.524.524 0 01.029-.064l-.03.065h0zM17.182 9.69l.302.317a3.31 3.31 0 00-.407-.173.493.493 0 01.105-.144zm10.883 13.143a.497.497 0 01.091.2h0a.476.476 0 01.01.083v.011l.002-.034a10.105 10.105 0 01.024-.37l-.127.11zm-.996-7.674l-.02-.22-.175-.133-.706-.54c-1.634-1.251-3.434-2.37-5.446-3.387a84.288 84.288 0 00-1.373-.678 4.048 4.048 0 00-.159-.068.502.502 0 00-.207-.034h-.001c-.067.003-.12.02-.125.021h0a.598.598 0 00-.084.031 19.224 19.224 0 00-.38.178c-.232.114-.544.268-.882.437a40.443 40.443 0 00-5.487 3.284l-.99.703-.184.13-.024.226-.05.477c-.148 1.423-.027 5.192.232 7.48h0l.13 1.146.026.232.194.129 1.07.71.277-.417-.277.417a35.349 35.349 0 005.697 3.083s0 0 0 0l.857.366.195.083.196-.082.4-.17s0 0 0 0c1.684-.711 4.916-2.553 6.379-3.635l.653-.483.184-.137.017-.23.107-1.481c.113-1.562.123-5.558.014-6.777 0 0 0 0 0 0l-.058-.661zM10.815 22.05h0c-.069-.717-.15-2.337-.178-3.596l-.05-2.297-.025-1.082-.808.72-.628.559h0c-3.13 2.785-5.764 6.304-7.028 9.428 0 0 0 0 0 0l-.2.495-.08.196.086.194.266.604c1.731 3.93 4.874 7.167 8.797 9.067a26.93 26.93 0 002.642 1.072c.116.04.222.073.31.097.065.018.184.05.291.05a.503.503 0 00.498-.426.555.555 0 00.001-.164v-.001a.961.961 0 00-.03-.132 3.934 3.934 0 00-.09-.26 16.63 16.63 0 00-.312-.758l-.458.2.458-.2c-1.806-4.123-2.982-8.793-3.462-13.766z" stroke="url(#paint0_linear_677_2171)"/><defs><linearGradient id="paint0_linear_677_2171" x1="0" y1=".785" x2="38.76" y2="39.735" gradientUnits="userSpaceOnUse"><stop stop-color="#0ABD92"/><stop offset="1" stop-color="#009DB8"/></linearGradient></defs></svg>