<svg width="66" height="65" fill="none" xmlns="http://www.w3.org/2000/svg"><path fill-rule="evenodd" clip-rule="evenodd" d="M2.288.267C1.698.437.911 1.269.741 1.9.649 2.241.613 3.51.639 5.495l.04 3.068.34.513c.392.593.981.993 1.644 1.116l.464.086.042 1.55c.04 1.467.062 1.582.423 2.166.278.449.567.713 1.06.97.625.328.786.354 2.118.354h1.44v5.369c0 2.952.06 5.958.133 6.679.487 4.812 2.435 9.544 5.44 13.214.839 1.026 2.784 2.958 3.798 3.773 2.832 2.277 6.865 4.163 10.464 4.89 14.414 2.916 28.177-7.237 29.658-21.877.073-.721.133-3.727.133-6.68V15.32h1.441c1.332 0 1.493-.027 2.119-.354.492-.258.78-.522 1.058-.971.362-.584.384-.7.424-2.166l.041-1.55.465-.086a2.534 2.534 0 001.644-1.116l.34-.513V1.815l-.34-.514a3.243 3.243 0 00-.822-.814l-.484-.3L50.811.153C41.239.128 37.807.157 37.544.266c-.615.254-.875 1.029-.57 1.697.328.722-.234.693 13.387.693h12.54v5.065H3.146V2.656h12.54c13.621 0 13.059.03 13.388-.693.191-.42.191-.727 0-1.147-.33-.723.257-.693-13.61-.681-7.63.007-12.928.06-13.177.132zM32.405.3c-1.098.609-.638 2.356.619 2.356.641 0 1.266-.618 1.266-1.254 0-.95-1.05-1.564-1.885-1.102zM60.34 11.488l-.036 1.235H5.743l-.037-1.235-.036-1.234h54.708l-.037 1.234zm-5.038 9.18c-.002 2.943-.059 5.882-.127 6.532-.293 2.783-.992 5.146-2.277 7.698-1.018 2.022-2.08 3.56-3.57 5.168l-1.05 1.133-.072-4.488c-.077-4.782-.128-5.24-.816-7.29-1.683-5.016-6.044-8.866-11.329-10-1.343-.29-4.452-.324-5.76-.065-3.099.614-5.782 2.04-7.987 4.245-2.088 2.088-3.431 4.5-4.131 7.419-.225.938-.268 1.659-.337 5.622l-.078 4.546-1.013-1.072c-2.671-2.83-4.716-6.743-5.512-10.552-.425-2.035-.499-3.333-.5-8.832v-5.413h44.56l-.002 5.35zm-19.304 1.345c4.591 1.142 8.106 4.65 9.336 9.323.247.939.27 1.418.316 6.473l.05 5.46-.808.51c-2.295 1.45-5.19 2.581-7.914 3.093-1.195.225-1.958.28-3.892.284-2.527.004-3.486-.105-5.529-.627a22.948 22.948 0 01-6.404-2.75l-.806-.51.049-5.46c.046-5.064.069-5.533.317-6.473 1.15-4.348 4.196-7.632 8.388-9.043 2.049-.69 4.798-.801 6.897-.28zm-4.81 3.76c-.506.1-1.404.429-2.09.766-.996.491-1.389.78-2.291 1.682-.904.904-1.19 1.294-1.68 2.292-1.283 2.61-1.283 5.242 0 7.851.49.998.776 1.388 1.68 2.292.91.91 1.286 1.186 2.291 1.675 3.641 1.77 7.574 1.06 10.357-1.87 1.498-1.576 2.43-3.887 2.43-6.022 0-2.136-.932-4.446-2.43-6.023-2.203-2.32-5.138-3.258-8.268-2.643zm3.126 2.474c2.855.596 5.039 3.279 5.039 6.192 0 3.417-2.913 6.33-6.33 6.33-3.412 0-6.33-2.918-6.33-6.33 0-2.843 2.08-5.478 4.855-6.152a6.777 6.777 0 012.766-.04zm-2.515 2.62c-3.176 1.135-3.454 5.476-.445 6.954a3.878 3.878 0 003.338 0c1.358-.667 2.06-1.82 2.06-3.382 0-1.079-.263-1.8-.934-2.566-.908-1.034-2.692-1.48-4.019-1.006zm1.838 2.486c.855.442.83 1.804-.04 2.2-.65.297-1.358.083-1.66-.5-.594-1.149.551-2.294 1.7-1.7zm-1.233 19.116c-1.098.609-.638 2.356.619 2.356.641 0 1.266-.618 1.266-1.254 0-.95-1.05-1.564-1.885-1.102zm-3.483 3.563c-.523.272-.7.556-.705 1.127-.003.433.077.577.615 1.095 1.018.982 2.695 1.636 4.192 1.636 1.496 0 3.174-.654 4.192-1.636.523-.504.618-.67.618-1.067 0-.632-.307-1.064-.88-1.236-.538-.16-.7-.101-1.61.593-.61.467-1.6.814-2.32.814-.72 0-1.71-.347-2.32-.814-1.01-.77-1.19-.822-1.782-.512zm-3.905 3.798c-.379.378-.467.733-.321 1.295.247.954 3.305 2.892 5.48 3.473.813.218 1.373.27 2.848.27 1.475 0 2.035-.052 2.848-.27 2.167-.579 5.235-2.528 5.482-3.482.232-.893-.286-1.606-1.165-1.606-.437 0-.628.092-1.154.552-1.367 1.195-2.705 1.867-4.345 2.182-2.781.535-5.431-.219-7.677-2.182-.527-.46-.718-.552-1.154-.552-.39 0-.604.081-.843.32z" fill="url(#paint0_linear_1710_5850)"/><defs><linearGradient id="paint0_linear_1710_5850" x1=".631" y1=".131" x2="66.664" y2="66.487" gradientUnits="userSpaceOnUse"><stop stop-color="#0ABD92"/><stop offset="1" stop-color="#009DB8"/></linearGradient></defs></svg>