<svg width="68" height="64" fill="none" xmlns="http://www.w3.org/2000/svg"><path fill-rule="evenodd" clip-rule="evenodd" d="M51.298.82c-3.255.382-6.374 1.763-8.581 3.8-.865.797-1 1.263-.475 1.627.468.324.704.254 1.474-.438 1.565-1.406 3.68-2.543 5.764-3.099.973-.26 1.479-.306 3.366-.308 2.594-.004 3.674.22 5.744 1.187 1.433.67 2.168 1.148 3.3 2.146.87.767 1.087.838 1.559.512.528-.366.396-.88-.408-1.594C60.203 2.13 56.408.699 52.711.757c-.555.008-1.191.037-1.413.063zm-41.02 3.123c-.324.327-1.369 2.428-3.84 7.72-1.866 3.999-3.394 7.428-3.394 7.622 0 .545.345 1.228.752 1.492.204.133 1.042.55 1.862.927.923.424 1.475.752 1.45.86-.024.095-.563 1.284-1.2 2.643-1.347 2.876-1.491 3.553-.981 4.595.164.335.49.754.723.93.234.176 3.635 1.787 7.558 3.58l7.132 3.26.036 4.022c.035 3.98.032 4.027-.26 4.334l-.294.31H9.391l-.049-3.293c-.046-3.094-.068-3.342-.368-4.092-.442-1.102-1.661-2.304-2.767-2.728-1.091-.419-4.44-.56-4.98-.21l-.336.217v26.466l.335.217c.281.182.655.21 2.325.17 1.93-.047 2.016-.062 2.884-.484 1.114-.542 2.122-1.593 2.55-2.658.286-.71.312-1.003.357-4.058l.049-3.293h5.218c5.143 0 5.222.004 5.475.281 1.222 1.342 3.526 1.853 5.337 1.183 1.072-.396 2.13-1.382 2.689-2.504.4-.804.44-.995.437-2.085-.002-1.01-.058-1.318-.354-1.948-.194-.41-.57-.987-.838-1.28l-.487-.532v-2.494c0-2.313.017-2.49.236-2.427.13.037 4.372 1.962 9.428 4.277 5.593 2.56 9.422 4.24 9.777 4.288.78.106 1.8-.24 2.326-.787.227-.237.579-.76.78-1.162.202-.402.38-.747.396-.765.016-.019.872.355 1.902.83 3.284 1.517 3.087 1.662 5.898-4.323 1.958-4.169 2.155-4.654 2.144-5.289l-.013-.699 3.383-2.87c1.86-1.58 3.523-3.061 3.694-3.293.454-.614.363-1.681-.19-2.221-.262-.258-4.501-2.26-12.909-6.098a49226.37 49226.37 0 01-26.986-12.333C10.517 2.823 11.146 3.065 10.276 3.943zM38.52 17.345C53.395 24.14 65.565 29.772 65.565 29.86c0 .227-7.892 6.93-8.16 6.93-.12 0-.817-.276-1.548-.613-1.238-.571-14.128-6.463-28.969-13.241-6.843-3.126-7.029-3.188-7.913-2.656-.258.156-.554.53-.76.964-.187.39-.644 1.354-1.017 2.14-.372.787-.744 1.43-.827 1.43-.133 0-5.862-2.584-10.13-4.57-.87-.405-1.582-.81-1.582-.902 0-.234 6.618-14.353 6.728-14.353.049 0 12.26 5.56 27.134 12.355zM50.759 6.117c-1.706.368-3.854 1.512-4.766 2.54-.473.531-.5.679-.206 1.094.33.465.792.368 1.7-.359 1.642-1.313 3.278-1.89 5.358-1.89 2.09 0 3.731.577 5.354 1.883.97.78 1.43.84 1.773.235.188-.331.182-.389-.072-.732-.803-1.081-3.161-2.386-5.017-2.774-1.101-.231-3.045-.23-4.124.003zm.394 5.26c-.376.147-.94.484-1.252.749-.475.401-.563.55-.529.893a.72.72 0 00.392.606c.333.184.396.165 1.175-.35.453-.298 1.067-.584 1.365-.633.843-.141 1.553.043 2.448.633.78.515.842.534 1.174.35.567-.313.546-.913-.049-1.429-.889-.771-1.5-.997-2.83-1.044-.97-.034-1.347.01-1.894.225zM36.425 29.005c8.92 4.076 16.235 7.427 16.255 7.446.095.09-4.939 10.658-5.209 10.935-.552.568-.91.458-5.764-1.764-4.853-2.221-18.143-8.291-28.5-13.016-3.48-1.588-6.475-3.03-6.657-3.206-.536-.52-.434-.964.85-3.717.65-1.389 1.199-2.544 1.222-2.567.023-.023 1.623.678 3.554 1.557 1.93.88 3.667 1.638 3.858 1.685.53.132 1.489-.287 1.8-.786.145-.233.608-1.172 1.03-2.087.832-1.808.973-2.037 1.195-1.95.08.032 7.445 3.393 16.366 7.47zm-5.43 2.707c-.29.315-.284.725.012.99.328.294 11.015 5.153 11.332 5.153.662 0 .942-1.026.378-1.382-.709-.448-10.889-5.004-11.18-5.004-.176 0-.42.11-.543.243zm-1.616 3.46c-.24.26-.286.65-.11.924.173.268 11.064 5.219 11.482 5.219.566 0 .922-.953.485-1.299-.355-.282-11.073-5.088-11.346-5.088-.159 0-.389.11-.511.243zm26.279 2.617c.797.36 1.516.599 1.812.599.27 0 .49.029.49.065 0 .271-3.798 8.126-3.944 8.157-.104.021-.953-.318-1.887-.755l-1.7-.794 1.05-2.24a1306.01 1306.01 0 001.836-3.934c.432-.934.84-1.697.904-1.697.064 0 .712.27 1.439.599zm-49.624-.03c.717.416 1.263 1.056 1.53 1.792.228.636.276 18.687.05 19.49-.22.783-.921 1.592-1.735 2-.656.328-.87.365-2.119.365H2.371V37.294l1.514.048c1.365.044 1.578.085 2.15.417zm17.654 1.355l1.565.727v4.927l-.345-.13c-.19-.071-.762-.13-1.27-.13-.509 0-1.08.059-1.27.13l-.345.13v-3.19c0-1.755.022-3.19.05-3.19.028 0 .755.327 1.615.726zm.968 7.053c1.405.415 2.348 1.697 2.345 3.19-.003 1.792-1.247 3.182-3.008 3.36-1.38.14-2.667-.538-3.347-1.76-.99-1.781-.027-4.185 1.915-4.78.796-.245 1.29-.247 2.095-.01zm-5.89 2.166c-.142.507-.084 2.036.093 2.462.09.22-.185.233-4.696.233H9.37v-3.193h9.535l-.14.498zm4.074.384c-.365.458-.353.88.036 1.328.225.259.443.362.762.362s.536-.103.761-.362c.39-.447.401-.87.037-1.328-.216-.27-.398-.35-.798-.35s-.583.08-.798.35z" fill="url(#paint0_linear_1710_5862)" stroke="url(#paint1_linear_1710_5862)" stroke-width="1.06"/><defs><linearGradient id="paint0_linear_1710_5862" x1=".891" y1=".755" x2="64.24" y2="68.479" gradientUnits="userSpaceOnUse"><stop stop-color="#0ABD92"/><stop offset="1" stop-color="#009DB8"/></linearGradient><linearGradient id="paint1_linear_1710_5862" x1=".891" y1=".755" x2="64.24" y2="68.479" gradientUnits="userSpaceOnUse"><stop stop-color="#0ABD92"/><stop offset="1" stop-color="#009DB8"/></linearGradient></defs></svg>