<svg width="74" height="59" fill="none" xmlns="http://www.w3.org/2000/svg"><path fill-rule="evenodd" clip-rule="evenodd" d="M7.088.525L6.74.863v9.783h2.415V2.527h8.382V.187h-10.1l-.349.338zm28.633 4.341c0 2.574-.054 4.68-.121 4.68s-.946.063-1.954.14c-7.366.569-14.256 2.87-20.36 6.803-2.41 1.553-3.845 2.686-6.101 4.818C4.116 24.206.63 28.57.63 29.516c0 .322.913 1.759 2.139 3.366 1.767 2.317 5.144 5.7 7.521 7.537 3.028 2.338 7.47 4.816 11.13 6.207 3.951 1.503 8.105 2.373 13.2 2.767l1.1.085v9.334h2.558v-4.679c0-2.573.054-4.679.12-4.679.752 0 4.163-.34 5.51-.55 2.364-.369 5.722-1.218 7.937-2.008 3.848-1.371 8.622-3.974 11.862-6.465 2.05-1.576 5.75-5.287 7.332-7.353 1.788-2.334 2.329-3.169 2.329-3.594 0-.322-.913-1.76-2.14-3.366-1.767-2.319-5.147-5.705-7.52-7.536-5.787-4.464-12.82-7.452-20.103-8.54-1.12-.167-4.572-.497-5.206-.497-.067 0-.121-2.105-.121-4.679V.188H35.72v4.678zm20.742-3.509v1.17h8.382v8.12h2.415V.862l-.349-.338-.348-.338h-10.1v1.17zM35.721 15.463v3.44h2.558v-6.88h.51c.937 0 3.38.563 4.839 1.115 5.782 2.19 10.031 7.161 11.202 13.106.117.593.212 1.29.212 1.548v.47H47.94v2.476h7.144l-.09.946c-.12 1.252-.672 3.273-1.264 4.631-2.362 5.42-7.389 9.352-13.367 10.456-.613.114-1.332.206-1.599.206h-.484v-6.88h-2.56v6.88h-.484c-.267 0-.986-.092-1.599-.206-6.203-1.146-11.315-5.29-13.602-11.027-.513-1.287-1.079-3.652-1.079-4.511v-.495h7.104v-2.477h-7.104v-.494c0-.272.132-1.12.293-1.883 1.218-5.79 5.502-10.646 11.308-12.819 1.386-.518 3.588-1.017 4.56-1.033l.603-.01v3.44zm-12.955-.31c-2.807 2.608-4.7 5.733-5.66 9.343-.23.86-.466 2.043-.526 2.63l-.109 1.066-4.866.037-4.865.036v2.47l4.865.036 4.866.036.11 1.067c.06.587.296 1.77.524 2.63.964 3.621 2.853 6.733 5.684 9.364.725.674 1.199 1.178 1.052 1.121a41.378 41.378 0 00-.977-.353c-3.48-1.215-7.262-3.26-10.655-5.763-2.628-1.938-6.37-5.758-8.272-8.444l-.657-.93.657-.928c1.902-2.686 5.644-6.506 8.272-8.445 3.044-2.244 6.505-4.174 9.59-5.348a97.83 97.83 0 001.776-.689c.557-.238.471-.125-.809 1.064zm28.978-.57c3.434 1.307 7.138 3.364 10.26 5.698 2.535 1.895 6.202 5.667 8.057 8.289l.657.927-.681.957c-1.902 2.672-5.463 6.334-8.033 8.262-3.073 2.304-7.381 4.691-10.371 5.747-.664.234-1.316.468-1.45.519-.132.05.39-.507 1.16-1.24C54.195 41.026 56 37.98 56.96 34.26c.197-.764.406-1.854.464-2.422l.105-1.032 4.866-.036 4.866-.036v-2.47l-4.866-.036-4.865-.037-.106-1.032c-.058-.567-.267-1.657-.464-2.421-.958-3.714-2.764-6.767-5.603-9.469-.764-.726-1.363-1.32-1.332-1.32.03 0 .805.284 1.72.633zm-16.129 6.804c-2.056.355-4.123 1.582-5.364 3.183-3.594 4.64-1.285 11.171 4.547 12.858 1.35.39 3.402.331 4.825-.14 3.548-1.175 5.814-4.21 5.814-7.788 0-4.37-3.452-7.912-7.969-8.177-.609-.036-1.443-.007-1.853.064zm3.46 2.627c1.575.568 2.705 1.58 3.397 3.044 1.676 3.547-.593 7.604-4.602 8.23-3.201.5-6.314-1.75-6.845-4.945-.404-2.432 1.028-5.042 3.343-6.091 1.57-.711 3.17-.792 4.707-.238zM6.74 53.244v4.893l.348.337.35.338h10.099v-2.34H9.155v-8.119H6.74v4.892zm58.105-.831v4.06h-8.382v2.34h10.1l.348-.339.349-.337v-9.784h-2.415v4.06z" fill="url(#paint0_linear_1710_5854)"/><defs><linearGradient id="paint0_linear_1710_5854" x1=".631" y1=".188" x2="59.003" y2="72.967" gradientUnits="userSpaceOnUse"><stop stop-color="#0ABD92"/><stop offset="1" stop-color="#009DB8"/></linearGradient></defs></svg>