<svg width="72" height="74" fill="none" xmlns="http://www.w3.org/2000/svg"><mask id="a" fill="#fff"><path fill-rule="evenodd" clip-rule="evenodd" d="M33.252.727c-4.229.442-8.354 1.462-10.893 2.694-.856.415-1.04.571-1.29 1.098-.34.717-.362 1.071-.101 1.706A2.097 2.097 0 0023.703 7.4c1.937-.747 4.465-1.523 5.995-1.84 14.067-2.91 28.29 4.264 34.57 17.437.523 1.098 1.148 2.57 1.388 3.274 2.842 8.304 2.288 17.33-1.54 25.09-.935 1.897-2.259 4.05-2.334 3.798-.331-1.118-1.035-1.717-2.035-1.732a2.042 2.042 0 00-1.82 1.034c-.264.458-.284.728-.284 3.9 0 3.276.012 3.427.31 3.916.592.969.786 1.008 4.74.957l3.518-.045.509-.52c.423-.43.52-.644.58-1.264.126-1.348-.644-2.208-2.115-2.363l-.757-.08.877-1.294c5.434-8.029 7.463-17.78 5.712-27.443-1.29-7.113-4.712-13.694-9.838-18.916C55.639 5.665 48.914 2.23 40.988.997 39.586.778 34.466.6 33.252.727zM5.795 10.859c-.617.261-1.083.957-1.155 1.725-.126 1.336.647 2.202 2.104 2.355l.746.078-1.15 1.756C3.21 21.547 1.331 26.63.55 32.447.31 34.23.31 39.785.548 41.535 2.023 52.358 7.682 61.539 16.527 67.46c7.904 5.291 17.709 7.095 27.232 5.008 1.769-.388 4.605-1.317 5.822-1.907.856-.415 1.04-.571 1.29-1.098.34-.717.361-1.071.101-1.706a2.096 2.096 0 00-2.735-1.175c-1.975.762-4.533 1.547-6.028 1.85-4.658.944-9.648.803-14.184-.4-6.155-1.635-12.024-5.402-16.06-10.31-7.77-9.448-9.642-22.29-4.884-33.51.716-1.688 1.143-2.509 2.247-4.32.695-1.14.782-1.232.865-.919.477 1.82 2.887 2.166 3.82.548.264-.458.284-.728.284-3.9 0-3.156-.02-3.442-.279-3.879-.581-.983-.752-1.02-4.546-1.01-1.87.004-3.524.062-3.677.127zm24.986 1.576c-.795.427-1.002.952-1.083 2.74l-.07 1.542-1.045.388c-.575.214-1.32.532-1.657.708l-.611.319-.992-.991c-.545-.545-1.128-1.062-1.296-1.149-.39-.203-1.368-.203-1.76 0-.434.223-6.624 6.51-6.865 6.97-.237.457-.26 1.43-.044 1.863.085.17.592.764 1.127 1.32l.972 1.01-.34.693a22.997 22.997 0 00-.721 1.724l-.381 1.03h-1.388c-1.69 0-2.332.262-2.768 1.132-.264.528-.28.83-.28 5.257 0 4.425.016 4.73.28 5.257.42.838.924 1.05 2.697 1.133l1.513.07.381 1.066c.21.585.523 1.345.695 1.687l.313.623-.973 1.01c-.535.556-1.042 1.15-1.127 1.32-.2.399-.2 1.394-.001 1.794.22.443 6.39 6.749 6.843 6.993.448.243 1.402.267 1.828.046.167-.087.75-.604 1.296-1.149l.991-.99.611.318c.337.176 1.082.494 1.657.708l1.045.388.07 1.542c.082 1.806.29 2.32 1.112 2.747.518.27.817.286 5.16.286 4.346 0 4.642-.017 5.16-.286.852-.443 1.112-1.099 1.112-2.81v-1.403l1.01-.399c.556-.22 1.318-.554 1.692-.745l.682-.346.99.99c.546.545 1.129 1.062 1.296 1.149.426.22 1.38.197 1.828-.046.453-.244 6.623-6.55 6.843-6.993.199-.4.198-1.395 0-1.794-.086-.17-.593-.764-1.128-1.32l-.973-1.01.313-.623c.172-.342.485-1.102.695-1.687l.381-1.065 1.513-.071c1.773-.084 2.277-.295 2.697-1.133.264-.527.28-.832.28-5.257 0-4.424-.016-4.73-.28-5.256-.42-.838-.924-1.05-2.697-1.134l-1.513-.07-.381-1.066a19.126 19.126 0 00-.695-1.687l-.313-.623.973-1.01c.535-.556 1.042-1.15 1.127-1.32.2-.399.2-1.394.001-1.794-.22-.442-6.39-6.749-6.843-6.993-.448-.243-1.402-.267-1.828-.046-.167.087-.75.604-1.295 1.148l-.991.99-.682-.345a24.296 24.296 0 00-1.692-.745l-1.01-.399v-1.403c0-1.71-.26-2.367-1.111-2.81-.52-.27-.808-.285-5.19-.28-4.341.007-4.674.025-5.16.287zm7.28 5.139c0 1.952.411 2.46 2.452 3.033.694.195 2.113.79 3.22 1.351 2.508 1.272 2.697 1.266 4.122-.136l.95-.934 1.49 1.518 1.49 1.518-.862.89c-.864.892-1.155 1.401-1.155 2.023 0 .185.367 1.06.815 1.944.814 1.606 1.209 2.61 1.614 4.105.414 1.53 1.059 1.975 2.863 1.975h1.12v4.26h-1.12c-1.804 0-2.45.445-2.863 1.975-.405 1.495-.8 2.499-1.614 4.106-.448.884-.815 1.758-.815 1.943 0 .622.29 1.13 1.155 2.024l.861.889-1.494 1.522-1.494 1.522-.873-.877c-.876-.881-1.375-1.177-1.986-1.177-.181 0-1.04.374-1.908.83-1.577.83-2.562 1.232-4.03 1.644-1.502.422-1.938 1.08-1.938 2.917v1.14H33.88v-1.14c0-1.838-.438-2.495-1.94-2.917-1.467-.412-2.452-.814-4.03-1.643-.867-.457-1.726-.83-1.907-.83-.61 0-1.11.295-1.986 1.176l-.873.877-1.49-1.518-1.49-1.518.916-.967c1.376-1.452 1.382-1.644.134-4.2-.551-1.127-1.135-2.572-1.327-3.28-.562-2.079-1.06-2.498-2.977-2.498h-1.15v-4.26h1.15c1.93 0 2.462-.461 3.022-2.622.193-.741.706-2.013 1.28-3.172.528-1.064.96-2.076.96-2.25 0-.601-.299-1.119-1.155-2.003l-.861-.89 1.49-1.518 1.49-1.518.95.934c1.425 1.402 1.613 1.408 4.121.136 1.107-.561 2.526-1.156 3.22-1.351 2.04-.573 2.452-1.081 2.452-3.033v-1.172h4.181v1.172zM33.67 23.7c-5.158 1.021-9.158 4.806-10.551 9.984-.429 1.593-.429 5.02 0 6.612 1.302 4.84 4.882 8.469 9.644 9.777 1.662.456 4.831.457 6.481.001 4.7-1.297 8.284-4.974 9.57-9.818.46-1.736.46-4.796 0-6.532-1.287-4.847-4.92-8.571-9.57-9.807-1.436-.381-4.2-.489-5.575-.217zm4.18 4.273c3.352.715 6.268 3.686 6.97 7.1.426 2.077.169 4.053-.786 6.035-.816 1.693-2.36 3.267-4.023 4.098-2.684 1.342-5.4 1.342-8.084 0-1.662-.83-3.207-2.405-4.023-4.098-1.317-2.734-1.317-5.502 0-8.236 1.14-2.365 3.612-4.343 6.114-4.89a9.552 9.552 0 013.833-.009z"/></mask><path fill-rule="evenodd" clip-rule="evenodd" d="M33.252.727c-4.229.442-8.354 1.462-10.893 2.694-.856.415-1.04.571-1.29 1.098-.34.717-.362 1.071-.101 1.706A2.097 2.097 0 0023.703 7.4c1.937-.747 4.465-1.523 5.995-1.84 14.067-2.91 28.29 4.264 34.57 17.437.523 1.098 1.148 2.57 1.388 3.274 2.842 8.304 2.288 17.33-1.54 25.09-.935 1.897-2.259 4.05-2.334 3.798-.331-1.118-1.035-1.717-2.035-1.732a2.042 2.042 0 00-1.82 1.034c-.264.458-.284.728-.284 3.9 0 3.276.012 3.427.31 3.916.592.969.786 1.008 4.74.957l3.518-.045.509-.52c.423-.43.52-.644.58-1.264.126-1.348-.644-2.208-2.115-2.363l-.757-.08.877-1.294c5.434-8.029 7.463-17.78 5.712-27.443-1.29-7.113-4.712-13.694-9.838-18.916C55.639 5.665 48.914 2.23 40.988.997 39.586.778 34.466.6 33.252.727zM5.795 10.859c-.617.261-1.083.957-1.155 1.725-.126 1.336.647 2.202 2.104 2.355l.746.078-1.15 1.756C3.21 21.547 1.331 26.63.55 32.447.31 34.23.31 39.785.548 41.535 2.023 52.358 7.682 61.539 16.527 67.46c7.904 5.291 17.709 7.095 27.232 5.008 1.769-.388 4.605-1.317 5.822-1.907.856-.415 1.04-.571 1.29-1.098.34-.717.361-1.071.101-1.706a2.096 2.096 0 00-2.735-1.175c-1.975.762-4.533 1.547-6.028 1.85-4.658.944-9.648.803-14.184-.4-6.155-1.635-12.024-5.402-16.06-10.31-7.77-9.448-9.642-22.29-4.884-33.51.716-1.688 1.143-2.509 2.247-4.32.695-1.14.782-1.232.865-.919.477 1.82 2.887 2.166 3.82.548.264-.458.284-.728.284-3.9 0-3.156-.02-3.442-.279-3.879-.581-.983-.752-1.02-4.546-1.01-1.87.004-3.524.062-3.677.127zm24.986 1.576c-.795.427-1.002.952-1.083 2.74l-.07 1.542-1.045.388c-.575.214-1.32.532-1.657.708l-.611.319-.992-.991c-.545-.545-1.128-1.062-1.296-1.149-.39-.203-1.368-.203-1.76 0-.434.223-6.624 6.51-6.865 6.97-.237.457-.26 1.43-.044 1.863.085.17.592.764 1.127 1.32l.972 1.01-.34.693a22.997 22.997 0 00-.721 1.724l-.381 1.03h-1.388c-1.69 0-2.332.262-2.768 1.132-.264.528-.28.83-.28 5.257 0 4.425.016 4.73.28 5.257.42.838.924 1.05 2.697 1.133l1.513.07.381 1.066c.21.585.523 1.345.695 1.687l.313.623-.973 1.01c-.535.556-1.042 1.15-1.127 1.32-.2.399-.2 1.394-.001 1.794.22.443 6.39 6.749 6.843 6.993.448.243 1.402.267 1.828.046.167-.087.75-.604 1.296-1.149l.991-.99.611.318c.337.176 1.082.494 1.657.708l1.045.388.07 1.542c.082 1.806.29 2.32 1.112 2.747.518.27.817.286 5.16.286 4.346 0 4.642-.017 5.16-.286.852-.443 1.112-1.099 1.112-2.81v-1.403l1.01-.399c.556-.22 1.318-.554 1.692-.745l.682-.346.99.99c.546.545 1.129 1.062 1.296 1.149.426.22 1.38.197 1.828-.046.453-.244 6.623-6.55 6.843-6.993.199-.4.198-1.395 0-1.794-.086-.17-.593-.764-1.128-1.32l-.973-1.01.313-.623c.172-.342.485-1.102.695-1.687l.381-1.065 1.513-.071c1.773-.084 2.277-.295 2.697-1.133.264-.527.28-.832.28-5.257 0-4.424-.016-4.73-.28-5.256-.42-.838-.924-1.05-2.697-1.134l-1.513-.07-.381-1.066a19.126 19.126 0 00-.695-1.687l-.313-.623.973-1.01c.535-.556 1.042-1.15 1.127-1.32.2-.399.2-1.394.001-1.794-.22-.442-6.39-6.749-6.843-6.993-.448-.243-1.402-.267-1.828-.046-.167.087-.75.604-1.295 1.148l-.991.99-.682-.345a24.296 24.296 0 00-1.692-.745l-1.01-.399v-1.403c0-1.71-.26-2.367-1.111-2.81-.52-.27-.808-.285-5.19-.28-4.341.007-4.674.025-5.16.287zm7.28 5.139c0 1.952.411 2.46 2.452 3.033.694.195 2.113.79 3.22 1.351 2.508 1.272 2.697 1.266 4.122-.136l.95-.934 1.49 1.518 1.49 1.518-.862.89c-.864.892-1.155 1.401-1.155 2.023 0 .185.367 1.06.815 1.944.814 1.606 1.209 2.61 1.614 4.105.414 1.53 1.059 1.975 2.863 1.975h1.12v4.26h-1.12c-1.804 0-2.45.445-2.863 1.975-.405 1.495-.8 2.499-1.614 4.106-.448.884-.815 1.758-.815 1.943 0 .622.29 1.13 1.155 2.024l.861.889-1.494 1.522-1.494 1.522-.873-.877c-.876-.881-1.375-1.177-1.986-1.177-.181 0-1.04.374-1.908.83-1.577.83-2.562 1.232-4.03 1.644-1.502.422-1.938 1.08-1.938 2.917v1.14H33.88v-1.14c0-1.838-.438-2.495-1.94-2.917-1.467-.412-2.452-.814-4.03-1.643-.867-.457-1.726-.83-1.907-.83-.61 0-1.11.295-1.986 1.176l-.873.877-1.49-1.518-1.49-1.518.916-.967c1.376-1.452 1.382-1.644.134-4.2-.551-1.127-1.135-2.572-1.327-3.28-.562-2.079-1.06-2.498-2.977-2.498h-1.15v-4.26h1.15c1.93 0 2.462-.461 3.022-2.622.193-.741.706-2.013 1.28-3.172.528-1.064.96-2.076.96-2.25 0-.601-.299-1.119-1.155-2.003l-.861-.89 1.49-1.518 1.49-1.518.95.934c1.425 1.402 1.613 1.408 4.121.136 1.107-.561 2.526-1.156 3.22-1.351 2.04-.573 2.452-1.081 2.452-3.033v-1.172h4.181v1.172zM33.67 23.7c-5.158 1.021-9.158 4.806-10.551 9.984-.429 1.593-.429 5.02 0 6.612 1.302 4.84 4.882 8.469 9.644 9.777 1.662.456 4.831.457 6.481.001 4.7-1.297 8.284-4.974 9.57-9.818.46-1.736.46-4.796 0-6.532-1.287-4.847-4.92-8.571-9.57-9.807-1.436-.381-4.2-.489-5.575-.217zm4.18 4.273c3.352.715 6.268 3.686 6.97 7.1.426 2.077.169 4.053-.786 6.035-.816 1.693-2.36 3.267-4.023 4.098-2.684 1.342-5.4 1.342-8.084 0-1.662-.83-3.207-2.405-4.023-4.098-1.317-2.734-1.317-5.502 0-8.236 1.14-2.365 3.612-4.343 6.114-4.89a9.552 9.552 0 013.833-.009z" fill="url(#paint0_linear_1710_5858)" stroke="#000" stroke-width="1.096" mask="url(#a)"/><defs><linearGradient id="paint0_linear_1710_5858" x1=".37" y1=".685" x2="74.447" y2="73.72" gradientUnits="userSpaceOnUse"><stop stop-color="#0ABD92"/><stop offset="1" stop-color="#009DB8"/></linearGradient></defs></svg>