<svg width="40" height="40" fill="none" xmlns="http://www.w3.org/2000/svg"><g opacity=".2"><rect x=".506" y=".393" width="38.544" height="38.544" rx="19.272" stroke="#fff" stroke-width=".787"/><path fill-rule="evenodd" clip-rule="evenodd" d="M9.75 14.945c-.021 1.854-.14 2.896-.787 3.591-.647.695-1.618.822-3.344.845v.274c1.726.023 2.697.15 3.344.845.648.695.766 1.737.787 3.59h.255c.022-1.853.14-2.895.787-3.59.648-.695 1.618-.822 3.344-.845v-.274c-1.726-.023-2.696-.15-3.344-.845-.647-.695-.765-1.737-.787-3.59H9.75z" fill="#fff"/><path d="M17.07 24.385v-1.437h3.433v1.437h1.042v-2.368h-.6v-5.954h-3.921l-.11 3.418c-.038 1.11-.148 2.01-.444 2.536h-.442v2.368h1.042zm.821-4.746l.083-2.645h1.855v5.023h-2.307c.194-.466.332-1.268.37-2.378zm5.528 2.477c-.563 0-1.117-.218-1.412-.456v.96c.212.19.747.427 1.54.427 1.172 0 1.79-.565 1.79-1.565 0-.585-.34-.981-.95-1.12.572-.198.812-.634.812-1.189 0-.842-.618-1.308-1.614-1.308-.72 0-1.19.238-1.458.417v.96c.295-.207.701-.445 1.3-.445.407 0 .665.208.665.574 0 .387-.221.595-.673.595h-.692v.891h.692c.562 0 .784.179.784.615 0 .396-.268.644-.784.644zm6.073.495v-.961a2.663 2.663 0 01-1.448.466c-.803 0-1.108-.407-1.154-1.239h2.648v-.624c0-1.734-.71-2.388-1.808-2.388-1.338 0-1.975 1.1-1.975 2.606 0 1.734.794 2.576 2.196 2.576.701 0 1.218-.198 1.541-.436zm-1.78-3.814c.544 0 .71.485.71 1.11v.098H26.89c.028-.792.296-1.208.821-1.208zm5.128-.834v1.972h-1.468v-1.972h-1.098v4.983h1.098v-2.08h1.467v2.08h1.098v-4.983H32.84z" fill="#fff"/></g></svg>