<svg width="252" height="42" fill="none" xmlns="http://www.w3.org/2000/svg"><path d="M8.968 39.554A14.622 14.622 0 013.11 34.1 14.969 14.969 0 011 26.187a14.969 14.969 0 012.11-7.915 14.623 14.623 0 015.86-5.456 17.966 17.966 0 018.467-1.964 17.807 17.807 0 018.425 1.964 14.696 14.696 0 015.833 5.453 15.001 15.001 0 012.11 7.914 15.001 15.001 0 01-2.11 7.918 14.696 14.696 0 01-5.833 5.453 17.797 17.797 0 01-8.425 1.964 17.954 17.954 0 01-8.468-1.964zm13.934-7.362c1.426-1.495 2.139-3.497 2.139-6.005 0-2.51-.712-4.512-2.136-6.009-1.425-1.495-3.249-2.242-5.47-2.242a7.323 7.323 0 00-5.508 2.242c-1.446 1.495-2.168 3.496-2.168 6.005 0 2.51.722 4.511 2.168 6.006a7.3 7.3 0 005.509 2.242c2.22.002 4.044-.744 5.47-2.24h-.004z" fill="url(#paint0_linear_1710_5293)"/><path d="M66.72 14.173c2.278 2.214 3.416 5.498 3.416 9.852v17.05h-8.662V25.356c0-2.369-.518-4.131-1.555-5.288-1.037-1.156-2.536-1.738-4.498-1.744-2.186 0-3.926.674-5.22 2.022-1.295 1.348-1.943 3.35-1.945 6.005v14.724h-8.662V11.307h8.273v3.473a11.49 11.49 0 014.278-2.907 14.931 14.931 0 015.606-1.024c3.703.002 6.693 1.11 8.97 3.324z" fill="url(#paint1_linear_1710_5293)"/><path d="M78.522 0h6.942v41.074h-6.942V0zM99.79 39.527a14.139 14.139 0 01-5.639-5.398 15.204 15.204 0 01-2.025-7.834 15.066 15.066 0 012.025-7.805 14.2 14.2 0 015.639-5.368 18.04 18.04 0 0116.271 0 14.205 14.205 0 015.635 5.368 15.064 15.064 0 012.028 7.805 15.192 15.192 0 01-2.028 7.834 14.148 14.148 0 01-5.635 5.398 18.045 18.045 0 01-16.271 0zm14.437-6.532c1.667-1.697 2.5-3.93 2.498-6.7-.002-2.77-.835-5.002-2.498-6.697-1.666-1.697-3.776-2.545-6.329-2.545-2.554 0-4.655.848-6.303 2.545-1.646 1.697-2.47 3.93-2.472 6.697-.003 2.767.822 5 2.472 6.7 1.635 1.693 3.736 2.539 6.303 2.539 2.566 0 4.676-.846 6.329-2.54zm21.38 6.532a14.138 14.138 0 01-5.635-5.398 15.19 15.19 0 01-2.025-7.834 15.063 15.063 0 012.025-7.805 14.203 14.203 0 015.638-5.368 18.045 18.045 0 0116.271 0 14.205 14.205 0 015.635 5.368 15.065 15.065 0 012.029 7.805 15.203 15.203 0 01-2.029 7.834 14.141 14.141 0 01-5.635 5.398 18.04 18.04 0 01-16.271 0h-.003zm14.437-6.532c1.667-1.697 2.5-3.93 2.498-6.7-.002-2.77-.835-5.002-2.498-6.697-1.666-1.697-3.776-2.545-6.329-2.545-2.554 0-4.65.848-6.29 2.545-1.646 1.697-2.47 3.93-2.472 6.697-.003 2.767.822 5 2.472 6.7 1.646 1.697 3.747 2.545 6.303 2.545s4.661-.848 6.316-2.545zm28.263-4.597l-5.162 4.875v7.804h-6.941V0h6.941v24.8l14.382-13.287h8.331l-12.385 12.392 13.548 17.16h-8.425l-10.289-12.667zm49.758.11h-23.27a8.03 8.03 0 003.192 5.168c1.728 1.273 3.866 1.91 6.413 1.91 3.258 0 5.942-1.07 8.053-3.212l3.72 4.261a12.522 12.522 0 01-5.052 3.599 18.455 18.455 0 01-6.896 1.23c-3.258 0-6.127-.645-8.607-1.937a13.97 13.97 0 01-5.748-5.398 15.202 15.202 0 01-2.026-7.834c-.04-2.72.639-5.404 1.971-7.779a13.966 13.966 0 015.47-5.398 15.99 15.99 0 017.884-1.938 15.593 15.593 0 017.748 1.91 13.546 13.546 0 015.33 5.368c1.279 2.307 1.918 4.973 1.916 7.998a33.784 33.784 0 01-.098 2.052zm-20.519-9.824a8.266 8.266 0 00-2.806 5.22h16.825a8.157 8.157 0 00-2.722-5.204c-1.512-1.328-3.401-1.993-5.665-1.993a8.39 8.39 0 00-5.632 1.977zm44.454-7.5v6.583a8.83 8.83 0 00-1.62-.165c-2.703 0-4.812.784-6.329 2.352-1.516 1.568-2.273 3.83-2.268 6.784v14.336h-6.945v-29.56h6.608v4.315c2-3.097 5.518-4.645 10.554-4.645z" fill="#fff"/><defs><linearGradient id="paint0_linear_1710_5293" x1=".998" y1="10.848" x2="24.116" y2="63.214" gradientUnits="userSpaceOnUse"><stop stop-color="#0ABD92"/><stop offset="1" stop-color="#009DB8"/></linearGradient><linearGradient id="paint1_linear_1710_5293" x1=".998" y1="10.848" x2="24.116" y2="63.214" gradientUnits="userSpaceOnUse"><stop stop-color="#0ABD92"/><stop offset="1" stop-color="#009DB8"/></linearGradient></defs></svg>