<svg width="40" height="40" fill="none" xmlns="http://www.w3.org/2000/svg"><g opacity=".2"><rect x=".393" y=".727" width="38.544" height="38.544" rx="19.272" stroke="#fff" stroke-width=".787"/><path d="M22.563 10.56h-5.796c-5.289 0-6.541 1.253-6.541 6.542v5.796c0 5.289 1.252 6.541 6.541 6.541h5.796c5.29 0 6.542-1.252 6.542-6.541v-5.796c0-5.29-1.266-6.542-6.542-6.542zm2.904 13.47h-1.371c-.52 0-.68-.413-1.613-1.359-.813-.786-1.172-.893-1.372-.893-.28 0-.36.08-.36.467v1.239c0 .333-.106.533-.986.533-1.452 0-3.064-.88-4.196-2.519-1.706-2.397-2.173-4.196-2.173-4.57 0-.199.08-.385.466-.385h1.372c.346 0 .48.16.614.532.679 1.959 1.811 3.678 2.278 3.678.173 0 .253-.08.253-.52v-2.026c-.053-.933-.547-1.012-.547-1.345 0-.16.134-.32.347-.32h2.158c.294 0 .4.16.4.506v2.732c0 .292.133.4.213.4.173 0 .32-.108.64-.427.986-1.106 1.691-2.811 1.691-2.811.094-.2.254-.387.6-.387h1.372c.413 0 .507.213.413.506-.173.8-1.851 3.17-1.851 3.17-.147.24-.2.347 0 .614.146.2.626.613.946.986.586.666 1.038 1.226 1.159 1.613.133.385-.067.585-.454.585h.001z" fill="#fff"/></g></svg>