<svg width="40" height="40" fill="none" xmlns="http://www.w3.org/2000/svg"><rect x=".95" y=".393" width="38.544" height="38.544" rx="19.272" stroke="#4C4C4C" stroke-width=".787"/><path d="M25.683 13.043c1.05.102 2.413 0 3.147.821.839.822.944 2.158.944 3.185.105 1.233.105 2.98.105 4.11-.105 1.13 0 2.465-.525 3.493-.524 1.13-1.468 1.54-2.622 1.643-1.258.103-9.02.103-11.537 0-1.153-.102-2.517-.102-3.356-1.027-.734-.822-.734-2.055-.839-3.082v-4.212c0-1.13 0-2.466.524-3.493.525-1.027 1.574-1.233 2.727-1.336 1.259-.102 8.915-.205 11.432-.102zm-7.341 3.492V22.7l5.768-3.082-5.768-3.082z" fill="#4C4C4C"/></svg>