<svg width="75" height="67" fill="none" xmlns="http://www.w3.org/2000/svg"><path fill-rule="evenodd" clip-rule="evenodd" d="M.48.16C.294.33.28 2.808.28 33.52c.002 18.246.047 33.238.1 33.314.076.11 1.786.132 8.143.11l8.046-.028.034-3.36c.018-1.848.004-3.471-.033-3.608l-.066-.248h-3.821c-2.422 0-3.907-.042-4.057-.114-.232-.114-.235-.302-.194-11.125.023-6.056.082-11.048.133-11.094.05-.046 1.872-.108 4.047-.138l3.957-.055.032-3.573c.025-2.785-.002-3.592-.121-3.66-.084-.05-1.905-.09-4.046-.09-3.523-.002-3.9-.02-3.97-.186-.122-.287-.067-21.894.055-22.074.09-.131.798-.169 4.079-.214l3.97-.055.03-3.47c.018-2.067-.017-3.537-.086-3.635-.1-.144-1.151-.17-7.974-.202C1.358-.02.663-.005.48.16zM25.137.108l-.273.102.03 33.345.032 33.345.302.063c.167.035 1.979.047 4.027.028l3.724-.035v-14.74c0-12.342.027-14.76.166-14.865.118-.09 1.31-.117 4.148-.096l3.982.029.031 14.843.03 14.844h7.966l.07-.358c.115-.592.066-66.236-.05-66.406-.09-.132-1.896-.159-12.009-.178C30.233.015 25.3.047 25.137.108zM58.2.069c-.12.045-.15 6.844-.15 33.479V66.97h16.228V59.7h-3.993c-3.85 0-3.996-.007-4.12-.217-.165-.28-.165-51.645 0-51.887.093-.138.743-.173 4.081-.22l3.971-.054.032-3.555.032-3.555-.312-.108C73.65-.006 58.497-.039 58.2.07zM41.132 7.514c.192.129.204.899.175 11.209l-.032 11.07-4.049.03c-3.158.022-4.07-.002-4.146-.11-.121-.175-.13-21.905-.008-22.076.153-.215.481-.234 4.214-.247 2.74-.01 3.691.02 3.846.124z" fill="#fff"/></svg>