<svg width="291" height="40" fill="none" xmlns="http://www.w3.org/2000/svg"><path fill-rule="evenodd" clip-rule="evenodd" d="M116.095.057c-4.293.202-8.567 1.918-11.98 4.81-3.404 2.886-5.856 7.219-6.63 11.717l-.23 1.337-4.05-.026-4.052-.026V4.495l4.894-.027c3.553-.019 4.933-.058 5.037-.144.167-.14 2.858-3.693 2.858-3.775 0-.03-3.776-.056-8.391-.056H85.16v19.249c0 14.57.029 19.248.118 19.248.144 0 3.522-2.239 3.697-2.45.098-.117.132-1.79.152-7.335l.026-7.184 4.05-.026 4.05-.027.185 1.141c1.306 8.035 7.213 14.41 15.105 16.3 2.766.662 6.416.654 9.163-.02 3.459-.85 6.393-2.434 8.941-4.827 1.179-1.107 2.634-2.807 2.634-3.077 0-.112-.558-.566-1.541-1.254l-1.542-1.078-.405.482c-3.157 3.77-6.62 5.698-11.169 6.221-1.955.225-4.586-.078-6.635-.764-1.178-.395-3.092-1.383-4.18-2.158-1.044-.744-2.542-2.19-3.301-3.187-1.973-2.592-3.113-5.699-3.338-9.094-.162-2.439.643-5.887 1.923-8.24 1.105-2.031 2.953-4.134 4.766-5.422 1.094-.777 3.183-1.811 4.496-2.225 5.533-1.745 11.771-.236 15.851 3.833.493.491 1.072 1.125 1.287 1.409.216.283.44.513.498.512.15-.005 2.894-2.042 3.021-2.243.084-.134-.009-.309-.467-.876-2.47-3.064-6.056-5.455-9.819-6.548-1.712-.497-4.486-.914-5.637-.847-.185.01-.633.033-.994.05zm-97.296.5c-4.764.309-9.39 2.405-12.745 5.78C2.764 9.643.861 13.735.4 18.493c-.156 1.61-.156 1.868-.006 3.445.176 1.847.477 3.341.946 4.698 2.525 7.302 8.886 12.397 16.569 13.27 1.322.15 3.813.098 3.995-.085.1-.1.139-.768.161-2.733.017-1.432.005-2.704-.026-2.828-.055-.222-.073-.224-1.395-.165-3.909.175-7.57-1.229-10.331-3.96-1.839-1.819-3.052-3.92-3.71-6.428-.272-1.034-.317-1.398-.361-2.952-.058-2.002.067-3.01.576-4.66.642-2.08 1.754-3.886 3.437-5.58 2.11-2.12 4.445-3.346 7.433-3.9.804-.148 2.745-.203 4.044-.115l.303.02V3.666c0-1.856-.037-2.894-.106-2.963C21.814.587 19.785.494 18.8.557zm33.16.035c-6.824.55-12.967 4.696-16.015 10.806a20.251 20.251 0 00-1.942 6.217c-.19 1.38-.162 4.25.056 5.674.848 5.556 4.05 10.476 8.852 13.6 2.102 1.366 4.425 2.284 7.128 2.815 1.311.258 4.664.396 5.132.212l.28-.11-.027-2.858-.027-2.857-1.82-.014c-1.478-.011-2.02-.057-2.881-.244a15.037 15.037 0 01-3.442-1.226c-2.513-1.27-4.822-3.61-6.132-6.219-.385-.765-1.154-2.999-1.076-3.125.026-.042 2.615-.076 5.754-.076h5.708l-.027-2.912-.027-2.913-5.687-.026c-5.393-.025-5.686-.036-5.686-.208 0-.334.704-2.283 1.118-3.094a13.989 13.989 0 0110.02-7.417c.977-.173 3.312-.234 3.9-.102l.328.074v-2.94c0-1.77-.038-2.964-.097-3-.17-.106-2.341-.142-3.39-.057zm64.035 8.074c-1.356.133-2.783.563-4.092 1.234-2.931 1.502-4.971 4.097-5.828 7.411-.249.965-.356 3.116-.208 4.205.654 4.818 4.216 8.6 9.066 9.626 1.047.221 3.245.222 4.297.001a12.01 12.01 0 004.195-1.721c.699-.455 2.882-2.595 2.882-2.825 0-.084-.689-.636-1.53-1.225-1.405-.983-1.806-1.203-1.806-.992 0 .142-1.187 1.312-1.667 1.643a7.288 7.288 0 01-7.382.56c-2.431-1.182-3.989-3.476-4.163-6.131-.137-2.088.649-4.12 2.193-5.67 1.335-1.342 2.835-2.012 4.712-2.105 2.327-.116 4.119.6 5.815 2.327l.591.601.784-.567c.432-.312 1.035-.747 1.341-.966 1.104-.793 1.072-.755.874-1.058-.315-.48-1.662-1.761-2.413-2.292-2.223-1.573-4.996-2.317-7.661-2.056zm157.434-5.48c-4.455.684-7.411 2.88-8.605 6.39-1.145 3.365.14 7.33 3.082 9.509 1.793 1.328 3.547 1.995 8.885 3.38 3.88 1.006 4.913 1.4 5.804 2.21 1.068.971 1.283 2.466.557 3.88-.409.795-1.478 1.773-2.39 2.185-1.434.648-3.89.865-5.641.5-2.683-.561-4.278-2.12-5.127-5.008l-.323-1.099-.441.034c-.243.019-1.61.15-3.038.293-1.429.142-2.694.258-2.811.258-.181 0-.199.102-.119.682.47 3.429 2.211 6.543 4.587 8.205 2.225 1.557 4.501 2.221 8.116 2.369 5.376.22 9.272-.95 11.67-3.505 1.915-2.038 2.778-4.41 2.631-7.231-.161-3.1-1.227-5.276-3.409-6.96-1.725-1.333-3.779-2.128-8.654-3.353-5.177-1.3-6.575-1.955-7.169-3.356-1.079-2.549 2.346-4.563 6.829-4.017 2.508.306 3.837 1.38 4.495 3.63.29.99.296 1 .735 1 1.415 0 6.119-.23 6.195-.303.158-.15-.158-2.125-.502-3.14-.623-1.84-2.055-3.678-3.707-4.76-1.406-.921-3.464-1.595-5.687-1.861-1.518-.183-4.559-.148-5.963.068zM161.281 20.002V36.5h6.715V22.73l1.482.001c1.864.001 2.971.176 3.831.607 1.356.678 2.186 1.728 7.164 9.07l2.731 4.028 3.998.034c3.68.032 3.991.017 3.914-.181-.131-.335-4.326-6.919-5.66-8.882-1.391-2.048-3.053-3.776-4.6-4.784-.567-.37-.952-.695-.856-.724.097-.027.531-.122.966-.21 1.233-.247 2.795-.854 3.707-1.44 1.848-1.188 3.239-3.22 3.683-5.379.31-1.508.195-3.803-.261-5.199-.822-2.514-2.654-4.493-4.868-5.261-2.193-.76-4.432-.904-14.144-.906h-7.802v16.498zm67.35-16.077c-.042.233-.06 7.642-.039 16.467l.037 16.044h6.715l.034-7.178.034-7.177h13.165V36.5h6.715V3.503h-6.715v12.991H235.41V3.503h-6.703l-.076.422zm-49.439 5.523c.859.34 1.712 1.148 2.093 1.98.352.77.376 2.514.046 3.421a3.533 3.533 0 01-1.784 1.96c-.978.471-2.453.59-7.37.592l-4.181.003V9.073l5.234.043c5.05.041 5.259.053 5.962.332zm26.716 2.83c-3.023.54-5.845 2.212-7.426 4.398-.778 1.075-1.707 3.02-2.056 4.3-.397 1.46-.492 4.352-.198 6.041.462 2.654 1.248 4.405 2.73 6.088 3.339 3.788 10.38 5.026 15.16 2.665 3.171-1.566 5.334-4.173 6.347-7.649.633-2.169.591-5.528-.095-7.73-1.337-4.285-5.301-7.614-9.749-8.184-1.34-.171-3.539-.138-4.713.072zm3.432 5c2.449.38 4.232 2.208 4.821 4.945.323 1.5.197 4.16-.258 5.479-.558 1.611-1.4 2.689-2.679 3.429-1.455.841-3.536.914-5.098.179-2.351-1.107-3.501-3.311-3.501-6.709 0-2.698.533-4.324 1.877-5.726.947-.989 2.171-1.534 3.85-1.715.073-.008.517.045.988.118z" fill="#fff"/></svg>