<svg width="250" height="42" fill="none" xmlns="http://www.w3.org/2000/svg"><path fill-rule="evenodd" clip-rule="evenodd" d="M22.595 32.38c1.413-1.491 2.12-3.488 2.12-5.993 0-2.503-.707-4.501-2.12-5.993-1.414-1.492-3.22-2.237-5.422-2.237-2.203 0-4.02.745-5.45 2.237-1.433 1.492-2.149 3.49-2.149 5.993 0 2.505.716 4.502 2.149 5.994 1.43 1.492 3.247 2.237 5.45 2.237 2.201 0 4.008-.745 5.422-2.237zM8.777 39.729c-2.479-1.307-4.415-3.121-5.808-5.442-1.397-2.32-2.093-4.952-2.093-7.899 0-2.946.696-5.58 2.093-7.9 1.393-2.32 3.33-4.133 5.808-5.44 2.476-1.307 5.275-1.961 8.396-1.961 3.118 0 5.908.654 8.368 1.96 2.46 1.308 4.385 3.122 5.782 5.442 1.393 2.32 2.09 4.953 2.09 7.899 0 2.947-.697 5.58-2.09 7.9-1.397 2.32-3.323 4.134-5.782 5.44-2.46 1.309-5.25 1.962-8.369 1.962-3.12 0-5.919-.653-8.395-1.961zM66.033 14.4c2.258 2.21 3.388 5.487 3.388 9.832v17.015h-8.59V25.558c0-2.356-.515-4.115-1.54-5.275-1.028-1.16-2.516-1.74-4.46-1.74-2.167 0-3.892.673-5.175 2.016-1.286 1.345-1.928 3.342-1.928 5.993v14.695H39.14v-29.72h8.203v3.48c1.137-1.251 2.55-2.217 4.24-2.9 1.687-.68 3.542-1.021 5.56-1.021 3.671 0 6.636 1.104 8.891 3.314z" fill="#FEFEFE"/><path d="M77.735 41.246h6.882V.258h-6.882v40.988zm35.399-8.063c1.653-1.694 2.478-3.923 2.478-6.685 0-2.762-.825-4.99-2.478-6.684-1.651-1.693-3.743-2.54-6.275-2.54-2.532 0-4.617.847-6.25 2.54-1.632 1.694-2.45 3.922-2.45 6.684s.818 4.991 2.45 6.685c1.633 1.693 3.718 2.54 6.25 2.54s4.624-.847 6.275-2.54zM98.821 39.7c-2.388-1.288-4.25-3.083-5.59-5.386-1.338-2.3-2.008-4.906-2.008-7.816s.67-5.504 2.009-7.789c1.34-2.283 3.201-4.069 5.59-5.357 2.385-1.29 5.063-1.934 8.037-1.934 3.009 0 5.706.645 8.093 1.934 2.386 1.288 4.248 3.074 5.588 5.357 1.339 2.285 2.01 4.88 2.01 7.79s-.671 5.515-2.01 7.815c-1.34 2.303-3.202 4.098-5.588 5.386-2.387 1.29-5.084 1.934-8.093 1.934-2.974 0-5.652-.644-8.038-1.934zm49.824-6.517c1.653-1.694 2.478-3.923 2.478-6.685 0-2.762-.825-4.99-2.478-6.684-1.651-1.693-3.743-2.54-6.276-2.54-2.532 0-4.617.847-6.249 2.54-1.633 1.694-2.451 3.922-2.451 6.684s.818 4.991 2.451 6.685c1.632 1.693 3.717 2.54 6.249 2.54 2.533 0 4.625-.847 6.276-2.54zM134.331 39.7c-2.387-1.288-4.25-3.083-5.589-5.386-1.339-2.3-2.009-4.906-2.009-7.816s.67-5.504 2.009-7.789c1.339-2.283 3.202-4.069 5.589-5.357 2.386-1.29 5.065-1.934 8.038-1.934 3.009 0 5.706.645 8.094 1.934 2.385 1.288 4.247 3.074 5.587 5.357 1.339 2.285 2.011 4.88 2.011 7.79s-.672 5.515-2.011 7.815c-1.34 2.303-3.202 4.098-5.587 5.386-2.388 1.29-5.085 1.934-8.094 1.934-2.973 0-5.652-.644-8.038-1.934zm42.338-11.103l-5.12 4.86v7.79h-6.882V.256h6.882v24.748l14.259-13.257h8.259l-12.279 12.374 13.435 17.124h-8.368l-10.186-12.65zm28.986-9.694c-1.523 1.307-2.45 3.048-2.781 5.22h16.682c-.295-2.136-1.192-3.867-2.697-5.192-1.506-1.326-3.378-1.99-5.617-1.99-2.201 0-4.064.655-5.587 1.962zm20.344 9.805H202.93c.403 2.173 1.458 3.894 3.165 5.165 1.707 1.27 3.827 1.905 6.359 1.905 3.229 0 5.891-1.067 7.984-3.203l3.688 4.253c-1.321 1.584-2.991 2.781-5.009 3.591-2.02.81-4.294 1.215-6.828 1.215-3.23 0-6.075-.644-8.533-1.934-2.46-1.288-4.36-3.083-5.699-5.386-1.339-2.3-2.009-4.906-2.009-7.816 0-2.873.651-5.459 1.953-7.761a13.898 13.898 0 015.424-5.385c2.312-1.29 4.918-1.934 7.817-1.934 2.865 0 5.425.635 7.682 1.906 2.258 1.27 4.018 3.057 5.285 5.358 1.267 2.301 1.9 4.963 1.9 7.982 0 .48-.038 1.16-.11 2.044zm23.73-17.29v6.574a8.685 8.685 0 00-1.598-.166c-2.68 0-4.771.783-6.275 2.347-1.506 1.566-2.258 3.82-2.258 6.767v14.307h-6.882V11.75h6.552v4.309c1.981-3.094 5.469-4.64 10.461-4.64z" fill="#FEFEFE"/></svg>