<svg width="22" height="26" fill="none" xmlns="http://www.w3.org/2000/svg"><path fill-rule="evenodd" clip-rule="evenodd" d="M2.858.092C1.949.381 1.19 1.02.784 1.838.368 2.673.397 1.83.397 12.974c0 11.142-.029 10.3.387 11.136a3.27 3.27 0 001.518 1.506c.83.407.31.383 8.47.384 6.45 0 7.32-.008 7.67-.08a3.512 3.512 0 002.66-2.53c.09-.348.095-.75.095-8.309V7.14l-.149-.193C20.827 6.658 14.518.11 14.403.05 14.337.015 12.458-.002 8.722 0 3.538.003 3.12.01 2.858.092zm10.62 3.277c0 2.376.018 2.546.318 3.105a2.83 2.83 0 001.508 1.3l.353.135 2.141.016 2.142.017v7.369c0 4.799-.018 7.464-.052 7.642a2.218 2.218 0 01-1.551 1.698c-.23.068-1.182.078-7.532.078-7.103 0-7.277-.003-7.599-.101a2.21 2.21 0 01-1.426-1.415c-.1-.321-.102-.5-.102-10.24 0-9.785.001-9.916.103-10.243a2.23 2.23 0 011.415-1.41c.288-.091.55-.096 5.292-.099l4.989-.002v2.15zm3.717 1.36l1.828 1.91-1.549.013c-1.533.013-1.55.012-1.813-.107-.354-.161-.596-.38-.75-.678-.126-.246-.127-.251-.14-1.951l-.015-1.705.305.305c.168.168 1.128 1.164 2.134 2.214zm-6.639 3.958a.944.944 0 00-.282.232c-.104.141-.107.204-.132 3.645l-.025 3.501-1.301-1.39c-.794-.848-1.371-1.423-1.48-1.474-.34-.16-.778.057-.86.426-.067.304.061.467 1.985 2.516 1.036 1.104 1.941 2.045 2.011 2.09.07.046.23.084.355.084.2 0 .256-.028.48-.242.422-.403 3.624-3.832 3.728-3.991a.606.606 0 00-.686-.913c-.169.05-.424.296-1.55 1.493l-1.349 1.432-.025-3.535c-.029-3.93-.007-3.706-.376-3.88-.224-.105-.275-.105-.493.006zM5.292 20.482c-.489.24-.41.99.12 1.143.132.039 1.801.05 5.5.04 5.116-.014 5.314-.019 5.453-.112.29-.194.37-.54.191-.83-.209-.34.15-.32-5.757-.319-4.66.001-5.37.011-5.507.078z" fill="#fff"/></svg>