<svg width="67" height="68" fill="none" xmlns="http://www.w3.org/2000/svg"><g opacity=".66"><mask id="a" fill="#fff"><path fill-rule="evenodd" clip-rule="evenodd" d="M1.715.64C1.105.816.29 1.678.114 2.332c-.095.352-.132 1.664-.106 3.72L.05 9.226l.351.531a2.62 2.62 0 001.702 1.154l.48.09.044 1.603c.04 1.519.064 1.638.438 2.242.287.465.586.739 1.096 1.005.647.338.814.366 2.192.366h1.492v5.556c0 3.056.062 6.166.137 6.913.504 4.98 2.52 9.878 5.63 13.675.869 1.062 2.882 3.062 3.931 3.905 2.931 2.357 7.105 4.308 10.83 5.061 14.918 3.018 29.162-7.49 30.694-22.641.076-.747.137-3.857.137-6.913v-5.556h1.492c1.379 0 1.545-.027 2.193-.366.51-.266.808-.54 1.096-1.005.374-.604.397-.723.438-2.242l.043-1.603.48-.09c.687-.127 1.296-.54 1.703-1.154L67 9.226V2.243l-.352-.532a3.356 3.356 0 00-.851-.842l-.5-.311L51.933.523C42.027.497 38.475.527 38.203.64c-.637.263-.906 1.065-.591 1.756.34.748-.242.717 13.856.717h12.977v5.242H2.605V3.113h12.977c14.097 0 13.515.03 13.856-.717.198-.434.198-.752 0-1.186-.341-.749.266-.719-14.085-.706C7.455.511 1.972.566 1.714.64zm31.17.035c-1.137.63-.661 2.438.64 2.438.664 0 1.31-.64 1.31-1.297 0-.984-1.087-1.62-1.95-1.14zm28.912 11.58l-.038 1.277H5.29l-.037-1.278-.038-1.278h56.62l-.038 1.278zm-5.215 9.5c-.002 3.045-.06 6.087-.131 6.76-.304 2.88-1.027 5.325-2.356 7.967-1.054 2.093-2.153 3.683-3.696 5.349l-1.087 1.172-.074-4.645c-.08-4.95-.132-5.423-.844-7.543-1.742-5.192-6.256-9.177-11.725-10.352-1.39-.298-4.608-.334-5.961-.066-3.207.636-5.985 2.112-8.266 4.393-2.16 2.162-3.551 4.658-4.276 7.678-.233.971-.277 1.717-.348 5.82l-.081 4.704-1.048-1.11c-2.765-2.928-4.881-6.978-5.705-10.92-.44-2.106-.516-3.45-.518-9.141v-5.603h46.118l-.002 5.537zm-19.978 1.392c4.752 1.181 8.389 4.813 9.662 9.649.256.97.28 1.467.327 6.699l.05 5.65-.834.528c-2.376 1.5-5.371 2.672-8.191 3.201-1.237.233-2.026.29-4.028.294-2.615.004-3.608-.108-5.722-.65a23.752 23.752 0 01-6.628-2.845l-.834-.528.05-5.65c.048-5.242.072-5.727.329-6.7 1.19-4.499 4.342-7.898 8.68-9.358 2.121-.714 4.967-.83 7.139-.29zm-4.979 3.891c-.523.103-1.453.444-2.162.793-1.032.509-1.437.806-2.372 1.74-.935.936-1.23 1.34-1.739 2.373-1.327 2.7-1.327 5.425 0 8.125.508 1.033.804 1.437 1.74 2.372.942.943 1.33 1.227 2.371 1.733 3.768 1.833 7.839 1.098 10.718-1.934 1.55-1.632 2.515-4.023 2.515-6.233s-.965-4.602-2.515-6.234c-2.279-2.4-5.317-3.371-8.556-2.735zm3.236 2.561c2.955.616 5.215 3.393 5.215 6.408 0 3.537-3.015 6.552-6.551 6.552-3.531 0-6.551-3.02-6.551-6.552 0-2.943 2.152-5.67 5.024-6.367.863-.21 1.98-.225 2.863-.041zm-2.603 2.71c-3.287 1.176-3.574 5.668-.46 7.198 1.06.52 2.393.52 3.454 0 1.405-.69 2.132-1.884 2.132-3.5 0-1.117-.272-1.863-.967-2.656-.94-1.07-2.786-1.532-4.159-1.041zm1.903 2.574c.884.457.858 1.867-.043 2.277-.672.307-1.405.086-1.717-.517-.615-1.19.57-2.375 1.76-1.76zm-1.277 19.784c-1.136.63-.66 2.438.64 2.438.665 0 1.31-.64 1.31-1.297 0-.984-1.086-1.62-1.95-1.14zm-3.605 3.687c-.54.282-.724.576-.729 1.167-.003.448.08.597.636 1.133 1.054 1.016 2.79 1.693 4.339 1.693 1.549 0 3.285-.677 4.338-1.693.541-.522.64-.693.64-1.105 0-.654-.318-1.1-.912-1.278-.556-.167-.723-.105-1.664.614-.633.483-1.656.841-2.402.841-.746 0-1.77-.358-2.402-.841-1.045-.798-1.23-.851-1.844-.531zm-4.041 3.93c-.392.392-.483.76-.332 1.341.255.987 3.42 2.994 5.67 3.595.843.225 1.422.28 2.949.28 1.526 0 2.106-.055 2.948-.28 2.242-.6 5.417-2.616 5.673-3.604.24-.924-.296-1.662-1.206-1.662-.452 0-.65.095-1.194.57-1.415 1.238-2.8 1.933-4.497 2.26-2.879.553-5.62-.227-7.945-2.26-.545-.475-.743-.57-1.194-.57-.404 0-.625.084-.872.33z"/></mask><path fill-rule="evenodd" clip-rule="evenodd" d="M1.715.64C1.105.816.29 1.678.114 2.332c-.095.352-.132 1.664-.106 3.72L.05 9.226l.351.531a2.62 2.62 0 001.702 1.154l.48.09.044 1.603c.04 1.519.064 1.638.438 2.242.287.465.586.739 1.096 1.005.647.338.814.366 2.192.366h1.492v5.556c0 3.056.062 6.166.137 6.913.504 4.98 2.52 9.878 5.63 13.675.869 1.062 2.882 3.062 3.931 3.905 2.931 2.357 7.105 4.308 10.83 5.061 14.918 3.018 29.162-7.49 30.694-22.641.076-.747.137-3.857.137-6.913v-5.556h1.492c1.379 0 1.545-.027 2.193-.366.51-.266.808-.54 1.096-1.005.374-.604.397-.723.438-2.242l.043-1.603.48-.09c.687-.127 1.296-.54 1.703-1.154L67 9.226V2.243l-.352-.532a3.356 3.356 0 00-.851-.842l-.5-.311L51.933.523C42.027.497 38.475.527 38.203.64c-.637.263-.906 1.065-.591 1.756.34.748-.242.717 13.856.717h12.977v5.242H2.605V3.113h12.977c14.097 0 13.515.03 13.856-.717.198-.434.198-.752 0-1.186-.341-.749.266-.719-14.085-.706C7.455.511 1.972.566 1.714.64zm31.17.035c-1.137.63-.661 2.438.64 2.438.664 0 1.31-.64 1.31-1.297 0-.984-1.087-1.62-1.95-1.14zm28.912 11.58l-.038 1.277H5.29l-.037-1.278-.038-1.278h56.62l-.038 1.278zm-5.215 9.5c-.002 3.045-.06 6.087-.131 6.76-.304 2.88-1.027 5.325-2.356 7.967-1.054 2.093-2.153 3.683-3.696 5.349l-1.087 1.172-.074-4.645c-.08-4.95-.132-5.423-.844-7.543-1.742-5.192-6.256-9.177-11.725-10.352-1.39-.298-4.608-.334-5.961-.066-3.207.636-5.985 2.112-8.266 4.393-2.16 2.162-3.551 4.658-4.276 7.678-.233.971-.277 1.717-.348 5.82l-.081 4.704-1.048-1.11c-2.765-2.928-4.881-6.978-5.705-10.92-.44-2.106-.516-3.45-.518-9.141v-5.603h46.118l-.002 5.537zm-19.978 1.392c4.752 1.181 8.389 4.813 9.662 9.649.256.97.28 1.467.327 6.699l.05 5.65-.834.528c-2.376 1.5-5.371 2.672-8.191 3.201-1.237.233-2.026.29-4.028.294-2.615.004-3.608-.108-5.722-.65a23.752 23.752 0 01-6.628-2.845l-.834-.528.05-5.65c.048-5.242.072-5.727.329-6.7 1.19-4.499 4.342-7.898 8.68-9.358 2.121-.714 4.967-.83 7.139-.29zm-4.979 3.891c-.523.103-1.453.444-2.162.793-1.032.509-1.437.806-2.372 1.74-.935.936-1.23 1.34-1.739 2.373-1.327 2.7-1.327 5.425 0 8.125.508 1.033.804 1.437 1.74 2.372.942.943 1.33 1.227 2.371 1.733 3.768 1.833 7.839 1.098 10.718-1.934 1.55-1.632 2.515-4.023 2.515-6.233s-.965-4.602-2.515-6.234c-2.279-2.4-5.317-3.371-8.556-2.735zm3.236 2.561c2.955.616 5.215 3.393 5.215 6.408 0 3.537-3.015 6.552-6.551 6.552-3.531 0-6.551-3.02-6.551-6.552 0-2.943 2.152-5.67 5.024-6.367.863-.21 1.98-.225 2.863-.041zm-2.603 2.71c-3.287 1.176-3.574 5.668-.46 7.198 1.06.52 2.393.52 3.454 0 1.405-.69 2.132-1.884 2.132-3.5 0-1.117-.272-1.863-.967-2.656-.94-1.07-2.786-1.532-4.159-1.041zm1.903 2.574c.884.457.858 1.867-.043 2.277-.672.307-1.405.086-1.717-.517-.615-1.19.57-2.375 1.76-1.76zm-1.277 19.784c-1.136.63-.66 2.438.64 2.438.665 0 1.31-.64 1.31-1.297 0-.984-1.086-1.62-1.95-1.14zm-3.605 3.687c-.54.282-.724.576-.729 1.167-.003.448.08.597.636 1.133 1.054 1.016 2.79 1.693 4.339 1.693 1.549 0 3.285-.677 4.338-1.693.541-.522.64-.693.64-1.105 0-.654-.318-1.1-.912-1.278-.556-.167-.723-.105-1.664.614-.633.483-1.656.841-2.402.841-.746 0-1.77-.358-2.402-.841-1.045-.798-1.23-.851-1.844-.531zm-4.041 3.93c-.392.392-.483.76-.332 1.341.255.987 3.42 2.994 5.67 3.595.843.225 1.422.28 2.949.28 1.526 0 2.106-.055 2.948-.28 2.242-.6 5.417-2.616 5.673-3.604.24-.924-.296-1.662-1.206-1.662-.452 0-.65.095-1.194.57-1.415 1.238-2.8 1.933-4.497 2.26-2.879.553-5.62-.227-7.945-2.26-.545-.475-.743-.57-1.194-.57-.404 0-.625.084-.872.33z" fill="url(#paint0_linear_1710_6114)"/><path fill-rule="evenodd" clip-rule="evenodd" d="M1.715.64C1.105.816.29 1.678.114 2.332c-.095.352-.132 1.664-.106 3.72L.05 9.226l.351.531a2.62 2.62 0 001.702 1.154l.48.09.044 1.603c.04 1.519.064 1.638.438 2.242.287.465.586.739 1.096 1.005.647.338.814.366 2.192.366h1.492v5.556c0 3.056.062 6.166.137 6.913.504 4.98 2.52 9.878 5.63 13.675.869 1.062 2.882 3.062 3.931 3.905 2.931 2.357 7.105 4.308 10.83 5.061 14.918 3.018 29.162-7.49 30.694-22.641.076-.747.137-3.857.137-6.913v-5.556h1.492c1.379 0 1.545-.027 2.193-.366.51-.266.808-.54 1.096-1.005.374-.604.397-.723.438-2.242l.043-1.603.48-.09c.687-.127 1.296-.54 1.703-1.154L67 9.226V2.243l-.352-.532a3.356 3.356 0 00-.851-.842l-.5-.311L51.933.523C42.027.497 38.475.527 38.203.64c-.637.263-.906 1.065-.591 1.756.34.748-.242.717 13.856.717h12.977v5.242H2.605V3.113h12.977c14.097 0 13.515.03 13.856-.717.198-.434.198-.752 0-1.186-.341-.749.266-.719-14.085-.706C7.455.511 1.972.566 1.714.64zm31.17.035c-1.137.63-.661 2.438.64 2.438.664 0 1.31-.64 1.31-1.297 0-.984-1.087-1.62-1.95-1.14zm28.912 11.58l-.038 1.277H5.29l-.037-1.278-.038-1.278h56.62l-.038 1.278zm-5.215 9.5c-.002 3.045-.06 6.087-.131 6.76-.304 2.88-1.027 5.325-2.356 7.967-1.054 2.093-2.153 3.683-3.696 5.349l-1.087 1.172-.074-4.645c-.08-4.95-.132-5.423-.844-7.543-1.742-5.192-6.256-9.177-11.725-10.352-1.39-.298-4.608-.334-5.961-.066-3.207.636-5.985 2.112-8.266 4.393-2.16 2.162-3.551 4.658-4.276 7.678-.233.971-.277 1.717-.348 5.82l-.081 4.704-1.048-1.11c-2.765-2.928-4.881-6.978-5.705-10.92-.44-2.106-.516-3.45-.518-9.141v-5.603h46.118l-.002 5.537zm-19.978 1.392c4.752 1.181 8.389 4.813 9.662 9.649.256.97.28 1.467.327 6.699l.05 5.65-.834.528c-2.376 1.5-5.371 2.672-8.191 3.201-1.237.233-2.026.29-4.028.294-2.615.004-3.608-.108-5.722-.65a23.752 23.752 0 01-6.628-2.845l-.834-.528.05-5.65c.048-5.242.072-5.727.329-6.7 1.19-4.499 4.342-7.898 8.68-9.358 2.121-.714 4.967-.83 7.139-.29zm-4.979 3.891c-.523.103-1.453.444-2.162.793-1.032.509-1.437.806-2.372 1.74-.935.936-1.23 1.34-1.739 2.373-1.327 2.7-1.327 5.425 0 8.125.508 1.033.804 1.437 1.74 2.372.942.943 1.33 1.227 2.371 1.733 3.768 1.833 7.839 1.098 10.718-1.934 1.55-1.632 2.515-4.023 2.515-6.233s-.965-4.602-2.515-6.234c-2.279-2.4-5.317-3.371-8.556-2.735zm3.236 2.561c2.955.616 5.215 3.393 5.215 6.408 0 3.537-3.015 6.552-6.551 6.552-3.531 0-6.551-3.02-6.551-6.552 0-2.943 2.152-5.67 5.024-6.367.863-.21 1.98-.225 2.863-.041zm-2.603 2.71c-3.287 1.176-3.574 5.668-.46 7.198 1.06.52 2.393.52 3.454 0 1.405-.69 2.132-1.884 2.132-3.5 0-1.117-.272-1.863-.967-2.656-.94-1.07-2.786-1.532-4.159-1.041zm1.903 2.574c.884.457.858 1.867-.043 2.277-.672.307-1.405.086-1.717-.517-.615-1.19.57-2.375 1.76-1.76zm-1.277 19.784c-1.136.63-.66 2.438.64 2.438.665 0 1.31-.64 1.31-1.297 0-.984-1.086-1.62-1.95-1.14zm-3.605 3.687c-.54.282-.724.576-.729 1.167-.003.448.08.597.636 1.133 1.054 1.016 2.79 1.693 4.339 1.693 1.549 0 3.285-.677 4.338-1.693.541-.522.64-.693.64-1.105 0-.654-.318-1.1-.912-1.278-.556-.167-.723-.105-1.664.614-.633.483-1.656.841-2.402.841-.746 0-1.77-.358-2.402-.841-1.045-.798-1.23-.851-1.844-.531zm-4.041 3.93c-.392.392-.483.76-.332 1.341.255.987 3.42 2.994 5.67 3.595.843.225 1.422.28 2.949.28 1.526 0 2.106-.055 2.948-.28 2.242-.6 5.417-2.616 5.673-3.604.24-.924-.296-1.662-1.206-1.662-.452 0-.65.095-1.194.57-1.415 1.238-2.8 1.933-4.497 2.26-2.879.553-5.62-.227-7.945-2.26-.545-.475-.743-.57-1.194-.57-.404 0-.625.084-.872.33z" fill="#fff"/><path clip-rule="evenodd" d="M1.715.64C1.105.816.29 1.678.114 2.332c-.095.352-.132 1.664-.106 3.72L.05 9.226l.351.531a2.62 2.62 0 001.702 1.154l.48.09.044 1.603c.04 1.519.064 1.638.438 2.242.287.465.586.739 1.096 1.005.647.338.814.366 2.192.366h1.492v5.556c0 3.056.062 6.166.137 6.913.504 4.98 2.52 9.878 5.63 13.675.869 1.062 2.882 3.062 3.931 3.905 2.931 2.357 7.105 4.308 10.83 5.061 14.918 3.018 29.162-7.49 30.694-22.641.076-.747.137-3.857.137-6.913v-5.556h1.492c1.379 0 1.545-.027 2.193-.366.51-.266.808-.54 1.096-1.005.374-.604.397-.723.438-2.242l.043-1.603.48-.09c.687-.127 1.296-.54 1.703-1.154L67 9.226V2.243l-.352-.532a3.356 3.356 0 00-.851-.842l-.5-.311L51.933.523C42.027.497 38.475.527 38.203.64c-.637.263-.906 1.065-.591 1.756.34.748-.242.717 13.856.717h12.977v5.242H2.605V3.113h12.977c14.097 0 13.515.03 13.856-.717.198-.434.198-.752 0-1.186-.341-.749.266-.719-14.085-.706C7.455.511 1.972.566 1.714.64zm31.17.035c-1.137.63-.661 2.438.64 2.438.664 0 1.31-.64 1.31-1.297 0-.984-1.087-1.62-1.95-1.14zm28.912 11.58l-.038 1.277H5.29l-.037-1.278-.038-1.278h56.62l-.038 1.278zm-5.215 9.5c-.002 3.045-.06 6.087-.131 6.76-.304 2.88-1.027 5.325-2.356 7.967-1.054 2.093-2.153 3.683-3.696 5.349l-1.087 1.172-.074-4.645c-.08-4.95-.132-5.423-.844-7.543-1.742-5.192-6.256-9.177-11.725-10.352-1.39-.298-4.608-.334-5.961-.066-3.207.636-5.985 2.112-8.266 4.393-2.16 2.162-3.551 4.658-4.276 7.678-.233.971-.277 1.717-.348 5.82l-.081 4.704-1.048-1.11c-2.765-2.928-4.881-6.978-5.705-10.92-.44-2.106-.516-3.45-.518-9.141v-5.603h46.118l-.002 5.537zm-19.978 1.392c4.752 1.181 8.389 4.813 9.662 9.649.256.97.28 1.467.327 6.699l.05 5.65-.834.528c-2.376 1.5-5.371 2.672-8.191 3.201-1.237.233-2.026.29-4.028.294-2.615.004-3.608-.108-5.722-.65a23.752 23.752 0 01-6.628-2.845l-.834-.528.05-5.65c.048-5.242.072-5.727.329-6.7 1.19-4.499 4.342-7.898 8.68-9.358 2.121-.714 4.967-.83 7.139-.29zm-4.979 3.891c-.523.103-1.453.444-2.162.793-1.032.509-1.437.806-2.372 1.74-.935.936-1.23 1.34-1.739 2.373-1.327 2.7-1.327 5.425 0 8.125.508 1.033.804 1.437 1.74 2.372.942.943 1.33 1.227 2.371 1.733 3.768 1.833 7.839 1.098 10.718-1.934 1.55-1.632 2.515-4.023 2.515-6.233s-.965-4.602-2.515-6.234c-2.279-2.4-5.317-3.371-8.556-2.735zm3.236 2.561c2.955.616 5.215 3.393 5.215 6.408 0 3.537-3.015 6.552-6.551 6.552-3.531 0-6.551-3.02-6.551-6.552 0-2.943 2.152-5.67 5.024-6.367.863-.21 1.98-.225 2.863-.041zm-2.603 2.71c-3.287 1.176-3.574 5.668-.46 7.198 1.06.52 2.393.52 3.454 0 1.405-.69 2.132-1.884 2.132-3.5 0-1.117-.272-1.863-.967-2.656-.94-1.07-2.786-1.532-4.159-1.041zm1.903 2.574c.884.457.858 1.867-.043 2.277-.672.307-1.405.086-1.717-.517-.615-1.19.57-2.375 1.76-1.76zm-1.277 19.784c-1.136.63-.66 2.438.64 2.438.665 0 1.31-.64 1.31-1.297 0-.984-1.086-1.62-1.95-1.14zm-3.605 3.687c-.54.282-.724.576-.729 1.167-.003.448.08.597.636 1.133 1.054 1.016 2.79 1.693 4.339 1.693 1.549 0 3.285-.677 4.338-1.693.541-.522.64-.693.64-1.105 0-.654-.318-1.1-.912-1.278-.556-.167-.723-.105-1.664.614-.633.483-1.656.841-2.402.841-.746 0-1.77-.358-2.402-.841-1.045-.798-1.23-.851-1.844-.531zm-4.041 3.93c-.392.392-.483.76-.332 1.341.255.987 3.42 2.994 5.67 3.595.843.225 1.422.28 2.949.28 1.526 0 2.106-.055 2.948-.28 2.242-.6 5.417-2.616 5.673-3.604.24-.924-.296-1.662-1.206-1.662-.452 0-.65.095-1.194.57-1.415 1.238-2.8 1.933-4.497 2.26-2.879.553-5.62-.227-7.945-2.26-.545-.475-.743-.57-1.194-.57-.404 0-.625.084-.872.33z" stroke="#121212" stroke-width=".8" mask="url(#a)"/></g><defs><linearGradient id="paint0_linear_1710_6114" x1="0" y1=".5" x2="68.34" y2="69.175" gradientUnits="userSpaceOnUse"><stop stop-color="#0ABD92"/><stop offset="1" stop-color="#009DB8"/></linearGradient></defs></svg>