<svg width="46" height="61" fill="none" xmlns="http://www.w3.org/2000/svg"><path fill-rule="evenodd" clip-rule="evenodd" d="M21.324.427c-2.215.265-3.795.634-5.427 1.266C11.804 3.28 8.285 6.21 7.25 8.891c-.36.934-.354 2.105.016 2.889.35.742 1.49 1.87 2.425 2.403l.721.41.001 2.328.002 2.327-.31.369c-.55.656-.624.994-.623 2.856.002 1.708.006 1.741.35 2.343.366.64 1.083 1.171 1.776 1.314.348.071.365.107.625 1.268.566 2.538 1.845 4.555 3.845 6.068l.87.658v.812c0 .481-.078 1.009-.192 1.295-.186.467-.208.481-.613.413-.622-.106-8.562 1.382-9.698 1.817-2.22.85-4.227 2.715-5.349 4.97-.725 1.457-.958 2.44-1.032 4.346L0 49.426l.323.254c.398.315.763.325 1.124.032.256-.208.28-.333.347-1.73.038-.827.13-1.722.204-1.987l.133-.482.545.277c.76.387 1.767.381 2.557-.014.639-.32 1.773-1.594 2.236-2.51.44-.872.307-2.31-.271-2.952-.157-.175-.143-.207.15-.326.445-.182 5.386-1.094 5.51-1.018.054.034.994 1.321 2.088 2.86s2.15 2.935 2.349 3.102c.198.168.542.34.764.381.36.068.609.053 1.38-.086.143-.026.407.179.78.606l.565.644-.838 6.067-.838 6.066H8.08v-3.75c0-3.595-.01-3.761-.233-3.986-.348-.349-.972-.312-1.275.075-.233.297-.242.443-.242 3.985v3.677H2.463l-.341-.342-.341-.343v-5.07l-.287-.287c-.35-.352-.748-.367-1.156-.045l-.307.243v2.586c0 1.624.05 2.755.135 3.04.192.643.86 1.376 1.55 1.698l.59.276h41.419l.59-.276c.69-.322 1.358-1.055 1.55-1.698.094-.316.135-2.108.135-5.907 0-4.48-.033-5.63-.184-6.434-.675-3.586-3.397-6.721-6.736-7.76-1.341-.418-8.03-1.646-8.911-1.637l-.722.008-.182-.458c-.104-.261-.183-.807-.183-1.272v-.814l.671-.498c2.138-1.586 3.466-3.629 4.045-6.223.26-1.161.277-1.197.624-1.268.694-.143 1.411-.673 1.777-1.314.343-.602.348-.635.35-2.343 0-1.862-.073-2.2-.623-2.856l-.31-.369.002-2.327.002-2.328.735-.431c1.525-.896 2.52-2.145 2.704-3.392.232-1.58-1.079-3.9-3.242-5.737C32.31 2.053 27.442.303 22.84.369c-.641.01-1.324.035-1.516.058zm5.106 2.028c3.715.737 7.437 2.774 9.54 5.222.751.875 1.137 1.542 1.29 2.23.126.564.115.667-.126 1.167-.16.332-.5.735-.862 1.023l-.598.476-.067-1.159c-.075-1.306-.168-1.596-.7-2.206-.511-.584-.813-.72-2.47-1.116-3.73-.888-6.422-1.222-9.888-1.224-3.423-.002-5.68.3-9.247 1.24-1.165.307-1.45.43-1.882.812-.738.653-.929 1.13-1.002 2.494l-.062 1.159-.597-.476c-1.405-1.116-1.387-2.314.06-4.127 2.364-2.963 6.801-5.207 11.446-5.788.994-.125 3.947.032 5.165.273zm.727 6.441c1.788.249 4.782.835 5.742 1.124.874.264.967.453.967 1.962v1.263h-1.392c-1.364 0-1.396.006-1.633.31-.315.401-.305.658.04 1.061.264.31.349.332 1.429.388l1.148.058-.731.49c-1.271.853-3.527 1.577-6.036 1.937-1.4.2-5.973.196-7.41-.008-2.46-.35-4.688-1.075-6.014-1.96l-.69-.459 7.563-.058 7.563-.06.223-.276c.294-.365.282-.817-.03-1.152l-.254-.27H12.165v-1.284c0-1.754.02-1.775 2.122-2.294 1.772-.436 3.928-.823 5.52-.988 1.558-.162 5.449-.048 7.35.216zm-14.204 8.51l.612.352v.792c0 .435-.035.79-.077.79-.043 0-.358-.088-.7-.196l-.623-.198v-.984c0-.542.04-.968.088-.946.049.021.364.197.7.39zm20.913.565v.975l-.623.198c-.342.108-.657.197-.7.197-.042 0-.076-.356-.075-.791l.002-.792.61-.37c.336-.204.65-.376.699-.381.048-.006.087.428.087.964zm-17.268.768c2.628.66 6.627.89 9.568.552 1.497-.173 3.794-.61 4.335-.827.172-.07.198.068.233 1.23l.04 1.308.381.341c.517.464 1.006.454 1.673-.033a3.93 3.93 0 011.096-.529c.82-.216.875-.111.875 1.668 0 1.74-.08 1.865-1.28 1.968-.954.081-1.124.267-1.228 1.344-.314 3.245-1.952 5.68-4.868 7.235-1.523.813-2.532 1.054-4.408 1.054-1.806 0-2.788-.221-4.234-.952-2.973-1.503-4.72-4.043-5.048-7.343-.108-1.078-.27-1.257-1.22-1.338-1.2-.103-1.282-.228-1.282-1.968 0-1.78.055-1.884.876-1.668.32.085.814.323 1.096.53.667.486 1.156.496 1.673.032l.38-.341.04-1.308c.029-.93.08-1.293.175-1.256.075.029.582.165 1.127.301zm3.5 16.75c.899.277 1.173.306 2.917.306 1.744 0 2.019-.03 2.917-.306a35.297 35.297 0 001.18-.38c.155-.06.198.047.25.63.035.387.202 1.006.37 1.376.248.543.278.7.158.812-.082.077-1.213.938-2.512 1.915l-2.363 1.776-2.362-1.776c-1.3-.977-2.43-1.838-2.512-1.915-.12-.111-.09-.27.157-.812.17-.37.336-.99.37-1.376.053-.583.096-.69.252-.63.102.04.633.212 1.179.38zm-1.608 4.904c1.43 1.076 2.64 1.991 2.688 2.034.088.078-2.419 1.184-2.678 1.181-.142-.002-3.652-4.843-3.652-5.038 0-.109.643-.227.9-.166.078.018 1.312.914 2.742 1.99zM30.9 38.45c.156 0 .283.05.283.114 0 .2-3.507 5.043-3.653 5.045-.17.002-2.774-1.086-2.722-1.139.02-.02 1.264-.96 2.763-2.09 1.553-1.17 2.795-2.028 2.887-1.992.088.034.287.062.442.062zm4.962.938c1.373.258 2.642.528 2.82.602.293.12.308.151.15.326-.577.642-.71 2.08-.27 2.952.462.916 1.597 2.19 2.236 2.51.789.395 1.796.4 2.556.014l.544-.276.14.423c.1.3.153 2.106.183 6.2l.041 5.776-.347.348-.347.35H39.7v-3.678c0-3.542-.01-3.688-.242-3.985-.303-.387-.928-.424-1.275-.075-.224.225-.233.391-.233 3.986v3.751H26.92l-.836-6.066-.836-6.067.564-.644c.373-.427.637-.632.78-.606.771.139 1.02.154 1.38.086.222-.041.564-.212.761-.378.197-.166 1.204-1.496 2.239-2.955 1.996-2.816 2.183-3.064 2.312-3.064.045 0 1.205.212 2.578.47zm-30.123 1.95c.478.61.289 1.21-.743 2.357-.499.555-.6.616-1.038.615-.33 0-.586-.084-.801-.264l-.316-.263.41-.608c.414-.612 1.943-2.147 2.14-2.147.059 0 .215.14.348.31zm35.818.46c.447.423.996 1.043 1.222 1.377l.41.608-.315.263c-.215.18-.47.264-.8.264-.438 0-.54-.06-1.04-.615-.734-.817-.983-1.243-.984-1.684 0-.355.376-.983.59-.983.058 0 .47.347.917.77zM23.865 44.03c.399.168.744.323.766.344.023.021-.13.253-.34.515l-.381.477h-1.79l-.381-.477c-.21-.262-.363-.494-.34-.515.095-.09 1.453-.64 1.59-.645.082-.002.476.133.875.301zm-.266 3.221c0 .07.341 2.581.758 5.58.417 3 .759 5.528.759 5.618 0 .133-.385.163-2.1.163-1.716 0-2.1-.03-2.1-.163 0-.09.34-2.617.758-5.617.417-3 .758-5.511.758-5.581 0-.074.243-.127.583-.127.34 0 .584.053.584.127zm-13.407 3.692c-.505.427-.62.948-.575 2.593.034 1.227.074 1.472.284 1.757.437.59.603.62 3.466.621 3.709.003 3.698.01 3.698-2.636 0-2.653.022-2.637-3.777-2.637h-2.739l-.357.302zm19.394-.074c-.205.126-.428.333-.496.461-.071.133-.124.943-.124 1.888 0 2.716-.023 2.699 3.698 2.696 2.863-.002 3.03-.031 3.466-.621.21-.285.25-.53.284-1.757.046-1.645-.07-2.166-.576-2.593l-.356-.302h-2.763c-2.529 0-2.793.02-3.133.228zm-14.271 2.41v.879h-3.967v-1.759h3.967v.88zm19.368 0v.879h-3.967v-1.759h3.967v.88z" fill="url(#paint0_linear_1710_6119)"/><defs><linearGradient id="paint0_linear_1710_6119" x1="0" y1=".367" x2="59.177" y2="45.958" gradientUnits="userSpaceOnUse"><stop stop-color="#0ABD92"/><stop offset="1" stop-color="#009DB8"/></linearGradient></defs></svg>