<svg width="65" height="65" fill="none" xmlns="http://www.w3.org/2000/svg"><g clip-path="url(#clip0_1710_6189)"><path d="M63.835.38H1.14a.634.634 0 00-.64.64v23.185c0 .358.281.64.64.64h2.188v10.248c0 .704.575 1.28 1.28 1.28h2.264v3.122H4.607v2.034h6.577v-2.034H8.906v-3.122h4.146v8.88H5.26c-.704 0-1.28.575-1.28 1.279v5.233c0 .704.576 1.28 1.28 1.28.703 0 1.28-.576 1.28-1.28v-3.953h16.095v3.505H16.2c-4.12 0-7.485 3.352-7.485 7.485v4.773c0 .358.282.64.64.64.358 0 .64-.282.64-.64v-4.773a6.211 6.211 0 016.205-6.205h32.729a6.211 6.211 0 016.206 6.205v4.9c0 .359.282.64.64.64.358 0 .64-.281.64-.64v-4.9c0-4.12-3.353-7.485-7.485-7.485h-6.782v-3.505h16.954v3.953c0 .704.575 1.28 1.28 1.28.703 0 1.279-.576 1.279-1.28v-5.233c0-.704-.576-1.28-1.28-1.28h-7.869v-8.88h4.3v3.123h-2.265v2.034h6.576v-2.034h-2.264v-3.122h1.535c.704 0 1.28-.576 1.28-1.28V24.845h2.187c.359 0 .64-.282.64-.64V1.02c-.026-.346-.32-.64-.665-.64zm-39.92 50.937v-3.16h16.953v3.16H23.915zm26.037-6.065H15.611v-8.88h34.341v8.88zm9.136-11.438H5.874V7.367h53.214v26.447zm4.107-10.249h-1.548V6.087c0-.703-.576-1.28-1.28-1.28H4.594c-.703 0-1.28.577-1.28 1.28v17.478H1.768V1.66h61.415v21.905h.013z" fill="url(#paint0_linear_1710_6189)"/><path d="M9.367 31.254h19.665c.359 0 .64-.282.64-.64V10.948a.634.634 0 00-.64-.64H9.367a.634.634 0 00-.64.64v19.666c0 .358.282.64.64.64zm.64-19.666h18.386v4.018c-.307-2.163-2.15-3.826-4.389-3.826a4.456 4.456 0 00-4.453 4.453 4.456 4.456 0 004.453 4.452c2.24 0 4.082-1.676 4.389-3.825v13.114H10.007V11.588zm17.17 4.645a3.173 3.173 0 11-3.173-3.174 3.18 3.18 0 013.173 3.174z" fill="url(#paint1_linear_1710_6189)"/><path d="M34.88 32.175h19.282a3.03 3.03 0 003.032-3.032V11.83a3.03 3.03 0 00-3.032-3.03H34.88a3.03 3.03 0 00-3.033 3.032v17.312a3.03 3.03 0 003.033 3.032zm-1.753-20.344c0-.972.793-1.753 1.753-1.753h19.282c.972 0 1.753.794 1.753 1.753v17.312c0 .972-.794 1.753-1.753 1.753H34.88a1.756 1.756 0 01-1.753-1.753V11.83z" fill="url(#paint2_linear_1710_6189)"/><path d="M37.093 29.411h14.855a2.25 2.25 0 002.24-2.239v-13.37a2.25 2.25 0 00-2.24-2.24H37.093a2.25 2.25 0 00-2.239 2.24v13.37c0 1.241.998 2.24 2.24 2.24zm-.96-15.61c0-.524.436-.959.96-.959h14.855c.525 0 .96.435.96.96v13.37c0 .525-.435.96-.96.96H37.093a.967.967 0 01-.96-.96v-13.37z" fill="url(#paint3_linear_1710_6189)"/><path d="M18.886 16.246a4.423 4.423 0 00-4.414-4.414 4.423 4.423 0 00-4.414 4.414 4.423 4.423 0 004.414 4.415 4.423 4.423 0 004.414-4.415zm-4.414 3.135a3.14 3.14 0 01-3.135-3.135 3.14 3.14 0 013.135-3.134 3.14 3.14 0 013.135 3.134 3.14 3.14 0 01-3.135 3.135z" fill="url(#paint4_linear_1710_6189)"/><path d="M19.194 19.559a4.456 4.456 0 00-4.453 4.452 4.456 4.456 0 004.453 4.453 4.456 4.456 0 004.452-4.453 4.456 4.456 0 00-4.453-4.452zm0 7.625a3.173 3.173 0 11-.002-6.345 3.173 3.173 0 01.002 6.345z" fill="url(#paint5_linear_1710_6189)"/><path d="M21.433 43.69H45.09a2.872 2.872 0 000-5.745H21.432a2.872 2.872 0 00-2.865 2.88c-.013 1.573 1.279 2.865 2.866 2.865zm0-4.478H45.09a1.59 1.59 0 011.587 1.6c0 .882-.717 1.586-1.587 1.586H21.432a1.589 1.589 0 01-1.586-1.6c-.013-.87.704-1.586 1.587-1.586z" fill="url(#paint6_linear_1710_6189)"/><path d="M32.385 54.31a.634.634 0 00-.64.64c0 .359.282.64.64.64.358 0 .64-.281.64-.64a.634.634 0 00-.64-.64z" fill="url(#paint7_linear_1710_6189)"/><path d="M39.32 54.31a.634.634 0 00-.64.64c0 .359.281.64.64.64.358 0 .64-.281.64-.64a.634.634 0 00-.64-.64z" fill="url(#paint8_linear_1710_6189)"/><path d="M46.255 54.31a.634.634 0 00-.64.64c0 .359.281.64.64.64.358 0 .64-.281.64-.64a.633.633 0 00-.64-.64z" fill="url(#paint9_linear_1710_6189)"/><path d="M19.193 54.31a.634.634 0 00-.64.64c0 .359.282.64.64.64.358 0 .64-.281.64-.64a.634.634 0 00-.64-.64z" fill="url(#paint10_linear_1710_6189)"/><path d="M26.128 54.31a.634.634 0 00-.64.64c0 .359.282.64.64.64.358 0 .64-.281.64-.64a.634.634 0 00-.64-.64z" fill="url(#paint11_linear_1710_6189)"/></g><defs><linearGradient id="paint0_linear_1710_6189" x1=".5" y1=".381" x2="65.741" y2="65.981" gradientUnits="userSpaceOnUse"><stop stop-color="#0ABD92"/><stop offset="1" stop-color="#009DB8"/></linearGradient><linearGradient id="paint1_linear_1710_6189" x1="8.727" y1="10.309" x2="30.091" y2="31.777" gradientUnits="userSpaceOnUse"><stop stop-color="#0ABD92"/><stop offset="1" stop-color="#009DB8"/></linearGradient><linearGradient id="paint2_linear_1710_6189" x1="31.847" y1="8.799" x2="55.604" y2="34.684" gradientUnits="userSpaceOnUse"><stop stop-color="#0ABD92"/><stop offset="1" stop-color="#009DB8"/></linearGradient><linearGradient id="paint3_linear_1710_6189" x1="34.854" y1="11.563" x2="52.995" y2="31.308" gradientUnits="userSpaceOnUse"><stop stop-color="#0ABD92"/><stop offset="1" stop-color="#009DB8"/></linearGradient><linearGradient id="paint4_linear_1710_6189" x1="10.058" y1="11.832" x2="19.063" y2="20.881" gradientUnits="userSpaceOnUse"><stop stop-color="#0ABD92"/><stop offset="1" stop-color="#009DB8"/></linearGradient><linearGradient id="paint5_linear_1710_6189" x1="14.741" y1="19.559" x2="23.824" y2="28.687" gradientUnits="userSpaceOnUse"><stop stop-color="#0ABD92"/><stop offset="1" stop-color="#009DB8"/></linearGradient><linearGradient id="paint6_linear_1710_6189" x1="18.566" y1="37.945" x2="20.763" y2="49.238" gradientUnits="userSpaceOnUse"><stop stop-color="#0ABD92"/><stop offset="1" stop-color="#009DB8"/></linearGradient><linearGradient id="paint7_linear_1710_6189" x1="31.745" y1="54.31" x2="33.05" y2="55.622" gradientUnits="userSpaceOnUse"><stop stop-color="#0ABD92"/><stop offset="1" stop-color="#009DB8"/></linearGradient><linearGradient id="paint8_linear_1710_6189" x1="38.68" y1="54.31" x2="39.985" y2="55.622" gradientUnits="userSpaceOnUse"><stop stop-color="#0ABD92"/><stop offset="1" stop-color="#009DB8"/></linearGradient><linearGradient id="paint9_linear_1710_6189" x1="45.615" y1="54.31" x2="46.92" y2="55.622" gradientUnits="userSpaceOnUse"><stop stop-color="#0ABD92"/><stop offset="1" stop-color="#009DB8"/></linearGradient><linearGradient id="paint10_linear_1710_6189" x1="18.553" y1="54.31" x2="19.858" y2="55.622" gradientUnits="userSpaceOnUse"><stop stop-color="#0ABD92"/><stop offset="1" stop-color="#009DB8"/></linearGradient><linearGradient id="paint11_linear_1710_6189" x1="25.488" y1="54.31" x2="26.794" y2="55.622" gradientUnits="userSpaceOnUse"><stop stop-color="#0ABD92"/><stop offset="1" stop-color="#009DB8"/></linearGradient><clipPath id="clip0_1710_6189"><path fill="#fff" transform="translate(.5 .367)" d="M0 0h64v64H0z"/></clipPath></defs></svg>