<svg width="163" height="156" fill="none" xmlns="http://www.w3.org/2000/svg"><path d="M60.559 13.287c8.933-16.756 32.95-16.756 41.882 0l57.016 106.954c8.426 15.807-3.028 34.894-20.942 34.894H24.485c-17.914 0-29.368-19.087-20.942-34.894L60.56 13.287z" stroke="url(#paint0_linear_1710_5827)" stroke-width="1.439"/><mask id="a" fill="#fff"><path fill-rule="evenodd" clip-rule="evenodd" d="M65.083 65.453c-1.664.409-3.42 1.418-4.521 2.598-.768.823-1.136 1.375-1.642 2.464-.746 1.606-.859 2.344-.859 5.633v2.87l.377.377c.52.52 1.17.524 1.681.012l.364-.363.054-2.968c.048-2.625.085-3.063.32-3.782.65-1.988 2.348-3.662 4.362-4.296l.856-.27H96.54l.856.27c2.044.644 3.736 2.331 4.375 4.361l.274.87v30.067l-4.771 4.004-4.772 4.005-1.743.005-1.744.006v-1.098c0-1.032-.02-1.122-.344-1.484-.287-.321-.434-.386-.88-.386-.444 0-.591.065-.878.386-.324.362-.345.452-.345 1.484v1.098h-3.67v-.947c0-1.191-.239-1.727-.874-1.965-.389-.146-.5-.143-.858.027-.61.289-.754.613-.814 1.815l-.053 1.07h-3.485l-.06-1.075c-.07-1.202-.214-1.527-.803-1.806-.33-.157-.481-.166-.836-.049-.672.222-.903.713-.903 1.921v1.009l-2.05-.005-2.05-.005-4.771-4.005-4.772-4.006-.031-6.863-.032-6.863-.375-.375c-.524-.524-1.169-.523-1.693.001l-.377.376v7.26c0 5.181.04 7.348.14 7.566.077.169.576.672 1.11 1.118.71.594.95.866.893 1.014-.042.111-2.338 4.549-5.102 9.861-3.468 6.666-5.043 9.813-5.084 10.156-.051.435-.01.546.331.887.491.49 1.174.538 1.637.114.166-.151 2.548-4.603 5.294-9.894l4.992-9.618.311.227c.171.126.545.438.831.694l.52.465-3.242 8.431c-1.825 4.744-3.242 8.602-3.242 8.824 0 .277.111.506.376.77.757.757 1.755.392 2.18-.797.094-.262.388-1.041.655-1.731l.484-1.253h31.521l.377-.376c.525-.525.525-1.168 0-1.693l-.376-.376H77.37c-14.52 0-15.293-.011-15.213-.214.047-.118.257-.668.468-1.223l.385-1.009h36.593l1.588 4.172c1.753 4.605 1.905 4.876 2.729 4.876.643 0 1.245-.554 1.245-1.146 0-.222-1.417-4.08-3.242-8.824l-3.243-8.431.52-.465c.287-.256.66-.568.832-.694l.311-.227 4.992 9.618c2.746 5.291 5.128 9.743 5.293 9.894.464.424 1.147.376 1.637-.114.341-.341.383-.452.332-.887-.041-.343-1.616-3.49-5.084-10.156-2.764-5.312-5.06-9.75-5.102-9.861-.056-.148.184-.42.893-1.014.533-.446 1.033-.949 1.11-1.118.102-.224.139-4.425.139-15.713 0-17.188.046-16.222-.858-18.169-.971-2.09-2.351-3.467-4.448-4.44-1.939-.9-.993-.855-18.025-.845-14.104.008-15.336.025-16.139.223zm1.543 8.685a3.906 3.906 0 00-2.342 1.965l-.289.55v12.838l.289.55a3.91 3.91 0 001.669 1.693l.611.325H96.05l.55-.288a3.908 3.908 0 001.694-1.668l.326-.612V76.653l-.326-.611a3.908 3.908 0 00-1.693-1.668l-.55-.288-14.56-.022c-8.008-.011-14.697.022-14.865.074zm13.458 8.938v6.607l-6.482-.035-6.482-.034-.339-.34-.339-.338V77.223l.29-.309c.16-.17.408-.332.551-.36.143-.028 3.082-.058 6.53-.068l6.27-.016v6.606zm15.75-6.206l.339.339v11.727l-.34.338-.339.34-6.481.034-6.482.035V76.462l6.482.034 6.481.035.34.339zm-36.991 6.073c-.8.337-1.022 1.375-.424 1.973 1.11 1.11 2.809-.44 1.753-1.598-.361-.396-.912-.551-1.33-.375zm7.953 12.53c-.651.203-1.521.806-1.999 1.384-1.289 1.562-1.159 4.034.288 5.475.852.849 1.6 1.189 2.755 1.254 1.222.068 2.138-.263 3.01-1.087 1.823-1.723 1.823-4.363 0-6.086-1.061-1.002-2.665-1.375-4.054-.94zm7.918.139c-.639.537-.625 1.384.032 1.916.24.194.794.211 6.91.214l6.65.002.354-.38c.588-.629.428-1.536-.34-1.928-.187-.096-2.217-.137-6.75-.137h-6.484l-.372.313zm18.329-.033c-.898.377-1.49.841-1.938 1.517-1.447 2.182-.664 5.032 1.685 6.132.578.271.862.324 1.73.324 1.25 0 2.119-.344 2.937-1.161.819-.818 1.163-1.687 1.163-2.935s-.345-2.117-1.163-2.934c-1.136-1.136-3.005-1.535-4.414-.943zm-24.282 2.407c.612.296.923.792.923 1.47 0 .687-.312 1.175-.95 1.483-.61.295-1.166.245-1.67-.152-1.002-.787-.847-2.253.298-2.828.546-.275.785-.27 1.4.027zm26.24-.122c.889.255 1.364 1.14 1.113 2.072-.424 1.574-2.765 1.564-3.19-.013-.24-.89.234-1.805 1.06-2.052.48-.144.539-.144 1.016-.007zm-20.127 3.444c-.313.152-.663.723-.663 1.083 0 .379.356.933.699 1.09.198.09 2.387.132 6.822.132h6.53l.377-.376c.525-.525.525-1.168 0-1.693l-.377-.376-6.566.008c-4.151.005-6.66.054-6.822.132zm-7.115 11.261l1.443 1.192h24.205l1.622-1.341 1.621-1.342.992 2.595.993 2.595-8.664.031c-4.765.018-12.562.018-17.327 0l-8.663-.031.986-2.587c.838-2.201 1.013-2.566 1.168-2.445.1.077.83.678 1.624 1.333zm28.607 9.027c-.29.29-.377.484-.377.847 0 .661.562 1.222 1.224 1.222.661 0 1.223-.561 1.223-1.222 0-.363-.087-.557-.376-.847-.29-.29-.485-.376-.847-.376-.363 0-.558.086-.847.376z"/></mask><path fill-rule="evenodd" clip-rule="evenodd" d="M65.083 65.453c-1.664.409-3.42 1.418-4.521 2.598-.768.823-1.136 1.375-1.642 2.464-.746 1.606-.859 2.344-.859 5.633v2.87l.377.377c.52.52 1.17.524 1.681.012l.364-.363.054-2.968c.048-2.625.085-3.063.32-3.782.65-1.988 2.348-3.662 4.362-4.296l.856-.27H96.54l.856.27c2.044.644 3.736 2.331 4.375 4.361l.274.87v30.067l-4.771 4.004-4.772 4.005-1.743.005-1.744.006v-1.098c0-1.032-.02-1.122-.344-1.484-.287-.321-.434-.386-.88-.386-.444 0-.591.065-.878.386-.324.362-.345.452-.345 1.484v1.098h-3.67v-.947c0-1.191-.239-1.727-.874-1.965-.389-.146-.5-.143-.858.027-.61.289-.754.613-.814 1.815l-.053 1.07h-3.485l-.06-1.075c-.07-1.202-.214-1.527-.803-1.806-.33-.157-.481-.166-.836-.049-.672.222-.903.713-.903 1.921v1.009l-2.05-.005-2.05-.005-4.771-4.005-4.772-4.006-.031-6.863-.032-6.863-.375-.375c-.524-.524-1.169-.523-1.693.001l-.377.376v7.26c0 5.181.04 7.348.14 7.566.077.169.576.672 1.11 1.118.71.594.95.866.893 1.014-.042.111-2.338 4.549-5.102 9.861-3.468 6.666-5.043 9.813-5.084 10.156-.051.435-.01.546.331.887.491.49 1.174.538 1.637.114.166-.151 2.548-4.603 5.294-9.894l4.992-9.618.311.227c.171.126.545.438.831.694l.52.465-3.242 8.431c-1.825 4.744-3.242 8.602-3.242 8.824 0 .277.111.506.376.77.757.757 1.755.392 2.18-.797.094-.262.388-1.041.655-1.731l.484-1.253h31.521l.377-.376c.525-.525.525-1.168 0-1.693l-.376-.376H77.37c-14.52 0-15.293-.011-15.213-.214.047-.118.257-.668.468-1.223l.385-1.009h36.593l1.588 4.172c1.753 4.605 1.905 4.876 2.729 4.876.643 0 1.245-.554 1.245-1.146 0-.222-1.417-4.08-3.242-8.824l-3.243-8.431.52-.465c.287-.256.66-.568.832-.694l.311-.227 4.992 9.618c2.746 5.291 5.128 9.743 5.293 9.894.464.424 1.147.376 1.637-.114.341-.341.383-.452.332-.887-.041-.343-1.616-3.49-5.084-10.156-2.764-5.312-5.06-9.75-5.102-9.861-.056-.148.184-.42.893-1.014.533-.446 1.033-.949 1.11-1.118.102-.224.139-4.425.139-15.713 0-17.188.046-16.222-.858-18.169-.971-2.09-2.351-3.467-4.448-4.44-1.939-.9-.993-.855-18.025-.845-14.104.008-15.336.025-16.139.223zm1.543 8.685a3.906 3.906 0 00-2.342 1.965l-.289.55v12.838l.289.55a3.91 3.91 0 001.669 1.693l.611.325H96.05l.55-.288a3.908 3.908 0 001.694-1.668l.326-.612V76.653l-.326-.611a3.908 3.908 0 00-1.693-1.668l-.55-.288-14.56-.022c-8.008-.011-14.697.022-14.865.074zm13.458 8.938v6.607l-6.482-.035-6.482-.034-.339-.34-.339-.338V77.223l.29-.309c.16-.17.408-.332.551-.36.143-.028 3.082-.058 6.53-.068l6.27-.016v6.606zm15.75-6.206l.339.339v11.727l-.34.338-.339.34-6.481.034-6.482.035V76.462l6.482.034 6.481.035.34.339zm-36.991 6.073c-.8.337-1.022 1.375-.424 1.973 1.11 1.11 2.809-.44 1.753-1.598-.361-.396-.912-.551-1.33-.375zm7.953 12.53c-.651.203-1.521.806-1.999 1.384-1.289 1.562-1.159 4.034.288 5.475.852.849 1.6 1.189 2.755 1.254 1.222.068 2.138-.263 3.01-1.087 1.823-1.723 1.823-4.363 0-6.086-1.061-1.002-2.665-1.375-4.054-.94zm7.918.139c-.639.537-.625 1.384.032 1.916.24.194.794.211 6.91.214l6.65.002.354-.38c.588-.629.428-1.536-.34-1.928-.187-.096-2.217-.137-6.75-.137h-6.484l-.372.313zm18.329-.033c-.898.377-1.49.841-1.938 1.517-1.447 2.182-.664 5.032 1.685 6.132.578.271.862.324 1.73.324 1.25 0 2.119-.344 2.937-1.161.819-.818 1.163-1.687 1.163-2.935s-.345-2.117-1.163-2.934c-1.136-1.136-3.005-1.535-4.414-.943zm-24.282 2.407c.612.296.923.792.923 1.47 0 .687-.312 1.175-.95 1.483-.61.295-1.166.245-1.67-.152-1.002-.787-.847-2.253.298-2.828.546-.275.785-.27 1.4.027zm26.24-.122c.889.255 1.364 1.14 1.113 2.072-.424 1.574-2.765 1.564-3.19-.013-.24-.89.234-1.805 1.06-2.052.48-.144.539-.144 1.016-.007zm-20.127 3.444c-.313.152-.663.723-.663 1.083 0 .379.356.933.699 1.09.198.09 2.387.132 6.822.132h6.53l.377-.376c.525-.525.525-1.168 0-1.693l-.377-.376-6.566.008c-4.151.005-6.66.054-6.822.132zm-7.115 11.261l1.443 1.192h24.205l1.622-1.341 1.621-1.342.992 2.595.993 2.595-8.664.031c-4.765.018-12.562.018-17.327 0l-8.663-.031.986-2.587c.838-2.201 1.013-2.566 1.168-2.445.1.077.83.678 1.624 1.333zm28.607 9.027c-.29.29-.377.484-.377.847 0 .661.562 1.222 1.224 1.222.661 0 1.223-.561 1.223-1.222 0-.363-.087-.557-.376-.847-.29-.29-.485-.376-.847-.376-.363 0-.558.086-.847.376z" fill="url(#paint1_linear_1710_5827)" stroke="#0C0C0C" stroke-width=".432" mask="url(#a)"/><defs><linearGradient id="paint0_linear_1710_5827" x1="0" y1="0" x2="158.778" y2="166.871" gradientUnits="userSpaceOnUse"><stop stop-color="#0ABD92"/><stop offset="1" stop-color="#009DB8"/></linearGradient><linearGradient id="paint1_linear_1710_5827" x1="50" y1="65.227" x2="113.867" y2="129.407" gradientUnits="userSpaceOnUse"><stop stop-color="#0ABD92"/><stop offset="1" stop-color="#009DB8"/></linearGradient></defs></svg>