<svg width="79" height="48" fill="none" xmlns="http://www.w3.org/2000/svg"><path d="M77.72 39.638h-4.01v-1.965h.22a3.871 3.871 0 003.868-3.885.772.772 0 00-.78-.78h-3.323V29.42h1.295c.858 0 1.56-.702 1.56-1.56V7.034c0-3.619-2.948-6.567-6.568-6.567H48.704c-3.62 0-6.568 2.948-6.568 6.567V27.86c0 .858.702 1.56 1.56 1.56h1.451v3.588h-5.101a.722.722 0 00-.39.125.823.823 0 00-.39-.125h-3.323V29.42h1.295c.858 0 1.56-.702 1.56-1.56V7.034c0-3.619-2.948-6.567-6.568-6.567H10.936c-3.619 0-6.583 2.948-6.583 6.567V27.86c0 .858.702 1.56 1.56 1.56h1.451v3.588H2.263a.782.782 0 00-.78.78 3.868 3.868 0 003.869 3.87h.093v1.965H1.28a.772.772 0 00-.78.78v6.427c0 .437.343.78.78.78h76.44c.437 0 .78-.343.78-.78v-6.427a.77.77 0 00-.78-.765zm-5.57 0h-.998v-1.965h.999v1.965zm-24.803 0v-1.965h22.245v1.965H47.347zm-2.559-1.965h.999v1.965h-.999v-1.965zm.468-30.639c0-.187.032-.358.047-.546a3.43 3.43 0 001.981.78V26.3h-2.043V7.034h.015zm3.588.266h1.872v16.192c0 .437.344.78.78.78H67.33c.437 0 .78-.343.78-.78V7.3h1.95v19H48.844v-19zm3.432 0H66.55v15.412H52.276V7.3zm21.17-.266V26.3h-1.81v-19h.078c.64 0 1.232-.219 1.7-.562.016.094.032.203.032.296zM48.704 3.587h21.294c1.186 0 2.215.593 2.84 1.497-.235.39-.64.656-1.124.656h-.764c-.032 0-.063-.016-.094-.016H48.08c-.031 0-.062.016-.094.016h-.53c-.624 0-1.139-.328-1.466-.812a3.421 3.421 0 012.714-1.341zM46.707 29.42h25.46v3.588h-25.46V29.42zm-.78 5.148H76.13a2.299 2.299 0 01-2.184 1.545H43.135a2.33 2.33 0 01-2.184-1.545h4.976zm-6.271.905c.624 1.295 1.95 2.215 3.479 2.215h.093v1.966h-7.285v-1.966h.219c1.544-.015 2.854-.92 3.494-2.215zM9.579 39.638v-1.965h22.246v1.965H9.579zm23.806-1.965h.998v1.965h-.998v-1.965zM7.473 7.034c0-.187.031-.358.047-.546a3.43 3.43 0 001.981.78v19.048H7.473V7.034zm17.082.266v6.427H11.077V7.3h13.478zm-13.478 7.987h14.258c.437 0 .78-.343.78-.78V7.3h6.178v19H11.077V15.287zm24.601-8.253V26.3h-1.81v-19h.078c.64 0 1.233-.219 1.7-.562 0 .094.032.203.032.296zM10.936 3.587H32.23c1.186 0 2.216.593 2.84 1.497-.25.39-.656.656-1.14.656h-.764c-.03 0-.062-.016-.093-.016H10.297c-.031 0-.063.016-.094.016h-.515c-.624 0-1.138-.328-1.466-.812a3.421 3.421 0 012.714-1.341zM8.924 29.42h25.46v3.588H8.923V29.42zm-5.74 5.148h35.162a2.299 2.299 0 01-2.184 1.545H5.367a2.299 2.299 0 01-2.184-1.545zm3.837 3.105h.998v1.965h-.998v-1.965zM76.94 46.05H2.06v-4.867h74.88v4.867z" fill="url(#paint0_linear_1710_6262)"/><defs><linearGradient id="paint0_linear_1710_6262" x1=".5" y1=".467" x2="42.978" y2="71.092" gradientUnits="userSpaceOnUse"><stop stop-color="#0ABD92"/><stop offset="1" stop-color="#009DB8"/></linearGradient></defs></svg>