<svg width="65" height="65" fill="none" xmlns="http://www.w3.org/2000/svg"><path d="M63.207 62.038h-7.475v-4.185h7.104c.358 0 .64-.282.64-.64a.634.634 0 00-.64-.64h-7.104v-6.887h7.104c.358 0 .64-.281.64-.64a.634.634 0 00-.64-.64h-7.104V3.427h7.475c.704 0 1.28-.576 1.28-1.28 0-.704-.576-1.28-1.28-1.28h-8.755c-.704 0-1.28.576-1.28 1.28v19.93h-6.323V4.86A3.999 3.999 0 0042.855.867H4.494A3.999 3.999 0 00.5 4.861v55.744a3.999 3.999 0 003.994 3.993h38.361a3.999 3.999 0 003.994-3.993V47.869h6.323V63.33c0 .704.576 1.28 1.28 1.28h8.755a1.286 1.286 0 000-2.573zM38.76 51.875c0 .883-.717 1.613-1.613 1.613H22.132c-.883 0-1.613-.73-1.613-1.613V18.8h18.24v33.075zm-10.15 2.893h15.692v2.202H29.62a1.027 1.027 0 01-1.024-1.024v-1.178h.013zm18.24-26.74h6.323V41.93H46.85V28.029zm6.336-4.671v3.379h-6.323v-3.38h6.323zM44.289 4.86v1.651h-2.995V3.427h1.548c.807 0 1.447.64 1.447 1.434zM3.047 42.85h13.005V54.6H3.047V42.85zm13.018-1.28H3.047V9.072h13.005v32.5h.013zM10.177 3.504a2.513 2.513 0 012.509 2.509v.486h-5.03v-.473c.012-1.396 1.138-2.522 2.52-2.522zm3.801 3.008v-.486c0-1.012-.396-1.92-1.036-2.599h23.193v3.085H13.978zm26.048-3.085v3.085h-2.61V3.427h2.61zM3.047 4.861c0-.794.64-1.434 1.434-1.434h2.944a3.768 3.768 0 00-1.037 2.599v.486h-3.34V4.861zm0 55.744v-4.736h13.005v6.17H4.481a1.44 1.44 0 01-1.434-1.434zm39.808 1.433h-25.51V9.072h26.957v1.946h-1.856a.634.634 0 00-.64.64c0 .358.281.64.64.64h1.856v2.675h-1.856a.634.634 0 00-.64.64c0 .358.281.64.64.64h1.856v2.675h-1.856a.634.634 0 00-.64.64c0 .358.281.64.64.64h1.856v2.675h-1.856a.634.634 0 00-.64.64c0 .359.281.64.64.64h1.856v2.675h-1.856a.634.634 0 00-.64.64c0 .359.281.64.64.64h1.856v2.676h-1.856a.634.634 0 00-.64.64c0 .358.281.64.64.64h1.856v2.675h-1.856a.634.634 0 00-.64.64c0 .358.281.64.64.64h1.856v2.675h-1.856a.634.634 0 00-.64.64c0 .358.281.64.64.64h1.856v2.675h-1.856a.634.634 0 00-.64.64c0 .359.281.64.64.64h1.856v2.675h-1.856a.634.634 0 00-.64.64c0 .359.281.64.64.64h1.856v2.676h-1.856a.634.634 0 00-.64.64c0 .358.281.64.64.64h1.856v1.587h-4.75c.308-.461.5-1.011.5-1.613V18.16a.634.634 0 00-.64-.64H19.879a.634.634 0 00-.64.64v33.715a2.89 2.89 0 002.893 2.893h5.197v1.19a2.31 2.31 0 002.304 2.304h14.669v2.343a1.45 1.45 0 01-1.447 1.433zm3.994-15.45V43.21h6.323v3.379h-6.323z" fill="url(#paint0_linear_1710_6135)"/><defs><linearGradient id="paint0_linear_1710_6135" x1=".5" y1=".867" x2="65.517" y2="66.452" gradientUnits="userSpaceOnUse"><stop stop-color="#0ABD92"/><stop offset="1" stop-color="#009DB8"/></linearGradient></defs></svg>