<svg width="71" height="44" fill="none" xmlns="http://www.w3.org/2000/svg"><path d="M14.612 13.213c-5.055 0-9.16 4.104-9.16 9.159 0 5.055 4.105 9.159 9.16 9.159s9.159-4.104 9.159-9.16c0-5.054-4.104-9.158-9.16-9.158zm0 16.898c-4.26 0-7.74-3.465-7.74-7.74 0-4.26 3.466-7.738 7.74-7.738a7.739 7.739 0 017.739 7.739c0 4.26-3.465 7.739-7.74 7.739z" fill="url(#paint0_linear_1710_6217)"/><path d="M14.612 16.506a5.866 5.866 0 00-5.865 5.864 5.866 5.866 0 005.865 5.865 5.866 5.866 0 005.865-5.864c.014-3.238-2.628-5.865-5.865-5.865zm0 10.31a4.442 4.442 0 01-4.445-4.445 4.442 4.442 0 014.445-4.445 4.442 4.442 0 014.444 4.445c.015 2.456-1.988 4.444-4.444 4.444z" fill="url(#paint1_linear_1710_6217)"/><path d="M46.434 13.213H34.321a2.742 2.742 0 00-2.74 2.74v18.162a2.751 2.751 0 002.74 2.74h12.113a2.751 2.751 0 002.74-2.74V15.953a2.751 2.751 0 00-2.74-2.74zm1.32 20.902c0 .724-.596 1.32-1.32 1.32H34.321c-.724 0-1.32-.596-1.32-1.32V15.953c0-.724.596-1.32 1.32-1.32h12.113c.724 0 1.32.596 1.32 1.32v18.162z" fill="url(#paint2_linear_1710_6217)"/><path d="M27.065 13.213h-3.55a.703.703 0 00-.71.71c0 .397.313.71.71.71h3.55c.753 0 1.378.61 1.378 1.377v13.632a1.38 1.38 0 01-1.378 1.378h-5.211a.703.703 0 00-.71.71c0 .397.312.71.71.71h5.211a2.803 2.803 0 002.798-2.798V16.01a2.794 2.794 0 00-2.798-2.797z" fill="url(#paint3_linear_1710_6217)"/><path d="M70.276.574h-51.66a3.37 3.37 0 00-3.067 1.931 3.368 3.368 0 00.398 3.607.7.7 0 00.553.27h34.492l8.904 9.727a.719.719 0 00.525.227h4.09c-2.784 9.244-8.208 10.167-9.983 10.196V18.48c0-5.609-4.558-10.153-10.153-10.153H14.044C6.304 8.327 0 14.618 0 22.371c0 6.603 4.501 12.24 10.948 13.689l30.331 6.83c.796.185 1.605.27 2.414.27a10.76 10.76 0 006.76-2.386 10.898 10.898 0 003.11-4.004c2.115-.511 13.93-4.09 15.023-20.448h1.704c.398 0 .71-.312.71-.71V1.27a.731.731 0 00-.724-.696zM51.674 32.297a7.963 7.963 0 01-3.01 6.262 7.976 7.976 0 01-6.774 1.562l-30.331-6.83c-5.14-1.164-8.733-5.652-8.733-10.92 0-6.177 5.027-11.204 11.204-11.204h30.33c4.034 0 7.314 3.28 7.314 7.313v13.817zm2.442 2.868a10.68 10.68 0 00.398-2.868v-4.374c2.187-.085 8.52-1.235 11.473-11.601h1.15c-.965 13.902-9.812 17.864-13.02 18.843zm15.45-20.249h-8.833L51.83 5.19a.719.719 0 00-.525-.227H16.87a1.946 1.946 0 01-.057-1.832 1.936 1.936 0 011.789-1.122h50.95v12.908h.014z" fill="url(#paint4_linear_1710_6217)"/><defs><linearGradient id="paint0_linear_1710_6217" x1="5.453" y1="13.213" x2="24.137" y2="31.989" gradientUnits="userSpaceOnUse"><stop stop-color="#0ABD92"/><stop offset="1" stop-color="#009DB8"/></linearGradient><linearGradient id="paint1_linear_1710_6217" x1="8.747" y1="16.506" x2="20.711" y2="28.528" gradientUnits="userSpaceOnUse"><stop stop-color="#0ABD92"/><stop offset="1" stop-color="#009DB8"/></linearGradient><linearGradient id="paint2_linear_1710_6217" x1="31.581" y1="13.213" x2="54.713" y2="30.511" gradientUnits="userSpaceOnUse"><stop stop-color="#0ABD92"/><stop offset="1" stop-color="#009DB8"/></linearGradient><linearGradient id="paint3_linear_1710_6217" x1="21.144" y1="13.213" x2="35.944" y2="19.957" gradientUnits="userSpaceOnUse"><stop stop-color="#0ABD92"/><stop offset="1" stop-color="#009DB8"/></linearGradient><linearGradient id="paint4_linear_1710_6217" x1="0" y1=".574" x2="38.233" y2="64.63" gradientUnits="userSpaceOnUse"><stop stop-color="#0ABD92"/><stop offset="1" stop-color="#009DB8"/></linearGradient></defs></svg>