<svg width="66" height="66" fill="none" xmlns="http://www.w3.org/2000/svg"><path d="M57.679 29.629a4.447 4.447 0 00-4.438 4.438 4.448 4.448 0 004.438 4.438 4.447 4.447 0 004.437-4.438 4.447 4.447 0 00-4.437-4.438zm0 7.542a3.123 3.123 0 01-3.117-3.117c0-1.717 1.4-3.118 3.117-3.118s3.117 1.4 3.117 3.117c0 1.718-1.4 3.118-3.117 3.118z" fill="url(#paint0_linear_1710_6205)"/><path d="M57.679 25.443c-2.206 0-4.214.871-5.72 2.271v-7.687c0-.726-.594-1.32-1.32-1.32h-18.28V1.008c0-.37-.29-.66-.66-.66H3.169c-.369 0-.66.29-.66.66V18.72H1.321C.594 18.72 0 19.314 0 20.04v32.888c0 .727.594 1.32 1.32 1.32h15.982v2.075c0 .37.29.66.66.66h.753l-7.541 7.542a.654.654 0 000 .937.663.663 0 00.462.199.64.64 0 00.462-.199l7.436-7.436v2.695l-4.08 4.081a.654.654 0 000 .938.663.663 0 00.461.198.641.641 0 00.463-.198l3.143-3.144V65c0 .37.29.66.66.66.37 0 .661-.29.661-.66v-5.257h1.902V65c0 .37.29.66.66.66.37 0 .66-.29.66-.66v-5.257h4.623V65c0 .37.291.66.66.66.37 0 .661-.29.661-.66v-5.257h1.902V65c0 .37.29.66.66.66.37 0 .661-.29.661-.66v-2.39l3.13 3.13a.664.664 0 00.463.198.64.64 0 00.462-.198.654.654 0 000-.938l-4.068-4.068v-2.708l7.423 7.423a.664.664 0 00.462.198.641.641 0 00.462-.198.654.654 0 000-.938l-7.542-7.541h.806c.37 0 .66-.29.66-.66v-2.074H50.6c.727 0 1.321-.595 1.321-1.321V39.192a7.665 7.665 0 005.72 2.562 7.71 7.71 0 006.246-3.21.67.67 0 00-.145-.924.67.67 0 00-.924.146 6.396 6.396 0 01-5.178 2.654c-2.523 0-4.675-1.479-5.719-3.605V33.79a5.721 5.721 0 015.72-5.72 5.721 5.721 0 015.718 5.72c0 .726.594 1.32 1.32 1.32.727 0 1.322-.594 1.322-1.32.04-4.596-3.712-8.347-8.321-8.347zm-8.348 20.71l-2.14-2.14V24.32c0-.37-.29-.66-.66-.66H5.098c-.37 0-.66.29-.66.66v19.693l-1.81 1.81V21.347h46.69v24.805h.013zM31.038 1.668V18.72H5.072l2.813-4.544h14.82a3.359 3.359 0 003.288 2.695 3.36 3.36 0 003.355-3.355 3.36 3.36 0 00-3.355-3.355 3.359 3.359 0 00-3.289 2.694H7.528a.648.648 0 00-.554.317l-3.144 5.06V1.667h27.208zm-5.045 11.188h-1.915a2.042 2.042 0 011.915-1.374 2.035 2.035 0 010 4.068 2.042 2.042 0 01-1.915-1.374h1.915c.37 0 .66-.29.66-.66 0-.37-.29-.66-.66-.66zm3.381 45.553h-8.506v-1.426H31.95v1.426h-2.576zm4.848-2.747h-15.6V54.25H34.22v1.413zm-31.58-4.055v-3.922l2.932-2.933a.672.672 0 00.198-.462V24.98H45.87v19.297c0 .172.066.343.198.462l3.276 3.276v3.58H2.642v.012z" fill="url(#paint1_linear_1710_6205)"/><path d="M25.98 25.654c-4.015 0-7.291 3.263-7.291 7.291 0 4.015 3.262 7.29 7.29 7.29a7.288 7.288 0 007.291-7.29c0-4.028-3.275-7.29-7.29-7.29zm0 13.248a5.98 5.98 0 01-5.97-5.97 5.98 5.98 0 015.97-5.97 5.98 5.98 0 015.97 5.97 5.98 5.98 0 01-5.97 5.97z" fill="url(#paint2_linear_1710_6205)"/><path d="M25.98 28.031a4.907 4.907 0 00-4.9 4.9c0 2.708 2.192 4.9 4.9 4.9 2.707 0 4.9-2.192 4.9-4.9 0-2.707-2.192-4.9-4.9-4.9zm0 8.48a3.582 3.582 0 01-3.58-3.58 3.582 3.582 0 013.58-3.579 3.59 3.59 0 013.58 3.58 3.59 3.59 0 01-3.58 3.579z" fill="url(#paint3_linear_1710_6205)"/><path d="M7.529 45.52a2.55 2.55 0 00-2.55 2.549 2.542 2.542 0 002.55 2.549 2.542 2.542 0 002.549-2.55 2.55 2.55 0 00-2.55-2.548zm0 3.777A1.235 1.235 0 016.3 48.069c0-.674.555-1.229 1.229-1.229.673 0 1.228.555 1.228 1.229 0 .673-.555 1.228-1.228 1.228z" fill="url(#paint4_linear_1710_6205)"/><path d="M43.784 45.52a2.55 2.55 0 00-2.55 2.549 2.542 2.542 0 002.55 2.549 2.542 2.542 0 002.55-2.55 2.542 2.542 0 00-2.55-2.548zm0 3.777a1.234 1.234 0 01-1.228-1.228c0-.674.554-1.229 1.228-1.229.674 0 1.228.555 1.228 1.229 0 .673-.554 1.228-1.228 1.228z" fill="url(#paint5_linear_1710_6205)"/><path d="M5.732 3.926c.37 0 .66-.29.66-.66 0-.37-.29-.66-.66-.66-.37 0-.66.29-.66.66 0 .37.29.66.66.66z" fill="url(#paint6_linear_1710_6205)"/><path d="M29.07 3.926c.37 0 .66-.29.66-.66 0-.37-.29-.66-.66-.66-.37 0-.66.29-.66.66 0 .37.29.66.66.66z" fill="url(#paint7_linear_1710_6205)"/><defs><linearGradient id="paint0_linear_1710_6205" x1="53.241" y1="29.629" x2="62.294" y2="38.727" gradientUnits="userSpaceOnUse"><stop stop-color="#0ABD92"/><stop offset="1" stop-color="#009DB8"/></linearGradient><linearGradient id="paint1_linear_1710_6205" x1="0" y1=".348" x2="66.899" y2="67.994" gradientUnits="userSpaceOnUse"><stop stop-color="#0ABD92"/><stop offset="1" stop-color="#009DB8"/></linearGradient><linearGradient id="paint2_linear_1710_6205" x1="18.689" y1="25.654" x2="33.562" y2="40.6" gradientUnits="userSpaceOnUse"><stop stop-color="#0ABD92"/><stop offset="1" stop-color="#009DB8"/></linearGradient><linearGradient id="paint3_linear_1710_6205" x1="21.08" y1="28.031" x2="31.076" y2="38.077" gradientUnits="userSpaceOnUse"><stop stop-color="#0ABD92"/><stop offset="1" stop-color="#009DB8"/></linearGradient><linearGradient id="paint4_linear_1710_6205" x1="4.979" y1="45.52" x2="10.18" y2="50.745" gradientUnits="userSpaceOnUse"><stop stop-color="#0ABD92"/><stop offset="1" stop-color="#009DB8"/></linearGradient><linearGradient id="paint5_linear_1710_6205" x1="41.235" y1="45.52" x2="46.435" y2="50.745" gradientUnits="userSpaceOnUse"><stop stop-color="#0ABD92"/><stop offset="1" stop-color="#009DB8"/></linearGradient><linearGradient id="paint6_linear_1710_6205" x1="5.072" y1="2.605" x2="6.419" y2="3.959" gradientUnits="userSpaceOnUse"><stop stop-color="#0ABD92"/><stop offset="1" stop-color="#009DB8"/></linearGradient><linearGradient id="paint7_linear_1710_6205" x1="28.41" y1="2.605" x2="29.757" y2="3.959" gradientUnits="userSpaceOnUse"><stop stop-color="#0ABD92"/><stop offset="1" stop-color="#009DB8"/></linearGradient></defs></svg>