<svg width="51" height="51" fill="none" xmlns="http://www.w3.org/2000/svg"><path fill-rule="evenodd" clip-rule="evenodd" d="M3.608.164C1.868.632.45 2.106.095 3.82c-.077.367-.101 3.959-.082 11.927L.04 27.148l.235.449c.13.246.346.593.48.771l.242.324-.243.324a6.96 6.96 0 00-.479.772l-.235.448-.03 4.617c-.033 5.073-.016 5.275.539 6.38.565 1.128 1.975 2.246 3.099 2.457l.315.059.034 1.129c.028.952.065 1.172.239 1.403.39.523.7.677 1.443.719l.695.039v1.736c0 1.71.004 1.74.245 1.98.324.324.783.324 1.107 0 .241-.24.245-.27.245-1.98v-1.736l.695-.04c.742-.041 1.052-.195 1.443-.718.172-.23.211-.452.24-1.363l.034-1.088h6.349l.034 1.088c.028.911.067 1.133.24 1.363.39.523.7.677 1.443.719l.695.039v1.736c0 1.71.004 1.74.245 1.98.324.324.782.324 1.106 0 .241-.24.245-.27.245-1.98v-1.736l.695-.04c.743-.041 1.053-.195 1.444-.718.173-.231.21-.45.239-1.403l.033-1.129.316-.06c1.137-.213 2.53-1.319 3.103-2.464.55-1.096.567-1.305.535-6.372l-.03-4.617-.236-.448a6.958 6.958 0 00-.479-.772l-.243-.324.243-.324c.134-.178.35-.525.48-.771l.235-.449.028-7.744.028-7.745-.248-.247a.78.78 0 00-1.069-.057l-.236.19-.05 7.67c-.048 7.552-.052 7.674-.255 7.945-.33.442-.66.635-1.237.726-.61.096-.902.357-.902.806 0 .45.292.71.902.806.577.091.907.285 1.237.726.2.27.206.384.206 4.974v4.698l-.27.508c-.397.754-.698 1.064-1.396 1.442l-.629.34H3.93l-.628-.34c-.699-.378-1-.688-1.397-1.442l-.27-.508v-4.698c0-4.59.006-4.705.206-4.974.33-.441.66-.635 1.238-.726.61-.096.901-.357.901-.806 0-.45-.291-.71-.901-.806-.578-.091-.907-.284-1.238-.726-.205-.274-.205-.316-.205-11.745V3.945l.247-.499c.136-.274.427-.678.648-.898.22-.22.626-.512.9-.648l.5-.246h19.253l.51.268c.756.398 1.066.698 1.441 1.395l.339.627.052 1.827c.05 1.77.06 1.832.288 2.017a.78.78 0 001.066-.055c.24-.24.245-.277.245-1.871 0-1.14-.046-1.802-.153-2.212A4.866 4.866 0 0023.464.16C22.636-.057 4.41-.053 3.608.163zm.617 5.668l-.245.244V19.44l.245.245c.324.323.782.323 1.106 0l.245-.245V6.076l-.245-.244a.804.804 0 00-.553-.244.804.804 0 00-.553.244zm21.548 3.187c-.494.494-.144 1.349.554 1.349.41 0 .798-.388.798-.797 0-.41-.388-.797-.798-.797a.805.805 0 00-.554.245zm12.982 2.249c-1.526.24-3.28.93-4.542 1.785-.82.556-1.89 1.574-2.508 2.384-.696.915-1.535 2.655-1.852 3.844-.238.888-.266 1.175-.266 2.64 0 1.455.03 1.753.26 2.616.44 1.647 1.34 3.339 2.398 4.513l.457.507.03 2.648c.028 2.494.041 2.663.235 2.922.391.523.7.677 1.444.719l.695.039v12.236l.245.244c.324.324.782.324 1.106 0l.245-.244V35.885l.695-.04c.743-.041 1.052-.195 1.444-.718.173-.23.21-.45.238-1.388l.033-1.113h2.362l.033 1.113c.028.938.066 1.157.239 1.388.391.523.7.677 1.444.719l.695.039v14.626l.245.244a.805.805 0 00.553.245c.194 0 .399-.09.553-.245l.245-.244V35.885l.695-.04c.743-.041 1.053-.195 1.444-.718.193-.259.207-.428.235-2.922l.03-2.648.457-.507c1.058-1.174 1.957-2.866 2.398-4.513.23-.863.26-1.16.26-2.617 0-1.464-.029-1.752-.266-2.639-.317-1.189-1.156-2.929-1.852-3.843-1.44-1.891-3.632-3.34-5.945-3.932-1.122-.286-3.144-.402-4.181-.238zm3.14 1.646a12.46 12.46 0 011.595.437c3.688 1.344 6.16 5.07 5.949 8.967-.123 2.271-.891 4.083-2.523 5.95l-.637.73v5.271h-3.192v-1.448c0-1.422-.005-1.454-.256-1.704-.245-.245-.285-.252-.923-.17-.855.11-2.375.11-3.23 0-.637-.082-.678-.075-.922.17-.251.25-.256.281-.256 1.704v1.448h-3.192v-2.617c0-2.858.034-2.677-.648-3.408-3.943-4.23-3.17-10.833 1.637-13.975 1.956-1.28 4.374-1.776 6.597-1.355zm-2.65 1.508c-2.097.29-4.083 1.54-5.239 3.298-.301.459-.496.866-.496 1.038 0 .532.614.913 1.146.709.09-.035.343-.345.56-.69.502-.792 1.461-1.691 2.255-2.113.724-.384 1.956-.72 2.643-.72.597 0 .977-.31.977-.796a.802.802 0 00-.245-.552c-.203-.204-.333-.242-.773-.23-.29.008-.663.034-.827.056zm-6.289 6.547c-.495.494-.144 1.35.553 1.35.41 0 .799-.388.799-.797 0-.41-.388-.797-.798-.797a.805.805 0 00-.554.244zm-28.731.797a.802.802 0 00-.245.552c0 .194.09.399.245.553.495.494 1.351.144 1.351-.553 0-.409-.388-.796-.798-.796a.804.804 0 00-.553.244zm4.544 22.86v.797H5.576V43.83H8.77v.796zm12.77 0v.797h-3.193V43.83h3.192v.796zm13.812 5.025a.802.802 0 00-.245.552c0 .194.09.398.245.552a.804.804 0 00.553.245c.194 0 .399-.09.553-.245a.802.802 0 00.245-.552.802.802 0 00-.245-.552.805.805 0 00-.553-.244.804.804 0 00-.553.244z" fill="url(#paint0_linear_1710_5882)"/><defs><linearGradient id="paint0_linear_1710_5882" x1="0" y1="0" x2="52.02" y2="52.275" gradientUnits="userSpaceOnUse"><stop stop-color="#0ABD92"/><stop offset="1" stop-color="#009DB8"/></linearGradient></defs></svg>