<svg width="66" height="65" fill="none" xmlns="http://www.w3.org/2000/svg"><path d="M44.117 33.154l-3.655 2.349a.665.665 0 00-.304.554v7.232c0 .225.119.436.304.555l3.655 2.349a4.378 4.378 0 002.336.686c.819 0 1.624-.224 2.336-.686l3.656-2.35a.666.666 0 00.303-.554v-7.232a.665.665 0 00-.303-.554l-3.656-2.35a4.336 4.336 0 00-4.672 0zm7.299 9.779l-3.049 1.953c0-.026.013-.04.013-.066a.648.648 0 00-1.293 0c0 .238.132.449.33.554-.66.225-1.36.212-2.006-.026.171-.119.303-.303.303-.528a.648.648 0 00-1.293 0l-2.943-1.887v-6.52L44.46 34.5a.623.623 0 00-.027.158.648.648 0 001.294 0 .656.656 0 00-.436-.607 2.95 2.95 0 012.296-.013.65.65 0 00-.488.62.648.648 0 001.293 0 .547.547 0 00-.04-.211l3.076 1.966v6.52h-.013z" fill="url(#paint0_linear_1710_6167)"/><path d="M49.12 42.895a.647.647 0 100-1.294.647.647 0 000 1.294z" fill="url(#paint1_linear_1710_6167)"/><path d="M46.454 42.895a.647.647 0 100-1.293.647.647 0 000 1.293z" fill="url(#paint2_linear_1710_6167)"/><path d="M43.774 42.895a.647.647 0 100-1.293.647.647 0 000 1.293z" fill="url(#paint3_linear_1710_6167)"/><path d="M49.12 37.746a.648.648 0 000-1.293.648.648 0 000 1.293z" fill="url(#paint4_linear_1710_6167)"/><path d="M46.453 37.746a.648.648 0 000-1.293.648.648 0 000 1.293z" fill="url(#paint5_linear_1710_6167)"/><path d="M43.775 37.746a.648.648 0 000-1.293.648.648 0 000 1.293z" fill="url(#paint6_linear_1710_6167)"/><path d="M50.413 40.387a.647.647 0 100-1.293.647.647 0 000 1.293z" fill="url(#paint7_linear_1710_6167)"/><path d="M47.747 39.094a.648.648 0 000 1.293.648.648 0 000-1.293z" fill="url(#paint8_linear_1710_6167)"/><path d="M45.068 40.387a.647.647 0 100-1.293.647.647 0 000 1.293z" fill="url(#paint9_linear_1710_6167)"/><path d="M42.402 40.387a.647.647 0 100-1.293.647.647 0 000 1.293z" fill="url(#paint10_linear_1710_6167)"/><path d="M64.494 12.989H16.496v-1.86h2.019c.37 0 .66-.291.66-.66V.846c0-.37-.29-.66-.66-.66h-8.42c-.37 0-.66.29-.66.66v6.045c-.792-.489-1.9-.766-3.405-.357a2.455 2.455 0 00-1.584 1.307c-.765 1.518-.237 3.867.145 5.147H.923c-.37 0-.66.29-.66.66v29.826c0 .37.29.66.66.66H3.39v9.093c0 .726.594 1.32 1.32 1.32H23.2v2.085c0 .37.29.66.66.66h.739l-7.483 7.482a.653.653 0 000 .937.663.663 0 00.462.198.64.64 0 00.462-.198l7.377-7.377V61l-4.052 4.052a.653.653 0 000 .937.663.663 0 00.462.198.64.64 0 00.462-.198l3.115-3.115v2.375c0 .37.29.66.66.66.37 0 .66-.29.66-.66v-5.212h1.887v5.212c0 .37.29.66.66.66.369 0 .66-.29.66-.66v-5.212h4.592v5.212c0 .37.29.66.66.66.37 0 .66-.29.66-.66v-5.212h1.887v5.212c0 .37.29.66.66.66.37 0 .66-.29.66-.66v-2.375l3.101 3.101a.663.663 0 00.462.198.64.64 0 00.462-.198.654.654 0 000-.937L39.037 61v-2.679l7.364 7.365a.662.662 0 00.462.198.64.64 0 00.461-.198.653.653 0 000-.937l-7.482-7.483h.791c.37 0 .66-.29.66-.66v-2.085h19.374c.726 0 1.32-.594 1.32-1.32v-9.066h2.468c.37 0 .66-.29.66-.66V13.649c.04-.37-.264-.66-.62-.66zM1.582 26.873H3.39v11.244H1.582V26.873zm60.444 0h1.808v11.244h-1.808V26.873zm1.808-1.32h-1.768V14.309h1.768v11.244zm-3.088-9c-.013 0-.026-.014-.04-.014H4.71c-.013 0-.026.013-.04.013V14.31h56.077v2.243zm-45.584-3.564H13.42v-1.86h1.742v1.86zm2.693-11.482v8.301h-7.101V1.507h7.1zM5.62 8.436c.171-.33.409-.528.765-.62 1.98-.542 2.824.488 3.049.857v1.795c0 .37.29.66.66.66h2.019v1.861H5.977c-.396-1.175-.937-3.405-.356-4.553zm-4.039 5.873H3.35v11.244H1.582V14.309zm0 28.506v-3.378H3.39v3.378H1.582zm33.614 15.89h-8.459v-1.413h11.006v1.413h-2.547zm4.817-2.732H24.52v-1.425h15.493v1.425zm19.374-4.065H6.03v-32.73h53.357v32.73zm4.447-9.093h-1.808v-3.378h1.808v3.378z" fill="url(#paint11_linear_1710_6167)"/><path d="M10.134 46.999h19.73a2.43 2.43 0 002.429-2.428V24.247a2.43 2.43 0 00-2.429-2.429h-19.73a2.43 2.43 0 00-2.428 2.429V44.57c.013 1.333 1.095 2.428 2.428 2.428zM9.04 24.247c0-.607.501-1.109 1.109-1.109h19.73c.607 0 1.108.502 1.108 1.109V44.57c0 .607-.501 1.108-1.108 1.108h-19.73A1.115 1.115 0 019.04 44.57V24.247z" fill="url(#paint12_linear_1710_6167)"/><path d="M12.272 8.317h4.065c.37 0 .66-.29.66-.66V3.222c0-.37-.29-.66-.66-.66h-4.065c-.37 0-.66.29-.66.66v4.435c0 .37.29.66.66.66zm.66-4.435h2.745v3.115h-2.745V3.882z" fill="url(#paint13_linear_1710_6167)"/><path d="M54.57 31.123V22.98c0-.37-.29-.66-.66-.66H38.984c-.37 0-.66.29-.66.66v8.143c0 .37.29.66.66.66H53.91c.37 0 .66-.29.66-.66zm-1.32-.66H39.644V23.64H53.25v6.823z" fill="url(#paint14_linear_1710_6167)"/><path d="M32.94 48.147c0 .37.29.66.66.66h23.45c.37 0 .66-.29.66-.66V20.67c0-.37-.29-.66-.66-.66H33.6c-.37 0-.66.29-.66.66 0 .37.29.66.66.66h22.792v26.144H33.6a.673.673 0 00-.66.673z" fill="url(#paint15_linear_1710_6167)"/><defs><linearGradient id="paint0_linear_1710_6167" x1="40.158" y1="32.471" x2="54.731" y2="45.268" gradientUnits="userSpaceOnUse"><stop stop-color="#0ABD92"/><stop offset="1" stop-color="#009DB8"/></linearGradient><linearGradient id="paint1_linear_1710_6167" x1="48.473" y1="41.602" x2="49.792" y2="42.927" gradientUnits="userSpaceOnUse"><stop stop-color="#0ABD92"/><stop offset="1" stop-color="#009DB8"/></linearGradient><linearGradient id="paint2_linear_1710_6167" x1="45.807" y1="41.602" x2="47.126" y2="42.927" gradientUnits="userSpaceOnUse"><stop stop-color="#0ABD92"/><stop offset="1" stop-color="#009DB8"/></linearGradient><linearGradient id="paint3_linear_1710_6167" x1="43.128" y1="41.602" x2="44.447" y2="42.927" gradientUnits="userSpaceOnUse"><stop stop-color="#0ABD92"/><stop offset="1" stop-color="#009DB8"/></linearGradient><linearGradient id="paint4_linear_1710_6167" x1="48.473" y1="36.453" x2="49.792" y2="37.779" gradientUnits="userSpaceOnUse"><stop stop-color="#0ABD92"/><stop offset="1" stop-color="#009DB8"/></linearGradient><linearGradient id="paint5_linear_1710_6167" x1="45.807" y1="36.453" x2="47.126" y2="37.779" gradientUnits="userSpaceOnUse"><stop stop-color="#0ABD92"/><stop offset="1" stop-color="#009DB8"/></linearGradient><linearGradient id="paint6_linear_1710_6167" x1="43.128" y1="36.453" x2="44.447" y2="37.779" gradientUnits="userSpaceOnUse"><stop stop-color="#0ABD92"/><stop offset="1" stop-color="#009DB8"/></linearGradient><linearGradient id="paint7_linear_1710_6167" x1="49.766" y1="39.094" x2="51.085" y2="40.419" gradientUnits="userSpaceOnUse"><stop stop-color="#0ABD92"/><stop offset="1" stop-color="#009DB8"/></linearGradient><linearGradient id="paint8_linear_1710_6167" x1="47.1" y1="39.094" x2="48.419" y2="40.419" gradientUnits="userSpaceOnUse"><stop stop-color="#0ABD92"/><stop offset="1" stop-color="#009DB8"/></linearGradient><linearGradient id="paint9_linear_1710_6167" x1="44.421" y1="39.094" x2="45.74" y2="40.419" gradientUnits="userSpaceOnUse"><stop stop-color="#0ABD92"/><stop offset="1" stop-color="#009DB8"/></linearGradient><linearGradient id="paint10_linear_1710_6167" x1="41.755" y1="39.094" x2="43.075" y2="40.419" gradientUnits="userSpaceOnUse"><stop stop-color="#0ABD92"/><stop offset="1" stop-color="#009DB8"/></linearGradient><linearGradient id="paint11_linear_1710_6167" x1=".263" y1=".188" x2="67.578" y2="66.66" gradientUnits="userSpaceOnUse"><stop stop-color="#0ABD92"/><stop offset="1" stop-color="#009DB8"/></linearGradient><linearGradient id="paint12_linear_1710_6167" x1="7.706" y1="21.818" x2="33.386" y2="47.016" gradientUnits="userSpaceOnUse"><stop stop-color="#0ABD92"/><stop offset="1" stop-color="#009DB8"/></linearGradient><linearGradient id="paint13_linear_1710_6167" x1="11.612" y1="2.563" x2="17.47" y2="8.071" gradientUnits="userSpaceOnUse"><stop stop-color="#0ABD92"/><stop offset="1" stop-color="#009DB8"/></linearGradient><linearGradient id="paint14_linear_1710_6167" x1="38.324" y1="22.32" x2="46.699" y2="36.77" gradientUnits="userSpaceOnUse"><stop stop-color="#0ABD92"/><stop offset="1" stop-color="#009DB8"/></linearGradient><linearGradient id="paint15_linear_1710_6167" x1="32.94" y1="20.01" x2="62.004" y2="45.134" gradientUnits="userSpaceOnUse"><stop stop-color="#0ABD92"/><stop offset="1" stop-color="#009DB8"/></linearGradient></defs></svg>