<svg width="73" height="70" fill="none" xmlns="http://www.w3.org/2000/svg"><path fill-rule="evenodd" clip-rule="evenodd" d="M55.308.44c-3.538.423-6.93 1.954-9.33 4.21-.94.885-1.088 1.401-.516 1.805.509.36.765.282 1.602-.485 1.702-1.559 4.003-2.82 6.268-3.436 1.057-.287 1.608-.338 3.659-.341 2.821-.004 3.995.243 6.246 1.316 1.558.742 2.357 1.272 3.588 2.379.946.85 1.182.93 1.695.567.574-.405.431-.974-.443-1.767C64.99 1.891 60.864.305 56.845.37a21.36 21.36 0 00-1.537.07zM10.706 3.901c-.35.361-1.487 2.691-4.173 8.557-2.03 4.433-3.691 8.235-3.691 8.448 0 .605.374 1.363.817 1.655.222.147 1.133.609 2.025 1.027 1.003.47 1.604.834 1.575.953-.025.106-.611 1.425-1.303 2.93-1.465 3.19-1.622 3.94-1.068 5.094.179.372.533.836.787 1.031.254.195 3.952 1.981 8.217 3.968l7.756 3.614.038 4.46c.039 4.411.036 4.463-.281 4.803l-.32.344H9.742l-.053-3.65c-.05-3.43-.075-3.705-.401-4.536-.48-1.221-1.806-2.554-3.008-3.024-1.187-.465-4.829-.622-5.416-.234l-.365.24V68.92l.365.24c.306.203.712.233 2.528.188 2.098-.051 2.192-.067 3.136-.536 1.211-.6 2.307-1.765 2.773-2.946.31-.787.338-1.112.388-4.498l.053-3.65h5.673c5.593 0 5.678.003 5.953.311 1.329 1.488 3.834 2.054 5.803 1.312 1.166-.44 2.316-1.532 2.924-2.776.435-.891.479-1.103.476-2.311-.003-1.12-.064-1.462-.386-2.16-.21-.455-.62-1.094-.911-1.419l-.53-.59V47.32c0-2.563.02-2.759.257-2.69.14.042 4.754 2.175 10.252 4.741 6.081 2.84 10.244 4.7 10.63 4.754.847.117 1.956-.266 2.53-.873.246-.262.628-.841.847-1.287.22-.446.413-.828.431-.849.017-.02.948.394 2.068.921 3.57 1.681 3.356 1.842 6.413-4.792 2.129-4.622 2.343-5.16 2.33-5.864l-.013-.774 3.678-3.183c2.022-1.75 3.83-3.392 4.017-3.65.493-.68.394-1.863-.206-2.461-.286-.286-4.895-2.505-14.037-6.76-7.486-3.484-20.69-9.636-29.343-13.671-17.631-8.222-16.946-7.954-17.892-6.98zm30.71 14.856C57.588 26.29 70.82 32.532 70.82 32.632c0 .251-8.581 7.682-8.872 7.682-.131 0-.889-.306-1.683-.68a35091.42 35091.42 0 00-31.498-14.678c-7.442-3.465-7.643-3.534-8.604-2.944-.281.173-.603.588-.828 1.07-.203.432-.7 1.5-1.104 2.371-.405.873-.81 1.586-.9 1.586-.145 0-6.374-2.865-11.015-5.067-.945-.448-1.72-.899-1.72-1 0-.259 7.197-15.91 7.316-15.91.053 0 13.33 6.163 29.502 13.695zM54.722 6.31c-1.856.408-4.19 1.676-5.183 2.815-.514.59-.544.753-.224 1.213.358.516.861.408 1.85-.397 1.784-1.456 3.563-2.095 5.825-2.095 2.271 0 4.056.64 5.82 2.086 1.055.865 1.557.933 1.929.261.204-.367.197-.431-.08-.81-.871-1.2-3.436-2.646-5.454-3.077-1.197-.255-3.31-.254-4.483.004zm.428 5.83a5.799 5.799 0 00-1.362.831c-.516.445-.612.61-.574.99.03.312.166.526.426.672.361.204.43.183 1.277-.388.492-.33 1.16-.647 1.484-.702.917-.156 1.689.048 2.662.702.847.57.916.591 1.277.388.616-.347.593-1.012-.054-1.584-.966-.855-1.631-1.106-3.076-1.157-1.055-.038-1.466.011-2.06.249zM39.136 31.683c9.7 4.52 17.653 8.234 17.675 8.255.103.1-5.37 11.814-5.663 12.121-.602.63-.99.508-6.269-1.955-5.276-2.462-19.726-9.19-30.988-14.429-3.783-1.76-7.04-3.358-7.237-3.553-.583-.576-.473-1.069.924-4.12.705-1.54 1.303-2.82 1.328-2.846.026-.026 1.765.751 3.864 1.726 2.1.975 3.988 1.815 4.196 1.868.576.146 1.619-.319 1.956-.872.158-.258.662-1.299 1.12-2.313.905-2.004 1.059-2.259 1.3-2.162.088.035 8.095 3.761 17.794 8.28zm-5.904 3.002c-.314.35-.309.804.014 1.098.356.325 11.977 5.712 12.321 5.712.72 0 1.025-1.138.411-1.533-.77-.496-11.84-5.547-12.156-5.547a.911.911 0 00-.59.27zm-1.756 3.835c-.26.29-.31.72-.12 1.024.188.297 12.03 5.785 12.485 5.785.614 0 1.002-1.055.527-1.439-.386-.312-12.04-5.64-12.337-5.64-.172 0-.422.121-.555.27zm28.573 2.9c.867.401 1.648.665 1.97.665.293 0 .533.032.533.072 0 .3-4.13 9.008-4.289 9.042-.112.024-1.035-.353-2.051-.837l-1.848-.88L55.505 47c.627-1.365 1.526-3.328 1.996-4.362.47-1.035.913-1.88.983-1.88.07 0 .775.298 1.565.663zm-53.956-.032a3.817 3.817 0 011.662 1.987c.25.704.301 20.714.056 21.605-.24.867-1.002 1.764-1.887 2.216-.713.364-.946.405-2.304.405H2.11V40.872l1.646.053c1.484.048 1.715.094 2.337.462zm19.195 1.502l1.701.806v5.461l-.375-.144c-.207-.079-.828-.144-1.38-.144-.554 0-1.175.065-1.382.144l-.375.144V45.62c0-1.945.025-3.536.055-3.536s.82.362 1.756.805zm1.053 7.819c1.527.459 2.552 1.88 2.55 3.536-.004 1.986-1.357 3.526-3.272 3.724-1.5.155-2.9-.596-3.639-1.952-1.076-1.973-.029-4.638 2.082-5.298.866-.271 1.403-.274 2.279-.01zm-6.405 2.4c-.154.562-.091 2.258.101 2.73.099.242-.2.258-5.106.258H9.72v-3.54h10.367l-.151.553zm4.43.426c-.397.508-.384.976.04 1.472.244.287.48.401.827.401s.583-.114.828-.401c.423-.496.436-.964.04-1.472-.234-.3-.433-.388-.868-.388s-.633.088-.867.388z" fill="url(#paint0_linear_1710_6186)"/><defs><linearGradient id="paint0_linear_1710_6186" x1=".5" y1=".367" x2="70.802" y2="74.085" gradientUnits="userSpaceOnUse"><stop stop-color="#0ABD92"/><stop offset="1" stop-color="#009DB8"/></linearGradient></defs></svg>