<svg width="163" height="156" fill="none" xmlns="http://www.w3.org/2000/svg"><path d="M60.643 13.332c8.897-16.69 32.817-16.69 41.714 0l57.016 106.954c8.393 15.744-3.016 34.754-20.857 34.754H24.485c-17.842 0-29.25-19.011-20.858-34.754L60.643 13.332z" stroke="url(#paint0_linear_1710_5816)" stroke-width="1.63"/><path fill-rule="evenodd" clip-rule="evenodd" d="M79.22 68.391c-2.852.398-4.835 1.363-4.835 2.352 0 .204.144.552.32.775.413.52.998.525 1.976.018 1.252-.65 2.86-.886 6.053-.89 4.403-.003 5.684.367 7.472 2.159 1.208 1.21 2.005 2.267 2.518 3.338.348.727.367.927.369 3.798l.001 3.03-.745-.456c-1.468-.896-4.047-2.015-5.542-2.404-3.027-.787-6.656-.65-9.639.36-1.194.406-3.468 1.482-4.511 2.136l-.592.37v-6.064l.552-1.109c.504-1.011.535-1.146.348-1.53a1.732 1.732 0 00-.608-.647c-.34-.19-.481-.193-.891-.024-.388.16-.62.467-1.142 1.511l-.655 1.312-.078 4.75-.077 4.75-.928.276c-3.791 1.124-3.618 1.055-3.876 1.55-.203.39-.213.55-.058.923.376.9.812.93 3.197.22l1.736-.518.042 13.223.042 13.224.539 1.304c.696 1.683 1.287 2.541 2.244 3.258 1.512 1.132 1.376 1.118 10.128 1.118s8.616.014 10.128-1.118c.957-.717 1.547-1.575 2.244-3.258l.54-1.304.046-4.635c.04-3.976.012-4.701-.196-5.101-.425-.817-1.591-.826-2.013-.016-.172.33-.235.947-.235 2.31v1.86l-.908-1.123c-.5-.618-1.196-1.396-1.546-1.73l-.638-.607V93.237l1.546-2.242 1.546-2.243v5.916c0 5.753.01 5.928.32 6.321.248.312.458.404.917.404.46 0 .67-.092.917-.404.312-.394.32-.565.32-6.54 0-5.43.027-6.126.236-6.046.693.264 3.492 1.018 3.78 1.018.859 0 1.427-.876 1.062-1.639-.176-.368-.44-.508-1.753-.927a86.646 86.646 0 00-2.425-.737l-.88-.244-.048-4.712-.049-4.712-.585-1.216c-.76-1.582-1.862-3.042-3.303-4.377-1.314-1.219-2.563-1.895-4.152-2.247-1.273-.281-6.738-.427-8.231-.219zM43.692 81.463c-.473.256-.696.604-.696 1.087 0 .552.622 1.191 1.16 1.191.507 0 1.16-.636 1.16-1.132 0-.585-.155-.855-.63-1.1-.516-.264-.588-.267-.994-.046zm4.616-.024c-.431.17-.828.742-.828 1.192 0 .47.66 1.11 1.144 1.11.212 0 .574-.161.804-.358.961-.82.047-2.407-1.12-1.944zm4.43.046c-.213.106-.485.394-.603.64-.186.384-.185.502.004.836.353.625.926.873 1.485.644.445-.183.814-.712.814-1.167 0-.294-.627-.955-1.005-1.06-.17-.047-.483 0-.696.107zm4.532-.045c-.76.304-.913 1.473-.26 1.983.54.422 1.069.402 1.533-.059.61-.605.492-1.473-.25-1.854-.495-.254-.553-.258-1.023-.07zm4.604.014c-.842.331-1.044 1.278-.407 1.91.463.46.992.481 1.532.059 1.005-.785.062-2.436-1.125-1.969zm4.475.029c-.617.308-.873.893-.638 1.456.389.93 1.528 1.003 2.101.135.592-.896-.493-2.076-1.463-1.591zm31.543 0c-.21.105-.488.38-.618.61-.212.377-.212.463 0 .838.367.653.933.907 1.5.674.445-.183.815-.712.815-1.167 0-.294-.627-.955-1.005-1.06-.17-.047-.481 0-.692.105zm4.529-.043c-.76.304-.914 1.473-.26 1.983.54.422 1.068.402 1.532-.059.618-.613.462-1.474-.345-1.9-.389-.206-.468-.208-.927-.024zm4.512.019c-.79.439-.932 1.294-.316 1.905.464.46.992.481 1.532.059 1.027-.802-.082-2.594-1.216-1.964zm4.566.024c-.616.308-.872.893-.637 1.456.388.93 1.527 1.003 2.101.135.591-.896-.493-2.076-1.464-1.591zm4.552-.05a1.14 1.14 0 00-.32 1.95c.541.461 1.092.455 1.569-.019.473-.47.485-1.026.032-1.52-.408-.446-.843-.586-1.281-.411zm4.489.03c-.473.256-.696.604-.696 1.087 0 .552.623 1.191 1.16 1.191.508 0 1.16-.636 1.16-1.132 0-.585-.155-.855-.63-1.1-.515-.264-.587-.267-.994-.046zm-34.376.953c1.617.412 3.796 1.384 5.353 2.388l.974.629-1.808 2.646c-.994 1.456-1.92 2.764-2.056 2.909-.234.246-.346.228-1.872-.307-1.614-.566-1.639-.57-4.098-.57-2.455 0-2.486.004-4.09.566-.889.31-1.662.537-1.72.502-.127-.079-4.008-5.698-4.008-5.805 0-.18 2.449-1.57 3.739-2.121 1.246-.534 3.016-1.041 4.378-1.256 1.073-.168 3.744.046 5.209.42zm-35.36 6.443c-1.736.573-2.992 1.626-3.74 3.138-.388.784-.434 1.04-.434 2.415 0 1.426.036 1.613.502 2.552a5.84 5.84 0 002.795 2.716c.767.357 1.072.409 2.427.409 1.44 0 1.623-.036 2.582-.505 1.197-.585 2.134-1.543 2.732-2.796.347-.725.404-1.048.404-2.302 0-1.313-.048-1.558-.479-2.456-.961-2.005-2.81-3.235-4.999-3.326-.694-.029-1.423.035-1.79.155zm23.018 2.196l1.49 2.172v12.555l-.63.607c-.345.334-1.02 1.09-1.498 1.681-.479.591-.926 1.141-.994 1.221-.069.08-.125-4.545-.125-10.277 0-5.83.059-10.358.133-10.276.074.08.804 1.123 1.624 2.317zm37.441-2.196c-2.783.917-4.382 3.159-4.221 5.918.124 2.13 1.28 3.878 3.182 4.807.959.469 1.143.505 2.582.505 1.354 0 1.66-.052 2.427-.409a5.845 5.845 0 002.795-2.716c.465-.939.502-1.126.502-2.552 0-1.374-.046-1.63-.434-2.415a5.867 5.867 0 00-5.043-3.293c-.694-.029-1.424.035-1.79.155zm-56.91 2.828c.853.591 1.399 1.695 1.384 2.799-.023 1.632-.058 1.62-2.604-.912l-2.301-2.288.605-.101c.332-.056.673-.118.756-.139.398-.099 1.613.262 2.16.64zm60.349-.095c1.145.703 1.788 2.346 1.432 3.659l-.181.667-2.261-2.245c-1.244-1.235-2.213-2.293-2.154-2.352.205-.202 1.273-.302 1.947-.182.371.067.919.27 1.217.453zm-29.99.989c.656.133 1.575.427 2.043.652l.85.409.04 5.724c.028 3.798-.014 5.826-.122 6.027-.157.292-.322.301-4.911.262l-4.748-.041V93.49l.918-.362c2.008-.79 3.89-.965 5.93-.547zm-31.191 5.026c-.28.277-1.515.294-2.31.032-1.483-.489-2.546-2.24-2.264-3.732.059-.313.145-.63.19-.703.046-.073 1.082.857 2.303 2.066 1.305 1.293 2.162 2.256 2.08 2.337zm60.464-.005c-.244.241-1.398.303-2.087.112-1.725-.48-2.856-2.365-2.408-4.017l.174-.64 2.227 2.206c1.244 1.232 2.168 2.265 2.094 2.338zm-48.189-1.358c-.618.614-.492 1.474.274 1.867 1.193.613 2.246-.914 1.286-1.867-.209-.207-.56-.377-.78-.377-.22 0-.571.17-.78.377zm32.035-.058c-.67.523-.544 1.52.246 1.925 1.194.613 2.246-.914 1.287-1.867-.464-.46-.992-.48-1.533-.058zM62.64 99.734c-.43.457-.402 1.126.065 1.589.463.461.992.481 1.532.059.51-.399.559-1.22.098-1.677-.425-.422-1.285-.408-1.695.029zm38.187-.03c-.461.458-.413 1.279.098 1.678.54.422 1.068.402 1.532-.059.759-.753.28-1.925-.786-1.925-.329 0-.654.118-.844.307zm-41.215 3.448c-.487.483-.496 1.149-.022 1.591.767.715 1.962.233 1.962-.79 0-1.049-1.194-1.542-1.94-.801zm44.334-.022c-.72.761-.235 1.947.797 1.947 1.056 0 1.553-1.185.807-1.925-.487-.484-1.158-.493-1.604-.022zm-47.139 3.173c-.682.28-.878 1.244-.378 1.858.649.795 2.03.263 2.03-.781 0-.819-.881-1.393-1.652-1.077zm50.516.042c-1.262.647-.368 2.641.943 2.102.252-.104.525-.313.607-.464.552-1.024-.525-2.162-1.55-1.638zm-24.665 1.569c2.977-.002 5.551-.051 5.721-.11.25-.086.495.106 1.28 1.003 1.116 1.274 2.134 2.679 2.022 2.79-.042.042-1.01.221-2.153.398-1.466.227-3.15.347-5.733.406-3.7.085-5.506-.022-8.749-.519l-1.581-.242.613-.868c.337-.477 1.075-1.371 1.64-1.985.782-.849 1.088-1.088 1.278-.994.138.068 2.686.122 5.662.121zm-29.274 2.123c-.446.472-.429 1.102.043 1.571.754.748 1.94.245 1.94-.823 0-1.019-1.273-1.499-1.983-.748zm56.72-.048c-.689.684-.144 1.996.829 1.996.561 0 1.181-.628 1.181-1.195 0-.944-1.332-1.474-2.01-.801zm-59.77 3.447c-.753.748-.247 1.925.83 1.925 1.06 0 1.534-1.335.703-1.984-.54-.422-1.069-.402-1.532.059zm62.961-.059c-.842.657-.357 1.984.725 1.984 1.057 0 1.553-1.185.807-1.925-.464-.461-.992-.481-1.532-.059zm-38.743.821c5.614.936 11.86.883 16.975-.143 1.444-.29 1.569-.287 1.567.04-.004.428-1.033 2.653-1.422 3.073-.195.211-.633.51-.973.666-.575.263-1.154.284-8.118.284-6.965 0-7.543-.021-8.118-.284-.861-.394-1.245-.861-1.86-2.259-.527-1.198-.656-1.749-.41-1.749.07 0 1.131.168 2.359.372zm-26.994 2.411c-.79.439-.932 1.294-.316 1.906.464.46.992.481 1.532.059 1.027-.802-.082-2.594-1.216-1.965zm69.089-.019c-.76.305-.913 1.473-.26 1.984.541.422 1.069.401 1.533-.059.609-.605.492-1.473-.25-1.855-.495-.253-.553-.257-1.023-.07zm-72.556 3.781c-.407.513-.407.98 0 1.493.657.831 1.998.301 1.998-.789 0-1.037-1.356-1.515-1.998-.704zm75.32-.092c-.723.669-.193 1.99.799 1.99.526 0 1.182-.624 1.182-1.124 0-.203-.145-.552-.321-.774-.399-.505-1.168-.547-1.66-.092z" fill="url(#paint1_linear_1710_5816)"/><defs><linearGradient id="paint0_linear_1710_5816" x1="0" y1="0" x2="158.778" y2="166.871" gradientUnits="userSpaceOnUse"><stop stop-color="#0ABD92"/><stop offset="1" stop-color="#009DB8"/></linearGradient><linearGradient id="paint1_linear_1710_5816" x1="42.996" y1="68.293" x2="94.157" y2="143.697" gradientUnits="userSpaceOnUse"><stop stop-color="#0ABD92"/><stop offset="1" stop-color="#009DB8"/></linearGradient></defs></svg>