<svg width="67" height="60" fill="none" xmlns="http://www.w3.org/2000/svg"><path d="M66.268 31.543l-11.577.362-.59-2.13a3.234 3.234 0 00.148-1.917.659.659 0 00.643.134.671.671 0 00.429-.844l-1.756-5.306 2.828-.938c.897 1.661 4.02 6.593 9.889 6.686h.013a.67.67 0 00.67-.656.681.681 0 00-.656-.684c-5.923-.093-8.804-6.11-8.952-6.418l-2.05-6.218 1.367-.456a1.347 1.347 0 00.858-1.688l-2.627-7.96a1.347 1.347 0 00-1.688-.857l-2.13.71L49.76.442a.686.686 0 00-.831-.362L15.415 11.47a.657.657 0 00-.402.375L13.54 15.45a.634.634 0 00-.04.308l-3.631 1.206a1.334 1.334 0 00-.871.938c-.12.442 0 .911.308 1.246l1.487 1.635L.461 24.187a.676.676 0 00-.429.844l2.694 8.174a.66.66 0 00.63.456.666.666 0 00.214-.04l15.195-5.012a.63.63 0 00.175.2l3.912 2.868c.121.08.255.134.402.134a.607.607 0 00.215-.04l21.48-7.088 1.755 5.306a.66.66 0 00.63.456.666.666 0 00.215-.04.646.646 0 00.428-.497 3.276 3.276 0 001.247 1.448l1.943 5.882a.67.67 0 00.536.456l14.525 2.278c.04 0 .067.013.107.013a.694.694 0 00.443-.16.65.65 0 00.227-.51v-7.128a.658.658 0 00-.2-.483c-.188-.094-.362-.174-.537-.16zM16.85 23.49l-1.099-1.206L53.994 9.339l.563 1.702L16.849 23.49zm-.737-10.84L48.768 1.553l1.018 2.238-34.732 11.457 1.058-2.6zm36.65-7.009l.803 2.439L14.76 21.212l-2.13-2.345L52.76 5.64zM1.465 25.26l2.653-.871 1.206 3.765a.676.676 0 00.643.47c.067 0 .134-.014.201-.028a.666.666 0 00.43-.844l-1.207-3.779 6.338-2.09 3.712 4.073c.255.282.617.443.992.443.134 0 .281-.027.415-.067l7.799-2.573.442 1.367-21.36 7.048-2.264-6.914zm21.869 5.145l-3.109-2.278 5.936-1.956a.671.671 0 00.429-.844l-.657-1.997 28.1-9.273 1.85 5.615-32.55 10.733zm24.656-3.336a3.147 3.147 0 00-.335 1.661l-1.474-4.448.83-.282 5.28-1.742 1.474 4.449a3.377 3.377 0 00-1.273-1.14 3.331 3.331 0 00-2.56-.187 3.36 3.36 0 00-1.942 1.689zm1.192.603a2.01 2.01 0 011.166-1.005c.201-.067.416-.108.63-.108.308 0 .616.067.898.215.482.241.844.657 1.005 1.166a1.988 1.988 0 01-.107 1.54 1.965 1.965 0 01-1.166 1.006 1.934 1.934 0 01-1.541-.12 1.965 1.965 0 01-1.005-1.167 2.021 2.021 0 01.12-1.527zm16.429 10.88l-13.347-2.09-1.5-4.556c.067 0 .147.027.214.027.348 0 .71-.054 1.059-.174.388-.134.75-.335 1.058-.59l.442 1.595c.08.294.376.509.67.495l11.417-.361v5.654h-.013z" fill="url(#paint0_linear_1710_6153)"/><path d="M59.317 51.857l-14.325.442-.335-1.193c.108-.308.161-.63.134-.964.08 0 .148 0 .228-.027a.671.671 0 00.429-.844l-1.099-3.337 1.501-.496c.724 1.287 2.868 4.369 6.713 4.436h.014a.67.67 0 00.67-.657.681.681 0 00-.657-.683c-3.779-.054-5.655-3.873-5.775-4.154l-1.233-3.726.697-.227a1.347 1.347 0 00.857-1.689l-1.755-5.333a1.342 1.342 0 00-1.688-.858l-1.26.416-.71-1.568a.686.686 0 00-.831-.362l-22.418 7.611a.657.657 0 00-.402.376l-.938 2.278-2.452.804a1.334 1.334 0 00-.871.938c-.121.442 0 .91.308 1.246l.697.764-6.352 2.103a.671.671 0 00-.429.845l1.796 5.467a.643.643 0 00.335.388.592.592 0 00.295.067.607.607 0 00.214-.04l10.037-3.31c.013.014.026.04.053.054l2.613 1.916c.12.08.255.134.402.134a.607.607 0 00.215-.04l14.163-4.677 1.1 3.337a.66.66 0 00.629.456.666.666 0 00.214-.04c.08-.027.134-.068.201-.108.175.268.402.51.67.684l1.273 3.859a.67.67 0 00.536.455l16.375 2.573c.04 0 .067.014.107.014a.637.637 0 00.43-.161.663.663 0 00.24-.51l.08-6.016a.637.637 0 00-.2-.482c-.134-.121-.322-.161-.496-.161zM44.188 38.296L19.653 46.39l-2.157-2.372 25.768-8.496.924 2.774zm-24.99 1.528l21.56-7.317.402.885-22.351 7.37.388-.938zm-9.689 8.401l6.285-2.077 2.452 2.694c.255.281.616.442.992.442.134 0 .281-.027.415-.067l4.998-1.648.094.281-13.869 4.57-1.367-4.195zm14.392 3.056l-1.635-1.206 3.564-1.18a.671.671 0 00.43-.844l-.309-.911 18.371-6.057 1.032 3.122-21.453 7.076zm17.942.026a1.097 1.097 0 01-.562-.656c-.188-.59.134-1.233.71-1.42a1.138 1.138 0 01.858.067c.267.133.468.361.562.656.188.59-.12 1.233-.71 1.42-.281.094-.59.067-.858-.067zm-1.795-1.835l-.63-1.903 3.672-1.206.63 1.903c-.081-.054-.161-.108-.255-.161a2.408 2.408 0 00-1.876-.134 2.45 2.45 0 00-1.541 1.5zm18.545 8.294l-15.209-2.385-.87-2.64c.2-.013.415-.027.616-.094a2.97 2.97 0 00.509-.24l.214.763c.08.295.362.482.67.496l14.15-.442-.08 4.542z" fill="url(#paint1_linear_1710_6153)"/><defs><linearGradient id="paint0_linear_1710_6153" x1="0" y1=".047" x2="35.749" y2="60.318" gradientUnits="userSpaceOnUse"><stop stop-color="#0ABD92"/><stop offset="1" stop-color="#009DB8"/></linearGradient><linearGradient id="paint1_linear_1710_6153" x1="8" y1="31" x2="32.023" y2="75.547" gradientUnits="userSpaceOnUse"><stop stop-color="#0ABD92"/><stop offset="1" stop-color="#009DB8"/></linearGradient></defs></svg>