<svg width="69" height="67" fill="none" xmlns="http://www.w3.org/2000/svg"><path d="M68.952 12.728a1.372 1.372 0 00-1.063-.994L10.586.389c-.36-.069-.746 0-1.05.207-.303.207-.51.525-.579.897L8.543 3.73a.736.736 0 00-.386.014c-.235.097-5.59 2.291-7.094 8.722a.677.677 0 00.317.746l6.611 3.892c.014.013.028 0 .055.013.055.028.11.056.166.07l6.004 1.186c0 .083.013.18.04.263l1.712 4.347a.82.82 0 00.18.249l-.428 2.166-15.03.028a.683.683 0 00-.69.69v8.447c0 .22.11.427.29.552a.737.737 0 00.4.138c.07 0 .138-.014.22-.028l17.322-5.659c.138.014.262.042.4.042a3.09 3.09 0 001.684-.51 2.975 2.975 0 001.283-1.933l.566-2.83c.041-.013.097-.013.138-.04l4.555-3.424.51.097c0 .014 0 .028.014.042.028.027 2.112 3.477.966 6.472-.69 1.78-2.401 3.106-5.12 3.906-5.12 1.518-6.087 5.065-5.355 7.66.883 3.12 4.21 5.686 8.75 5.686.773 0 1.6-.11 2.443-.262l-.387 2.319a.688.688 0 00.566.786l3.616.594-.552 3.381-.786-.124a.681.681 0 00-.511.124.662.662 0 00-.276.456l-.925 5.617a.68.68 0 00.124.51c.042.07.11.124.18.166H6.777a.683.683 0 00-.69.69v7.232c0 .207.082.4.248.524a.68.68 0 00.442.166c.04 0 .082 0 .11-.014l23.573-4.002 6.638 1.09c.042 0 .07.014.11.014.139 0 .29-.041.4-.124a.662.662 0 00.277-.456l.649-3.92a6.444 6.444 0 003.022-1.145 6.368 6.368 0 002.581-4.154.688.688 0 00-.566-.787l-.47-.083c1.533-1.532 2.692-4.554 3.189-7.563.497-3.008.359-6.252-.607-8.184l.234.041c.373.056.76.097 1.132.097 3.326 0 6.266-2.415 6.818-5.797a.68.68 0 00-.124-.51.662.662 0 00-.456-.276l-17.983-2.954a.68.68 0 00-.51.125.662.662 0 00-.277.455l-1.007 6.142a.687.687 0 00.566.786l.786.124-.62 3.768-3.617-.593a.678.678 0 00-.786.566l-.566 3.464c-5.217 1.214-9.206-1.2-10.103-4.348-.58-2.07.276-4.733 4.417-5.962 3.146-.938 5.175-2.526 6.017-4.748.966-2.553.097-5.23-.552-6.652L51.59 25.77a.742.742 0 00.524-.097.651.651 0 00.29-.441l.69-3.464 4.761.938c.083.014.18.028.263.028.331 0 .648-.125.91-.345l9.51-8.281c.386-.332.552-.87.414-1.38zm-34.67 34.986l.332-1.973 1.6-9.703 6.46 1.063-2.595 15.747-3.947-.648-2.512-.414.663-4.072zM7.468 59.68H30.17l-.318 1.918-22.385 3.81V59.68zm29.162 2.843l-5.396-.883.497-2.981 3.188.524 2.208.36-.497 2.98zm4.113-5.272a4.985 4.985 0 01-3.726.87l-1.684-.277-4.058-.662h-.041l.703-4.265.787.125.939.151 8.957 1.477a5.083 5.083 0 01-1.877 2.581zm4.168-11.69c-.676 4.085-2.264 6.639-3.423 7.26l2.498-15.237c.925.952 1.601 3.878.925 7.977zm-9.164-15.913l16.575 2.72a5.545 5.545 0 01-6.21 3.891l-2.457-.4-8.709-1.436.8-4.775zm-4.679 10.82l2.926.483-.676 4.086-.29 1.794-2.926-.483.428-2.636v-.014l.538-3.23zm-19.17-23.945l.552-2.788 35.497 7.025-.552 2.788-35.497-7.025zm-1.78-6.059l.372-2.015c4.513.897 18.3 3.63 18.3 3.63.042.014.097.014.139.014a.662.662 0 00.51-.235l3.74-4.182L57.47 12.48l-5.755 6.21-41.598-8.225zM31.604 7.36l-2.94 3.285c-2.263-.456-13.87-2.747-17.941-3.547L11.4 3.37l20.205 3.99zM8.267 5.219L7.15 11.293a1.375 1.375 0 001.09 1.601l.11.028-.496 2.512L2.526 12.3c1.228-4.43 4.596-6.487 5.741-7.08zm1.435 7.978l1.38.276-.552 2.788-1.38-.276.552-2.788zM1.366 26.833l14.188-.014c.042.51.194 1.021.497 1.463.11.166.235.303.359.442L1.366 33.636v-6.804zm18.853.083c-.083.427-.331.8-.704 1.048-.373.249-.8.332-1.242.249h-.027c-.884-.18-1.477-1.049-1.298-1.932l.497-2.512 3.257.649-.483 2.498zm1.45-3.892l-4.569-.87-1.353-3.45 9.247 1.835-3.326 2.485zm29.493 1.27l-2.415-.484.552-2.788 2.415.483-.552 2.788zm6.542-4.417l-4.403-.87 5.755-6.21 5.535 1.09-6.887 5.99z" fill="url(#paint0_linear_1710_6159)"/><path d="M50.83 50.487a.7.7 0 00-.8.553.688.688 0 00.552.8 3.29 3.29 0 003.823-2.636c.318-1.78-.855-3.492-2.636-3.81a.7.7 0 00-.8.553.688.688 0 00.552.8 1.907 1.907 0 011.532 2.209 1.935 1.935 0 01-2.222 1.531z" fill="url(#paint1_linear_1710_6159)"/><path d="M49.285 55.112a.689.689 0 00.552.8c.455.083.897.124 1.339.124a7.451 7.451 0 007.3-6.086 7.334 7.334 0 00-1.2-5.548 7.381 7.381 0 00-4.775-3.078.688.688 0 00-.249 1.353 5.937 5.937 0 013.878 2.511c.911 1.325 1.27 2.94.967 4.514a6.03 6.03 0 01-7.025 4.858c-.346-.07-.718.179-.787.552z" fill="url(#paint2_linear_1710_6159)"/><path d="M53.163 37.736a.7.7 0 00-.8.553.689.689 0 00.552.8c5.258.966 8.75 6.017 7.784 11.262-.953 5.258-6.018 8.75-11.262 7.784a.689.689 0 00-.249 1.352c.676.125 1.339.18 2.015.18 2.222 0 4.403-.676 6.266-1.96a11.048 11.048 0 004.596-7.108 10.955 10.955 0 00-1.78-8.28 11.058 11.058 0 00-7.122-4.583z" fill="url(#paint3_linear_1710_6159)"/><defs><linearGradient id="paint0_linear_1710_6159" x1="0" y1=".363" x2="67.823" y2="71.03" gradientUnits="userSpaceOnUse"><stop stop-color="#0ABD92"/><stop offset="1" stop-color="#009DB8"/></linearGradient><linearGradient id="paint1_linear_1710_6159" x1="50.019" y1="45.387" x2="56.21" y2="49.63" gradientUnits="userSpaceOnUse"><stop stop-color="#0ABD92"/><stop offset="1" stop-color="#009DB8"/></linearGradient><linearGradient id="paint2_linear_1710_6159" x1="49.273" y1="41.313" x2="62.88" y2="49.974" gradientUnits="userSpaceOnUse"><stop stop-color="#0ABD92"/><stop offset="1" stop-color="#009DB8"/></linearGradient><linearGradient id="paint3_linear_1710_6159" x1="48.625" y1="37.728" x2="68.728" y2="50.277" gradientUnits="userSpaceOnUse"><stop stop-color="#0ABD92"/><stop offset="1" stop-color="#009DB8"/></linearGradient></defs></svg>