<svg width="164" height="156" fill="none" xmlns="http://www.w3.org/2000/svg"><path d="M61.059 13.287c8.933-16.756 32.95-16.756 41.882 0l57.016 106.954c8.426 15.807-3.028 34.894-20.942 34.894H24.985c-17.914 0-29.368-19.087-20.942-34.894L61.06 13.287z" stroke="url(#paint0_linear_1710_5822)" stroke-width="1.439"/><path fill-rule="evenodd" clip-rule="evenodd" d="M53.89 65.482c-.208.14-.494.427-.634.635l-.256.38v55.036l.256.379c.14.209.426.495.635.636l.38.255h55.035l.38-.255c.209-.141.494-.427.635-.636l.256-.379V66.497l-.256-.38a2.812 2.812 0 00-.635-.635l-.38-.255H54.27l-.38.255zm54.887 28.533v26.989H54.799V67.026h53.978v26.989zM56.59 68.18a2.81 2.81 0 00-.635.635l-.256.38v49.638l.256.38c.14.208.426.494.635.635l.38.255h49.637l.379-.255c.209-.141.495-.427.635-.635l.256-.38V69.196l-.256-.38a2.792 2.792 0 00-.635-.635l-.379-.255H56.969l-.38.255zm24.299 25.834v24.29H57.498v-48.58H80.89v24.29zm25.19 0v24.29H82.688v-48.58h23.391v24.29zm-36.636-6.94L64.017 92.5l.65.643.65.643 5.426-5.426 5.426-5.427-.65-.643-.65-.643-5.426 5.426zm23.39 0L87.409 92.5l.65.643.65.643 5.426-5.426 5.425-5.427-.65-.643-.65-.643-5.425 5.426zm-23.39 5.397l-9.024 9.025.65.643.65.643 9.024-9.025 9.025-9.024-.65-.644-.65-.643-9.025 9.025zm23.39 0l-9.024 9.025.65.643.65.643 9.025-9.025 9.024-9.024-.65-.644-.65-.643-9.024 9.025zm-34.16-2.68l-.275.277v8.792l.276.276c.161.161.406.276.59.276.52 0 3.088-.907 3.372-1.192l.26-.26v-6.993l-.26-.26c-.284-.284-2.851-1.191-3.372-1.191-.184 0-.429.115-.59.276zm43.807.237c-.84.297-1.485.593-1.602.736-.178.216-.197.57-.197 3.7 0 3.13.019 3.484.197 3.7.224.273 2.893 1.248 3.416 1.248.203 0 .44-.108.609-.276l.276-.276v-8.792l-.276-.276c-.385-.385-.766-.348-2.423.236zm-41.67 1.867l.287.13v4.879l-.287.13c-.63.287-.613.36-.613-2.568s-.017-2.856.613-2.569zm42.57 2.569c0 1.484-.043 2.699-.096 2.699-.053 0-.255-.056-.45-.124l-.354-.123V92.01l.309-.114c.615-.224.591-.33.591 2.569zM68.993 98.32l-4.975 4.976.65.644.65.643 4.975-4.977 4.976-4.977-.65-.643-.65-.643-4.976 4.977zm23.39 0l-4.975 4.976.65.644.65.643 4.976-4.977 4.976-4.977-.65-.643-.65-.643-4.976 4.977z" fill="url(#paint1_linear_1710_5822)"/><defs><linearGradient id="paint0_linear_1710_5822" x1=".5" y1="0" x2="159.278" y2="166.871" gradientUnits="userSpaceOnUse"><stop stop-color="#0ABD92"/><stop offset="1" stop-color="#009DB8"/></linearGradient><linearGradient id="paint1_linear_1710_5822" x1="53" y1="65.227" x2="111.728" y2="124.243" gradientUnits="userSpaceOnUse"><stop stop-color="#0ABD92"/><stop offset="1" stop-color="#009DB8"/></linearGradient></defs></svg>