<svg width="83" height="84" fill="none" xmlns="http://www.w3.org/2000/svg"><g clip-path="url(#clip0_1710_6122)"><path d="M82.004 43.394a.796.796 0 00-.481-.415l-7.918-2.606.946-1.046c.182-.216.265-.498.182-.764a.908.908 0 00-.547-.58l-2.44-.814a.878.878 0 00.016-.648l-1.129-2.739a.812.812 0 00-.498-.464l-25.497-8.666a.833.833 0 00-1.03.448l-1.112 2.424-1.295-.431a.818.818 0 00-1.045.53l-1.992 6.06a.831.831 0 00.05.63c.099.2.265.35.48.415l.731.25-1.627 4.93c-.149.431.1.896.532 1.045l2.257.747-1.228 3.735c-.15.432.1.897.531 1.046.066.017.133.017.216.033-.017.35.033.698.15 1.046l-.333 1.179-6.026-.996a.93.93 0 00-.68.182.847.847 0 00-.299.631v4.582c0 .216.083.431.249.58.15.15.365.25.581.25l8.599-.067a.839.839 0 00.78-.564l1.444-4.366c.282-.199.531-.448.73-.73.067.033.117.083.183.1.083.033.166.05.266.05.348 0 .68-.216.78-.565l1.228-3.735 16.036 5.295a.787.787 0 00.764-.116l2.971-2.191c.017-.017.017-.033.033-.05l11.371 3.752c.083.033.166.05.266.05a.905.905 0 00.365-.084c.2-.1.349-.265.415-.48l2.042-6.21a.772.772 0 00-.017-.663zM44.82 26.462l24.419 8.3.747 1.826-25.896-8.533.73-1.593zm-3.336 2.473l30.975 10.226-3.486 3.818-28.967-9.562 1.478-4.482zm2.639 18.06a1.202 1.202 0 01-1.528.765 1.236 1.236 0 01-.696-.598 1.202 1.202 0 01-.067-.93 1.212 1.212 0 011.146-.83c.132 0 .265.017.381.067.3.1.548.315.698.597.149.282.166.631.066.93zm-2.34 5.247l-7.155.05v-2.773l5.793.963c.415.066.83-.183.93-.598l.216-.78c.166.083.332.166.514.233.2.066.415.082.631.1l-.93 2.805zm4.432-8.682l-.631 1.909c-.017-.05-.033-.1-.05-.133a2.824 2.824 0 00-1.66-1.428 2.833 2.833 0 00-2.324.25l.63-1.91.532.183 3.503 1.129zm17.728 4.1l-20.351-6.706-1.677-.548-2.257-.747 1.36-4.15 20.767 6.855-.564 1.694c-.15.431.1.896.531 1.045l3.918 1.295-1.727 1.262zm14.741 1.278l-15.637-5.163.299-.913 5.627 1.86c.083.033.166.05.266.05a.87.87 0 00.614-.266l2.523-2.772 7.835 2.59-1.527 4.614z" fill="url(#paint0_linear_1710_6122)"/><path d="M18.442.367h-6.74C6.16.367 1.66 4.866 1.66 10.41v40.97c0 5.378 4.25 9.76 9.545 10.026v21.132c0 .465.365.83.83.83.465 0 .83-.365.83-.83V61.422h4.681v21.115c0 .465.365.83.83.83.465 0 .83-.365.83-.83V61.39c5.18-.399 9.28-4.731 9.28-10.01V10.41C28.485 4.866 23.97.367 18.441.367zm6.724 51.012c0 3.702-3.022 6.723-6.724 6.723h-6.74c-3.7 0-6.722-3.021-6.722-6.723V10.41c0-3.702 3.021-6.723 6.723-6.723h6.74c3.701 0 6.723 3.021 6.723 6.723v40.97z" fill="url(#paint1_linear_1710_6122)"/><path d="M15.073 20.784a6.482 6.482 0 006.474-6.474 6.482 6.482 0 00-6.474-6.474 6.482 6.482 0 00-6.474 6.474c-.017 3.569 2.888 6.474 6.474 6.474zm0-11.305a4.817 4.817 0 014.814 4.814 4.817 4.817 0 01-4.814 4.814 4.817 4.817 0 01-4.814-4.814 4.817 4.817 0 014.814-4.814z" fill="url(#paint2_linear_1710_6122)"/><path d="M15.073 5.463c-4.88 0-8.848 3.967-8.848 8.848 0 .464.365.83.83.83.465 0 .83-.366.83-.83 0-3.951 3.22-7.188 7.188-7.188a7.19 7.19 0 017.188 7.188c0 .464.365.83.83.83.464 0 .83-.366.83-.83-.017-4.88-3.984-8.848-8.848-8.848z" fill="url(#paint3_linear_1710_6122)"/><path d="M15.073 37.901a6.482 6.482 0 006.474-6.474 6.482 6.482 0 00-6.474-6.474 6.482 6.482 0 00-6.474 6.474c-.017 3.57 2.888 6.474 6.474 6.474zm0-11.288a4.817 4.817 0 014.814 4.814 4.817 4.817 0 01-4.814 4.814 4.817 4.817 0 01-4.814-4.814 4.817 4.817 0 014.814-4.814z" fill="url(#paint4_linear_1710_6122)"/><path d="M15.073 22.594c-4.88 0-8.848 3.967-8.848 8.848 0 .464.365.83.83.83.465 0 .83-.366.83-.83 0-3.951 3.22-7.188 7.188-7.188a7.19 7.19 0 017.188 7.188c0 .464.365.83.83.83.464 0 .83-.366.83-.83-.017-4.898-3.984-8.848-8.848-8.848z" fill="url(#paint5_linear_1710_6122)"/><path d="M15.073 42.066a6.482 6.482 0 00-6.474 6.474 6.482 6.482 0 006.474 6.474 6.482 6.482 0 006.474-6.474 6.482 6.482 0 00-6.474-6.474zm0 11.305a4.817 4.817 0 01-4.814-4.814 4.817 4.817 0 014.814-4.814 4.817 4.817 0 014.814 4.814 4.817 4.817 0 01-4.814 4.814z" fill="url(#paint6_linear_1710_6122)"/><path d="M15.073 39.709c-4.88 0-8.848 3.967-8.848 8.848 0 .465.365.83.83.83.465 0 .83-.365.83-.83 0-3.951 3.22-7.188 7.188-7.188a7.19 7.19 0 017.188 7.188c0 .465.365.83.83.83.464 0 .83-.365.83-.83-.017-4.88-3.984-8.848-8.848-8.848z" fill="url(#paint7_linear_1710_6122)"/></g><defs><linearGradient id="paint0_linear_1710_6122" x1="32.918" y1="24.609" x2="59.219" y2="68.874" gradientUnits="userSpaceOnUse"><stop stop-color="#0ABD92"/><stop offset="1" stop-color="#009DB8"/></linearGradient><linearGradient id="paint1_linear_1710_6122" x1="1.66" y1=".367" x2="51.406" y2="16.524" gradientUnits="userSpaceOnUse"><stop stop-color="#0ABD92"/><stop offset="1" stop-color="#009DB8"/></linearGradient><linearGradient id="paint2_linear_1710_6122" x1="8.599" y1="7.836" x2="21.806" y2="21.108" gradientUnits="userSpaceOnUse"><stop stop-color="#0ABD92"/><stop offset="1" stop-color="#009DB8"/></linearGradient><linearGradient id="paint3_linear_1710_6122" x1="6.225" y1="5.463" x2="14.515" y2="20.694" gradientUnits="userSpaceOnUse"><stop stop-color="#0ABD92"/><stop offset="1" stop-color="#009DB8"/></linearGradient><linearGradient id="paint4_linear_1710_6122" x1="8.599" y1="24.953" x2="21.806" y2="38.225" gradientUnits="userSpaceOnUse"><stop stop-color="#0ABD92"/><stop offset="1" stop-color="#009DB8"/></linearGradient><linearGradient id="paint5_linear_1710_6122" x1="6.225" y1="22.594" x2="14.515" y2="37.825" gradientUnits="userSpaceOnUse"><stop stop-color="#0ABD92"/><stop offset="1" stop-color="#009DB8"/></linearGradient><linearGradient id="paint6_linear_1710_6122" x1="8.599" y1="42.066" x2="21.806" y2="55.338" gradientUnits="userSpaceOnUse"><stop stop-color="#0ABD92"/><stop offset="1" stop-color="#009DB8"/></linearGradient><linearGradient id="paint7_linear_1710_6122" x1="6.225" y1="39.709" x2="14.515" y2="54.941" gradientUnits="userSpaceOnUse"><stop stop-color="#0ABD92"/><stop offset="1" stop-color="#009DB8"/></linearGradient><clipPath id="clip0_1710_6122"><path fill="#fff" transform="translate(0 .367)" d="M0 0h83v83H0z"/></clipPath></defs></svg>