<svg width="62" height="63" fill="none" xmlns="http://www.w3.org/2000/svg"><g clip-path="url(#clip0_1710_6138)"><path d="M58.094.867H22.357a2.919 2.919 0 00-2.914 2.914v3.646c0 1.6 1.302 2.914 2.914 2.914h.434v36.865a3.768 3.768 0 003.77 3.77h1.785l4.762 2.703c.1.05.198.087.31.087h1.314l1.637 2.17h-3.93a.584.584 0 01-.211-.05l-13.913-7.738a1.627 1.627 0 00-.62-.186V2.107c0-.682-.558-1.24-1.24-1.24H1.24C.558.867 0 1.425 0 2.107c0 .682.558 1.24 1.24 1.24h13.962v44.566H1.24a.614.614 0 00-.62.62c0 .347.273.62.62.62h13.962v2.802H1.24a.614.614 0 00-.62.62c0 .347.273.62.62.62h13.962v7.192H1.24c-.682 0-1.24.558-1.24 1.24 0 .682.558 1.24 1.24 1.24h15.202c.46 0 .831-.26 1.054-.62H48.46a1.67 1.67 0 001.277-.595l2.493-2.988a1.629 1.629 0 00.223-1.774 1.638 1.638 0 00-1.513-.954h-6.51l1.315-2.17h1.066a.646.646 0 00.36-.112l3.806-2.678h2.902a3.768 3.768 0 003.77-3.77V10.341h.434c1.6 0 2.914-1.302 2.914-2.914V3.78A2.908 2.908 0 0058.094.867zm-6.758 56.544a.41.41 0 01-.062.459l-2.492 2.988a.425.425 0 01-.335.15H17.682v-1.166h13.864c.347 0 .62-.273.62-.62a.614.614 0 00-.62-.62H17.682v-9.4h.013l13.913 7.738a1.7 1.7 0 00.806.21h18.538a.456.456 0 01.384.261zm-8.345-1.488h-5.084l-1.625-2.17h8.036l-1.327 2.17zm3.633-3.41H33.567l-2.716-1.55H48.82l-2.195 1.55zm8.544-5.307c0 .707-.583 1.29-1.29 1.29H26.561c-.707 0-1.29-.583-1.29-1.29V10.341h29.897v36.865zm3.348-39.78a.44.44 0 01-.434.435H22.37a.44.44 0 01-.434-.434V3.78a.44.44 0 01.434-.434h35.736a.44.44 0 01.434.434v3.646h-.024z" fill="url(#paint0_linear_1710_6138)"/><path d="M45.508 25.443a5.287 5.287 0 00-5.282-5.283 5.287 5.287 0 00-5.283 5.283 5.287 5.287 0 005.283 5.282 5.287 5.287 0 005.282-5.282zm-8.085 0a2.8 2.8 0 012.803-2.803 2.8 2.8 0 012.802 2.803 2.8 2.8 0 01-2.802 2.802 2.8 2.8 0 01-2.803-2.802z" fill="url(#paint1_linear_1710_6138)"/><path d="M40.226 17.385c-4.502 0-8.172 3.67-8.172 8.171 0 .348.273.62.62.62s.62-.272.62-.62c0-3.819 3.112-6.931 6.932-6.931 3.819 0 6.931 3.112 6.931 6.931 0 .348.273.62.62.62s.62-.272.62-.62c0-4.5-3.67-8.171-8.171-8.171z" fill="url(#paint2_linear_1710_6138)"/><path d="M40.225 35.762a5.287 5.287 0 00-5.282 5.282 5.287 5.287 0 005.282 5.283 5.287 5.287 0 005.283-5.283 5.287 5.287 0 00-5.283-5.282zm0 8.084a2.8 2.8 0 01-2.802-2.802 2.8 2.8 0 012.802-2.802 2.8 2.8 0 012.803 2.802 2.807 2.807 0 01-2.803 2.803z" fill="url(#paint3_linear_1710_6138)"/><path d="M40.226 32.982c-4.502 0-8.172 3.67-8.172 8.172 0 .347.273.62.62.62s.62-.273.62-.62c0-3.82 3.112-6.932 6.932-6.932 3.819 0 6.931 3.113 6.931 6.932 0 .347.273.62.62.62s.62-.273.62-.62c0-4.514-3.67-8.172-8.171-8.172z" fill="url(#paint4_linear_1710_6138)"/><path d="M31.732 16.417H48.72c.93 0 1.674-.756 1.674-1.674v-1.65c0-.93-.757-1.673-1.674-1.673H31.732c-.93 0-1.674.756-1.674 1.674v1.65c0 .93.744 1.673 1.674 1.673zm-.434-3.323a.44.44 0 01.434-.434H48.72a.44.44 0 01.434.434v1.65a.44.44 0 01-.434.433H31.732a.44.44 0 01-.434-.434v-1.65z" fill="url(#paint5_linear_1710_6138)"/><path d="M52.923 46.872a1.252 1.252 0 100-2.505 1.252 1.252 0 000 2.505z" fill="url(#paint6_linear_1710_6138)"/><path d="M27.813 46.872a1.252 1.252 0 100-2.505 1.252 1.252 0 000 2.505z" fill="url(#paint7_linear_1710_6138)"/><path d="M52.923 14.16a1.252 1.252 0 100-2.506 1.252 1.252 0 000 2.505z" fill="url(#paint8_linear_1710_6138)"/><path d="M27.813 14.16a1.252 1.252 0 100-2.506 1.252 1.252 0 000 2.505z" fill="url(#paint9_linear_1710_6138)"/><path d="M52.923 28.246c-.682 0-1.24.558-1.24 1.24V41.49c0 .682.558 1.24 1.24 1.24.682 0 1.24-.558 1.24-1.24V29.486c0-.682-.558-1.24-1.24-1.24z" fill="url(#paint10_linear_1710_6138)"/></g><defs><linearGradient id="paint0_linear_1710_6138" x1="0" y1=".867" x2="63.237" y2="63.384" gradientUnits="userSpaceOnUse"><stop stop-color="#0ABD92"/><stop offset="1" stop-color="#009DB8"/></linearGradient><linearGradient id="paint1_linear_1710_6138" x1="34.943" y1="20.16" x2="45.719" y2="30.989" gradientUnits="userSpaceOnUse"><stop stop-color="#0ABD92"/><stop offset="1" stop-color="#009DB8"/></linearGradient><linearGradient id="paint2_linear_1710_6138" x1="32.054" y1="17.385" x2="39.516" y2="31.325" gradientUnits="userSpaceOnUse"><stop stop-color="#0ABD92"/><stop offset="1" stop-color="#009DB8"/></linearGradient><linearGradient id="paint3_linear_1710_6138" x1="34.943" y1="35.762" x2="45.719" y2="46.591" gradientUnits="userSpaceOnUse"><stop stop-color="#0ABD92"/><stop offset="1" stop-color="#009DB8"/></linearGradient><linearGradient id="paint4_linear_1710_6138" x1="32.054" y1="32.982" x2="39.516" y2="46.923" gradientUnits="userSpaceOnUse"><stop stop-color="#0ABD92"/><stop offset="1" stop-color="#009DB8"/></linearGradient><linearGradient id="paint5_linear_1710_6138" x1="30.058" y1="11.42" x2="32.41" y2="21.039" gradientUnits="userSpaceOnUse"><stop stop-color="#0ABD92"/><stop offset="1" stop-color="#009DB8"/></linearGradient><linearGradient id="paint6_linear_1710_6138" x1="51.671" y1="44.367" x2="54.226" y2="46.935" gradientUnits="userSpaceOnUse"><stop stop-color="#0ABD92"/><stop offset="1" stop-color="#009DB8"/></linearGradient><linearGradient id="paint7_linear_1710_6138" x1="26.561" y1="44.367" x2="29.116" y2="46.935" gradientUnits="userSpaceOnUse"><stop stop-color="#0ABD92"/><stop offset="1" stop-color="#009DB8"/></linearGradient><linearGradient id="paint8_linear_1710_6138" x1="51.671" y1="11.654" x2="54.226" y2="14.222" gradientUnits="userSpaceOnUse"><stop stop-color="#0ABD92"/><stop offset="1" stop-color="#009DB8"/></linearGradient><linearGradient id="paint9_linear_1710_6138" x1="26.561" y1="11.654" x2="29.116" y2="14.222" gradientUnits="userSpaceOnUse"><stop stop-color="#0ABD92"/><stop offset="1" stop-color="#009DB8"/></linearGradient><linearGradient id="paint10_linear_1710_6138" x1="51.683" y1="28.246" x2="56.621" y2="29.096" gradientUnits="userSpaceOnUse"><stop stop-color="#0ABD92"/><stop offset="1" stop-color="#009DB8"/></linearGradient><clipPath id="clip0_1710_6138"><path fill="#fff" transform="translate(0 .867)" d="M0 0h62v62H0z"/></clipPath></defs></svg>