<svg width="173" height="129" fill="none" xmlns="http://www.w3.org/2000/svg"><path opacity=".87" d="M17.075 128.109s-4.871-.617-8.631-11.264c-3.219-9.113-5.957-17.964-6.757-27.63C.91 79.837.295 69.717 2.742 60.54c2.413-9.05 6.389-18.225 11.774-25.918 9.333-13.332 25.72-18.083 41.186-19.942 6.698-.804 12.608-.39 18.79 2.22 3.936 1.662 8.161 3.824 10.993 7.128 4.15 4.841 7.21 12.07 7.58 18.475.237 4.124-1.276 8.579-5.373 10.115-4.876 1.829-9.551-.146-13.843-2.576-6.644-3.762-12.528-8.12-16.119-15.022-2.958-5.687-3.074-13.604.247-19.216C63.7 6.135 75.307 3.225 85.65 1.921c5.541-.699 11.282-1.17 16.872-.781 11.817.82 58.052 12.871 69.478 15.762m0 0L169 9m3 7.902l-6.5 4.598" stroke="#fff" stroke-linecap="round" stroke-dasharray="6 6"/></svg>