<svg width="80" height="76" fill="none" xmlns="http://www.w3.org/2000/svg"><path d="M49.838 6.464l27.739 52.034c4.1 7.69-1.474 16.976-10.188 16.976H11.912c-8.715 0-14.288-9.286-10.188-16.976L29.462 6.464c4.346-8.152 16.03-8.152 20.376 0z" stroke="url(#paint0_linear_2927_3657)" stroke-width=".7"/><path d="M39.433 30.888v0l-.023.916-.014.588-.578.11-.556.107h0c-3.756.72-6.633 3.873-7.014 7.688h0c-.028.287-.057 1.591-.058 2.917-.002 2.576-.038 3.11-.387 4.29l-.571-.17.57.17a9.378 9.378 0 01-1.213 2.562c-.53.788-.97 1.288-1.77 2.029-.347.321-.54.597-.638.838a1.24 1.24 0 00-.06.742h0c.145.718.64 1.207 1.38 1.344l-.01-.002.155.008c.124.005.3.01.535.014.47.008 1.161.014 2.11.019 1.899.008 4.818.008 9.043.001l11.442-.018.242-.095h0c.341-.135.717-.477.901-.842.094-.187.108-.231.115-.265.01-.048.017-.124.017-.39 0-.37-.036-.514-.127-.673-.12-.214-.36-.49-.917-1.038l.512-.52-.512.52c-1.543-1.519-2.386-2.993-2.837-4.993h0c-.146-.647-.16-1.07-.204-3.834-.026-1.687-.044-2.533-.104-3.116-.055-.541-.143-.84-.344-1.442l.692-.23-.692.23c-.958-2.872-3.546-5.134-6.614-5.752 0 0 0 0 0 0l-.555-.112-.565-.114-.02-.575-.033-.905h0c-.018-.521-.046-.734-.082-.848a.185.185 0 00-.03-.063.65.65 0 00-.11-.103h0c-.215-.173-.448-.202-.72-.064a.519.519 0 00-.252.222l-.104.85zm0 0c.012-.474.02-.635.035-.724m-.035.724l.035-.724M25.744 41.49h0c-.024.523-.015.765.013.907l-.013-.907zm0 0c.152-3.235 1.284-6.294 3.308-8.918.368-.478.77-.936 1.114-1.283a5.99 5.99 0 01.44-.409c.092-.075.137-.102.144-.107a.653.653 0 01.709.18.478.478 0 01.116.157.697.697 0 01.029.247h0m-5.86 10.133l5.86-10.133m-4.57 10.215h0c.117-2.157.576-3.956 1.484-5.778.671-1.35 1.39-2.38 2.48-3.566l-3.964 9.345zm0 0c-.026.477-.041.682-.063.802m.063-.801l-.063.801m4.633-11.017c0 .08-.005.11-.008.123m.008-.123l-.008.123m7.872-1.315a.237.237 0 01.004-.017m-.004.017l.004-.017m0 0c.005-.01.015-.03.065-.108l-.065.108zm-12.5 12.226a.355.355 0 01-.017.067m.016-.067l-.016.067m0 0h0m0 0h0m0 0a.636.636 0 01-.045.082l.045-.082zm4.64-10.96a.244.244 0 01-.031.07m.032-.07l-.032.07m0 0c-.067.113-.21.29-.566.677l.566-.677zm4.633 26.53a6.776 6.776 0 01-.119-.23h4.003a764.764 764.764 0 014.03.01c-.526 1.15-1.561 2.03-2.891 2.4h0c-.24.067-.656.114-1.114.12-.46.004-.87-.035-1.096-.095-.86-.228-1.774-.8-2.306-1.426a4.928 4.928 0 01-.507-.78zm-5.471-27.3h0zm18.221-.003l-.239-.687.24.687a.673.673 0 01.482.003c-.002 0-.002 0 0 0 .005.003.032.018.081.055.059.043.132.104.22.184.177.16.389.374.62.63.464.514.978 1.161 1.405 1.79h0a15.274 15.274 0 012.658 8.043c.02.516.024.74.015.867a.521.521 0 01-.005.047.803.803 0 01-.019.038c-.235.446-.725.496-1.018.224-.105-.096-.12-.132-.138-.185-.033-.102-.063-.285-.086-.713h0c-.214-3.865-1.533-6.956-4.154-9.713-.261-.275-.362-.41-.408-.495-.026-.048-.04-.087-.04-.216v0a.613.613 0 01.386-.559zM26.91 42.522a.652.652 0 01-1.023.1l1.023-.1z" stroke="url(#paint1_linear_2927_3657)" stroke-width="1.46"/><defs><linearGradient id="paint0_linear_2927_3657" x1="0" y1="0" x2="77.246" y2="81.184" gradientUnits="userSpaceOnUse"><stop stop-color="#0ABD92"/><stop offset="1" stop-color="#009DB8"/></linearGradient><linearGradient id="paint1_linear_2927_3657" x1="25" y1="29" x2="57.698" y2="59.867" gradientUnits="userSpaceOnUse"><stop stop-color="#0ABD92"/><stop offset="1" stop-color="#009DB8"/></linearGradient></defs></svg>