<svg width="80" height="76" fill="none" xmlns="http://www.w3.org/2000/svg"><path d="M50.188 6.464l27.739 52.034c4.1 7.69-1.474 16.976-10.189 16.976H12.263c-8.715 0-14.288-9.286-10.188-16.976L29.812 6.464c4.346-8.152 16.03-8.152 20.376 0z" stroke="url(#paint0_linear_2927_3653)" stroke-width=".7"/><path d="M39.144 32.562h0c.124-.084.334-.194.458-.24.123-.045.383-.075.65-.065h0c.707.027 1.228.375 1.549 1.04 0 0 0 0 0 0l.174.36v21.734l-.174.36c-.2.414-.458.681-.859.889a.997.997 0 01-.303.108c-.112.02-.253.027-.48.027-.245 0-.38-.006-.486-.028a1.078 1.078 0 01-.325-.136l-.068.123.069-.123a1.433 1.433 0 01-.114-.084 12.52 12.52 0 01-.25-.2c-.203-.169-.477-.4-.803-.678-.65-.557-1.502-1.3-2.4-2.095l-3.264-2.892-.041-.036h-2.581c-1.066 0-1.708-.005-2.121-.02-.414-.015-.586-.04-.717-.08h0c-1.065-.314-1.864-1.118-2.13-2.129-.045-.173-.073-.366-.088-.909a124.98 124.98 0 01-.019-2.964c0-1.541.003-2.422.019-2.964.015-.542.043-.736.088-.909.266-1.01 1.065-1.815 2.13-2.13h0c.131-.038.303-.064.717-.079a68.102 68.102 0 012.121-.019h2.58l.042-.037 3.199-2.836c.88-.78 1.706-1.507 2.33-2.05.312-.272.572-.498.763-.66.196-.168.309-.262.334-.278zm11.794 1.095h0a.93.93 0 011.163.244h0c.106.138.357.589.635 1.128.275.534.567 1.137.754 1.571 1.162 2.699 1.69 5.173 1.689 7.924 0 3.313-.76 6.269-2.444 9.499-.279.534-.458.858-.6 1.065-.139.202-.234.282-.341.337h0a.958.958 0 01-.462.08.917.917 0 01-.444-.121h0a1.039 1.039 0 01-.323-.387.815.815 0 01-.107-.44v-.003l.002-.01.003-.01.006-.018a5.332 5.332 0 01.152-.367c.099-.215.232-.48.375-.745l-.116-.063.116.063c1.647-3.033 2.406-5.828 2.406-8.88 0-3.104-.794-5.965-2.513-9.081-.357-.648-.411-.806-.411-1.008a.89.89 0 01.46-.778zM39.9 54.764l.241.214.001-.323.017-5.065c.01-2.786.01-7.345 0-10.132l-.017-5.065v-.322l-.242.213-3.293 2.914a486.2 486.2 0 01-2.356 2.073 127.072 127.072 0 01-.951.82l-.055.046-.032.003a5.508 5.508 0 01-.181.011c-.156.008-.375.016-.642.024-.534.016-1.256.03-2.037.039-1.404.016-2.12.024-2.515.047a2.205 2.205 0 00-.417.052.756.756 0 00-.225.102l.077.124-.077-.124-.03.02a.815.815 0 00-.276.23c-.085.122-.13.287-.158.536-.053.475-.053 1.35-.053 3.07v.506c0 1.72 0 2.596.053 3.07.028.25.073.414.158.536.076.11.18.172.275.231l.031.02a.754.754 0 00.225.101c.095.026.221.041.418.053.393.023 1.11.031 2.514.047.781.009 1.503.023 2.037.038a31.342 31.342 0 01.823.036c.013 0 .023.002.032.003l.055.045a122.65 122.65 0 01.951.82 486.2 486.2 0 012.356 2.073l3.293 2.914zm7.858-18.302l-.072-.106.072.106a.865.865 0 01.475-.126c.183 0 .358.046.481.128a.837.837 0 01.178.189c.073.098.154.226.241.379.174.306.364.705.553 1.155.379.9.746 1.99.956 2.92.732 3.25.41 6.55-.952 9.736-.355.83-.586 1.298-.8 1.561a.795.795 0 01-.297.243.883.883 0 01-.36.061c-.477 0-.854-.324-.914-.766-.012-.086-.009-.164.048-.331.059-.175.173-.435.378-.883.99-2.156 1.488-4.178 1.488-6.204s-.498-4.047-1.488-6.203a10.77 10.77 0 01-.378-.883c-.057-.168-.06-.245-.048-.332.035-.257.164-.458.44-.644zm-1.59 4.49l.136-.053-.137.052c.486 1.264.667 2.238.665 3.573-.002 1.344-.183 2.318-.665 3.573l.11.043-.11-.043c-.184.48-.333.759-.497.92-.153.15-.33.21-.608.21-.273 0-.379-.034-.476-.106l-.087.117.087-.117a.982.982 0 01-.39-.552c-.051-.206-.028-.442.086-.7l-.133-.058.133.059c.502-1.135.746-2.226.746-3.346 0-1.121-.19-1.968-.747-3.372l-.135.053.135-.053c-.112-.284-.122-.545-.053-.76a.872.872 0 01.454-.512.839.839 0 01.455-.07c.24.02.405.091.555.25.158.17.304.444.475.891z" fill="url(#paint1_linear_2927_3653)" stroke="#000" stroke-width=".292"/><path transform="rotate(45 52.41 30.65)" fill="url(#paint2_linear_2927_3653)" d="M52.411 30.65h.973v36.472h-.973z"/><defs><linearGradient id="paint0_linear_2927_3653" x1=".35" y1="0" x2="77.596" y2="81.184" gradientUnits="userSpaceOnUse"><stop stop-color="#0ABD92"/><stop offset="1" stop-color="#009DB8"/></linearGradient><linearGradient id="paint1_linear_2927_3653" x1="24.675" y1="32.109" x2="49.403" y2="62.806" gradientUnits="userSpaceOnUse"><stop stop-color="#0ABD92"/><stop offset="1" stop-color="#009DB8"/></linearGradient><linearGradient id="paint2_linear_2927_3653" x1="52.411" y1="30.65" x2="54.404" y2="30.703" gradientUnits="userSpaceOnUse"><stop stop-color="#0ABD92"/><stop offset="1" stop-color="#009DB8"/></linearGradient></defs></svg>