<svg width="34" height="32" fill="none" xmlns="http://www.w3.org/2000/svg"><mask id="a" fill="#fff"><path fill-rule="evenodd" clip-rule="evenodd" d="M25.212.94c-1.622.19-3.177.879-4.276 1.893-.432.397-.5.629-.237.81.233.162.35.127.734-.217a7.25 7.25 0 012.873-1.544c.485-.13.737-.152 1.677-.154 1.293-.001 1.831.11 2.863.592.714.333 1.08.571 1.644 1.068.434.382.542.418.777.255.263-.182.198-.438-.203-.793C29.65 1.593 27.758.88 25.916.909a9.988 9.988 0 00-.704.032zM4.769 2.497c-.16.163-.682 1.21-1.913 3.845-.93 1.991-1.691 3.7-1.691 3.795 0 .272.171.612.374.744.102.066.52.273.928.461.46.212.735.375.722.428-.011.048-.28.64-.597 1.317-.671 1.433-.743 1.77-.49 2.288.083.167.245.376.361.463.117.088 1.811.89 3.766 1.783l3.555 1.624.018 2.003c.017 1.983.016 2.006-.13 2.159l-.146.154H4.327l-.024-1.64c-.023-1.54-.034-1.664-.184-2.038-.22-.548-.827-1.147-1.378-1.358-.544-.209-2.213-.28-2.482-.105l-.168.108v13.18l.167.109c.14.09.327.104 1.16.084.96-.023 1.004-.03 1.437-.24.555-.27 1.057-.794 1.27-1.324.143-.354.156-.5.178-2.021l.024-1.64h2.6c2.564 0 2.603.002 2.73.14.608.668 1.756.923 2.659.589.534-.198 1.062-.688 1.34-1.247.2-.4.22-.496.218-1.038-.001-.503-.03-.657-.177-.97a3.07 3.07 0 00-.417-.638l-.243-.265v-1.242c0-1.152.009-1.24.117-1.209.065.019 2.18.977 4.7 2.13 2.787 1.275 4.695 2.112 4.871 2.136.389.052.897-.12 1.16-.392.113-.118.288-.378.389-.579.1-.2.189-.372.197-.381.008-.01.434.177.948.414 1.636.755 1.538.827 2.939-2.154.976-2.076 1.074-2.318 1.068-2.634l-.006-.348 1.686-1.43c.927-.786 1.755-1.524 1.84-1.64.227-.305.182-.836-.093-1.105-.132-.128-2.244-1.126-6.434-3.037L12.97 5.633c-8.08-3.695-7.767-3.575-8.2-3.137zm14.075 6.675c7.413 3.384 13.478 6.189 13.478 6.233 0 .113-3.933 3.451-4.067 3.451-.06 0-.407-.137-.771-.305-.617-.285-7.04-3.219-14.437-6.595-3.41-1.556-3.503-1.587-3.943-1.322-.129.078-.276.264-.38.48l-.506 1.066c-.185.392-.37.712-.412.712-.067 0-2.922-1.287-5.048-2.276-.434-.202-.789-.404-.789-.45 0-.116 3.299-7.147 3.353-7.147.025 0 6.11 2.768 13.522 6.153zm6.1-5.592c-.851.183-1.921.753-2.376 1.264-.236.265-.25.339-.103.545.165.232.395.184.848-.178.818-.654 1.633-.941 2.67-.941 1.041 0 1.86.287 2.668.937.483.388.713.419.884.117.093-.165.09-.193-.037-.364-.4-.539-1.575-1.188-2.5-1.382-.548-.115-1.517-.114-2.055.002zm.196 2.62a2.666 2.666 0 00-.625.372c-.236.2-.28.274-.263.445.014.14.076.236.196.302.165.091.197.082.585-.174.226-.149.532-.291.68-.316.42-.07.774.022 1.22.316.389.256.42.265.585.174.283-.156.272-.455-.024-.712-.443-.384-.748-.496-1.41-.52-.483-.017-.672.006-.944.112zm-7.34 8.778c4.445 2.03 8.09 3.7 8.1 3.71.048.044-2.46 5.307-2.595 5.445-.276.283-.454.228-2.873-.879-2.418-1.106-9.042-4.129-14.203-6.482-1.734-.79-3.227-1.51-3.317-1.597-.267-.258-.217-.48.424-1.85.323-.692.597-1.268.608-1.28.012-.01.809.338 1.771.776.963.438 1.828.816 1.923.84.264.065.742-.144.897-.392.072-.116.303-.584.513-1.04.415-.9.485-1.014.596-.97.04.015 3.71 1.69 8.156 3.72zm-2.707 1.349c-.143.157-.14.361.007.493.163.146 5.49 2.566 5.647 2.566.33 0 .47-.51.189-.688-.354-.223-5.427-2.492-5.572-2.492a.422.422 0 00-.27.12zm-.804 1.723a.386.386 0 00-.055.46c.086.134 5.513 2.6 5.722 2.6.282 0 .459-.475.242-.647-.178-.14-5.519-2.535-5.655-2.535a.403.403 0 00-.254.122zm13.095 1.303c.398.18.756.298.904.298.134 0 .244.015.244.033 0 .135-1.893 4.047-1.966 4.062-.051.01-.474-.158-.94-.376l-.847-.395.523-1.115c.288-.614.7-1.496.915-1.96.215-.465.418-.845.45-.845.033 0 .355.134.717.298zm-24.73-.015c.358.207.63.526.763.893.114.317.138 9.307.025 9.706-.11.39-.46.793-.865.996-.327.164-.433.182-1.056.182H.83V19.106l.755.024c.68.021.786.042 1.07.207zm8.799.675l.78.362v2.454l-.173-.065c-.095-.035-.38-.064-.633-.064s-.538.029-.633.064l-.172.065V21.24c0-.874.012-1.589.026-1.589.013 0 .376.163.805.362zm.482 3.513c.7.206 1.17.845 1.169 1.589-.002.892-.622 1.584-1.5 1.673a1.695 1.695 0 01-1.668-.877c-.493-.887-.013-2.084.955-2.38.396-.122.642-.123 1.044-.005zm-2.936 1.079c-.07.252-.041 1.014.047 1.226.045.109-.092.116-2.34.116H4.317v-1.592H9.07l-.07.249zm2.03.19c-.18.229-.175.44.019.662.112.129.22.18.38.18a.457.457 0 00.379-.18c.194-.223.2-.433.018-.661-.107-.135-.198-.175-.398-.175s-.29.04-.397.175z"/></mask><path clip-rule="evenodd" d="M25.212.94c-1.622.19-3.177.879-4.276 1.893-.432.397-.5.629-.237.81.233.162.35.127.734-.217a7.25 7.25 0 012.873-1.544c.485-.13.737-.152 1.677-.154 1.293-.001 1.831.11 2.863.592.714.333 1.08.571 1.644 1.068.434.382.542.418.777.255.263-.182.198-.438-.203-.793C29.65 1.593 27.758.88 25.916.909a9.988 9.988 0 00-.704.032zM4.769 2.497c-.16.163-.682 1.21-1.913 3.845-.93 1.991-1.691 3.7-1.691 3.795 0 .272.171.612.374.744.102.066.52.273.928.461.46.212.735.375.722.428-.011.048-.28.64-.597 1.317-.671 1.433-.743 1.77-.49 2.288.083.167.245.376.361.463.117.088 1.811.89 3.766 1.783l3.555 1.624.018 2.003c.017 1.983.016 2.006-.13 2.159l-.146.154H4.327l-.024-1.64c-.023-1.54-.034-1.664-.184-2.038-.22-.548-.827-1.147-1.378-1.358-.544-.209-2.213-.28-2.482-.105l-.168.108v13.18l.167.109c.14.09.327.104 1.16.084.96-.023 1.004-.03 1.437-.24.555-.27 1.057-.794 1.27-1.324.143-.354.156-.5.178-2.021l.024-1.64h2.6c2.564 0 2.603.002 2.73.14.608.668 1.756.923 2.659.589.534-.198 1.062-.688 1.34-1.247.2-.4.22-.496.218-1.038-.001-.503-.03-.657-.177-.97a3.07 3.07 0 00-.417-.638l-.243-.265v-1.242c0-1.152.009-1.24.117-1.209.065.019 2.18.977 4.7 2.13 2.787 1.275 4.695 2.112 4.871 2.136.389.052.897-.12 1.16-.392.113-.118.288-.378.389-.579.1-.2.189-.372.197-.381.008-.01.434.177.948.414 1.636.755 1.538.827 2.939-2.154.976-2.076 1.074-2.318 1.068-2.634l-.006-.348 1.686-1.43c.927-.786 1.755-1.524 1.84-1.64.227-.305.182-.836-.093-1.105-.132-.128-2.244-1.126-6.434-3.037L12.97 5.633c-8.08-3.695-7.767-3.575-8.2-3.137zm14.075 6.675c7.413 3.384 13.478 6.189 13.478 6.233 0 .113-3.933 3.451-4.067 3.451-.06 0-.407-.137-.771-.305-.617-.285-7.04-3.219-14.437-6.595-3.41-1.556-3.503-1.587-3.943-1.322-.129.078-.276.264-.38.48l-.506 1.066c-.185.392-.37.712-.412.712-.067 0-2.922-1.287-5.048-2.276-.434-.202-.789-.404-.789-.45 0-.116 3.299-7.147 3.353-7.147.025 0 6.11 2.768 13.522 6.153zm6.1-5.592c-.851.183-1.921.753-2.376 1.264-.236.265-.25.339-.103.545.165.232.395.184.848-.178.818-.654 1.633-.941 2.67-.941 1.041 0 1.86.287 2.668.937.483.388.713.419.884.117.093-.165.09-.193-.037-.364-.4-.539-1.575-1.188-2.5-1.382-.548-.115-1.517-.114-2.055.002zm.196 2.62a2.666 2.666 0 00-.625.372c-.236.2-.28.274-.263.445.014.14.076.236.196.302.165.091.197.082.585-.174.226-.149.532-.291.68-.316.42-.07.774.022 1.22.316.389.256.42.265.585.174.283-.156.272-.455-.024-.712-.443-.384-.748-.496-1.41-.52-.483-.017-.672.006-.944.112zm-7.34 8.778c4.445 2.03 8.09 3.7 8.1 3.71.048.044-2.46 5.307-2.595 5.445-.276.283-.454.228-2.873-.879-2.418-1.106-9.042-4.129-14.203-6.482-1.734-.79-3.227-1.51-3.317-1.597-.267-.258-.217-.48.424-1.85.323-.692.597-1.268.608-1.28.012-.01.809.338 1.771.776.963.438 1.828.816 1.923.84.264.065.742-.144.897-.392.072-.116.303-.584.513-1.04.415-.9.485-1.014.596-.97.04.015 3.71 1.69 8.156 3.72zm-2.707 1.349c-.143.157-.14.361.007.493.163.146 5.49 2.566 5.647 2.566.33 0 .47-.51.189-.688-.354-.223-5.427-2.492-5.572-2.492a.422.422 0 00-.27.12zm-.804 1.723a.386.386 0 00-.055.46c.086.134 5.513 2.6 5.722 2.6.282 0 .459-.475.242-.647-.178-.14-5.519-2.535-5.655-2.535a.403.403 0 00-.254.122zm13.095 1.303c.398.18.756.298.904.298.134 0 .244.015.244.033 0 .135-1.893 4.047-1.966 4.062-.051.01-.474-.158-.94-.376l-.847-.395.523-1.115c.288-.614.7-1.496.915-1.96.215-.465.418-.845.45-.845.033 0 .355.134.717.298zm-24.73-.015c.358.207.63.526.763.893.114.317.138 9.307.025 9.706-.11.39-.46.793-.865.996-.327.164-.433.182-1.056.182H.83V19.106l.755.024c.68.021.786.042 1.07.207zm8.799.675l.78.362v2.454l-.173-.065c-.095-.035-.38-.064-.633-.064s-.538.029-.633.064l-.172.065V21.24c0-.874.012-1.589.026-1.589.013 0 .376.163.805.362zm.482 3.513c.7.206 1.17.845 1.169 1.589-.002.892-.622 1.584-1.5 1.673a1.695 1.695 0 01-1.668-.877c-.493-.887-.013-2.084.955-2.38.396-.122.642-.123 1.044-.005zm-2.936 1.079c-.07.252-.041 1.014.047 1.226.045.109-.092.116-2.34.116H4.317v-1.592H9.07l-.07.249zm2.03.19c-.18.229-.175.44.019.662.112.129.22.18.38.18a.457.457 0 00.379-.18c.194-.223.2-.433.018-.661-.107-.135-.198-.175-.398-.175s-.29.04-.397.175z" stroke="#565656" stroke-width="1.6" mask="url(#a)"/></svg>