<svg width="35" height="27" fill="none" xmlns="http://www.w3.org/2000/svg"><mask id="a" fill="#fff"><path fill-rule="evenodd" clip-rule="evenodd" d="M7.699.273c-.76.212-1.588.89-1.887 1.546-.084.183-.718 1.894-1.409 3.801L3.147 9.088l-.876.875c-.789.787-.903.931-1.145 1.443-.487 1.028-.466.71-.466 6.983 0 6.112-.012 5.895.367 6.661.2.406.785 1.006 1.182 1.212.635.33.923.375 2.36.375 1.527 0 1.88-.062 2.485-.438.392-.244.908-.78 1.08-1.122.275-.545.355-.944.393-1.964l.039-1.018h17.556l.038 1.018c.039 1.02.119 1.419.394 1.965.172.341.688.877 1.08 1.12.604.377.957.44 2.485.44 1.437 0 1.724-.046 2.36-.376.397-.206.982-.806 1.184-1.215.383-.775.37-.527.35-6.968-.019-5.9-.019-5.906-.162-6.291-.27-.725-.557-1.182-1.19-1.891l-.635-.71-1.256-3.483c-.691-1.917-1.348-3.665-1.459-3.885A3.095 3.095 0 0027.413.273C26.955.147 8.148.147 7.699.273zM27.08 1.725c.313.089.61.286.81.538.122.153 2.42 6.308 2.422 6.487 0 .027-.358.05-.797.05l-.799-.001-.113-.48c-.4-1.704-1.67-3.06-3.373-3.605-.417-.133-.624-.156-1.402-.154-.851.001-.95.015-1.481.208-1.51.55-2.606 1.666-3.12 3.18-.103.303-.187.619-.188.702v.15h-7.104c-3.907 0-7.104-.02-7.104-.046 0-.144 2.252-6.237 2.37-6.413.08-.118.222-.277.318-.354.421-.34.003-.326 9.988-.33 6.498-.003 9.396.017 9.573.068zm-2.44 4.377c1.148.29 2.051 1.123 2.457 2.268l.152.43h-6.766l.066-.25c.137-.517.52-1.147.944-1.555.891-.854 2.024-1.176 3.146-.893zm6.914 4.752c.595.65.877 1.17.977 1.795.035.216.063 1.778.063 3.47 0 3.447-.01 3.556-.425 3.994a2.338 2.338 0 01-.44.361c-.198.11-1.003.117-14.384.117H3.169l-.297-.18a1.621 1.621 0 01-.707-.955c-.092-.35-.096-6.091-.005-6.583.125-.678.345-1.04 1.122-1.847l.727-.756h27.01l.534.584zM4.511 13.228a.903.903 0 00-.358.27c-.132.182-.136.261-.136 2.348 0 2.065.005 2.166.13 2.31.28.322.37.331 3.258.331 2.952 0 3.036-.01 3.27-.376.11-.17.12-.364.12-2.266 0-2.247-.01-2.312-.354-2.552-.153-.107-.417-.118-2.938-.131-2.038-.011-2.828.007-2.992.066zm19.953-.038c-.247.048-.526.393-.571.705-.023.156-.032 1.126-.02 2.157.018 1.68.033 1.893.14 2.06.234.365.318.375 3.27.375 2.888 0 2.977-.01 3.258-.332.125-.143.13-.244.13-2.309 0-2.087-.004-2.166-.136-2.348-.243-.335-.366-.348-3.253-.343-1.47.003-2.737.019-2.818.035zm-10.73.823c-.454.14-.662.596-.464 1.022.21.454.136.446 4.074.446 3.938 0 3.864.008 4.074-.446.204-.44-.01-.883-.495-1.026-.276-.08-6.923-.077-7.188.004zm-4.406 1.802v1.135H5.483v-2.27h3.845v1.136zm19.877 0v1.135H25.36v-2.27h3.845v1.136zm-15.47.47c-.453.139-.662.595-.467 1.017.198.43.076.417 4.076.417 4 0 3.877.012 4.076-.417.202-.436-.015-.88-.497-1.021-.276-.081-6.923-.078-7.188.004zM2.746 21.988c.286.087.709.107 2.325.107h1.976v.922c0 .86-.012.946-.17 1.271-.35.719-.767.88-2.288.88-1.357 0-1.58-.055-2.01-.497-.426-.436-.485-.677-.485-1.979v-1.014l.152.102c.083.056.308.15.5.208zm29.78 1.972c-.063.297-.138.425-.412.706-.436.447-.655.502-2.015.502-1.52 0-1.939-.161-2.288-.88-.159-.325-.17-.412-.17-1.271v-.922h1.976c2.041 0 2.444-.045 2.813-.31.13-.093.132-.081.152.86.012.564-.01 1.1-.056 1.315z"/></mask><path fill-rule="evenodd" clip-rule="evenodd" d="M7.699.273c-.76.212-1.588.89-1.887 1.546-.084.183-.718 1.894-1.409 3.801L3.147 9.088l-.876.875c-.789.787-.903.931-1.145 1.443-.487 1.028-.466.71-.466 6.983 0 6.112-.012 5.895.367 6.661.2.406.785 1.006 1.182 1.212.635.33.923.375 2.36.375 1.527 0 1.88-.062 2.485-.438.392-.244.908-.78 1.08-1.122.275-.545.355-.944.393-1.964l.039-1.018h17.556l.038 1.018c.039 1.02.119 1.419.394 1.965.172.341.688.877 1.08 1.12.604.377.957.44 2.485.44 1.437 0 1.724-.046 2.36-.376.397-.206.982-.806 1.184-1.215.383-.775.37-.527.35-6.968-.019-5.9-.019-5.906-.162-6.291-.27-.725-.557-1.182-1.19-1.891l-.635-.71-1.256-3.483c-.691-1.917-1.348-3.665-1.459-3.885A3.095 3.095 0 0027.413.273C26.955.147 8.148.147 7.699.273zM27.08 1.725c.313.089.61.286.81.538.122.153 2.42 6.308 2.422 6.487 0 .027-.358.05-.797.05l-.799-.001-.113-.48c-.4-1.704-1.67-3.06-3.373-3.605-.417-.133-.624-.156-1.402-.154-.851.001-.95.015-1.481.208-1.51.55-2.606 1.666-3.12 3.18-.103.303-.187.619-.188.702v.15h-7.104c-3.907 0-7.104-.02-7.104-.046 0-.144 2.252-6.237 2.37-6.413.08-.118.222-.277.318-.354.421-.34.003-.326 9.988-.33 6.498-.003 9.396.017 9.573.068zm-2.44 4.377c1.148.29 2.051 1.123 2.457 2.268l.152.43h-6.766l.066-.25c.137-.517.52-1.147.944-1.555.891-.854 2.024-1.176 3.146-.893zm6.914 4.752c.595.65.877 1.17.977 1.795.035.216.063 1.778.063 3.47 0 3.447-.01 3.556-.425 3.994a2.338 2.338 0 01-.44.361c-.198.11-1.003.117-14.384.117H3.169l-.297-.18a1.621 1.621 0 01-.707-.955c-.092-.35-.096-6.091-.005-6.583.125-.678.345-1.04 1.122-1.847l.727-.756h27.01l.534.584zM4.511 13.228a.903.903 0 00-.358.27c-.132.182-.136.261-.136 2.348 0 2.065.005 2.166.13 2.31.28.322.37.331 3.258.331 2.952 0 3.036-.01 3.27-.376.11-.17.12-.364.12-2.266 0-2.247-.01-2.312-.354-2.552-.153-.107-.417-.118-2.938-.131-2.038-.011-2.828.007-2.992.066zm19.953-.038c-.247.048-.526.393-.571.705-.023.156-.032 1.126-.02 2.157.018 1.68.033 1.893.14 2.06.234.365.318.375 3.27.375 2.888 0 2.977-.01 3.258-.332.125-.143.13-.244.13-2.309 0-2.087-.004-2.166-.136-2.348-.243-.335-.366-.348-3.253-.343-1.47.003-2.737.019-2.818.035zm-10.73.823c-.454.14-.662.596-.464 1.022.21.454.136.446 4.074.446 3.938 0 3.864.008 4.074-.446.204-.44-.01-.883-.495-1.026-.276-.08-6.923-.077-7.188.004zm-4.406 1.802v1.135H5.483v-2.27h3.845v1.136zm19.877 0v1.135H25.36v-2.27h3.845v1.136zm-15.47.47c-.453.139-.662.595-.467 1.017.198.43.076.417 4.076.417 4 0 3.877.012 4.076-.417.202-.436-.015-.88-.497-1.021-.276-.081-6.923-.078-7.188.004zM2.746 21.988c.286.087.709.107 2.325.107h1.976v.922c0 .86-.012.946-.17 1.271-.35.719-.767.88-2.288.88-1.357 0-1.58-.055-2.01-.497-.426-.436-.485-.677-.485-1.979v-1.014l.152.102c.083.056.308.15.5.208zm29.78 1.972c-.063.297-.138.425-.412.706-.436.447-.655.502-2.015.502-1.52 0-1.939-.161-2.288-.88-.159-.325-.17-.412-.17-1.271v-.922h1.976c2.041 0 2.444-.045 2.813-.31.13-.093.132-.081.152.86.012.564-.01 1.1-.056 1.315z" fill="#565656" stroke="#000" stroke-width=".23" mask="url(#a)"/></svg>