<svg width="33" height="33" fill="none" xmlns="http://www.w3.org/2000/svg"><mask id="a" fill="#fff"><path fill-rule="evenodd" clip-rule="evenodd" d="M16.954 1.628v1.424h-3.861V6.85h-1.9v3.798H2.08v20.065H.054v1.899h32.408v-1.899h-2.026V18.244h-5.76V6.85h-1.899V3.052h-3.86V.204h-1.963v1.424zm3.861 5.222v1.9h1.962v9.494h-5.76v12.469h-3.86V8.75h1.898V4.951h5.76v1.9zm-3.861.95v.95h1.962v-1.9h-1.962v.95zm-1.899 3.798v.949h1.962v-1.899h-1.962v.95zm3.798 0v.949h1.962v-1.899h-1.962v.95zm-7.66 10.032v9.083H4.042V12.547h7.152v9.083zm-4.556-6.235v.95h1.899v-1.9h-1.9v.95zm8.418 0v.95h1.962v-1.9h-1.962v.95zm3.798 0v.95h1.962v-1.9h-1.962v.95zM6.637 19.478v.981h1.899v-1.962h-1.9v.98zm21.837 5.95v5.285h-1.899v-8.418h-1.899v8.419h-1.899v-8.42h-1.962v8.42h-1.836V20.141h9.495v5.286zm-21.837-1.9v.982h1.899v-1.962h-1.9v.98zm0 4.084v.949h1.899v-1.899h-1.9v.95z"/></mask><path fill-rule="evenodd" clip-rule="evenodd" d="M16.954 1.628v1.424h-3.861V6.85h-1.9v3.798H2.08v20.065H.054v1.899h32.408v-1.899h-2.026V18.244h-5.76V6.85h-1.899V3.052h-3.86V.204h-1.963v1.424zm3.861 5.222v1.9h1.962v9.494h-5.76v12.469h-3.86V8.75h1.898V4.951h5.76v1.9zm-3.861.95v.95h1.962v-1.9h-1.962v.95zm-1.899 3.798v.949h1.962v-1.899h-1.962v.95zm3.798 0v.949h1.962v-1.899h-1.962v.95zm-7.66 10.032v9.083H4.042V12.547h7.152v9.083zm-4.556-6.235v.95h1.899v-1.9h-1.9v.95zm8.418 0v.95h1.962v-1.9h-1.962v.95zm3.798 0v.95h1.962v-1.9h-1.962v.95zM6.637 19.478v.981h1.899v-1.962h-1.9v.98zm21.837 5.95v5.285h-1.899v-8.418h-1.899v8.419h-1.899v-8.42h-1.962v8.42h-1.836V20.141h9.495v5.286zm-21.837-1.9v.982h1.899v-1.962h-1.9v.98zm0 4.084v.949h1.899v-1.899h-1.9v.95z" fill="#565656" stroke="#0C0E0E" stroke-width=".512" mask="url(#a)"/></svg>