<svg width="32" height="33" fill="none" xmlns="http://www.w3.org/2000/svg"><path fill-rule="evenodd" clip-rule="evenodd" d="M3.11.782A3.638 3.638 0 00.535 3.408c-.151.6-.095 1.58.13 2.244.261.777.569 1.23 1.842 2.717C3.699 9.762 3.824 9.87 4.154 9.787c.2-.05 2.422-2.636 2.763-3.215.556-.944.778-2.236.544-3.164A3.626 3.626 0 004.857.777C4.385.657 3.57.659 3.11.782zm19.657 3.194v3.296l-5.976.019c-5.918.019-5.983.02-6.6.16-2.571.583-4.656 1.985-6.089 4.096-.44.649-1.017 1.869-1.239 2.625-.322 1.092-.387 1.746-.387 3.877v1.91H.447v1.015h2.029v5.073H.447v1.015h2.029v5.073h1.01l.022-8.133c.022-7.976.025-8.145.155-8.738.396-1.803 1.12-3.142 2.39-4.411 1.273-1.274 2.606-1.996 4.41-2.39.584-.126.815-.132 6.455-.155l5.849-.023v2.035h-.507v1.015h.507v2.029l-5.089.001c-5.733.001-5.582-.01-6.546.47-.992.493-1.605 1.106-2.097 2.097-.492.99-.47.56-.47 8.831l-.001 7.372h1.014v-5.068l6.008-.021c5.822-.021 6.026-.026 6.579-.154a10.666 10.666 0 002.117-.723c.292-.136.535-.248.539-.248.003 0 .01.35.012.777.005.67.029.845.177 1.277.268.78.576 1.234 1.845 2.717 1.193 1.393 1.318 1.5 1.647 1.418.2-.05 2.422-2.636 2.763-3.215.556-.945.779-2.237.545-3.165-.394-1.561-1.825-2.727-3.348-2.727h-.366l.276-.428a9.778 9.778 0 001.429-3.904c.037-.273.068-1.35.068-2.394v-1.898h2.029v-1.015h-2.029V8.291h2.029V7.276h-2.029V.681h-1.011l-.021 8.894c-.021 8.753-.024 8.904-.155 9.499-.396 1.804-1.121 3.142-2.39 4.411-1.265 1.265-2.619 1.999-4.41 2.39-.584.127-.815.132-6.455.155l-5.849.023v-2.035H11.1v-1.015H9.578v-2.029l5.089-.001c5.732-.001 5.581.01 6.546-.47.976-.485 1.616-1.124 2.098-2.097.494-.996.468-.476.47-9.592V.68h-1.014v3.295zm3.044-2.915v.38h1.014v-.76H25.81v.38zm-20.977.796c.66.23 1.257.818 1.527 1.505.297.752.123 1.961-.396 2.762-.247.38-1.892 2.325-1.967 2.325-.065 0-1.76-1.983-1.952-2.283-.434-.678-.65-1.632-.529-2.325.232-1.315 1.353-2.207 2.651-2.11.216.017.516.073.666.126zM3.311 2.873c-.574.29-.87.826-.822 1.488.035.487.293.91.713 1.17.275.17.366.191.796.191.43 0 .521-.022.796-.192a1.64 1.64 0 00.502-.502c.17-.275.192-.366.192-.796 0-.43-.022-.521-.192-.796a1.527 1.527 0 00-1.985-.563zm22.5 1.581V5.5h1.014V3.408H25.81v1.046zM4.32 3.91c.102.102.185.247.185.322 0 .177-.33.507-.507.507-.176 0-.507-.33-.507-.507 0-.075.083-.22.185-.322.102-.102.247-.185.322-.185.075 0 .22.083.322.185zm21.49 4.603v1.046h1.016V7.466H25.81v1.047zm-14.425 1.9a8.035 8.035 0 00-.802.193l-.357.114.113.323c.253.722.217.68.498.58a5.31 5.31 0 01.747-.162c.874-.132.784-.059.784-.635v-.506l-.27.006a5.827 5.827 0 00-.713.086zm2.949.414v.508h1.965V10.32h-1.965v.507zm3.931 0v.508h2.029V10.32h-2.029v.507zm7.546 1.744v1.047h1.014v-2.093H25.81v1.046zM7.608 12.41c-.381.38-.693.736-.693.788 0 .053.176.222.39.376l.391.28.304-.365c.167-.2.448-.487.624-.635.176-.149.32-.296.32-.328 0-.066-.56-.81-.61-.81-.018 0-.345.312-.726.694zm15.143 3.317c-.032 1.436-.06 1.594-.402 2.3-.247.509-1.006 1.268-1.516 1.516-.836.406-.468.382-6.11.403l-5.16.02.029-1.35c.024-1.195.044-1.398.17-1.763.438-1.258 1.513-2.197 2.754-2.404.18-.03 2.563-.058 5.296-.062l4.97-.007-.03 1.347zm-17.03-.03a8.268 8.268 0 00-.178 1.046l-.042.49h.319c.175 0 .405.018.511.039.19.038.194.034.232-.27.021-.169.084-.536.139-.815.152-.776.17-.722-.294-.893a3.539 3.539 0 00-.482-.152c-.038 0-.13.249-.205.555zm20.078.886c-.013.55-.022 1.005-.02 1.012.003.008.24.033.526.057l.52.044v-2.112h-1.003l-.023.998zm-20.28 3.631v1.015h1.016v-2.03H5.52v1.015zm19.546-.428a6.711 6.711 0 01-.491.776c-.157.208-.284.394-.281.412.006.058.68.604.745.604.155 0 1.153-1.495 1.153-1.727 0-.066-.755-.462-.88-.461-.022 0-.132.178-.246.396zm-2.615 2.552c-.157.084-.514.23-.793.323a8.01 8.01 0 00-.53.19c-.056.047.213.978.283.978.137 0 1.184-.388 1.563-.58.2-.1.365-.215.365-.253 0-.123-.45-.816-.528-.813-.041.001-.203.071-.36.155zm-9.321 1.174v.507h2.029v-1.016h-2.029v.508zm4.058 0v.507h2.029v-1.016h-2.029v.508zm-11.667.666v.983h1.014v-1.966H5.52v.983zm23.663.003c.66.23 1.257.818 1.527 1.505.296.752.123 1.961-.396 2.761-.247.381-1.892 2.326-1.968 2.326-.064 0-1.76-1.983-1.951-2.283-.434-.678-.651-1.633-.53-2.326.233-1.315 1.354-2.207 2.652-2.109.216.017.515.073.666.126zm-1.524 1.015c-.573.29-.87.827-.822 1.488.036.487.294.91.714 1.17.275.17.366.192.796.192.43 0 .521-.022.796-.192a1.64 1.64 0 00.502-.502c.17-.275.192-.366.192-.796 0-.43-.022-.521-.192-.796a1.527 1.527 0 00-1.986-.564zm1.01 1.038c.102.102.185.247.185.322 0 .176-.33.507-.507.507-.075 0-.22-.083-.322-.185-.102-.102-.185-.247-.185-.322 0-.075.083-.22.185-.322.102-.102.247-.186.322-.186.075 0 .22.084.322.186zM5.519 28.14v1.015h1.016v-2.03H5.52v1.015zm0 3.488v.507h1.016v-1.014H5.52v.507z" fill="#565656"/></svg>