<svg width="44" height="43" fill="none" xmlns="http://www.w3.org/2000/svg"><path fill-rule="evenodd" clip-rule="evenodd" d="M20.661.186c-.84.12-1.952.472-2.829.895a9.543 9.543 0 00-4.885 5.539c-.713 2.11-.596 4.675.31 6.755.367.844 8.249 14.083 8.446 14.188.232.123.54.096.729-.064.253-.215 8.103-13.465 8.406-14.19.144-.343.358-.98.476-1.414.194-.715.214-.933.214-2.315 0-1.392-.019-1.598-.22-2.337-.248-.917-.863-2.257-1.388-3.025-1.45-2.12-3.993-3.675-6.596-4.035-.737-.102-1.94-.1-2.663.003zm3.36 1.474c1.393.342 2.822 1.157 3.867 2.205.98.982 1.65 2.125 2.09 3.559.199.645.22.846.226 2.115.008 1.63-.128 2.288-.725 3.52-.351.725-7.37 12.6-7.448 12.6-.078 0-7.219-12.086-7.508-12.707-.543-1.168-.672-1.83-.664-3.413.005-1.269.027-1.47.225-2.115.302-.985.568-1.554 1.09-2.333 1.251-1.867 3.184-3.129 5.447-3.556.855-.161 2.48-.102 3.4.125zM6.854 2.755c-.258.273-.888 1.637-1.218 2.64-.532 1.613-.667 2.517-.667 4.474 0 1.998.14 2.904.712 4.619.408 1.22.707 1.785.997 1.886.342.119.643 0 .793-.312.131-.273.127-.294-.248-1.215-.738-1.814-1.022-3.473-.943-5.507.074-1.899.448-3.428 1.266-5.178.431-.922.458-1.181.15-1.422-.286-.224-.622-.218-.842.015zm29.513-.015c-.311.243-.282.531.143 1.421.788 1.652 1.193 3.3 1.271 5.171.084 1.998-.2 3.655-.944 5.51-.339.845-.364.955-.27 1.178.114.276.305.406.595.406.453 0 .653-.31 1.194-1.85.887-2.525 1.017-5.471.358-8.149-.354-1.44-1.08-3.208-1.51-3.672-.215-.233-.551-.239-.837-.015zM21.04 4.22c-1.684.353-3.116 1.393-3.863 2.805-.81 1.533-.843 3.463-.084 4.988.947 1.899 2.797 3.037 4.937 3.037 2.457 0 4.456-1.477 5.285-3.903.121-.356.154-.694.153-1.567-.002-.996-.026-1.178-.223-1.719-.807-2.212-2.703-3.61-5.007-3.69-.457-.015-.996.007-1.198.05zM9.376 5.234c-.198.197-.618 1.347-.835 2.29-.21.91-.297 2.305-.207 3.279.11 1.18.472 2.638.716 2.88a.63.63 0 00.941-.04c.204-.256.197-.38-.072-1.373-.492-1.814-.357-4.058.357-5.942.264-.697.265-.828.01-1.082-.265-.263-.652-.268-.91-.012zm24.402.012c-.25.247-.257.483-.032.988.27.606.565 1.876.655 2.816.098 1.03-.001 2.276-.257 3.22-.27.992-.276 1.117-.073 1.373.131.165.253.226.455.226.472 0 .616-.2.893-1.24.221-.831.257-1.121.292-2.39.03-1.102.008-1.624-.094-2.209-.183-1.046-.682-2.55-.926-2.792a.628.628 0 00-.913.008zm-10.9.3c1.898.394 3.305 2.11 3.305 4.031 0 1.86-1.107 3.38-2.89 3.97-2.203.729-4.7-.62-5.286-2.857a4.13 4.13 0 011.165-4.072c1.035-.962 2.37-1.348 3.706-1.071zM21.492 7.26c-.777.204-1.508.87-1.75 1.595-.395 1.18.29 2.598 1.442 2.989.484.163 1.21.163 1.695 0 1.154-.391 1.837-1.808 1.44-2.993-.176-.528-.75-1.174-1.251-1.408-.416-.194-1.19-.284-1.576-.183zm1.014 1.385c.429.202.622.554.579 1.053-.03.34-.085.453-.336.68-.256.234-.36.274-.718.274-.357 0-.46-.04-.717-.273-.563-.512-.445-1.4.23-1.73.357-.175.596-.176.962-.004zM11.735 18.29c-.694.186-9.5 4.913-9.95 5.341-.198.19-.493.614-.664.956l-.306.614v15.763l.197.34c.245.427.7.691 1.19.691.324 0 .908-.29 4.93-2.447 2.508-1.346 4.743-2.496 4.966-2.555a1.47 1.47 0 01.767-.027c.2.044 4.333 1.255 9.186 2.69 9.74 2.882 9.549 2.836 10.497 2.486.28-.103 2.514-1.264 4.964-2.579 3.15-1.69 4.555-2.487 4.796-2.722.187-.182.475-.61.64-.95l.3-.618.023-7.696c.015-5.262-.006-7.799-.066-8.022-.185-.681-.831-1.133-1.495-1.044-.199.026-2.033.962-4.976 2.538-4.546 2.435-4.674 2.497-5.136 2.498-.346.002-.93-.135-2.17-.508-.932-.28-1.803-.51-1.934-.51-.294 0-.646.33-.646.604 0 .463.212.575 2.235 1.175l1.911.567.024 3.33.023 3.33.196.157c.29.233.709.206.92-.06.167-.211.171-.303.171-3.54V24.77l.229-.051c.125-.029 2.264-1.143 4.753-2.477 2.49-1.333 4.554-2.397 4.589-2.363.035.034.053 3.125.041 6.87l-.02 6.809-2.617-1.106c-2.62-1.107-3.058-1.247-3.598-1.146-.16.03-1.106.54-2.103 1.133-.997.593-1.863 1.098-1.923 1.122-.06.023-1.673-.359-3.585-.849l-3.477-.891v-.442c0-.972-.575-1.864-1.489-2.308-.392-.19-.579-.23-1.096-.227-.705.004-1.19.177-1.671.597l-.292.255-1.946-1.122c-2.257-1.302-2.617-1.46-3.16-1.398-.216.025-1.455.484-2.82 1.044-1.734.71-2.513.991-2.703.974-.223-.02-.705-.444-2.976-2.615-1.49-1.424-2.68-2.618-2.643-2.654.036-.035 1.804-.994 3.928-2.13l3.861-2.064.042 3.04c.038 2.842.051 3.052.2 3.214.237.26.733.238.956-.044.167-.21.172-.306.172-3.3v-3.084l.229.055c.125.03.373.106.55.167.703.243 1.214.05 1.214-.46 0-.532-.154-.639-1.372-.953-.913-.236-1.219-.248-1.866-.076zm-5.64 9.77c2.542 2.44 2.66 2.521 3.54 2.453.372-.028 1.03-.262 2.93-1.04 1.347-.553 2.507-1.005 2.578-1.005.07 0 1.06.535 2.2 1.189l2.073 1.188.044.688c.07 1.106.562 1.824 1.559 2.277.391.178.534.2 1.125.167.736-.04 1.156-.203 1.66-.643.156-.136.335-.247.397-.246.063 0 1.609.392 3.436.87 1.826.477 3.47.888 3.654.914.558.078.986-.104 2.845-1.214.983-.586 1.866-1.065 1.962-1.064.096 0 1.426.532 2.956 1.18 2.625 1.112 2.78 1.19 2.76 1.38-.053.49-.43.825-1.722 1.522-3.923 2.12-7.618 4.082-7.686 4.082-.047 0-.078-.863-.078-2.16 0-2.104-.005-2.165-.18-2.35-.262-.278-.746-.265-.976.026-.165.207-.172.316-.172 2.438v2.222l-.18-.057c-.349-.11-5.093-1.514-11.425-3.382l-6.414-1.892v-2.237c0-2.137-.008-2.246-.173-2.454a.641.641 0 00-.984 0c-.165.208-.172.316-.172 2.506v2.288l-.27.11c-.149.06-2.064 1.07-4.256 2.244a6294.284 6294.284 0 01-4.437 2.375c-.248.132-.482.24-.52.24-.038 0-.06-3.424-.047-7.609l.022-7.609.195-.394.195-.394.635.596c.35.328 1.666 1.586 2.926 2.795zm16.488 2.229c1.185.569.784 2.386-.526 2.386-1.367 0-1.804-1.785-.584-2.385.44-.216.663-.217 1.11-.002z" fill="url(#paint0_linear_1710_5918)"/><defs><linearGradient id="paint0_linear_1710_5918" x1=".815" y1=".107" x2="43.857" y2="43.627" gradientUnits="userSpaceOnUse"><stop stop-color="#0ABD92"/><stop offset="1" stop-color="#009DB8"/></linearGradient></defs></svg>