<svg width="40" height="47" fill="none" xmlns="http://www.w3.org/2000/svg"><path fill-rule="evenodd" clip-rule="evenodd" d="M26.552.466c-.662.388-.653 1.258.016 1.601.108.055.384.1.613.1 1.368 0 3.44.559 4.71 1.27 3.13 1.752 5.064 4.694 5.408 8.225.127 1.305.145 1.374.419 1.627.418.389 1.081.239 1.337-.302.29-.61-.1-3.203-.717-4.772-1.535-3.905-5.05-6.841-9.11-7.612-1.02-.194-2.454-.267-2.676-.137zm.18 4.741c-.1.02-.291.143-.427.271-.308.29-.336.783-.066 1.127.22.28.281.3 1.286.422 1.974.24 3.549 1.336 4.417 3.071.371.741.481 1.164.64 2.456.11.898.914 1.261 1.497.677l.275-.275-.05-.917c-.171-3.132-2.486-5.872-5.594-6.623-.739-.179-1.66-.276-1.978-.209zm-16.41.144c-.811.177-1.32.494-2.044 1.271-1.82 1.958-2.982 4.271-3.547 7.065-.228 1.128-.312 3.516-.168 4.77.54 4.7 2.808 8.875 6.678 12.291l.603.533-.809 2.564c-.445 1.411-1.01 3.203-1.258 3.983l-.449 1.417h-1.35c-1.69 0-2.46.148-3.578.688-1.985.959-3.417 3.123-3.458 5.226-.014.697 0 .754.235.99l.249.25h25.347l.236-.236c.492-.493.332-1.924-.38-3.4-.343-.707-.535-.972-1.187-1.624-.56-.562-.965-.876-1.445-1.125-1.246-.644-1.52-.697-3.851-.745l-2.09-.043v-4.772l.202.061c.11.034.66.157 1.218.275 3.87.816 7.681.288 10.852-1.504 1.485-.839 3.072-2.155 3.52-2.92 1.145-1.956.268-5.524-2.375-9.66-.707-1.106-.871-1.26-1.346-1.26-.532 0-.833.293-.833.812 0 .309.127.573.764 1.59 2.546 4.069 3.207 7.291 1.664 8.11-.37.195-.484.21-1.349.173-.77-.033-1.125-.1-1.933-.366-2.006-.659-4.822-2.296-7.158-4.162-.608-.485-.625-.51-.49-.698.922-1.278 1.08-2.961.414-4.43l-.252-.556 2.35-2.346 2.349-2.346.31.133c.369.158 1.266.181 1.77.046 1.622-.438 2.506-2.372 1.796-3.928-.422-.925-1.104-1.467-2.088-1.661-1.945-.383-3.726 1.353-3.37 3.284.052.277.133.573.182.657.073.128-.31.553-2.261 2.51l-2.35 2.356-.417-.212c-1.356-.688-2.93-.625-4.248.17l-.516.31-.61-.78c-3.729-4.76-5.413-9.534-3.792-10.742.618-.46 1.938-.42 3.522.108 1.678.559 4.209 1.944 5.913 3.237 1.255.953 1.62 1.172 1.95 1.172.43 0 .837-.407.837-.836 0-.43-.227-.683-1.387-1.542-4.26-3.155-8.154-4.687-10.571-4.158zm-2.428 5.463c.003.344.606 1.941 1.168 3.098 2.465 5.065 7.765 10.937 13.22 14.643 2.304 1.566 4.485 2.655 6.207 3.1.344.088.625.186.625.218 0 .068-.822.444-1.528.699-3.463 1.25-7.505 1.005-11.173-.677-5.079-2.328-8.799-6.993-9.889-12.401-.17-.841-.2-1.28-.198-2.882.003-2.149.148-3.065.732-4.631.447-1.2.654-1.594.755-1.435.044.07.08.19.081.268zm19.463.84c.399.167.618.517.618.985 0 .454-.213.81-.574.96-.799.331-1.553-.135-1.553-.96 0-.46.216-.814.598-.98.367-.16.537-.161.91-.005zm.459 5.554c-.325.256-.42.532-.313.917.263.953 1.701.761 1.701-.228 0-.731-.818-1.137-1.388-.689zm-9.471 2.776a2.753 2.753 0 011.475 2.101c.06.441-.13 1.213-.4 1.617l-.168.25-1.818-1.82-1.819-1.82.209-.163c.586-.457 1.8-.537 2.52-.166zm-3.15 13.305l1.052.511.005 2.723.005 2.722H13.73c-1.985 0-2.518-.024-2.484-.112.024-.062.455-1.43.958-3.038.503-1.608.977-3.117 1.053-3.353l.138-.428.375.232c.206.128.847.462 1.425.743zm7.4 8.06c.745.306 1.431.796 1.876 1.339.297.362.771 1.277.91 1.754l.06.203H2.784l.091-.338c.122-.45.558-1.264.899-1.677.55-.67 1.644-1.313 2.533-1.493.205-.041 3.813-.069 8.016-.061l7.642.014.63.259z" fill="url(#paint0_linear_1710_5930)"/><defs><linearGradient id="paint0_linear_1710_5930" x1=".938" y1=".4" x2="47.103" y2="38.941" gradientUnits="userSpaceOnUse"><stop stop-color="#0ABD92"/><stop offset="1" stop-color="#009DB8"/></linearGradient></defs></svg>