<svg width="40" height="40" fill="none" xmlns="http://www.w3.org/2000/svg"><path fill-rule="evenodd" clip-rule="evenodd" d="M17.947.491c-3.519.415-6.003 1.226-8.605 2.81C5.224 5.808 2.07 9.92.752 14.504.166 16.532 0 17.757 0 20.007s.167 3.475.751 5.504c1.887 6.557 7.307 11.785 13.937 13.444 1.826.457 2.773.57 4.787.571 1.985.002 3.104-.124 4.717-.527 6.968-1.744 12.434-7.128 14.231-14.015.487-1.868.616-2.92.615-5.02-.002-2.056-.118-2.998-.602-4.892C36.71 8.32 31.276 2.857 24.542 1.099c-1.589-.414-2.847-.58-4.63-.613-.913-.017-1.797-.015-1.965.005zm3.598 1.476c4.79.56 8.984 2.862 12.114 6.648 1.207 1.46 2.439 3.71 3.07 5.606 2.889 8.671-1.04 18.082-9.217 22.083-6.313 3.09-13.811 2.28-19.285-2.08a18.136 18.136 0 01-5.924-19.983C5.015 6.131 13.092.978 21.545 1.967zm-3.86 1.36c-5.88.729-10.77 4.21-13.275 9.448-.735 1.54-1.127 2.774-1.462 4.612-.212 1.161-.212 4.08 0 5.241.335 1.838.727 3.072 1.462 4.611 1.672 3.498 4.37 6.198 7.871 7.875 8.402 4.027 18.41.459 22.399-7.987a16.627 16.627 0 00-.05-14.352c-1.683-3.506-4.38-6.203-7.873-7.873-1.54-.737-2.806-1.139-4.574-1.453-.934-.167-3.564-.238-4.499-.122zm1.135 2.489c0 1.14.008 1.191.215 1.398a.658.658 0 00.968 0c.207-.207.215-.258.215-1.404V4.62l.502.054c2.22.24 3.906.719 5.701 1.617 3.417 1.712 6.066 4.657 7.48 8.318.473 1.225.736 2.407.946 4.24l.053.46h-1.187c-1.143 0-1.194.007-1.4.214a.658.658 0 000 .969c.206.206.257.214 1.402.214h1.187l-.054.546c-.368 3.671-1.816 6.86-4.265 9.391-2.685 2.775-5.788 4.253-9.863 4.697l-.502.055v-1.19c0-1.146-.008-1.197-.215-1.404a.658.658 0 00-.968 0c-.207.207-.215.258-.215 1.404v1.19l-.502-.055c-2.94-.317-5.24-1.14-7.518-2.689-.985-.67-2.429-1.996-3.184-2.924-1.94-2.386-3.104-5.267-3.426-8.475l-.055-.546h1.188c1.145 0 1.195-.008 1.402-.214a.658.658 0 000-.969c-.207-.207-.257-.214-1.404-.214h-1.19l.055-.503c.248-2.277.682-3.826 1.58-5.634 2.359-4.755 6.986-7.931 12.355-8.48.778-.08.699-.207.699 1.124zm-6.171 2.049c-.238.095-.468.42-.468.663 0 .103.081.29.181.417.14.178.258.23.518.23.606 0 .903-.639.502-1.08-.233-.256-.476-.333-.733-.23zm13.278 0c-.238.095-.468.42-.468.663 0 .103.082.29.181.417.14.178.258.23.518.23.606 0 .903-.639.502-1.08-.233-.256-.476-.333-.733-.23zm-1.498 2.469c-.127.069-1.053 1.586-2.54 4.163L19.55 18.55l-.4.117c-1.347.393-1.348 2.286 0 2.679l.398.116 1.635 2.826c.9 1.554 1.706 2.877 1.793 2.94.443.325 1.148-.082 1.06-.61-.026-.153-.775-1.536-1.665-3.074l-1.618-2.795.1-.371a1.262 1.262 0 000-.743l-.1-.371 2.354-4.074c1.294-2.24 2.352-4.153 2.352-4.251 0-.296-.096-.454-.356-.589-.299-.155-.414-.158-.674-.017zm-16.844 2.54c-.17.146-.238.287-.238.494 0 .207.068.348.238.495.294.252.57.26.871.023.178-.14.23-.258.23-.518 0-.615-.63-.898-1.101-.494zm22.996-.024a.672.672 0 000 1.036c.301.237.578.23.872-.023.17-.147.238-.288.238-.495 0-.207-.068-.348-.238-.494-.294-.253-.571-.26-.872-.024zM7.585 26.152c-.17.146-.238.287-.238.494 0 .207.068.349.238.495.294.252.57.26.871.023.178-.14.23-.258.23-.518 0-.615-.63-.898-1.101-.494zm22.996-.023a.672.672 0 000 1.035c.301.237.578.23.872-.023.17-.146.238-.287.238-.494 0-.207-.068-.349-.238-.495-.294-.252-.571-.26-.872-.023zm-18.219 4.94c-.236.302-.23.579.024.872.146.17.287.238.494.238.207 0 .348-.068.494-.238.253-.293.26-.57.024-.871-.14-.178-.258-.23-.518-.23s-.378.052-.518.23zm13.278 0c-.236.302-.229.579.024.872.146.17.287.238.494.238.207 0 .348-.068.494-.238.253-.293.26-.57.024-.871-.14-.178-.258-.23-.518-.23s-.378.052-.518.23z" fill="url(#paint0_linear_1710_6049)"/><defs><linearGradient id="paint0_linear_1710_6049" x1="0" y1=".475" x2="39.833" y2="40.488" gradientUnits="userSpaceOnUse"><stop stop-color="#0ABD92"/><stop offset="1" stop-color="#009DB8"/></linearGradient></defs></svg>