<svg width="45" height="44" fill="none" xmlns="http://www.w3.org/2000/svg"><path fill-rule="evenodd" clip-rule="evenodd" d="M22.119.121c-.188.143-.32.574-.32 1.05v.358l-.622.056c-2.514.227-4.433.671-6.424 1.488a20.389 20.389 0 00-10.615 9.936c-1.206 2.463-1.812 4.726-2.068 7.723l-.056.666h-.589c-.494 0-.616.03-.763.189a.692.692 0 00-.172.408c.005.451.392.692 1.11.692h.416l.057.624c.264 2.933.851 5.163 1.972 7.498 2.013 4.192 5.245 7.464 9.41 9.527 2.394 1.185 4.65 1.79 7.765 2.078l.58.053v.36c0 .752.245 1.168.687 1.168.443 0 .688-.416.688-1.168v-.359l.666-.057c2.884-.248 5.176-.867 7.627-2.061 1.99-.97 4.516-2.754 4.72-3.333.108-.306-.066-.629-.4-.745-.313-.11-.424-.056-1.226.594-3.07 2.489-6.645 3.902-10.764 4.255l-.623.054V39.36l.451-.002c.702-.002 2.148-.23 3.2-.506a17.421 17.421 0 0012.513-12.514c.276-1.052.504-2.498.507-3.2l.001-.45h1.815l-.053.623c-.34 3.96-1.683 7.462-4.022 10.489-.584.755-.663 1.087-.323 1.362.318.258.67.205.995-.15.78-.85 1.965-2.718 2.668-4.203 1.122-2.367 1.72-4.64 1.976-7.498l.056-.623h.415c.719 0 1.106-.241 1.111-.693a.693.693 0 00-.172-.409c-.148-.158-.27-.188-.766-.188h-.591l-.056-.666c-.248-2.986-.854-5.254-2.063-7.723-2.779-5.676-8.034-9.765-14.182-11.035-.734-.151-2.859-.424-3.33-.427-.12 0-.15-.076-.15-.367 0-.759-.244-1.175-.688-1.175a.712.712 0 00-.368.116zm-.32 3.617v.902h-.426c-.643 0-2.239.24-3.126.472-7.26 1.89-12.537 8.11-13.1 15.442l-.062.802h-1.72l.024-.602c.06-1.571.58-4.006 1.183-5.549C6.686 9.797 10.955 5.689 16.358 3.86a21.234 21.234 0 015.206-1.01l.236-.014v.903zm3.524-.674c6.485.92 12.182 5.34 14.826 11.502.764 1.78 1.368 4.398 1.438 6.23l.022.56H39.89l-.02-.301c-.218-3.264-1.177-6.111-2.955-8.766-2.72-4.063-7.121-6.833-11.945-7.519a13.065 13.065 0 00-1.344-.128l-.451-.002V2.825l.623.056c.343.03 1.03.113 1.525.183zm-3.49 3.283c.065.486.282.728.654.728.373 0 .59-.242.655-.728l.055-.418h.45c.249 0 .927.08 1.508.18a16.126 16.126 0 0113.273 13.528c.071.472.13 1.062.13 1.31v.451h-.416c-.488 0-.73.2-.73.602 0 .372.242.59.729.654l.417.056v.397c-.002 1.035-.424 3.05-.921 4.393-2.067 5.583-6.942 9.564-12.786 10.44-.473.072-1.038.13-1.257.13h-.397l-.055-.417c-.065-.486-.282-.728-.655-.728-.372 0-.59.242-.654.728l-.055.418h-.397c-1.035-.002-3.05-.424-4.394-.922-5.491-2.032-9.417-6.748-10.391-12.482-.099-.58-.18-1.259-.18-1.507v-.45l.418-.056c.486-.064.728-.282.728-.654 0-.402-.24-.602-.729-.602h-.416v-.505c0-.277.08-.98.179-1.56A16.144 16.144 0 0119.78 6.108c.52-.09 1.182-.168 1.472-.172l.526-.007.055.418zm-1.838 8.333c-12.39 4.29-11.691 4.003-11.817 4.84-.075.506.172 1.116.544 1.339.14.084 2.635 1.021 5.542 2.082l5.287 1.93 1.95 5.332c1.073 2.933 2.023 5.434 2.112 5.558.515.724 1.814.63 2.214-.162.275-.544 3.73-10.618 3.733-10.884.006-.481-.694-.758-1.04-.41-.086.085-.397.849-.69 1.697-.294.847-1.11 3.204-1.812 5.237-.702 2.032-1.307 3.695-1.344 3.695-.075 0-3.815-10.147-3.818-10.356 0-.071 2.575-2.7 5.725-5.844 3.15-3.143 5.707-5.657 5.685-5.586-.023.071-.705 2.049-1.515 4.395-.811 2.347-1.474 4.323-1.474 4.393 0 .07.08.229.178.353.23.294.662.31.912.033.1-.111.818-2.062 1.698-4.619 1.476-4.285 1.523-4.444 1.492-5.002-.037-.677-.309-1.142-.913-1.567-.304-.214-.465-.262-.943-.283-.563-.024-.833.064-11.706 3.829zm5.636 3.188l-5.75 5.752-.438-.162-5.163-1.89c-2.6-.95-4.757-1.757-4.794-1.793-.037-.037.988-.43 2.278-.874s6.212-2.148 10.938-3.788c4.727-1.639 8.613-2.984 8.637-2.988.024-.005-2.545 2.58-5.708 5.743zM5.128 23.114c0 .643.24 2.24.471 3.126 1.622 6.232 6.36 10.993 12.55 12.612 1.052.275 2.498.504 3.2.506l.45.002v1.818l-.58-.055c-2.33-.223-4.447-.724-6.165-1.462-4.186-1.795-7.657-5.046-9.662-9.049-1.188-2.371-1.745-4.388-2.027-7.344l-.056-.58h1.819v.426z" fill="url(#paint0_linear_1710_6055)"/><defs><linearGradient id="paint0_linear_1710_6055" x1=".49" y1=".005" x2="45.359" y2="45.1" gradientUnits="userSpaceOnUse"><stop stop-color="#0ABD92"/><stop offset="1" stop-color="#009DB8"/></linearGradient></defs></svg>