<svg width="44" height="34" fill="none" xmlns="http://www.w3.org/2000/svg"><path fill-rule="evenodd" clip-rule="evenodd" d="M19.29.639c-2.852.343-5.815 1.315-8.234 2.7-1.948 1.117-3.092 1.996-4.708 3.616-4.26 4.274-6.477 9.873-6.3 15.912.07 2.442.384 4.204 1.149 6.469.395 1.17 1.383 3.311 1.748 3.79.327.43.573.393 1.714-.254 1.29-.732 1.256-.694 1.035-1.121-.39-.754-.338-.744-1.218-.225l-.783.463-.484-1.012c-1.054-2.208-1.736-4.787-1.9-7.19l-.06-.875h1.824v-1.258H1.25l.059-.876c.11-1.652.493-3.525 1.062-5.189.298-.87.987-2.475 1.208-2.813l.135-.207.399.23.794.458.396.228.278-.486c.153-.268.278-.522.278-.565 0-.044-.345-.274-.765-.513-.49-.278-.742-.47-.703-.539 1.203-2.058 3.614-4.553 5.903-6.11.339-.23.65-.397.691-.372.042.026.242.348.445.716s.408.694.455.723c.075.046 1.072-.459 1.072-.543 0-.017-.203-.383-.452-.814-.248-.43-.438-.797-.42-.814.13-.131 2.467-1.112 3.3-1.386 1.659-.545 4.043-.984 5.34-.984h.409v1.797h1.258V1.798h.426c1.27.003 3.693.449 5.299.976.981.323 3.35 1.327 3.35 1.422 0 .022-.157.31-.348.64-.62 1.071-.615.952-.052 1.27.273.154.53.26.569.235.04-.024.262-.371.494-.771l.422-.727.333.201c2.124 1.286 5.001 4.204 6.249 6.338.04.068-.212.261-.703.54-.42.238-.764.468-.765.512 0 .043.125.297.278.565l.278.486.329-.194c.18-.107.538-.313.794-.459l.466-.263.137.208c.075.115.313.613.53 1.107.993 2.272 1.576 4.584 1.734 6.874l.062.896H40.45v1.258h1.796v.4c0 .633-.255 2.427-.504 3.54-.3 1.34-.83 2.875-1.427 4.122l-.483 1.01-.783-.462c-.752-.442-.79-.454-.912-.29-.252.337-.486.867-.413.937.272.26 2.148 1.255 2.366 1.255.353 0 .582-.32 1.293-1.803 1.331-2.778 1.986-5.489 2.092-8.664.245-7.324-3.148-14.155-9.18-18.48-2.485-1.782-5.673-3.09-8.952-3.67-.886-.158-1.54-.204-3.223-.226-1.161-.016-2.435.01-2.83.058zm13.927 9.085c-.21.121-6.706 4.639-6.806 4.733-.084.08.552 1 .687.993.055-.002.949-.603 1.986-1.334 1.038-.732 1.9-1.32 1.916-1.307.015.012-1.24 1.926-2.792 4.252l-2.82 4.23-.208-.5c-.282-.68-1.043-1.484-1.732-1.828-.3-.15-.604-.274-.673-.274-.223 0-.04-.158 1.102-.945.754-.519 1.1-.808 1.053-.881-.306-.484-.599-.87-.66-.87-.157 0-4.648 3.2-5.096 3.63-1.84 1.772-1.354 4.821.95 5.96.662.327.717.339 1.638.339.917 0 .977-.012 1.622-.332.368-.182.815-.485.993-.674.478-.504 9.784-14.468 9.784-14.68 0-.225-.387-.623-.603-.619a.856.856 0 00-.34.107zM22.83 20.03c.907.463 1.397 1.253 1.393 2.246-.01 2.224-2.79 3.29-4.278 1.64-.458-.51-.626-.942-.632-1.634-.012-1.166.736-2.149 1.85-2.435.428-.11 1.276-.016 1.667.183z" fill="url(#paint0_linear_1710_6052)"/><defs><linearGradient id="paint0_linear_1710_6052" x1=".038" y1=".576" x2="32.23" y2="43.369" gradientUnits="userSpaceOnUse"><stop stop-color="#0ABD92"/><stop offset="1" stop-color="#009DB8"/></linearGradient></defs></svg>