<svg width="52" height="54" fill="none" xmlns="http://www.w3.org/2000/svg"><path fill-rule="evenodd" clip-rule="evenodd" d="M37.882.278c-1.186.498-1.578.883-2.697 2.654-1.17 1.85-1.368 2.35-1.371 3.474-.007 1.955.56 2.817 2.892 4.393l1.63 1.102-.41.631c-.225.347-.441.63-.48.629-.038-.001-.355-.165-.703-.363-1.721-.983-3.973-1.819-6.214-2.307-1.316-.288-1.664-.315-4.085-.32-2.854-.005-3.853.128-6.19.82-2.196.65-5.3 2.239-6.31 3.23-.447.436-.555.627-.623 1.09-.114.791.27 1.546.985 1.937.766.419 1.228.323 2.603-.54 2.044-1.282 3.926-2.037 6.163-2.472 5.936-1.153 11.97.829 16.165 5.31 2.44 2.607 4.052 5.895 4.654 9.497.337 2.01.263 5.075-.166 6.918-1.18 5.067-4.086 9.164-8.287 11.684-5.727 3.434-12.572 3.375-18.36-.16-1.164-.71-1.475-.85-1.898-.85-.938 0-1.714.68-1.863 1.633-.124.79.253 1.435 1.224 2.094 3.89 2.64 8.799 3.95 13.399 3.575 3.545-.29 6.863-1.394 9.829-3.273 1.352-.856 2.204-1.547 3.563-2.889 1.879-1.856 3.131-3.6 4.306-6a22.217 22.217 0 00.14-19.184c-1.07-2.274-2.306-4.069-4.112-5.972l-1.125-1.186.458-.724c.251-.398.483-.723.515-.723.031 0 .589.352 1.24.782 1.878 1.243 2.494 1.499 3.596 1.49 1.81-.012 2.797-.679 4.151-2.801 1.06-1.663 1.266-2.085 1.432-2.946.25-1.3-.213-2.803-1.166-3.786-.62-.64-9.164-6.22-9.964-6.507-.865-.312-2.097-.286-2.921.06zM23.96 17.81c-2.779.514-5.504 1.956-7.511 3.976a15.514 15.514 0 00-1.216 1.396l-.498.674H8.129c-7.18 0-7.043-.012-7.654.661-.922 1.016-.435 2.712.887 3.087.301.085 2.33.129 5.996.13H12.9l-.167.558c-.147.494-.499 2.554-.5 2.934-.001.109-1.021.15-4.297.176l-4.296.034-.422.33c-.532.413-.768.874-.768 1.497 0 .678.3 1.252.844 1.62l.462.313 4.428.06 4.427.058.22.82c.12.451.42 1.258.666 1.792l.446.972h-6.21c-6.748 0-6.65-.009-7.258.661-.922 1.016-.435 2.71.887 3.088.312.089 2.83.128 7.993.125l7.537-.005.662.544c4.542 3.74 11.067 4.188 16.09 1.106 2.445-1.5 4.186-3.464 5.468-6.165 3.43-7.227.39-15.924-6.755-19.32-1.885-.897-3.824-1.31-6.072-1.294-.799.006-1.845.083-2.324.172zm8.181 8.261c.83.45 1.185 1.618.754 2.47-.091.18-.774.87-1.517 1.535l-1.35 1.207-.016.856c-.037 2.128-1.606 3.704-3.687 3.704-1.473 0-2.654-.746-3.299-2.084-.329-.682-.377-.9-.372-1.671.006-1.154.323-1.907 1.128-2.685.944-.911 2.494-1.341 3.469-.963.283.11.394.039 1.532-.983.675-.606 1.409-1.214 1.63-1.352.5-.31 1.193-.324 1.728-.034z" fill="url(#paint0_linear_1710_6043)"/><defs><linearGradient id="paint0_linear_1710_6043" x1="0" y1="0" x2="55.051" y2="53.272" gradientUnits="userSpaceOnUse"><stop stop-color="#0ABD92"/><stop offset="1" stop-color="#009DB8"/></linearGradient></defs></svg>