<svg width="34" height="28" fill="none" xmlns="http://www.w3.org/2000/svg"><path fill-rule="evenodd" clip-rule="evenodd" d="M27.089.072c-1.08.316-1.625 1.686-1.087 2.73.884 1.72 3.343 1.066 3.343-.887 0-1.284-1.1-2.182-2.256-1.843zm.797 1.52c.115.094.117.531.003.651-.16.17-.548.111-.68-.102-.274-.443.269-.883.677-.549zM8.594 3.03c-.105.132-.187.33-.187.452 0 .123.082.32.187.453l.187.235h1.432c1.842 0 1.66-.13 1.66 1.193v1.1h-1.397c-1.976 0-2.618.424-1.858 1.228l.211.224h3.116V8.94c0 1.41.18 1.267-1.602 1.267H8.83l-.21.224a.708.708 0 00-.038.976l.174.214 1.541.024c2.97.045 2.95.076 2.947-4.423-.001-3.557.002-3.532-.536-4.032-.41-.38-.496-.395-2.276-.395H8.78l-.187.235zm6.806-.08c-.82.457-.872.736-.842 4.512l.023 3.025.218.373c.393.673.74.8 2.201.8 2.067 0 2.403-.331 2.443-2.408.046-2.36-.338-2.79-2.492-2.79h-1.034V5.408c0-1.346-.144-1.238 1.642-1.238 1.704 0 1.824-.045 1.824-.688 0-.23-.047-.362-.177-.5l-.177-.187-1.683.003c-1.52.003-1.707.018-1.946.151zm6.61-.057c-1.193.492-1.347 1.03-1.314 4.59.025 2.791.035 2.859.526 3.473.99 1.24 3.537.877 4.184-.596.235-.535.234-5.813-.002-6.343-.453-1.02-2.222-1.606-3.393-1.124zm2.034 1.541l.177.188v5.253l-.185.184c-.22.219-1.068.303-1.507.15-.474-.165-.482-.224-.46-3.067l.022-2.527.202-.184c.308-.28 1.485-.278 1.75.003zM18.047 9.06v1.108h-2.094l-.02-1.13-.02-1.128 1.067.02 1.067.022V9.06zM5.338 8.708c-2.402.908-3.987 2.073-4.594 3.377L.5 12.61v6.881l.225.502c1.188 2.654 7.945 5.115 14.042 5.115h.211v1.112c0 1.573.368 2.11 1.085 1.585.443-.324 6.686-5.64 6.75-5.748.349-.582.356-.573-3.234-3.615-4.17-3.532-3.867-3.33-4.329-2.893l-.236.223-.023 1.163-.024 1.163-.843-.052a36.27 36.27 0 01-5.988-.91l-.993-.243-.036-4.063-.036-4.063-.175-.198c-.246-.276-.525-.252-1.558.139zm21.766-.112l-.211.223v8.088l-.993.237c-.546.13-1.302.294-1.679.363-1.234.225-1.548.559-1.159 1.235.206.356.458.378 1.675.142 2.999-.58 5.13-1.374 6.723-2.505l.704-.5v1.598c0 1.809-.02 1.907-.517 2.477-1.125 1.292-3.593 2.36-7.063 3.058-1.642.33-1.96.573-1.63 1.247.222.456.442.48 1.876.199 4.49-.878 7.496-2.445 8.4-4.379l.27-.58V12.61l-.242-.519c-.58-1.246-1.906-2.285-4.015-3.145-1.557-.634-1.829-.679-2.14-.35zM5.735 13.268v3.139l-.162-.052c-2.969-.933-4.445-2.854-3.236-4.21.632-.71 2.762-2.006 3.308-2.014.07 0 .09.677.09 3.137zM29.24 10.5c3.86 1.795 3.86 3.731 0 5.526-.437.203-.835.37-.885.37-.07 0-.09-.677-.09-3.133s.02-3.133.09-3.133c.05 0 .448.167.885.37zM2.442 16.314c2.413 1.723 6.97 2.934 12.067 3.207 1.775.095 1.787.087 1.841-1.169l.036-.832 2.369 2.032c2.825 2.425 2.825 1.767.002 4.188l-2.37 2.033-.037-.836c-.05-1.144-.077-1.17-1.35-1.24-6.732-.373-12.11-2.138-13.028-4.277-.129-.3-.217-3.482-.097-3.482.022 0 .277.169.567.376z" fill="#fff"/></svg>