<svg width="109" height="133" fill="none" xmlns="http://www.w3.org/2000/svg"><path fill-rule="evenodd" clip-rule="evenodd" d="M20.902.786c-2.807.686-5.485 3.03-6.593 5.771l-.594 1.47-.075 16.042-.075 16.042L7 46.618.437 53.125l.002 7.518.002 7.518.793.793.793.793h6.404l-.006 4.06-.006 4.058-3.75 2.952C2.606 82.44.81 83.969.679 84.214c-.14.263-.237 8.587-.235 20.242.003 21.939-.053 21.16 1.7 23.712 1.078 1.572 2.134 2.429 4.165 3.38l1.478.693h93.564l1.478-.693c2.031-.951 3.087-1.808 4.166-3.38 1.833-2.67 1.696 2.3 1.696-61.77 0-64.072.137-59.102-1.696-61.772-1.079-1.572-2.135-2.428-4.166-3.38l-1.478-.693L61.786.51C30.892.474 21.932.535 20.902.786zm14.336 19.095v14.045h-5.413V5.836h5.413v14.045zm19.073 0v14.045h-5.155V5.836h5.155v14.045zm19.074 0v14.045H68.23V5.836h5.155v14.045zm19.074-4.38v9.663h-5.156V5.836h5.156V15.5z" fill="#2E2E2E"/><path opacity=".1" d="M31.09 115.214c-.817 0-1.6-.131-2.349-.394a5.372 5.372 0 01-1.998-1.269c-.584-.584-1.043-1.347-1.379-2.29-.336-.949-.5-2.104-.496-3.465.005-1.23.156-2.334.452-3.312.297-.982.72-1.816 1.27-2.501a5.562 5.562 0 011.983-1.569c.773-.364 1.637-.547 2.59-.547 1.045 0 1.967.205 2.764.613.802.404 1.444.948 1.926 1.634a4.73 4.73 0 01.853 2.276h-3.552c-.107-.472-.343-.829-.708-1.073-.36-.248-.787-.372-1.283-.372-.915 0-1.598.397-2.05 1.189-.447.793-.676 1.853-.686 3.181h.095c.205-.448.499-.832.883-1.153a4.143 4.143 0 011.32-.737c.5-.175 1.03-.262 1.59-.262.895 0 1.685.206 2.37.62.686.413 1.224.98 1.613 1.699.389.715.58 1.534.576 2.458.005 1.041-.238 1.96-.73 2.757a5.02 5.02 0 01-2.042 1.853c-.865.443-1.87.664-3.012.664zm-.022-2.772c.442 0 .839-.104 1.189-.313.35-.21.625-.494.824-.854.2-.36.297-.766.292-1.218a2.391 2.391 0 00-.292-1.218 2.2 2.2 0 00-.817-.846 2.25 2.25 0 00-1.189-.314 2.271 2.271 0 00-1.648.693 2.35 2.35 0 00-.482.759 2.5 2.5 0 00.124 2.137c.2.36.472.647.817.861.346.209.74.313 1.182.313zm7.671.088v-2.816l6.12-9.642h2.502v3.822h-1.452l-3.581 5.674v.117h8.862v2.845H38.74zm7.214 2.48v-3.341l.073-1.233v-10.364h3.377v14.938h-3.45zm21.375-10.059a2.618 2.618 0 00-.365-.809 2.334 2.334 0 00-.59-.606 2.549 2.549 0 00-.803-.372 3.567 3.567 0 00-.992-.131c-.725 0-1.352.175-1.882.525-.525.35-.931.861-1.218 1.532-.287.666-.43 1.476-.43 2.429 0 .958.138 1.775.416 2.451.277.675.678 1.191 1.203 1.546s1.162.532 1.911.532c.661 0 1.22-.107 1.678-.321a2.356 2.356 0 001.05-.926c.238-.399.357-.868.357-1.408l.671.081h-3.632v-2.634h6.44v1.977c0 1.337-.284 2.482-.853 3.436a5.678 5.678 0 01-2.334 2.195c-.987.511-2.122.766-3.406.766-1.425 0-2.677-.309-3.757-.926-1.079-.618-1.92-1.498-2.523-2.641-.603-1.147-.905-2.509-.905-4.084 0-1.226.183-2.313.547-3.261.365-.953.873-1.76 1.525-2.421a6.576 6.576 0 012.276-1.503 7.573 7.573 0 012.793-.51c.866 0 1.67.123 2.414.371.75.248 1.41.598 1.984 1.051a5.558 5.558 0 011.408 1.612c.36.622.584 1.305.671 2.049h-3.654zm5.943 10.059v-14.938H79.5c1.118 0 2.054.158 2.808.474.758.316 1.327.758 1.707 1.327.384.569.576 1.228.576 1.977 0 .569-.12 1.077-.358 1.524-.238.443-.566.81-.984 1.102a3.935 3.935 0 01-1.452.612v.146c.603.029 1.16.192 1.67.489.516.297.93.71 1.24 1.24.312.525.467 1.148.467 1.867 0 .803-.204 1.52-.612 2.152-.409.627-1 1.123-1.773 1.488-.773.36-1.711.54-2.815.54H73.27zm3.61-2.911h2.232c.783 0 1.36-.148 1.729-.445.374-.296.561-.71.561-1.24 0-.384-.09-.714-.27-.992a1.738 1.738 0 00-.765-.649c-.331-.155-.727-.233-1.19-.233h-2.297v3.559zm0-5.886h1.999a2.65 2.65 0 001.05-.197 1.61 1.61 0 00.715-.569c.175-.248.262-.547.262-.897 0-.501-.177-.895-.532-1.182-.355-.286-.834-.43-1.437-.43h-2.057v3.275z" fill="#fff"/></svg>