<svg width="86" height="104" fill="none" xmlns="http://www.w3.org/2000/svg"><path fill-rule="evenodd" clip-rule="evenodd" d="M17.006.725c-2.204.538-4.307 2.378-5.177 4.53l-.466 1.155-.06 12.596-.059 12.595-5.154 5.11L.938 41.82l.001 5.902.002 5.904.623.622.623.623h5.028l-.005 3.187-.005 3.187-2.944 2.317c-1.62 1.275-3.03 2.475-3.132 2.668-.11.206-.187 6.742-.186 15.893.003 17.226-.041 16.614 1.334 18.618.848 1.234 1.677 1.907 3.271 2.654l1.161.544h73.463l1.161-.544c1.595-.747 2.424-1.42 3.27-2.654 1.44-2.096 1.333 1.805 1.333-48.5 0-50.307.107-46.405-1.332-48.501-.847-1.235-1.676-1.907-3.271-2.654l-1.16-.544L49.105.507c-24.257-.028-31.292.02-32.1.218zM28.26 15.717v11.028h-4.25V4.69h4.25v11.027zm14.976 0v11.028H39.19V4.69h4.047v11.027zm14.976 0v11.028h-4.046V4.69h4.047v11.027zm14.976-3.44v7.588h-4.046V4.69h4.047v7.588z" fill="#2E2E2E"/><path opacity=".1" d="M24.326 90.867c-.893 0-1.686-.153-2.377-.458-.687-.31-1.229-.735-1.626-1.278a3.147 3.147 0 01-.607-1.872h2.852c.011.256.093.483.246.681.153.195.361.348.624.458a2.3 2.3 0 00.9.166 2.1 2.1 0 00.887-.177c.26-.122.462-.288.607-.498.145-.214.216-.458.212-.733a1.162 1.162 0 00-.235-.733 1.55 1.55 0 00-.681-.499 2.72 2.72 0 00-1.031-.177h-1.14V83.73h1.14c.347 0 .653-.057.916-.172.268-.114.476-.275.625-.48.148-.21.221-.451.217-.722a1.205 1.205 0 00-.189-.694 1.253 1.253 0 00-.532-.47 1.758 1.758 0 00-.785-.165c-.313 0-.598.055-.853.166-.252.11-.453.267-.602.47a1.219 1.219 0 00-.234.704h-2.71c.008-.699.203-1.313.585-1.844.382-.535.9-.953 1.558-1.254.66-.302 1.412-.453 2.256-.453.84 0 1.579.147 2.216.441.638.294 1.134.695 1.49 1.203.354.504.532 1.075.532 1.712.004.66-.212 1.205-.647 1.632-.432.428-.987.691-1.667.79v.092c.909.107 1.594.401 2.056.882.466.481.697 1.083.693 1.804 0 .68-.2 1.283-.601 1.81-.397.523-.95.935-1.66 1.237-.707.298-1.519.447-2.435.447zm6.296-.16v-2.04l4.278-3.745c.32-.29.593-.555.819-.796.225-.244.396-.489.515-.733.118-.248.177-.517.177-.807 0-.325-.07-.602-.212-.83a1.42 1.42 0 00-.584-.54 1.86 1.86 0 00-.853-.188 1.75 1.75 0 00-.853.2c-.245.13-.435.32-.573.567-.134.248-.2.55-.2.905H30.45c0-.798.18-1.487.538-2.067a3.539 3.539 0 011.512-1.34c.653-.317 1.41-.476 2.273-.476.89 0 1.663.15 2.32.447.657.298 1.164.714 1.523 1.248.363.531.544 1.148.544 1.85 0 .447-.09.89-.269 1.329-.18.439-.502.924-.968 1.454-.462.531-1.118 1.167-1.97 1.908l-1.403 1.294v.074h4.754v2.285H30.62zm21.468-7.898a2.06 2.06 0 00-.286-.636 1.83 1.83 0 00-.464-.475 1.989 1.989 0 00-.63-.292 2.787 2.787 0 00-.779-.103c-.569 0-1.061.137-1.477.412-.413.275-.731.676-.957 1.203-.225.523-.337 1.158-.337 1.907 0 .752.108 1.393.326 1.924.218.53.533.936.945 1.214.412.279.912.418 1.5.418.52 0 .959-.084 1.318-.252.362-.172.637-.414.824-.727.187-.313.28-.682.28-1.105l.528.063h-2.852v-2.068h5.057v1.552c0 1.05-.224 1.95-.67 2.698a4.456 4.456 0 01-1.833 1.723c-.775.401-1.667.602-2.675.602-1.118 0-2.101-.243-2.949-.728a5.04 5.04 0 01-1.981-2.073c-.474-.9-.71-1.97-.71-3.207 0-.962.143-1.815.429-2.56a5.437 5.437 0 011.197-1.901 5.173 5.173 0 011.787-1.18c.68-.267 1.41-.4 2.193-.4.68 0 1.312.097 1.896.291a5.06 5.06 0 011.557.825 4.37 4.37 0 011.106 1.266c.282.488.458 1.025.527 1.609h-2.87zm4.666 7.897V78.978h4.891c.879 0 1.614.124 2.205.372.596.248 1.043.595 1.34 1.042.302.447.453.964.453 1.552 0 .447-.094.846-.28 1.197a2.47 2.47 0 01-.774.865 3.09 3.09 0 01-1.14.48v.115c.474.023.911.151 1.312.384.405.233.73.558.973.974.245.412.367.9.367 1.466 0 .63-.16 1.193-.481 1.69-.32.492-.785.881-1.392 1.168-.607.282-1.344.423-2.21.423h-5.264zm2.835-2.285h1.753c.614 0 1.067-.116 1.357-.349.294-.233.441-.557.441-.974 0-.301-.07-.56-.212-.778a1.363 1.363 0 00-.601-.51c-.26-.122-.57-.183-.934-.183h-1.804v2.794zm0-4.621h1.57c.309 0 .584-.052.824-.155a1.27 1.27 0 00.562-.447 1.19 1.19 0 00.206-.704c0-.393-.14-.703-.418-.928-.28-.225-.655-.338-1.129-.338h-1.615V83.8z" fill="#fff"/></svg>