<svg width="126" height="153" fill="none" xmlns="http://www.w3.org/2000/svg"><path fill-rule="evenodd" clip-rule="evenodd" d="M23.854.83c-3.239.791-6.329 3.496-7.607 6.659l-.685 1.695-.087 18.51-.087 18.508-7.573 7.508L.24 61.218l.003 8.674.003 8.674.915.915.915.915h7.39l-.008 4.683-.007 4.683-4.327 3.406c-2.38 1.873-4.45 3.637-4.602 3.92-.162.303-.274 9.907-.272 23.354.003 25.313-.061 24.414 1.96 27.359 1.245 1.813 2.463 2.801 4.807 3.899l1.705.8h107.952l1.705-.8c2.344-1.098 3.562-2.086 4.807-3.899 2.115-3.081 1.957 2.653 1.957-71.27 0-73.924.158-68.19-1.957-71.27-1.245-1.814-2.463-2.802-4.807-3.9l-1.705-.8L71.024.51C35.38.47 25.044.54 23.855.83zm16.54 22.032v16.204h-6.245V6.657h6.245v16.205zm22.007 0v16.204h-5.948V6.657H62.4v16.205zm22.006 0v16.204H78.46V6.657h5.947v16.205zm22.007-5.055v11.15h-5.948v-22.3h5.948v11.15z" fill="url(#paint0_linear_1710_4484)"/><path d="M33.24 116.307v17.236h-4.157v-13.348h-.101l-3.854 2.357v-3.602l4.25-2.643h3.862zm3.81 17.236v-2.996l6.287-5.504a20.57 20.57 0 001.203-1.17 4.51 4.51 0 00.758-1.077c.174-.365.26-.76.26-1.187 0-.477-.103-.883-.31-1.22a2.088 2.088 0 00-.86-.791 2.734 2.734 0 00-1.253-.278c-.477 0-.895.098-1.254.295a2.04 2.04 0 00-.842.833c-.196.365-.294.808-.294 1.33h-3.947c0-1.173.264-2.186.791-3.038.527-.853 1.268-1.51 2.222-1.97.96-.465 2.073-.698 3.34-.698 1.308 0 2.444.219 3.41.656.964.438 1.71 1.049 2.238 1.835.533.78.8 1.686.8 2.718a5.14 5.14 0 01-.396 1.953c-.264.645-.738 1.357-1.423 2.137-.678.78-1.644 1.714-2.895 2.802l-2.061 1.902v.11h6.985v3.358H37.05zm21.845.235c-1.34 0-2.539-.213-3.593-.639-1.05-.432-1.874-1.016-2.474-1.751a3.898 3.898 0 01-.893-2.508c0-.712.172-1.366.514-1.96a4.435 4.435 0 011.388-1.482 4.776 4.776 0 011.97-.765v-.135c-.949-.174-1.726-.614-2.331-1.321-.6-.707-.9-1.535-.9-2.483 0-.898.271-1.697.815-2.398.55-.702 1.3-1.254 2.247-1.658.954-.404 2.04-.606 3.257-.606 1.218 0 2.3.202 3.249.606.953.404 1.702.956 2.247 1.658.55.701.824 1.5.824 2.398 0 .954-.306 1.784-.917 2.491-.606.701-1.377 1.139-2.314 1.313v.135a4.705 4.705 0 011.952.765c.59.393 1.055.887 1.397 1.482a3.81 3.81 0 01.522 1.96c0 .932-.3 1.768-.9 2.508-.6.735-1.426 1.319-2.475 1.751-1.043.426-2.238.639-3.585.639zm0-2.954c.51 0 .96-.095 1.347-.286a2.25 2.25 0 00.909-.816 2.13 2.13 0 00.336-1.178c0-.449-.112-.847-.336-1.195a2.304 2.304 0 00-.926-.817 2.833 2.833 0 00-1.33-.303c-.494 0-.937.101-1.33.303a2.304 2.304 0 00-.925.817 2.156 2.156 0 00-.337 1.195c0 .437.11.83.328 1.178.225.342.53.611.918.808.392.196.841.294 1.346.294zm0-7.532c.438 0 .825-.089 1.162-.269a2.033 2.033 0 001.094-1.834 1.972 1.972 0 00-1.086-1.793c-.337-.18-.727-.269-1.17-.269a2.48 2.48 0 00-1.17.269 1.96 1.96 0 00-.799.724 1.99 1.99 0 00-.286 1.069c0 .403.095.765.286 1.085.196.314.466.564.808.749.342.18.73.269 1.161.269zm25.718-1.354a3.03 3.03 0 00-.42-.935 2.69 2.69 0 00-.682-.698 2.91 2.91 0 00-.926-.429 4.093 4.093 0 00-1.144-.152c-.836 0-1.56.202-2.172.606-.606.404-1.074.993-1.405 1.767-.331.769-.497 1.703-.497 2.803 0 1.105.16 2.048.48 2.827.32.78.783 1.375 1.389 1.785.606.409 1.34.614 2.204.614.764 0 1.409-.124 1.936-.37.533-.253.937-.609 1.212-1.069.275-.46.412-1.002.412-1.624l.775.092h-4.191v-3.038h7.43v2.281c0 1.543-.328 2.864-.984 3.964a6.552 6.552 0 01-2.693 2.533c-1.139.589-2.449.883-3.93.883-1.644 0-3.089-.356-4.334-1.069-1.246-.712-2.216-1.728-2.912-3.046-.696-1.324-1.043-2.895-1.043-4.713 0-1.414.21-2.667.63-3.761.421-1.1 1.008-2.031 1.76-2.794a7.607 7.607 0 012.625-1.734 8.723 8.723 0 013.223-.589 8.76 8.76 0 012.786.429c.864.286 1.627.69 2.289 1.212a6.43 6.43 0 011.624 1.86 6.09 6.09 0 01.774 2.365h-4.216zm6.857 11.605v-17.236h7.187c1.29 0 2.37.183 3.24.548.875.364 1.531.875 1.969 1.531.443.657.665 1.417.665 2.281 0 .656-.138 1.242-.413 1.759-.274.51-.653.934-1.136 1.27a4.515 4.515 0 01-1.674.707v.169a4.178 4.178 0 011.927.563c.594.343 1.071.82 1.43 1.431.36.606.539 1.324.539 2.154 0 .926-.236 1.754-.707 2.483-.471.724-1.153 1.296-2.045 1.717-.892.415-1.975.623-3.248.623H91.47zm4.165-3.358h2.576c.903 0 1.568-.171 1.994-.514.432-.342.648-.819.648-1.43 0-.443-.104-.825-.311-1.145a2.008 2.008 0 00-.884-.749c-.381-.179-.839-.269-1.372-.269h-2.65v4.107zm0-6.792h2.306a3.04 3.04 0 001.212-.227c.354-.151.629-.37.825-.656.202-.286.303-.631.303-1.035 0-.578-.205-1.033-.614-1.364-.41-.331-.963-.496-1.658-.496h-2.374v3.778z" fill="#fff"/><defs><linearGradient id="paint0_linear_1710_4484" x1=".241" y1=".5" x2="152.485" y2="126.217" gradientUnits="userSpaceOnUse"><stop stop-color="#0ABD92"/><stop offset="1" stop-color="#009DB8"/></linearGradient></defs></svg>