<svg width="37" height="36" fill="none" xmlns="http://www.w3.org/2000/svg"><g opacity=".6" fill-rule="evenodd" clip-rule="evenodd"><path d="M17.55.076c-2.1.486-3.56 2.198-3.676 4.308-.083 1.517.636 3.05 1.846 3.94l.459.337v1.803l-1.671.001c-1.92.002-2.036.029-2.523.582-.333.38-.45.716-.45 1.305v.43l-4.45.02-4.45.02-.46.226c-.507.25-1.034.727-1.296 1.175-.402.686-.392.43-.371 9.198l.019 8.051.224.473c.395.834 1.083 1.416 1.946 1.646.288.077 1.235.097 4.6.097l4.239.001.001.475c.003.758.327 1.325.948 1.66.281.152.297.153 5.86.172 3.737.013 5.67-.005 5.854-.055.423-.114.853-.479 1.072-.91.154-.305.193-.477.193-.862v-.48h4.238c3.366-.001 4.313-.021 4.6-.098.864-.23 1.552-.812 1.947-1.646l.224-.473.019-8.05c.02-8.775.031-8.513-.373-9.203-.269-.459-.767-.912-1.282-1.166l-.471-.232-4.451-.02-4.45-.019v-.43c0-.59-.117-.925-.45-1.305-.487-.553-.604-.58-2.523-.582l-1.67-.001V8.669l.462-.343c1.205-.892 1.93-2.446 1.84-3.948-.145-2.425-2.035-4.283-4.448-4.373-.443-.017-.86.01-1.126.071zm2.025 1.244c1.076.36 1.962 1.273 2.267 2.338.326 1.138-.02 2.565-.807 3.319l-.214.205v-2.56H16.18v2.56l-.214-.205c-.992-.95-1.224-2.805-.507-4.043.233-.402.738-.943 1.135-1.217.785-.54 2.05-.709 2.982-.397zm.104 6.803l-.018 2.305H17.34l-.02-2.305-.018-2.305h2.396l-.019 2.305zm4.418 3.629c.162.14.19.22.197.58l.01.419H12.696l.009-.419c.008-.36.035-.44.197-.58l.188-.162h10.82l.188.162zm10.276 2.351c.361.194.778.672.874 1.003.048.165.065 2.93.051 8.243l-.02 7.994-.214.344a1.818 1.818 0 01-.557.558l-.344.213-15.517.02c-10.546.014-15.597-.002-15.769-.052a1.77 1.77 0 01-1.012-.845l-.177-.35v-7.993c0-6.622.016-8.033.096-8.225a1.867 1.867 0 011.205-1.035c.116-.029 7.16-.047 15.652-.041l15.44.01.292.156zM8.124 15.207c-.264.117-.422.292-.56.623-.095.228-.108 1.136-.108 7.43v7.17l.162.306c.11.21.259.358.468.469l.307.162h22.536l.306-.162c.21-.111.358-.26.468-.469l.162-.306V16.053l-.158-.31c-.087-.17-.248-.375-.357-.454-.198-.145-.213-.145-11.607-.16-9.36-.013-11.446.001-11.619.078zm25.08.076c-.337.359-.087.952.4.952.31 0 .583-.264.583-.563 0-.498-.643-.752-.984-.389zm-2.535 7.514v6.563l-2.306-2.307-2.306-2.306-.127-.493a3.067 3.067 0 00-.898-1.483l-.289-.256-.167-1.785c-.092-.982-.206-1.928-.252-2.102-.108-.41-.689-1.01-1.083-1.12-.408-.113-6.777-.105-7.16.01-.382.115-.906.633-1.05 1.04-.066.184-.184 1.076-.283 2.137l-.17 1.82-.288.256a3.064 3.064 0 00-.899 1.483l-.127.493-2.306 2.306-2.306 2.307V16.235h22.017v6.563zm-7.781-4.173c.096.037.215.14.263.23.048.088.154.85.236 1.692l.149 1.53h-7.709l.002-.264c.006-.594.261-2.809.342-2.96a.564.564 0 01.24-.224c.212-.085 6.254-.088 6.477-.004zm-19.02 1.273a1.8 1.8 0 00-.868.807c-.144.268-.153.386-.173 2.38-.025 2.431.004 2.603.518 3.117.688.69 1.783.665 2.472-.054.444-.464.473-.613.5-2.557.031-2.197 0-2.515-.29-3-.316-.527-.759-.79-1.376-.819-.358-.017-.54.012-.783.126zm29.14 3.323l.018 3.466.58.02.58.021v-6.973H32.99l.018 3.466zm-28.08-2.134l.207.205v3.889l-.173.172a.564.564 0 01-.79.02c-.163-.153-.163-.154-.163-2.133 0-2.072.005-2.107.317-2.278.23-.125.385-.093.603.125zm18.953 2.304c.597.322.973.894.98 1.49.004.313-.023.398-.16.51-.16.13-.345.135-5.018.135-2.97 0-4.9-.026-4.977-.067-.192-.104-.31-.454-.253-.756.128-.684.674-1.269 1.339-1.435.116-.03 1.92-.047 4.01-.041 3.748.012 3.802.014 4.08.164zm-8.112.609a.565.565 0 00.02.79c.508.51 1.253-.2.807-.768-.195-.247-.605-.259-.827-.022zm6.957.023c-.198.25-.187.554.027.767.357.358.953.102.953-.41 0-.506-.671-.75-.98-.358zm-8.46 2.516c.106.056.308.122.446.149l.253.047.032.715c.034.752.119 1.012.419 1.291.266.249.514.304 1.354.304.69 0 .834-.02 1.103-.161.476-.248.627-.603.627-1.473v-.688h2.321v.692c0 .862.152 1.215.63 1.468.268.142.407.162 1.107.162.903 0 1.16-.073 1.447-.415.249-.296.333-.628.333-1.319v-.573l.262-.049c.33-.062.587-.194.885-.456l.234-.206 2.07 2.072 2.07 2.072H9.462l2.07-2.072 2.07-2.072.235.206a2.7 2.7 0 00.43.306zm3.038.747v.563H16.18v-1.126h1.125v.563zm5.839 0v.563h-1.126v-1.126h1.126v.563zm1.196 6.675c0 .357-.125.7-.285.787-.175.093-10.933.093-11.108 0-.16-.086-.285-.43-.285-.787v-.27H24.34v.27z" fill="url(#paint0_linear_1710_4549)"/><path d="M17.55.076c-2.1.486-3.56 2.198-3.676 4.308-.083 1.517.636 3.05 1.846 3.94l.459.337v1.803l-1.671.001c-1.92.002-2.036.029-2.523.582-.333.38-.45.716-.45 1.305v.43l-4.45.02-4.45.02-.46.226c-.507.25-1.034.727-1.296 1.175-.402.686-.392.43-.371 9.198l.019 8.051.224.473c.395.834 1.083 1.416 1.946 1.646.288.077 1.235.097 4.6.097l4.239.001.001.475c.003.758.327 1.325.948 1.66.281.152.297.153 5.86.172 3.737.013 5.67-.005 5.854-.055.423-.114.853-.479 1.072-.91.154-.305.193-.477.193-.862v-.48h4.238c3.366-.001 4.313-.021 4.6-.098.864-.23 1.552-.812 1.947-1.646l.224-.473.019-8.05c.02-8.775.031-8.513-.373-9.203-.269-.459-.767-.912-1.282-1.166l-.471-.232-4.451-.02-4.45-.019v-.43c0-.59-.117-.925-.45-1.305-.487-.553-.604-.58-2.523-.582l-1.67-.001V8.669l.462-.343c1.205-.892 1.93-2.446 1.84-3.948-.145-2.425-2.035-4.283-4.448-4.373-.443-.017-.86.01-1.126.071zm2.025 1.244c1.076.36 1.962 1.273 2.267 2.338.326 1.138-.02 2.565-.807 3.319l-.214.205v-2.56H16.18v2.56l-.214-.205c-.992-.95-1.224-2.805-.507-4.043.233-.402.738-.943 1.135-1.217.785-.54 2.05-.709 2.982-.397zm.104 6.803l-.018 2.305H17.34l-.02-2.305-.018-2.305h2.396l-.019 2.305zm4.418 3.629c.162.14.19.22.197.58l.01.419H12.696l.009-.419c.008-.36.035-.44.197-.58l.188-.162h10.82l.188.162zm10.276 2.351c.361.194.778.672.874 1.003.048.165.065 2.93.051 8.243l-.02 7.994-.214.344a1.818 1.818 0 01-.557.558l-.344.213-15.517.02c-10.546.014-15.597-.002-15.769-.052a1.77 1.77 0 01-1.012-.845l-.177-.35v-7.993c0-6.622.016-8.033.096-8.225a1.867 1.867 0 011.205-1.035c.116-.029 7.16-.047 15.652-.041l15.44.01.292.156zM8.124 15.207c-.264.117-.422.292-.56.623-.095.228-.108 1.136-.108 7.43v7.17l.162.306c.11.21.259.358.468.469l.307.162h22.536l.306-.162c.21-.111.358-.26.468-.469l.162-.306V16.053l-.158-.31c-.087-.17-.248-.375-.357-.454-.198-.145-.213-.145-11.607-.16-9.36-.013-11.446.001-11.619.078zm25.08.076c-.337.359-.087.952.4.952.31 0 .583-.264.583-.563 0-.498-.643-.752-.984-.389zm-2.535 7.514v6.563l-2.306-2.307-2.306-2.306-.127-.493a3.067 3.067 0 00-.898-1.483l-.289-.256-.167-1.785c-.092-.982-.206-1.928-.252-2.102-.108-.41-.689-1.01-1.083-1.12-.408-.113-6.777-.105-7.16.01-.382.115-.906.633-1.05 1.04-.066.184-.184 1.076-.283 2.137l-.17 1.82-.288.256a3.064 3.064 0 00-.899 1.483l-.127.493-2.306 2.306-2.306 2.307V16.235h22.017v6.563zm-7.781-4.173c.096.037.215.14.263.23.048.088.154.85.236 1.692l.149 1.53h-7.709l.002-.264c.006-.594.261-2.809.342-2.96a.564.564 0 01.24-.224c.212-.085 6.254-.088 6.477-.004zm-19.02 1.273a1.8 1.8 0 00-.868.807c-.144.268-.153.386-.173 2.38-.025 2.431.004 2.603.518 3.117.688.69 1.783.665 2.472-.054.444-.464.473-.613.5-2.557.031-2.197 0-2.515-.29-3-.316-.527-.759-.79-1.376-.819-.358-.017-.54.012-.783.126zm29.14 3.323l.018 3.466.58.02.58.021v-6.973H32.99l.018 3.466zm-28.08-2.134l.207.205v3.889l-.173.172a.564.564 0 01-.79.02c-.163-.153-.163-.154-.163-2.133 0-2.072.005-2.107.317-2.278.23-.125.385-.093.603.125zm18.953 2.304c.597.322.973.894.98 1.49.004.313-.023.398-.16.51-.16.13-.345.135-5.018.135-2.97 0-4.9-.026-4.977-.067-.192-.104-.31-.454-.253-.756.128-.684.674-1.269 1.339-1.435.116-.03 1.92-.047 4.01-.041 3.748.012 3.802.014 4.08.164zm-8.112.609a.565.565 0 00.02.79c.508.51 1.253-.2.807-.768-.195-.247-.605-.259-.827-.022zm6.957.023c-.198.25-.187.554.027.767.357.358.953.102.953-.41 0-.506-.671-.75-.98-.358zm-8.46 2.516c.106.056.308.122.446.149l.253.047.032.715c.034.752.119 1.012.419 1.291.266.249.514.304 1.354.304.69 0 .834-.02 1.103-.161.476-.248.627-.603.627-1.473v-.688h2.321v.692c0 .862.152 1.215.63 1.468.268.142.407.162 1.107.162.903 0 1.16-.073 1.447-.415.249-.296.333-.628.333-1.319v-.573l.262-.049c.33-.062.587-.194.885-.456l.234-.206 2.07 2.072 2.07 2.072H9.462l2.07-2.072 2.07-2.072.235.206a2.7 2.7 0 00.43.306zm3.038.747v.563H16.18v-1.126h1.125v.563zm5.839 0v.563h-1.126v-1.126h1.126v.563zm1.196 6.675c0 .357-.125.7-.285.787-.175.093-10.933.093-11.108 0-.16-.086-.285-.43-.285-.787v-.27H24.34v.27z" fill="#fff"/></g><defs><linearGradient id="paint0_linear_1710_4549" x1=".5" y1="0" x2="37.22" y2="36.9" gradientUnits="userSpaceOnUse"><stop stop-color="#0ABD92"/><stop offset="1" stop-color="#009DB8"/></linearGradient></defs></svg>