<svg width="44" height="73" fill="none" xmlns="http://www.w3.org/2000/svg"><g opacity=".75"><path d="M18.65 32.498a4.352 4.352 0 118.7 0l-1.286 38.569A2 2 0 0124.066 73h-2.132a2 2 0 01-1.998-1.933l-1.286-38.57z" fill="#D9D9D9"/><path d="M18.65 32.498a4.352 4.352 0 118.7 0l-1.286 38.569A2 2 0 0124.066 73h-2.132a2 2 0 01-1.998-1.933l-1.286-38.57z" fill="url(#paint0_linear_1_3727)" fill-opacity=".7"/><rect x="2" width="42" height="41" rx="9" fill="#D9D9D9"/><rect x="2" width="42" height="41" rx="9" fill="url(#paint1_linear_1_3727)"/><rect x="11" y="9" width="23" height="23" rx="9" fill="#D9D9D9"/><rect x="11" y="9" width="23" height="23" rx="9" fill="#1E1E1E"/><ellipse cx="2" cy="21" rx="12" ry="2" transform="rotate(90 2 21)" fill="#17FF3C"/></g><defs><linearGradient id="paint0_linear_1_3727" x1="25.84" y1="67.727" x2="19.614" y2="67.639" gradientUnits="userSpaceOnUse"><stop stop-color="#262525"/><stop offset="1" stop-color="#313030"/></linearGradient><linearGradient id="paint1_linear_1_3727" x1="42.877" y1="36.195" x2="-.213" y2="31.569" gradientUnits="userSpaceOnUse"><stop stop-color="#262525"/><stop offset="1" stop-color="#313030"/></linearGradient></defs></svg>