<svg width="212" height="38" fill="none" xmlns="http://www.w3.org/2000/svg"><path fill-rule="evenodd" clip-rule="evenodd" d="M18.55 28.579c1.176-1.239 1.764-2.897 1.764-4.977 0-2.079-.588-3.738-1.763-4.977-1.175-1.238-2.677-1.857-4.508-1.857-1.83 0-3.342.619-4.53 1.857-1.192 1.24-1.787 2.898-1.787 4.977 0 2.08.595 3.738 1.786 4.977 1.189 1.238 2.7 1.858 4.531 1.858 1.83 0 3.333-.62 4.508-1.858zm-11.487 6.1c-2.06-1.085-3.67-2.591-4.829-4.518-1.161-1.926-1.74-4.112-1.74-6.56 0-2.445.579-4.632 1.74-6.558 1.159-1.927 2.769-3.433 4.829-4.518 2.059-1.085 4.386-1.629 6.98-1.629 2.593 0 4.912.544 6.957 1.629s3.646 2.591 4.807 4.518c1.158 1.926 1.738 4.113 1.738 6.559 0 2.447-.58 4.633-1.738 6.56-1.161 1.926-2.762 3.432-4.807 4.517-2.045 1.086-4.364 1.629-6.957 1.629-2.594 0-4.921-.543-6.98-1.629z" fill="url(#paint0_linear_1710_3506)"/><path fill-rule="evenodd" clip-rule="evenodd" d="M54.665 13.648c1.877 1.835 2.816 4.557 2.816 8.165V35.94h-7.14V22.914c0-1.957-.43-3.417-1.282-4.38-.855-.963-2.091-1.446-3.707-1.446-1.802 0-3.236.559-4.303 1.675-1.07 1.116-1.603 2.775-1.603 4.976v12.202h-7.14V11.263h6.82v2.89c.945-1.04 2.12-1.842 3.525-2.408 1.402-.566 2.944-.848 4.622-.848 3.052 0 5.516.917 7.392 2.751z" fill="url(#paint1_linear_1710_3506)"/><path d="M64.393 35.941h5.722V1.906h-5.722v34.035zm29.43-6.697c1.374-1.406 2.06-3.257 2.06-5.55 0-2.294-.686-4.144-2.06-5.55-1.372-1.406-3.112-2.11-5.217-2.11-2.105 0-3.839.704-5.196 2.11-1.357 1.406-2.037 3.256-2.037 5.55 0 2.293.68 4.144 2.037 5.55 1.357 1.407 3.09 2.11 5.196 2.11 2.105 0 3.845-.703 5.217-2.11zm-11.9 5.412c-1.985-1.07-3.533-2.56-4.646-4.472-1.114-1.91-1.67-4.074-1.67-6.49 0-2.416.556-4.57 1.67-6.468 1.113-1.895 2.661-3.378 4.646-4.448 1.984-1.07 4.21-1.606 6.683-1.606 2.501 0 4.744.535 6.728 1.606 1.984 1.07 3.532 2.553 4.646 4.448 1.113 1.897 1.671 4.052 1.671 6.468 0 2.416-.558 4.58-1.671 6.49-1.114 1.912-2.662 3.402-4.646 4.472-1.984 1.072-4.227 1.606-6.728 1.606-2.472 0-4.7-.535-6.683-1.606zm41.423-5.412c1.374-1.406 2.06-3.257 2.06-5.55 0-2.294-.686-4.144-2.06-5.55-1.373-1.406-3.112-2.11-5.218-2.11-2.105 0-3.838.704-5.195 2.11-1.358 1.406-2.038 3.256-2.038 5.55 0 2.293.68 4.144 2.038 5.55 1.357 1.407 3.09 2.11 5.195 2.11 2.106 0 3.845-.703 5.218-2.11zm-11.9 5.412c-1.985-1.07-3.533-2.56-4.647-4.472-1.113-1.91-1.67-4.074-1.67-6.49 0-2.416.557-4.57 1.67-6.468 1.114-1.895 2.662-3.378 4.647-4.448 1.983-1.07 4.21-1.606 6.682-1.606 2.502 0 4.744.535 6.729 1.606 1.983 1.07 3.531 2.553 4.645 4.448 1.114 1.897 1.672 4.052 1.672 6.468 0 2.416-.558 4.58-1.672 6.49-1.114 1.912-2.662 3.402-4.645 4.472-1.985 1.072-4.227 1.606-6.729 1.606-2.472 0-4.699-.535-6.682-1.606zm35.198-9.218l-4.257 4.035v6.468h-5.722V1.906h5.722v20.55l11.855-11.009h6.866L150.9 21.722l11.169 14.22h-6.957l-8.468-10.504zm24.098-8.051c-1.266 1.085-2.037 2.53-2.311 4.335H182.3c-.246-1.774-.992-3.212-2.243-4.312-1.252-1.101-2.808-1.651-4.67-1.651-1.83 0-3.378.543-4.645 1.628zm16.914 8.141h-19.179c.335 1.805 1.212 3.234 2.631 4.29 1.419 1.055 3.181 1.581 5.287 1.581 2.684 0 4.898-.886 6.637-2.66l3.066 3.532c-1.098 1.315-2.486 2.31-4.164 2.982-1.679.673-3.57 1.009-5.677 1.009-2.685 0-5.05-.535-7.094-1.606-2.045-1.07-3.624-2.56-4.737-4.472-1.114-1.91-1.671-4.074-1.671-6.49 0-2.386.541-4.533 1.624-6.445a11.542 11.542 0 014.51-4.471c1.921-1.07 4.088-1.606 6.498-1.606 2.382 0 4.51.527 6.387 1.582 1.877 1.055 3.34 2.539 4.394 4.45 1.053 1.91 1.579 4.12 1.579 6.627 0 .398-.031.964-.091 1.697zm19.727-14.356v5.458a7.218 7.218 0 00-1.328-.137c-2.228 0-3.966.65-5.217 1.949-1.252 1.3-1.877 3.172-1.877 5.619v11.88h-5.721V11.447h5.447v3.578c1.647-2.57 4.546-3.853 8.696-3.853z" fill="#FEFEFE"/><defs><linearGradient id="paint0_linear_1710_3506" x1=".307" y1="23.602" x2="57.664" y2="23.602" gradientUnits="userSpaceOnUse"><stop stop-color="#009B8D"/><stop offset="1" stop-color="#009DB9"/></linearGradient><linearGradient id="paint1_linear_1710_3506" x1="32.131" y1="23.419" x2="85.511" y2="23.419" gradientUnits="userSpaceOnUse"><stop stop-color="#009B8D"/><stop offset="1" stop-color="#009DB9"/></linearGradient></defs></svg>