<svg width="52" height="44" fill="none" xmlns="http://www.w3.org/2000/svg"><path fill-rule="evenodd" clip-rule="evenodd" d="M34.868.208a2.251 2.251 0 00-.711.624l-.29.416-.03 3.082c-.034 3.33-.015 3.465.519 3.662.28.103.755-.057.885-.3.059-.108.1-1.38.1-3.065 0-2.306.027-2.903.138-2.995.1-.083 2.157-.107 7.543-.088l7.404.026.027 7.392c.024 6.86.014 7.402-.147 7.52-.134.098-1.78.126-7.41.126-6.443 0-7.253-.017-7.396-.159-.135-.135-.16-.5-.16-2.423v-2.264l-.267-.21c-.334-.262-.655-.267-.965-.016-.238.191-.24.216-.271 2.475-.033 2.47.024 2.9.452 3.406.547.649.591.656 3.972.691l3.073.032v4.399c0 2.42-.037 4.398-.082 4.398-.336 0-1.944-.494-2.61-.802-.447-.207-2.299-1.372-4.114-2.589-1.816-1.217-3.667-2.384-4.115-2.594a12.647 12.647 0 00-3.345-.995c-1.267-.175-10.946-.142-12.172.042-2.307.346-4.22 1.301-6.222 3.105-1.662 1.498-2.872 2.128-5.168 2.689-1.957.478-2.55.875-3.226 2.157-.24.455-.24.468-.272 4.608-.023 2.935.003 4.27.086 4.557.257.884.603 1.136 3.058 2.222.978.432 1.087.507 1.143.787.122.605.698 1.59 1.264 2.159 1.98 1.99 5.234 1.93 7.131-.13a5.448 5.448 0 001.05-1.772c.055-.167.732-.177 12.33-.177h12.273l.296.683c.358.826 1.356 1.884 2.161 2.29 1.508.763 3.124.758 4.648-.011.778-.393 1.784-1.463 2.133-2.268l.29-.673 1.075-.04c.848-.033 1.162-.088 1.494-.26a2.976 2.976 0 001.321-1.39c.23-.49.238-.6.239-3.055 0-2.262-.022-2.62-.202-3.202-.403-1.3-1.636-2.803-2.87-3.5-.702-.396-1.268-.578-2.618-.841l-1.115-.218v-9.577l2.717-.033c3.051-.037 3.089-.045 3.723-.827l.315-.389.03-7.611c.021-5.101-.004-7.732-.075-7.977A1.746 1.746 0 0050.98.2c-.381-.194-.63-.2-8.041-.2-7.514 0-7.657.004-8.07.208zm-15.273 3.54c-2.329.217-4.525 1.07-6.487 2.52-1.592 1.177-1.944 1.963-1.044 2.334.372.154.52.083 1.42-.679 2.34-1.977 5.2-2.89 8.27-2.64 2.5.203 4.659 1.14 6.55 2.841.654.589.963.684 1.331.411.192-.142.28-.31.303-.576.028-.33-.02-.424-.406-.782-2.728-2.53-6.312-3.768-9.937-3.43zm21.028.528l-.254.135-.026 4.382-.027 4.381.382.16c.333.14.435.142.789.02l.406-.138.028-1.582.028-1.58 1.14-.056c1.342-.066 1.944-.25 2.443-.748.617-.615.73-.955.73-2.212-.001-.96-.032-1.173-.228-1.538-.253-.472-.697-.85-1.302-1.108-.543-.232-3.72-.322-4.109-.116zm3.664 1.774c.336.375.45.858.354 1.497-.131.872-.623 1.148-2.062 1.158l-.635.004V5.647l1.028.042c1.004.04 1.034.048 1.315.361zM19.189 8.147c-1.349.29-2.408.767-3.512 1.58-1.046.77-1.287 1.296-.81 1.771.375.375.65.314 1.434-.318 2.713-2.188 6.398-2.186 8.966.004.672.573.959.657 1.32.39.44-.326.422-.779-.051-1.268-.793-.82-2.237-1.646-3.505-2.006-.971-.276-2.911-.353-3.842-.153zm.451 4.25c-1.107.365-1.975 1.053-1.975 1.566 0 .343.295.714.584.733.33.022.482-.03.812-.279 1.105-.834 2.21-.86 3.352-.075.607.417.968.461 1.272.158.533-.531.115-1.205-1.128-1.818-.659-.324-.848-.37-1.625-.394-.534-.016-1.042.027-1.292.11zm24.03 10.385c0 3.678-.026 4.647-.126 4.616a6.89 6.89 0 00-.406-.1l-.28-.06v-9.111h.813v4.655zm-15.75-1.126c1.405.368 2.524.984 5.948 3.276 3.097 2.073 4.14 2.679 5.282 3.066.28.094 2.108.488 4.064.874 1.955.387 3.817.79 4.136.895 1.18.392 2.156 1.255 2.805 2.481.27.51.272.526.303 3.027.035 2.781.029 2.817-.621 3.212-.24.146-.51.197-1.04.197h-.717l-.115-.672c-.347-2.02-2.054-3.699-4.079-4.011-2.637-.407-5.123 1.366-5.61 4l-.126.684H14.017l-.064-.38c-.372-2.22-1.701-3.698-3.809-4.237-1.174-.3-2.643-.042-3.722.654-1.055.68-1.929 1.871-2.12 2.89-.039.201-.104.387-.146.413-.115.07-2.37-.95-2.517-1.14-.096-.124-.127-1.097-.127-4.061 0-3.766.008-3.913.216-4.342.31-.639.747-.871 2.388-1.271 2.316-.565 3.664-1.284 5.575-2.97 1.509-1.333 2.485-1.923 3.994-2.415 1.267-.412 1.866-.445 7.739-.419 5.454.024 5.665.032 6.497.25zm-12.468.832c-.891.108-2.405.598-3.171 1.026-.684.38-1.1.699-2.313 1.769-.517.456-1.263 1.026-1.657 1.267-1.15.703-1.551 1.03-1.793 1.456-.27.473-.298 1.107-.075 1.64.203.483.412.707.91.973.375.2.559.217 2.309.217 1.822 0 1.911-.009 2.125-.222a.769.769 0 000-1.074c-.209-.209-.339-.226-2.074-.273l-1.851-.05v-.298c0-.257.083-.346.61-.65.846-.49 1.9-1.28 2.748-2.056.892-.817 1.497-1.235 2.338-1.615.982-.444 1.762-.594 3.472-.665l1.549-.065v5.399h-1.172c-1.681 0-2.14.253-1.934 1.07.144.572-.16.557 11.057.527 11.177-.03 10.528.005 10.881-.592.374-.63.042-1.707-.688-2.232-.821-.59-5.713-3.842-6.393-4.25a10.728 10.728 0 00-2.772-1.16c-.616-.156-1.34-.18-6.033-.204-2.933-.015-5.666.013-6.073.062zm10.89 1.517c1.019.116 2.178.48 2.926.92.459.27 5.856 3.839 6.327 4.184.18.131-.714.15-7.645.153l-7.847.005V23.9h2.666c1.467 0 3.075.048 3.573.105zm-7.02 7.997c-.456.183-.563.725-.228 1.15.21.266.214.267 1.677.267 1.33 0 1.484-.019 1.668-.203a.76.76 0 00-.064-1.106c-.24-.188-.401-.21-1.55-.204-.704.004-1.38.047-1.503.096zm-9.385 3.59c1.175.313 2.09 1.253 2.4 2.47.396 1.553-.381 3.153-1.87 3.848-.734.343-1.92.376-2.704.074-.634-.243-1.414-.962-1.765-1.626-.236-.446-.269-.627-.269-1.47 0-.766.043-1.057.213-1.424.424-.913 1.267-1.612 2.268-1.881.623-.168 1.067-.165 1.727.01zm34.523.157a3.219 3.219 0 011.67 1.595c.3.61.334.767.331 1.541-.003.74-.044.943-.286 1.42-1.43 2.815-5.444 2.442-6.327-.588-.521-1.788.692-3.784 2.535-4.173.601-.127 1.532-.035 2.076.205zm-35.887.904a2.254 2.254 0 00-.407 4.272c.562.257 1.214.238 1.84-.053 1.858-.862 1.656-3.582-.309-4.165-.542-.161-.66-.167-1.124-.054zm33.913.047c-.609.195-1.01.514-1.329 1.055-.849 1.441.267 3.36 1.955 3.36 1.22 0 2.292-1.099 2.284-2.34-.003-.405-.325-1.156-.64-1.492-.526-.564-1.528-.821-2.27-.584zM9.563 38.358c.222.194.233.764.019.978-.584.581-1.518-.065-1.175-.814.202-.441.75-.52 1.156-.164zm34.214.237c.357.86-.905 1.4-1.309.56-.108-.224-.111-.343-.015-.574.238-.574 1.084-.565 1.324.014z" fill="url(#paint0_linear_1710_6332)"/><defs><linearGradient id="paint0_linear_1710_6332" x1="0" y1="0" x2="43.926" y2="52.47" gradientUnits="userSpaceOnUse"><stop stop-color="#0ABD92"/><stop offset="1" stop-color="#009DB8"/></linearGradient></defs></svg>