<svg width="97" height="97" fill="none" xmlns="http://www.w3.org/2000/svg"><g opacity=".5"><mask id="a" fill="#fff"><path fill-rule="evenodd" clip-rule="evenodd" d="M12.458.372c-.574.5-3.772 6.913-4.088 8.2-.586 2.38.21 5.19 2.02 7.131l.973 1.044-2.76 4.798c-1.519 2.639-2.76 4.994-2.76 5.233 0 .831 1.2 1.682 7.525 5.335 3.498 2.02 6.393 3.7 6.432 3.733.074.062-3.953 15.221-4.077 15.345-.037.038-3.301.935-7.253 1.995S1.073 55.25.815 55.414c-1.43.917-.864 3.066.807 3.066.36 0 3.132-.67 6.158-1.488a748.789 748.789 0 015.546-1.489c.023 0 .055.628.071 1.395.03 1.454.483 2.968 1.192 3.987.228.328.377.636.329.684-.048.047-3.135.911-6.86 1.92-3.725 1.009-6.985 1.969-7.243 2.134-1.423.91-.864 3.065.794 3.065.354 0 4.387-1.003 8.963-2.23 7.652-2.049 8.387-2.21 9.162-1.994 2.104.584 5.287-.398 7.073-2.183 1.779-1.777 2.726-4.862 2.171-7.072-.225-.899-.146-1.314 1.253-6.553a3299.94 3299.94 0 011.538-5.744c.023-.083 4 2.142 8.838 4.946 4.838 2.803 8.97 5.152 9.185 5.22.913.291 1.592-.33 2.953-2.7.73-1.271 1.374-2.303 1.432-2.294.058.01.877.893 1.818 1.964 1.792 2.037 2.453 2.392 3.455 1.854.23-.123 1.47-2.059 2.759-4.302l2.341-4.077 1.54-.393c3.156-.803 5.957-2.576 7.656-4.843 1.095-1.461 1.278-2.392.624-3.164C73.73 34.37 14.145 0 13.478 0c-.326 0-.785.168-1.02.372zm61.32 1.851c-.677.678-.69 1.668-.03 2.33.41.41.812.52 2.386.652 2.639.22 4.745.796 7.03 1.925 6.014 2.97 9.773 8.603 10.343 15.503.131 1.578.24 1.982.65 2.392.66.662 1.647.65 2.323-.028.444-.446.52-.722.52-1.887 0-3.192-1.148-7.242-2.948-10.397C90.347 6.216 82.805 1.7 75.657 1.7c-1.161 0-1.436.077-1.88.522zM42.661 20.587l27.81 16.096-.674.705c-.915.955-3.302 2.1-5.233 2.509-2.015.426-4.369.275-6.31-.406-1.323-.465-43.271-24.557-44.942-25.812-.987-.742-1.595-2.056-1.595-3.448 0-.983.18-1.504 1.233-3.573.947-1.859 1.311-2.392 1.567-2.294.184.07 12.849 7.37 28.144 16.223zM73.777 9.028c-.675.677-.688 1.668-.031 2.327.382.384.83.524 2.066.645 5.955.585 10.339 4.981 10.92 10.955.18 1.839.685 2.564 1.788 2.564 1.07 0 1.696-.807 1.696-2.185 0-4.712-2.781-9.674-6.917-12.34-2.507-1.615-5.265-2.488-7.865-2.488-.924 0-1.234.098-1.657.522zm.027 6.778c-1.215 1.218-.427 2.728 1.56 2.992 2.608.347 4.246 1.99 4.592 4.604.264 1.996 1.768 2.787 2.983 1.567.507-.508.54-.656.445-1.987-.278-3.908-3.687-7.342-7.564-7.62-1.366-.098-1.507-.067-2.016.444zM33.856 29.732a21410.982 21410.982 0 0019.726 11.431c.313.176.1.646-1.721 3.776-1.144 1.966-2.17 3.665-2.28 3.776-.126.126-7.446-3.999-19.69-11.096-10.72-6.213-19.574-11.375-19.676-11.47-.148-.138 3.99-7.648 4.213-7.648.033 0 8.776 5.054 19.428 11.23zm-7.746 9.782l2.567 1.509-1.229 4.604c-.676 2.533-1.26 4.637-1.3 4.676-.039.04-.685-.234-1.435-.607-1.105-.55-1.681-.694-3.023-.755-1.419-.065-1.643-.127-1.554-.425.057-.192.683-2.55 1.392-5.24 1.618-6.146 1.472-5.697 1.769-5.465.136.107 1.402.873 2.813 1.703zm32.847 3.823l1.494.364-1.088 1.864-1.088 1.865-1.133-1.307-1.133-1.307.491-.93c.27-.511.598-.926.727-.921.13.005.909.172 1.73.372zm-36.346 9.218c1.095.368 2.054 1.175 2.547 2.144.65 1.278.509 3.425-.294 4.481-.985 1.295-1.781 1.728-3.33 1.811-1.144.061-1.546-.014-2.336-.438-1.107-.593-2.097-2.026-2.265-3.278-.416-3.119 2.71-5.717 5.678-4.72zm44.498 6.262c-.408.047-1.777.186-3.041.309-2.76.267-5.188.75-6.407 1.274-.799.343-1.152.778-3.273 4.017L52.01 68.05h-2.06c-1.878 0-2.1.043-2.52.492-.631.674-.617 1.838.03 2.448.27.254.611.462.758.462.147 0-.02.244-.374.541-.352.298-.89 1.053-1.195 1.679l-.555 1.136.067 5.299.066 5.298.795 1.613c.781 1.584.795 1.656.795 4.088 0 3.389.532 4.58 2.438 5.463 1.155.535 7.31.587 8.537.072 1.84-.77 2.581-2.124 2.588-4.72l.005-1.755h20.351v1.922c0 2.602.525 3.653 2.269 4.538.55.28 1.398.345 4.513.345 3.345 0 3.936-.052 4.622-.403 1.775-.909 2.164-1.852 2.164-5.246 0-2.682.003-2.698.795-4.304l.795-1.613.067-5.208c.077-6-.011-6.448-1.557-7.877-.548-.507-.804-.868-.615-.868.566 0 1.363-.994 1.363-1.701 0-.414-.192-.85-.52-1.18-.483-.483-.674-.521-2.622-.521h-2.1l-2.22-3.562c-1.976-3.172-2.322-3.614-3.156-4.03-1.027-.514-3.289-1.004-6.236-1.353-1.955-.231-10.857-.442-12.19-.288zm11.868 3.82c1.46.18 3.173.444 3.808.586l1.155.26 1.535 2.442c1.118 1.779 1.46 2.484 1.261 2.595-.588.33-5.353.81-10.37 1.046-3.995.187-6.502.186-10.388 0-4.483-.216-9.014-.668-9.847-.98-.181-.069.29-.945 1.42-2.635l1.69-2.531 1.867-.341c1.708-.313 4.466-.641 7.167-.855 1.941-.153 8.014.081 10.702.413zM56.509 72.19c3.272.587 5.759.772 12.084.897 8.11.16 16.245-.354 19.588-1.237.763-.202.86-.176 1.272.335.245.304 1.208 1.054 2.14 1.665 1.782 1.168 2.328 1.94 1.883 2.664-.341.555-2.116 1.463-4.108 2.102-2.192.704-2.756 1.146-2.756 2.163 0 .984.69 1.731 1.6 1.731.72 0 3.535-.857 4.555-1.386.334-.173.66-.315.725-.315.064 0 .116.654.116 1.455 0 1.722-.426 3.29-1.084 3.993l-.474.506H51.071l-.474-.506c-.66-.706-1.084-2.273-1.084-4.016 0-1.329.038-1.46.371-1.311 1.243.556 4.502 1.573 5.051 1.576.848.005 1.645-.823 1.645-1.708 0-.942-.767-1.563-2.61-2.11-1.665-.496-3.46-1.318-4.086-1.87-.632-.56-.453-1.303.545-2.257 2.378-2.274 3.21-2.894 3.748-2.793.292.055 1.341.245 2.332.422zm5.396 8.29c-.328.33-.52.765-.52 1.18 0 .414.192.85.52 1.179l.52.522h18.271l.52-.522c.328-.33.52-.765.52-1.18 0-.414-.192-.85-.52-1.179l-.52-.522h-18.27l-.52.522zm-3.912 11.053c0 1.986-.082 2.035-3.392 2.035s-3.392-.05-3.392-2.035v-1.367h6.784v1.367zm33.875.28l-.062 1.649h-6.572l-.062-1.648-.061-1.648h6.819l-.062 1.648z"/></mask><path fill-rule="evenodd" clip-rule="evenodd" d="M12.458.372c-.574.5-3.772 6.913-4.088 8.2-.586 2.38.21 5.19 2.02 7.131l.973 1.044-2.76 4.798c-1.519 2.639-2.76 4.994-2.76 5.233 0 .831 1.2 1.682 7.525 5.335 3.498 2.02 6.393 3.7 6.432 3.733.074.062-3.953 15.221-4.077 15.345-.037.038-3.301.935-7.253 1.995S1.073 55.25.815 55.414c-1.43.917-.864 3.066.807 3.066.36 0 3.132-.67 6.158-1.488a748.789 748.789 0 015.546-1.489c.023 0 .055.628.071 1.395.03 1.454.483 2.968 1.192 3.987.228.328.377.636.329.684-.048.047-3.135.911-6.86 1.92-3.725 1.009-6.985 1.969-7.243 2.134-1.423.91-.864 3.065.794 3.065.354 0 4.387-1.003 8.963-2.23 7.652-2.049 8.387-2.21 9.162-1.994 2.104.584 5.287-.398 7.073-2.183 1.779-1.777 2.726-4.862 2.171-7.072-.225-.899-.146-1.314 1.253-6.553a3299.94 3299.94 0 011.538-5.744c.023-.083 4 2.142 8.838 4.946 4.838 2.803 8.97 5.152 9.185 5.22.913.291 1.592-.33 2.953-2.7.73-1.271 1.374-2.303 1.432-2.294.058.01.877.893 1.818 1.964 1.792 2.037 2.453 2.392 3.455 1.854.23-.123 1.47-2.059 2.759-4.302l2.341-4.077 1.54-.393c3.156-.803 5.957-2.576 7.656-4.843 1.095-1.461 1.278-2.392.624-3.164C73.73 34.37 14.145 0 13.478 0c-.326 0-.785.168-1.02.372zm61.32 1.851c-.677.678-.69 1.668-.03 2.33.41.41.812.52 2.386.652 2.639.22 4.745.796 7.03 1.925 6.014 2.97 9.773 8.603 10.343 15.503.131 1.578.24 1.982.65 2.392.66.662 1.647.65 2.323-.028.444-.446.52-.722.52-1.887 0-3.192-1.148-7.242-2.948-10.397C90.347 6.216 82.805 1.7 75.657 1.7c-1.161 0-1.436.077-1.88.522zM42.661 20.587l27.81 16.096-.674.705c-.915.955-3.302 2.1-5.233 2.509-2.015.426-4.369.275-6.31-.406-1.323-.465-43.271-24.557-44.942-25.812-.987-.742-1.595-2.056-1.595-3.448 0-.983.18-1.504 1.233-3.573.947-1.859 1.311-2.392 1.567-2.294.184.07 12.849 7.37 28.144 16.223zM73.777 9.028c-.675.677-.688 1.668-.031 2.327.382.384.83.524 2.066.645 5.955.585 10.339 4.981 10.92 10.955.18 1.839.685 2.564 1.788 2.564 1.07 0 1.696-.807 1.696-2.185 0-4.712-2.781-9.674-6.917-12.34-2.507-1.615-5.265-2.488-7.865-2.488-.924 0-1.234.098-1.657.522zm.027 6.778c-1.215 1.218-.427 2.728 1.56 2.992 2.608.347 4.246 1.99 4.592 4.604.264 1.996 1.768 2.787 2.983 1.567.507-.508.54-.656.445-1.987-.278-3.908-3.687-7.342-7.564-7.62-1.366-.098-1.507-.067-2.016.444zM33.856 29.732a21410.982 21410.982 0 0019.726 11.431c.313.176.1.646-1.721 3.776-1.144 1.966-2.17 3.665-2.28 3.776-.126.126-7.446-3.999-19.69-11.096-10.72-6.213-19.574-11.375-19.676-11.47-.148-.138 3.99-7.648 4.213-7.648.033 0 8.776 5.054 19.428 11.23zm-7.746 9.782l2.567 1.509-1.229 4.604c-.676 2.533-1.26 4.637-1.3 4.676-.039.04-.685-.234-1.435-.607-1.105-.55-1.681-.694-3.023-.755-1.419-.065-1.643-.127-1.554-.425.057-.192.683-2.55 1.392-5.24 1.618-6.146 1.472-5.697 1.769-5.465.136.107 1.402.873 2.813 1.703zm32.847 3.823l1.494.364-1.088 1.864-1.088 1.865-1.133-1.307-1.133-1.307.491-.93c.27-.511.598-.926.727-.921.13.005.909.172 1.73.372zm-36.346 9.218c1.095.368 2.054 1.175 2.547 2.144.65 1.278.509 3.425-.294 4.481-.985 1.295-1.781 1.728-3.33 1.811-1.144.061-1.546-.014-2.336-.438-1.107-.593-2.097-2.026-2.265-3.278-.416-3.119 2.71-5.717 5.678-4.72zm44.498 6.262c-.408.047-1.777.186-3.041.309-2.76.267-5.188.75-6.407 1.274-.799.343-1.152.778-3.273 4.017L52.01 68.05h-2.06c-1.878 0-2.1.043-2.52.492-.631.674-.617 1.838.03 2.448.27.254.611.462.758.462.147 0-.02.244-.374.541-.352.298-.89 1.053-1.195 1.679l-.555 1.136.067 5.299.066 5.298.795 1.613c.781 1.584.795 1.656.795 4.088 0 3.389.532 4.58 2.438 5.463 1.155.535 7.31.587 8.537.072 1.84-.77 2.581-2.124 2.588-4.72l.005-1.755h20.351v1.922c0 2.602.525 3.653 2.269 4.538.55.28 1.398.345 4.513.345 3.345 0 3.936-.052 4.622-.403 1.775-.909 2.164-1.852 2.164-5.246 0-2.682.003-2.698.795-4.304l.795-1.613.067-5.208c.077-6-.011-6.448-1.557-7.877-.548-.507-.804-.868-.615-.868.566 0 1.363-.994 1.363-1.701 0-.414-.192-.85-.52-1.18-.483-.483-.674-.521-2.622-.521h-2.1l-2.22-3.562c-1.976-3.172-2.322-3.614-3.156-4.03-1.027-.514-3.289-1.004-6.236-1.353-1.955-.231-10.857-.442-12.19-.288zm11.868 3.82c1.46.18 3.173.444 3.808.586l1.155.26 1.535 2.442c1.118 1.779 1.46 2.484 1.261 2.595-.588.33-5.353.81-10.37 1.046-3.995.187-6.502.186-10.388 0-4.483-.216-9.014-.668-9.847-.98-.181-.069.29-.945 1.42-2.635l1.69-2.531 1.867-.341c1.708-.313 4.466-.641 7.167-.855 1.941-.153 8.014.081 10.702.413zM56.509 72.19c3.272.587 5.759.772 12.084.897 8.11.16 16.245-.354 19.588-1.237.763-.202.86-.176 1.272.335.245.304 1.208 1.054 2.14 1.665 1.782 1.168 2.328 1.94 1.883 2.664-.341.555-2.116 1.463-4.108 2.102-2.192.704-2.756 1.146-2.756 2.163 0 .984.69 1.731 1.6 1.731.72 0 3.535-.857 4.555-1.386.334-.173.66-.315.725-.315.064 0 .116.654.116 1.455 0 1.722-.426 3.29-1.084 3.993l-.474.506H51.071l-.474-.506c-.66-.706-1.084-2.273-1.084-4.016 0-1.329.038-1.46.371-1.311 1.243.556 4.502 1.573 5.051 1.576.848.005 1.645-.823 1.645-1.708 0-.942-.767-1.563-2.61-2.11-1.665-.496-3.46-1.318-4.086-1.87-.632-.56-.453-1.303.545-2.257 2.378-2.274 3.21-2.894 3.748-2.793.292.055 1.341.245 2.332.422zm5.396 8.29c-.328.33-.52.765-.52 1.18 0 .414.192.85.52 1.179l.52.522h18.271l.52-.522c.328-.33.52-.765.52-1.18 0-.414-.192-.85-.52-1.179l-.52-.522h-18.27l-.52.522zm-3.912 11.053c0 1.986-.082 2.035-3.392 2.035s-3.392-.05-3.392-2.035v-1.367h6.784v1.367zm33.875.28l-.062 1.649h-6.572l-.062-1.648-.061-1.648h6.819l-.062 1.648z" fill="url(#paint0_linear_1713_6836)" stroke="#000" stroke-width=".8" mask="url(#a)"/></g><defs><linearGradient id="paint0_linear_1713_6836" x1="0" y1="0" x2="98.94" y2="99.425" gradientUnits="userSpaceOnUse"><stop stop-color="#0ABD92"/><stop offset="1" stop-color="#009DB8"/></linearGradient></defs></svg>