<svg width="38" height="38" fill="none" xmlns="http://www.w3.org/2000/svg"><g opacity=".5"><path fill-rule="evenodd" clip-rule="evenodd" d="M19 37.24c10.074 0 18.24-8.166 18.24-18.24C37.24 8.926 29.074.76 19 .76 8.926.76.76 8.926.76 19 .76 29.074 8.926 37.24 19 37.24zm0 .76c10.493 0 19-8.507 19-19S29.493 0 19 0 0 8.507 0 19s8.507 19 19 19z" fill="#fff"/><path d="M2.66 28.77L28.9 2.53l.807.806-26.24 26.24-.807-.806zm2.418 2.419l26.24-26.24.807.805-26.24 26.24-.807-.805zm2.419 2.418l26.24-26.24.806.805-26.24 26.24-.806-.805z" fill="#D9D9D9"/></g></svg>