<svg width="49" height="34" fill="none" xmlns="http://www.w3.org/2000/svg"><path fill-rule="evenodd" clip-rule="evenodd" d="M22.81.559c-5.984.483-11.205 2.82-15.398 6.893C3.455 11.296 1.056 15.96.184 21.511c-.246 1.559-.245 5.42 0 6.973a28.05 28.05 0 00.702 3.234c.184.632.69 1.216 1.169 1.348.475.132 44.377.135 44.852.003.483-.134.94-.649 1.159-1.304.277-.834.725-3.175.855-4.468.161-1.608.066-4.643-.194-6.166-1.182-6.933-4.991-12.795-10.804-16.625-1.195-.788-3.677-2.034-5.041-2.53C29.838.865 25.887.31 22.809.558zm5.46 1.931c4.703.827 8.938 2.989 12.244 6.25 1.935 1.91 3.27 3.762 4.476 6.213 1.615 3.282 2.33 6.383 2.325 10.092-.002 2.218-.223 3.881-.803 6.042l-.096.358H2.556l-.094-.358c-.485-1.854-.646-2.812-.785-4.653-.295-3.928.562-8.067 2.432-11.753 2.314-4.56 5.982-8.113 10.668-10.334 1.99-.943 4.835-1.758 7.074-2.027 1.346-.161 5.1-.062 6.419.17zm-5.695 1.353c-3.127.3-6.295 1.328-8.914 2.892C7.757 10.257 4.01 16.142 3.31 22.99c-.2 1.952.022 5.437.406 6.39.215.532.948.636 1.332.19.257-.3.276-.478.133-1.285a20.111 20.111 0 01-.201-1.626l-.064-.85h1.313c.758 0 1.395-.044 1.507-.103.24-.128.484-.686.401-.918a1.486 1.486 0 00-.255-.388c-.184-.204-.265-.215-1.566-.215H4.943v-.426c0-1.238.55-3.881 1.137-5.464.31-.837.973-2.325 1.035-2.325.021 0 .537.286 1.147.635.733.42 1.207.633 1.398.627.331-.009.701-.316.785-.65.113-.447-.17-.751-1.308-1.403-.594-.34-1.08-.665-1.08-.723 0-.057.278-.497.618-.977 1.084-1.533 3.097-3.493 4.702-4.58.322-.218.598-.382.614-.364.015.018.313.53.662 1.139.794 1.386 1.155 1.605 1.778 1.082.449-.376.399-.669-.327-1.92-.343-.59-.623-1.109-.623-1.154 0-.102 1.509-.772 2.59-1.15 4.006-1.4 8.596-1.425 12.634-.069 1.146.385 2.786 1.1 2.786 1.215 0 .047-.28.568-.623 1.158-.726 1.251-.776 1.544-.328 1.92.32.268.53.303.88.145.25-.114.274-.147 1.011-1.426.288-.5.535-.922.55-.94.015-.018.291.146.613.364 1.605 1.087 3.618 3.047 4.703 4.58.34.48.618.92.618.977 0 .058-.486.383-1.08.723-1.138.652-1.421.956-1.309 1.402.084.335.455.642.786.651.19.006.664-.207 1.397-.627.61-.349 1.127-.635 1.147-.635.063 0 .725 1.488 1.035 2.325.587 1.583 1.137 4.226 1.137 5.464v.426h-1.372c-1.302 0-1.382.011-1.566.215a1.486 1.486 0 00-.256.388c-.082.232.162.79.402.918.111.06.749.103 1.507.103h1.313l-.064.85a20.131 20.131 0 01-.206 1.647c-.11.62-.117.859-.032 1.066.22.534.993.68 1.375.26.435-.48.762-4.532.536-6.64-.609-5.676-3.27-10.71-7.544-14.274A21.603 21.603 0 0027.52 3.987c-1.279-.19-3.733-.261-4.945-.144zm1.407 3.282c-.6.218-.969.581-1.126 1.108-.055.184-.356 3.128-.669 6.543l-.57 6.21-.341.274c-.455.366-1.131 1.323-1.394 1.972-.297.736-.368 2.232-.141 3.014.464 1.604 1.611 2.835 3.164 3.395.777.28 2.258.304 3.018.048 1.627-.548 2.819-1.776 3.296-3.396.173-.589.2-1.87.052-2.442-.245-.943-.934-2.075-1.575-2.59l-.343-.276-.569-6.209c-.313-3.415-.612-6.36-.665-6.543-.245-.856-1.312-1.41-2.137-1.108zm1.062 7.197c.275 3.035.499 5.581.498 5.66-.002.119-.184.143-1.056.143-.872 0-1.054-.024-1.056-.143-.007-.443 1.007-11.176 1.056-11.176.032 0 .283 2.483.558 5.517zm.16 7.525c.901.145 1.781.873 2.236 1.85.204.438.25.676.248 1.3-.002 1.263-.576 2.225-1.685 2.825-.57.308-.662.328-1.517.328-.855 0-.947-.02-1.517-.328-1.11-.6-1.683-1.562-1.686-2.825-.001-.886.26-1.574.84-2.214.583-.644 1.781-1.134 2.506-1.026l.575.09z" fill="url(#paint0_linear_1710_6326)"/><defs><linearGradient id="paint0_linear_1710_6326" x1="0" y1=".5" x2="30.699" y2="46.775" gradientUnits="userSpaceOnUse"><stop stop-color="#0ABD92"/><stop offset="1" stop-color="#009DB8"/></linearGradient></defs></svg>