<svg width="42" height="38" fill="none" xmlns="http://www.w3.org/2000/svg"><path fill-rule="evenodd" clip-rule="evenodd" d="M13.89.045c-.55.12-1.211.502-1.614.93-.265.281-1.114 1.732-2.934 5.014-1.408 2.54-2.626 4.795-2.707 5.013-.448 1.21-.154 2.616.737 3.523.268.274 1.679 1.168 4.81 3.05 2.436 1.465 4.462 2.696 4.502 2.737.09.092-1.177 2.404-1.539 2.811-.14.159-.44.38-.666.49-.406.201-.438.203-3.18.204l-2.768.001v-2.119c0-1.78-.02-2.149-.127-2.309-.125-.186-.164-.19-1.846-.19H4.84v-.583c0-1.232-.483-2.098-1.445-2.592-.55-.282-.552-.282-1.815-.285-1.233-.003-1.27.002-1.423.199-.153.196-.157.48-.157 10.543v10.342l.21.219c.21.218.211.218 1.456.188 1.166-.029 1.276-.046 1.71-.268a2.792 2.792 0 001.246-1.334c.146-.332.179-.595.203-1.65l.03-1.255 1.681-.028c2.164-.035 1.995.134 1.995-1.997v-1.567l3.179-.032 3.179-.032.738-.236a7.36 7.36 0 003.355-2.213c.252-.294.85-1.22 1.33-2.058.605-1.06.905-1.51.985-1.478.063.026 1.195.697 2.514 1.492 1.32.795 2.576 1.508 2.792 1.584.881.312 2.104.117 2.872-.457l.36-.27.525.187c1.641.582 3.58.095 4.869-1.225l.496-.507.328.187c1.094.623 1.085.62 1.322.499.17-.087.742-1.051 2.424-4.089C41.009 18.298 42 16.43 42 16.332a.631.631 0 00-.102-.318c-.057-.077-2.226-1.417-4.82-2.978L24.123 5.241C19.59 2.514 15.74.231 15.566.166c-.423-.155-1.25-.215-1.677-.121zm1.554 1.38c.491.262 25.028 15.036 25.106 15.118.038.04-.755 1.556-1.76 3.37l-1.83 3.3-.33-.198c-3.004-1.8-24.156-14.528-25.7-15.464-.462-.28-.826-.535-.81-.566.018-.03.52-.94 1.118-2.022 1.667-3.022 1.765-3.176 2.187-3.433.203-.124.487-.257.63-.295.373-.098 1.01-.011 1.389.19zm-1.499 9.33c2.143 1.29 6.831 4.108 10.418 6.264 3.587 2.155 6.555 3.95 6.596 3.987.073.067-1.295 2.649-1.755 3.31-.489.704-1.635 1-2.42.625-.181-.086-2.82-1.657-5.866-3.492-3.045-1.834-7.087-4.267-8.982-5.406-1.895-1.14-3.569-2.194-3.72-2.343-.544-.54-.77-1.318-.587-2.026.086-.335.642-1.4 1.618-3.1l.283-.495.26.165c.142.091 2.012 1.221 4.155 2.51zm-4.392.446c-.238.248-.256.472-.058.723.203.257 4.938 3.086 5.165 3.086.406 0 .671-.616.413-.958-.159-.21-4.952-3.06-5.146-3.06-.095 0-.263.094-.374.21zm25.266 4.624c-.471.182-.87.553-1.13 1.055-.811 1.551.247 3.375 1.949 3.362.612-.005 1.015-.175 1.484-.626 1.067-1.026.852-2.854-.428-3.636-.46-.282-1.355-.355-1.875-.155zM2.531 16.971c.448.09.74.312.975.74l.183.335.001 8.396c.001 5.743-.026 8.472-.086 8.637-.237.65-.812.963-1.779.965l-.677.002V16.891l.513.004c.282.002.674.036.87.076zm33.823.25c.272.319.35.595.28.987-.11.611-.84 1.029-1.385.791-.803-.35-.922-1.47-.206-1.94.41-.267 1.005-.194 1.31.163zM7.383 25.957v5.558H4.84V20.398h2.543v5.558zm11.643-4.267c.64.382 1.15.721 1.137.755-.013.033-.375.693-.804 1.466-.661 1.192-.884 1.514-1.477 2.131-.799.832-1.338 1.19-2.357 1.57l-.718.269-3.138.027-3.138.026v-2.91l2.933-.025c2.849-.025 2.946-.031 3.404-.224.777-.327 1.234-.846 2.111-2.4.428-.758.803-1.378.832-1.378.03 0 .577.312 1.215.693zm14.385.778l1.313.787-.421.403c-.69.66-1.569 1.018-2.475 1.006-.541-.008-1.24-.17-1.24-.29-.001-.096 1.422-2.693 1.476-2.693.02 0 .625.354 1.347.787z" fill="url(#paint0_linear_1713_6830)"/><defs><linearGradient id="paint0_linear_1713_6830" x1="0" y1="0" x2="37.696" y2="42.716" gradientUnits="userSpaceOnUse"><stop stop-color="#0ABD92"/><stop offset="1" stop-color="#009DB8"/></linearGradient></defs></svg>