<svg width="39" height="47" fill="none" xmlns="http://www.w3.org/2000/svg"><path fill-rule="evenodd" clip-rule="evenodd" d="M21.161 47v-7.987l.96-.131V47h-.96zm-3.2 0v-7.987l-.959-.131V47h.96z" fill="#646464"/><path fill-rule="evenodd" clip-rule="evenodd" d="M19.5 38.146c10.263 0 18.583-8.333 18.583-18.614C38.083 9.252 29.763.92 19.5.92 9.237.919.917 9.252.917 19.532S9.237 38.147 19.5 38.147zm0 .919c10.77 0 19.5-8.745 19.5-19.532C39 8.744 30.27 0 19.5 0S0 8.745 0 19.532C0 30.32 8.73 39.066 19.5 39.066z" fill="#646464"/><path d="M32.594 6.35l.552.552L6.908 33.183l-.551-.552L32.594 6.35zM14.223 27.513a4.187 4.187 0 001.8-.608 4.405 4.405 0 001.603-1.741c.26-.494.43-1.019.515-1.575l-3.918 3.924zm6.655-6.665c.054 1.238.24 2.322.558 3.25.388 1.118.941 1.973 1.66 2.565.724.588 1.596.881 2.618.881 1.021 0 1.892-.293 2.61-.88.724-.593 1.278-1.448 1.66-2.566.388-1.118.582-2.461.582-4.03 0-1.563-.194-2.901-.581-4.014-.383-1.118-.94-1.974-1.668-2.566a4.881 4.881 0 00-.05-.041l-.871.872c.077.06.153.123.226.192.535.498.944 1.218 1.228 2.16.288.939.432 2.071.432 3.398 0 1.994-.314 3.54-.943 4.64-.63 1.094-1.504 1.642-2.625 1.642a2.728 2.728 0 01-1.916-.74c-.53-.492-.938-1.208-1.227-2.146-.284-.938-.426-2.07-.426-3.396 0-.17.003-.335.007-.498l-1.274 1.277z" fill="#646464"/><path d="M22.322 17.744l-1.44 1.441c.022-.424.06-.83.112-1.216l1.72-1.723a8.067 8.067 0 00-.392 1.498zm3.926-3.932l.962-.964a4.03 4.03 0 00-.887-.217l-1.186 1.188a3.102 3.102 0 011.111-.008zm-1.686-1.074a3.842 3.842 0 00-1.459.75c-.66.54-1.179 1.297-1.56 2.273l3.019-3.023zm-7.201 7.212a4.449 4.449 0 00-1.374-1.303 4.163 4.163 0 00-2.22-.618c-.516 0-1.008.09-1.476.27a4.125 4.125 0 00-1.255.74 3.874 3.874 0 00-.894 1.115h-.093c.005-2.032.334-3.6.987-4.704.652-1.109 1.575-1.663 2.766-1.663.833 0 1.497.248 1.994.746.497.497.811 1.13.943 1.897h1.306c-.095-.753-.329-1.419-.703-1.997a3.922 3.922 0 00-1.461-1.35c-.6-.327-1.294-.49-2.079-.49-.837 0-1.567.199-2.192.597-.624.393-1.144.95-1.56 1.67-.417.72-.729 1.573-.937 2.558-.208.985-.312 2.07-.312 3.255 0 1.279.135 2.357.404 3.233.27.876.634 1.582 1.093 2.118.16.184.326.351.5.501l.86-.861a3.544 3.544 0 01-.842-1.012 4.371 4.371 0 01-.518-1.798 3.26 3.26 0 01.177-1.371c.16-.436.393-.822.695-1.159a3.36 3.36 0 011.086-.803 3.086 3.086 0 011.348-.298 3.08 3.08 0 011.695.476c.471.298.849.693 1.132 1.183l.93-.931zm-4.62 6.285l-.93.933.033.014c.264.11.532.194.802.254l1.086-1.088a3.16 3.16 0 01-.99-.113zm4.157-3.058a4.273 4.273 0 00-.033-1.072l1.057-1.06c.1.283.172.578.219.887l-1.243 1.245z" fill="#646464"/></svg>