<svg width="39" height="41" fill="none" xmlns="http://www.w3.org/2000/svg"><path fill-rule="evenodd" clip-rule="evenodd" d="M14.032.694c-.106.106-.193.257-.193.335 0 .078.445 1.492.99 3.141.66 2 1.044 3.046 1.15 3.138.137.12.335.138 1.525.138h1.367v1.008l-.27.051c-.553.104-1.35.584-1.837 1.106-.782.84-1.091 1.702-1.017 2.843a3.6 3.6 0 00.613 1.839c.127.189.23.368.228.398 0 .03-1.136.677-2.521 1.437l-2.52 1.381-3.439.04-3.439.039-2.197 1.886C1.264 20.512.214 21.434.14 21.526c-.127.155-.136.764-.137 9.289L0 39.937l.182.171.182.172h38.294l.171-.183.171-.182V21.64l-.216-.212c-.44-.43-4.362-3.764-4.489-3.816-.072-.03-1.624-.056-3.449-.059l-3.317-.005-2.54-1.395a574.11 574.11 0 01-2.566-1.414c-.014-.01.03-.126.098-.258.177-.342.154-.62-.069-.844-.298-.3-.632-.261-.986.112l-.29.306-.683-.387c-.976-.553-.984-.553-1.903-.041-.912.508-.899.511-1.312-.332-.218-.445-.252-.596-.25-1.11.004-.717.18-1.165.665-1.694.41-.446.993-.738 1.61-.805.759-.083.826-.186.826-1.268v-.894h1.361c1.24 0 1.376-.014 1.525-.154.174-.162 2.146-5.956 2.146-6.302 0-.1-.087-.269-.193-.375L24.775.5h-10.55l-.193.194zm9.556 1.128c0 .033-.312 1.018-.691 2.19l-.69 2.131h-5.414l-.69-2.13c-.38-1.173-.69-2.158-.69-2.191-.001-.033 1.838-.06 4.087-.06 2.249 0 4.088.027 4.088.06zm-4.03 12.854c-.027.026-.095.029-.151.006-.063-.025-.044-.044.047-.048.083-.003.13.016.103.042zm-1.237 1.102c.198.077.664.153 1.061.173.613.031.79.009 1.317-.17l.61-.205 1.72.967 1.721.966-2.625.02c-1.444.012-3.806.012-5.249 0l-2.624-.02 1.7-.964c1.042-.591 1.761-.953 1.857-.934.087.017.317.092.512.167zm-9.182 3.086c-.117.048-.333.441-.333.608 0 .064.092.226.204.36.325.388.56.338 1.855-.39l1.124-.63h15.217l1.003.56c.55.309 1.035.593 1.076.632.138.13.505.072.72-.115.276-.237.288-.606.03-.88l-.183-.198 1.96.003 1.96.003 1.446 1.24 1.447 1.24-8.537.02c-4.695.012-12.405.012-17.132 0l-8.596-.02 1.454-1.242 1.453-1.243 1.966.006c1.081.003 1.92.024 1.866.046zM37.742 30.81v8.208H1.258V22.6h36.484v8.209zM7.09 25.31l-.17.182v10.657l.181.172c.25.235.68.23.905-.011l.171-.183V25.47l-.182-.172c-.249-.235-.68-.23-.905.011zm6.92 0l-.171.182v10.657l.182.172c.25.235.68.23.905-.011l.17-.183V25.47l-.181-.172c-.25-.235-.68-.23-.905.011zm7.243 1.576c-.986.99-1.124 1.16-1.124 1.385 0 .34.3.644.632.644.195 0 .352-.102.75-.486l.505-.486v1.893c0 1.877.002 1.895.182 2.065.25.235.68.23.905-.011.166-.177.171-.241.171-2.065v-1.882l.504.486c.4.384.556.486.751.486.333 0 .632-.305.632-.644 0-.226-.138-.396-1.123-1.385-1.008-1.012-1.151-1.128-1.393-1.128-.241 0-.384.116-1.392 1.128zm6.919 0c-.986.99-1.124 1.16-1.124 1.385 0 .34.3.644.633.644.194 0 .351-.102.75-.486l.505-.486v1.893c0 1.877.001 1.895.181 2.065.25.235.68.23.906-.011.165-.177.17-.241.17-2.065v-1.882l.505.486c.398.384.556.486.75.486.334 0 .633-.305.633-.644 0-.226-.138-.396-1.124-1.385-1.008-1.012-1.15-1.128-1.393-1.128-.241 0-.384.116-1.392 1.128zM20.3 34.78c-.234.25-.23.682.011.908l.182.172h11.246l.17-.183c.235-.25.23-.682-.01-.908l-.182-.172H20.47l-.171.183z" fill="url(#paint0_linear_1710_6329)"/><defs><linearGradient id="paint0_linear_1710_6329" x1="0" y1=".5" x2="40.572" y2="40.471" gradientUnits="userSpaceOnUse"><stop stop-color="#0ABD92"/><stop offset="1" stop-color="#009DB8"/></linearGradient></defs></svg>