<svg width="35" height="36" fill="none" xmlns="http://www.w3.org/2000/svg"><path fill-rule="evenodd" clip-rule="evenodd" d="M6.46.627c-.544.337-.65.603-.65 1.632 0 .665.024.842.143 1.089.213.44.47.591 1.085.635l.516.036.034 10.425.034 10.426.16.223c.087.123.278.285.424.36.255.13.415.134 4.199.134h3.933v1.306c0 1.069.02 1.349.112 1.542.143.3.488.566.804.617l.246.04v1.144H9.216c-8.271 0-8.285 0-8.58.143-.197.096-.353.24-.466.434-.167.284-.17.319-.17 1.732 0 .856.03 1.52.073 1.635.104.273.328.498.645.644.262.121.748.126 12.105.128l11.83.001.167.18c.28.305.53.367 1.465.367.618 0 .915-.028 1.052-.1.32-.164.608-.548.656-.871.023-.162.033-1.142.021-2.179l-.02-1.885-.183-.275c-.258-.39-.577-.521-1.349-.557-.852-.039-1.31.066-1.614.37-.232.23-.24.233-.852.233h-.617v-.58c0-.541.01-.582.14-.582.36 0 .827-.43.95-.874.04-.14.071-.785.072-1.433v-1.18h4.48c3.629 0 4.522-.017 4.703-.093.284-.119.567-.454.658-.78.043-.157.07-1.376.07-3.172.001-2.845.005-2.92.136-2.961.202-.064.412-.368.412-.596 0-.131-.07-.27-.2-.401-.193-.193-.222-.2-.854-.2h-.655V3.985h.448c.527 0 .769-.106 1.035-.456.187-.244.192-.277.21-1.213.018-.898.008-.981-.138-1.235a1.357 1.357 0 00-.428-.426l-.273-.154h-13.74C7.12.498 6.658.502 6.46.626zm27.378 1.615v.581H7.04V1.661h26.798v.58zM11.634 5.609c.024 1.814.042 1.894.511 2.252l.251.192 3.269.019c3.157.018 3.278.014 3.537-.118.148-.076.34-.238.428-.361.155-.216.161-.28.194-1.899l.034-1.675 6.101-.017 6.101-.018v13.4h-2.942c-3.232 0-3.246.002-3.413.407-.12.287.012.595.317.74l.228.109v5.785H8.75v-1.162h15.917l.21-.177a.554.554 0 00.137-.722c-.182-.34.02-.331-8.4-.331H8.75V3.985h2.862l.022 1.624zm2.392-1.152c-.034.587.056.867.402 1.26.368.418.782.61 1.317.61.504 0 .824-.123 1.192-.456.404-.364.587-.843.546-1.422l-.033-.464h1.212v2.94h-5.81v-2.94h1.2l-.026.472zm2.229-.112a.61.61 0 01.043.356c-.05.202-.331.446-.513.446a.623.623 0 01-.61-.609c0-.179.25-.47.43-.5.237-.04.553.109.65.307zm-3.935 6.18c-.3.147-.542.448-.633.783-.047.176-.066.956-.053 2.167.019 1.651.037 1.92.141 2.112.192.35.463.557.835.637.239.052 2.699.068 8.04.053l7.695-.02.29-.193c.527-.348.551-.469.553-2.732.002-2.14-.014-2.247-.383-2.592a1.457 1.457 0 00-.389-.256c-.132-.05-2.656-.072-8.032-.071-7.078.001-7.862.012-8.064.112zm15.639 2.792v1.743H12.852v-3.487h15.107v1.744zm5.264 8.203v2.905h-5.811v-5.81h5.811v2.905zm-3.37-1.717c-.943.261-1.52 1.375-1.176 2.274.555 1.453 2.466 1.59 3.207.228.72-1.323-.566-2.907-2.03-2.502zm.878 1.304c.35.35.112.926-.384.926-.54 0-.764-.58-.364-.94a.524.524 0 01.748.014zm-7.42 5.643v1.162H17.5v-2.325h5.81v1.163zm-1.163 2.905v.581h-3.486v-1.162h3.486v.581zm4.649 2.94v1.743h-1.094V30.85h1.094v1.744zm-2.324 0v1.128H1.162v-2.256h23.311v1.128z" fill="#646464"/></svg>