<svg width="31" height="44" fill="none" xmlns="http://www.w3.org/2000/svg"><path fill-rule="evenodd" clip-rule="evenodd" d="M2.111.063A2.919 2.919 0 00.265 1.498l-.214.404-.025 16.404L0 34.71l.23.508c.27.594.712 1.071 1.28 1.378.402.218.45.22 5.676.248l5.272.028.025 3.44.026 3.44.276.152c.264.146.285.141.515-.126l.24-.278v-6.635h3.923V43.5l.24.278c.23.267.25.272.515.126l.275-.153.026-3.44.026-3.44 5.27-.027c5.226-.028 5.276-.03 5.678-.248a2.94 2.94 0 001.276-1.365l.229-.498V18.509C31 .503 31.049 1.797 30.347.966a3.477 3.477 0 00-.853-.681L28.99.016 15.697.002C8.387-.007 2.273.02 2.111.063zM29 1.248c.22.101.508.334.637.518l.236.334v32.668l-.202.274c-.112.15-.325.366-.474.478-.27.204-.29.205-13.695.205H2.077l-.277-.208a2.648 2.648 0 01-.499-.537l-.221-.329.025-16.293c.025-16.27.026-16.293.227-16.573.111-.154.397-.38.634-.503l.432-.223 13.1.002c12.562.002 13.115.01 13.5.187zM2.903 2.9c-.139.14-.154 1.687-.154 15.552 0 11.843.027 15.424.118 15.516.17.173 25.098.173 25.269 0 .09-.092.117-3.673.117-15.516 0-13.865-.015-15.412-.154-15.552-.138-.14-1.416-.156-12.598-.156S3.041 2.76 2.903 2.9zm24.37 15.515v14.581H3.73V3.836h23.542v14.58zM6.321 6.794c-.568.27-.826.64-.826 1.181 0 .6.42 1.035 1.233 1.271 1.057.308 1.317.443 1.317.685 0 .372-.297.55-.914.55-.305 0-.754-.054-.998-.12-.383-.103-.465-.097-.603.042-.37.374.222.748 1.333.842.53.045.741.017 1.112-.149.976-.437 1.152-1.58.323-2.098-.166-.103-.633-.28-1.038-.393-.82-.228-1.143-.495-.977-.809.176-.333.472-.412 1.407-.375.858.034.896.026.925-.182.047-.335-.352-.534-1.177-.588-.572-.038-.798-.009-1.117.143zm3.297.11c-.06.114-.102.982-.102 2.126 0 1.625.025 1.958.154 2.09.384.387.631.096.631-.744v-.66l.831-.053c.541-.034.958-.118 1.193-.242.696-.365.941-1.357.5-2.025-.366-.554-.745-.683-2.006-.684-.987 0-1.11.02-1.201.192zm4.234-.073c-.124.126-.176 3.876-.058 4.188.05.133.278.157 1.508.157 1.578 0 1.798-.069 1.575-.49-.1-.188-.197-.205-1.233-.205H14.52V9.298l1.055-.028 1.054-.028v-.596l-1.054-.028-1.055-.028V7.407h1.116c1.226 0 1.453-.09 1.242-.49-.102-.192-.195-.205-1.508-.205-.957 0-1.436.038-1.517.12zm3.95.005c-.028.071-.038 1.066-.023 2.21l.026 2.08h1.52c1.384 0 1.521-.016 1.552-.178.074-.386-.146-.467-1.269-.467h-1.067v-1.19h1.033c.866 0 1.043-.026 1.095-.162.142-.376-.09-.481-1.133-.51l-.995-.03V7.414l1.153-.028 1.152-.028v-.595l-1.498-.028c-1.16-.02-1.509.002-1.547.102zm3.98.068c-.15.283-.136 4 .016 4.153.076.077.477.119 1.146.119.85 0 1.104-.037 1.46-.212 1.228-.6 1.556-2.44.622-3.488-.543-.61-.963-.759-2.14-.762-.892-.002-1.014.02-1.105.19zm-9.716.75c.292.267.262.778-.062 1.035-.208.166-.398.205-.98.205h-.723V7.381l.784.046c.573.034.836.094.98.226zm12.1.04c.437.274.703.918.624 1.513-.11.827-.71 1.274-1.71 1.274h-.615V7.38l.677.049c.459.033.79.119 1.023.265zM7.62 13.126c-.036.037-.066 1.017-.066 2.179 0 1.987.012 2.119.19 2.215.105.057.72.103 1.367.103.938 0 1.207-.032 1.33-.156.183-.184.184-.198.053-.446-.09-.17-.214-.192-1.128-.192H8.34V15.2c0-1.8-.067-2.139-.422-2.139-.128 0-.261.03-.297.066zm3.567.126c-.06.113-.101.971-.101 2.09 0 1.118.042 1.976.101 2.09.115.215.39.25.566.072.166-.168.166-4.156 0-4.325-.177-.178-.451-.143-.566.073zm1.915-.034c-.135.136-.153.44-.13 2.196.024 1.816.045 2.05.198 2.148.125.08.219.08.344 0 .149-.095.175-.309.2-1.636l.028-1.527.628 1.528c.345.84.686 1.565.756 1.61.187.12.513.104.646-.03.064-.065.37-.765.682-1.557l.567-1.44.049 1.452c.052 1.561.108 1.73.532 1.622l.252-.064v-2.11c0-1.51-.033-2.146-.117-2.23-.175-.178-.713-.145-.888.054-.084.095-.432.875-.773 1.733-.34.858-.65 1.528-.688 1.488-.038-.04-.341-.764-.674-1.61-.333-.845-.65-1.593-.706-1.66-.143-.176-.72-.155-.906.033zm5.94-.021c-.079.095-.105.76-.086 2.196.024 1.836.045 2.072.198 2.17.125.079.218.079.343 0 .153-.098.175-.334.199-2.17.027-2.127-.006-2.333-.37-2.333a.42.42 0 00-.285.137zm1.325.015c-.339.342.065.642.865.642h.546v1.765c0 1.764.043 2.004.356 2.004.066 0 .19-.07.275-.156.128-.13.154-.445.154-1.884v-1.73h.581c.58 0 .89-.15.89-.433 0-.314-.239-.36-1.876-.36-1.342 0-1.668.028-1.791.152zM9.156 20.897a.717.717 0 00-.315.277c-.122.232-.697 3.63-.697 4.123 0 .736.685.962 1.56.514a4.81 4.81 0 011.116-.356c1.275-.224 2.248.227 2.528 1.17.179.605-.01 1.415-.408 1.754-.696.592-2.204.723-3.374.294a10.086 10.086 0 00-.934-.303c-.328-.067-.612.245-.569.626.026.23.138.338.608.59.724.39 1.426.55 2.401.55.975 0 1.41-.081 2.048-.381.984-.463 1.498-1.375 1.498-2.652 0-1.226-.592-2.175-1.667-2.674-.625-.29-2.067-.284-2.893.011-.323.116-.592.203-.596.193-.005-.01.079-.609.185-1.332l.194-1.314h1.98c1.796 0 1.997-.017 2.144-.181.232-.26.205-.67-.055-.855-.182-.129-.575-.153-2.38-.148-1.188.004-2.256.046-2.374.094zm8.167.123c-.224.201-.281.422-.582 2.252-.35 2.136-.345 2.477.04 2.685.298.161.761.11 1.25-.14 1.36-.695 2.955-.501 3.49.423.26.452.262 1.352.003 1.81-.472.834-2.18 1.138-3.57.637-.405-.146-.85-.289-.99-.318-.575-.117-.806.683-.302 1.045 1.166.84 3.478.978 4.823.288 1.054-.54 1.534-1.47 1.449-2.805-.073-1.13-.582-1.931-1.527-2.4-.505-.25-.656-.277-1.54-.27-.763.006-1.102.056-1.521.223-.297.118-.552.215-.566.215-.015 0-.005-.1.021-.223.026-.123.12-.725.21-1.339l.162-1.116h1.984c1.798 0 2-.017 2.146-.181.232-.26.205-.67-.055-.855-.182-.128-.589-.154-2.447-.154-2.172 0-2.235.006-2.478.223z" fill="#646464"/></svg>