<svg width="60" height="60" fill="none" xmlns="http://www.w3.org/2000/svg"><path fill-rule="evenodd" clip-rule="evenodd" d="M27.34 11.805C15.339 33.631 7.133 48.731 7.224 48.823c.06.06 10.42.08 23.025.044l22.916-.063-1.675-3.007c-.921-1.653-5.993-10.898-11.27-20.543-5.277-9.646-9.724-17.727-9.882-17.959-.242-.354-.713.354-2.998 4.51zm3.134 4.08c1.546 1.656.425 4.483-1.778 4.483-2.519 0-3.437-3.684-1.224-4.911 1.072-.595 2.196-.434 3.002.428zm4.248 5.666c3.144 1.944 3.078 1.808 2.94 6.083l-.077 2.38-.94.077c-.817.068-.972-.008-1.19-.58-.136-.361-.25-1.073-.252-1.58-.006-2.159-.257-2.797-1.308-3.334-.545-.278-1.033-.464-1.085-.412-.051.052.032 1.115.186 2.362.153 1.248.21 2.54.127 2.873-.096.382-1.38 1.592-3.483 3.282l-3.332 2.676-.958 3.581c-.527 1.97-1.134 3.778-1.349 4.02-.875.982-2.316.265-2.316-1.152 0-.915 2.04-7.405 2.697-8.58.317-.568 3.352-3.414 4.255-3.992.037-.023-.103-1.327-.311-2.899-.568-4.3-.638-4.016 1.309-5.324.93-.625 1.842-1.143 2.027-1.15.185-.009 1.562.743 3.06 1.669zm-6.902 4.266c.08.517.183 1.19.225 1.496.063.452-.236.746-1.576 1.553-2.108 1.27-2.386 1.368-2.98 1.05-.75-.401-.841-1.21-.218-1.912.548-.617 3.898-3.085 4.224-3.112.097-.008.243.409.325.925zm7.348 10.254c1.398 2.642 2.542 5 2.542 5.24 0 1.147-1.566 1.768-2.306.916-.445-.512-5.052-9.334-4.92-9.42.05-.031.524-.426 1.055-.877.531-.451.993-.785 1.026-.742.033.043 1.204 2.24 2.603 4.883zm-13.796 2.148l-1.589 4.259-1.472 3.945h-5.947l.365-.563c.2-.31 1.417-2.227 2.704-4.26l2.338-3.695h1.859c1.382 0 1.829.08 1.742.313zm9.927.125c.132.437 1.403 7.393 1.403 7.679 0 .082-1.408.15-3.13.15-2.702 0-3.13-.055-3.13-.4 0-.389.904-6.159 1.144-7.304.109-.519.256-.564 1.85-.564 1.43 0 1.753.076 1.863.439zm12.818 3.258c1.39 2.032 2.607 3.835 2.706 4.007.14.243-.483.313-2.785.313h-2.966l-1.619-3.794a726.351 726.351 0 01-1.701-4.009c-.046-.117.799-.213 1.878-.212h1.96l2.527 3.695z" fill="#F8F8F8"/><rect x="2.198" y="2.548" width="54.708" height="54.708" rx="7.473" stroke="#fff" stroke-width="4.396"/></svg>