<svg width="60" height="60" fill="none" xmlns="http://www.w3.org/2000/svg"><rect x="2.531" y="2.276" width="54.708" height="54.708" rx="7.473" stroke="#fff" stroke-width="4.396"/><path fill-rule="evenodd" clip-rule="evenodd" d="M9.943 20.113c-1.145.468-1.166.619-1.166 8.554v7.362h1.959c1.954 0 1.958 0 1.958-.555 0-1.155.963-2.53 2.222-3.173 2.26-1.156 5.42.19 5.942 2.53.343 1.537-.51 1.395 8.465 1.411 4.465.008 8.278-.046 8.473-.121.194-.075.462-.543.594-1.04 1.037-3.905 6.048-4.313 7.9-.643.193.384.351.899.351 1.145 0 .245.074.45.163.456.09.005.947.023 1.905.04l1.74.03V21.001l-.495-.497-.496-.496-19.524-.042c-10.739-.024-19.735.043-19.991.147zm6.886 4.69v3.161h-6.311v-6.321h6.311v3.16zm8.003.055l.06 3.106H18.57v-6.333l3.1.06 3.101.06.06 3.107zm7.882-.054v3.16h-6.093v-6.321h6.093v3.16zm8.052 0v3.16h-6.311v-6.321h6.311v3.16zm8.051 0v3.16h-6.31v-6.321h6.31v3.16zm-33.185 8.264c-1.188.528-2.067 1.845-2.067 3.093 0 .843.818 2.24 1.586 2.71.92.562 2.44.559 3.366-.007 2.119-1.294 2.076-4.373-.079-5.61-.96-.551-1.853-.61-2.806-.186zm25.265.173c-2.837 1.672-1.712 6.058 1.554 6.058 1.658 0 2.89-1.09 3.202-2.834.165-.919-.55-2.472-1.435-3.117-.9-.656-2.31-.702-3.32-.107z" fill="#fff"/></svg>