<svg width="85" height="61" fill="none" xmlns="http://www.w3.org/2000/svg"><rect x="1.448" y="1.026" width="81.864" height="58.158" rx="8.723" stroke="#fff" stroke-width="1.896"/><path fill-rule="evenodd" clip-rule="evenodd" d="M63.2 6.519l-.116.119v5.722h-4.542l-.306.11-.307.109v.489l.9.429.9.428 1.061.485 1.062.484.035.106.034.106-1.349 1.402-1.349 1.402-.33-.2-.332-.2-.121-.16-.122-.16v-2.444h-5.252v3.051l-.753.064-.754.064-.924.16-.924.158-.924.298-.924.298-.948.478-.948.477-.85.58-.852.581H15.672l-.546.274-.545.273-.485.524-.485.524-.234.593-.234.594V47.38l.302.547.303.546.566.298.566.298h50.781l.537-.17.537-.17.456-.309.457-.31.296-.41.295-.41.218-.55.219-.552.027-10.85.027-10.849-.469-.377-.469-.377-1.48-.985-1.479-.986.129-.207.128-.206.958-1.624.958-1.624.135-.053.134-.053L68.9 19l1.624 1.003.317.113.317.112.145-.056.145-.057v-.507l-.593-1.545-.593-1.545.033-.03.034-.031 1.265-.56 1.264-.56.17-.208.17-.209v-.269l-.194-.106-.195-.107-1.674-.395-1.674-.395-.086-.088-.086-.088.694-1.376.694-1.376.06-.388.06-.388-.465.065-.464.065-1.082.458-1.083.458-.616.258-.617.258-.162-.22-.162-.219-1.061-2.061-1.061-2.061-.185-.273-.185-.274h-.337l-.117.12zm1.774 4.003l.951 1.789.086.093.085.093.548-.176.547-.177 1.116-.488 1.116-.488h.083l-.547 1.102-.547 1.101-.05.377-.049.377.473.16.474.16.884.197.884.197.234.092.234.092-.559.258-.56.259-.542.246-.543.247.066.325.067.324.383.981.384.981-.05.051-.05.052-.903-.549-.902-.547-.581-.315-.581-.315-.246.03-.245.029-.603 1.043-.603 1.043-.247.397-.246.398-.011-1.193-.012-1.192-.067-.248-.067-.248-.498-.03-.497-.03-1.391.253-1.391.254h-.254l1.217-1.22 1.217-1.219v-.457l-1.191-.576-1.192-.576-.218-.07-.22-.069v-.203l1.59.034 1.59.034.16-.136.162-.137V8.545l.08.095.082.094.95 1.788zm-.918 9.051v1.649l-.271-.184-.271-.183-1.668-1.143-1.667-1.142.164-.076.163-.077 1.362-.239 1.362-.239.413-.008.413-.007v1.649zm-8.996-.847l.875.107.584.146.584.147.778.255.778.256 1.124.588 1.124.589.82.63.822.63.927.98.928.98.613.939.612.938.387.785.386.785.329 1.009.328 1.008.176.845.177.844v3.875l-.177.844-.177.845-.29.894-.29.894-.383.811-.383.812-.576.877-.575.878-.617.714-.617.715-.632.565-.632.565-.944.637-.943.637-.807.386-.808.386-.76.26-.76.26-.942.212-.941.212h-3.696l-.95-.214-.95-.215-.716-.245-.717-.246-.818-.397-.818-.397-.774-.514-.773-.514-.813-.697-.812-.697-.744-.921-.743-.922-.52-.85-.521-.85-.382-.905-.382-.905-.244-.86-.244-.86-.148-.846-.147-.846-.004-1.44-.005-1.441.152-.945.152-.945.25-.893.25-.893.57-1.192.57-1.192.615-.88.613-.88.789-.818.788-.818.729-.56.729-.56.82-.5.821-.5.973-.39.972-.388.975-.252.975-.252.776-.09.776-.09.826-.013.827-.013.875.106zm-3.93 1.345l-.817.14-.997.341-.998.34-.713.365-.714.364-.827.558-.827.558-.979.996-.979.996-.646.997-.645.996-.33.742-.33.743-.256.794-.256.795-.154.795-.154.795-.054 1.242-.055 1.242.164 1.135.164 1.135.295.951.296.951.532 1.053.533 1.053.62.844.62.844.813.785.813.786.752.53.752.53.859.437.859.436.867.297.868.297.968.16.969.162 1.264-.005 1.264-.004.876-.158.875-.157 1.007-.344 1.007-.345.89-.468.889-.469.937-.72.938-.722.656-.722.656-.722.48-.695.48-.696.422-.795.422-.794.3-.876.3-.875.212-1.012.213-1.013.005-1.49.006-1.49-.127-.745-.127-.745-.291-.981-.292-.98-.376-.808-.376-.808-.409-.646-.408-.645-.623-.765-.624-.765-.7-.619-.702-.619-.803-.535-.803-.536-.833-.393-.833-.393-.818-.243-.819-.242-.852-.152-.852-.152-1.313.01-1.313.01-.817.14zm4.695 2.765l.903.234.73.31.73.31.76.51.759.51.683.655.684.656.573.786.573.787.428.902.429.903.253.944.253.944.056 1.314.056 1.314-.121.772-.121.772-.244.795-.243.795-.435.864-.434.865-.465.626-.465.625-.751.727-.75.728-.699.461-.697.462-.827.363-.827.364-.875.23-.875.232h-3.112l-.973-.27-.972-.27-.812-.396-.81-.395-.67-.459-.67-.459-.72-.723-.72-.724-.451-.646-.452-.647-.435-.894-.436-.895-.254-.928-.254-.928-.047-1.54-.047-1.54.193-.955.194-.956.345-.864.345-.865.465-.763.465-.763.777-.828.778-.828.634-.485.635-.485.876-.447.876-.447.875-.252.876-.251.68-.094.681-.093 1.098.048 1.099.048.902.234zm-32.068 1.683l.79.261.485.366.484.366.217.323.216.323.052.394.052.393-.225.408-.224.408-.492.342-.493.343-.535.195-.534.195-.514.107-.514.107-.8.062-.798.06-.898-.159-.898-.16-.507-.197-.508-.197-.457-.318-.456-.319-.254-.399-.253-.399V26.2l.22-.333.22-.333.41-.32.408-.318.563-.218.562-.218.68-.135.681-.135 1.265.034 1.264.035.791.261zm27.948-.183l-.632.13-.486.167-.487.168-.495.237-.495.237-.575.381-.574.38-.553.519-.554.518-.488.672-.488.673-.392.838-.392.838-.21.795-.209.795v2.782l.21.794.209.795.384.82.384.821.292.435.293.435.505.564.504.564.551.433.55.433.633.355.631.354.577.206.577.206.714.143.714.143.89-.001h.892l.626-.105.626-.103.59-.2.59-.2.686-.344.686-.344.794-.641.794-.642.589-.756.588-.757.43-.91.43-.909.146-.596.147-.596.103-.854.103-.853-.098-.967-.098-.966-.308-.948-.308-.948-.456-.777-.457-.776-.473-.565-.472-.565-.684-.546-.683-.546-.73-.373-.73-.372-.632-.21-.632-.209-.632-.102-.632-.102-.876.011-.875.011-.632.13zm-31.593 1.25l-.714.097-.537.205-.537.205-.19.194-.189.193.03.214.031.214.332.228.332.228.495.154.494.153.803.088.803.088.85-.09.851-.091.535-.163.535-.162.264-.14.265-.139.107-.204.107-.205-.154-.24-.154-.24-.367-.191-.366-.191-.533-.101-.533-.1-.923-.051-.922-.05-.715.097zm35.312 1.404l.656.248.532.33.533.329.63.652.63.651.349.596.35.596.236.767.237.767.06.773.058.773-.15.781-.152.782-.316.7-.317.702-.418.554-.417.554-.55.468-.55.468-.56.304-.56.305-.751.197-.752.196-.884-.002-.884-.001-.62-.15-.622-.15-.778-.413-.778-.413-.65-.655-.65-.656-.4-.692-.399-.693-.226-.745-.226-.745.005-1.193.005-1.192.255-.729.256-.728.323-.554.323-.554.655-.675.655-.674.901-.452.901-.452.536-.149.534-.15 1.167.038 1.168.038.655.248zm-2.795 1.372l-.584.089-.79.398-.792.399-.522.577-.522.577-.266.559-.267.56-.11.524-.11.524.048.87.049.87.35.754.35.753.541.58.542.58.565.307.565.308.671.161.67.161.64-.058.638-.059.57-.2.569-.2.47-.309.47-.308.445-.506.446-.507.236-.474.235-.475.145-.57.145-.568-.002-.6-.002-.6-.1-.445-.1-.444-.287-.613-.286-.613-.438-.497-.437-.497-.487-.319-.487-.319-.56-.178-.56-.178-.534-.052-.534-.052-.583.09z" fill="#fff"/></svg>