<svg width="61" height="61" fill="none" xmlns="http://www.w3.org/2000/svg"><path fill-rule="evenodd" clip-rule="evenodd" d="M50.875 2.891H10.162A6.858 6.858 0 003.304 9.75v40.713a6.858 6.858 0 006.857 6.858h40.714a6.858 6.858 0 006.858-6.858V9.75a6.858 6.858 0 00-6.858-6.858zM10.162.078C4.82.078.49 4.408.49 9.748v40.714c0 5.341 4.33 9.671 9.67 9.671h40.714a9.67 9.67 0 009.67-9.67V9.748a9.67 9.67 0 00-9.67-9.67H10.162z" fill="#fff"/><path d="M.49 43.539L43.17.086l1.572 1.572L2.063 45.111.491 43.539zM3.967 55.44L55.853 3.554l1.572 1.572L5.54 57.012 3.967 55.44zm9.965 3.91l44.243-43.468 1.572 1.572-44.242 43.469-1.573-1.572z" fill="#D9D9D9"/><path d="M16.287.086L60.546 44.33l-1.573 1.57L14.714 1.66 16.287.086zM5.54 3.555L57.426 55.44l-1.572 1.572L3.968 5.127 5.54 3.555zM2.063 15.882l43.469 42.67-1.572 1.573L.49 17.454l1.573-1.572z" fill="#D9D9D9"/></svg>