<svg width="60" height="60" fill="none" xmlns="http://www.w3.org/2000/svg"><path fill-rule="evenodd" clip-rule="evenodd" d="M3.79.245C2.359.728 1.2 2.002.62 3.732l-.296.882v50.163l.28.8c.54 1.552 1.475 2.713 2.683 3.335l.524.27h51.996l.635-.337c1.563-.827 2.657-2.54 2.898-4.537.16-1.331.083-49.37-.08-49.944-.562-1.978-1.549-3.293-2.989-3.984l-.567-.27-9.787-.023C-5.229.066 4.301.072 3.79.245zM54.726 3.13c.665.21 1.13.731 1.43 1.606.215.623.215.629.215 18.548V41.21H39.776v6.207H3.347l.027-21.301L3.4 4.814l.24-.45c.404-.758.863-1.158 1.504-1.309.169-.04 10.598-.077 40.582-.083 12.778-.01 8.505.002 9 .158z" fill="#fff"/><path fill-rule="evenodd" clip-rule="evenodd" d="M15.986 20.1c-.515.472-.581.797-.734 3.597a2315.52 2315.52 0 01-.219 3.934l-.105 1.848-.359.187c-.48.25-.872.69-1.027 1.151l-.127.38 1.07 4.083c.7 2.668 1.125 4.176 1.229 4.352.306.52 1.104.88 1.816.821l.304-.025.779 2.908.78 2.91.294.207.294.207 1.29-.32c1.227-.303 1.298-.33 1.483-.554.358-.433.345-.533-.474-3.587l-.745-2.782 10.307-2.761 10.307-2.762.746 2.782c.809 3.02.854 3.13 1.352 3.344.24.103.344.087 1.459-.211 1.115-.3 1.215-.339 1.406-.562.112-.132.22-.33.238-.44.022-.13-.241-1.228-.74-3.09l-.774-2.89.177-.188c.269-.287.558-.773.618-1.038.044-.197-.143-.972-1.082-4.475l-1.135-4.236-.334-.295c-.255-.226-.46-.319-.87-.394a8.951 8.951 0 00-.667-.104c-.088-.004-.629-.811-1.707-2.55-2.512-4.049-2.848-4.534-3.37-4.861-.557-.35.08-.493-11.067 2.494-9.103 2.44-10.235 2.757-10.413 2.92zm19.816-3.826c.339.062.746.436 1.222 1.12 1.119 1.61 3.654 5.45 3.693 5.594.024.092-.003.279-.061.415-.154.359-1.113 1.152-1.95 1.614l-.726.4-8.984 2.383-8.984 2.383-.767-.018a9.847 9.847 0 01-1.343-.13c-.569-.11-1.141-.405-1.197-.615-.041-.153.567-7.036.66-7.461.09-.421.26-.767.448-.91.076-.058 4.092-1.168 8.926-2.466 7.656-2.055 8.824-2.353 9.063-2.31z" fill="#fff"/></svg>