<svg width="60" height="60" fill="none" xmlns="http://www.w3.org/2000/svg"><path fill-rule="evenodd" clip-rule="evenodd" d="M3.498 1.02a3.399 3.399 0 00-2.216 2.493c-.066.31-.082 6.573-.065 25.832l.023 25.423.277.578c.458.955 1.186 1.565 2.227 1.866.371.107 3.85.117 27.114.1l24.527-.02.559-.27c.964-.463 1.535-1.094 1.86-2.057l.154-.454-.019-25.555-.019-25.554-.167-.412c-.363-.892-1.264-1.725-2.168-2.002-.471-.145-.783-.147-26.031-.146L3.999.844l-.5.176zm51.85 1.385c.45.203.8.548 1.014.997l.177.37v25.313c-.002 25.296-.002 25.312-.154 25.646-.203.449-.55.798-1 1.01l-.373.176-5.088.001h-3.999L45.9 40.944c-.02-11.312-.048-15.075-.115-15.384-.25-1.139-.36-1.513-.659-2.255a10.703 10.703 0 00-1.404-2.466c-.187-.24-1.731-1.826-3.433-3.523-1.7-1.696-3.093-3.116-3.093-3.154 0-.038.74-.806 1.645-1.707l1.644-1.638-5.243-1.425c-8.42-2.288-9.395-2.549-9.424-2.52-.03.03 3.916 14.47 3.97 14.528.017.018.76-.691 1.65-1.578.891-.886 1.654-1.61 1.696-1.61.12 0 6.031 5.94 6.28 6.309.28.417.503.903.671 1.461.122.404.132 1.394.151 15.185l.02 14.753h-8.653v-5.94h-1.866v5.938h-8.651l.019-18.168.018-18.167 2.355-.037 2.355-.038-2.306-4.008a4477.345 4477.345 0 01-3.734-6.505c-.786-1.373-1.461-2.505-1.5-2.514-.04-.01-1.759 2.918-3.821 6.505l-3.75 6.522 2.348.02 2.348.02v36.37H4.141l-.385-.19a2.162 2.162 0 01-.995-1.03c-.133-.291-.138-1.163-.139-25.614V3.773l.176-.371a2.038 2.038 0 011.015-.997c.335-.15.35-.15 25.767-.15 25.416 0 25.432 0 25.767.15zm-25.61 35.216v2.858h1.864v-5.715h-1.865v2.857zm0 7.609v2.82h1.864v-5.64h-1.865v2.82z" fill="#fff"/><rect x="2.365" y="2.276" width="54.708" height="54.708" rx="7.473" stroke="#fff" stroke-width="4.396"/></svg>