<svg width="52" height="53" fill="none" xmlns="http://www.w3.org/2000/svg"><path fill-rule="evenodd" clip-rule="evenodd" d="M27.284.783c-.21.144-.493.41-.627.59-.234.318-.242.455-.242 4.139v3.81l.325.427c.46.604.918.813 1.649.752.693-.057 1.238-.392 1.54-.945.179-.328.2-.774.2-4.033 0-3.487-.01-3.684-.238-4.07-.539-.92-1.775-1.237-2.607-.67zm-18.4 7.58a1.936 1.936 0 00-.898 2.689c.07.126 1.266 1.364 2.66 2.75 2.155 2.145 2.598 2.534 2.969 2.602 1.23.227 2.293-.614 2.293-1.813 0-.265-.08-.65-.177-.855-.264-.557-4.901-5.139-5.422-5.357-.522-.218-.96-.223-1.425-.015zm34.107.882c-.867.2-1.317.757-1.537 1.9-1.578 8.216-6.717 16.664-13.653 22.445-4.616 3.847-10.512 6.856-15.783 8.054-2.152.49-2.214.508-2.541.766-.644.508-.87 1.555-.493 2.286.098.19.586.727 1.084 1.194 3.873 3.633 8.839 5.877 14.43 6.52 1.523.176 4.977.081 6.5-.178 9.064-1.541 16.468-7.705 19.569-16.289.896-2.482 1.322-4.797 1.413-7.678.072-2.304-.042-3.694-.49-5.932-.866-4.334-3.123-8.717-6.113-11.87-1.088-1.148-1.586-1.402-2.386-1.218zm-15.059 4.89c-2.635.302-5.536 1.4-7.606 2.88-3.64 2.6-5.97 6.234-6.805 10.61-.282 1.479-.287 4.29-.01 5.812.184 1.018.88 3.34 1.115 3.72.082.132.563-.065 2.462-1.01 2.433-1.211 3.894-2.075 5.792-3.428 5-3.56 9.041-8.083 12.052-13.487.766-1.374 1.757-3.399 1.757-3.588 0-.095-1.62-.733-2.496-.983-1.754-.502-4.474-.73-6.26-.526zM1.105 27.092c-1.002.446-1.423 1.769-.839 2.637.145.215.44.511.656.657.387.261.434.264 4.12.264h3.73l.432-.294c1.17-.797 1.085-2.489-.16-3.19-.403-.226-.604-.238-4.008-.234-2.726.004-3.666.042-3.931.16z" fill="url(#paint0_linear_1758_3882)"/><defs><linearGradient id="paint0_linear_1758_3882" x1="0" y1=".5" x2="53.04" y2="53.8" gradientUnits="userSpaceOnUse"><stop stop-color="#0ABD92"/><stop offset="1" stop-color="#009DB8"/></linearGradient></defs></svg>