<svg width="32" height="34" fill="none" xmlns="http://www.w3.org/2000/svg"><mask id="a" fill="#fff"><path fill-rule="evenodd" clip-rule="evenodd" d="M2.16.099a3.953 3.953 0 00-.632.235C1.14.53.592 1.061.382 1.444-.022 2.18 0 1.414 0 14.739c0 10.804.012 12.236.104 12.587a2.84 2.84 0 001.793 1.958l.346.12.033 1.882c.029 1.583.051 1.913.145 2.08.143.258.376.471.613.56.265.1 25.667.1 25.932 0 .237-.088.47-.302.613-.56.094-.167.116-.497.145-2.08l.033-1.881.346-.121a2.84 2.84 0 001.793-1.958c.092-.35.104-1.783.104-12.587 0-13.325.022-12.558-.382-13.293-.355-.65-1.133-1.218-1.88-1.376C29.48.017 25.654-.003 15.946 0 4.588.003 2.457.018 2.159.098zm27.73 1.203c.316.169.639.494.813.819.12.224.125.68.142 12.448.02 13.442.044 12.618-.39 13.137a1.8 1.8 0 01-.471.383l-.261.133-.002-2.31c-.001-2.098-.013-2.333-.124-2.574-.151-.326-.323-.483-.656-.601-.381-.135-25.503-.135-25.883 0-.334.118-.506.275-.657.6-.111.242-.123.477-.124 2.575l-.002 2.31-.26-.133a1.803 1.803 0 01-.472-.383c-.433-.519-.409.304-.39-13.137.017-11.768.022-12.224.142-12.448a1.933 1.933 0 011.114-.934c.092-.028 6.253-.046 13.69-.04l13.523.011.268.144zM6.288 2.34c-.882.248-1.478.886-1.664 1.782l-.078.374-.382.075c-.75.147-1.344.619-1.678 1.332-.247.528-.245 1.275.004 1.81.213.455.647.901 1.075 1.107.509.244 1.113.287 3.664.258 2.605-.029 2.639-.033 3.251-.452.607-.414 1.029-1.353.934-2.078a2.3 2.3 0 00-1.847-1.971c-.375-.07-.46-.14-.461-.378-.002-.281-.275-.87-.543-1.172-.528-.596-1.526-.897-2.275-.687zm19.918.006a2.833 2.833 0 00-2.16 3.174c.12.878.732 1.7 1.58 2.121.432.216.478.224 1.22.224.738 0 .791-.01 1.222-.22 1.152-.562 1.813-1.797 1.598-2.984-.3-1.651-1.865-2.699-3.46-2.315zM7.343 3.512c.54.243.774.876.552 1.486-.11.3-.036.54.223.732.173.128.205.13.502.043.444-.132.832-.11 1.112.061.545.334.712 1.06.364 1.581-.323.484-.318.483-3.234.483-2.896 0-2.917-.003-3.213-.458-.316-.486-.266-1.05.127-1.44.321-.32.706-.402 1.192-.256.446.134.638.086.832-.207.11-.166.11-.198.001-.602-.182-.677.022-1.172.587-1.426.347-.157.603-.156.955.003zm20.012-.031c1.484.437 1.612 2.525.194 3.164-.299.135-.87.161-1.248.057-.323-.09-.817-.53-.99-.884-.343-.702-.088-1.656.557-2.087.53-.354.915-.419 1.487-.25zm-5.31 1.098c-.193.077-.374.429-.317.617a.97.97 0 00.182.295c.121.13.204.15.662.15.433 0 .547-.023.656-.132.293-.29.228-.73-.134-.912-.189-.095-.829-.106-1.049-.018zM17.741 6.3c-.659.2-1.21.732-1.392 1.342-.109.367-.124.385-.375.427-.418.07-.702.214-1.045.533-.965.896-.768 2.388.402 3.042l.368.206h5.155l.323-.164c.823-.417 1.269-1.373 1.026-2.2a1.987 1.987 0 00-1.526-1.396c-.33-.064-.393-.098-.393-.217-.002-.49-.724-1.329-1.317-1.53-.325-.109-.936-.13-1.226-.043zm.983 1.197c.343.207.448.417.391.784-.08.525-.063.676.1.848.174.183.307.198.784.089.454-.104.876.074 1.053.445.11.23.113.283.029.522a.861.861 0 01-.321.417c-.226.15-.245.152-2.477.151-2.11 0-2.262-.008-2.446-.128-.579-.379-.46-1.184.208-1.402.19-.062.319-.061.594.004.47.112.677.052.815-.236.093-.193.098-.269.032-.451-.107-.293-.101-.476.023-.714.222-.425.799-.581 1.215-.329zm7.75 1.162c-.147.145-.165.22-.165.686 0 .458.02.539.151.657.223.2.368.23.612.128.291-.12.4-.394.362-.913-.025-.343-.06-.434-.213-.565-.24-.205-.536-.202-.747.007zm-14.732 2.18c-.22.126-9.335 9.756-9.408 9.94-.177.443.298.873.767.695.055-.021 2.067-2.113 4.47-4.649 2.403-2.535 4.387-4.61 4.41-4.61.039 0 5.311 6.021 5.34 6.1.009.023-.406.575-.92 1.227-.834 1.055-.937 1.212-.937 1.44 0 .406.436.659.802.464.068-.036 1.439-1.724 3.046-3.75 1.607-2.027 2.943-3.699 2.97-3.715.027-.016 1.518 1.671 3.315 3.75l3.266 3.78h.266c.546 0 .77-.51.41-.94-.8-.962-6.64-7.706-6.817-7.875-.163-.155-.289-.216-.449-.216-.292 0-.287-.005-2.39 2.657-.967 1.223-1.782 2.224-1.812 2.224-.03 0-1.262-1.39-2.74-3.088-1.478-1.698-2.79-3.185-2.916-3.303-.24-.227-.438-.265-.673-.13zm16.827 17.496l.018 4.532H3.413v-4.504c0-2.478.02-4.525.045-4.55.025-.024 5.68-.036 12.569-.027l12.524.017.017 4.532zM7.183 25.007c-.118.057-.487.383-.82.725-.55.565-.606.645-.606.878 0 .468.494.707.907.439l.165-.107v3.667h-.354c-.393 0-.623.12-.721.375-.087.227.08.603.306.688.096.037.713.066 1.371.066s1.275-.03 1.371-.066c.226-.085.393-.46.307-.688-.098-.254-.329-.375-.72-.375h-.35l-.02-2.654L8 25.3l-.167-.16c-.23-.222-.398-.256-.65-.133zm5.016-.03c-.765.117-1.48.7-1.756 1.432-.133.352-.14.48-.12 2.039l.02 1.663.187.351c.38.717 1.043 1.17 1.832 1.251a2.277 2.277 0 002.372-1.573c.124-.406.135-.59.116-1.966l-.021-1.52-.22-.442c-.457-.92-1.38-1.393-2.41-1.235zm5.55-.01c-1.317.273-2.1 1.678-1.536 2.754.096.182.237.388.314.457l.14.125-.17.2c-.34.4-.46.715-.46 1.21 0 .376.035.53.183.811.24.46.59.795 1.046 1.007.322.15.464.174 1.012.174.585 0 .673-.018 1.085-.218 1.196-.585 1.558-1.987.753-2.92l-.23-.265.14-.125c.076-.068.218-.259.316-.423.243-.41.253-1.142.02-1.61-.219-.441-.696-.885-1.122-1.043-.426-.158-1.09-.218-1.49-.135zm5.916.006a2.138 2.138 0 00-1.54.943c-.361.543-.435.95-.434 2.4.002 1.73.153 2.28.78 2.825.442.385.919.56 1.53.562.474.002.59-.024.984-.216a2.234 2.234 0 001.133-1.2c.13-.328.152-.534.177-1.643.042-1.882-.084-2.438-.691-3.04-.506-.502-1.202-.729-1.939-.631zM13.25 26.289c.416.294.472.533.472 2.03 0 1.675-.083 1.911-.766 2.195-.495.205-1.087-.011-1.363-.498-.147-.26-.15-.313-.131-1.758.022-1.66.028-1.68.528-2.02.308-.21.927-.184 1.26.05zm5.585-.105c.311.13.58.47.58.736 0 .635-.983 1.036-1.722.703-.708-.318-.7-1.12.015-1.436.263-.115.85-.117 1.127-.003zm5.74.06c.542.363.627.714.587 2.43-.025 1.094-.03 1.125-.213 1.4-.203.305-.607.531-.95.534-.265.002-.76-.25-.92-.469-.199-.272-.246-.617-.248-1.808-.002-1.157.058-1.571.26-1.817.357-.431 1.053-.558 1.484-.27zm-5.668 2.806c.284.134.508.44.508.696 0 .67-1.065 1.072-1.78.672-.757-.424-.603-1.187.297-1.474.253-.08.676-.034.975.106z"/></mask><path fill-rule="evenodd" clip-rule="evenodd" d="M2.16.099a3.953 3.953 0 00-.632.235C1.14.53.592 1.061.382 1.444-.022 2.18 0 1.414 0 14.739c0 10.804.012 12.236.104 12.587a2.84 2.84 0 001.793 1.958l.346.12.033 1.882c.029 1.583.051 1.913.145 2.08.143.258.376.471.613.56.265.1 25.667.1 25.932 0 .237-.088.47-.302.613-.56.094-.167.116-.497.145-2.08l.033-1.881.346-.121a2.84 2.84 0 001.793-1.958c.092-.35.104-1.783.104-12.587 0-13.325.022-12.558-.382-13.293-.355-.65-1.133-1.218-1.88-1.376C29.48.017 25.654-.003 15.946 0 4.588.003 2.457.018 2.159.098zm27.73 1.203c.316.169.639.494.813.819.12.224.125.68.142 12.448.02 13.442.044 12.618-.39 13.137a1.8 1.8 0 01-.471.383l-.261.133-.002-2.31c-.001-2.098-.013-2.333-.124-2.574-.151-.326-.323-.483-.656-.601-.381-.135-25.503-.135-25.883 0-.334.118-.506.275-.657.6-.111.242-.123.477-.124 2.575l-.002 2.31-.26-.133a1.803 1.803 0 01-.472-.383c-.433-.519-.409.304-.39-13.137.017-11.768.022-12.224.142-12.448a1.933 1.933 0 011.114-.934c.092-.028 6.253-.046 13.69-.04l13.523.011.268.144zM6.288 2.34c-.882.248-1.478.886-1.664 1.782l-.078.374-.382.075c-.75.147-1.344.619-1.678 1.332-.247.528-.245 1.275.004 1.81.213.455.647.901 1.075 1.107.509.244 1.113.287 3.664.258 2.605-.029 2.639-.033 3.251-.452.607-.414 1.029-1.353.934-2.078a2.3 2.3 0 00-1.847-1.971c-.375-.07-.46-.14-.461-.378-.002-.281-.275-.87-.543-1.172-.528-.596-1.526-.897-2.275-.687zm19.918.006a2.833 2.833 0 00-2.16 3.174c.12.878.732 1.7 1.58 2.121.432.216.478.224 1.22.224.738 0 .791-.01 1.222-.22 1.152-.562 1.813-1.797 1.598-2.984-.3-1.651-1.865-2.699-3.46-2.315zM7.343 3.512c.54.243.774.876.552 1.486-.11.3-.036.54.223.732.173.128.205.13.502.043.444-.132.832-.11 1.112.061.545.334.712 1.06.364 1.581-.323.484-.318.483-3.234.483-2.896 0-2.917-.003-3.213-.458-.316-.486-.266-1.05.127-1.44.321-.32.706-.402 1.192-.256.446.134.638.086.832-.207.11-.166.11-.198.001-.602-.182-.677.022-1.172.587-1.426.347-.157.603-.156.955.003zm20.012-.031c1.484.437 1.612 2.525.194 3.164-.299.135-.87.161-1.248.057-.323-.09-.817-.53-.99-.884-.343-.702-.088-1.656.557-2.087.53-.354.915-.419 1.487-.25zm-5.31 1.098c-.193.077-.374.429-.317.617a.97.97 0 00.182.295c.121.13.204.15.662.15.433 0 .547-.023.656-.132.293-.29.228-.73-.134-.912-.189-.095-.829-.106-1.049-.018zM17.741 6.3c-.659.2-1.21.732-1.392 1.342-.109.367-.124.385-.375.427-.418.07-.702.214-1.045.533-.965.896-.768 2.388.402 3.042l.368.206h5.155l.323-.164c.823-.417 1.269-1.373 1.026-2.2a1.987 1.987 0 00-1.526-1.396c-.33-.064-.393-.098-.393-.217-.002-.49-.724-1.329-1.317-1.53-.325-.109-.936-.13-1.226-.043zm.983 1.197c.343.207.448.417.391.784-.08.525-.063.676.1.848.174.183.307.198.784.089.454-.104.876.074 1.053.445.11.23.113.283.029.522a.861.861 0 01-.321.417c-.226.15-.245.152-2.477.151-2.11 0-2.262-.008-2.446-.128-.579-.379-.46-1.184.208-1.402.19-.062.319-.061.594.004.47.112.677.052.815-.236.093-.193.098-.269.032-.451-.107-.293-.101-.476.023-.714.222-.425.799-.581 1.215-.329zm7.75 1.162c-.147.145-.165.22-.165.686 0 .458.02.539.151.657.223.2.368.23.612.128.291-.12.4-.394.362-.913-.025-.343-.06-.434-.213-.565-.24-.205-.536-.202-.747.007zm-14.732 2.18c-.22.126-9.335 9.756-9.408 9.94-.177.443.298.873.767.695.055-.021 2.067-2.113 4.47-4.649 2.403-2.535 4.387-4.61 4.41-4.61.039 0 5.311 6.021 5.34 6.1.009.023-.406.575-.92 1.227-.834 1.055-.937 1.212-.937 1.44 0 .406.436.659.802.464.068-.036 1.439-1.724 3.046-3.75 1.607-2.027 2.943-3.699 2.97-3.715.027-.016 1.518 1.671 3.315 3.75l3.266 3.78h.266c.546 0 .77-.51.41-.94-.8-.962-6.64-7.706-6.817-7.875-.163-.155-.289-.216-.449-.216-.292 0-.287-.005-2.39 2.657-.967 1.223-1.782 2.224-1.812 2.224-.03 0-1.262-1.39-2.74-3.088-1.478-1.698-2.79-3.185-2.916-3.303-.24-.227-.438-.265-.673-.13zm16.827 17.496l.018 4.532H3.413v-4.504c0-2.478.02-4.525.045-4.55.025-.024 5.68-.036 12.569-.027l12.524.017.017 4.532zM7.183 25.007c-.118.057-.487.383-.82.725-.55.565-.606.645-.606.878 0 .468.494.707.907.439l.165-.107v3.667h-.354c-.393 0-.623.12-.721.375-.087.227.08.603.306.688.096.037.713.066 1.371.066s1.275-.03 1.371-.066c.226-.085.393-.46.307-.688-.098-.254-.329-.375-.72-.375h-.35l-.02-2.654L8 25.3l-.167-.16c-.23-.222-.398-.256-.65-.133zm5.016-.03c-.765.117-1.48.7-1.756 1.432-.133.352-.14.48-.12 2.039l.02 1.663.187.351c.38.717 1.043 1.17 1.832 1.251a2.277 2.277 0 002.372-1.573c.124-.406.135-.59.116-1.966l-.021-1.52-.22-.442c-.457-.92-1.38-1.393-2.41-1.235zm5.55-.01c-1.317.273-2.1 1.678-1.536 2.754.096.182.237.388.314.457l.14.125-.17.2c-.34.4-.46.715-.46 1.21 0 .376.035.53.183.811.24.46.59.795 1.046 1.007.322.15.464.174 1.012.174.585 0 .673-.018 1.085-.218 1.196-.585 1.558-1.987.753-2.92l-.23-.265.14-.125c.076-.068.218-.259.316-.423.243-.41.253-1.142.02-1.61-.219-.441-.696-.885-1.122-1.043-.426-.158-1.09-.218-1.49-.135zm5.916.006a2.138 2.138 0 00-1.54.943c-.361.543-.435.95-.434 2.4.002 1.73.153 2.28.78 2.825.442.385.919.56 1.53.562.474.002.59-.024.984-.216a2.234 2.234 0 001.133-1.2c.13-.328.152-.534.177-1.643.042-1.882-.084-2.438-.691-3.04-.506-.502-1.202-.729-1.939-.631zM13.25 26.289c.416.294.472.533.472 2.03 0 1.675-.083 1.911-.766 2.195-.495.205-1.087-.011-1.363-.498-.147-.26-.15-.313-.131-1.758.022-1.66.028-1.68.528-2.02.308-.21.927-.184 1.26.05zm5.585-.105c.311.13.58.47.58.736 0 .635-.983 1.036-1.722.703-.708-.318-.7-1.12.015-1.436.263-.115.85-.117 1.127-.003zm5.74.06c.542.363.627.714.587 2.43-.025 1.094-.03 1.125-.213 1.4-.203.305-.607.531-.95.534-.265.002-.76-.25-.92-.469-.199-.272-.246-.617-.248-1.808-.002-1.157.058-1.571.26-1.817.357-.431 1.053-.558 1.484-.27zm-5.668 2.806c.284.134.508.44.508.696 0 .67-1.065 1.072-1.78.672-.757-.424-.603-1.187.297-1.474.253-.08.676-.034.975.106z" fill="#fff" stroke="url(#paint0_linear_1710_4438)" stroke-width="2" mask="url(#a)"/><defs><linearGradient id="paint0_linear_1710_4438" x1="0" y1="0" x2="34.627" y2="32.749" gradientUnits="userSpaceOnUse"><stop stop-color="#0ABD92"/><stop offset="1" stop-color="#009DB8"/></linearGradient></defs></svg>