<svg width="38" height="32" fill="none" xmlns="http://www.w3.org/2000/svg"><path fill-rule="evenodd" clip-rule="evenodd" d="M.148.152a.559.559 0 000 .758c.153.15.257.152 11.35.152h11.196l.189-.187c.23-.227.239-.413.03-.675l-.16-.2H11.527C.405 0 .301.001.148.152zm26.975.001a3.192 3.192 0 00-1.344.842c-.695.697-.974 1.453-.924 2.498.028.577.07.738.318 1.232.66 1.317 2.088 2.053 3.517 1.811 2.233-.377 3.471-2.717 2.488-4.704-.296-.6-.977-1.25-1.622-1.547-.453-.21-.62-.245-1.254-.265-.584-.019-.82.008-1.18.133zm1.916 1.096c.48.197.858.554 1.105 1.04a2.172 2.172 0 01-1.034 2.99c-.886.414-2.105.127-2.696-.636-1.176-1.518-.002-3.7 1.907-3.544.243.02.566.087.718.15zM17.16 4.025a2.386 2.386 0 00-.63.238c-.461.27-5.447 5.552-5.636 5.97-.323.713-.149 1.633.415 2.19.426.42.807.576 1.417.579.901.003.986-.061 3.346-2.542 1.149-1.207 2.107-2.195 2.128-2.195.115 0 2.151.56 2.203.605.034.03-.439.906-1.05 1.948-1.156 1.972-1.452 2.513-1.55 2.83-.031.105-.675 1.2-1.43 2.432l-1.374 2.242-4.249 1.12c-2.337.616-4.375 1.184-4.53 1.262a2.186 2.186 0 00-1.106 2.658c.279.828 1.226 1.509 2.099 1.509.401 0 9.631-2.417 10.19-2.669.534-.24.831-.606 1.823-2.24.487-.801.902-1.456.923-1.455.022.002.534.598 1.139 1.325l1.1 1.322-.312 4.152c-.171 2.284-.311 4.343-.311 4.576 0 .511.335 1.24.716 1.557.856.712 1.981.749 2.914.094.28-.196.653-.754.754-1.126.072-.266.77-9.337.77-10.008 0-.626-.187-.979-1.107-2.088l-.87-1.05 1.113-1.9a742.81 742.81 0 001.342-2.3c.126-.219.275-.398.331-.398.056 0 .777.153 1.601.341.825.188 1.684.341 1.91.34.82 0 .928-.09 3.757-3.058 1.625-1.705 2.655-2.847 2.788-3.092.508-.929.09-2.157-.904-2.662-.18-.092-.515-.171-.807-.191-.456-.031-.543-.012-.977.22-.4.213-.796.59-2.452 2.34a2126.44 2126.44 0 00-2.035 2.149c-.032.035-.43-.014-.883-.11-.814-.17-.83-.178-1.259-.595-.342-.332-.949-.71-2.855-1.777l-2.42-1.357-2.58-.587c-2.993-.681-3.01-.684-3.452-.6zm3.036 1.629c1.386.315 2.591.61 2.679.655.465.24 4.5 2.528 4.687 2.66.333.232.459.587.334.943-.056.158-1.028 1.868-2.161 3.8-1.609 2.746-2.05 3.554-2.015 3.694.025.098.464.677.975 1.287.51.61.977 1.222 1.035 1.359.092.218.063.822-.237 4.904-.189 2.56-.362 4.8-.387 4.98-.117.867-1.141 1.273-1.81.717-.49-.406-.486-.218-.11-5.218.26-3.456.32-4.567.255-4.689-.047-.087-1.072-1.333-2.276-2.768-1.205-1.434-2.237-2.697-2.295-2.805-.146-.276-.13-.85.035-1.277.076-.199.73-1.368 1.45-2.598.721-1.23 1.37-2.351 1.444-2.491.158-.304.109-.573-.131-.724-.233-.145-3.356-.955-3.685-.955-.244 0-.408.153-2.407 2.255-1.18 1.241-2.234 2.316-2.343 2.389-.113.074-.343.132-.532.132-.556.001-.94-.5-.829-1.082.037-.194.619-.848 2.622-2.951 1.416-1.487 2.636-2.719 2.711-2.738.301-.077.565-.031 2.99.52zM.148 5.308a.559.559 0 000 .758c.151.149.257.152 5.602.152h5.448l.168-.176c.21-.22.214-.504.01-.72l-.157-.166H5.761c-5.356 0-5.462.003-5.613.152zm36.465.343c.2.18.327.597.265.876-.037.167-.745.964-2.476 2.787-1.334 1.404-2.515 2.629-2.626 2.721-.34.285-.542.279-2.03-.059-.773-.175-1.419-.33-1.435-.345-.017-.014.13-.336.327-.715.196-.379.357-.736.357-.793 0-.19.128-.19 1.003 0 .476.104.877.19.89.19.012 0 1.048-1.075 2.303-2.39 1.713-1.792 2.342-2.403 2.523-2.45.296-.077.703.004.899.178zM.148 10.464a.559.559 0 000 .758c.15.148.257.152 3.987.152h3.833l.167-.176c.21-.22.214-.504.01-.72l-.156-.166H4.145c-3.74 0-3.847.004-3.997.152zm.237 5.204c-.088.11-.16.26-.16.331 0 .072.072.221.16.331l.16.2H6.52c6.703 0 6.32.032 6.32-.53 0-.564.383-.531-6.32-.531H.544l-.16.2zm18.19.938c.328.396.646.777.706.846.097.112-.009.318-.947 1.845-.582.946-1.14 1.774-1.243 1.84-.262.17-9.45 2.6-9.848 2.605-1.103.014-1.532-1.344-.628-1.991.103-.074 2.022-.617 4.264-1.206 2.242-.589 4.25-1.12 4.462-1.179l.384-.107 1.07-1.747c.588-.962 1.094-1.72 1.125-1.687.031.033.325.385.654.78zM.147 20.776a.559.559 0 000 .759c.14.137.257.151 1.223.151.923 0 1.092-.019 1.243-.14.216-.172.234-.552.035-.769-.128-.14-.235-.152-1.243-.152-1.001 0-1.118.014-1.258.151zm0 5.157a.559.559 0 000 .758c.145.143.257.152 1.918.152H3.83l.159-.2c.201-.252.201-.41 0-.662l-.16-.2H2.067c-1.661 0-1.773.009-1.918.152zm0 5.156a.559.559 0 000 .758c.152.15.257.152 9.651.152h9.497l.157-.166a.496.496 0 00-.021-.731l-.178-.165H9.778c-9.373 0-9.478.002-9.63.152z" fill="url(#paint0_linear_1710_4451)"/><defs><linearGradient id="paint0_linear_1710_4451" x1="0" y1="0" x2="32.137" y2="38.35" gradientUnits="userSpaceOnUse"><stop stop-color="#0ABD92"/><stop offset="1" stop-color="#009DB8"/></linearGradient></defs></svg>