<svg width="38" height="32" fill="none" xmlns="http://www.w3.org/2000/svg"><path fill-rule="evenodd" clip-rule="evenodd" d="M29.28.028L23.972 1.42c-2.837.743-5.988 1.57-7.003 1.837l-1.844.485h-4.813c-4.995 0-5.3.016-5.897.314-.967.483-1.483 1.268-1.584 2.411l-.049.548-.52.159c-.65.199-.934.346-1.297.672A2.994 2.994 0 000 10.037c0 .333.337 1.708 1.41 5.745l1.41 5.306v2.384c0 2.633.03 2.865.466 3.546.245.385.778.845 1.158 1.002.191.079.252.164.337.474.566 2.047.618 2.163 1.227 2.73.552.514 1.084.734 1.86.77.613.028.733.002 4.341-.942 2.041-.535 5.226-1.368 7.079-1.852l3.367-.881h4.923c3.359 0 5.048-.026 5.316-.083a2.81 2.81 0 001.73-1.099c.338-.459.484-.87.544-1.538l.049-.542.52-.164c.658-.21.938-.355 1.297-.678A2.994 2.994 0 0038 22.024c0-.334-.337-1.708-1.41-5.745l-1.41-5.306V8.582c0-2.119-.016-2.441-.138-2.83a2.777 2.777 0 00-1.42-1.677 6.415 6.415 0 01-.277-.143 24.36 24.36 0 01-.28-1.006c-.332-1.248-.528-1.649-1.04-2.13-.607-.571-1.106-.776-1.93-.794-.367-.007-.734.004-.816.026zm1.355 1.616c.476.236.641.493.876 1.363.1.37.18.686.18.703 0 .018-.72.032-1.599.032-1.762 0-1.937.036-2.147.44-.143.274-.142.397.003.676.209.402.406.434 2.668.434 2.333 0 2.452.025 2.838.605l.204.307v19.653l-.204.307c-.362.543-.585.606-2.15.6l-1.357-.004-3.822-4.316a634.738 634.738 0 00-4.103-4.609c-.232-.24-.331-.291-.566-.291a.816.816 0 00-.475.149c-.105.082-.766.797-1.47 1.59-.702.791-1.3 1.413-1.328 1.381-.028-.032-.894-1.257-1.923-2.724-1.166-1.66-1.942-2.697-2.056-2.749-.254-.115-.559-.104-.746.026-.11.077-7.368 10.285-8.128 11.432-.092.138-.563-.152-.781-.48l-.207-.312-.02-9.66c-.013-6.407.006-9.756.056-9.942.094-.349.315-.633.62-.799.217-.118.858-.13 8.72-.164l8.486-.037.216-.241c.23-.256.277-.544.137-.848-.12-.262-.353-.372-.885-.419-.479-.042-.458-.048 3.786-1.162 2.346-.616 4.385-1.122 4.53-1.125.145-.004.436.08.647.184zM24.92 3.857c-.215.116-.428.452-.428.675.001.247.278.595.545.682.831.273 1.364-.876.617-1.33-.278-.168-.46-.175-.734-.027zm.574 3.514c-1.355.255-2.606 1.434-2.972 2.802-.133.498-.137 1.462-.007 1.946a3.943 3.943 0 002.551 2.704c.703.24 1.712.24 2.415 0 1.607-.546 2.653-1.99 2.65-3.659 0-1.087-.352-1.94-1.111-2.7-.954-.956-2.201-1.342-3.526-1.093zm-22.68 4.471c-.003 1.776-.018 3.196-.034 3.155-.076-.19-1.295-4.884-1.295-4.982.001-.472.35-1.014.806-1.254.57-.3.53-.535.523 3.081zm24.461-2.798c.869.41 1.328 1.14 1.333 2.115.002.5-.03.655-.203 1.009-.227.458-.616.85-1.108 1.11-.268.142-.43.169-1.024.169-.592 0-.756-.027-1.023-.17a2.557 2.557 0 01-1.107-1.11c-.172-.349-.206-.512-.206-1.007 0-.691.152-1.092.602-1.59.433-.477 1.043-.735 1.734-.735.458 0 .636.037 1.002.21zm8.608 10.492c.347 1.32.632 2.449.632 2.51-.001.48-.354 1.02-.822 1.258-.552.28-.514.51-.507-3.085.003-1.776.019-3.196.034-3.155.016.04.314 1.153.663 2.472zm-20.371-.032c.903 1.282 1.63 2.365 1.616 2.408-.015.043-.977 1.152-2.139 2.466l-2.112 2.388-2.88.001c-2.433.002-2.87-.014-2.82-.1.08-.138 6.66-9.49 6.679-9.491.008-.001.753 1.047 1.656 2.328zm9.197 3.612l3.21 3.616-3.23.02c-1.775.01-4.7.01-6.5 0l-3.272-.02 2.163-2.435c3.958-4.458 4.307-4.843 4.363-4.82.031.012 1.5 1.65 3.266 3.639zm-8.195 5.243c-.338.129-8.378 2.174-8.547 2.174-.343 0-.963-.344-1.144-.636-.088-.141-.218-.48-.289-.751a15.25 15.25 0 00-.182-.66l-.053-.167 5.144.006c2.83.003 5.112.018 5.07.034z" fill="url(#paint0_linear_1710_4442)"/><defs><linearGradient id="paint0_linear_1710_4442" x1="0" y1="0" x2="32.137" y2="38.35" gradientUnits="userSpaceOnUse"><stop stop-color="#0ABD92"/><stop offset="1" stop-color="#009DB8"/></linearGradient></defs></svg>