<svg width="62" height="49" fill="none" xmlns="http://www.w3.org/2000/svg"><path fill-rule="evenodd" clip-rule="evenodd" d="M5.813.282l-.294.283v8.177h2.034V1.955h7.058V0H6.106l-.293.282zm24.11 3.629c0 2.15-.046 3.91-.102 3.91-.056 0-.796.054-1.645.119-6.203.474-12.005 2.399-17.144 5.685-2.03 1.298-3.238 2.245-5.138 4.027C3.31 20.075.375 23.724.375 24.513c0 .27.77 1.47 1.801 2.814 1.488 1.936 4.332 4.765 6.334 6.3 2.55 1.954 6.29 4.025 9.371 5.188 3.328 1.256 6.825 1.983 11.115 2.312l.927.071V49h2.154v-3.91c0-2.152.046-3.912.102-3.912.632 0 3.504-.285 4.64-.46 1.99-.308 4.818-1.018 6.682-1.678 3.24-1.146 7.26-3.321 9.99-5.404 1.724-1.317 4.841-4.419 6.173-6.145 1.506-1.951 1.961-2.649 1.961-3.004 0-.27-.77-1.47-1.801-2.814-1.489-1.938-4.335-4.768-6.334-6.299-4.872-3.73-10.795-6.228-16.927-7.137-.943-.14-3.85-.415-4.384-.415-.056 0-.102-1.76-.102-3.911V0h-2.154v3.91zM47.39.978v.977h7.058v6.787h2.034V.565l-.294-.283L55.894 0h-8.505v.978zm-17.466 11.79v2.875h2.154V9.892h.43c.788 0 2.846.47 4.074.933 4.869 1.83 8.447 5.985 9.433 10.953.098.496.179 1.078.179 1.294v.393H40.21v2.07h6.016l-.076.79c-.101 1.047-.566 2.736-1.064 3.871-1.989 4.53-6.222 7.817-11.256 8.74-.516.095-1.122.172-1.346.172h-.408v-5.751h-2.154v5.751h-.408c-.224 0-.83-.077-1.346-.172-5.223-.958-9.528-4.422-11.454-9.217-.432-1.075-.908-3.052-.908-3.77v-.414h5.982v-2.07h-5.981v-.413c0-.228.11-.936.245-1.575 1.026-4.839 4.633-8.898 9.523-10.713 1.167-.434 3.02-.85 3.839-.864l.508-.008v2.876zm-10.909-.26c-2.363 2.18-3.957 4.792-4.766 7.81-.193.718-.392 1.707-.442 2.198l-.092.891-4.098.03-4.097.03v2.065l4.097.03 4.098.03.091.892c.051.49.25 1.48.443 2.198.811 3.027 2.402 5.628 4.786 7.827.61.563 1.01.985.886.937a35.06 35.06 0 00-.823-.294c-2.931-1.017-6.115-2.726-8.972-4.818-2.213-1.62-5.365-4.813-6.966-7.058l-.553-.776.553-.776c1.601-2.245 4.753-5.439 6.966-7.058 2.562-1.876 5.477-3.49 8.075-4.471.69-.26 1.364-.52 1.495-.576.47-.198.397-.104-.68.89zm24.402-.476c2.89 1.093 6.01 2.812 8.639 4.763 2.135 1.584 5.222 4.736 6.785 6.927l.553.776-.574.8c-1.602 2.233-4.6 5.294-6.764 6.905-2.588 1.926-6.215 3.92-8.733 4.803-.56.196-1.108.392-1.22.434-.112.043.327-.424.976-1.037 2.402-2.268 3.921-4.814 4.729-7.924.166-.638.342-1.55.39-2.024l.09-.862 4.097-.03 4.097-.03v-2.065l-4.097-.03-4.098-.03-.088-.863c-.05-.475-.225-1.386-.391-2.024-.806-3.105-2.328-5.656-4.718-7.914-.643-.608-1.148-1.105-1.122-1.105.026 0 .678.239 1.449.53zm-13.582 5.687c-1.731.297-3.472 1.322-4.517 2.66-3.027 3.878-1.082 9.338 3.829 10.748 1.137.326 2.864.276 4.063-.117 2.987-.982 4.895-3.52 4.895-6.51 0-3.652-2.907-6.613-6.71-6.834-.513-.03-1.215-.006-1.56.053zm2.913 2.196c1.326.474 2.278 1.321 2.861 2.544 1.411 2.964-.5 6.356-3.875 6.878-2.696.418-5.317-1.461-5.764-4.132-.34-2.033.865-4.214 2.815-5.091 1.321-.595 2.668-.663 3.963-.2zM5.52 44.347v4.088l.294.283.293.282h8.504v-1.955H7.553v-6.787H5.519v4.089zm48.928-.696v3.394H47.39V49h8.504l.293-.282.294-.283v-8.177h-2.034v3.393z" fill="url(#paint0_linear_1710_4414)"/><defs><linearGradient id="paint0_linear_1710_4414" x1=".375" y1="0" x2="49.084" y2="61.184" gradientUnits="userSpaceOnUse"><stop stop-color="#0ABD92"/><stop offset="1" stop-color="#009DB8"/></linearGradient></defs></svg>