<svg width="43" height="53" fill="none" xmlns="http://www.w3.org/2000/svg"><path fill-rule="evenodd" clip-rule="evenodd" d="M5.933.141c-.812.201-2.123.91-2.761 1.495C1.976 2.73 1.23 4.26 1.053 5.98c-.12 1.176-.12 39.848 0 41.024.177 1.72.922 3.247 2.119 4.346.645.592 2.116 1.362 2.926 1.532.752.157 30.05.157 30.802 0 .81-.17 2.28-.94 2.926-1.532 1.197-1.099 1.941-2.626 2.118-4.346.101-.981.132-34.303.032-34.918-.051-.319-.87-1.308-5.105-6.173C33.906 2.51 31.73.093 31.595.056 31.468.021 25.764-.004 18.92 0 9.129.006 6.357.036 5.933.141zm24.19 7.26l.027 5.236.33.302.331.302h9.002v16.642c0 10.389-.038 16.874-.1 17.262a4.268 4.268 0 01-3.593 3.568c-.97.141-28.288.14-29.243-.001-1.875-.276-3.292-1.687-3.595-3.579-.133-.83-.132-40.561.001-41.392.253-1.575 1.29-2.803 2.82-3.337l.673-.234 11.66-.003 11.658-.003.028 5.237zm8.153 3.485c.145.172-.002.181-2.899.181h-3.051V4.016l2.898 3.344c1.595 1.84 2.968 3.426 3.052 3.526zm-30.223.35c-.318.227-.53.778-.453 1.172.034.176.196.435.36.576l.299.257h5.08c5.63 0 5.401.027 5.69-.68.188-.46.082-.923-.283-1.237l-.298-.257h-5.08c-4.533 0-5.105.018-5.315.169zm.023 7.277c-.357.223-.585.775-.487 1.177.035.141.2.39.365.553l.302.297 12.566.03c6.912.017 12.759.003 12.995-.032.961-.14 1.361-1.127.743-1.834l-.295-.338-12.935-.027c-12.614-.025-12.943-.02-13.254.174zm.301 5.256c-.304.06-.716.506-.79.857-.038.17 0 .449.09.669.297.726-.574.685 13.728.655l12.86-.027.295-.338c.343-.392.398-.968.13-1.358-.377-.551.146-.531-13.466-.516-6.945.008-12.726.034-12.847.058zm-.192 5.458c-.39.173-.69.775-.6 1.196.084.394.483.79.875.87.173.036 5.956.065 12.852.065 13.51 0 13.002.02 13.379-.53.267-.39.212-.966-.13-1.358l-.296-.338-12.884-.023c-10.617-.018-12.94.003-13.196.117zm-.109 5.435c-.357.224-.585.776-.487 1.177.035.142.2.391.365.554l.302.296 12.566.03c6.912.018 12.759.003 12.995-.031.961-.14 1.361-1.127.743-1.835l-.295-.338-12.935-.026c-12.614-.025-12.943-.021-13.254.173zM7.96 40c-.365.314-.47.777-.283 1.237.289.707.061.68 5.685.68 4.934 0 5.081-.006 5.333-.209.384-.309.522-.824.34-1.27-.296-.724-.053-.695-5.697-.695h-5.08L7.96 40z" fill="url(#paint0_linear_1710_4417)"/><defs><linearGradient id="paint0_linear_1710_4417" x1=".962" y1="0" x2="53.377" y2="40.82" gradientUnits="userSpaceOnUse"><stop stop-color="#0ABD92"/><stop offset="1" stop-color="#009DB8"/></linearGradient></defs></svg>