<svg width="36" height="34" fill="none" xmlns="http://www.w3.org/2000/svg"><path d="M17.352 1.42c.307-.946 1.645-.946 1.952 0l3.4 10.466c.138.423.532.71.976.71h11.006c.994 0 1.408 1.271.603 1.856l-8.904 6.469c-.36.26-.51.724-.372 1.147l3.4 10.467c.308.945-.774 1.731-1.578 1.147l-8.904-6.469a1.026 1.026 0 00-1.206 0l-8.904 6.47c-.804.583-1.886-.203-1.58-1.148l3.402-10.467a1.026 1.026 0 00-.373-1.147l-8.904-6.47c-.804-.584-.39-1.856.603-1.856h11.006c.445 0 .839-.286.976-.709L17.352 1.42z" fill="#fff"/><path d="M17.352 1.42c.307-.946 1.645-.946 1.952 0l3.4 10.466c.138.423.532.71.976.71h11.006c.994 0 1.408 1.271.603 1.856l-8.904 6.469c-.36.26-.51.724-.372 1.147l3.4 10.467c.308.945-.774 1.731-1.578 1.147l-8.904-6.469a1.026 1.026 0 00-1.206 0l-8.904 6.47c-.804.583-1.886-.203-1.58-1.148l3.402-10.467a1.026 1.026 0 00-.373-1.147l-8.904-6.47c-.804-.584-.39-1.856.603-1.856h11.006c.445 0 .839-.286.976-.709L17.352 1.42z" fill="url(#paint0_diamond_1980_3767)"/><defs><radialGradient id="paint0_diamond_1980_3767" cx="0" cy="0" r="1" gradientUnits="userSpaceOnUse" gradientTransform="rotate(44.775 .826 -3.454) scale(58.2708 519.164)"><stop stop-color="#fff" stop-opacity=".03"/><stop offset=".781" stop-color="#fff" stop-opacity=".46"/><stop offset="1" stop-color="#fff" stop-opacity=".13"/></radialGradient></defs></svg>